<svg id="Capa_1" enable-background="new 0 0 512 512" height="512" viewBox="0 0 512 512" width="512" xmlns="http://www.w3.org/2000/svg"><g><g><g><path d="m486.36 184.469h-460.72v-48.893c0-11.046 8.954-20 20-20h420.72c11.046 0 20 8.954 20 20z" fill="#365f7e"/></g><g><path d="m339.371 115.576h-166.742c15.04 30.9 46.758 52.246 83.371 52.246s68.332-21.347 83.371-52.246z" fill="#2c4d66"/></g><g><path d="m486.36 184.469h-460.72v300.031c0 11.046 8.954 20 20 20h420.72c11.046 0 20-8.954 20-20z" fill="#f6f1f1"/></g><g><path d="m71.56 115.576h-25.92c-11.046 0-20 8.954-20 20v48.893h25.92v-48.893c0-11.046 8.954-20 20-20z" fill="#2c4d66"/></g><g><path d="m51.56 484.5v-300.031h-25.92v300.031c0 11.046 8.954 20 20 20h25.92c-11.046 0-20-8.954-20-20z" fill="#e2dfe2"/></g><g><circle cx="256" cy="75.161" fill="#b3dafe" r="67.661"/></g><g><path d="m205.379 75.161c0-34.48 25.798-62.916 59.141-67.108-2.793-.351-5.632-.553-8.52-.553-37.368 0-67.661 30.293-67.661 67.661s30.293 67.661 67.661 67.661c2.888 0 5.727-.202 8.52-.553-33.343-4.192-59.141-32.628-59.141-67.108z" fill="#8ac9fe"/></g><g><path d="m154.754 456.885h-63.46c-5.523 0-10-4.477-10-10v-158.584c0-5.523 4.477-10 10-10h63.46z" fill="#e58e82"/></g><g><path d="m98.574 446.885v-158.584c0-5.523 4.477-10 10-10h-17.28c-5.523 0-10 4.477-10 10v158.584c0 5.523 4.477 10 10 10h17.28c-5.523 0-10-4.477-10-10z" fill="#e06c57"/></g><g><path d="m81.294 316.768h73.46v32.171h-73.46z" fill="#fdcd08"/></g><g><path d="m81.294 316.768h17.28v32.171h-17.28z" fill="#faab18"/></g><g><path d="m228.214 456.885h-73.46v-210.823c0-5.523 4.477-10 10-10h53.46c5.523 0 10 4.477 10 10z" fill="#77d192"/></g><g><path d="m182.034 236.062h-17.28c-5.523 0-10 4.477-10 10v210.823h17.28v-210.823c0-5.523 4.478-10 10-10z" fill="#5bc175"/></g><g><path d="m154.754 306.7h73.46v79.547h-73.46z" fill="#fdcd08"/></g><g><path d="m154.754 306.7h17.28v79.547h-17.28z" fill="#faab18"/></g><g><path d="m291.674 456.885h-63.46v-192.93h63.46c5.523 0 10 4.477 10 10v172.93c0 5.523-4.477 10-10 10z" fill="#b3dafe"/></g><g><path d="m228.214 263.955h18v192.93h-18z" fill="#8ac9fe"/></g><g><path d="m228.214 299.179h73.46v28.882h-73.46z" fill="#e58e82"/></g><g><path d="m228.214 299.179h18v28.882h-18z" fill="#e06c57"/></g><g><path d="m228.214 392.779h73.46v28.882h-73.46z" fill="#e58e82"/></g><g><path d="m228.214 392.779h18v28.882h-18z" fill="#e06c57"/></g></g><g><path d="m466.36 108.076h-116.88c-4.142 0-7.5 3.358-7.5 7.5s3.358 7.5 7.5 7.5h116.88c6.893 0 12.5 5.607 12.5 12.5v41.393h-445.72v-41.393c0-6.893 5.607-12.5 12.5-12.5h118.08c4.142 0 7.5-3.358 7.5-7.5s-3.358-7.5-7.5-7.5h-118.08c-15.164 0-27.5 12.336-27.5 27.5v102.34c0 4.142 3.358 7.5 7.5 7.5s7.5-3.358 7.5-7.5v-45.947h445.72v292.531c0 6.893-5.607 12.5-12.5 12.5h-420.72c-6.893 0-12.5-5.607-12.5-12.5v-207.082c0-4.142-3.358-7.5-7.5-7.5s-7.5 3.358-7.5 7.5v207.082c0 15.164 12.336 27.5 27.5 27.5h420.72c15.164 0 27.5-12.336 27.5-27.5v-348.924c0-15.164-12.337-27.5-27.5-27.5z"/><path d="m218.214 228.562h-53.46c-9.649 0-17.5 7.851-17.5 17.5v24.739h-55.96c-9.649 0-17.5 7.851-17.5 17.5v158.584c0 9.649 7.851 17.5 17.5 17.5h200.38c9.649 0 17.5-7.851 17.5-17.5v-25.225-28.882-64.718-28.882-25.224c0-9.649-7.851-17.5-17.5-17.5h-55.96v-10.393c0-9.648-7.85-17.499-17.5-17.499zm-70.96 220.824h-55.96c-1.378 0-2.5-1.122-2.5-2.5v-90.446h58.46zm0-107.947h-58.46v-17.171h58.46zm0-32.17h-58.46v-20.967c0-1.378 1.122-2.5 2.5-2.5h55.96zm73.46 140.117h-58.46v-55.638h58.46zm0-70.638h-58.46v-64.548h58.46zm0-79.548h-58.46v-53.138c0-1.378 1.122-2.5 2.5-2.5h53.46c1.378 0 2.5 1.122 2.5 2.5zm73.46 147.686c0 1.378-1.122 2.5-2.5 2.5h-55.96v-20.225h58.46zm0-32.725h-58.46v-13.882h58.46zm0-28.882h-58.46v-49.718h58.46zm0-64.718h-58.46v-13.882h58.46zm-2.5-49.106c1.378 0 2.5 1.122 2.5 2.5v17.724h-58.46v-20.224z"/><path d="m437.721 288.229-20.396-54.046c-.026-.069-.053-.138-.082-.207-1.354-3.291-4.527-5.415-8.084-5.415-.003 0-.007 0-.01 0-3.562.004-6.734 2.137-8.082 5.434-.023.056-.045.112-.066.169l-20.583 54.043c-1.474 3.871.468 8.204 4.339 9.678.879.335 1.781.493 2.668.493 3.022 0 5.871-1.84 7.01-4.833l3.286-8.629h22.717l3.248 8.607c1.463 3.875 5.789 5.832 9.665 4.369 3.876-1.46 5.832-5.788 4.37-9.663zm-34.287-18.311 5.698-14.96 5.646 14.96z"/><path d="m384.187 460.459c1.311 2.419 3.842 3.926 6.594 3.926h36.568c4.142 0 7.5-3.358 7.5-7.5s-3.358-7.5-7.5-7.5h-22.729l28.162-43.221c1.502-2.306 1.622-5.249.31-7.668-1.311-2.419-3.842-3.926-6.594-3.926h-34.592c-4.142 0-7.5 3.358-7.5 7.5s3.358 7.5 7.5 7.5h20.754l-28.162 43.221c-1.503 2.306-1.623 5.249-.311 7.668z"/><path d="m416.564 361.594v-30.24c0-4.142-3.358-7.5-7.5-7.5s-7.5 3.358-7.5 7.5v30.24c0 4.142 3.358 7.5 7.5 7.5s7.5-3.358 7.5-7.5z"/><path d="m362.84 157.522c4.142 0 7.5-3.358 7.5-7.5s-3.358-7.5-7.5-7.5h-11.04c-4.142 0-7.5 3.358-7.5 7.5s3.358 7.5 7.5 7.5z"/><path d="m404.6 157.522c4.142 0 7.5-3.358 7.5-7.5s-3.358-7.5-7.5-7.5h-11.04c-4.142 0-7.5 3.358-7.5 7.5s3.358 7.5 7.5 7.5z"/><path d="m446.36 157.522c4.142 0 7.5-3.358 7.5-7.5s-3.358-7.5-7.5-7.5h-11.04c-4.142 0-7.5 3.358-7.5 7.5s3.358 7.5 7.5 7.5z"/><path d="m256 150.322c41.444 0 75.161-33.717 75.161-75.161s-33.717-75.161-75.161-75.161-75.161 33.717-75.161 75.161 33.717 75.161 75.161 75.161zm59.677-82.661h-27.846c-.715-18.128-4.02-35.749-9.799-48.464 20.071 7.93 34.88 26.346 37.645 48.464zm-27.846 15h27.846c-2.765 22.122-17.578 40.539-37.653 48.467 5.783-12.712 9.092-30.334 9.807-48.467zm-31.831-67.661c4.748 0 15.458 17.895 16.832 52.661h-33.663c1.373-34.766 12.083-52.661 16.831-52.661zm16.832 67.661c-1.374 34.766-12.084 52.661-16.832 52.661s-15.458-17.895-16.832-52.661zm-38.864-63.464c-5.778 12.715-9.084 30.336-9.799 48.464h-27.846c2.765-22.118 17.574-40.534 37.645-48.464zm-9.799 63.464c.715 18.133 4.024 35.754 9.807 48.467-20.075-7.928-34.888-26.346-37.653-48.467z"/></g></g></svg>