<svg id="Capa_1" enable-background="new 0 0 512.025 512.025" height="512" viewBox="0 0 512.025 512.025" width="512" xmlns="http://www.w3.org/2000/svg"><g><g><path d="m487.809 283.807-16.901-63.23c-7.385-27.631-23.871-51.713-46.463-68.601-2.651-1.982-1.929-6.196 1.261-7.077 24.117-6.658 30.228-37.652 29.653-49.519-.145-2.991-3.312-4.843-5.99-3.504l-31.444 15.722c-8.2 4.1-17.731 4.619-26.328 1.435l-31.407-11.635c-6.291-2.331-12.963-2.634-19.201-1.144v-6.575h-169.963v6.573c-6.235-1.487-12.903-1.183-19.191 1.146l-31.407 11.635c-8.597 3.185-18.128 2.665-26.328-1.435l-31.444-15.723c-2.679-1.339-5.845.513-5.991 3.504-.576 11.867 5.536 42.86 29.653 49.518 3.19.881 3.912 5.095 1.261 7.077-22.591 16.888-39.077 40.971-46.463 68.601l-16.901 63.23c-.945 3.535 2.735 6.528 6.015 4.892l27.198-13.5c2.903-1.441 6.225.988 5.732 4.191l-10.431 67.8c-2.459 15.981 1.011 32.309 9.754 45.91l55.801 86.802c1.962 3.052 6.622 2.285 7.502-1.235l8.747-34.988c.835-3.339 5.217-4.135 7.173-1.302l16.22 23.502c9.773 14.161 24.671 23.965 41.542 27.34l56.529 11.306 56.528-11.306c16.872-3.374 31.77-13.179 41.544-27.34l16.24-23.531c1.955-2.833 6.338-2.038 7.173 1.302l8.754 35.017c.88 3.52 5.54 4.287 7.502 1.235l55.801-86.802c8.743-13.601 12.213-29.93 9.754-45.91l-10.431-67.799c-.493-3.203 2.829-5.632 5.732-4.191l27.198 13.5c3.281 1.637 6.961-1.356 6.017-4.891z" fill="#e59f4f"/><g><path d="m347.116 63.184 5.619-28.096c1.216-6.081-4.435-11.293-10.398-9.589l-40.81 11.66c-2.579.737-5.355.179-7.45-1.496l-32.903-26.323c-3.025-2.42-7.324-2.42-10.349 0l-32.905 26.323c-2.095 1.676-4.871 2.233-7.45 1.496l-40.81-11.66c-5.963-1.704-11.614 3.508-10.398 9.589l5.619 28.096 91.117 16.567z" fill="#92b0ea"/><g fill="#7691ea"><path d="m271.077 42.197c2.095 1.676 4.871 2.233 7.45 1.496l22.427-6.408c-2.412.507-4.936-.071-6.877-1.623l-32.903-26.322c-3.025-2.42-7.324-2.42-10.349 0l-10.41 8.328z"/><path d="m342.337 25.499-22.476 6.422c5.764-1.264 11.055 3.8 9.874 9.702l-5.131 25.654 22.512-4.093 5.619-28.095c1.216-6.082-4.436-11.294-10.398-9.59z"/></g><path d="m339.398 96.317h-166.8c-8.837 0-16-7.163-16-16v-9.133c0-4.418 3.582-8 8-8h182.8c4.418 0 8 3.582 8 8v9.133c0 8.836-7.163 16-16 16z" fill="#f3ffff"/><path d="m347.398 63.184h-23c4.418 0 8 3.582 8 8v9.133c0 8.837-7.163 16-16 16h23c8.837 0 16-7.163 16-16v-9.133c0-4.419-3.581-8-8-8z" fill="#dff9f9"/></g><g><path d="m197.235 375.032v35.982l10.946 24.558c3.976 8.92 13.295 15.495 24.603 17.359 15.324 2.526 31.104 2.526 46.428 0 11.308-1.864 20.627-8.439 24.603-17.359l10.954-24.559v-35.981z" fill="#f6df59"/><path d="m291.77 375.032h-94.535v35.982l10.333 23.182c.824-.115 1.648-.262 2.471-.446l42.465-9.504c2.301-.515 4.688-.515 6.989 0l23.981 5.367-2.658 5.96c-3.976 8.92-13.295 15.495-24.603 17.359-3.881.64-7.79 1.116-11.714 1.431 11.572.931 23.27.455 34.714-1.431 11.308-1.864 20.627-8.439 24.603-17.359l10.954-24.559v-35.981h-23z" fill="#edbf50"/><path d="m403.13 246.113-5.714-15.345c-11.475-30.821-34.098-56.131-63.328-70.854-10.048-5.061-22.062-4.229-31.312 2.176l-29.278 20.273c-10.528 7.29-24.473 7.29-35.001 0l-29.277-20.273c-9.248-6.403-21.256-7.24-31.302-2.181-29.235 14.722-51.861 40.035-63.338 70.858l-5.713 15.345c-4.425 11.883-1.239 25.283 8.05 33.859 19.087 17.622 42.14 30.264 67.141 36.858 2.445.645 3.683 3.365 2.562 5.632l-16.386 33.111c-4.348 8.759-4.348 19.069 0 27.828l5.474 11.027c6.339 12.769 20.494 19.554 34.331 16.457l42.465-9.504c2.301-.515 4.688-.515 6.989 0l36.976 8.276h23c7.129-2.684 13.229-7.995 16.821-15.229l5.475-11.027c4.348-8.759 4.348-19.069 0-27.828l-16.386-33.111c-1.122-2.266.117-4.987 2.561-5.632 25.001-6.594 48.054-19.237 67.141-36.858 9.288-8.575 12.474-21.974 8.049-33.858z" fill="#f6df59"/><path d="m403.13 246.113-5.714-15.345c-11.477-30.824-34.103-56.136-63.338-70.859-7.99-4.024-17.217-4.305-25.314-1.035.78.315 1.554.653 2.314 1.035 29.235 14.722 51.861 40.035 63.338 70.859l5.714 15.345c4.425 11.883 1.239 25.283-8.05 33.859-19.087 17.622-42.141 30.264-67.141 36.858-2.445.645-3.683 3.365-2.561 5.632l16.386 33.111c4.348 8.759 4.348 19.069 0 27.828l-5.475 11.027c-3.591 7.234-9.692 12.544-16.821 15.229l5.49 1.229c13.837 3.097 27.992-3.688 34.331-16.457l5.475-11.027c4.348-8.759 4.348-19.069 0-27.828l-16.386-33.111c-1.122-2.266.116-4.987 2.561-5.632 25.001-6.594 48.054-19.237 67.141-36.858 9.289-8.577 12.475-21.976 8.05-33.86z" fill="#edbf50"/></g><g><g><g><path d="m71.1 96.184c.642.321 1.294.612 1.951.889l-10.396-5.198c-.237-.118-.478-.203-.72-.273z" fill="#e27f4d"/></g><g><path d="m487.809 283.807-16.901-63.23c-7.385-27.631-23.871-51.713-46.463-68.601-2.651-1.982-1.929-6.196 1.261-7.077 24.117-6.658 30.228-37.652 29.653-49.519-.145-2.991-3.312-4.843-5.99-3.504l-19.339 9.67c-3.563 12.968-11.628 27.607-27.323 31.94-3.19.881-3.912 5.095-1.261 7.077 22.591 16.888 39.077 40.971 46.463 68.601l16.901 63.23c.942 3.525-2.713 6.508-5.986 4.904l22.97 11.401c3.279 1.636 6.959-1.357 6.015-4.892z" fill="#e27f4d"/></g><g><path d="m448.863 279.39c-.491-3.192 2.806-5.613 5.701-4.204l-22.969-11.401c-2.903-1.441-6.225.988-5.732 4.191l10.431 67.799c2.459 15.981-1.011 32.31-9.754 45.91l-36.883 83.011c-1.673 2.602-5.299 2.42-6.88.13l3.46 13.839c.88 3.52 5.54 4.287 7.502 1.235l55.801-86.802c8.743-13.601 12.213-29.93 9.754-45.91z" fill="#e27f4d"/></g><g><path d="m373.4 428.446c-.835-3.339-5.218-4.135-7.173-1.302l-16.24 23.531c-9.773 14.161-24.671 23.966-41.543 27.34l-92.382 18.522 39.936 7.987 56.528-11.306c16.872-3.375 31.77-13.179 41.544-27.34l16.24-23.531c1.657-2.401 5.051-2.188 6.557-.036z" fill="#e27f4d"/></g></g></g><path d="m248.924 372.534-23.128-19.711c-4.828-4.115-3.508-11.052 2.6-13.655 17.376-7.404 37.827-7.404 55.203 0 6.108 2.603 7.428 9.54 2.6 13.655l-23.128 19.711c-3.906 3.33-10.24 3.33-14.147 0z" fill="#413e82"/><path d="m283.6 339.168c-12.226-5.21-25.972-6.737-39.102-4.615 5.53.894 10.952 2.421 16.102 4.615 6.107 2.603 7.428 9.54 2.6 13.655l-18.702 15.939 4.426 3.772c3.907 3.33 10.241 3.33 14.148 0l23.128-19.711c4.828-4.115 3.507-11.052-2.6-13.655z" fill="#2f2c59"/></g><g><path d="m253.927 45.833h4.142c4.143 0 7.5-3.357 7.5-7.5s-3.357-7.5-7.5-7.5h-4.142c-4.143 0-7.5 3.357-7.5 7.5s3.357 7.5 7.5 7.5z"/><path d="m410.159 243.496-5.714-15.346c-12.176-32.702-35.968-59.316-66.992-74.939-12.508-6.299-27.436-5.257-38.959 2.722l-29.265 20.264c-7.914 5.48-18.548 5.48-26.462 0l-29.265-20.264c-11.523-7.979-26.452-9.021-38.958-2.722-31.025 15.623-54.817 42.237-66.993 74.939l-5.714 15.346c-5.515 14.812-1.592 31.291 9.991 41.986 3.603 3.326 7.4 6.532 11.286 9.529 3.281 2.53 7.991 1.922 10.519-1.359 2.529-3.28 1.921-7.99-1.359-10.52-3.537-2.727-6.992-5.645-10.27-8.672-7.093-6.548-9.491-16.648-6.11-25.73l5.714-15.346c10.852-29.146 32.048-52.861 59.683-66.777 7.6-3.827 16.671-3.192 23.673 1.657l29.265 20.264c13.021 9.018 30.521 9.018 43.54 0l29.265-20.264c7.004-4.848 16.074-5.482 23.673-1.657 27.635 13.916 48.831 37.632 59.683 66.777l5.714 15.346c3.382 9.082.983 19.182-6.11 25.73-17.85 16.48-39.458 28.425-62.846 34.8l-2.648-5.335c-1.841-3.711-6.343-5.225-10.053-3.383s-5.225 6.343-3.383 10.053l23.983 48.311c3.289 6.624 3.289 14.533 0 21.157l-5.475 11.027c-4.811 9.69-15.491 14.826-25.975 12.474l-40.098-8.975v-13.61c1.59-.686 3.093-1.591 4.438-2.738l23.128-19.711c4.171-3.556 6.189-8.776 5.396-13.966-.825-5.404-4.533-10.002-9.92-12.297-19.125-8.151-41.96-8.151-61.085 0-5.387 2.295-9.095 6.893-9.92 12.297-.793 5.19 1.225 10.41 5.395 13.966l23.128 19.711c1.346 1.147 2.849 2.052 4.439 2.738v13.611l-40.098 8.975c-10.485 2.351-21.165-2.783-25.975-12.474l-5.475-11.027c-3.289-6.624-3.289-14.533 0-21.157l23.983-48.311c1.842-3.71.327-8.211-3.383-10.053-3.711-1.843-8.211-.328-10.053 3.383l-2.649 5.336c-9.553-2.6-18.858-6.132-27.726-10.555-3.709-1.853-8.211-.344-10.059 3.363-1.85 3.706-.344 8.21 3.363 10.059 8.867 4.424 18.131 8.043 27.63 10.812l-14.544 29.295c-5.362 10.801-5.362 23.696 0 34.497l5.475 11.027c4.794 9.659 13.164 16.532 22.857 19.588l9.484 21.274c5.036 11.302 16.339 19.416 30.233 21.707 8.107 1.336 16.271 2.004 24.435 2.004 8.163 0 16.327-.668 24.434-2.004 13.895-2.291 25.196-10.405 30.234-21.706l9.484-21.276c9.692-3.057 18.061-9.93 22.855-19.587l5.475-11.027c5.362-10.801 5.362-23.696 0-34.497l-14.549-29.307c24.583-7.169 47.33-19.992 66.236-37.447 11.587-10.695 15.509-27.175 9.994-41.986zm-179.497 103.619c-.204-.174-.275-.294-.294-.3.038-.105.27-.45.97-.748 15.439-6.58 33.879-6.581 49.322 0 .74.315.956.683.978.698 0 .002-.051.135-.303.35l-23.128 19.712c-1.093.932-3.322.933-4.417 0 0-.001 0-.001 0-.001zm47.331 98.416c-14.594 2.405-29.393 2.405-43.989 0-8.77-1.445-16.039-6.432-18.972-13.013l-6.155-13.808c.933-.138 1.867-.297 2.8-.506l44.322-9.92 44.323 9.92c.933.209 1.866.368 2.799.506l-6.155 13.807c-2.933 6.582-10.203 11.568-18.973 13.014z"/><path d="m306.973 239.015 28.051-20.852c3.324-2.472 4.016-7.17 1.545-10.494-2.474-3.324-7.169-4.016-10.494-1.545l-28.051 20.852c-10.275 7.639-16.403 19.844-16.392 32.66l.019 7.729c.01 4.137 3.366 7.482 7.5 7.482h.017c4.143-.01 7.492-3.376 7.483-7.518l-.019-7.719c-.008-8.078 3.858-15.777 10.341-20.595z"/><path d="m222.829 274.848h.018c4.134 0 7.49-3.346 7.5-7.482l.019-7.739c.013-12.806-6.115-25.011-16.392-32.65l-28.051-20.852c-3.325-2.471-8.023-1.779-10.494 1.545s-1.779 8.022 1.545 10.494l28.051 20.852c6.483 4.818 10.349 12.519 10.341 20.586l-.019 7.729c-.01 4.141 3.339 7.507 7.482 7.517z"/><path d="m495.055 281.87-16.9-63.23c-7.272-27.206-22.903-51.186-44.3-68.804 4.645-2.15 8.876-5.177 12.572-9.056 13.016-13.663 16.953-34.854 16.424-45.765-.192-3.945-2.341-7.491-5.749-9.485-3.407-1.994-7.552-2.132-11.088-.363l-31.444 15.723c-6.317 3.16-13.741 3.566-20.367 1.109l-31.407-11.635c-.62-.229-1.243-.441-1.869-.638 1.265-2.883 1.972-6.065 1.972-9.41v-9.133c0-5.462-2.847-10.264-7.129-13.025l4.32-21.6c1.088-5.442-.698-10.937-4.778-14.698-4.078-3.762-9.699-5.095-15.035-3.573l-40.81 11.66c-.243.068-.507.017-.703-.142l-32.905-26.32c-5.807-4.647-13.916-4.646-19.721-.001l-32.904 26.322c-.199.158-.464.209-.704.142l-40.81-11.66c-5.333-1.524-10.955-.189-15.035 3.572-4.08 3.762-5.866 9.256-4.778 14.698l4.32 21.6c-4.281 2.761-7.128 7.562-7.128 13.025v9.133c0 3.356.712 6.547 1.985 9.438-.62.196-1.241.383-1.854.61l-31.407 11.635c-6.624 2.456-14.048 2.049-20.367-1.109l-31.446-15.724c-3.532-1.765-7.678-1.631-11.087.364-3.408 1.994-5.557 5.54-5.749 9.486-.529 10.91 3.408 32.101 16.424 45.764 3.696 3.879 7.927 6.906 12.572 9.056-21.397 17.618-37.028 41.598-44.3 68.804l-16.899 63.229c-1.209 4.521.293 9.167 3.919 12.127 2.167 1.77 4.772 2.676 7.409 2.676 1.783 0 3.58-.414 5.268-1.256l21.156-10.501-9.405 61.134c-2.738 17.805 1.118 35.954 10.859 51.107l19.185 29.844c1.433 2.229 3.849 3.445 6.315 3.445 1.389 0 2.794-.386 4.049-1.192 3.484-2.239 4.493-6.88 2.253-10.364l-19.185-29.844c-7.76-12.071-10.832-26.53-8.65-40.714l12.751-82.882c.63-4.094-2.179-7.924-6.272-8.554-4.089-.625-7.924 2.178-8.554 6.273l-.557 3.618-24.192 12.008 15.043-56.28c7.736-28.942 26.121-53.781 51.214-69.711.295-.156.575-.333.845-.525 3.174-1.978 6.448-3.823 9.825-5.508 3.707-1.849 5.213-6.352 3.363-10.059-1.849-3.707-6.351-5.21-10.059-3.363-3.262 1.627-6.443 3.382-9.538 5.253-6.98-.436-12.742-3.113-17.555-8.166-7.985-8.383-11.253-21.068-12.096-29.32l26.384 13.192c10.017 5.008 21.784 5.649 32.287 1.76l31.407-11.635c4.094-1.517 8.43-1.899 12.604-1.283.753.183 1.519.33 2.298.438 5.047 1.217 9.73 3.936 13.275 7.98l1.53 1.745c2.729 3.115 7.47 3.426 10.583.694 2.988-2.619 3.388-7.08 1.007-10.188h120.55c-2.381 3.108-1.981 7.57 1.007 10.188 3.111 2.731 7.852 2.421 10.583-.694l1.53-1.745c3.556-4.054 8.255-6.776 13.318-7.989.74-.105 1.469-.247 2.185-.42 4.194-.631 8.556-.252 12.673 1.274l31.407 11.635c10.503 3.889 22.27 3.249 32.287-1.76l26.384-13.192c-.843 8.253-4.11 20.938-12.096 29.32-4.813 5.053-10.575 7.731-17.555 8.166-3.095-1.871-6.275-3.626-9.538-5.253-3.709-1.854-8.21-.344-10.059 3.363-1.85 3.706-.344 8.21 3.363 10.059 3.377 1.685 6.651 3.53 9.825 5.508.27.192.551.37.845.525 25.093 15.929 43.478 40.769 51.214 69.711l15.043 56.28-24.192-12.008-.557-3.618c-.63-4.093-4.453-6.902-8.554-6.273-4.094.63-6.902 4.46-6.272 8.554l12.751 82.882c2.182 14.184-.891 28.643-8.65 40.714l-51.602 80.27-12.36-49.441c-1.005-4.02-5.08-6.46-9.096-5.457-4.019 1.005-6.461 5.077-5.457 9.096l2.521 10.084-19.34 28.024c-8.713 12.626-21.797 21.236-36.841 24.245l-55.058 11.012-55.057-11.012c-15.043-3.008-28.127-11.619-36.841-24.245l-19.321-27.995 2.529-10.113c1.004-4.018-1.438-8.091-5.457-9.096-4.02-1.003-8.09 1.44-9.096 5.457l-12.36 49.441-15.815-24.601c-2.239-3.485-6.881-4.493-10.364-2.253-3.484 2.24-4.493 6.88-2.253 10.364l20.014 31.132c2.165 3.369 5.87 5.349 9.787 5.349.629 0 1.263-.051 1.897-.155 4.585-.755 8.276-4.156 9.403-8.664l6.869-27.476 11.821 17.129c10.939 15.85 27.362 26.658 46.245 30.435l56.527 11.306c.485.097.978.145 1.471.145s.985-.049 1.471-.145l56.528-11.306c18.884-3.776 35.308-14.585 46.245-30.435l11.841-17.158 6.876 27.504c1.127 4.509 4.818 7.91 9.403 8.665.635.104 1.268.155 1.897.155 3.917 0 7.622-1.979 9.786-5.348l55.801-86.802c9.741-15.152 13.598-33.302 10.859-51.107l-9.405-61.134 21.143 10.494c1.694.846 3.497 1.261 5.284 1.261 2.639 0 5.241-.906 7.406-2.674 3.631-2.96 5.133-7.606 3.925-12.126zm-322.457-193.053c-4.687 0-8.5-3.813-8.5-8.5v-9.133c0-.275.225-.5.5-.5h182.8c.275 0 .5.225.5.5v9.133c0 4.687-3.814 8.5-8.5 8.5zm-5.745-55.929c.322-.298.619-.213.746-.178l40.812 11.661c4.906 1.399 10.212.333 14.194-2.853l32.904-26.322c.289-.23.691-.23.979 0l32.903 26.322c3.983 3.188 9.29 4.252 14.196 2.852l40.809-11.66c.127-.035.423-.12.746.178s.264.601.237.729l-4.413 22.066h-169.937l-4.413-22.066c-.025-.128-.086-.431.237-.729z"/></g></g></svg>