<svg id="Capa_1" enable-background="new 0 0 512 512" height="512" viewBox="0 0 512 512" width="512" xmlns="http://www.w3.org/2000/svg"><g><g><g><path d="m281.997 307.633c1.141-28.431 24.262-51.572 52.693-52.734 18.535-.758 35.139 7.653 45.652 21.067 9.872 12.596 29.475 11.124 36.867-3.069 12.87-24.713 20.225-52.755 20.427-82.5.682-100.621-81.014-182.898-181.638-182.897-100.974.001-182.704 82.394-181.628 183.616 1.069 100.526 82.66 180.505 183.188 179.658 4.903-.041 9.759-.277 14.561-.701 15.887-1.401 25.144-18.884 17.171-32.697-5.019-8.693-7.729-18.886-7.293-29.743z" fill="#e9a761"/></g><g><path d="m405.182 275.966c-10.513-13.415-27.118-21.825-45.652-21.067-3.465.142-6.85.615-10.127 1.38 12.459 2.871 23.308 9.95 30.94 19.688 7.563 9.65 20.832 11.033 29.951 4.776-1.878-1.272-3.609-2.859-5.112-4.777z" fill="#e69642"/></g><g><path d="m234.246 286.508c13.898-21.735 13.529-49.58-.94-70.939l-19.446-28.706c-5.216-7.698-13.882-12.293-23.18-12.293-9.3 0-17.967 4.597-23.182 12.296l-19.445 28.704c-14.469 21.359-14.837 49.205-.94 70.938l1.446 2.262v20.118l-.881 2.329c-.157.415-.295.837-.448 1.253-29.409-31.856-47.52-74.354-48.019-121.353-1.032-97.033 74.031-176.748 169.193-183.184-4.101-.278-8.235-.433-12.406-.433-100.974.001-182.704 82.394-181.628 183.616.602 56.651 26.782 106.771 67.509 139.582 0 .002-.001.004-.002.006 27.918 22.492 62.673 36.841 100.715 39.586 1.226-20.019-1.814-40.321-8.912-59.076l-.881-2.327v-20.117z" fill="#e69642"/></g><g><path d="m207.8 313.46 2.5 6.605c6.46 17.07 8.841 35.413 6.953 53.566l-12.68 121.903c-.53 5.095-4.824 8.965-9.946 8.965h-7.893c-5.122 0-9.416-3.871-9.946-8.965l-12.68-121.903c-1.888-18.153.493-36.497 6.953-53.566l2.5-6.605z" fill="#365f7e"/></g><g><path d="m207.8 281.46 5.384-8.42c8.503-13.298 8.277-30.382-.576-43.45l-19.444-28.703c-1.19-1.757-3.778-1.757-4.968 0l-19.444 28.703c-8.853 13.068-9.079 30.152-.576 43.45l5.384 8.42z" fill="#88f2a9"/></g><g><path d="m182.672 229.59 14.968-22.096-4.476-6.608c-1.19-1.757-3.778-1.757-4.968 0l-19.444 28.703c-8.853 13.068-9.079 30.152-.576 43.45l5.384 8.42h13.92l-5.384-8.42c-8.503-13.297-8.277-30.381.576-43.449z" fill="#77d192"/></g><g><path d="m173.56 281.46h34.24v32h-34.24z" fill="#fdcd08"/></g><g><path d="m190.707 495.534-12.68-121.903c-1.888-18.153.493-36.497 6.953-53.566l2.5-6.605h-13.92l-2.5 6.605c-6.46 17.07-8.841 35.413-6.953 53.566l12.68 121.903c.53 5.095 4.824 8.966 9.946 8.966h7.893c1.049 0 2.059-.17 3.013-.472-3.705-1.172-6.51-4.442-6.932-8.494z" fill="#2c4d66"/></g><g><path d="m173.56 281.46h13.92v32h-13.92z" fill="#faab18"/></g><g><circle cx="256" cy="76.697" fill="#fdcd08" r="29.636"/></g><g><path d="m243.644 76.697c0-13.361 8.844-24.654 20.996-28.353-2.734-.832-5.634-1.283-8.64-1.283-16.367 0-29.636 13.269-29.636 29.636s13.268 29.636 29.636 29.636c3.006 0 5.906-.451 8.64-1.283-12.152-3.699-20.996-14.992-20.996-28.353z" fill="#faab18"/></g><g><circle cx="356.918" cy="139.337" fill="#88f2a9" r="29.636"/></g><g><path d="m344.562 139.337c0-13.361 8.844-24.654 20.996-28.353-2.734-.832-5.634-1.283-8.64-1.283-16.367 0-29.636 13.269-29.636 29.636s13.268 29.636 29.636 29.636c3.006 0 5.906-.451 8.64-1.283-12.152-3.699-20.996-14.992-20.996-28.353z" fill="#77d192"/></g><g><circle cx="155.082" cy="139.337" fill="#e58e82" r="29.636"/></g><g><path d="m142.726 139.337c0-13.361 8.844-24.654 20.996-28.353-2.734-.832-5.634-1.283-8.64-1.283-16.367 0-29.636 13.269-29.636 29.636s13.268 29.636 29.636 29.636c3.006 0 5.906-.451 8.64-1.283-12.152-3.699-20.996-14.992-20.996-28.353z" fill="#e06c57"/></g></g><g><path d="m81.87 191.036c-.499-46.89 17.378-91.059 50.337-124.371 32.964-33.316 76.927-51.665 123.791-51.665 33.218 0 65.538 9.433 93.467 27.28 3.491 2.229 8.128 1.209 10.358-2.281s1.209-8.128-2.281-10.358c-30.345-19.392-65.459-29.641-101.544-29.641-50.901 0-98.651 19.929-134.455 56.116-35.798 36.181-55.214 84.153-54.673 135.08.284 26.667 5.942 52.356 16.819 76.354 10.514 23.196 25.377 43.716 44.178 60.991 1.44 1.324 3.259 1.978 5.072 1.978 2.026 0 4.046-.816 5.524-2.426 2.803-3.05 2.602-7.794-.448-10.597-35.687-32.793-55.626-77.704-56.145-126.46z"/><path d="m390.277 56.081c-2.916-2.943-7.665-2.963-10.606-.049-2.942 2.916-2.964 7.664-.049 10.606 32.89 33.193 50.83 77.127 50.514 123.708-.189 27.895-6.776 54.503-19.579 79.086-2.264 4.347-6.373 7.1-11.273 7.553-5.03.47-9.902-1.645-13.038-5.646-12.39-15.809-31.774-24.747-51.862-23.935-32.282 1.32-58.584 27.643-59.88 59.927-.477 11.886 2.391 23.571 8.292 33.793 2.467 4.273 2.561 9.263.257 13.691-2.309 4.438-6.642 7.349-11.591 7.785-4.611.407-9.31.633-13.965.672-1.794.015-3.609.003-5.391-.035-4.137-.127-7.57 3.195-7.659 7.337-.089 4.141 3.196 7.57 7.337 7.66 1.391.03 2.798.044 4.204.044.545 0 1.091-.002 1.635-.007 5.052-.042 10.151-.288 15.156-.729 10.08-.889 18.895-6.797 23.581-15.805 4.646-8.933 4.432-19.442-.574-28.113-4.48-7.761-6.657-16.645-6.294-25.692.984-24.534 20.973-44.538 45.505-45.542 15.287-.616 30.021 6.179 39.443 18.2 6.294 8.032 16.096 12.265 26.227 11.33 9.928-.919 18.599-6.736 23.194-15.561 13.912-26.712 21.07-55.617 21.275-85.913.343-50.598-19.14-98.318-54.859-134.365z"/><path d="m219.503 277.081c10.128-15.839 9.859-36.132-.686-51.697l-19.444-28.704c-1.956-2.887-5.206-4.611-8.693-4.611s-6.737 1.724-8.693 4.611l-19.444 28.704c-10.544 15.565-10.813 35.857-.685 51.696l4.203 6.573v28.435l-2.015 5.322c-6.838 18.07-9.396 37.78-7.398 56.998l12.68 121.904c.931 8.944 8.414 15.689 17.406 15.689h7.893c8.992 0 16.476-6.745 17.407-15.689l12.68-121.903c1.999-19.218-.56-38.927-7.398-56.998l-2.014-5.321v-28.435zm-38.443 11.879h19.24v17h-19.24zm-6.099-55.164 15.719-23.204 15.718 23.204c7.181 10.599 7.364 24.417.467 35.204l-3.171 4.96h-26.027l-3.171-4.96c-6.898-10.786-6.715-24.604.465-35.204zm34.832 139.059-12.679 121.903c-.133 1.278-1.203 2.242-2.487 2.242h-7.893c-1.285 0-2.354-.964-2.487-2.241l-12.68-121.903c-1.758-16.904.492-34.241 6.507-50.136l.666-1.76h23.88l.666 1.759c6.015 15.895 8.265 33.232 6.507 50.136z"/><path d="m293.136 76.697c0-20.477-16.659-37.136-37.136-37.136s-37.136 16.659-37.136 37.136 16.659 37.136 37.136 37.136 37.136-16.659 37.136-37.136zm-59.272 0c0-12.206 9.93-22.136 22.136-22.136s22.136 9.93 22.136 22.136-9.93 22.136-22.136 22.136-22.136-9.93-22.136-22.136z"/><path d="m319.782 139.337c0 20.477 16.659 37.136 37.136 37.136s37.136-16.659 37.136-37.136-16.659-37.136-37.136-37.136-37.136 16.659-37.136 37.136zm59.272 0c0 12.206-9.93 22.136-22.136 22.136s-22.136-9.93-22.136-22.136 9.93-22.136 22.136-22.136 22.136 9.93 22.136 22.136z"/><path d="m117.946 139.337c0 20.477 16.659 37.136 37.136 37.136s37.136-16.659 37.136-37.136-16.659-37.136-37.136-37.136-37.136 16.659-37.136 37.136zm59.272 0c0 12.206-9.93 22.136-22.136 22.136s-22.136-9.93-22.136-22.136 9.93-22.136 22.136-22.136c12.205 0 22.136 9.93 22.136 22.136z"/></g></g></svg>