<svg id="Capa_1" enable-background="new 0 0 512 512" height="512" viewBox="0 0 512 512" width="512" xmlns="http://www.w3.org/2000/svg"><g><g><g fill="#e27f86"><path d="m440 190.993c0-43.007-32.321-78.465-73.997-83.411-3.28-.389-6.618-.589-10.003-.589-46.392 0-83 42.709-83 84 0 40.613 36.608 84 83 84 3.384 0 6.721-.2 10-.589 41.678-4.944 74-40.402 74-83.411z"/><path d="m239 191.444c0-11.079-7.247-20.461-17.249-23.645-2.366-.753-4.886-.16-7.501-.16-13.669 0-23.75 10.106-23.75 23.805s10.081 23.805 23.75 23.805c2.563 0 5.035.61 7.36-.115 10.075-3.14 17.39-12.559 17.39-23.69z"/><path d="m504.5 191.444c0-5.993-3.333-11.207-8.243-13.88-2.232-1.215-4.789-.905-7.507-.905-8.698 0-14.75 8.086-14.75 14.785 0 6.791 6.052 14.785 14.75 14.785 2.715 0 5.27.311 7.5-.901 4.914-2.672 8.25-7.887 8.25-13.884z"/><path d="m356 72.273c2.715 0 5.27.311 7.5-.901 4.914-2.672 8.25-7.887 8.25-13.884 0-5.993-3.333-11.207-8.243-13.88-2.232-1.215-4.789-.905-7.507-.905-8.698 0-14.75 6.067-14.75 14.785s6.052 14.785 14.75 14.785z"/><path d="m356 355.703c2.617 0 5.138.587 7.502-.176 9.818-3.173 16.921-12.405 16.921-23.3 0-10.896-7.104-20.129-16.922-23.301-2.363-.763-5.884-.176-8.5-.176-13.488 0-22.422 12.379-22.422 23.477-.001 8.625 9.933 23.476 23.421 23.476z"/><path d="m440.474 106.785c5.648 5.648 16.58 10.591 25.794 7.96 4.318-1.233 8.391-3.553 11.791-6.96 10.655-10.679 10.655-27.992 0-38.671-3.4-3.407-7.474-5.727-11.791-6.96-9.214-2.631-21.123 3.289-25.794 7.96-9.436 9.436-9.09 27.581 0 36.671z"/><path d="m252.772 294.904c2.801 2.801 11.673 6.967 17.645 3.719 1.303-.709 2.527-1.615 3.629-2.719 6.151-6.164 6.151-16.159 0-22.323-1.102-1.104-2.326-2.01-3.629-2.719-5.972-3.248-13.975.049-17.645 3.719-6.158 6.157-6.158 14.165 0 20.323z"/><path d="m273.268 108.529c9.665-9.687 9.665-25.393 0-35.079-2.899-2.906-6.339-4.94-9.995-6.102-8.532-2.713-18.241.321-25.007 7.102-9.665 9.687-6.122 26.739.755 33.615 6.774 6.774 15.72 9.28 24.252 6.567 3.656-1.163 7.096-3.197 9.995-6.103z"/><path d="m473.733 309.439c9.665-9.687 9.665-25.393 0-35.079-2.897-2.904-6.335-4.937-9.988-6.1-8.533-2.716-17.935.682-24.703 7.465-9.665 9.687-8.043 23.957.298 32.298 6.773 6.773 15.863 10.232 24.394 7.52 3.658-1.163 7.099-3.197 9.999-6.104z"/></g><circle cx="323" cy="191.203" fill="#df646e" r="17.5"/><circle cx="380.5" cy="164.703" fill="#df646e" r="15"/><circle cx="377.5" cy="225.703" fill="#df646e" r="15"/><path d="m39.086 373.252c0-6.01-3.342-11.237-8.265-13.918-2.238-1.218-4.802-.91-7.528-.91-8.722 0-14.793 6.086-14.793 14.828s6.071 14.828 14.793 14.828c2.715 0 5.269.314 7.501-.896 4.937-2.675 8.292-7.911 8.292-13.932z" fill="#7dc3ee"/><path d="m219.45 373.252c0-5.549-3.013-10.395-7.493-12.989-2.208-1.279-4.772-1.011-7.507-1.011-8.284 0-14 5.716-14 14s5.716 14 14 14c2.737 0 5.302.267 7.511-1.013 4.478-2.595 7.489-7.439 7.489-12.987z" fill="#7dc3ee"/><path d="m113.743 296.775c2.735 0 5.299.268 7.507-1.011 4.48-2.595 7.493-7.44 7.493-12.989s-3.013-10.395-7.493-12.989c-2.208-1.279-4.772-1.011-7.507-1.011-8.284 0-14 5.716-14 14s5.716 14 14 14z" fill="#7dc3ee"/><path d="m113.743 477.703c2.72 0 5.276.302 7.502-.925 4.817-2.657 8.082-7.793 8.082-13.693s-3.264-11.036-8.082-13.693c-2.225-1.227-4.782-.925-7.502-.925-8.607 0-14.584 5.993-14.584 14.618s5.977 14.618 14.584 14.618z" fill="#7dc3ee"/><path d="m169.085 317.789c6.062 6.075 13.895 8.679 21.421 5.813 2.701-1.029 5.233-2.633 7.408-4.813 8.237-8.255 8.237-21.64 0-29.895-2.175-2.18-4.707-3.784-7.408-4.813-7.526-2.866-15.359-.262-21.42 5.813-8.237 8.255-8.237 19.64-.001 27.895z" fill="#7dc3ee"/><path d="m31.481 455.646c5.932 5.932 13.606 8.452 20.943 5.558 2.526-.996 4.894-2.516 6.937-4.558 7.975-7.975 7.975-20.905 0-28.88-2.043-2.043-4.41-3.562-6.937-4.558-7.337-2.893-15.011-.374-20.943 5.558-7.975 7.975-7.975 18.905 0 26.88z" fill="#7dc3ee"/><path d="m60.952 320.344c6.167-6.181 6.167-16.203 0-22.384-1.112-1.114-2.348-2.027-3.663-2.74-5.984-3.241-12.615-1.327-17.671 3.74-6.167 6.181-4.634 15.75 0 20.384 5.062 5.061 11.687 6.98 17.671 3.74 1.316-.712 2.552-1.626 3.663-2.74z" fill="#7dc3ee"/><path d="m188.868 448.544c6.167-6.181 6.167-16.203 0-22.384-1.109-1.111-2.342-2.023-3.654-2.735-5.986-3.247-12.622-1.335-17.68 3.735-6.167 6.181-6.167 14.203 0 20.384 5.055 5.066 11.684 6.98 17.667 3.742 1.317-.713 2.554-1.627 3.667-2.742z" fill="#7dc3ee"/><path d="m204.5 191.444c0-11.079 7.253-20.46 17.255-23.644-2.366-.753-4.89-1.161-7.505-1.161-13.669 0-24.75 11.106-24.75 24.805s11.081 24.805 24.75 24.805c2.615 0 5.132-.405 7.498-1.159-10.002-3.184-17.248-12.567-17.248-23.646z" fill="#df646e"/><path d="m488 191.444c0-5.996 3.336-11.211 8.25-13.883-2.23-1.213-4.785-1.902-7.5-1.902-8.698 0-15.75 7.067-15.75 15.785s7.052 15.785 15.75 15.785c2.715 0 5.27-.689 7.5-1.902-4.914-2.671-8.25-7.886-8.25-13.883z" fill="#df646e"/><path d="m355.25 57.488c0-5.997 3.336-11.212 8.25-13.883-2.23-1.213-4.785-1.902-7.5-1.902-8.698 0-15.75 7.067-15.75 15.785s7.052 15.785 15.75 15.785c2.715 0 5.27-.689 7.5-1.902-4.914-2.672-8.25-7.887-8.25-13.883z" fill="#df646e"/><path d="m346.578 332.226c0-10.895 7.104-20.128 16.922-23.301-2.364-.764-4.883-1.176-7.5-1.176-13.488 0-24.422 10.959-24.422 24.477s10.934 24.477 24.422 24.477c2.617 0 5.138-.412 7.502-1.176-9.818-3.173-16.924-12.406-16.924-23.301z" fill="#df646e"/><path d="m454.474 107.785c-10.655-10.679-10.655-27.992 0-38.671 3.4-3.407 7.476-5.728 11.794-6.96-9.214-2.631-19.539-.311-26.794 6.96-10.655 10.679-10.655 27.992 0 38.671 7.255 7.271 17.58 9.591 26.794 6.96-4.318-1.232-8.394-3.552-11.794-6.96z" fill="#df646e"/><path d="m266.772 295.904c-6.151-6.164-6.151-16.159 0-22.323 1.103-1.105 2.34-2.01 3.645-2.719-5.971-3.245-13.597-2.34-18.645 2.719-6.151 6.165-6.151 16.159 0 22.323 5.048 5.059 12.674 5.964 18.645 2.719-1.305-.709-2.542-1.614-3.645-2.719z" fill="#df646e"/><path d="m253.267 108.529c-9.665-9.687-9.665-25.393 0-35.08 2.9-2.906 6.358-4.938 10.014-6.1-8.531-2.712-18.249-.681-25.014 6.1-9.665 9.687-9.665 25.393 0 35.08 6.766 6.781 16.475 8.815 25.007 6.102-3.657-1.162-7.107-3.196-10.007-6.102z" fill="#df646e"/><path d="m453.731 309.439c-9.666-9.687-9.666-25.393 0-35.079 2.9-2.906 6.358-4.938 10.014-6.1-8.531-2.712-18.248-.681-25.014 6.1-9.666 9.687-9.666 25.393 0 35.079 6.766 6.781 16.472 8.816 25.003 6.104-3.656-1.163-7.103-3.198-10.003-6.104z" fill="#df646e"/><path d="m22.5 373.252c0-6.021 3.355-11.255 8.293-13.931-2.231-1.209-4.785-1.897-7.5-1.897-8.722 0-15.793 7.086-15.793 15.828s7.071 15.828 15.793 15.828c2.715 0 5.269-.688 7.5-1.897-4.938-2.676-8.293-7.91-8.293-13.931z" fill="#64acdc"/><path d="m204.45 373.252c0-5.549 3.032-10.392 7.511-12.987-2.208-1.279-4.776-2.013-7.511-2.013-8.284 0-15 6.716-15 15s6.716 15 15 15c2.736 0 5.303-.734 7.511-2.013-4.479-2.595-7.511-7.438-7.511-12.987z" fill="#64acdc"/><path d="m113.743 282.775c0-5.549 3.028-10.394 7.507-12.989-2.208-1.279-4.772-2.011-7.507-2.011-8.284 0-15 6.716-15 15s6.716 15 15 15c2.735 0 5.292-.728 7.5-2.007-4.479-2.595-7.5-7.444-7.5-12.993z" fill="#64acdc"/><path d="m113.159 463.084c0-5.9 3.268-11.036 8.086-13.693-2.226-1.227-4.782-1.925-7.502-1.925-8.607 0-15.584 6.993-15.584 15.618 0 8.626 6.977 15.619 15.584 15.619 2.72 0 5.276-.698 7.502-1.926-4.818-2.656-8.086-7.793-8.086-13.693z" fill="#64acdc"/><path d="m183.085 318.789c-8.237-8.255-8.237-21.639 0-29.895 2.176-2.181 4.719-3.784 7.421-4.813-7.525-2.866-16.359-1.262-22.421 4.813-8.237 8.255-8.237 21.64 0 29.895 6.061 6.075 14.895 7.679 22.421 4.813-2.701-1.029-5.245-2.633-7.421-4.813z" fill="#64acdc"/><path d="m45.481 456.646c-7.975-7.975-7.975-20.905 0-28.88 2.043-2.043 4.42-3.561 6.947-4.557-7.337-2.893-16.015-1.375-21.947 4.557-7.975 7.975-7.975 20.905 0 28.88 5.932 5.932 14.606 7.451 21.943 4.558-2.527-.996-4.9-2.515-6.943-4.558z" fill="#64acdc"/><path d="m53.618 320.344c-6.167-6.181-6.167-16.203 0-22.384 1.112-1.114 2.355-2.027 3.671-2.74-5.984-3.24-13.615-2.327-18.671 2.74-6.167 6.181-6.167 16.203 0 22.384 5.056 5.067 12.687 5.98 18.671 2.74-1.316-.712-2.559-1.625-3.671-2.74z" fill="#64acdc"/><path d="m181.533 448.544c-6.167-6.181-6.167-16.203 0-22.384 1.112-1.114 2.365-2.022 3.68-2.735-5.984-3.24-13.625-2.332-18.68 2.735-6.167 6.181-6.167 16.203 0 22.384 5.056 5.067 12.683 5.982 18.667 2.742-1.315-.713-2.555-1.628-3.667-2.742z" fill="#64acdc"/><path d="m165.429 372.964c0-25.183-17.931-46.169-41.696-50.834-3.232-.634-6.572.033-9.99.033-28.545 0-50.686 22.192-50.686 50.8 0 28.609 22.141 50.801 50.686 50.801 3.421 0 6.765.667 10 .031 23.759-4.667 41.686-25.651 41.686-50.831z" fill="#7dc3ee"/><path d="m65.729 203.172c-11.886-4.554-19.04-14.978-19.538-28.405-1.419-38.257 18.639-95.681 47.298-124.787 7.21-7.322 27.638-13.978 40.49-5.787 1.711 1.09 3.343 2.356 4.873 3.798 13.019 12.277 13.618 32.677 1.338 45.566-20.582 21.603-31.434 49.926-30.558 79.752.523 17.795-13.554 32.571-31.443 33.005-1.103.027-2.196-.002-3.274-.083-3.209-.243-6.295-1.951-9.186-3.059z" fill="#8ce1a4"/><path d="m59.85 179.877c-1.383-47.038 15.732-91.707 48.193-125.777 6.956-7.301 16.569-10.62 25.949-9.899-12.852-8.19-30.112-6.476-40.949 4.899-32.461 34.07-49.576 78.739-48.193 125.777.395 13.431 8.993 24.741 20.879 29.295 2.891 1.108 5.977 1.815 9.186 2.057-8.781-5.582-14.738-15.234-15.065-26.352z" fill="#7bd6a4"/><path d="m478.5 433.703c0-23.635-16.733-43.361-38.999-47.979-3.229-.669-6.574-.021-10.001-.021-27.062 0-47 20.938-47 48s19.938 48 47 48c3.422 0 6.762.649 9.986-.018 22.273-4.612 39.014-24.342 39.014-47.982z" fill="#8ce1a4"/><path d="m292 190.993c0-43.006 32.328-78.463 74.003-83.411-3.281-.39-6.617-.589-10.003-.589-46.392 0-84 37.608-84 84s37.608 84 84 84c3.386 0 6.719-.2 10-.589-41.675-4.947-74-40.405-74-83.411z" fill="#df646e"/><path d="m82.057 372.964c0-25.179 17.918-46.164 41.676-50.834-3.236-.636-6.568-.967-9.99-.967-28.545 0-51.686 23.192-51.686 51.8s23.141 51.801 51.686 51.801c3.422 0 6.764-.333 10-.969-23.758-4.668-41.686-25.652-41.686-50.831z" fill="#64acdc"/><path d="m400.5 433.703c0-23.635 16.734-43.358 39-47.976-3.229-.67-6.573-1.024-10-1.024-27.062 0-49 21.938-49 49s21.938 49 49 49c3.427 0 6.771-.352 10-1.021-22.266-4.618-39-24.345-39-47.979z" fill="#7bd6a4"/><circle cx="429.5" cy="433.703" fill="#afefa5" r="15"/><path d="m270.5 474.703c0-6.125-3.441-11.445-8.495-14.134-2.238-1.191-4.793-.866-7.505-.866-8.837 0-15 6.163-15 15s6.163 15 15 15c2.712 0 5.266.325 7.505-.866 5.054-2.689 8.495-8.01 8.495-14.134z" fill="#7dc3ee"/><path d="m326.5 424.703c0-8.952-5.602-16.597-13.492-19.618-2.331-.893-4.863-.382-7.508-.382-11.598 0-20 8.402-20 20s8.402 20 20 20c2.645 0 5.177.511 7.508-.382 7.89-3.022 13.492-10.666 13.492-19.618z" fill="#7dc3ee"/><path d="m292.5 361.703c0-5.549-3.013-10.395-7.493-12.989-2.208-1.279-4.772-1.011-7.507-1.011-8.284 0-14 5.716-14 14s5.716 14 14 14c2.735 0 5.299.268 7.507-1.011 4.48-2.595 7.493-7.44 7.493-12.989z" fill="#7dc3ee"/><path d="m253.5 474.703c0-6.125 3.449-11.446 8.505-14.134-2.238-1.19-4.793-1.866-7.505-1.866-8.836 0-16 7.163-16 16s7.164 16 16 16c2.711 0 5.267-.675 7.505-1.866-5.056-2.689-8.505-8.009-8.505-14.134z" fill="#64acdc"/><path d="m299.5 424.703c0-8.952 5.632-16.591 13.52-19.613-2.332-.893-4.874-1.387-7.52-1.387-11.598 0-21 9.402-21 21s9.402 21 21 21c2.646 0 5.181-.491 7.513-1.384-7.889-3.022-13.513-10.664-13.513-19.616z" fill="#64acdc"/><path d="m277.5 361.703c0-5.549 3.028-10.394 7.507-12.989-2.208-1.279-4.772-2.011-7.507-2.011-8.284 0-15 6.716-15 15s6.716 15 15 15c2.735 0 5.299-.732 7.507-2.011-4.479-2.595-7.507-7.44-7.507-12.989z" fill="#64acdc"/></g><g><path d="m488.75 168.16c-10.033 0-18.601 6.398-21.853 15.334h-19.706c-1.601-19.638-9.43-37.538-21.503-51.724l14.096-14.127c5.723 3.731 12.354 5.644 19.021 5.644 6.725 0 13.484-1.943 19.372-5.916 3.434-2.316 4.339-6.978 2.021-10.412-2.316-3.434-6.98-4.339-10.412-2.022-7.813 5.271-18.329 4.242-25.003-2.449-7.724-7.741-7.724-20.335 0-28.076 3.735-3.744 8.702-5.807 13.983-5.807 5.28 0 10.247 2.062 13.983 5.807 2.184 2.188 3.785 4.769 4.761 7.672 1.319 3.926 5.573 6.039 9.499 4.719 3.927-1.32 6.039-5.573 4.72-9.499-1.719-5.112-4.532-9.65-8.361-13.487-6.571-6.585-15.308-10.212-24.602-10.212-9.295 0-18.031 3.627-24.603 10.212-11.658 11.683-13.278 29.665-4.88 43.111l-14.215 14.247c-14.161-11.999-32.002-19.777-51.569-21.372v-20.281c9.15-3.132 15.75-11.823 15.75-22.034 0-12.839-10.43-23.285-23.25-23.285s-23.25 10.446-23.25 23.285c0 10.211 6.6 18.902 15.75 22.034v20.281c-19.567 1.595-37.408 9.373-51.569 21.372l-13.521-13.55c7.439-12.409 5.832-28.785-4.832-39.473-6.092-6.105-14.192-9.468-22.81-9.468 0 0 0 0-.001 0-8.617 0-16.718 3.362-22.811 9.468-12.563 12.592-12.563 33.082.001 45.674 6.092 6.106 14.193 9.468 22.811 9.468 6.166 0 12.062-1.73 17.153-4.946l13.392 13.421c-12.074 14.185-19.903 32.086-21.504 51.724h-19.3c-3.546-13.981-16.215-24.354-31.259-24.354-17.782 0-32.25 14.492-32.25 32.305s14.468 32.305 32.25 32.305c15.365 0 28.247-10.823 31.467-25.256h19.092c1.601 19.638 9.43 37.538 21.503 51.723l-13.443 13.472c-3.073-1.461-6.458-2.232-9.961-2.232-6.213 0-12.054 2.424-16.446 6.826-9.055 9.076-9.055 23.843 0 32.918h.001c4.392 4.401 10.232 6.826 16.445 6.826 6.214 0 12.055-2.424 16.447-6.826 7.288-7.305 8.699-18.293 4.253-27.038l13.322-13.351c14.161 11.999 32.002 19.777 51.569 21.372v18.962c-12.657 3.066-22.532 13.716-24.183 27.142-.505 4.111 2.418 7.854 6.529 8.359 4.104.506 7.853-2.417 8.359-6.529 1.042-8.476 8.262-14.868 16.794-14.868 9.331 0 16.923 7.616 16.923 16.977s-7.592 16.977-16.923 16.977c-1.402 0-2.794-.171-4.135-.509-4.012-1.007-8.093 1.425-9.104 5.443-1.011 4.017 1.426 8.093 5.443 9.104 2.536.638 5.159.962 7.795.962 17.603 0 31.923-14.345 31.923-31.977 0-15.044-10.428-27.687-24.423-31.077v-18.965c19.567-1.595 37.408-9.373 51.569-21.372l13.866 13.897c-7.827 12.472-6.337 29.179 4.487 40.028 6.092 6.105 14.192 9.468 22.81 9.468h.001c8.617 0 16.718-3.362 22.81-9.468h.001c12.563-12.592 12.563-33.082-.001-45.675-6.092-6.105-14.193-9.467-22.811-9.467-5.943 0-11.639 1.6-16.601 4.595l-13.942-13.973c12.073-14.185 19.902-32.086 21.503-51.723h19.401c2.99 9.404 11.791 16.236 22.158 16.236 12.82 0 23.25-10.446 23.25-23.285s-10.427-23.285-23.247-23.285zm-132.75-118.957c4.549 0 8.25 3.717 8.25 8.285s-3.701 8.285-8.25 8.285-8.25-3.716-8.25-8.285 3.701-8.285 8.25-8.285zm-112.424 54.029c-6.735-6.75-6.735-17.734-.001-24.485 3.259-3.265 7.589-5.062 12.193-5.062s8.934 1.798 12.19 5.062c6.735 6.75 6.735 17.734 0 24.485-3.257 3.265-7.586 5.062-12.19 5.062-4.604.001-8.934-1.797-12.192-5.062zm-29.326 105.517c-9.512 0-17.25-7.763-17.25-17.305s7.738-17.305 17.25-17.305 17.25 7.763 17.25 17.305-7.738 17.305-17.25 17.305zm54.487 81.857c-1.559 1.562-3.628 2.421-5.829 2.421-2.2 0-4.27-.86-5.827-2.421-3.227-3.233-3.227-8.495-.001-11.728 1.559-1.562 3.628-2.421 5.828-2.421 2.201 0 4.271.86 5.828 2.421 3.227 3.233 3.227 8.495.001 11.728zm199.687-10.949c6.735 6.75 6.735 17.734 0 24.485h.001c-3.259 3.265-7.589 5.062-12.193 5.062s-8.934-1.798-12.19-5.062c-6.735-6.75-6.735-17.734 0-24.485 3.257-3.264 7.586-5.062 12.19-5.062 4.605-.001 8.935 1.797 12.192 5.062zm-112.424-12.163c-42.183 0-76.5-34.318-76.5-76.5s34.317-76.5 76.5-76.5 76.5 34.318 76.5 76.5-34.317 76.5-76.5 76.5zm132.75-67.765c-4.549 0-8.25-3.717-8.25-8.285s3.701-8.285 8.25-8.285 8.25 3.716 8.25 8.285-3.701 8.285-8.25 8.285z"/><path d="m323 166.203c-13.785 0-25 11.215-25 25s11.215 25 25 25 25-11.215 25-25-11.215-25-25-25zm0 35c-5.514 0-10-4.486-10-10s4.486-10 10-10 10 4.486 10 10-4.486 10-10 10z"/><path d="m380.5 142.203c-12.406 0-22.5 10.093-22.5 22.5s10.094 22.5 22.5 22.5 22.5-10.093 22.5-22.5-10.094-22.5-22.5-22.5zm0 30c-4.136 0-7.5-3.364-7.5-7.5s3.364-7.5 7.5-7.5 7.5 3.364 7.5 7.5-3.364 7.5-7.5 7.5z"/><path d="m377.5 203.203c-12.406 0-22.5 10.093-22.5 22.5s10.094 22.5 22.5 22.5 22.5-10.093 22.5-22.5-10.094-22.5-22.5-22.5zm0 30c-4.136 0-7.5-3.364-7.5-7.5s3.364-7.5 7.5-7.5 7.5 3.364 7.5 7.5-3.364 7.5-7.5 7.5z"/><path d="m204.45 350.752c-9.67 0-17.934 6.133-21.109 14.712h-10.902c-1.361-10.745-5.596-20.599-11.916-28.764l8.088-8.104c4.321 2.53 9.25 3.884 14.389 3.885h.001c7.64 0 14.822-2.981 20.224-8.394 11.139-11.163 11.139-29.327-.001-40.49-5.401-5.413-12.583-8.394-20.224-8.393-7.641 0-14.822 2.981-20.223 8.394-9.258 9.278-10.813 23.39-4.681 34.301l-8.17 8.187c-8.144-6.324-17.968-10.563-28.682-11.928v-10.172c8.729-3.096 15-11.432 15-21.21 0-12.407-10.094-22.5-22.5-22.5s-22.5 10.093-22.5 22.5c0 9.777 6.271 18.114 15 21.21v10.172c-10.713 1.364-20.538 5.603-28.681 11.927l-6.811-6.826c4.159-8.678 2.678-19.412-4.489-26.595-4.4-4.41-10.252-6.838-16.477-6.838s-12.076 2.429-16.476 6.838c-9.073 9.093-9.073 23.887-.001 32.979 4.4 4.41 10.252 6.838 16.477 6.838 3.703 0 7.271-.866 10.483-2.49l6.696 6.711c-6.32 8.166-10.556 18.019-11.916 28.764h-9.801c-3.208-9.044-11.836-15.54-21.953-15.54-12.846-.002-23.295 10.463-23.295 23.326s10.449 23.328 23.293 23.328c10.331 0 19.107-6.773 22.148-16.116h9.606c1.361 10.745 5.596 20.598 11.916 28.764l-8.525 8.541c-4.091-2.271-8.71-3.484-13.518-3.484-7.458 0-14.47 2.904-19.742 8.178-5.274 5.273-8.178 12.285-8.178 19.743s2.904 14.47 8.178 19.743 12.285 8.178 19.743 8.178 14.47-2.904 19.742-8.178c5.274-5.273 8.179-12.285 8.179-19.743 0-4.965-1.294-9.728-3.71-13.916l8.43-8.446c8.144 6.324 17.968 10.563 28.682 11.928v9.454c-9.057 3.126-15.584 11.741-15.584 21.859 0 12.748 10.355 23.118 23.084 23.118s23.084-10.371 23.084-23.118c0-10.118-6.527-18.733-15.584-21.859v-9.454c10.713-1.364 20.537-5.603 28.681-11.927l6.992 7.008c-4.393 8.744-2.967 19.697 4.308 26.989 4.4 4.41 10.251 6.838 16.477 6.838 6.225 0 12.075-2.428 16.476-6.838h.001c9.071-9.092 9.071-23.886-.001-32.979-4.4-4.41-10.251-6.838-16.476-6.838-3.557 0-6.99.796-10.102 2.298l-7.078-7.093c6.32-8.166 10.556-18.019 11.917-28.765h10.704c3.014 8.878 11.424 15.288 21.307 15.288 12.406 0 22.5-10.093 22.5-22.5s-10.094-22.501-22.5-22.501zm-90.707 66.513c-24.364 0-44.186-19.873-44.186-44.3s19.821-44.3 44.186-44.3 44.186 19.873 44.186 44.3-19.822 44.3-44.186 44.3zm59.653-123.074c2.565-2.572 5.977-3.988 9.604-3.988 3.628 0 7.039 1.416 9.605 3.988 5.31 5.321 5.31 13.979.001 19.3-2.567 2.573-5.979 3.989-9.606 3.989s-7.038-1.417-9.604-3.989c-5.31-5.321-5.31-13.978 0-19.3zm-59.653-18.916c4.136 0 7.5 3.364 7.5 7.5s-3.364 7.5-7.5 7.5-7.5-3.364-7.5-7.5 3.364-7.5 7.5-7.5zm-69.816 39.771c-3.243-3.25-3.243-8.538.001-11.789 1.565-1.569 3.646-2.433 5.857-2.433s4.292.864 5.858 2.434c3.243 3.25 3.243 8.538 0 11.788-.001 0-.001 0-.001 0-1.565 1.569-3.646 2.433-5.857 2.433s-4.292-.863-5.858-2.433zm-20.634 66.534c-4.572 0-8.293-3.736-8.293-8.328s3.721-8.328 8.293-8.328 8.293 3.736 8.293 8.328-3.721 8.328-8.293 8.328zm30.764 69.763c-5.037 5.037-13.234 5.037-18.271 0h-.001c-2.44-2.441-3.784-5.686-3.784-9.137s1.344-6.696 3.785-9.137c2.519-2.519 5.827-3.778 9.136-3.778s6.617 1.26 9.137 3.778c2.44 2.441 3.784 5.686 3.784 9.137s-1.345 6.696-3.786 9.137zm59.686 19.86c-4.458 0-8.084-3.642-8.084-8.118s3.626-8.119 8.084-8.119 8.084 3.642 8.084 8.119-3.626 8.118-8.084 8.118zm69.816-39.745c3.243 3.25 3.243 8.539.001 11.789-1.566 1.569-3.646 2.434-5.858 2.434-2.213 0-4.293-.864-5.858-2.433-3.243-3.25-3.243-8.539-.001-11.789 1.566-1.569 3.646-2.434 5.859-2.434 2.211-.001 4.291.864 5.857 2.433zm20.891-50.706c-4.136 0-7.5-3.364-7.5-7.5s3.364-7.5 7.5-7.5 7.5 3.364 7.5 7.5-3.364 7.5-7.5 7.5z"/><path d="m4.635 177.296c-3.777 1.701-5.46 6.142-3.76 9.918l5.459 12.123c2.84 3.01 3.176 5.567 9.918 3.759 3.397-1.53 5.091-5.274 4.163-8.76l19.277-6.954c3.859 10.749 12.235 19.533 23.354 23.793 12.125 4.957 29.696 2.736 40.508-7.109l14.74 15.159c-2.348 2.73-2.456 6.831-.072 9.687 2.606 2.11 5.195 4.3 10.563.951l10.5-8.766c3.18-2.655 3.605-7.384.95-10.564-2.629-3.149-7.291-3.591-10.467-1.023l-16.891-17.372c2.707-5.311 4.174-11.191 4.261-17.281l14.868 8.896c-1.63 3.486-.354 7.699 3.04 9.661 2.378 1.594 7.705 1.309 10.247-2.739l6.536-11.306c2.073-3.586.847-8.174-2.739-10.247-3.206-1.852-7.209-1.063-9.503 1.688l-21.792-13.039c.705-6.009 1.928-11.904 3.652-17.634l20.393 7.814c-.82 3.583 1.091 7.315 4.622 8.667 2.831.999 7.462.35 9.687-4.321l4.607-12.027c1.481-3.868-.453-8.205-4.321-9.687-3.534-1.354-7.446.147-9.229 3.36l-20.392-7.813c2.546-5.415 5.575-10.618 9.066-15.559l24.782 4.833c-.377 3.762 2.132 7.281 5.916 8.079 3.149.672 7.465-1.101 8.885-5.792l2.692-12.779c.854-4.053-1.739-8.031-5.793-8.885-3.676-.773-7.283 1.292-8.56 4.708l-16.993-3.314c3.888-4.456 6.677-9.63 8.241-15.198l24.095-1.632c.397 2.82 3.919 6.861 8.478 6.269 4.1-.591 6.943-4.395 6.352-8.494l-1.954-13.538c-.592-4.1-4.397-6.95-8.494-6.352-3.669.53-6.324 3.633-6.419 7.218l-20.837 1.411c-1.028-9.373-5.308-18.001-12.274-24.57-12.848-12.114-31.69-14.083-46.433-6.181l-9.614-17.906c2.886-2.01 4.044-5.841 2.57-9.178-1.673-3.79-6.104-5.505-9.891-3.832l-12.163 5.371c-3.789 1.673-5.505 6.101-3.832 9.89 1.238 2.804 3.985 4.473 6.865 4.473.918 0 1.848-.179 2.748-.536l11.459 21.341c-4.973 5.378-9.585 10.998-13.828 16.834l-19.26-11.525c1.31-3.286.145-7.141-2.953-9.104-3.498-2.217-8.132-1.178-10.35 2.322l-7.031 11.099c-2.217 3.499-1.177 8.132 2.322 10.349 2.269 1.459 6.757 1.913 10.07-1.938l18.877 11.296c-4.343 7.146-8.17 14.557-11.465 22.188l-21.091-8.081c.497-3.397-1.395-6.804-4.734-8.084-3.87-1.483-8.205.452-9.688 4.32l-4.608 12.027c-1.481 3.868.452 8.205 4.32 9.687 2.675.951 7.171.436 9.483-3.89l20.951 8.028c-2.648 7.879-4.753 15.949-6.296 24.168l-21.656-4.224c.253-3.795-2.406-7.239-6.236-7.885-4.096-.691-7.954 2.064-8.644 6.148l-2.186 12.956c-.625 3.319 2.272 8.734 7.404 8.749 3.23 0 6.116-2.097 7.117-5.181l22.042 4.299c-.744 7.177-1.068 14.44-.962 21.764l-22.99 8.293c-1.845-3.446-6.068-4.923-9.679-3.296zm129.071-123.849c9.16 8.395 10.852 24.758 1.055 34.936-21.975 23.065-33.561 53.303-32.625 85.146.674 12.256-10.133 25.143-24.127 25.287-3.305.078-6.537-.473-9.596-1.646-9.464-3.626-15.771-12.463-16.066-22.512-1.324-45.021 15.058-87.774 46.127-120.384 8.986-9.44 24.689-10.401 35.232-.827z"/><path d="m84.421 122.979c.938.388 1.91.572 2.866.572 2.943 0 5.736-1.744 6.933-4.633 6.401-15.463 15.507-29.453 27.063-41.583 2.857-2.999 2.743-7.746-.256-10.604-2.999-2.857-7.747-2.742-10.604.257-12.836 13.473-22.951 29.014-30.063 46.193-1.584 3.826.234 8.214 4.061 9.798z"/><path d="m78.987 142.76c-4.093-.598-7.904 2.247-8.498 6.347-1.241 8.57-1.741 17.312-1.487 25.982.12 4.065 3.452 7.28 7.493 7.28.074 0 .149-.001.224-.003 4.141-.122 7.398-3.576 7.277-7.717-.229-7.807.221-15.677 1.339-23.392.594-4.099-2.248-7.903-6.348-8.497z"/><path d="m495.5 426.203h-10.013c-1.33-9.977-5.266-19.137-11.109-26.771l7.095-7.095c2.929-2.929 2.929-7.678 0-10.606-2.93-2.929-7.678-2.929-10.607 0l-7.094 7.094c-7.634-5.844-16.794-9.78-26.771-11.109v-10.013c0-4.142-3.357-7.5-7.5-7.5s-7.5 3.358-7.5 7.5v10.013c-9.977 1.33-19.137 5.266-26.771 11.109l-7.094-7.094c-2.93-2.929-7.678-2.929-10.607 0s-2.929 7.678 0 10.606l7.095 7.095c-5.844 7.634-9.78 16.794-11.109 26.771h-10.015c-4.143 0-7.5 3.358-7.5 7.5s3.357 7.5 7.5 7.5h10.013c1.33 9.977 5.266 19.137 11.109 26.771l-7.095 7.095c-2.929 2.929-2.929 7.678 0 10.606 1.465 1.464 3.385 2.197 5.304 2.197s3.839-.732 5.304-2.197l7.094-7.094c7.634 5.844 16.794 9.78 26.771 11.109v10.013c0 4.142 3.357 7.5 7.5 7.5s7.5-3.358 7.5-7.5v-10.013c9.977-1.33 19.137-5.266 26.771-11.109l7.094 7.095c1.465 1.465 3.384 2.197 5.304 2.197 1.919 0 3.839-.732 5.303-2.197 2.93-2.929 2.93-7.677.001-10.606l-7.095-7.095c5.844-7.634 9.779-16.794 11.109-26.771h10.013c4.143 0 7.5-3.358 7.5-7.5s-3.357-7.501-7.5-7.501zm-66 49c-22.883 0-41.5-18.617-41.5-41.5s18.617-41.5 41.5-41.5 41.5 18.617 41.5 41.5-18.617 41.5-41.5 41.5z"/><path d="m429.5 411.203c-12.406 0-22.5 10.093-22.5 22.5s10.094 22.5 22.5 22.5 22.5-10.093 22.5-22.5-10.094-22.5-22.5-22.5zm0 30c-4.136 0-7.5-3.364-7.5-7.5s3.364-7.5 7.5-7.5 7.5 3.364 7.5 7.5-3.364 7.5-7.5 7.5z"/><path d="m254.5 451.203c-12.958 0-23.5 10.542-23.5 23.5s10.542 23.5 23.5 23.5 23.5-10.542 23.5-23.5-10.542-23.5-23.5-23.5zm0 32c-4.687 0-8.5-3.813-8.5-8.5s3.813-8.5 8.5-8.5 8.5 3.813 8.5 8.5-3.813 8.5-8.5 8.5z"/><path d="m305.5 396.203c-15.715 0-28.5 12.785-28.5 28.5s12.785 28.5 28.5 28.5 28.5-12.785 28.5-28.5-12.785-28.5-28.5-28.5zm0 42c-7.444 0-13.5-6.056-13.5-13.5s6.056-13.5 13.5-13.5 13.5 6.056 13.5 13.5-6.056 13.5-13.5 13.5z"/><path d="m300 361.703c0-12.407-10.094-22.5-22.5-22.5s-22.5 10.093-22.5 22.5 10.094 22.5 22.5 22.5 22.5-10.094 22.5-22.5zm-30 0c0-4.136 3.364-7.5 7.5-7.5s7.5 3.364 7.5 7.5-3.364 7.5-7.5 7.5-7.5-3.365-7.5-7.5z"/></g></g></svg>