<svg id="Capa_1" enable-background="new 0 0 512 512" height="512" viewBox="0 0 512 512" width="512" xmlns="http://www.w3.org/2000/svg"><g><g><g><path d="m303.995 504.5h-198.725c-19.817 0-35.882-16.065-35.882-35.882v-235.038h270.489v235.038c0 19.817-16.065 35.882-35.882 35.882z" fill="#365f7e"/></g><g><path d="m69.388 233.58v235.038c0 19.817 16.065 35.882 35.882 35.882h22.08c-19.817 0-35.882-16.065-35.882-35.882v-157.265c31.178 24.462 70.462 39.062 113.164 39.062 53.528 0 101.698-22.923 135.244-59.481v-57.354z" fill="#2c4d66"/></g><g><circle cx="204.632" cy="166.896" fill="#fdcd08" r="159.396"/></g><g><path d="m67.317 166.896c0-84.32 65.475-153.337 148.356-159.008-3.649-.25-7.328-.387-11.04-.387-88.032 0-159.396 71.364-159.396 159.396s71.364 159.396 159.396 159.396c3.712 0 7.391-.138 11.04-.387-82.881-5.673-148.356-74.691-148.356-159.01z" fill="#faab18"/></g><g><circle cx="204.632" cy="166.896" fill="#faab18" r="47.445"/></g><g><path d="m172.068 166.896c0-23.671 17.337-43.289 40.005-46.86-2.425-.382-4.908-.585-7.44-.585-26.203 0-47.445 21.242-47.445 47.445s21.242 47.445 47.445 47.445c2.532 0 5.016-.203 7.44-.585-22.668-3.571-40.005-23.189-40.005-46.86z" fill="#f5901e"/></g><g><path d="m126.092 387.135c-10.14 0-18.36-8.22-18.36-18.36 0-10.14 8.22-18.36 18.36-18.36 10.14 0 18.36 8.22 18.36 18.36 0 10.14-8.22 18.36-18.36 18.36z" fill="#f6f1f1"/></g><g><path d="m126.092 460.575c-10.14 0-18.36-8.22-18.36-18.36 0-10.14 8.22-18.36 18.36-18.36 10.14 0 18.36 8.22 18.36 18.36 0 10.14-8.22 18.36-18.36 18.36z" fill="#f6f1f1"/></g><g><g><path d="m383.338 421.995h-134.869c-9.112 0-16.5-7.387-16.5-16.5s7.388-16.5 16.5-16.5h134.869c18.172 0 32.955-14.783 32.955-32.955v-136.85c0-9.113 7.388-16.5 16.5-16.5s16.5 7.387 16.5 16.5v136.85c0 36.368-29.586 65.955-65.955 65.955z" fill="#d3ced5"/></g></g><g><g><path d="m428.894 356.04v-136.85c0-6.881 4.214-12.772 10.2-15.248-1.942-.803-4.068-1.252-6.3-1.252-9.112 0-16.5 7.387-16.5 16.5v136.85c0 18.171-14.783 32.955-32.955 32.955h12.6c18.171 0 32.955-14.784 32.955-32.955z" fill="#c3bec6"/></g><g><path d="m244.569 405.495c0-9.113 7.388-16.5 16.5-16.5h-12.6c-9.112 0-16.5 7.387-16.5 16.5s7.388 16.5 16.5 16.5h12.6c-9.112 0-16.5-7.388-16.5-16.5z" fill="#c3bec6"/></g></g><g><path d="m284.806 441.309h-96.68c-2.761 0-5-2.239-5-5v-61.629c0-2.761 2.239-5 5-5h96.68c2.761 0 5 2.239 5 5v61.629c0 2.762-2.238 5-5 5z" fill="#e58e82"/></g><g><path d="m198.059 436.309v-61.629c0-2.761 2.239-5 5-5h-14.932c-2.761 0-5 2.239-5 5v61.629c0 2.761 2.239 5 5 5h14.932c-2.762 0-5-2.238-5-5z" fill="#e06c57"/></g><g><circle cx="432.794" cy="219.191" fill="#fdcd08" r="33.969"/></g><g><path d="m413.757 219.191c0-16.194 11.336-29.733 26.503-33.136-2.403-.539-4.9-.833-7.466-.833-18.761 0-33.969 15.209-33.969 33.969 0 18.761 15.208 33.969 33.969 33.969 2.566 0 5.063-.294 7.466-.833-15.167-3.404-26.503-16.942-26.503-33.136z" fill="#faab18"/></g></g><g><path d="m339.877 442.9c-4.142 0-7.5 3.358-7.5 7.5v18.218c0 15.65-12.732 28.382-28.382 28.382h-198.725c-15.65 0-28.382-12.732-28.382-28.382v-194.449c30.639 36.427 76.531 59.622 127.744 59.622 51.214 0 97.105-23.195 127.745-59.622v85.391c0 4.142 3.358 7.5 7.5 7.5s7.5-3.358 7.5-7.5v-106.265c15.321-25.219 24.151-54.797 24.151-86.399 0-43.151-16.411-84.091-46.21-115.279-2.862-2.996-7.609-3.103-10.604-.242-2.995 2.862-3.103 7.609-.242 10.604 27.12 28.384 42.056 65.644 42.056 104.917 0 83.755-68.14 151.896-151.896 151.896s-151.895-68.141-151.895-151.896 68.14-151.896 151.895-151.896c30.137 0 59.258 8.805 84.214 25.462 3.444 2.3 8.102 1.372 10.402-2.074 2.299-3.445 1.371-8.102-2.075-10.402-27.429-18.309-59.429-27.986-92.541-27.986-92.026 0-166.895 74.869-166.895 166.896 0 31.603 8.83 61.181 24.151 86.4v215.322c0 23.921 19.461 43.382 43.382 43.382h198.725c23.921 0 43.382-19.461 43.382-43.382v-18.218c0-4.142-3.358-7.5-7.5-7.5z"/><path d="m149.688 166.896c0 30.297 24.648 54.945 54.945 54.945s54.945-24.648 54.945-54.945-24.648-54.945-54.945-54.945-54.945 24.648-54.945 54.945zm94.889 0c0 22.026-17.919 39.945-39.945 39.945s-39.945-17.919-39.945-39.945 17.919-39.945 39.945-39.945 39.945 17.919 39.945 39.945z"/><path d="m126.092 342.915c-14.259 0-25.86 11.601-25.86 25.86s11.601 25.86 25.86 25.86 25.86-11.601 25.86-25.86-11.6-25.86-25.86-25.86zm0 36.72c-5.988 0-10.86-4.872-10.86-10.86s4.872-10.86 10.86-10.86 10.86 4.872 10.86 10.86-4.871 10.86-10.86 10.86z"/><path d="m126.092 416.355c-14.259 0-25.86 11.601-25.86 25.86s11.601 25.86 25.86 25.86 25.86-11.601 25.86-25.86-11.6-25.86-25.86-25.86zm0 36.72c-5.988 0-10.86-4.872-10.86-10.86s4.872-10.86 10.86-10.86 10.86 4.872 10.86 10.86-4.871 10.86-10.86 10.86z"/><path d="m474.263 219.191c0-22.867-18.603-41.47-41.469-41.47-22.867 0-41.47 18.603-41.47 41.47 0 22.866 18.603 41.469 41.47 41.469 3.091 0 6.1-.351 9-.995v96.375c0 32.232-26.223 58.455-58.455 58.455h-86.032v-18h86.032c22.307 0 40.455-18.148 40.455-40.455v-74.96c0-4.142-3.358-7.5-7.5-7.5s-7.5 3.358-7.5 7.5v74.96c0 14.036-11.419 25.455-25.455 25.455h-86.032v-6.814c0-6.893-5.607-12.5-12.5-12.5h-96.68c-6.893 0-12.5 5.607-12.5 12.5v61.629c0 6.893 5.607 12.5 12.5 12.5h96.68c6.893 0 12.5-5.607 12.5-12.5v-6.815h86.032c40.503 0 73.455-32.952 73.455-73.455v-103.062c10.561-7.524 17.469-19.86 17.469-33.787zm-191.957 214.619h-91.68v-56.63h91.68zm150.488-188.15c-14.595 0-26.47-11.874-26.47-26.469s11.875-26.47 26.47-26.47 26.469 11.875 26.469 26.47-11.874 26.469-26.469 26.469z"/></g></g></svg>