<svg id="Capa_1" enable-background="new 0 0 512 512" height="512" viewBox="0 0 512 512" width="512" xmlns="http://www.w3.org/2000/svg"><g><g><g><path d="m59.938 454.549v-343.219c0-7.599-6.161-13.76-13.76-13.76h-2.275c-7.599 0-13.76 6.161-13.76 13.76v343.219z" fill="#d3ced5"/></g><g><path d="m481.858 454.549v-343.219c0-7.599-6.161-13.76-13.76-13.76h-2.275c-7.599 0-13.76 6.161-13.76 13.76v343.219z" fill="#d3ced5"/></g><g><path d="m95.776 30.704h63.61v183.51h-63.61z" fill="#b3dafe"/></g><g><path d="m95.776 30.704h16.102v183.51h-16.102z" fill="#8ac9fe"/></g><g><path d="m127.581 372.672c-17.565 0-31.805-14.239-31.805-31.805v-137.793h63.61v137.793c-.001 17.565-14.24 31.805-31.805 31.805z" fill="#e58e82"/></g><g><path d="m111.878 340.867v-137.793h-16.102v137.793c0 17.565 14.239 31.805 31.805 31.805 2.782 0 5.48-.359 8.051-1.03-13.666-3.566-23.754-15.991-23.754-30.775z" fill="#e06c57"/></g><g><path d="m168.019 39.305h-80.876c-4.971 0-9-4.029-9-9v-13.805c0-4.971 4.029-9 9-9h80.876c4.971 0 9 4.029 9 9v13.805c0 4.971-4.03 9-9 9z" fill="#5fa7ee"/></g><g><path d="m94.245 31.804v-16.803c0-4.143 3.358-7.501 7.501-7.501h-16.102c-4.143 0-7.501 3.358-7.501 7.501v16.803c0 4.143 3.358 7.501 7.501 7.501h16.102c-4.143 0-7.501-3.358-7.501-7.501z" fill="#518fcc"/></g><g><path d="m224.195 30.704h63.61v183.51h-63.61z" fill="#b3dafe"/></g><g><path d="m224.195 30.704h16.102v183.51h-16.102z" fill="#8ac9fe"/></g><g><path d="m256 372.672c-17.565 0-31.805-14.239-31.805-31.805v-137.793h63.61v137.793c0 17.565-14.24 31.805-31.805 31.805z" fill="#88f2a9"/></g><g><path d="m240.298 340.867v-137.793h-16.102v137.793c0 17.565 14.239 31.805 31.805 31.805 2.782 0 5.48-.359 8.051-1.03-13.667-3.566-23.754-15.991-23.754-30.775z" fill="#77d192"/></g><g><path d="m296.438 39.305h-80.876c-4.971 0-9-4.029-9-9v-13.805c0-4.971 4.029-9 9-9h80.876c4.971 0 9 4.029 9 9v13.805c0 4.971-4.029 9-9 9z" fill="#5fa7ee"/></g><g><path d="m222.665 31.804v-16.803c0-4.143 3.358-7.501 7.501-7.501h-16.102c-4.143 0-7.501 3.358-7.501 7.501v16.803c0 4.143 3.358 7.501 7.501 7.501h16.102c-4.143 0-7.501-3.358-7.501-7.501z" fill="#518fcc"/></g><g><path d="m352.615 30.704h63.61v183.51h-63.61z" fill="#b3dafe"/></g><g><path d="m352.615 30.704h16.102v183.51h-16.102z" fill="#8ac9fe"/></g><g><path d="m384.42 372.672c-17.565 0-31.805-14.239-31.805-31.805v-137.793h63.61v137.793c-.001 17.565-14.24 31.805-31.805 31.805z" fill="#fdcd08"/></g><g><path d="m368.717 340.867v-137.793h-16.102v137.793c0 17.565 14.239 31.805 31.805 31.805 2.782 0 5.48-.359 8.051-1.03-13.666-3.566-23.754-15.991-23.754-30.775z" fill="#faab18"/></g><g><path d="m424.858 39.305h-80.876c-4.971 0-9-4.029-9-9v-13.805c0-4.971 4.029-9 9-9h80.876c4.971 0 9 4.029 9 9v13.805c0 4.971-4.03 9-9 9z" fill="#5fa7ee"/></g><g><path d="m351.084 31.804v-16.803c0-4.143 3.358-7.501 7.501-7.501h-16.103c-4.143 0-7.501 3.358-7.501 7.501v16.803c0 4.143 3.358 7.501 7.501 7.501h16.103c-4.143 0-7.501-3.358-7.501-7.501z" fill="#518fcc"/></g><g><path d="m494.5 504.5h-477c-5.523 0-10-4.477-10-10v-41.282c0-5.523 4.477-10 10-10h477c5.523 0 10 4.477 10 10v41.282c0 5.523-4.477 10-10 10z" fill="#365f7e"/></g><g><path d="m33.42 494.5v-41.282c0-5.523 4.477-10 10-10h-25.92c-5.523 0-10 4.477-10 10v41.282c0 5.523 4.477 10 10 10h25.92c-5.523 0-10-4.477-10-10z" fill="#2c4d66"/></g><g><path d="m494.5 164.867h-477c-5.523 0-10-4.477-10-10v-14.055c0-5.523 4.477-10 10-10h477c5.523 0 10 4.477 10 10v14.055c0 5.523-4.477 10-10 10z" fill="#365f7e"/></g><g><path d="m33.42 154.867v-14.055c0-5.523 4.477-10 10-10h-25.92c-5.523 0-10 4.477-10 10v14.055c0 5.523 4.477 10 10 10h25.92c-5.523 0-10-4.477-10-10z" fill="#2c4d66"/></g></g><path d="m481.858 214.82c4.142 0 7.5-3.357 7.5-7.5v-34.953h5.142c9.649 0 17.5-7.851 17.5-17.5v-14.055c0-9.649-7.851-17.5-17.5-17.5h-5.142v-11.982c0-11.723-9.537-21.26-21.26-21.26h-2.275c-11.723 0-21.26 9.537-21.26 21.26v11.982h-20.838v-76.507h1.133c9.098 0 16.5-7.402 16.5-16.5v-13.805c0-9.098-7.402-16.5-16.5-16.5h-80.876c-9.098 0-16.5 7.402-16.5 16.5v13.805c0 9.098 7.402 16.5 16.5 16.5h1.133v76.508h-49.81v-76.508h1.133c9.098 0 16.5-7.402 16.5-16.5v-13.805c0-9.098-7.402-16.5-16.5-16.5h-80.876c-9.098 0-16.5 7.402-16.5 16.5v13.805c0 9.098 7.402 16.5 16.5 16.5h1.133v76.508h-49.81v-76.508h1.133c9.098 0 16.5-7.402 16.5-16.5v-13.805c0-9.098-7.402-16.5-16.5-16.5h-80.875c-9.098 0-16.5 7.402-16.5 16.5v13.805c0 9.098 7.402 16.5 16.5 16.5h1.133v76.508h-20.838v-11.983c0-11.723-9.537-21.26-21.26-21.26h-2.275c-11.723 0-21.26 9.537-21.26 21.26v11.982h-5.143c-9.649 0-17.5 7.851-17.5 17.5v14.055c0 9.649 7.851 17.5 17.5 17.5h5.143v263.351h-5.143c-9.649 0-17.5 7.851-17.5 17.5v41.282c0 9.649 7.851 17.5 17.5 17.5h477c9.649 0 17.5-7.851 17.5-17.5v-41.282c0-9.649-7.851-17.5-17.5-17.5h-5.142v-195.844c0-4.143-3.358-7.5-7.5-7.5s-7.5 3.357-7.5 7.5v195.844h-14.795v-263.351h14.795v34.953c0 4.143 3.358 7.5 7.5 7.5zm-22.296-103.49c0-3.451 2.808-6.26 6.26-6.26h2.275c3.452 0 6.26 2.809 6.26 6.26v11.982h-14.795zm-117.081-81.025v-13.805c0-.827.673-1.5 1.5-1.5h80.876c.827 0 1.5.673 1.5 1.5v13.805c0 .827-.673 1.5-1.5 1.5h-80.876c-.827 0-1.5-.673-1.5-1.5zm17.634 16.5h48.61v15.405h-12.703c-4.142 0-7.5 3.357-7.5 7.5s3.358 7.5 7.5 7.5h12.703v16.404h-12.703c-4.142 0-7.5 3.357-7.5 7.5s3.358 7.5 7.5 7.5h12.703v14.698h-48.61zm-146.053-16.5v-13.805c0-.827.673-1.5 1.5-1.5h80.876c.827 0 1.5.673 1.5 1.5v13.805c0 .827-.673 1.5-1.5 1.5h-80.876c-.827 0-1.5-.673-1.5-1.5zm17.633 16.5h48.609v15.405h-12.703c-4.142 0-7.5 3.357-7.5 7.5s3.358 7.5 7.5 7.5h12.703v16.404h-12.703c-4.142 0-7.5 3.357-7.5 7.5s3.358 7.5 7.5 7.5h12.703v14.698h-48.609zm-146.052-16.5v-13.805c0-.827.673-1.5 1.5-1.5h80.876c.827 0 1.5.673 1.5 1.5v13.805c0 .827-.673 1.5-1.5 1.5h-80.876c-.828 0-1.5-.673-1.5-1.5zm17.633 16.5h48.609v15.405h-12.703c-4.142 0-7.5 3.357-7.5 7.5s3.358 7.5 7.5 7.5h12.703v16.404h-12.703c-4.142 0-7.5 3.357-7.5 7.5s3.358 7.5 7.5 7.5h12.703v14.698h-48.609zm-65.633 64.525c0-3.451 2.808-6.26 6.26-6.26h2.275c3.452 0 6.26 2.809 6.26 6.26v11.982h-14.795zm-22.643 43.537v-14.055c0-1.379 1.122-2.5 2.5-2.5h477c1.378 0 2.5 1.121 2.5 2.5v14.055c0 1.379-1.122 2.5-2.5 2.5h-477c-1.378 0-2.5-1.121-2.5-2.5zm345.115 55.707h48.61v130.293c0 13.401-10.903 24.305-24.305 24.305s-24.305-10.903-24.305-24.305zm48.61-15h-48.61v-23.207h48.61zm-177.03 15h48.609v130.293c0 13.401-10.903 24.305-24.305 24.305s-24.305-10.903-24.305-24.305v-130.293zm48.61-15h-48.609v-23.207h48.609zm-177.029 15h48.609v130.293c0 13.401-10.903 24.305-24.305 24.305s-24.305-10.903-24.305-24.305v-130.293zm48.609-15h-48.609v-23.207h48.609zm-114.242-23.207h14.795v263.351h-14.795zm406.919 263.351h-238c-4.142 0-7.5 3.357-7.5 7.5s3.358 7.5 7.5 7.5h287.938c1.378 0 2.5 1.121 2.5 2.5v41.282c0 1.379-1.122 2.5-2.5 2.5h-477c-1.378 0-2.5-1.121-2.5-2.5v-41.282c0-1.379 1.122-2.5 2.5-2.5h153.06c4.142 0 7.5-3.357 7.5-7.5s-3.358-7.5-7.5-7.5h-103.122v-263.351h20.838v168.5c0 21.673 17.632 39.305 39.305 39.305s39.305-17.632 39.305-39.305v-168.5h49.81v168.5c0 21.673 17.632 39.305 39.305 39.305s39.305-17.632 39.305-39.305v-168.5h49.81v168.5c0 21.673 17.632 39.305 39.305 39.305s39.305-17.632 39.305-39.305v-168.5h20.838v263.351z"/></g></svg>