<svg id="Capa_1" enable-background="new 0 0 512.027 512.027" height="512" viewBox="0 0 512.027 512.027" width="512" xmlns="http://www.w3.org/2000/svg"><g><g><g><path d="m203 40.5h-29c-2.757 0-5 4.241-5 6.997v24.003l-1 14h-28v-37c0-11.866 4.939-23.374 13.997-29.707 5.674-3.966 12.57-6.293 20.003-6.293h30l2 8.202-2 6.798z" fill="#f9f8f9"/><path d="m400 117.5v15 14h-29v-28l14-1 7.107-2z" fill="#f9f8f9"/><path d="m385 129.5v-12l-7.5-2-7.5 2v30.777l15 1.223 15-1.223v-15.777h-12c-1.657 0-3-1.343-3-3z" fill="#e8e8e8"/><path d="m400 67.5v-20c0-19.299-15.701-35-35-35h-51l-1 7.011 1 7.989 1 14h51c2.757 0 5 2.243 5 5v20l14 1 7.617 1z" fill="#f9f8f9"/><path d="m314 12.5h-110v15l1 14h108l1-14z" fill="#7dc3ee"/><g fill="#e8e8e8"><path d="m154 68.5-.003-49.707c-9.058 6.333-14.997 16.841-14.997 28.707v39l15 2 15-2v-15h-12c-1.657 0-3-1.343-3-3z"/><path d="m189 27.5c-11.046 0-20 8.952-20 19.997 0-2.76 2.24-5.003 5-4.997h30l2-7.5-2-7.5z"/></g><path d="m385 67.5v-20c0-11.046-8.954-20-20-20h-51l-1 6.947 1 8.053h51c2.761 0 5 2.239 5 5v20l7.5 1z" fill="#e8e8e8"/><path d="m400 117.5v-50h-15l-14 1v48l14 1z" fill="#7dc3ee"/><g fill="#64acdc"><path d="m370 67.5h15v50h-15z"/><path d="m204 27.5h110v15h-110z"/></g></g><path d="m66.5 463.5h-28v-440c0-8.284 5.716-16 14-16 8.284 0 15 6.716 15 15v119.5l-3 30.532 3 29.468v247.5z" fill="#909ba6"/><path d="m153 338.5c-24.853 0-44-19.147-44-44v-175l15-1 32.34-2 41.66 2v23.5l-2 31.731 2 28.269v92.5c0 20.141-13.232 37.191-31.476 42.932-4.269 1.344-8.812 1.068-13.524 1.068z" fill="#c8effe"/><path d="m198 202v-60h-71c-1.657 0-3-1.343-3-3v-21.5l-8.277-1-7.723 1v177c0 24.853 20.147 45 45 45 4.712 0 9.255-.724 13.524-2.068-23.7-1.286-42.524-20.911-42.524-44.932v-87.5c0-1.657 1.343-3 3-3z" fill="#a9e5f7"/><path d="m154 308.5c-8.284 0-15-6.716-15-15v-61c0-1.657 1.343-3 3-3l11-1h12c1.657 0 3 1.343 3 3v63c0 3.644-1.301 6.984-3.461 9.583-2.752 3.309-10.539 4.417-10.539 4.417z" fill="#7dc3ee"/><path d="m153 289.5v-61h-12c-1.657 0-3 1.343-3 3v63c0 8.284 6.716 15 15 15 4.64 0 8.787-2.108 11.539-5.417-6.612-1.565-11.539-7.492-11.539-14.583z" fill="#64acdc"/><path d="m52.5 139v-131.5c-8.284 0-15 6.716-15 15v442l15.5 2 14.5-2v-15h-12c-1.657 0-3-1.343-3-3v-241.5c0-1.657 1.343-3 3-3h12v-60h-12c-1.657 0-3-1.343-3-3z" fill="#7e8b96"/><path d="m174.969 396.912-16.193-19.837-3.452-3.501c-1.2-1.47-3.448-1.47-4.648 0-4.308 5.277-14.106 18.424-18.293 23.553-3.356 4.111-4.468 8.098-4.468 13.404 0 12.717 8.236 23.585 20.954 23.585h8.263c4.132 0 8.009-.705 11.362-2.611 5.454-3.1 9.517-8.363 11.025-14.621.418-1.736.639-3.548.639-5.411 0-5.306-1.833-10.45-5.189-14.561z" fill="#ffe07d"/><path d="m168.494 431.506c-3.35 1.91-7.233 2.994-11.363 2.994h-8.26c-12.72 0-23.03-10.31-23.03-23.03 0-5.3 1.84-10.45 5.19-14.56 4.19-5.13 15.34-18.79 19.65-24.06 1.2-1.47 3.44-1.47 4.64 0l3.456 4.225c-4.92 6.03-10.916 13.375-13.746 16.835-3.35 4.11-5.19 9.26-5.19 14.56 0 12.72 10.31 23.03 23.03 23.03z" fill="#ffd064"/><path d="m418 279.532v-92.032l-24.234-2-26.766 2-14 2v92.035c0 4.143-3.559 7.847-7.427 9.331-42.252 16.21-70.565 55.389-70.565 103.481 0 51.547 49.451 110.767 110.644 110.148 2.307-.023 4.599-.121 6.87-.282 57.837-4.112 103.478-52.33 103.478-111.213 0-47.496-29.699-88.053-71.539-104.121-3.88-1.49-6.461-5.19-6.461-9.347z" fill="#c8effe"/><path d="m289.008 394.346c-.547-46.314 27.15-77.119 66.941-93.656 6.656-2.766 11.051-9.194 11.051-16.402v-96.788l-7.34-2-8.66 2v92.035c0 4.154-2.577 7.853-6.455 9.342-42.238 16.218-72.104 57.392-71.537 105.47.722 61.192 51.451 110.767 112.644 110.148 2.309-.023 4.597-.121 6.87-.282-57.029-4.106-102.828-51.746-103.514-109.867z" fill="#a9e5f7"/><path d="m422 186.5h-75c-5.523 0-9-3.477-9-9v-20c0-5.523 3.477-9 9-9l5-1h70c5.523 0 10 4.477 10 10v15l-1 5c0 5.523-3.477 9-9 9z" fill="#c8effe"/><path d="m352 169.5v-22h-5c-5.523 0-10 4.477-10 10v20c0 5.523 4.477 10 10 10h75c5.523 0 10-4.477 10-10v-5h-77c-1.657 0-3-1.343-3-3z" fill="#a9e5f7"/><path d="m307.564 394c-1.708 0-2.004.424-2.004 2.132 0 36.23 35.478 77.368 79.441 77.368 3.386 0 6.724.793 10.002.392 39.278-4.806 69.92-37.556 71.439-77.76.064-1.707-1.297-3.132-3.004-3.132h-139.938z" fill="#7dc3ee"/><path d="m323.5 393h-16.937c-1.708 0-3.069 1.425-3.004 3.132 1.646 43.56 37.479 78.368 81.441 78.368 3.389 0 6.722-.206 10.002-.608-40.291-4.932-71.502-39.268-71.502-80.892z" fill="#64acdc"/><path d="m227 186h-196c-11.277 0-14-14-14-14 0-4.64 1.107-8.788 4.416-11.54 2.599-2.16 5.94-3.46 9.584-3.46h197c8.284 0 15 6.716 15 15 0 8.284-7.716 14-16 14z" fill="#b9c3cd"/><path d="m36 172c-7.091 0-13.017-4.925-14.582-11.538-3.309 2.752-5.418 6.898-5.418 11.538 0 8.284 6.716 15 15 15h197c8.284 0 15-6.716 15-15z" fill="#a2abb8"/><path d="m195.5 434.5h-80l-4 1c-5.523 0-10 4.477-10 10l1 17h101l2-13v-5c0-5.523-4.477-10-10-10z" fill="#909ba6"/><path d="m115.5 446.5v-12h-5c-5.523 0-10 4.477-10 10v20l50.769 2 54.231-2v-15h-87c-1.657 0-3-1.343-3-3z" fill="#7e8b96"/><path d="m197 117.5h-88c-5.523 0-10-4.477-10-10v-10c0-5.523 4.477-10 10-10l4-1h85c5.523 0 10 4.477 10 10v7l-1 4c0 5.523-4.477 10-10 10z" fill="#c8effe"/><path d="m113 100.5v-14h-5c-5.523 0-10 4.477-10 10v12c0 5.523 4.477 10 10 10h90c5.523 0 10-4.477 10-10v-5h-92c-1.657 0-3-1.343-3-3z" fill="#a9e5f7"/><path d="m252 503.5h-225c-5.523 0-10-4.477-10-10v-18c0-5.523 4.477-10 10-10l6-1h220c5.523 0 10 4.477 10 10v13l-1 6c0 5.523-4.477 10-10 10z" fill="#b9c3cd"/><path d="m36 487.5c-1.657 0-3-1.343-3-3v-20h-7c-5.523 0-10 4.477-10 10v20c0 5.523 4.477 10 10 10h227c5.523 0 10-4.477 10-10v-7z" fill="#a2abb8"/></g><g><path d="m153 317c12.407 0 22.5-10.093 22.5-22.5v-63c0-5.79-4.71-10.5-10.5-10.5h-24c-5.79 0-10.5 4.71-10.5 10.5v63c0 12.407 10.093 22.5 22.5 22.5zm-7.5-81h15v58.5c0 4.136-3.364 7.5-7.5 7.5s-7.5-3.364-7.5-7.5z"/><path d="m482.066 324.854c-13.701-19.58-32.69-34.441-54.915-42.976-1.003-.385-1.65-1.306-1.65-2.345v-29.033c0-4.142-3.357-7.5-7.5-7.5s-7.5 3.358-7.5 7.5v29.032c0 7.188 4.529 13.758 11.272 16.348 39.912 15.328 66.727 54.357 66.727 97.12.087 56.796-46.866 104.124-103.992 104-56.771-.005-103.329-45.873-104.001-102.742-.511-43.336 26.314-82.875 66.753-98.39 6.723-2.579 11.24-9.143 11.24-16.333v-84.535h52v20.5c0 4.142 3.357 7.5 7.5 7.5s7.5-3.358 7.5-7.5v-20.853c7.978-1.626 14-8.696 14-17.147v-20c0-9.649-7.851-17.5-17.5-17.5h-14.5v-92.5c0-23.435-19.065-42.5-42.5-42.5h-87c-4.143 0-7.5 3.358-7.5 7.5s3.357 7.5 7.5 7.5h28.5v15h-95v-15h31.5c4.142 0 7.5-3.358 7.5-7.5s-3.358-7.5-7.5-7.5h-69c-23.435 0-42.5 19.065-42.5 42.5v31.5h-23.5c-9.649 0-17.5 7.851-17.5 17.5v12c0 6.963 4.098 12.972 10 15.787v25.213h-25.5v-127c0-12.407-10.093-22.5-22.5-22.5s-22.5 10.093-22.5 22.5v127.025c-11.944.526-21.5 10.404-21.5 22.475s9.556 21.949 21.5 22.475v52.025c0 4.142 3.358 7.5 7.5 7.5s7.5-3.358 7.5-7.5v-52h15v262.5h-15v-175.5c0-4.142-3.358-7.5-7.5-7.5s-7.5 3.358-7.5 7.5v175.5h-4c-9.649 0-17.5 7.851-17.5 17.5v20c0 9.649 7.851 17.5 17.5 17.5h227c9.649 0 17.5-7.851 17.5-17.5v-20c0-9.649-7.851-17.5-17.5-17.5h-40v-12.5c0-9.649-7.851-17.5-17.5-17.5h-12.1c2.701-4.552 4.258-9.86 4.258-15.526 0-7.015-2.443-13.871-6.878-19.304l-19.646-24.067c-2.003-2.452-4.967-3.858-8.133-3.858s-6.13 1.406-8.134 3.86l-19.645 24.065c-4.436 5.434-6.878 12.29-6.878 19.305 0 5.667 1.557 10.974 4.258 15.526h-12.102c-9.649 0-17.5 7.851-17.5 17.5v12.499h-18v-262.5h25.5v100c0 28.949 23.551 52.5 52.5 52.5s52.5-23.551 52.5-52.5v-100h22.5c12.407 0 22.5-10.093 22.5-22.5s-10.093-22.5-22.5-22.5h-22.5v-25.213c5.902-2.816 10-8.824 10-15.787v-12c0-9.649-7.851-17.5-17.5-17.5h-21.5v-29h186v90h-15.5c-9.649 0-17.5 7.851-17.5 17.5v20c0 8.451 6.022 15.521 14 17.147v84.887c0 1.039-.633 1.953-1.613 2.329-22.457 8.616-41.588 23.666-55.322 43.522-14.068 20.339-21.349 44.216-21.056 69.049.768 65.079 54.034 117.566 118.997 117.566 63.363 1.437 120.431-54.958 118.994-119 0-24.542-7.412-48.107-21.434-68.146zm-226.566 149.646v20c0 1.378-1.122 2.5-2.5 2.5h-227c-1.378 0-2.5-1.122-2.5-2.5v-20c0-1.378 1.122-2.5 2.5-2.5h227c1.379 0 2.5 1.122 2.5 2.5zm-118.659-72.845 16.159-19.796 16.159 19.795c2.256 2.763 3.499 6.25 3.499 9.818 0 8.561-6.965 15.526-15.526 15.526h-8.263c-8.561 0-15.526-6.965-15.526-15.526-.001-3.567 1.242-7.054 3.498-9.817zm-28.841 42.845c0-1.378 1.122-2.5 2.5-2.5 24.469-.009 60.353-.007 85 0 1.378 0 2.5 1.122 2.5 2.5v12.5h-90zm269.5-369.5h15v35h-15zm-325-60c4.136 0 7.5 3.364 7.5 7.5v127h-15v-127c0-4.136 3.364-7.5 7.5-7.5zm138 279.5c0 20.678-16.822 37.5-37.5 37.5s-37.5-16.822-37.5-37.5v-100h75zm45-122.5c0 4.136-3.364 7.5-7.5 7.5h-197c-4.136 0-7.5-3.364-7.5-7.5s3.364-7.5 7.5-7.5h197c4.136 0 7.5 3.364 7.5 7.5zm-120-22.5v-23.5h75v23.5zm85-53v12c0 1.378-1.122 2.5-2.5 2.5h-90c-1.378 0-2.5-1.122-2.5-2.5v-12c0-1.378 1.122-2.5 2.5-2.5h90c1.379 0 2.5 1.122 2.5 2.5zm-26.5-61.5c-6.893 0-12.5 5.607-12.5 12.5v31.5h-15v-31.5c0-15.164 12.336-27.5 27.5-27.5h22.5v15zm147.5 0v-15h43.5c15.163 0 27.5 12.336 27.5 27.5v12.5h-15v-12.5c0-6.893-5.607-12.5-12.5-12.5zm56 90h15v15h-15zm-33 32.5c0-1.378 1.121-2.5 2.5-2.5h75c1.379 0 2.5 1.122 2.5 2.5v20c0 1.378-1.121 2.5-2.5 2.5h-75c-1.379 0-2.5-1.122-2.5-2.5z"/><path d="m357 393c0-4.142-3.357-7.5-7.5-7.5h-42.937c-2.838 0-5.595 1.173-7.564 3.218-1.973 2.049-3.042 4.854-2.936 7.697.872 23.051 10.51 44.584 27.139 60.633 16.674 16.09 38.62 24.952 61.798 24.952 45.928 1.002 88.142-38.875 88.937-85.585.106-2.843-.963-5.648-2.936-7.697-1.97-2.045-4.727-3.218-7.564-3.218h-78.937c-4.143 0-7.5 3.358-7.5 7.5s3.357 7.5 7.5 7.5h74.128c-3.746 37.65-35.236 66.5-73.628 66.5s-69.882-28.85-73.628-66.5h38.128c4.143 0 7.5-3.358 7.5-7.5z"/></g></g></svg>