<svg id="Capa_1" enable-background="new 0 0 511.999 511.999" height="512" viewBox="0 0 511.999 511.999" width="512" xmlns="http://www.w3.org/2000/svg"><g><g><path d="m255.999 239.395c-73.206 0-132.552 59.346-132.552 132.552s59.346 132.552 132.552 132.552 132.552-59.346 132.552-132.552-59.345-132.552-132.552-132.552zm0 231.952c-54.897 0-99.4-44.503-99.4-99.4s44.503-99.4 99.4-99.4 99.4 44.503 99.4 99.4-44.503 99.4-99.4 99.4z" fill="#413e82"/><path d="m255.999 239.395c-3.875 0-7.709.176-11.5.502 67.82 5.83 121.052 62.719 121.052 132.05s-53.232 126.22-121.052 132.05c3.791.326 7.625.502 11.5.502 73.206 0 132.552-59.346 132.552-132.552s-59.345-132.552-132.552-132.552z" fill="#2f2c59"/><g><path d="m231.149 185.217h49.7v170.18h-49.7z" fill="#924af5"/><path d="m257.849 185.217h23v170.179h-23z" fill="#7536f9"/></g><path d="m239.433 76.504h33.133v90.943h-33.133z" fill="#dff8fa"/><path d="m249.566 76.504h23v90.943h-23z" fill="#c3f2f7"/><path d="m305.699 54.218-5.146 20.585c-1.844 7.375-8.47 12.549-16.072 12.549h-56.964c-7.602 0-14.228-5.174-16.072-12.549l-5.146-20.585v-11.338h99.4z" fill="#f3ffff"/><path d="m282.699 42.88v11.338l-5.146 20.585c-1.844 7.375-8.47 12.549-16.072 12.549h23c7.602 0 14.228-5.174 16.072-12.549l5.146-20.585v-11.338z" fill="#dff9f9"/><path d="m338.822 54.218h-149.089c-18.299 0-33.133-14.834-33.133-33.133 0-8.571 7.841-14.999 16.245-13.318l53.72 10.744c8.558 1.712 17.264 2.574 25.992 2.574h86.266c12.315 0 20.325 12.96 14.818 23.975-2.808 5.613-8.544 9.158-14.819 9.158z" fill="#413e82"/><ellipse cx="255.999" cy="371.965" fill="#f3ffff" rx="33.133" ry="33.133" transform="matrix(.924 -.383 .383 .924 -122.858 126.281)"/><g><path d="m333.128 356.457-25.133-43.532c-2.209-3.826-.898-8.719 2.928-10.928l14.838-8.567c3.826-2.209 8.719-.898 10.928 2.928l25.133 43.532c2.209 3.826.898 8.719-2.928 10.928l-14.838 8.567c-3.826 2.209-8.719.898-10.928-2.928z" fill="#f3ffff"/><path d="m361.823 339.89-25.133-43.532c-2.209-3.826-7.102-5.137-10.928-2.928l-10.319 5.958 23.384 40.503c2.209 3.826.898 8.719-2.928 10.928l-4.519 2.609 1.749 3.029c2.209 3.826 7.102 5.137 10.928 2.928l14.838-8.567c3.826-2.209 5.137-7.102 2.928-10.928z" fill="#dff9f9"/><path d="m175.31 447.573-25.133-43.532c-2.209-3.826-.898-8.719 2.928-10.928l14.838-8.567c3.826-2.209 8.719-.898 10.928 2.928l25.133 43.532c2.209 3.826.898 8.719-2.928 10.928l-14.838 8.567c-3.827 2.21-8.719.899-10.928-2.928z" fill="#f3ffff"/><path d="m204.004 431.007-25.133-43.532c-2.209-3.826-7.102-5.137-10.928-2.928l-10.303 5.948 23.39 40.512c2.209 3.826.898 8.719-2.928 10.928l-4.535 2.618 1.744 3.02c2.209 3.826 7.102 5.137 10.928 2.928l14.838-8.567c3.825-2.208 5.136-7.101 2.927-10.927z" fill="#dff9f9"/></g><path d="m338.822 21.085h-23c12.315 0 20.325 12.96 14.818 23.975-2.806 5.613-8.543 9.158-14.818 9.158h23c6.275 0 12.011-3.545 14.818-9.158 5.507-11.015-2.503-23.975-14.818-23.975z" fill="#2f2c59"/><path d="m227.008 156.599c-9.149 0-16.567 7.417-16.567 16.567s7.417 16.567 16.567 16.567h57.983c9.149 0 16.567-7.417 16.567-16.567s-7.417-16.567-16.567-16.567z" fill="#f3ffff"/><g fill="#dff9f9"><path d="m284.991 156.599h-23c9.149 0 16.567 7.417 16.567 16.567s-7.417 16.567-16.567 16.567h23c9.149 0 16.567-7.417 16.567-16.567s-7.418-16.567-16.567-16.567z"/><path d="m255.999 338.832c-4.044 0-7.917.727-11.5 2.053 12.63 4.675 21.633 16.825 21.633 31.08s-9.004 26.405-21.633 31.08c3.583 1.326 7.456 2.053 11.5 2.053 18.299 0 33.133-14.834 33.133-33.133.001-18.299-14.834-33.133-33.133-33.133z"/></g></g><path d="m288.349 235.689v-38.696c11.686-1.639 20.709-11.696 20.709-23.827 0-13.27-10.796-24.067-24.066-24.067h-4.926v-54.248h4.415c11.064 0 20.665-7.496 23.349-18.229l3.726-14.903h27.266c9.174 0 17.423-5.098 21.526-13.305 3.758-7.516 3.363-16.269-1.055-23.416-4.417-7.146-12.07-11.413-20.472-11.413h-25.231c-4.143 0-7.5 3.358-7.5 7.5 0 4.143 3.357 7.5 7.5 7.5h25.232c3.213 0 6.023 1.567 7.713 4.3 1.688 2.733 1.834 5.948.397 8.821-1.546 3.092-4.654 5.013-8.11 5.013h-149.089c-14.135 0-25.634-11.499-25.634-25.634 0-2.504 1.395-4.021 2.226-4.702.832-.682 2.591-1.751 5.049-1.261l53.72 10.744c9.024 1.804 18.265 2.719 27.463 2.719h31.034c4.143 0 7.5-3.357 7.5-7.5 0-4.142-3.357-7.5-7.5-7.5h-31.034c-8.213 0-16.464-.816-24.521-2.428l-53.72-10.744c-6.215-1.242-12.596.349-17.5 4.369-4.903 4.02-7.716 9.962-7.716 16.303 0 22.405 18.229 40.634 40.634 40.634h10.71l3.726 14.903c2.684 10.733 12.285 18.229 23.349 18.229h4.415v54.247h-4.926c-13.27 0-24.066 10.797-24.066 24.067 0 12.131 9.023 22.188 20.709 23.827v38.715c-19.9 4.721-38.74 13.854-54.81 26.649-3.24 2.58-3.775 7.299-1.195 10.539 1.48 1.859 3.666 2.828 5.872 2.828 1.638 0 3.286-.533 4.667-1.633 13.413-10.68 28.984-18.499 45.466-22.916v18.892c-44.175 13.978-74.551 55.058-74.551 101.898 0 4.767.326 9.539.953 14.249l-.696.402c-3.586 2.07-6.151 5.413-7.224 9.412-1.071 3.999-.521 8.176 1.549 11.762l25.134 43.532c2.867 4.967 8.088 7.747 13.449 7.747 2.628 0 5.289-.668 7.724-2.073l.707-.408c18.646 14.396 41.627 22.277 65.305 22.277 58.945 0 106.9-47.955 106.9-106.9 0-4.768-.326-9.54-.953-14.249l.696-.402c7.402-4.272 9.948-13.771 5.675-21.175l-25.133-43.53c-2.07-3.586-5.413-6.151-9.412-7.224-3.999-1.07-8.175-.522-11.762 1.549l-.704.406c-9.882-7.624-21.107-13.514-32.958-17.285v-18.897c54.218 14.444 92.684 63.863 92.684 120.807 0 68.943-56.09 125.033-125.033 125.033s-125.033-56.09-125.033-125.033c0-28.602 9.397-55.517 27.176-77.837 2.581-3.24 2.047-7.959-1.193-10.539-3.24-2.582-7.959-2.046-10.539 1.193-19.916 25.004-30.443 55.15-30.443 87.183 0 77.215 62.818 140.033 140.033 140.033s140.033-62.818 140.033-140.033c-.002-65.118-44.924-121.457-107.686-136.275zm38.284 124.518c.957 1.657 2.195 3.084 3.635 4.259h-34.341c-.384-2.047-.919-4.041-1.599-5.969l23.488-13.561zm-116.134 67.05-8.817-15.271 23.508-13.572c5.905 6.869 14.057 11.745 23.309 13.48v51.654c-15.595-1.278-30.593-6.523-43.56-15.19 3.523-2.075 6.049-5.383 7.108-9.338 1.072-4.001.523-8.177-1.548-11.763zm5.573-47.791c.384 2.048.919 4.041 1.599 5.969l-23.488 13.561-8.817-15.271c-.957-1.657-2.195-3.084-3.635-4.259zm57.277-44.235c-5.265-2.497-11.146-3.9-17.35-3.9s-12.085 1.403-17.35 3.9v-137.999h34.699v137.999zm-17.35 62.367c-6.742 0-12.88-2.621-17.461-6.891l21.211-12.246c3.587-2.071 4.816-6.658 2.745-10.245-2.072-3.587-6.659-4.815-10.245-2.745l-21.223 12.253c-.427-1.852-.66-3.778-.66-5.758 0-14.135 11.499-25.634 25.633-25.634s25.633 11.499 25.633 25.634c0 14.133-11.499 25.632-25.633 25.632zm-37.277-324.615-2.816-11.265h80.187l-2.816 11.265c-1.011 4.044-4.628 6.868-8.796 6.868h-56.963c-4.168 0-7.785-2.824-8.796-6.868zm46.344 21.868v18.134h-18.133v-18.134zm-18.133 33.134h18.133v21.113h-18.133zm-28.992 45.181c0-5 4.067-9.067 9.066-9.067h57.984c4.999 0 9.066 4.067 9.066 9.067 0 4.999-4.067 9.066-9.066 9.066h-57.984c-4.999 0-9.066-4.067-9.066-9.066zm5.709 112.767v61.183c0 .095.011.186.014.28-3.756 4.932-6.406 10.744-7.592 17.069h-51.664c2.882-35.505 26.057-66.095 59.242-78.532zm-41.845 157.89-25.134-43.532c-.025-.044-.104-.18-.05-.379.054-.2.188-.277.233-.304l14.839-8.567c.033-.019.118-.067.243-.067.041 0 .086.005.135.018.2.054.278.188.304.233l12.56 21.754c.003.004.004.008.006.012.002.003.004.005.006.008l12.562 21.757c.025.044.104.179.05.379s-.188.278-.233.304l-14.838 8.567c-.239.136-.545.056-.683-.183zm81.694 19.735v-51.665c16.401-3.074 29.353-16.027 32.427-32.427h51.665c-3.627 44.704-39.387 80.464-84.092 84.092zm66.012-163.633c.033-.02.118-.068.244-.068.041 0 .086.005.135.019.2.054.277.189.304.233l25.133 43.53c.026.045.104.181.051.381-.054.2-.188.277-.233.304l-14.838 8.566c-.044.026-.177.106-.38.05-.199-.054-.277-.188-.303-.232l-12.56-21.754c-.003-.004-.004-.008-.006-.012s-.005-.008-.007-.012l-12.56-21.754c-.025-.044-.104-.179-.05-.379.054-.201.189-.279.233-.305l9.682-5.59c.022-.013.044-.025.067-.038zm-22.44-4.358c-7.321 4.303-9.825 13.741-5.572 21.108l8.817 15.271-21.967 12.683v-58.694c6.569 2.478 12.868 5.718 18.722 9.632z"/></g></svg>