<svg id="Capa_1" enable-background="new 0 0 512 512" height="512" viewBox="0 0 512 512" width="512" xmlns="http://www.w3.org/2000/svg"><g><g><g><path d="m494.5 504.5h-157.871c-5.523 0-10-4.477-10-10v-157.871c0-5.523 4.477-10 10-10h157.871c5.523 0 10 4.477 10 10v157.871c0 5.523-4.477 10-10 10z" fill="#77d192"/></g><g><path d="m175.371 504.5h-157.871c-5.523 0-10-4.477-10-10v-157.871c0-5.523 4.477-10 10-10h157.871c5.523 0 10 4.477 10 10v157.871c0 5.523-4.477 10-10 10z" fill="#fdcd08"/></g><g><path d="m175.371 326.629h-33.307v8.307c0 19.299 15.701 35 35 35h8.307v-33.307c0-5.523-4.477-10-10-10z" fill="#faab18"/></g><path d="m336.629 326.629c-5.523 0-10 4.477-10 10v157.871c0 5.523 4.477 10 10 10h18.96c-5.523 0-10-4.477-10-10v-126.227c14.105-4.518 24.347-17.752 24.347-33.337v-8.307z" fill="#5bc175"/><g><path d="m494.5 185.371h-157.871c-5.523 0-10-4.477-10-10v-157.871c0-5.523 4.477-10 10-10h157.871c5.523 0 10 4.477 10 10v157.871c0 5.523-4.477 10-10 10z" fill="#b3dafe"/></g><g><path d="m175.371 185.371h-157.871c-5.523 0-10-4.477-10-10v-157.871c0-5.523 4.477-10 10-10h157.871c5.523 0 10 4.477 10 10v157.871c0 5.523-4.477 10-10 10z" fill="#e58e82"/></g><g><path d="m26.46 494.5v-157.871c0-5.523 4.477-10 10-10h-18.96c-5.523 0-10 4.477-10 10v157.871c0 5.523 4.477 10 10 10h18.96c-5.523 0-10-4.477-10-10z" fill="#faab18"/></g><path d="m345.589 143.728v-126.228c0-5.523 4.477-10 10-10h-18.96c-5.523 0-10 4.477-10 10v157.871c0 5.523 4.477 10 10 10h33.307v-8.307c0-15.584-10.242-28.818-24.347-33.336z" fill="#8ac9fe"/><g><path d="m26.46 175.371v-157.871c0-5.523 4.477-10 10-10h-18.96c-5.523 0-10 4.477-10 10v157.871c0 5.523 4.477 10 10 10h18.96c-5.523 0-10-4.477-10-10z" fill="#e06c57"/></g><g><path d="m185.371 175.371v-33.307h-8.307c-19.299 0-35 15.701-35 35v8.307h33.307c5.523 0 10-4.477 10-10z" fill="#e06c57"/></g><g><path d="m137.689 80.845h-20.305c-2.959 0-5.358-2.399-5.358-5.358v-20.304c0-5.918-4.797-10.715-10.715-10.715h-9.751c-5.918 0-10.715 4.797-10.715 10.715v20.305c0 2.959-2.399 5.358-5.358 5.358h-20.305c-5.918 0-10.715 4.797-10.715 10.715v9.751c0 5.918 4.797 10.715 10.715 10.715h20.305c2.959 0 5.358 2.399 5.358 5.358v20.305c0 5.918 4.797 10.715 10.715 10.715h9.751c5.918 0 10.715-4.797 10.715-10.715v-20.305c0-2.959 2.399-5.358 5.358-5.358h20.305c5.918 0 10.715-4.797 10.715-10.715v-9.752c0-5.917-4.797-10.715-10.715-10.715z" fill="#f6f1f1"/></g><g><path d="m136.63 433.711-14.358-14.358c-2.092-2.092-2.092-5.484 0-7.577l14.358-14.358c4.185-4.185 4.185-10.969 0-15.154l-6.895-6.895c-4.185-4.185-10.969-4.185-15.153 0l-14.358 14.358c-2.092 2.092-5.484 2.092-7.577 0l-14.358-14.357c-4.185-4.185-10.969-4.185-15.153 0l-6.895 6.895c-4.185 4.185-4.185 10.969 0 15.153l14.358 14.358c2.092 2.092 2.092 5.484 0 7.577l-14.358 14.358c-4.185 4.185-4.185 10.969 0 15.154l6.895 6.895c4.185 4.185 10.969 4.185 15.153 0l14.358-14.358c2.092-2.092 5.484-2.092 7.577 0l14.358 14.358c4.185 4.185 10.969 4.185 15.153 0l6.895-6.895c4.185-4.185 4.185-10.97 0-15.154z" fill="#f6f1f1"/></g><g><path d="m363.596 102.026v-11.181c0-5.523 4.477-10 10-10h83.937c5.523 0 10 4.477 10 10v11.181c0 5.523-4.477 10-10 10h-83.937c-5.523 0-10-4.477-10-10z" fill="#f6f1f1"/></g><g><path d="m378.133 460.902-7.906-7.906c-3.905-3.905-3.905-10.237 0-14.142l68.627-68.627c3.905-3.905 10.237-3.905 14.142 0l7.906 7.906c3.905 3.905 3.905 10.237 0 14.142l-68.627 68.627c-3.905 3.905-10.237 3.905-14.142 0z" fill="#f6f1f1"/></g><g><circle cx="372.231" cy="372.232" fill="#f6f1f1" r="16.716"/></g><g><circle cx="458.897" cy="458.898" fill="#f6f1f1" r="16.716"/></g><g><path d="m334.936 344.936h-157.872c-5.523 0-10-4.477-10-10v-157.871c0-5.523 4.477-10 10-10h157.871c5.523 0 10 4.477 10 10v157.871c.001 5.523-4.477 10-9.999 10z" fill="#f6f1f1"/></g><g><path d="m187.224 334.936v-157.871c0-5.523 4.477-10 10-10h-20.16c-5.523 0-10 4.477-10 10v157.871c0 5.523 4.477 10 10 10h20.16c-5.522 0-10-4.477-10-10z" fill="#e2dfe2"/></g><g><path d="m204.032 230.631v-11.181c0-5.523 4.477-10 10-10h83.937c5.523 0 10 4.477 10 10v11.181c0 5.523-4.477 10-10 10h-83.937c-5.523 0-10-4.477-10-10z" fill="#e58e82"/></g><g><path d="m204.032 292.551v-11.181c0-5.523 4.477-10 10-10h83.937c5.523 0 10 4.477 10 10v11.181c0 5.523-4.477 10-10 10h-83.937c-5.523 0-10-4.477-10-10z" fill="#e58e82"/></g></g><g><path d="m17.5 192.871h118.22c4.142 0 7.5-3.358 7.5-7.5s-3.358-7.5-7.5-7.5h-118.22c-1.378 0-2.5-1.122-2.5-2.5v-157.871c0-1.378 1.122-2.5 2.5-2.5h157.871c1.378 0 2.5 1.122 2.5 2.5v122.14c0 4.142 3.358 7.5 7.5 7.5s7.5-3.358 7.5-7.5v-122.14c0-9.649-7.851-17.5-17.5-17.5h-157.871c-9.649 0-17.5 7.851-17.5 17.5v157.871c0 9.65 7.851 17.5 17.5 17.5z"/><path d="m155.904 101.311v-9.751c0-10.043-8.171-18.215-18.215-18.215h-18.163v-18.163c0-10.044-8.171-18.215-18.215-18.215h-9.751c-10.043 0-18.215 8.171-18.215 18.215v18.163h-18.163c-10.044 0-18.215 8.171-18.215 18.215v9.751c0 10.044 8.171 18.215 18.215 18.215h18.163v18.163c0 10.044 8.171 18.215 18.215 18.215h9.751c10.043 0 18.215-8.171 18.215-18.215v-18.163h18.163c10.044.001 18.215-8.171 18.215-18.215zm-15 0c0 1.773-1.442 3.215-3.215 3.215h-20.305c-7.09 0-12.858 5.768-12.858 12.857v20.305c0 1.772-1.442 3.215-3.215 3.215h-9.751c-1.772 0-3.215-1.442-3.215-3.215v-20.305c0-7.09-5.768-12.857-12.858-12.857h-20.305c-1.772 0-3.215-1.442-3.215-3.215v-9.751c0-1.772 1.442-3.215 3.215-3.215h20.305c7.09 0 12.858-5.768 12.858-12.858v-20.305c0-1.772 1.442-3.215 3.215-3.215h9.751c1.772 0 3.215 1.442 3.215 3.215v20.305c0 7.09 5.768 12.858 12.858 12.858h20.305c1.772 0 3.215 1.442 3.215 3.215z"/><path d="m185.371 371.66c-4.142 0-7.5 3.357-7.5 7.5v115.34c0 1.379-1.122 2.5-2.5 2.5h-157.871c-1.378 0-2.5-1.121-2.5-2.5v-157.871c0-1.379 1.122-2.5 2.5-2.5h110.78c4.142 0 7.5-3.357 7.5-7.5s-3.358-7.5-7.5-7.5h-110.78c-9.649 0-17.5 7.851-17.5 17.5v157.871c0 9.649 7.851 17.5 17.5 17.5h157.871c9.649 0 17.5-7.851 17.5-17.5v-115.34c0-4.143-3.358-7.5-7.5-7.5z"/><path d="m45.603 441.288c0 4.865 1.895 9.439 5.335 12.879l6.895 6.896c3.44 3.44 8.015 5.335 12.88 5.335 4.866 0 9.44-1.896 12.88-5.336l12.843-12.843 12.843 12.844c3.44 3.44 8.015 5.335 12.88 5.335s9.439-1.895 12.88-5.336l6.895-6.895c3.44-3.44 5.335-8.015 5.335-12.88 0-4.866-1.895-9.44-5.335-12.881l-12.843-12.843 12.843-12.842c7.103-7.103 7.103-18.659 0-25.762l-6.895-6.895c-3.44-3.44-8.015-5.335-12.88-5.335s-9.439 1.895-12.88 5.335l-12.843 12.846-12.843-12.843c-3.44-3.44-8.015-5.336-12.88-5.336s-9.439 1.895-12.88 5.335l-6.896 6.896c-7.101 7.102-7.101 18.658 0 25.761l12.844 12.843-12.843 12.842c-3.44 3.439-5.335 8.014-5.335 12.88zm15.941-2.274 14.359-14.359c5.01-5.013 5.01-13.168-.001-18.183l-14.358-14.356c-1.254-1.254-1.254-3.295 0-4.548l6.895-6.895c.819-.819 1.776-.942 2.273-.942.498 0 1.454.122 2.273.942l14.358 14.358c5.012 5.011 13.17 5.014 18.183-.001l14.358-14.357c1.254-1.254 3.293-1.254 4.547 0l6.895 6.895c1.254 1.253 1.254 3.294 0 4.547l-14.358 14.358c-5.012 5.013-5.012 13.17 0 18.184l14.358 14.357c1.253 1.253 1.253 3.293 0 4.547l-6.895 6.895c-1.254 1.254-3.293 1.254-4.547 0l-14.358-14.358c-5.013-5.012-13.169-5.013-18.183.001l-14.358 14.358c-.819.819-1.775.941-2.273.941-.497 0-1.454-.123-2.273-.941l-6.895-6.896c-1.253-1.254-1.253-3.294 0-4.547z"/><path d="m494.5 0h-157.871c-9.649 0-17.5 7.851-17.5 17.5v115.9c0 4.142 3.358 7.5 7.5 7.5s7.5-3.358 7.5-7.5v-115.9c0-1.378 1.122-2.5 2.5-2.5h157.871c1.378 0 2.5 1.122 2.5 2.5v157.871c0 1.378-1.122 2.5-2.5 2.5h-111.58c-4.142 0-7.5 3.358-7.5 7.5s3.358 7.5 7.5 7.5h111.58c9.649 0 17.5-7.851 17.5-17.5v-157.871c0-9.649-7.851-17.5-17.5-17.5z"/><path d="m457.533 119.527c9.649 0 17.5-7.851 17.5-17.5v-11.182c0-9.649-7.851-17.5-17.5-17.5h-83.937c-9.649 0-17.5 7.851-17.5 17.5v11.181c0 9.649 7.851 17.5 17.5 17.5h83.937zm-86.437-17.5v-11.182c0-1.378 1.122-2.5 2.5-2.5h83.937c1.378 0 2.5 1.122 2.5 2.5v11.181c0 1.378-1.122 2.5-2.5 2.5h-83.937c-1.378.001-2.5-1.121-2.5-2.499z"/><path d="m494.5 319.129h-113.5c-4.142 0-7.5 3.357-7.5 7.5s3.358 7.5 7.5 7.5h113.5c1.378 0 2.5 1.121 2.5 2.5v157.871c0 1.379-1.122 2.5-2.5 2.5h-157.871c-1.378 0-2.5-1.121-2.5-2.5v-115.34c0-4.143-3.358-7.5-7.5-7.5s-7.5 3.357-7.5 7.5v115.34c0 9.649 7.851 17.5 17.5 17.5h157.871c9.649 0 17.5-7.851 17.5-17.5v-157.871c0-9.65-7.851-17.5-17.5-17.5z"/><path d="m458.299 364.924c-6.824-6.823-17.926-6.821-24.749 0l-68.626 68.627c-3.306 3.305-5.126 7.699-5.126 12.374s1.82 9.069 5.125 12.375l7.906 7.906c3.412 3.411 7.893 5.117 12.374 5.117s8.963-1.706 12.375-5.117l68.626-68.627c6.823-6.823 6.823-17.926 0-24.749zm-2.7 22.047-68.626 68.627c-.975.975-2.561.975-3.536 0l-7.906-7.906c-.637-.637-.732-1.381-.732-1.768s.095-1.13.732-1.767l68.626-68.627c.487-.487 1.127-.731 1.768-.731.64 0 1.28.244 1.768.731l7.906 7.906c.974.976.974 2.561 0 3.535z"/><path d="m348.016 372.231c0 13.353 10.863 24.216 24.216 24.216s24.215-10.863 24.215-24.216-10.863-24.215-24.215-24.215-24.216 10.863-24.216 24.215zm24.215-9.215c5.082 0 9.215 4.134 9.215 9.215 0 5.082-4.134 9.216-9.215 9.216s-9.216-4.134-9.216-9.216c.001-5.081 4.135-9.215 9.216-9.215z"/><path d="m434.682 458.897c0 13.353 10.863 24.216 24.216 24.216s24.215-10.863 24.215-24.216-10.863-24.215-24.215-24.215-24.216 10.863-24.216 24.215zm33.431 0c0 5.082-4.134 9.216-9.215 9.216s-9.216-4.134-9.216-9.216c0-5.081 4.134-9.215 9.216-9.215s9.215 4.134 9.215 9.215z"/><path d="m334.936 159.565h-157.872c-9.649 0-17.5 7.851-17.5 17.5v157.872c0 9.649 7.851 17.5 17.5 17.5h157.871c9.649 0 17.5-7.851 17.5-17.5v-157.872c.001-9.65-7.85-17.5-17.499-17.5zm2.5 175.371c0 1.379-1.122 2.5-2.5 2.5h-157.872c-1.378 0-2.5-1.121-2.5-2.5v-157.871c0-1.378 1.122-2.5 2.5-2.5h157.871c1.378 0 2.5 1.122 2.5 2.5v157.871z"/><path d="m297.968 201.95h-83.937c-9.649 0-17.5 7.851-17.5 17.5v11.181c0 9.649 7.851 17.5 17.5 17.5h83.937c9.649 0 17.5-7.851 17.5-17.5v-11.181c0-9.649-7.85-17.5-17.5-17.5zm2.5 28.681c0 1.378-1.122 2.5-2.5 2.5h-83.937c-1.378 0-2.5-1.122-2.5-2.5v-11.181c0-1.378 1.122-2.5 2.5-2.5h83.937c1.378 0 2.5 1.122 2.5 2.5z"/><path d="m297.968 263.87h-83.937c-9.649 0-17.5 7.851-17.5 17.5v11.181c0 9.649 7.851 17.5 17.5 17.5h83.937c9.649 0 17.5-7.851 17.5-17.5v-11.181c0-9.65-7.85-17.5-17.5-17.5zm2.5 28.681c0 1.379-1.122 2.5-2.5 2.5h-83.937c-1.378 0-2.5-1.121-2.5-2.5v-11.181c0-1.379 1.122-2.5 2.5-2.5h83.937c1.378 0 2.5 1.121 2.5 2.5z"/></g></g></svg>