<svg id="Capa_1" enable-background="new 0 0 512 512" height="512" viewBox="0 0 512 512" width="512" xmlns="http://www.w3.org/2000/svg"><g><g><path d="m69.625 262.287h57.983v202.792h-57.983z" fill="#dc3d36"/><path d="m104.467 262.287h23.142v202.792h-23.142z" fill="#b13d49"/><path d="m82.05 43.317h33.133v203.668h-33.133z" fill="#e59f4f"/><path d="m92.183 43.317h23v203.668h-23z" fill="#e27f4d"/><g fill="#f6df59"><path d="m124.033 504.5h-50.833c-8.837 0-16-7.163-16-16v-25.7c0-4.418 3.582-8 8-8h66.833c4.418 0 8 3.582 8 8v25.7c0 8.837-7.163 16-16 16z"/><path d="m132.033 272.567h-66.833c-4.418 0-8-3.582-8-8v-17.133c0-4.418 3.582-8 8-8h66.833c4.418 0 8 3.582 8 8v17.133c0 4.418-3.581 8-8 8z"/><path d="m454.8 73.767h-66.267v33.133c0 18.299 14.834 33.133 33.133 33.133s33.133-14.834 33.133-33.133v-33.133z"/></g><path d="m431.8 73.767v33.133c0 14.255-9.004 26.406-21.633 31.081 3.583 1.326 7.456 2.053 11.5 2.053 18.299 0 33.133-14.834 33.133-33.133v-33.134s-12.576 0-23 0z" fill="#edbf50"/><circle cx="98.617" cy="32.35" fill="#f6df59" r="24.85"/><path d="m98.617 7.5c-4.151 0-8.061 1.023-11.5 2.823 7.933 4.15 13.35 12.454 13.35 22.027 0 9.574-5.417 17.877-13.35 22.027 3.439 1.799 7.349 2.823 11.5 2.823 13.724 0 24.85-11.126 24.85-24.85s-11.126-24.85-24.85-24.85z" fill="#edbf50"/><path d="m132.033 239.433h-23c4.418 0 8 3.582 8 8v17.133c0 4.418-3.582 8-8 8h23c4.418 0 8-3.582 8-8v-17.133c0-4.418-3.581-8-8-8z" fill="#edbf50"/><path d="m132.033 454.8h-23c4.418 0 8 3.582 8 8v25.7c0 8.836-7.163 16-16 16h23c8.837 0 16-7.164 16-16v-25.7c0-4.418-3.581-8-8-8z" fill="#edbf50"/></g><g><path d="m454.8 0c-4.142 0-7.5 3.357-7.5 7.5v58.767h-18.133v-58.767c0-4.143-3.358-7.5-7.5-7.5s-7.5 3.357-7.5 7.5v58.767h-18.133v-58.767c0-4.143-3.358-7.5-7.5-7.5s-7.5 3.357-7.5 7.5v99.4c0 19.842 14.3 36.397 33.133 39.927v26.328c0 4.143 3.358 7.5 7.5 7.5s7.5-3.357 7.5-7.5v-26.328c18.833-3.529 33.133-20.084 33.133-39.927v-99.4c0-4.143-3.358-7.5-7.5-7.5zm-7.5 81.267v18.133h-51.267v-18.133zm-25.633 51.266c-11.526 0-21.296-7.647-24.511-18.133h49.023c-3.216 10.486-12.987 18.133-24.512 18.133z"/><path d="m421.667 195.656c-4.142 0-7.5 3.357-7.5 7.5v185.377c0 14.135-11.499 25.634-25.633 25.634s-25.634-11.499-25.634-25.634v-265.066c0-22.405-18.228-40.634-40.633-40.634s-40.633 18.229-40.633 40.634v265.066c0 14.135-11.499 25.634-25.633 25.634s-25.633-11.499-25.633-25.634v-323.05c0-22.405-18.228-40.634-40.633-40.634h-59.655c-3.393-14.231-16.208-24.849-31.463-24.849-17.838 0-32.35 14.512-32.35 32.35 0 8.29 3.137 15.859 8.283 21.589v28.109c0 4.143 3.358 7.5 7.5 7.5s7.5-3.357 7.5-7.5v-18.65c2.879.842 5.919 1.303 9.067 1.303 3.147 0 6.188-.46 9.066-1.302v135.401h-18.133v-86.752c0-4.143-3.358-7.5-7.5-7.5s-7.5 3.357-7.5 7.5v119.886h-9.35c-8.547 0-15.5 6.953-15.5 15.5v17.133c0 7.494 5.346 13.761 12.425 15.191v167.851c-7.078 1.43-12.425 7.697-12.425 15.191v25.7c0 12.958 10.542 23.5 23.5 23.5h50.833c12.958 0 23.5-10.542 23.5-23.5v-25.7c0-7.494-5.346-13.761-12.425-15.191v-167.851c7.079-1.431 12.425-7.697 12.425-15.191v-17.133c0-8.547-6.953-15.5-15.5-15.5h-9.35v-177.994c3.543-3.946 6.127-8.765 7.397-14.09h59.654c14.134 0 25.633 11.499 25.633 25.634v323.05c0 22.405 18.228 40.634 40.633 40.634s40.633-18.228 40.633-40.634v-265.067c0-14.135 11.499-25.634 25.633-25.634s25.633 11.499 25.633 25.634v265.066c0 22.405 18.228 40.634 40.633 40.634s40.633-18.228 40.633-40.634v-185.377c.002-4.142-3.356-7.5-7.498-7.5zm-340.4-163.306c0-9.566 7.783-17.35 17.35-17.35s17.35 7.783 17.35 17.35-7.783 17.351-17.35 17.351-17.35-7.784-17.35-17.351zm38.841 367.093-42.983 12.281v-34.1l42.983-12.281zm0-49.7-42.983 12.281v-34.099l42.983-12.281zm-42.983 77.581 42.983-12.281v32.257h-42.983zm42.983-127.281-42.983 12.281v-32.257h42.983zm12.425 188.457c0 4.686-3.813 8.5-8.5 8.5h-17.917v-9.066c0-4.143-3.358-7.5-7.5-7.5s-7.5 3.357-7.5 7.5v9.066h-17.916c-4.687 0-8.5-3.814-8.5-8.5v-25.7c0-.275.224-.5.5-.5h66.833c.276 0 .5.225.5.5zm0-241.066v17.133c0 .275-.224.5-.5.5h-4.425-57.983-4.425c-.276 0-.5-.225-.5-.5v-17.133c0-.275.224-.5.5-.5h66.833c.276 0 .5.224.5.5zm-42.983-15.5v-18.134h18.133v18.134z"/></g></g></svg>