<svg id="Capa_1" enable-background="new 0 0 512.158 512.158" height="512" viewBox="0 0 512.158 512.158" width="512" xmlns="http://www.w3.org/2000/svg"><g><g><path d="m375.036 474.565-40.654-.035-.026-31.484 42.472.036.014 16.622z" fill="#ffd064"/><path d="m346.127 456.686-.012-13.628-14.863-.011.028 31.484 21.629 1.911 23.945-1.876-.014-14.861-27.716-.021c-1.655-.002-2.996-1.343-2.997-2.998z" fill="#ffc250"/><path d="m372.313 162.952-37.362-.022.085-25.298c-.004-8.183 3.834-15.405 10.846-18.521.683-.303 2.106-1.421 2.106-1.421 1.897-.596 3.917-.918 6.011-.916 11.059.006 20.029 8.991 20.035 20.07l.011 12.096z" fill="#ffe07d"/><path d="m374.059 162.949-22.001 3.364-18.049-3.384-.02-26.11c-.01-8.98 5.88-16.58 14-19.13l.018 28.243c.001 1.656 1.343 2.997 2.999 2.998l23.043.009z" fill="#ffd064"/><path d="m403.989 254.199h-100.05l2.246-13.588-2.266-16.472 100.05.01z" fill="#f9f8f9"/><path d="m403.069 413.779-98.05-.04-.07-129.48 53.832-4.712 45.218 4.712.063 115.5z" fill="#f9f8f9"/><path d="m404.069 413.779-56.522 4.023-43.528-4.064-.07-129.48 5.811-2.797 8.229 2.797.038 110.455c.001 2.76 2.237 4.997 4.997 4.998l81.035.047z" fill="#e8e8e8"/><g><path d="m207.377 184.606h-106.063v-17.685c0-5.16 4.183-9.342 9.342-9.342l3.53-1h86.091c5.16 0 9.342 4.183 9.342 9.342v4.812z" fill="#b9c3cd"/><path d="m114.187 167.959v-11.38h-4.53c-5.16 0-9.342 4.183-9.342 9.342v18.685l53.063 3.92 56.243-3.92v-13.873h-92.658c-1.534.001-2.776-1.242-2.776-2.774z" fill="#a2abb8"/><path d="m211.232 230.318h-112.53c-5.523 0-10-4.477-10-10v-24.712c0-5.523 4.477-10 10-10l2.873-1h110.657c5.523 0 10 4.477 10 10v22.839l-1 2.873c0 5.523-4.477 10-10 10z" fill="#909ba6"/><path d="m191.292 269.358 1.044-17.346v-24.167h-70.491v41.513z" fill="#b9c3cd"/><path d="m117.597 265.885h-6.54c-1.666 0-3.292.175-4.86.506-2.662.563-4.77 2.515-7.012 3.901-6.659 4.115-10.213 11.512-10.213 19.915l2.352 195.969c0 8.771 7.111 15.882 15.882 15.882l98.143 1.521c8.771 0 15.882-7.111 15.882-15.882l1-1.615v-25.564l-8.727-79.227 8.727-59.499v-32.553c0-12.899-10.457-23.356-23.356-23.356h-6.54-11.935-62.803z" fill="#c8effe"/><path d="m106.199 479.082v-212.688c-10.566 2.236-18.497 11.614-18.497 22.846v32.553l3.675 75.073-3.675 63.652v28.178c0 8.771 7.111 15.882 15.882 15.882h102.766c8.771 0 15.882-7.111 15.882-15.882v-2.615h-109.033c-3.866.001-7-3.133-7-6.999z" fill="#a9e5f7"/><path d="m180.4 265.89v13.823s-.624 1.628-.789 2.483c-1.234 6.398-6.327 10.457-13.085 10.457l-22.12-.068c-7.662 0-13.873-6.211-13.873-13.873v-12.832l24.933-2.29z" fill="#b9c3cd"/><path d="m101.574 214.671v-30.065h-4.624c-5.108 0-9.248 4.141-9.248 9.248v28.215c0 5.108 4.141 9.248 9.248 9.248h116.033c5.108 0 9.248-4.141 9.248-9.248v-4.624h-117.882c-1.532 0-2.775-1.242-2.775-2.774z" fill="#7e8b96"/><path d="m131.47 249.238v-17.92h-13.873v34.567h74.739v-13.873h-58.092c-1.532 0-2.774-1.242-2.774-2.774z" fill="#a2abb8"/><path d="m143.406 265.883-8.37-2.293-5.503 2.29v13.833c0 7.662 6.211 13.873 13.873 13.873h23.121c7.662 0 13.873-6.211 13.873-13.873h-34.219c-1.532 0-2.775-1.242-2.775-2.775z" fill="#a2abb8"/><g><path d="m222.232 460.519h-134.53l7.079-69.363-7.079-69.363h134.53z" fill="#f9f8f9"/></g><path d="m87.702 321.793h18.497v138.726h-18.497z" fill="#e8e8e8"/><path d="m192.846 380.02h-20.933c-1.101 0-1.994-.892-1.994-1.993v-20.928c0-1.101-.893-1.993-1.994-1.993h-25.917c-1.101 0-1.994.892-1.994 1.993v20.928c0 1.101-.893 1.993-1.994 1.993h-20.933c-1.101 0-1.994.892-1.994 1.993v25.911c0 1.101.893 1.993 1.994 1.993h20.933c1.101 0 1.994.892 1.994 1.993v20.928c0 1.101.893 1.993 1.994 1.993h25.917c1.101 0 1.994-.892 1.994-1.993v-20.928c0-1.101.893-1.993 1.994-1.993h20.933c1.101 0 1.994-.892 1.994-1.993v-25.911c-.001-1.101-.893-1.993-1.994-1.993z" fill="#e27f86"/></g><path d="m385.462 197.579-62.989-.032-.019-23.593c-.003-5.539 4.852-10.027 10.844-10.024l.69-1.001 41.711.022c5.992.003 10.853 4.496 10.856 10.035l.007 9.583z" fill="#ffe07d"/><path d="m386.579 197.579-65.11-.03-.01-24.59c-.01-5.54 4.85-10.03 10.84-10.03h1.69l.017 16.624c.002 1.655 1.344 2.996 2.999 2.997l49.559.019z" fill="#ffd064"/><path d="m372.058 254.191 2.486-13.002.003-22.025-40.078.008 3.985 19.056-3.99 15.971z" fill="#e8e8e8"/><path d="m374.539 241.189-22.074.006c-1.657 0-3.001-1.343-3.001-3.001l.005-19.025h-15l-.009 35.03-.001 4.84h40.08z" fill="#dcdbdd"/><g fill="#e8e8e8"><path d="m403.999 284.259h-100.05l2.236-13.861-2.246-16.199h100.05z"/><path d="m403.969 224.149-99.05-.01.99-19.06c0-5.54 4.48-10.03 10-10.03l2.06-.998 75.98.038c5.53 0 10.01 4.5 10.01 10.03z"/><path d="m317.979 254.199-7.964 1.88-6.076-1.88-.02-30.06 7.02-2.677 7.03 2.677z"/></g><path d="m303.944 254.199h14.04v30.06h-14.04z" fill="#dcdbdd"/><path d="m317.969 194.049v30.09h-14.05l-.01-20.06c0-5.54 4.48-10.03 10-10.03z" fill="#dcdbdd"/><path d="m395.672 503.668-84.231-.046c-5.538-.003-9.03-3.495-9.033-9.033l-.005-9.027c-.003-5.538 4.484-10.025 10.022-10.022l3.83-.997 80.401.044c5.538.003 10.03 4.495 10.033 10.033l.003 5.197-.997 3.83c.001 5.537-4.486 10.024-10.023 10.021z" fill="#ffd064"/><path d="m321.257 489.77c-2.759-.001-4.996-2.238-4.997-4.997l-.006-10.23-4.83-.003c-5.536-.003-10.025 4.486-10.022 10.022l.005 10.027c.003 5.54 4.493 10.03 10.033 10.033l85.231.046c5.536.003 10.025-4.486 10.022-10.022l-.003-4.83z" fill="#ffc250"/><path d="m418.667 442.883-129.385-.071c-5.539-.003-10.032-4.496-10.035-10.035l-.005-8.029c-.003-5.539 4.485-10.027 10.024-10.024l3.983-.997 126.402.069c5.539.003 10.032 4.496 10.035 10.035l.003 5.049-.997 3.98c.002 5.538-4.486 10.026-10.025 10.023z" fill="#f9f8f9"/><path d="m429.689 428.879v4.98c.01 5.54-4.48 10.03-10.02 10.02l-131.39-.07c-5.54 0-10.03-4.49-10.03-10.03l-.01-10.03c0-5.54 4.49-10.03 10.03-10.03h4.98v12.101c0 1.656 1.342 2.999 2.999 3z" fill="#e8e8e8"/></g><g><path d="m221.384 179.814v-13.09c0-9.687-7.881-17.566-17.569-17.566h-33.937c-4.142 0-7.5 3.357-7.5 7.5s3.358 7.5 7.5 7.5h33.937c1.417 0 2.569 1.151 2.569 2.566v12.635h-102.813v-12.635c0-1.415 1.153-2.566 2.57-2.566h28.736c4.142 0 7.5-3.357 7.5-7.5s-3.358-7.5-7.5-7.5h-28.736c-9.688 0-17.57 7.88-17.57 17.566v13.09c-7.773 1.782-13.594 8.74-13.594 17.045v20.336c0 9.649 7.851 17.5 17.5 17.5h14.723v22.26c-17.809.243-32.223 14.794-32.223 32.656v72.046c0 4.143 3.358 7.5 7.5 7.5s7.5-3.357 7.5-7.5v-28.855h130v124.489h-61.155c-4.142 0-7.5 3.357-7.5 7.5s3.358 7.5 7.5 7.5h61.155v15.252c0 5.302-4.314 9.614-9.618 9.614h-110.763c-5.303 0-9.618-4.312-9.618-9.614v-15.252h33.845c4.142 0 7.5-3.357 7.5-7.5s-3.358-7.5-7.5-7.5h-33.845v-60.634c0-4.143-3.358-7.5-7.5-7.5s-7.5 3.357-7.5 7.5v90.886c0 13.572 11.043 24.614 24.618 24.614h110.764c13.574 0 24.618-11.042 24.618-24.614v-197.931c0-17.862-14.414-32.413-32.222-32.656v-22.26h14.722c9.649 0 17.5-7.851 17.5-17.5v-20.336c0-8.306-5.822-15.264-13.594-17.046zm-86.319 92.13h39.825v7.401c0 4.107-3.343 7.448-7.452 7.448h-24.92c-4.109 0-7.452-3.341-7.452-7.448v-7.401zm84.913 17.668v28.19h-130v-28.19c0-9.742 7.928-17.668 17.674-17.668h12.414v7.401c0 12.378 10.072 22.448 22.452 22.448h24.92c12.38 0 22.452-10.07 22.452-22.448v-7.401h12.414c9.745 0 17.674 7.926 17.674 17.668zm-32.223-32.668h-65.555v-22.249h65.555zm32.223-39.749c0 1.379-1.122 2.5-2.5 2.5h-125c-1.378 0-2.5-1.121-2.5-2.5v-20.336c0-1.379 1.122-2.5 2.5-2.5h125c1.378 0 2.5 1.121 2.5 2.5z"/><path d="m167.937 347.684h-25.917c-5.235 0-9.494 4.259-9.494 9.493v15.422h-15.427c-5.235 0-9.494 4.259-9.494 9.493v25.911c0 5.234 4.259 9.493 9.494 9.493h15.427v15.422c0 5.234 4.259 9.493 9.494 9.493h25.917c5.235 0 9.494-4.259 9.494-9.493v-15.422h15.427c5.234 0 9.493-4.259 9.493-9.493v-25.911c0-5.234-4.259-9.493-9.493-9.493h-15.428v-15.422c0-5.235-4.259-9.493-9.493-9.493zm19.413 39.915v14.897h-15.426c-5.235 0-9.494 4.259-9.494 9.493v15.422h-14.905v-15.422c0-5.234-4.259-9.493-9.494-9.493h-15.427v-14.897h15.427c5.235 0 9.494-4.259 9.494-9.493v-15.422h14.905v15.422c0 5.234 4.259 9.493 9.494 9.493z"/><path d="m437.175 423.747c-.005-9.661-7.869-17.525-17.531-17.53l-8.089-.004v-44.554c0-4.143-3.358-7.5-7.5-7.5s-7.5 3.357-7.5 7.5v44.546l-50.614-.028v-15.07l22.98.013h.004c4.14 0 7.498-3.355 7.5-7.496.002-4.142-3.354-7.502-7.496-7.504l-22.989-.013v-20.103l22.961.012h.004c4.14 0 7.498-3.355 7.5-7.496.002-4.143-3.354-7.502-7.496-7.504l-22.969-.012v-19.1l22.943.013h.004c4.14 0 7.498-3.355 7.5-7.496.002-4.142-3.354-7.502-7.496-7.504l-22.951-.013v-15.223l50.613.002v34.976c0 4.143 3.358 7.5 7.5 7.5s7.5-3.357 7.5-7.5v-122.618c-.005-9.624-7.844-17.458-17.497-17.525l-.013-13.613c-.005-7.704-5.248-14.252-12.499-16.596v-19.545c-.006-12.574-8.48-23.205-20.01-26.502v-102.76c0-4.143-3.358-7.5-7.5-7.5s-7.5 3.357-7.5 7.5v102.718c-10.359 2.636-20.305 13.979-20.039 26.525v19.522c-2.818.897-5.406 2.427-7.482 4.504-3.273 3.273-5.075 7.575-5.072 12.113l.013 13.592h-.053c-.003 0-.006 0-.009 0-4.634 0-8.987 1.8-12.256 5.069-3.311 3.311-5.132 7.734-5.13 12.454v202.153l-8.249-.004c-4.657-.019-9.087 1.819-12.397 5.131-3.311 3.311-5.133 7.713-5.13 12.396l.005 10.029c.005 9.662 7.869 17.526 17.531 17.531l35.392.019v15.62l-12.343-.007c-.003 0-.006 0-.009 0-4.68 0-9.08 1.822-12.388 5.131-3.311 3.311-5.133 7.713-5.13 12.396l.005 10.029c.005 9.662 7.869 17.526 17.531 17.531l85.25.046h.009c4.68 0 9.08-1.822 12.388-5.131 3.311-3.311 5.133-7.713 5.13-12.396l-.005-10.029c-.005-9.662-7.87-17.526-17.531-17.531l-12.316-.007-.014-15.62 35.417.019h.009c4.68 0 9.08-1.822 12.388-5.131 3.311-3.311 5.133-7.714 5.131-12.397zm-125.667-147.068v-15.059l85.047.003v15.059zm85.047-30.055-14.522-.001v-15.059l14.522.001zm-29.522-.001-25.078-.001v-15.059l25.078.001zm-40.078-.002-15.447-.001v-15.059l15.447.001zm18.216-118.779c1.585-1.544 4.693-3.421 8.814-3.647 6.923.004 12.559 5.646 12.562 12.57v18.603l-25.049-.012v-18.618c-.001-3.367 1.303-6.526 3.673-8.896zm-16.227 45.028c0-.674.37-1.186.68-1.496.65-.649 1.619-1.022 2.659-1.022h.002l43.401.021c1.821.001 3.359 1.164 3.36 2.542l.013 13.589-50.102-.022zm-16.699 29.279c.308-.309.844-.676 1.649-.676h.001l80.041.036c1.419.001 2.618 1.163 2.619 2.535v12.52l-85.047-.003v-12.569c0-.962.462-1.567.737-1.843zm-.737 89.53 19.434.001v114.489l-19.433-.01v-114.48zm87.589 192.772.005 10.029c0 .909-.461 1.507-.737 1.782s-.872.738-1.781.738h-.001l-85.25-.046c-1.399-.001-2.538-1.14-2.539-2.539l-.005-10.029c0-.909.461-1.507.737-1.782s.873-.737 1.782-.737h.001l85.25.046c1.399 0 2.538 1.139 2.538 2.538zm-29.847-17.554-30.591-.017v-15.62l30.577.017zm52.193-31.33c-.275.275-.873.737-1.781.737h-.001l-131.385-.071c-1.399-.001-2.538-1.14-2.539-2.539l-.005-10.029c0-.909.461-1.507.737-1.782s.873-.737 1.782-.737h.001l131.385.071c1.399.001 2.538 1.14 2.539 2.538l.006 10.029c-.001.91-.463 1.508-.739 1.783z"/></g></g></svg>