<svg id="Capa_1" enable-background="new 0 0 511.972 511.972" height="512" viewBox="0 0 511.972 511.972" width="512" xmlns="http://www.w3.org/2000/svg"><g><g><g><g><path d="m319.556 444.132h-35.099v-27.68c0-5.523 4.477-10 10-10h15.099c5.523 0 10 4.477 10 10z" fill="#e58e82"/></g></g><g><path d="m247.656 95.097-199.746 181.745h46.882l199.713-181.712z" fill="#d3ced5"/></g><g><path d="m257.627 447.292-186.259-204.26-.033 46.849 139.41 157.411z" fill="#d3ced5"/></g><g><circle cx="396.787" cy="192.1" fill="#fdcd08" r="50"/></g><g><path d="m375.347 213.539c-17.144-17.144-19.231-43.638-6.27-63.064-2.699 1.801-5.264 3.887-7.646 6.27-19.526 19.526-19.526 51.184 0 70.711 19.526 19.526 51.185 19.526 70.711 0 2.382-2.382 4.469-4.947 6.27-7.646-19.426 12.96-45.921 10.873-63.065-6.271z" fill="#faab18"/></g><g><path d="m370.297 76.546-89.064 89.064-53.592-53.592c-20.643-20.643-20.643-54.111 0-74.754l14.31-14.31c20.643-20.643 54.111-20.643 74.754 0z" fill="#b3dafe"/></g><g><path d="m241.557 23.348-13.916 13.916c-20.643 20.643-20.643 54.111 0 74.754l53.592 53.592 13.916-13.916-53.592-53.592c-20.643-20.643-20.643-54.112 0-74.754z" fill="#8ac9fe"/></g><g><path d="m472.221 116.666-150.868 150.868c-1.953 1.953-5.118 1.953-7.071 0l-45.03-45.03c-15.621-15.621-15.621-40.948 0-56.569l101.37-101.37c15.621-15.621 40.948-15.621 56.569 0l45.03 45.03c1.952 1.952 1.952 5.118 0 7.071z" fill="#365f7e"/></g><g><path d="m328.198 253.618-45.03-45.03c-15.621-15.621-15.621-40.948 0-56.569l-13.916 13.916c-15.621 15.621-15.621 40.948 0 56.569l45.03 45.03c1.953 1.953 5.118 1.953 7.071 0l13.916-13.916c-1.953 1.953-5.119 1.953-7.071 0z" fill="#2c4d66"/></g><g><path d="m76.896 309.861c-21.32 0-38.603-17.283-38.603-38.603 0-21.32 17.283-38.603 38.603-38.603 21.32 0 38.603 17.283 38.603 38.603 0 21.319-17.283 38.603-38.603 38.603z" fill="#b3dafe"/></g><g><path d="m54.373 271.257c0-18.562 13.103-34.059 30.563-37.759-2.594-.55-5.282-.844-8.04-.844-21.32 0-38.603 17.283-38.603 38.603 0 21.32 17.283 38.603 38.603 38.603 2.758 0 5.446-.295 8.04-.844-17.46-3.7-30.563-19.196-30.563-37.759z" fill="#8ac9fe"/></g><g><path d="m215.784 478.206c-21.32 0-38.603-17.283-38.603-38.603 0-21.32 17.283-38.603 38.603-38.603 21.32 0 38.603 17.283 38.603 38.603 0 21.32-17.283 38.603-38.603 38.603z" fill="#b3dafe"/></g><g><path d="m193.261 439.603c0-18.562 13.103-34.059 30.563-37.759-2.594-.55-5.282-.844-8.04-.844-21.32 0-38.603 17.283-38.603 38.603 0 21.32 17.283 38.603 38.603 38.603 2.758 0 5.446-.295 8.04-.844-17.46-3.7-30.563-19.197-30.563-37.759z" fill="#8ac9fe"/></g><g><path d="m358.701 504.472h-227.518c-5.523 0-10-4.477-10-10v-24.869c0-16.569 13.431-30 30-30h187.517c16.569 0 30 13.431 30 30v24.869c.001 5.523-4.477 10-9.999 10z" fill="#365f7e"/></g><g><path d="m137.263 494.472v-24.869c0-16.568 13.432-30 30-30h-16.08c-16.569 0-30 13.432-30 30v24.869c0 5.523 4.477 10 10 10h16.08c-5.522 0-10-4.477-10-10z" fill="#2c4d66"/></g></g><path d="m477.524 104.292-45.03-45.03c-18.521-18.521-48.655-18.519-67.175 0l-.85.85-16.836-16.836c-2.929-2.929-7.678-2.929-10.606 0-2.929 2.929-2.929 7.678 0 10.606l16.836 16.836-78.458 78.458-42.461-42.461c-17.685-17.686-17.685-46.462 0-64.147l14.31-14.31c17.686-17.686 46.462-17.685 64.147 0l2.852 2.852c2.929 2.929 7.678 2.929 10.606 0 2.929-2.929 2.929-7.678 0-10.606l-2.852-2.852c-23.534-23.534-61.827-23.534-85.36 0l-14.31 14.31c-23.534 23.534-23.534 61.826 0 85.36l17.453 17.453-123.576 112.437c-2.913-4.746-6.666-8.92-11.043-12.33l106.182-96.613c3.064-2.788 3.288-7.531.5-10.595s-7.531-3.287-10.595-.5l-110.157 100.23c-4.478-1.454-9.25-2.249-14.206-2.249-25.421 0-46.103 20.682-46.103 46.103s20.682 46.103 46.103 46.103c2.769 0 5.476-.259 8.112-.729l89.959 101.574c-2.252 4.281-3.842 8.96-4.654 13.898h-19.128c-20.678 0-37.5 16.822-37.5 37.5v24.869c0 9.649 7.851 17.5 17.5 17.5h227.518c9.649 0 17.5-7.851 17.5-17.5v-24.869c0-20.678-16.822-37.5-37.5-37.5h-11.645v-15.651c0-9.649-7.851-17.5-17.5-17.5h-15.099c-9.649 0-17.5 7.851-17.5 17.5v15.651h-15.701c-3.433-20.885-20.937-37.082-42.429-38.491l-82.059-89.989c-2.792-3.061-7.535-3.279-10.596-.488s-3.279 7.535-.488 10.596l75.048 82.301c-6.209 2.151-11.818 5.594-16.507 10.007l-84.114-94.975c13.675-8.007 22.886-22.846 22.886-39.805 0-3.119-.315-6.166-.908-9.113l128.318-116.753 14.39 14.39-.85.85c-18.52 18.521-18.52 48.655 0 67.175l45.03 45.03c2.437 2.437 5.638 3.655 8.839 3.655s6.402-1.218 8.838-3.655l35.135-35.135c9.993 7.706 22.168 11.897 34.996 11.897 15.359 0 29.798-5.981 40.659-16.841 20.621-20.621 22.259-53.128 4.946-75.657l35.133-35.133c4.874-4.875 4.874-12.805 0-17.678zm-116.323 365.311v24.869c0 1.378-1.122 2.5-2.5 2.5h-227.518c-1.378 0-2.5-1.122-2.5-2.5v-24.869c0-12.407 10.093-22.5 22.5-22.5h187.518c12.406 0 22.5 10.093 22.5 22.5zm-69.243-53.151c0-1.378 1.122-2.5 2.5-2.5h15.099c1.378 0 2.5 1.122 2.5 2.5v15.651h-20.099zm-76.174-7.952c14.563 0 26.808 10.066 30.173 23.603h-60.346c3.365-13.537 15.61-23.603 30.173-23.603zm-138.888-106.14c-17.15 0-31.103-13.953-31.103-31.103s13.953-31.103 31.103-31.103 31.103 13.953 31.103 31.103-13.953 31.103-31.103 31.103zm362.391-110.26c0 11.352-4.42 22.025-12.448 30.052s-18.7 12.448-30.052 12.448c-8.81 0-17.204-2.673-24.276-7.617l59.161-59.161c4.945 7.071 7.615 15.468 7.615 24.278zm-121.47 68.362-43.262-43.262c-12.671-12.672-12.671-33.291 0-45.962l101.37-101.37c6.337-6.336 14.658-9.503 22.981-9.503 8.321 0 16.646 3.168 22.981 9.503l43.262 43.262z"/></g></svg>