<svg id="Capa_1" enable-background="new 0 0 512 512" height="512" viewBox="0 0 512 512" width="512" xmlns="http://www.w3.org/2000/svg"><g><g><path d="m378.5 256c0-64.664-50.05-117.619-113.552-122.176-2.938-.211-5.956.112-8.948.112-67.655 0-120.5 59.617-120.5 122.064 0 61.128 52.845 121.936 120.5 121.936 3.016 0 6.023.451 8.984.237 63.468-4.592 113.516-57.534 113.516-122.173z" fill="#f9f8f9"/><path d="m316.55 278.964c0-30.467-34.006-78.424-51.049-100.545-.554-.719-.951-.512-1.467-1.175-4.009-5.147-11.78-5.147-15.789 0-4.848 6.224-10.732 15.123-17.599 25.189-.107.157-.214.323-.321.481-16.282 23.934-32.559 53.812-32.559 75.83 0 29.377 18.913 53.377 46.234 58.936 3.779.769 7.936 1.834 12 1.834 2.69 0 5.326-.313 7.923-.653.53-.069 1.597-.091 1.597-.091 21.849-3.451 39.807-18.591 47.284-38.813.035-.093.076-.184.11-.278 2.353-6.462 3.636-13.438 3.636-20.715z" fill="#e27f86"/><path d="m265.52 338.77c-3.1.49-6.28.74-9.52.74-33.44 0-60.55-27.1-60.55-60.55 0-22.01 17.76-53.15 34.04-77.08.11-.16.21-.33.32-.48 6.87-10.07 13.45-18.83 18.3-25.05 4-5.15 11.78-5.15 15.78 0 .52.66 1.05 1.35 1.61 2.07-4.64 6.03-10.55 13.98-16.69 22.98-.11.15-.21.32-.32.48-16.28 23.93-34.04 55.07-34.04 77.08 0 30.22 22.13 55.26 51.07 59.81z" fill="#df646e"/><path d="m167.5 87.5c0-41.159-31.055-75.055-71.028-79.502-2.936-.327-5.948.502-8.972.502-44.183 0-78 34.817-78 79s33.817 79 78 79c2.978 0 6.012.827 8.906.51 40.037-4.387 71.094-38.306 71.094-79.51z" fill="#f9f8f9"/><path d="m504.5 87.5c0-41.192-31.057-75.104-71.076-79.508-2.905-.32-5.934.508-8.924.508-44.183 0-78 34.817-78 79s33.817 79 78 79c3.031 0 6.039.83 8.983.501 39.962-4.456 71.017-38.349 71.017-79.501z" fill="#f9f8f9"/><path d="m167.5 424.5c0-41.251-31.056-75.192-71.158-79.517-2.85-.307-5.911.517-8.842.517-44.183 0-79 34.817-79 79s34.817 79 79 79c2.518 0 5.009.884 7.468.656 40.681-3.766 72.532-37.991 72.532-79.656z" fill="#f9f8f9"/><path d="m504.5 424.5c0-41.297-31.063-75.26-71.228-79.524-2.807-.298-5.886.524-8.772.524-44.183 0-78 39.968-78 79 0 31.436 33.817 79 78 79 2.869 0 5.956.821 8.747.527 40.19-4.242 71.253-38.214 71.253-79.527z" fill="#f9f8f9"/><g fill="#e8e8e8"><path d="m151.5 256c0-64.628 49.995-117.568 113.448-122.176-2.972-.216-5.92-.324-8.948-.324-67.655 0-122.5 54.845-122.5 122.5s54.845 122.5 122.5 122.5c3.027 0 6.012-.111 8.984-.327-63.452-4.608-113.484-57.545-113.484-122.173z"/><path d="m25.5 87.5c0-41.138 31.029-75.028 70.972-79.502-2.956-.332-5.928-.498-8.972-.498-44.183 0-80 35.817-80 80s35.817 80 80 80c3.044 0 5.95-.159 8.906-.49-39.943-4.475-70.906-38.372-70.906-79.51z"/><path d="m362.5 87.5c0-41.138 30.98-75.033 70.924-79.508-2.956-.331-5.88-.492-8.924-.492-44.183 0-80 35.817-80 80s35.817 80 80 80c3.044 0 6.027-.168 8.983-.499-39.944-4.474-70.983-38.363-70.983-79.501z"/><path d="m25.5 424.5c0-41.138 30.898-75.042 70.842-79.517-2.956-.331-5.798-.483-8.842-.483-44.183 0-80 35.817-80 80s35.817 80 80 80c3.044 0 6.052-.173 9.008-.504-39.944-4.475-71.008-38.358-71.008-79.496z"/><path d="m362.5 424.5c0-41.138 30.828-75.05 70.772-79.524-2.956-.331-5.727-.476-8.772-.476-44.183 0-80 35.817-80 80s35.817 80 80 80c3.044 0 5.791-.142 8.747-.473-39.944-4.475-70.747-38.389-70.747-79.527z"/></g></g><g><path d="m256 179.985c.457 0 1.321.126 1.978.969 6.63 8.512 16.492 21.763 25.826 36.549 2.212 3.503 6.843 4.548 10.346 2.339 3.502-2.211 4.549-6.843 2.338-10.346-9.66-15.304-19.839-28.98-26.676-37.759-3.342-4.291-8.376-6.752-13.812-6.752s-10.47 2.461-13.812 6.752c-20.256 26.007-54.238 74.52-54.238 107.227 0 37.523 30.527 68.05 68.05 68.05s68.05-30.527 68.05-68.05c0-10.198-3.308-22.701-9.832-37.16-1.703-3.775-6.143-5.457-9.921-3.752-3.775 1.704-5.455 6.146-3.751 9.921 5.643 12.507 8.504 22.934 8.504 30.991 0 29.252-23.798 53.05-53.05 53.05s-53.05-23.798-53.05-53.05c0-20.312 19.093-56.951 51.072-98.01.657-.843 1.521-.969 1.978-.969z"/><path d="m494.541 385.091c-3.782 1.688-5.481 6.122-3.794 9.905 4.149 9.302 6.253 19.229 6.253 29.504 0 39.977-32.523 72.5-72.5 72.5s-72.5-32.523-72.5-72.5 32.523-72.5 72.5-72.5c17.415 0 34.249 6.265 47.401 17.641 3.132 2.711 7.868 2.369 10.579-.766 2.709-3.133 2.366-7.869-.767-10.579-15.876-13.733-36.195-21.296-57.213-21.296-21.429 0-41.08 7.748-56.31 20.584l-15.164-15.164c20.496-22.988 32.974-53.272 32.974-86.42s-12.477-63.432-32.974-86.419l15.164-15.164c15.23 12.835 34.881 20.583 56.31 20.583 48.248 0 87.5-39.252 87.5-87.5s-39.252-87.5-87.5-87.5-87.5 39.252-87.5 87.5c0 21.429 7.748 41.08 20.584 56.309l-15.164 15.164c-22.987-20.495-53.272-32.973-86.42-32.973s-63.433 12.478-86.42 32.974l-15.164-15.164c12.836-15.23 20.584-34.881 20.584-56.31 0-5.418-.499-10.844-1.484-16.126-.76-4.072-4.674-6.757-8.748-5.998-4.072.759-6.757 4.676-5.998 8.748.816 4.378 1.23 8.878 1.23 13.376 0 39.977-32.523 72.5-72.5 72.5s-72.5-32.523-72.5-72.5 32.523-72.5 72.5-72.5c23.308 0 45.346 11.323 58.952 30.289 2.415 3.366 7.101 4.136 10.466 1.722s4.137-7.1 1.722-10.466c-16.417-22.883-43.011-36.545-71.14-36.545-48.248 0-87.5 39.252-87.5 87.5s39.252 87.5 87.5 87.5c21.429 0 41.08-7.748 56.309-20.584l15.164 15.164c-20.496 22.988-32.973 53.272-32.973 86.42 0 6.654.508 13.336 1.509 19.861.627 4.094 4.446 6.903 8.551 6.276 4.094-.628 6.903-4.456 6.275-8.55-.886-5.775-1.335-11.692-1.335-17.587 0-63.411 51.589-115 115-115s115 51.589 115 115-51.589 115-115 115c-44.25 0-85.077-25.858-104.013-65.878-1.771-3.744-6.244-5.343-9.987-3.571-3.744 1.771-5.343 6.243-3.571 9.987 5.345 11.295 12.265 21.69 20.499 30.927l-15.118 15.118c-15.23-12.835-34.881-20.583-56.31-20.583-48.248 0-87.5 39.252-87.5 87.5s39.252 87.5 87.5 87.5 87.5-39.252 87.5-87.5c0-21.429-7.748-41.08-20.584-56.309l15.124-15.124c4.995 4.448 10.333 8.539 16.003 12.203 20.993 13.562 45.356 20.73 70.457 20.73 33.148 0 63.432-12.477 86.419-32.974l15.164 15.164c-12.835 15.23-20.583 34.881-20.583 56.31 0 48.248 39.252 87.5 87.5 87.5s87.5-39.252 87.5-87.5c0-12.395-2.541-24.377-7.554-35.615-1.688-3.784-6.124-5.482-9.905-3.794zm-70.041-370.091c39.977 0 72.5 32.523 72.5 72.5s-32.523 72.5-72.5 72.5-72.5-32.523-72.5-72.5 32.523-72.5 72.5-72.5zm-337 482c-39.977 0-72.5-32.523-72.5-72.5s32.523-72.5 72.5-72.5 72.5 32.523 72.5 72.5-32.523 72.5-72.5 72.5z"/><path d="m100 65c4.143 0 7.5-3.358 7.5-7.5s-3.357-7.5-7.5-7.5h-25c-4.143 0-7.5 3.358-7.5 7.5s3.357 7.5 7.5 7.5h5v45h-5c-4.143 0-7.5 3.358-7.5 7.5s3.357 7.5 7.5 7.5h25c4.143 0 7.5-3.358 7.5-7.5s-3.357-7.5-7.5-7.5h-5v-45z"/><path d="m398.5 110c-4.143 0-7.5 3.358-7.5 7.5s3.357 7.5 7.5 7.5h52c4.143 0 7.5-3.358 7.5-7.5s-3.357-7.5-7.5-7.5h-3.5v-45h3.5c4.143 0 7.5-3.358 7.5-7.5s-3.357-7.5-7.5-7.5h-52c-4.143 0-7.5 3.358-7.5 7.5s3.357 7.5 7.5 7.5h3.5v45zm18.5-45h15v45h-15z"/><path d="m128.5 402c4.143 0 7.5-3.358 7.5-7.5s-3.357-7.5-7.5-7.5h-82c-4.143 0-7.5 3.358-7.5 7.5s3.357 7.5 7.5 7.5h3.5v45h-3.5c-4.143 0-7.5 3.358-7.5 7.5s3.357 7.5 7.5 7.5h82c4.143 0 7.5-3.358 7.5-7.5s-3.357-7.5-7.5-7.5h-3.5v-45zm-63.5 0h15v45h-15zm45 45h-15v-45h15z"/><path d="m465.5 402c4.143 0 7.5-3.358 7.5-7.5s-3.357-7.5-7.5-7.5h-82c-4.143 0-7.5 3.358-7.5 7.5s3.357 7.5 7.5 7.5h.935v45h-.935c-4.143 0-7.5 3.358-7.5 7.5s3.357 7.5 7.5 7.5h82c4.143 0 7.5-3.358 7.5-7.5s-3.357-7.5-7.5-7.5h-13.406l10.875-45zm-66.065 45v-45h11.721l10.826 45zm37.602-1.55-10.453-43.45h20.953z"/></g></g></svg>