<svg id="Capa_1" enable-background="new 0 0 512 512" height="512" viewBox="0 0 512 512" width="512" xmlns="http://www.w3.org/2000/svg"><g><g><path d="m148.317 87.634h33.133v204.199h-33.133z" fill="#f6df59"/><path d="m158.45 87.634h23v204.199h-23z" fill="#edbf50"/><path d="m256 282.01h57.983v-76.277c0-8.837-7.163-16-16-16h-25.983c-8.837 0-16 7.163-16 16z" fill="#92b0ea"/><path d="m297.983 189.733h-23c8.837 0 16 7.163 16 16v76.276h23v-76.276c0-8.836-7.163-16-16-16z" fill="#7691ea"/><path d="m347.117 87.634h33.133v204.199h-33.133z" fill="#f6df59"/><path d="m357.25 87.634h23v204.199h-23z" fill="#edbf50"/><path d="m405.1 421.667v74.55c0 4.575-3.709 8.283-8.283 8.283h-16.567c-4.575 0-8.283-3.709-8.283-8.283v-74.55l16.567-8.845z" fill="#f3ffff"/><path d="m388.533 412.822-11.5 6.14 5.067 2.705v74.55c0 3.434-2.09 6.379-5.067 7.635.989.417 2.076.648 3.217.648h16.567c4.575 0 8.283-3.708 8.283-8.283v-74.55z" fill="#dff9f9"/><path d="m123.467 289.133h281.633v132.533h-281.633z" fill="#924af5"/><path d="m396.817 57.2v33.133c0 9.15-7.417 16.567-16.567 16.567h-33.133c-9.15 0-16.567-7.417-16.567-16.567v-8.283h-66.267v8.283c0 9.15-7.417 16.567-16.567 16.567h-33.133c-9.149 0-16.567-7.417-16.567-16.567v-51.65z" fill="#de5e4c"/><path d="m373.817 55.058v35.276c0 9.15-7.417 16.567-16.567 16.567h23c9.15 0 16.567-7.417 16.567-16.567v-33.134z" fill="#dc3d36"/><path d="m131.75 57.2v33.133c0 9.15 7.417 16.567 16.567 16.567h33.133c9.15 0 16.567-7.417 16.567-16.567v-34.38h66.267v34.381c0 9.15 7.417 16.567 16.567 16.567h33.133c9.15 0 16.567-7.417 16.567-16.567v-51.65z" fill="#f3ffff"/><path d="m222.867 388.533v-41.417c0-4.575 3.708-8.283 8.283-8.283h66.267c4.575 0 8.283 3.709 8.283 8.283v33.133c0 4.575-3.709 8.283-8.283 8.283z" fill="#f3ffff"/><g><path d="m173.167 338.833c-45.748 0-82.833 37.086-82.833 82.833s37.086 82.833 82.833 82.833 82.833-37.086 82.833-82.833-37.086-82.833-82.833-82.833zm0 132.534c-27.449 0-49.7-22.251-49.7-49.7s22.251-49.7 49.7-49.7 49.7 22.251 49.7 49.7c0 27.448-22.252 49.7-49.7 49.7z" fill="#413e82"/><path d="m173.167 338.833c-3.904 0-7.74.29-11.5.813 40.301 5.601 71.333 40.177 71.333 82.021 0 41.843-31.032 76.42-71.333 82.021 3.76.523 7.596.813 11.5.813 45.747 0 82.833-37.086 82.833-82.833s-37.086-82.835-82.833-82.835z" fill="#2f2c59"/><ellipse cx="173.167" cy="421.667" fill="#f3ffff" rx="16.567" ry="16.567" transform="matrix(.23 -.973 .973 .23 -277.006 493.322)"/><path d="m173.167 405.1c-4.471 0-8.52 1.779-11.5 4.657 3.119 3.013 5.067 7.23 5.067 11.909s-1.947 8.897-5.067 11.909c2.98 2.878 7.029 4.658 11.5 4.658 9.149 0 16.567-7.417 16.567-16.567-.001-9.149-7.418-16.566-16.567-16.566z" fill="#dff9f9"/></g><path d="m382.1 289.133h23v132.533h-23z" fill="#7536f9"/><path d="m413.667 305.7h-298.767c-4.418 0-8-3.582-8-8v-17.133c0-4.418 3.582-8 8-8h298.767c4.418 0 8 3.582 8 8v17.133c0 4.418-3.582 8-8 8z" fill="#f3ffff"/><path d="m413.667 272.567h-23c4.418 0 8 3.582 8 8v17.133c0 4.418-3.582 8-8 8h23c4.418 0 8-3.582 8-8v-17.133c0-4.419-3.582-8-8-8z" fill="#dff9f9"/><path d="m297.417 338.833h-23c4.575 0 8.283 3.709 8.283 8.283v33.133c0 4.575-3.709 8.283-8.283 8.283h-51.55 74.55c4.575 0 8.283-3.709 8.283-8.283v-33.133c0-4.574-3.709-8.283-8.283-8.283z" fill="#dff9f9"/><path d="m396.817 57.2v-33.133c0-9.149-7.417-16.567-16.567-16.567h-231.933c-9.149 0-16.567 7.417-16.567 16.567v33.133h66.267 132.533z" fill="#dc3d36"/><path d="m380.25 7.5h-23c9.15 0 16.567 7.417 16.567 16.567v33.133h23v-33.133c0-9.15-7.417-16.567-16.567-16.567z" fill="#b13d49"/></g><g><path d="m173.167 364.467c-31.54 0-57.2 25.66-57.2 57.2s25.66 57.2 57.2 57.2 57.2-25.66 57.2-57.2c0-31.541-25.66-57.2-57.2-57.2zm41.519 49.7h-18.655c-2.383-7.246-8.118-12.98-15.364-15.363v-18.655c17.265 3.11 30.907 16.752 34.019 34.018zm-41.519 16.566c-4.999 0-9.066-4.067-9.066-9.067 0-4.999 4.067-9.066 9.066-9.066s9.067 4.067 9.067 9.066c-.001 5-4.068 9.067-9.067 9.067zm-7.5-50.585v18.655c-7.246 2.383-12.98 8.118-15.364 15.363h-18.655c3.111-17.265 16.753-30.907 34.019-34.018zm-34.019 49.019h18.655c2.383 7.246 8.118 12.981 15.364 15.364v18.655c-17.266-3.112-30.908-16.754-34.019-34.019zm49.019 34.019v-18.656c7.246-2.383 12.981-8.118 15.364-15.364h18.655c-3.112 17.266-16.754 30.908-34.019 34.02z"/><path d="m413.667 265.067h-25.917v-151.87c9.608-3.16 16.567-12.212 16.567-22.863v-66.267c0-13.271-10.796-24.067-24.067-24.067h-183.8c-4.142 0-7.5 3.358-7.5 7.5s3.358 7.5 7.5 7.5h183.8c5 0 9.067 4.067 9.067 9.067v25.633h-250.067v-25.633c0-5 4.067-9.067 9.067-9.067h18.133c4.142 0 7.5-3.358 7.5-7.5s-3.358-7.5-7.5-7.5h-18.133c-13.27 0-24.067 10.796-24.067 24.067v66.267c0 10.652 6.959 19.704 16.567 22.863v107.675c0 4.142 3.358 7.5 7.5 7.5s7.5-3.358 7.5-7.5v-106.472h18.133v150.667h-18.133v-14.195c0-4.142-3.358-7.5-7.5-7.5s-7.5 3.358-7.5 7.5v14.195h-25.917c-8.547 0-15.5 6.953-15.5 15.5v17.133c0 8.547 6.953 15.5 15.5 15.5h1.067v38.604c-20.213 16.58-33.133 41.74-33.133 69.863 0 49.81 40.523 90.333 90.333 90.333 47.284 0 86.195-36.519 90.02-82.833h101.281v67.05c0 8.703 7.08 15.783 15.783 15.783h16.567c8.703 0 15.783-7.08 15.783-15.783v-183.017h1.066c8.547 0 15.5-6.953 15.5-15.5v-17.133c0-8.547-6.954-15.5-15.5-15.5zm-59.05-150.667h18.133v150.667h-18.133zm34.7-24.066c0 4.999-4.067 9.066-9.067 9.066h-33.133c-5 0-9.067-4.067-9.067-9.066v-25.634h51.267zm-66.267 0c0 4.999-4.067 9.066-9.066 9.066h-33.134c-5 0-9.067-4.067-9.067-9.066v-25.634h51.267zm-66.267 0c0 4.999-4.067 9.066-9.066 9.066h-33.133c-4.999 0-9.067-4.067-9.067-9.066v-25.634h51.267v25.634zm-108.466 9.066c-4.999 0-9.067-4.067-9.067-9.066v-25.634h51.267v25.633c0 4.999-4.067 9.066-9.066 9.066h-33.134zm40.633 13.797c3.425-1.126 6.51-3.001 9.066-5.432 4.319 4.106 10.151 6.634 16.567 6.634h33.133c6.415 0 12.248-2.528 16.566-6.634 4.319 4.106 10.151 6.634 16.567 6.634h33.133c6.415 0 12.248-2.528 16.566-6.634 2.556 2.43 5.642 4.305 9.067 5.432v151.87h-18.133v-59.333c0-12.958-10.542-23.5-23.5-23.5h-25.982c-12.958 0-23.5 10.542-23.5 23.5v59.333h-59.55zm117.533 118.736h-42.983v-26.2c0-4.687 3.813-8.5 8.5-8.5h25.983c4.687 0 8.5 3.813 8.5 8.5zm-42.983 15h42.983v18.134h-42.983zm-90.333 250.067c-41.539 0-75.333-33.794-75.333-75.333s33.794-75.333 75.333-75.333 75.333 33.794 75.333 75.333-33.794 75.333-75.333 75.333zm57.2-145.196v-4.687c0-.432.352-.783.783-.783h66.267c.432 0 .784.352.784.783v33.133c0 .432-.352.783-.784.783h-43.587c-5.721-11.309-13.748-21.26-23.463-29.229zm167.233 77.363v34.7h-18.133v-34.7zm-.783 67.833h-16.567c-.432 0-.783-.352-.783-.783v-17.35h18.133v17.35c0 .431-.351.783-.783.783zm.783-82.833h-134.414c-.516-6.245-1.671-12.31-3.397-18.133h37.627c8.703 0 15.784-7.08 15.784-15.783v-33.133c0-8.703-7.081-15.783-15.784-15.783h-66.266c-6.997 0-12.937 4.581-15 10.898-12.789-6.948-27.434-10.898-42.983-10.898-15.234 0-29.596 3.796-42.2 10.484v-28.619h266.633zm16.567-116.467c0 .276-.224.5-.5.5h-298.767c-.276 0-.5-.224-.5-.5v-17.133c0-.276.224-.5.5-.5h298.767c.276 0 .5.224.5.5z"/></g></g></svg>