<svg id="Capa_1" enable-background="new 0 0 512.007 512.007" height="512" viewBox="0 0 512.007 512.007" width="512" xmlns="http://www.w3.org/2000/svg"><g><g><g><path d="m57.543 501.568-47.108-47.108c-3.905-3.905-3.905-10.237 0-14.142l94.403-94.403 61.25 61.25-94.403 94.403c-3.906 3.906-10.237 3.906-14.142 0z" fill="#e1761c"/></g><g><path d="m120.013 361.091-15.175-15.175-94.413 94.413c-3.9 3.9-3.9 10.222 0 14.122l16.378 16.378c-4.564-4.565-4.563-11.965.001-16.529z" fill="#d76718"/></g><g><path d="m35.46 414.928h86.62v36.61h-86.62z" fill="#fdcd08" transform="matrix(.707 .707 -.707 .707 329.413 71.192)"/></g><g><path d="m45.002 391.891h21.461v36.61h-21.461z" fill="#faab18" transform="matrix(.707 .707 -.707 .707 306.376 80.735)"/></g><g><circle cx="278.684" cy="233.32" fill="#365f7e" r="225.816"/></g><g><path d="m134.182 88.819c85.643-85.643 222.957-88.105 311.581-7.404-2.397-2.633-4.86-5.227-7.404-7.771-88.187-88.187-231.166-88.187-319.353 0s-88.187 231.166 0 319.353c2.544 2.544 5.139 5.006 7.772 7.404-80.701-88.626-78.238-225.94 7.404-311.582z" fill="#2c4d66"/></g><g><circle cx="278.684" cy="233.32" fill="#b3dafe" r="173.117"/></g><g><path d="m171.149 125.785c65.108-65.108 169.167-67.502 237.154-7.207-2.314-2.609-4.708-5.172-7.207-7.67-67.606-67.606-177.218-67.606-244.824 0s-67.606 177.218 0 244.824c2.499 2.499 5.061 4.893 7.67 7.207-60.296-67.987-57.901-172.046 7.207-237.154z" fill="#8ac9fe"/></g><g><path d="m184.592 254.001 41.466 2.503c34.404 2.077 65.359-20.78 73.5-54.271l17.408-71.608c1.318-5.423-3.575-10.316-8.998-8.998l-71.608 17.408c-33.491 8.142-56.348 39.096-54.271 73.5z" fill="#77d192"/></g><g><path d="m194.46 224.905c-2.077-34.404 20.78-65.359 54.271-73.5l67.152-16.324 1.083-4.456c1.318-5.423-3.575-10.316-8.998-8.998l-71.608 17.408c-33.491 8.142-56.347 39.096-54.271 73.5l2.503 41.466 11.667.704z" fill="#5bc175"/></g><g><circle cx="285.67" cy="316.3" fill="#e58e82" r="25.378"/></g><g><circle cx="364.544" cy="262.703" fill="#fdcd08" r="19.876"/></g><g><circle cx="358.863" cy="181.768" fill="#77d192" r="17.487"/></g></g><g><path d="m507.9 189.657c-.771-4.07-4.692-6.739-8.767-5.972-4.069.771-6.743 4.696-5.972 8.767 13.486 71.131-8.983 144.119-60.105 195.241-42.565 42.566-98.46 63.847-154.373 63.841-55.899-.005-111.817-21.285-154.373-63.841-85.121-85.121-85.121-223.625 0-308.746 85.12-85.122 223.624-85.121 308.746-.001 23.113 23.114 40.355 50.319 51.25 80.859 1.392 3.901 5.686 5.937 9.584 4.545 3.901-1.393 5.937-5.683 4.545-9.584-11.647-32.651-30.075-61.729-54.771-86.427-44.068-44.067-102.659-68.336-164.98-68.336s-120.912 24.269-164.98 68.336c-44.067 44.068-68.336 102.659-68.336 164.98s24.269 120.912 68.336 164.98c8.559 8.559 17.672 16.361 27.248 23.394l-18.613 18.613-35.416-35.415c-2.93-2.928-7.678-2.928-10.607 0-2.929 2.93-2.929 7.678 0 10.607l35.416 35.415-15.28 15.28-50.642-50.643 29.931-29.931c2.929-2.93 2.929-7.678 0-10.607-2.93-2.928-7.678-2.928-10.607 0l-60.013 60.013c-3.302 3.303-5.121 7.694-5.121 12.364 0 4.671 1.819 9.062 5.121 12.365l47.128 47.128c3.303 3.302 7.694 5.121 12.364 5.121 4.671 0 9.062-1.819 12.365-5.121l76.559-76.56c37.058 23.643 80.127 36.313 125.146 36.313 62.321 0 120.912-24.269 164.98-68.336 54.634-54.634 78.648-132.631 64.237-208.642zm-441.529 306.618c-.633.634-1.373.729-1.758.729-.384 0-1.124-.095-1.757-.729l-47.128-47.128c-.97-.969-.97-2.546 0-3.515l19.473-19.473 50.643 50.643z"/><path d="m138.91 130.862c-3.44-2.306-8.1-1.386-10.405 2.056-47.811 71.354-38.363 167.291 22.463 228.118 35.212 35.211 81.464 52.816 127.716 52.816s92.504-17.605 127.716-52.816c70.422-70.423 70.422-185.009 0-255.432-70.424-70.422-185.008-70.422-255.432 0-2.929 2.93-2.929 7.678 0 10.607 2.929 2.927 7.677 2.929 10.607 0 64.572-64.574 169.645-64.574 234.217 0 64.574 64.573 64.574 169.644 0 234.217-64.572 64.574-169.645 64.574-234.217 0-55.776-55.775-64.443-143.741-20.609-209.161 2.305-3.441 1.386-8.1-2.056-10.405z"/><path d="m158.444 280.149c1.465 1.464 3.385 2.196 5.304 2.196s3.839-.732 5.304-2.196l18.458-18.459 38.096 2.3c1.61.098 3.209.146 4.803.146 36.104 0 67.81-24.642 76.438-60.131l17.407-71.608c1.242-5.11-.236-10.383-3.956-14.102-3.719-3.719-8.987-5.196-14.102-3.956l-71.607 17.408c-37.056 9.008-62.283 43.174-59.986 81.24l2.3 38.097-18.458 18.458c-2.929 2.929-2.929 7.677-.001 10.607zm68.067-31.132-24.829-1.499 21.181-21.181h26.541c4.143 0 7.5-3.357 7.5-7.5s-3.357-7.5-7.5-7.5h-11.542l6.642-6.642 61.747-61.747-13.981 57.513c-7.291 29.995-34.968 50.403-65.759 48.556zm-36.936-36.935c-1.859-30.812 18.562-58.469 48.557-65.76l57.511-13.98-48.942 48.942v-11.542c0-4.143-3.357-7.5-7.5-7.5s-7.5 3.357-7.5 7.5v26.542l-17.249 17.249c-.001.001-.002.002-.002.002l-23.376 23.376z"/><path d="m317.7 308.871c-.807-3.51-2.185-6.849-4.089-9.905l7.961-7.961c2.929-2.93 2.929-7.678 0-10.607-2.93-2.928-7.678-2.928-10.607 0l-7.961 7.961c-3.057-1.904-6.395-3.282-9.905-4.089v-11.271c0-4.143-3.357-7.5-7.5-7.5s-7.5 3.357-7.5 7.5v11.303c-3.492.819-6.811 2.206-9.85 4.113l-8.016-8.016c-2.93-2.928-7.678-2.928-10.607 0-2.929 2.93-2.929 7.678 0 10.607l8.056 8.056c-1.892 3.073-3.234 6.389-4.022 9.81h-11.433c-4.143 0-7.5 3.357-7.5 7.5s3.357 7.5 7.5 7.5h11.465c.8 3.404 2.151 6.701 4.046 9.755l-8.111 8.111c-2.929 2.93-2.929 7.678 0 10.607 1.465 1.464 3.385 2.196 5.304 2.196s3.839-.732 5.304-2.196l8.104-8.104c3.015 1.879 6.304 3.246 9.762 4.058v11.447c0 4.143 3.357 7.5 7.5 7.5s7.5-3.357 7.5-7.5v-11.415c3.477-.799 6.785-2.157 9.818-4.034l8.048 8.048c1.465 1.464 3.385 2.196 5.304 2.196s3.839-.732 5.304-2.196c2.929-2.93 2.929-7.678 0-10.607l-8.016-8.016c1.907-3.039 3.293-6.358 4.112-9.85h11.304c4.143 0 7.5-3.357 7.5-7.5s-3.357-7.5-7.5-7.5h-11.275zm-32.03 25.307c-15.835.026-23.858-19.343-12.64-30.52 6.654-6.935 18.628-6.936 25.282.001 11.218 11.178 3.192 30.547-12.642 30.519z"/><path d="m345.186 243.345c-5.17 5.171-8.018 12.046-8.018 19.358s2.848 14.187 8.019 19.357c5.337 5.336 12.347 8.004 19.357 8.004s14.021-2.668 19.357-8.004h.001c5.17-5.171 8.018-12.046 8.018-19.357 0-7.312-2.848-14.188-8.019-19.358-10.673-10.672-28.04-10.672-38.715 0zm28.11 28.108c-4.824 4.825-12.677 4.825-17.503 0-4.825-4.825-4.825-12.676-.001-17.501 2.413-2.413 5.582-3.619 8.752-3.619 3.169 0 6.339 1.207 8.751 3.619 4.825 4.826 4.825 12.676.001 17.501z"/><path d="m341.193 164.099c-9.741 9.742-9.742 25.595 0 35.339 4.872 4.871 11.271 7.307 17.669 7.307s12.797-2.436 17.669-7.307c0-.001 0-.001 0-.001 9.742-9.743 9.741-25.596 0-35.338-9.744-9.742-25.593-9.742-35.338 0zm24.731 24.731c-3.895 3.895-10.23 3.894-14.123.001-3.895-3.895-3.895-10.231 0-14.125 1.946-1.947 4.504-2.921 7.062-2.921s5.115.974 7.062 2.921c3.893 3.894 3.893 10.231-.001 14.124z"/></g></g></svg>