<svg id="Capa_1" enable-background="new 0 0 512 512" height="512" viewBox="0 0 512 512" width="512" xmlns="http://www.w3.org/2000/svg"><g><g><path d="m189.733 393.099h99.4v57.135h-99.4z" fill="#f3ffff"/><path d="m266.133 393.099h23v57.135h-23z" fill="#dff9f9"/><path d="m347.117 471.367-19.88-26.507c-3.129-4.172-8.039-6.627-13.253-6.627h-149.1c-5.214 0-10.125 2.455-13.253 6.627l-19.88 26.507v9.653h215.367v-9.653z" fill="#413e82"/><path d="m327.237 444.86c-3.129-4.172-8.039-6.627-13.253-6.627h-23c5.215 0 10.125 2.455 13.253 6.627l19.88 26.507v9.653h23v-9.653z" fill="#2f2c59"/><path d="m363.967 504.5h-249.067c-4.418 0-8-3.582-8-8v-17.133c0-4.418 3.582-8 8-8h249.067c4.418 0 8 3.582 8 8v17.133c0 4.418-3.582 8-8 8z" fill="#f3ffff"/><path d="m363.967 471.367h-23c4.418 0 8 3.582 8 8v17.133c0 4.418-3.582 8-8 8h23c4.418 0 8-3.582 8-8v-17.133c0-4.419-3.582-8-8-8z" fill="#dff9f9"/><circle cx="239.433" cy="206.3" fill="#dc3d36" r="198.8"/><path d="m239.433 7.5c-3.861 0-7.693.122-11.5.339 104.441 5.959 187.3 92.528 187.3 198.461s-82.859 192.502-187.3 198.461c3.807.217 7.639.339 11.5.339 109.794 0 198.8-89.006 198.8-198.8s-89.005-198.8-198.8-198.8z" fill="#b13d49"/><circle cx="239.433" cy="206.3" fill="#f3ffff" r="165.642"/><path d="m239.433 40.658c-3.867 0-7.699.143-11.5.404 86.115 5.907 154.142 77.623 154.142 165.238s-68.027 159.331-154.142 165.238c3.801.261 7.633.404 11.5.404 91.481 0 165.642-74.16 165.642-165.642s-74.16-165.642-165.642-165.642z" fill="#dff9f9"/><circle cx="239.433" cy="206.3" fill="#dc3d36" r="99.4"/><path d="m239.433 106.9c-3.89 0-7.726.231-11.5.666 49.479 5.701 87.9 47.727 87.9 98.734s-38.421 93.033-87.9 98.734c3.774.435 7.61.666 11.5.666 54.897 0 99.4-44.503 99.4-99.4s-44.503-99.4-99.4-99.4z" fill="#b13d49"/><g><path d="m318.069 234.129 53.898-44.41h11.211l-11.211-33.119h-132.534v42.176l44.181 35.353z" fill="#dff8fa"/><path d="m338.833 256c9.149 0 16.567-7.417 16.567-16.567v-8.283c0-4.575 3.709-8.283 8.283-8.283h8.283l11.211-33.147-11.211.014h-19.569c-8.845 0-17.491 2.618-24.85 7.524l-13.564 9.043c-15.048 10.032-34.652 10.032-49.7 0-7.524-5.016-16.187-7.524-24.85-7.524v57.223z" fill="#c3f2f7"/><path d="m371.967 156.6v66.267h62.267c2.209 0 4 1.791 4 4v12.132c0 9.004 7.001 16.691 15.999 16.991 9.408.314 17.134-7.219 17.134-16.557v-66.267c0-9.15-7.417-16.567-16.567-16.567h-82.833z" fill="#413e82"/><path d="m454.8 156.6h-23c9.15 0 16.567 7.417 16.567 16.567v66.267c0 4.638-1.912 8.826-4.984 11.833 2.774 2.737 6.466 4.519 10.616 4.715 9.514.448 17.367-7.133 17.367-16.548v-66.267c.001-9.15-7.417-16.567-16.566-16.567z" fill="#2f2c59"/></g></g><g><path d="m454.8 149.1h-17.11c-25.328-88.082-106.018-149.1-198.257-149.1-49.121 0-96.706 17.555-133.991 49.432-3.148 2.692-3.519 7.426-.827 10.575 2.693 3.148 7.426 3.518 10.574.827 34.571-29.557 78.694-45.834 124.244-45.834 84.079 0 157.806 54.668 182.597 134.1h-19.113c-11.326-32.287-32.491-61.142-60.058-81.701-30.059-22.417-65.823-34.266-103.426-34.266-95.484 0-173.167 77.682-173.167 173.167s77.682 173.167 173.167 173.167c43.234 0 84.633-16.021 116.572-45.111 30.035-27.356 49.368-64.07 54.925-103.989h18.292c-11.915 94.415-93.733 167.233-189.789 167.233-105.483 0-191.3-85.817-191.3-191.3 0-45.964 16.542-90.396 46.578-125.109 2.71-3.132 2.368-7.869-.765-10.579-3.131-2.709-7.869-2.367-10.579.765-32.393 37.437-50.234 85.354-50.234 134.923 0 93.926 63.097 173.384 149.128 198.234-.014.187-.029.375-.029.565v25.634h-17.35c-7.535 0-14.732 3.599-19.253 9.626l-17.629 23.508h-13.1c-8.547 0-15.5 6.953-15.5 15.5v17.133c0 8.547 6.953 15.5 15.5 15.5h20.654c4.142 0 7.5-3.358 7.5-7.5s-3.358-7.5-7.5-7.5h-20.654c-.276 0-.5-.224-.5-.5v-17.133c0-.276.224-.5.5-.5h232.214.009.006 16.838c.276 0 .5.224.5.5v17.133c0 .276-.224.5-.5.5h-198.413c-4.142 0-7.5 3.358-7.5 7.5s3.358 7.5 7.5 7.5h198.413c8.547 0 15.5-6.953 15.5-15.5v-17.133c0-8.547-6.953-15.5-15.5-15.5h-13.1l-17.63-23.507c-4.521-6.027-11.718-9.626-19.253-9.626h-17.35v-25.634c0-.181-.014-.359-.027-.537 30.643-8.817 59.023-24.711 82.905-46.808 29.403-27.207 49.974-61.908 59.75-100.029 3.907 3.367 8.889 5.488 14.385 5.747.393.019.784.028 1.174.028 6.215 0 12.068-2.338 16.59-6.652 4.738-4.521 7.456-10.868 7.456-17.415v-66.267c0-13.271-10.797-24.067-24.067-24.067zm-133.563 300.26 10.88 14.507h-185.367l10.88-14.506c1.703-2.271 4.415-3.627 7.253-3.627h149.1c2.839-.001 5.551 1.355 7.254 3.626zm-39.604-18.627h-84.4v-22.48c13.627 2.844 27.741 4.346 42.2 4.346 14.309 0 28.437-1.478 42.2-4.341zm-42.2-66.266c-87.213 0-158.167-70.954-158.167-158.167s70.954-158.167 158.167-158.167c66.008 0 124.047 40.165 147.515 100.967h-14.981-42.222c-19.531-30.761-53.732-49.7-90.312-49.7-58.945 0-106.9 47.955-106.9 106.9s47.955 106.9 106.9 106.9c36.58 0 70.781-18.939 90.311-49.7h9.089c13.271 0 24.066-10.796 24.066-24.067v-8.283c0-.432.352-.783.783-.783h8.284 23.813c-11.662 77.013-77.468 134.1-156.346 134.1zm124.25-149.1c-8.703 0-15.783 7.08-15.783 15.783v8.283c0 4.999-4.067 9.067-9.066 9.067h-91.9v-41.447c4.683.959 9.156 2.798 13.19 5.487 8.812 5.875 18.911 8.812 29.01 8.812 10.1 0 20.199-2.938 29.01-8.812l13.564-9.042c6.146-4.098 13.301-6.264 20.689-6.264h12.069v18.133zm.784-33.134h-12.069c-10.36 0-20.392 3.037-29.01 8.784l-13.564 9.042c-12.568 8.379-28.812 8.38-41.38-.001-6.519-4.346-13.846-7.139-21.51-8.243v-27.715h117.534v18.133zm-117.534-33.133v-9.067c0-4.142-3.358-7.5-7.5-7.5s-7.5 3.358-7.5 7.5v58.767h-25.633c-4.142 0-7.5 3.358-7.5 7.5s3.358 7.5 7.5 7.5h25.633v58.767c0 4.142 3.358 7.5 7.5 7.5s7.5-3.358 7.5-7.5v-9.067h64.41c-17.298 21.671-43.785 34.7-71.91 34.7-50.674 0-91.9-41.227-91.9-91.9s41.226-91.9 91.9-91.9c28.125 0 54.613 13.029 71.911 34.7zm216.934 90.333c0 2.503-.998 4.833-2.81 6.562-1.81 1.727-4.193 2.614-6.705 2.494-4.752-.224-8.618-4.496-8.618-9.524v-16.099-16.566c0-4.142-3.358-7.5-7.5-7.5s-7.5 3.358-7.5 7.5v9.067h-51.267v-51.267h75.333c5 0 9.067 4.067 9.067 9.066z"/><path d="m409.242 182.233h-4.142c-4.142 0-7.5 3.358-7.5 7.5s3.358 7.5 7.5 7.5h4.142c4.142 0 7.5-3.358 7.5-7.5s-3.358-7.5-7.5-7.5z"/></g></g></svg>