<svg id="Capa_1" enable-background="new 0 0 512 512" height="512" viewBox="0 0 512 512" width="512" xmlns="http://www.w3.org/2000/svg"><g><g><g><path d="m501.904 380.031c0 6.748-5.537 12.219-12.367 12.219h-467.074c-6.83 0-12.367-5.471-12.367-12.219v-326.562c0-6.748 5.537-12.219 12.367-12.219h467.075c6.83 0 12.367 5.471 12.367 12.219v326.562z" fill="#f9f8f9"/><path d="m38.12 373.75c-5.609 0-8.12-2.41-8.12-7.975v-321.025h-2.88c-6.694 0-12.12 5.361-12.12 11.975v320.05c0 6.614 5.426 11.975 12.12 11.975h457.76c6.694 0 12.12-5.361 12.12-11.975v-3.025z" fill="#e8e8e8"/><path d="m292.591 434.837-12.047-37.587h-49.088l-12.026 37.522 36.58 2.032z" fill="#7e8b96"/><path d="m324.96 472.75c5.545 0 10.04-2.721 10.04-8.544 0 0 1.891-3.003 1.681-4.456-2.045-14.154-13.68-25-27.728-25h-105.906c-3.703 0-7.239.754-10.476 2.123-10.301 4.359-15.571 16.954-15.571 29.333 0 0 2.495 5.544 8.04 5.544z" fill="#909ba6"/><path d="m200.04 459.75c-5.545 0-10.04-4.721-10.04-10.544 0-4.402.923-8.582 2.571-12.332-10.301 4.358-17.571 14.953-17.571 27.332 0 5.823 4.495 10.544 10.04 10.544h141.92c5.545 0 10.04-4.721 10.04-10.544 0-1.515-.11-3.003-.32-4.456z" fill="#7e8b96"/></g><g><path d="m75 263.75c-10.511.176-21.5-9.093-21.5-21.5s11.76-21.5 21.5-21.5c2.629 0 5.154-.547 7.502.286 8.73 3.096 14.998 11.437 14.998 21.214s-6.269 18.118-14.998 21.214c-2.348.833-4.873.286-7.502.286z" fill="#e8e8e8"/></g><g><path d="m195 243.75c-12.407 0-21.5-9.093-21.5-21.5s9.093-21.5 21.5-21.5c2.629 0 5.154-.547 7.502.286 8.73 3.096 14.998 11.437 14.998 21.214s-6.269 18.118-14.998 21.214c-2.348.833-4.873.286-7.502.286z" fill="#e8e8e8"/></g><g><path d="m135 213.75c-12.407 0-21.5-9.093-21.5-21.5s9.093-21.5 21.5-21.5c2.629 0 5.154-.547 7.502.286 8.73 3.096 14.998 11.437 14.998 21.214s-6.269 18.118-14.998 21.214c-2.348.833-4.873.286-7.502.286z" fill="#e8e8e8"/></g><g fill="#dcdbdd"><path d="m67.5 242.25c0-9.778 6.272-18.118 15.002-21.214-2.347-.833-4.872-1.286-7.502-1.286-12.407 0-22.5 10.093-22.5 22.5s10.093 22.5 22.5 22.5c2.629 0 5.154-.453 7.502-1.286-8.73-3.096-15.002-11.436-15.002-21.214z"/><path d="m187.5 222.25c0-9.778 6.28-18.116 15.009-21.212-2.347-.833-4.88-1.288-7.509-1.288-12.407 0-22.5 10.093-22.5 22.5s10.093 22.5 22.5 22.5c2.629 0 5.154-.453 7.502-1.286-8.73-3.096-15.002-11.436-15.002-21.214z"/><path d="m127.5 192.25c0-9.778 6.272-18.118 15.002-21.214-2.347-.833-4.872-1.286-7.502-1.286-12.407 0-22.5 10.093-22.5 22.5s10.093 22.5 22.5 22.5c2.629 0 5.154-.453 7.502-1.286-8.73-3.096-15.002-11.436-15.002-21.214z"/></g></g><g><path d="m504.5 330.925c-4.142 0-7.5 3.358-7.5 7.5v37.825c0 6.893-5.607 12.5-12.5 12.5h-457c-6.893 0-12.5-5.607-12.5-12.5v-319c0-6.893 5.607-12.5 12.5-12.5h90.5c4.142 0 7.5-3.358 7.5-7.5s-3.358-7.5-7.5-7.5h-90.5c-15.164 0-27.5 12.336-27.5 27.5v319c0 15.164 12.336 27.5 27.5 27.5h193.997l-7.532 23.5h-10.919c-19.601 0-35.546 16.579-35.546 36.956 0 9.95 7.868 18.044 17.54 18.044h65.96c4.142 0 7.5-3.358 7.5-7.5s-3.358-7.5-7.5-7.5h-65.96c-1.4 0-2.54-1.366-2.54-3.044 0-12.106 9.217-21.956 20.546-21.956h105.907c11.329 0 20.546 9.85 20.546 21.956 0 1.678-1.139 3.044-2.54 3.044h-40.959c-4.142 0-7.5 3.358-7.5 7.5s3.358 7.5 7.5 7.5h40.96c9.671 0 17.54-8.094 17.54-18.044 0-20.377-15.946-36.956-35.546-36.956h-10.919l-7.532-23.5h193.997c15.164 0 27.5-12.336 27.5-27.5v-37.825c0-4.142-3.358-7.5-7.5-7.5zm-222.217 96.325h-52.566l7.532-23.5h37.502z"/><path d="m484.5 29.75h-331.5c-4.142 0-7.5 3.358-7.5 7.5s3.358 7.5 7.5 7.5h331.5c6.893 0 12.5 5.607 12.5 12.5v246.175c0 4.142 3.358 7.5 7.5 7.5s7.5-3.358 7.5-7.5v-246.175c0-15.164-12.336-27.5-27.5-27.5z"/><path d="m364.5 346.75c0 4.142 3.358 7.5 7.5 7.5s7.5-3.358 7.5-7.5c0-9.833 1.997-17.94 5.413-25h54.175c3.416 7.06 5.413 15.167 5.413 25 0 4.142 3.358 7.5 7.5 7.5s7.5-3.358 7.5-7.5c0-31.859-17.727-49.979-35.68-65 17.953-15.021 35.68-33.141 35.68-65 0-.122-.007-.238-.007-.359.001-.047.007-.093.007-.141 0-.109-.012-.214-.016-.322-.305-31.344-17.867-49.288-35.664-64.178 17.953-15.021 35.68-33.141 35.68-65 0-4.142-3.358-7.5-7.5-7.5s-7.5 3.358-7.5 7.5c0 9.373-1.82 17.175-4.948 24h-55.104c-3.128-6.825-4.948-14.627-4.948-24 0-4.142-3.358-7.5-7.5-7.5s-7.5 3.358-7.5 7.5c0 31.859 17.727 49.979 35.68 65-17.796 14.89-35.358 32.835-35.664 64.178-.005.107-.016.213-.016.322 0 .047.006.093.007.141 0 .121-.007.238-.007.359 0 31.859 17.727 49.979 35.68 65-17.954 15.021-35.681 33.141-35.681 65zm15.369-123h15.109c4.142 0 7.5-3.358 7.5-7.5s-3.358-7.5-7.5-7.5h-15.002c.678-5.538 2.064-10.484 4.02-15h56.007c1.956 4.516 3.342 9.462 4.02 15h-14.045c-4.142 0-7.5 3.358-7.5 7.5s3.358 7.5 7.5 7.5h14.152c-.585 5.533-1.866 10.483-3.712 15h-56.837c-1.846-4.517-3.127-9.467-3.712-15zm14.538-98h35.187c-5.077 5.767-11.119 10.998-17.593 16.32-6.475-5.322-12.517-10.553-17.594-16.32zm17.593 35.68c6.847 5.628 13.211 11.154 18.46 17.32h-36.92c5.249-6.166 11.613-11.692 18.46-17.32zm-19.293 92.32h38.585c-5.403 6.572-12.079 12.39-19.293 18.32-7.213-5.93-13.888-11.748-19.292-18.32zm19.293 37.68c6.098 5.012 11.81 9.946 16.696 15.32h-33.393c4.887-5.374 10.599-10.308 16.697-15.32z"/><path d="m242.5 346.75c0 4.142 3.358 7.5 7.5 7.5s7.5-3.358 7.5-7.5c0-26.617 14.607-40.611 32.5-55.32 6.098 5.012 11.81 9.946 16.696 15.32h-17.696c-4.142 0-7.5 3.358-7.5 7.5s3.358 7.5 7.5 7.5h28.087c3.416 7.06 5.413 15.167 5.413 25 0 4.142 3.358 7.5 7.5 7.5s7.5-3.358 7.5-7.5c0-31.859-17.727-49.979-35.68-65 17.953-15.021 35.68-33.141 35.68-65s-17.727-49.979-35.68-65c17.953-15.021 35.68-33.141 35.68-65 0-4.142-3.358-7.5-7.5-7.5s-7.5 3.358-7.5 7.5c0 9.373-1.82 17.175-4.948 24h-28.552c-4.142 0-7.5 3.358-7.5 7.5s3.358 7.5 7.5 7.5h18.593c-5.077 5.767-11.119 10.998-17.593 16.32-17.893-14.709-32.5-28.703-32.5-55.32 0-4.142-3.358-7.5-7.5-7.5s-7.5 3.358-7.5 7.5c0 31.859 17.727 49.979 35.68 65-17.796 14.89-35.358 32.835-35.664 64.178-.005.107-.016.213-.016.322 0 .047.006.093.007.141 0 .121-.007.238-.007.359 0 31.859 17.727 49.979 35.68 65-17.953 15.021-35.68 33.141-35.68 65zm28.207-93h10.293c4.142 0 7.5-3.358 7.5-7.5s-3.358-7.5-7.5-7.5h-19.419c-1.847-4.517-3.127-9.467-3.712-15h42.131c4.142 0 7.5-3.358 7.5-7.5s-3.358-7.5-7.5-7.5h-42.023c.678-5.538 2.064-10.484 4.02-15h19.003c4.142 0 7.5-3.358 7.5-7.5s-3.358-7.5-7.5-7.5h-9.46c5.25-6.166 11.614-11.692 18.46-17.32 17.893 14.709 32.5 28.703 32.5 55.32s-14.607 40.611-32.5 55.32c-7.214-5.93-13.889-11.748-19.293-18.32z"/><path d="m52.5 87.25c0 4.142 3.358 7.5 7.5 7.5h73c4.142 0 7.5-3.358 7.5-7.5s-3.358-7.5-7.5-7.5h-73c-4.142 0-7.5 3.358-7.5 7.5z"/><path d="m209 109.75h-89c-4.142 0-7.5 3.358-7.5 7.5s3.358 7.5 7.5 7.5h89c4.142 0 7.5-3.358 7.5-7.5s-3.358-7.5-7.5-7.5z"/><path d="m60 124.75h30c4.142 0 7.5-3.358 7.5-7.5s-3.358-7.5-7.5-7.5h-30c-4.142 0-7.5 3.358-7.5 7.5s3.358 7.5 7.5 7.5z"/><path d="m209 154.75c4.142 0 7.5-3.358 7.5-7.5s-3.358-7.5-7.5-7.5h-25.734c-4.142 0-7.5 3.358-7.5 7.5s3.358 7.5 7.5 7.5z"/><path d="m60 154.75h93.266c4.142 0 7.5-3.358 7.5-7.5s-3.358-7.5-7.5-7.5h-93.266c-4.142 0-7.5 3.358-7.5 7.5s3.358 7.5 7.5 7.5z"/><path d="m209 279.75h-149c-4.142 0-7.5 3.358-7.5 7.5s3.358 7.5 7.5 7.5h149c4.142 0 7.5-3.358 7.5-7.5s-3.358-7.5-7.5-7.5z"/><path d="m216.5 317.25c0-4.142-3.358-7.5-7.5-7.5h-31c-4.142 0-7.5 3.358-7.5 7.5s3.358 7.5 7.5 7.5h31c4.142 0 7.5-3.358 7.5-7.5z"/><path d="m60 324.75h88c4.142 0 7.5-3.358 7.5-7.5s-3.358-7.5-7.5-7.5h-88c-4.142 0-7.5 3.358-7.5 7.5s3.358 7.5 7.5 7.5z"/><path d="m60 354.75h120c4.142 0 7.5-3.358 7.5-7.5s-3.358-7.5-7.5-7.5h-120c-4.142 0-7.5 3.358-7.5 7.5s3.358 7.5 7.5 7.5z"/><path d="m195 199.75c-6.746 0-12.804 2.988-16.931 7.706l-20.792-12.073c.143-1.025.223-2.07.223-3.133 0-12.407-10.093-22.5-22.5-22.5s-22.5 10.093-22.5 22.5c0 1.499.15 2.962.431 4.38l-26.843 26.054c-3.275-1.864-7.058-2.934-11.088-2.934-12.407 0-22.5 10.093-22.5 22.5s10.093 22.5 22.5 22.5 22.5-10.093 22.5-22.5c0-2.902-.558-5.674-1.563-8.223l24.981-24.247c3.858 3.105 8.755 4.969 14.081 4.969 5.921 0 11.311-2.302 15.332-6.054l22.185 12.881c-.007.224-.017.447-.017.672 0 12.407 10.093 22.5 22.5 22.5s22.5-10.093 22.5-22.5-10.092-22.498-22.499-22.498zm-120 50c-4.136 0-7.5-3.364-7.5-7.5s3.364-7.5 7.5-7.5 7.5 3.364 7.5 7.5-3.364 7.5-7.5 7.5zm60-50c-4.136 0-7.5-3.364-7.5-7.5s3.364-7.5 7.5-7.5 7.5 3.364 7.5 7.5-3.364 7.5-7.5 7.5zm60 30c-4.136 0-7.5-3.364-7.5-7.5s3.364-7.5 7.5-7.5 7.5 3.364 7.5 7.5-3.364 7.5-7.5 7.5z"/></g></g></svg>