<svg id="Capa_1" enable-background="new 0 0 512 512" height="512" viewBox="0 0 512 512" width="512" xmlns="http://www.w3.org/2000/svg"><g><g><g><path d="m256 9.5c-12.767 0-21.116 10.35-21.116 23.116v21.928c0 37.831-6.738 75.359-19.898 110.826l-3.5 10.432c-5.557 14.976-4.682 30.582 2.419 44.891l9.588 19.322c3.269 6.588 4.97 15.842 4.97 23.197 0 0-2.764 16.86-7.945 24.673l-6.632 9.492c-7.896 11.907-12.108 25.877-12.108 40.164v140.273c0 14.185 11.499 25.685 25.685 25.685h57.075c10.371 0 20.307-5.147 24.362-13.997 1.491-3.254 2.322-6.874 2.322-10.688v-17.523l-2-60 2-60v-4.296c0-14.57-4.38-28.804-12.571-40.853l-5.142-7.564c-2.492-3.667-4.446-7.64-5.825-11.798-1.72-5.188-5.546-10.664-5.409-16.193 0 0 3.931-9.364 5.405-13.813.702-2.119 1.553-4.191 2.551-6.2l9.865-19.88c7.1-14.309 7.976-30.915 2.419-45.891l-3.5-9.432c-6.619-17.839-11.614-36.199-14.943-54.857-.804-4.506-2.511-9.029-3.12-13.566-.668-4.971-.218-9.96-.65-14.961-.788-9.113-1.184-18.269-1.184-27.442v-23.929c0-10.141-6.53-18.756-15.614-21.872-2.354-.806-7.504.756-7.504.756z" fill="#c8effe"/><path d="m215.778 474.5v-13.208l-2-57.1 2-62.9v-4.75c0-14.287 4.211-28.257 12.108-40.164l5.632-8.492c2.3-3.468 4.124-7.204 5.441-11.106 1.65-4.888.504-15.568.504-15.568 0-4.914 1.241-9.783-.238-14.438-.735-2.312-1.647-4.572-2.731-6.758l-9.588-19.322c-7.1-14.309-7.976-30.915-2.419-45.891l3.501-9.434c6.619-17.838 11.613-36.198 14.943-54.855.843-4.721-.422-7.462.207-12.217.629-4.756 3.15-11.527 3.564-16.31.788-9.113 1.184-18.269 1.184-27.442v-23.929c0-10.14 6.534-18.756 15.618-21.872-2.354-.806-4.878-1.244-7.504-1.244-12.767 0-23.116 10.349-23.116 23.116v23.926c0 9.174-.396 18.331-1.184 27.445-.435 5.032 1.01 10.05.337 15.051-.607 4.507-3.31 9-4.108 13.476-3.33 18.658-8.324 37.018-14.943 54.857l-3.5 9.432c-5.557 14.976-4.682 31.583 2.419 45.892l9.588 19.322c1.085 2.186 1.997 4.446 2.732 6.758 1.479 4.656 4.238 11.525 4.238 16.439 0 0-2.855 8.68-4.504 13.567-1.317 3.902-3.141 7.637-5.441 11.106l-5.632 8.493c-7.896 11.907-12.108 25.877-12.108 40.164v4.75l2 63.58-2 56.42v17.523c0 14.185 11.499 25.685 25.685 25.685h59.075c10.371 0 19.307-6.148 23.362-14.997l-78.122-.003c-8.284-.002-15-6.718-15-15.002z" fill="#a9e5f7"/><path d="m228.925 109.513 14.003 1h41.146c-1.685-9.443-2.939-18.961-3.766-28.527h-33.608l-14.008 1c-.828 9.566-2.082 17.084-3.767 26.527z" fill="#e27f86"/><path d="m242.925 110.513c1.685-9.442 2.939-18.961 3.766-28.527h-15c-.413 4.772-.931 9.531-1.557 14.276-.52 3.876-1.174 8.397-2.209 14.251z" fill="#df646e"/><path d="m237.956 276.779h49.733c-1.72-5.188-2.55-10.663-2.413-16.192.117-4.71.947-9.359 2.421-13.808h-49.49c1.479 4.656 1.398 25.113-.251 30z" fill="#f9f8f9"/><path d="m224.207 246.78c4.947 16.178.266 27.88-.252 30h15c3.773-10.46 2.88-22.29.251-30h-14.999c0-.001 0-.001 0 0z" fill="#e8e8e8"/><path d="m201.778 460.292 14 1h95.444v-120h-95.444l-14 1z" fill="#7dc3ee"/><path d="m200.778 341.292h15v120h-15z" fill="#64acdc"/></g><g><path d="m417.814 9.5c-12.767 0-21.116 10.35-21.116 23.116v21.928c0 37.831-6.738 75.359-19.898 110.826l-3.5 10.432c-5.557 14.976-4.682 30.582 2.419 44.891l9.588 19.322c3.269 6.588 4.97 15.842 4.97 23.197 0 0-2.764 16.86-7.945 24.673l-6.632 9.492c-7.896 11.907-12.108 25.877-12.108 40.164v140.273c0 14.185 11.499 25.685 25.685 25.685h57.075c10.371 0 20.307-5.147 24.362-13.997 1.491-3.254 2.322-6.874 2.322-10.688v-17.523l-2-60 2-60v-4.296c0-14.57-4.38-28.804-12.571-40.853l-5.142-7.564c-2.492-3.667-4.446-7.64-5.825-11.798-1.72-5.188-5.546-10.664-5.409-16.193 0 0 3.931-9.364 5.405-13.813.702-2.119 1.553-4.191 2.551-6.2l9.865-19.88c7.1-14.309 7.976-30.915 2.419-45.891l-3.5-9.432c-6.619-17.839-11.614-36.199-14.943-54.857-.804-4.506-2.511-9.029-3.12-13.566-.668-4.971-.218-9.96-.65-14.961-.788-9.113-1.184-18.269-1.184-27.442v-23.929c0-10.141-6.53-18.756-15.614-21.872-2.354-.806-7.504.756-7.504.756z" fill="#c8effe"/><path d="m377.592 474.5v-13.208l-2-57.1 2-62.9v-4.75c0-14.287 4.211-28.257 12.108-40.164l5.632-8.492c2.3-3.468 4.124-7.204 5.441-11.106 1.65-4.888.504-15.568.504-15.568 0-4.914 1.241-9.783-.238-14.438-.735-2.312-1.647-4.572-2.731-6.758l-9.588-19.322c-7.1-14.309-7.976-30.915-2.419-45.891l3.501-9.434c6.619-17.838 11.613-36.198 14.943-54.855.843-4.721-.422-7.462.207-12.217.629-4.756 3.15-11.527 3.564-16.31.788-9.113 1.184-18.269 1.184-27.442v-23.929c0-10.14 6.534-18.756 15.618-21.872-2.353-.807-4.876-1.245-7.502-1.245-12.767 0-23.116 10.349-23.116 23.116v23.926c0 9.174-.396 18.331-1.184 27.445-.435 5.032 1.01 10.05.337 15.051-.607 4.507-3.31 9-4.108 13.476-3.33 18.658-8.324 37.018-14.943 54.857l-3.5 9.432c-5.557 14.976-4.682 31.583 2.419 45.892l9.588 19.322c1.085 2.186 1.997 4.446 2.732 6.758 1.479 4.656 4.238 11.525 4.238 16.439 0 0-2.855 8.68-4.504 13.567-1.317 3.902-3.141 7.637-5.441 11.106l-5.632 8.493c-7.896 11.907-12.108 25.877-12.108 40.164v4.75l2 63.58-2 56.42v17.523c0 14.185 11.499 25.685 25.685 25.685h59.075c10.371 0 19.307-6.148 23.362-14.997l-78.122-.003c-8.287-.001-15.002-6.717-15.002-15.001z" fill="#a9e5f7"/><path d="m390.739 109.513 14.004 1h41.146c-1.685-9.443-2.939-18.961-3.766-28.527h-33.609l-14.008 1c-.828 9.566-2.082 17.084-3.767 26.527z" fill="#e27f86"/><path d="m404.739 110.513c1.685-9.442 2.939-18.961 3.766-28.527h-15c-.413 4.772-.931 9.531-1.557 14.276-.52 3.876-1.174 8.397-2.209 14.251z" fill="#df646e"/><path d="m399.769 276.779h49.733c-1.72-5.188-2.55-10.663-2.413-16.192.117-4.71.947-9.359 2.421-13.808h-49.49c1.48 4.656 1.399 25.113-.251 30z" fill="#f9f8f9"/><path d="m386.021 246.78c4.947 16.178.266 27.88-.252 30h15c3.773-10.46 2.88-22.29.251-30h-14.999c0-.001 0-.001 0 0z" fill="#e8e8e8"/><path d="m363.592 460.292 14 1h95.444v-120h-95.444l-14 1z" fill="#7dc3ee"/><path d="m362.592 341.292h15v120h-15z" fill="#64acdc"/></g><g><path d="m94.186 9.5c-12.767 0-21.116 10.35-21.116 23.116v21.928c0 37.831-6.738 75.359-19.898 110.826l-3.5 10.432c-5.557 14.976-4.682 30.582 2.419 44.891l9.588 19.322c3.269 6.588 4.97 15.842 4.97 23.197 0 0-2.764 16.86-7.945 24.673l-6.632 9.492c-7.896 11.907-12.108 25.877-12.108 40.164v140.273c0 14.185 11.499 25.685 25.685 25.685h57.075c10.371 0 20.307-5.147 24.362-13.997 1.491-3.254 2.322-6.874 2.322-10.688v-17.523l-2-60 2-60v-4.296c0-14.57-4.38-28.804-12.571-40.853l-5.142-7.564c-2.492-3.667-4.446-7.64-5.825-11.798-1.72-5.188-5.546-10.664-5.409-16.193 0 0 3.931-9.364 5.405-13.813.702-2.119 1.553-4.191 2.551-6.2l9.865-19.88c7.1-14.309 7.976-30.915 2.419-45.891l-3.5-9.432c-6.619-17.839-11.614-36.199-14.943-54.857-.804-4.506-2.511-9.029-3.12-13.566-.668-4.971-.218-9.96-.65-14.961-.788-9.113-1.184-18.269-1.184-27.442v-23.929c0-10.141-6.53-18.756-15.614-21.872-2.354-.806-7.504.756-7.504.756z" fill="#c8effe"/><path d="m53.964 474.5v-13.208l-2-57.1 2-62.9v-4.75c0-14.287 4.211-28.257 12.108-40.164l5.632-8.492c2.3-3.468 4.124-7.204 5.441-11.106 1.65-4.888.504-15.568.504-15.568 0-4.914 1.241-9.783-.238-14.438-.735-2.312-1.647-4.572-2.731-6.758l-9.588-19.322c-7.1-14.309-7.976-30.915-2.419-45.891l3.501-9.434c6.619-17.838 11.613-36.198 14.943-54.855.843-4.721-.422-7.462.207-12.217.629-4.756 3.15-11.527 3.564-16.31.788-9.113 1.184-18.269 1.184-27.442v-23.929c0-10.14 6.534-18.756 15.618-21.872-2.354-.806-4.878-1.244-7.504-1.244-12.767 0-23.116 10.349-23.116 23.116v23.926c0 9.174-.396 18.331-1.184 27.445-.435 5.032 1.01 10.05.337 15.051-.607 4.507-3.31 9-4.108 13.476-3.33 18.658-8.324 37.018-14.943 54.857l-3.5 9.432c-5.557 14.976-4.682 31.583 2.419 45.892l9.588 19.322c1.085 2.186 1.997 4.446 2.732 6.758 1.479 4.656 4.238 11.525 4.238 16.439 0 0-2.855 8.68-4.504 13.567-1.317 3.902-3.141 7.637-5.441 11.106l-5.632 8.493c-7.896 11.907-12.108 25.877-12.108 40.164v4.75l2 63.58-2 56.42v17.523c0 14.185 11.499 25.685 25.685 25.685h59.075c10.371 0 19.307-6.148 23.362-14.997l-78.122-.005c-8.284 0-15-6.716-15-15z" fill="#a9e5f7"/><path d="m67.111 109.513 14.004 1h41.146c-1.685-9.443-2.939-18.961-3.766-28.527h-33.609l-14.008 1c-.828 9.566-2.082 17.084-3.767 26.527z" fill="#e27f86"/><path d="m81.111 110.513c1.685-9.442 2.939-18.961 3.766-28.527h-15c-.413 4.772-.931 9.531-1.557 14.276-.52 3.876-1.174 8.397-2.209 14.251z" fill="#df646e"/><path d="m76.142 276.779h49.733c-1.72-5.188-2.55-10.663-2.413-16.192.117-4.71.947-9.359 2.421-13.808h-49.49c1.479 4.656 1.398 25.113-.251 30z" fill="#f9f8f9"/><path d="m62.393 246.78c4.947 16.178.266 27.88-.252 30h15c3.773-10.46 2.88-22.29.251-30h-14.999c0-.001 0-.001 0 0z" fill="#e8e8e8"/><path d="m39.964 460.292 14 1h95.444v-120h-95.444l-14 1z" fill="#7dc3ee"/><path d="m38.964 341.292h15v120h-15z" fill="#64acdc"/></g></g><g><path d="m299.713 284.362c-4.75-6.987-7.149-15.144-6.939-23.588.145-5.819 1.588-11.651 4.176-16.866 12.012-21.09 22.76-47.333 12.597-71.715-14.727-36.97-23.069-77.516-22.93-117.648v-23.929c-.001-16.882-13.735-30.616-30.617-30.616s-30.616 13.734-30.616 30.616v23.928c.224 39.826-8.177 80.416-22.93 117.649-10.563 28.169 1.238 49.928 12.32 71.157 2.74 5.522 4.188 11.699 4.188 17.863.705 10.201-5.911 22.455-12.327 31.02-8.739 13.177-13.358 28.499-13.358 44.309v142.273c0 18.298 14.887 33.185 33.186 33.185h59.074c18.299 0 33.186-14.887 33.186-33.185v-141.82c0-16.139-4.796-31.723-13.868-45.069zm-61.206-194.876h34.987c.486 4.524 1.071 9.033 1.746 13.527h-38.478c.674-4.494 1.259-9.003 1.745-13.527zm1.877-58.87c0-8.611 7.006-15.616 15.616-15.616s15.616 7.005 15.616 15.616v23.928c0 6.67.217 13.317.62 19.941h-32.473c.403-6.624.62-13.272.62-19.941v-23.928zm-21.761 186.744c-6.156-12.404-6.924-26.965-2.106-39.948 7.306-17.29 14.425-44.695 17.967-59.399 2.233.003 42.084.001 43.279.001 3.53 16.482 10.295 41.211 17.72 59.398 9.192 24.418-3.659 42.479-12.914 61.868h-53.164c.337.37-10.697-21.718-10.782-21.92zm14.883 36.919h44.774c-.422 2.813-.828 8.964-.011 15h-44.854c.509-3.862.84-8.986.091-15zm-14.37 46.244c3.739-5.811 6.609-9.289 9.916-16.244h53.509c1.408 3.754 7.258 12.305 9.889 16.08 6.773 9.962 10.604 21.461 11.186 33.433h-29.11c-4.143 0-7.5 3.358-7.5 7.5s3.357 7.5 7.5 7.5h29.197v105h-95.445v-105h31.248c4.143 0 7.5-3.358 7.5-7.5s-3.357-7.5-7.5-7.5h-31.186c.497-11.874 4.2-23.323 10.796-33.269zm66.401 196.477h-59.074c-10.027 0-18.186-8.158-18.186-18.185v-10.023h95.445v10.023c.001 10.027-8.158 18.185-18.185 18.185z"/><path d="m137.898 284.361c-4.75-6.986-7.149-15.143-6.938-23.589.144-5.818 1.587-11.65 4.176-16.865 12.011-21.09 22.759-47.332 12.596-71.714-14.726-36.969-23.068-77.514-22.929-117.648v-23.929c0-16.882-13.735-30.616-30.617-30.616s-30.617 13.734-30.617 30.616v23.928c.224 39.828-8.177 80.417-22.929 117.649-10.563 28.168 1.238 49.927 12.319 71.156 2.74 5.522 4.188 11.7 4.188 17.863.705 10.201-5.911 22.455-12.327 31.02-8.738 13.176-13.357 28.498-13.357 44.309v52.537c0 4.142 3.357 7.5 7.5 7.5s7.5-3.358 7.5-7.5v-40.287h95.444v105h-95.443v-29.713c0-4.142-3.357-7.5-7.5-7.5s-7.5 3.358-7.5 7.5v54.736c0 18.298 14.887 33.185 33.185 33.185h59.075c18.298 0 33.185-14.887 33.185-33.185v-141.82c0-16.138-4.795-31.723-13.867-45.069zm-61.205-194.875h34.987c.486 4.524 1.071 9.033 1.746 13.527h-38.479c.675-4.494 1.26-9.003 1.746-13.527zm1.876-58.87c0-8.611 7.006-15.616 15.618-15.616 8.61 0 15.616 7.005 15.616 15.616v23.928c0 6.67.217 13.317.62 19.941h-32.474c.403-6.624.62-13.272.62-19.941zm-21.759 186.744c-6.156-12.404-6.924-26.965-2.106-39.948 7.306-17.29 14.425-44.695 17.967-59.399 2.233.003 14.492-.001 25.695.001h17.585c3.53 16.482 10.295 41.211 17.72 59.398 9.191 24.417-3.657 42.478-12.912 61.868h-53.166c.336.37-10.699-21.718-10.783-21.92zm14.882 36.919h44.774c-.422 2.813-.827 8.964-.011 15h-44.855c.51-3.862.841-8.986.092-15zm-14.371 46.244c3.739-5.811 6.609-9.289 9.916-16.244h53.509c1.408 3.754 7.258 12.304 9.889 16.08 6.773 9.963 10.604 21.462 11.186 33.433h-95.294c.496-11.875 4.2-23.324 10.794-33.269zm66.403 196.477h-59.076c-10.027 0-18.185-8.158-18.185-18.185v-10.023h95.444v10.023c.001 10.027-8.156 18.185-18.183 18.185z"/><path d="m466.668 291.926c-6.509-8.618-12.566-19.23-12.08-31.153.144-5.818 1.587-11.65 4.176-16.865 12.011-21.09 22.759-47.332 12.596-71.714-14.726-36.969-23.068-77.514-22.929-117.648v-23.93c0-16.882-13.735-30.616-30.618-30.616-16.882 0-30.616 13.734-30.616 30.616v23.928c0 31.094-4.644 61.925-13.803 91.636-1.221 3.958.999 8.157 4.958 9.376 3.958 1.222 8.156-1 9.376-4.958 3.309-10.734 6.042-21.611 8.221-32.587h43.712c3.642 19.12 10.34 40.61 17.635 59.398 9.191 24.417-3.657 42.478-12.912 61.868h-53.164c-8.022-16.32-20.492-36.563-14.63-56.165.973-4.026-1.503-8.079-5.529-9.051-4.024-.972-8.079 1.503-9.051 5.529-6.523 23.787 4.749 45.077 14.577 63.758 2.74 5.522 4.188 11.699 4.188 17.863.705 10.201-5.911 22.455-12.327 31.02-8.738 13.176-13.357 28.498-13.357 44.309v56.671c0 4.142 3.357 7.5 7.5 7.5s7.5-3.358 7.5-7.5v-44.421h95.444v105h-95.444v-25.345c0-4.142-3.357-7.5-7.5-7.5s-7.5 3.358-7.5 7.5v50.369c0 18.298 14.887 33.185 33.185 33.185h59.075c18.298 0 33.185-14.887 33.185-33.185v-141.82c0-16.136-4.795-31.721-13.868-45.068zm-64.471-261.31c0-8.611 7.006-15.616 15.617-15.616 8.61 0 15.616 7.005 15.616 15.616v23.928c0 6.67.217 13.317.62 19.941h-32.474c.406-6.631.62-13.28.62-19.941v-23.928zm-3.619 72.397c.676-4.495 1.247-9.006 1.734-13.527h34.996c.486 4.524 1.071 9.033 1.745 13.527zm41.516 151.266c-.422 2.813-.827 8.964-.011 15h-44.855c.51-3.863.84-8.986.092-15zm-59.145 46.244c3.739-5.811 6.609-9.289 9.916-16.244h53.509c1.407 3.754 7.257 12.305 9.889 16.08 6.773 9.963 10.604 21.462 11.186 33.433h-95.294c.496-11.875 4.199-23.324 10.794-33.269zm66.403 196.477h-59.075c-10.027 0-18.185-8.158-18.185-18.185v-10.023h95.444v10.023c0 10.027-8.157 18.185-18.184 18.185z"/><path d="m119.187 370.5c0-4.142-3.357-7.5-7.5-7.5h-35c-4.143 0-7.5 3.358-7.5 7.5s3.357 7.5 7.5 7.5h35c4.142 0 7.5-3.358 7.5-7.5z"/><path d="m94.187 438c4.143 0 7.5-3.358 7.5-7.5v-7.5h7.5c4.143 0 7.5-3.358 7.5-7.5s-3.357-7.5-7.5-7.5h-7.5v-7.5c0-4.142-3.357-7.5-7.5-7.5s-7.5 3.358-7.5 7.5v7.5h-7.5c-4.143 0-7.5 3.358-7.5 7.5s3.357 7.5 7.5 7.5h7.5v7.5c0 4.142 3.357 7.5 7.5 7.5z"/><path d="m231.187 370.5c0 4.142 3.357 7.5 7.5 7.5h35c4.143 0 7.5-3.358 7.5-7.5s-3.357-7.5-7.5-7.5h-35c-4.143 0-7.5 3.358-7.5 7.5z"/><path d="m271.187 408h-7.5v-7.5c0-4.142-3.357-7.5-7.5-7.5s-7.5 3.358-7.5 7.5v7.5h-7.5c-4.143 0-7.5 3.358-7.5 7.5s3.357 7.5 7.5 7.5h7.5v7.5c0 4.142 3.357 7.5 7.5 7.5s7.5-3.358 7.5-7.5v-7.5h7.5c4.143 0 7.5-3.358 7.5-7.5s-3.358-7.5-7.5-7.5z"/><path d="m443.187 370.5c0-4.142-3.357-7.5-7.5-7.5h-35c-4.143 0-7.5 3.358-7.5 7.5s3.357 7.5 7.5 7.5h35c4.142 0 7.5-3.358 7.5-7.5z"/><path d="m418.187 438c4.143 0 7.5-3.358 7.5-7.5v-7.5h7.5c4.143 0 7.5-3.358 7.5-7.5s-3.357-7.5-7.5-7.5h-7.5v-7.5c0-4.142-3.357-7.5-7.5-7.5s-7.5 3.358-7.5 7.5v7.5h-7.5c-4.143 0-7.5 3.358-7.5 7.5s3.357 7.5 7.5 7.5h7.5v7.5c0 4.142 3.357 7.5 7.5 7.5z"/></g></g></svg>