<svg id="Capa_1" enable-background="new 0 0 511.979 511.979" height="512" viewBox="0 0 511.979 511.979" width="512" xmlns="http://www.w3.org/2000/svg"><g><g><g><path d="m228.592 207.192h58.754v76.917h-58.754z" fill="#faa68e"/></g><g><path d="m228.592 207.192v76.917h15.34v-37.896h28.804c5.006 0 9.892-.515 14.61-1.49v-37.531z" fill="#e09380"/></g><g><path d="m189.197 160.407h-15.647c-11.664 0-21.12-9.456-21.12-21.12v-5.159c0-11.664 9.456-21.12 21.12-21.12h15.647z" fill="#faa68e"/></g><g><path d="m326.741 113.008h15.647c11.664 0 21.12 9.456 21.12 21.12v5.159c0 11.664-9.456 21.12-21.12 21.12h-15.647z" fill="#faa68e"/></g><g><path d="m268.361 231.095h-20.784c-35.48 0-64.242-28.762-64.242-64.242v-60.292c0-35.48 28.762-64.242 64.242-64.242h20.784c35.48 0 64.242 28.762 64.242 64.242v60.292c0 35.48-28.762 64.242-64.242 64.242z" fill="#ffcdbe"/></g><g><path d="m199.947 166.853v-60.292c0-35.48 28.762-64.242 64.242-64.242h-16.612c-35.48 0-64.242 28.762-64.242 64.242v60.292c0 35.48 28.762 64.242 64.242 64.242h16.612c-35.48 0-64.242-28.762-64.242-64.242z" fill="#ebae9d"/></g><g><path d="m376.313 298.66-88.967-39.967-21.257 18.391c-4.662 4.033-11.578 4.033-16.24 0l-21.257-18.391-88.967 39.967c-14.717 6.611-24.184 21.243-24.184 37.377v159.212c0 5.097 4.132 9.229 9.229 9.229h133.299 133.299c5.097 0 9.229-4.132 9.229-9.229v-159.212c0-16.133-9.467-30.766-24.184-37.377z" fill="#e58e82"/></g><g><path d="m132.241 495.249v-146.582c0-16.134 9.467-30.766 24.184-37.377l87.517-39.316-15.35-13.281-88.967 39.967c-14.717 6.612-24.184 21.244-24.184 37.377v159.212c0 5.097 4.132 9.229 9.229 9.229h16.8c-5.097 0-9.229-4.132-9.229-9.229z" fill="#e06c57"/></g><g><path d="m183.335 113.008-7.311-12.735c-7.513-13.088-8.069-29.045-1.484-42.624 5.602-11.552 15.811-20.21 28.123-23.848l7.111-2.102c1.851-.547 3.602-1.388 5.185-2.491l14.144-9.853c21.354-14.876 49.446-15.854 71.782-2.497l36.135 21.607c7.508 4.49 15.875 7.355 24.559 8.411l12.885 1.567c3.464.421 4.67 4.833 1.903 6.958l-19.8 15.209c-2.015 1.548-1.05 4.765 1.484 4.948l16.897 1.224c3.404.247 4.869 4.439 2.359 6.752l-20.156 18.574c-7.733 7.126-17.865 11.082-28.381 11.082h-71.913c-7.739 0-15.135-3.199-20.434-8.84l-8.518-9.067c-2.134-2.272-5.819-2.001-7.599.559l-3.618 5.205c-5.282 7.599-13.973 12.102-23.227 12.034z" fill="#e9a761"/></g><g><path d="m194.48 100.273c-7.513-13.088-8.069-29.045-1.484-42.624 5.602-11.552 15.811-20.21 28.123-23.848l7.111-2.102c1.851-.547 3.602-1.388 5.185-2.491l14.144-9.853c8.695-6.057 18.507-9.809 28.593-11.228-16.235-2.283-33.083 1.499-47.049 11.228l-14.144 9.853c-1.584 1.103-3.334 1.944-5.185 2.491l-7.111 2.102c-12.312 3.639-22.522 12.296-28.123 23.848-6.585 13.579-6.029 29.536 1.484 42.624l7.31 12.735 10.127.074c2.66.02 5.269-.35 7.768-1.051z" fill="#e69642"/></g><g><path d="m425.369 494.478v-146.34c0-5.523-4.477-10-10-10h-111.525c-11.815 0-23.235 4.254-32.171 11.983l-10.433 9.024c-1.878 1.625-4.664 1.625-6.542 0l-10.433-9.024c-8.936-7.729-20.356-11.983-32.171-11.983h-111.525c-5.523 0-10 4.477-10 10v146.34c0 5.523 4.477 10 10 10h314.8c5.523 0 10-4.477 10-10z" fill="#77d192"/></g><g><path d="m110.729 494.478v-146.34c0-5.523 4.477-10 10-10h-20.16c-5.523 0-10 4.477-10 10v146.34c0 5.523 4.477 10 10 10h20.16c-5.523 0-10-4.477-10-10z" fill="#5bc175"/></g><g><path d="m375.729 410.978h-66.32c-2.761 0-5-2.239-5-5v-25.28c0-2.761 2.239-5 5-5h66.32c2.761 0 5 2.239 5 5v25.28c0 2.762-2.238 5-5 5z" fill="#f6f1f1"/></g><g><path d="m446.706 427.281v36.635c0 5.592-4.533 10.125-10.125 10.125h-21.027c-10.736 0-19.44-8.704-19.44-19.44v-18.005c0-10.736 8.704-19.44 19.44-19.44h21.027c5.591-.001 10.125 4.533 10.125 10.125z" fill="#ffcdbe"/></g><g><path d="m65.273 463.916v-36.635c0-5.592 4.533-10.125 10.125-10.125h21.027c10.736 0 19.44 8.704 19.44 19.44v18.005c0 10.736-8.704 19.44-19.44 19.44h-21.027c-5.592 0-10.125-4.533-10.125-10.125z" fill="#ffcdbe"/></g></g><g><path d="m234.291 157.738c0-4.143-3.358-7.5-7.5-7.5h-3.577c-4.142 0-7.5 3.357-7.5 7.5s3.358 7.5 7.5 7.5h3.577c4.142 0 7.5-3.357 7.5-7.5z"/><path d="m289.148 165.238h3.577c4.142 0 7.5-3.357 7.5-7.5s-3.358-7.5-7.5-7.5h-3.577c-4.142 0-7.5 3.357-7.5 7.5s3.358 7.5 7.5 7.5z"/><path d="m278.502 199.095c3.531-2.166 4.638-6.784 2.472-10.314-2.165-3.53-6.782-4.638-10.314-2.473-7.978 4.894-18.053 5.178-26.294.74l-1.767-.951c-3.647-1.963-8.196-.598-10.159 3.05-1.963 3.647-.598 8.195 3.049 10.159l1.767.95c6.109 3.289 12.86 4.924 19.604 4.924 7.524 0 15.042-2.037 21.642-6.085z"/><path d="m118.742 318.319c1.322.944 2.846 1.399 4.355 1.399 2.339 0 4.644-1.092 6.107-3.139 3.456-4.834 8.122-8.665 13.494-11.078l84.603-38.007 17.64 15.261c7.426 6.425 18.626 6.424 26.054 0l17.64-15.261 84.603 38.007c5.372 2.413 10.038 6.244 13.495 11.078 2.41 3.37 7.094 4.148 10.463 1.738 3.369-2.409 4.148-7.094 1.739-10.463-4.999-6.991-11.759-12.537-19.55-16.037l-84.54-37.978v-20.333c26.174-10.438 44.799-35.849 45.23-65.601h2.312c15.781 0 28.62-12.839 28.62-28.62v-5.158c0-9.734-4.889-18.344-12.336-23.517 1.228-.935 2.416-1.931 3.562-2.987l20.157-18.573c3.344-3.081 4.536-7.846 3.037-12.139s-5.399-7.28-9.936-7.609l-4.485-.325 9.931-7.628c3.688-2.832 5.278-7.56 4.051-12.045s-5.002-7.746-9.617-8.307l-12.884-1.567c-7.693-.936-14.966-3.427-21.616-7.402l-36.135-21.608c-24.82-14.843-56.19-13.751-79.918 2.779l-14.145 9.854c-.924.644-1.942 1.133-3.023 1.453l-7.111 2.102c-14.303 4.227-26.239 14.348-32.746 27.768-7.674 15.824-7.028 34.378 1.728 49.63l.958 1.669c-14.342 1.538-25.548 13.71-25.548 28.453v5.158c0 15.781 12.839 28.62 28.62 28.62h2.312c.432 29.752 19.056 55.163 45.23 65.601v20.333l-84.54 37.978c-7.791 3.501-14.551 9.046-19.549 16.037-2.41 3.371-1.632 8.055 1.738 10.464zm237.266-179.033c0 7.51-6.11 13.62-13.62 13.62h-2.285v-32.398h2.285c7.51 0 13.62 6.11 13.62 13.62zm-174.719-78.365c4.67-9.631 13.235-16.894 23.5-19.928l7.114-2.103c2.628-.777 5.1-1.966 7.344-3.529l14.144-9.854c18.897-13.165 43.88-14.032 63.646-2.215l36.135 21.608c8.461 5.059 17.714 8.228 27.502 9.419l4.133.503-12.81 9.839c-3.408 2.618-4.813 6.971-3.578 11.088 1.235 4.116 4.802 6.978 9.089 7.288l8.593.623-14.034 12.932c-6.366 5.867-14.641 9.098-23.298 9.098h-71.913c-5.646 0-11.102-2.36-14.968-6.476l-8.517-9.065c-2.362-2.515-5.61-3.912-9.026-3.912-.306 0-.613.012-.921.034-3.749.275-7.13 2.203-9.276 5.29l-3.618 5.206c-3.843 5.527-10.138 8.815-16.864 8.815-.05 0-.101 0-.15-.001l-5.821-.042-5.167-9.002c-6.283-10.944-6.746-24.26-1.239-35.616zm-21.359 78.365v-5.158c0-7.51 6.11-13.62 13.62-13.62h2.285v32.398h-2.285c-7.51 0-13.62-6.11-13.62-13.62zm30.905 27.568v-46.29l2.572.019c11.74.037 22.742-5.616 29.44-15.253l1.788-2.572 6.322 6.729c6.69 7.12 16.13 11.204 25.9 11.204h68.245v46.163c0 31.288-25.454 56.742-56.742 56.742h-20.785c-31.286 0-56.74-25.454-56.74-56.742zm56.742 71.742h20.785c3.909 0 7.743-.326 11.484-.931v17.6l-18.664 16.147c-1.832 1.583-4.595 1.584-6.426 0l-18.664-16.147v-17.6c3.742.605 7.575.931 11.485.931z"/><path d="m375.729 368.198h-66.32c-6.893 0-12.5 5.607-12.5 12.5v25.28c0 6.893 5.607 12.5 12.5 12.5h66.32c6.893 0 12.5-5.607 12.5-12.5v-25.28c0-6.892-5.607-12.5-12.5-12.5zm-2.5 35.281h-61.32v-20.28h61.32z"/><path d="m436.58 409.655h-3.711v-61.517c0-9.649-7.851-17.5-17.5-17.5h-111.525c-13.614 0-26.782 4.904-37.078 13.81l-8.797 7.61-8.797-7.61c-10.296-8.905-23.463-13.81-37.078-13.81h-111.525c-9.65 0-17.5 7.851-17.5 17.5v61.517h-7.671c-9.719 0-17.625 7.906-17.625 17.625v36.635c0 9.719 7.907 17.626 17.625 17.626h7.671v12.938c0 9.649 7.85 17.5 17.5 17.5h314.8c9.649 0 17.5-7.851 17.5-17.5v-12.938h3.711c9.719 0 17.625-7.907 17.625-17.626v-36.635c.001-9.718-7.906-17.625-17.625-17.625zm-363.807 54.26v-36.635c0-1.447 1.178-2.625 2.625-2.625h21.027c6.584 0 11.94 5.356 11.94 11.94v18.005c0 6.584-5.356 11.94-11.94 11.94h-21.027c-1.447.001-2.625-1.177-2.625-2.625zm25.296 30.564v-12.992c14.092-.853 25.296-12.582 25.296-26.885v-18.005c0-14.303-11.205-26.033-25.296-26.885v-61.572c0-1.379 1.122-2.5 2.5-2.5h111.525c10.011 0 19.694 3.606 27.265 10.155l10.432 9.023c.219.19.449.362.679.534v131.627h-149.9c-1.379 0-2.501-1.121-2.501-2.5zm319.8 0c0 1.379-1.122 2.5-2.5 2.5h-149.9v-131.627c.229-.172.458-.344.678-.533l10.433-9.024c7.571-6.549 17.253-10.155 27.265-10.155h111.525c1.378 0 2.5 1.121 2.5 2.5v61.517h-2.316c-14.854 0-26.94 12.085-26.94 26.94v18.005c0 14.855 12.085 26.94 26.94 26.94h2.316v12.937zm21.337-30.564c0 1.448-1.178 2.626-2.625 2.626h-21.027c-6.583 0-11.94-5.356-11.94-11.94v-18.005c0-6.584 5.356-11.94 11.94-11.94h21.027c1.448 0 2.625 1.178 2.625 2.625z"/></g></g></svg>