<svg id="Capa_1" enable-background="new 0 0 512 512" height="512" viewBox="0 0 512 512" width="512" xmlns="http://www.w3.org/2000/svg"><g><g><g><path d="m126.961 311.514 18.068 20.389c14.991 16.917 39.944 20.672 59.25 8.917l41.278-25.134c3.126-1.903 3.126-6.442 0-8.345l-41.278-25.134c-19.306-11.755-44.259-8-59.25 8.917z" fill="#77d192"/></g><g><path d="m166.389 331.904-18.068-20.39 18.068-20.389c6.606-7.455 15.148-12.35 24.287-14.492-16.35-3.842-34.003 1.352-45.647 14.492l-18.068 20.389 18.068 20.39c11.644 13.14 29.297 18.334 45.647 14.492-9.139-2.142-17.681-7.038-24.287-14.492z" fill="#5bc175"/></g><g><path d="m290.56 228.435v226.952h55.535v-246.342c0-25.894-20.991-46.885-46.885-46.885h-89.196v48.34h62.61c9.907 0 17.936 8.03 17.936 17.935z" fill="#d3ced5"/></g><g><path d="m299.211 162.161h-16.669c1.118 18.344 6.603 35.527 15.423 50.523-2.549-1.391-5.471-2.183-8.58-2.183h-16.76c9.905 0 17.935 8.03 17.935 17.935v226.953h16.76v-226.954c0-.831-.076-1.642-.185-2.442 10.466 13.123 23.758 23.898 38.961 31.37v-48.318c-.001-25.893-20.992-46.884-46.885-46.884z" fill="#c3bec6"/></g><g><path d="m72.333 410.06h218.227v-32.64h-218.227c-4.418 0-8 3.582-8 8v16.64c0 4.418 3.581 8 8 8z" fill="#b3dafe"/></g><g><path d="m86.293 402.06v-16.64c0-4.418 3.582-8 8-8h-21.96c-4.418 0-8 3.582-8 8v16.64c0 4.418 3.582 8 8 8h21.96c-4.419 0-8-3.582-8-8z" fill="#8ac9fe"/></g><g><path d="m341.095 504.5h-309.025c-2.761 0-5-2.239-5-5v-23.458c0-16.91 13.708-30.618 30.618-30.618h288.407v54.076c0 2.761-2.238 5-5 5z" fill="#365f7e"/></g><g><path d="m44.83 499.5v-23.458c0-16.91 13.708-30.618 30.618-30.618h-17.76c-16.91 0-30.618 13.708-30.618 30.618v23.458c0 2.761 2.239 5 5 5h17.76c-2.761 0-5-2.239-5-5z" fill="#2c4d66"/></g><g><path d="m140.242 241.245-63.867-63.867c-3.821-3.821-3.821-10.016 0-13.836l111.788-111.788c3.821-3.821 10.015-3.821 13.836 0l63.867 63.867c3.821 3.821 3.821 10.015 0 13.836l-111.787 111.788c-3.821 3.821-10.016 3.821-13.837 0z" fill="#d3ced5"/></g><g><path d="m101.72 253.026-37.125-37.126c-2.958-2.958-2.958-7.753 0-10.71l19.797-19.797 47.835 47.835-19.797 19.797c-2.958 2.958-7.753 2.958-10.71.001z" fill="#b3dafe"/></g><g><path d="m221.804 53.327h49.409v35.57h-49.409z" fill="#b5adb7" transform="matrix(.707 .707 -.707 .707 122.484 -153.48)"/></g><g><path d="m307.446 59.014-48.84-48.841c-3.565-3.565-9.345-3.565-12.911 0l-11.031 11.031c-3.565 3.565-3.565 9.345 0 12.911l48.841 48.841c3.565 3.565 9.345 3.565 12.911 0l11.031-11.031c3.564-3.565 3.564-9.345-.001-12.911z" fill="#d3ced5"/></g><g><path d="m89.243 176.409 111.788-111.788c3.821-3.821 10.015-3.821 13.836 0l-12.868-12.868c-3.821-3.821-10.016-3.821-13.836 0l-111.788 111.789c-3.821 3.821-3.821 10.015 0 13.836l12.868 12.868c-3.821-3.821-3.821-10.016 0-13.837z" fill="#c3bec6"/></g><g><path d="m76.452 217.048 19.797-19.797-11.858-11.858-19.796 19.797c-2.958 2.958-2.958 7.753 0 10.71l11.858 11.858c-2.958-2.957-2.958-7.752-.001-10.71z" fill="#8ac9fe"/></g><g><path d="m217.269 51.152h35.57v17.009h-35.57z" fill="#a59da7" transform="matrix(.707 -.707 .707 .707 26.662 183.681)"/></g><g><path d="m246.855 33.395 11.031-11.031c3.565-3.565 9.345-3.565 12.911 0l-12.191-12.191c-3.565-3.565-9.345-3.565-12.911 0l-11.031 11.031c-3.565 3.565-3.565 9.345 0 12.911l12.191 12.191c-3.565-3.565-3.565-9.346 0-12.911z" fill="#c3bec6"/></g><g><circle cx="210.015" cy="185.394" fill="#365f7e" r="34.074"/></g><g><circle cx="396.125" cy="155.164" fill="#b3dafe" r="88.804"/></g><g><path d="m323.16 155.164c0-46.375 35.55-84.441 80.884-88.449-2.61-.231-5.25-.355-7.92-.355-49.045 0-88.804 39.759-88.804 88.804s39.759 88.805 88.804 88.805c2.67 0 5.31-.125 7.92-.356-45.333-4.008-80.884-42.074-80.884-88.449z" fill="#8ac9fe"/></g><g><circle cx="396.196" cy="155.092" fill="#e58e82" r="25.378"/></g></g><g><path d="m139.416 286.151-15.829 17.863h-15.958c-4.142 0-7.5 3.357-7.5 7.5s3.358 7.5 7.5 7.5h15.957l15.83 17.863c10.613 11.976 25.497 18.271 40.581 18.271 9.669 0 19.422-2.587 28.183-7.922l41.278-25.134c3.722-2.267 5.944-6.221 5.944-10.578 0-4.358-2.222-8.312-5.944-10.579l-41.278-25.134c-22.429-13.655-51.348-9.304-68.764 10.35zm60.963 48.263c-16.222 9.879-37.14 6.731-49.737-7.485l-7.014-7.914h82.041zm0-45.8 25.293 15.4h-82.044l7.014-7.915c12.597-14.216 33.514-17.366 49.737-7.485z"/><path d="m96.416 258.329c2.847 2.847 6.632 4.415 10.658 4.415 4.027 0 7.812-1.568 10.659-4.415l14.494-14.493 2.713 2.713c3.369 3.369 7.795 5.054 12.221 5.054s8.852-1.685 12.222-5.054l10.498-10.498c2.929-2.93 2.929-7.678 0-10.607-2.929-2.928-7.678-2.928-10.606 0l-10.498 10.498c-.892.891-2.34.891-3.23 0l-23.978-23.978-28.699-28.7h-.001l-11.189-11.189c-.891-.891-.891-2.341 0-3.23l111.787-111.788c.553-.553 1.183-.669 1.615-.669.431 0 1.062.116 1.615.67l63.868 63.867c.552.553.668 1.183.668 1.614s-.116 1.062-.669 1.614l-9.85 9.85c-2.929 2.93-2.929 7.678 0 10.607 2.929 2.928 7.678 2.928 10.606 0l9.849-9.85c3.265-3.265 5.063-7.604 5.063-12.222s-1.798-8.957-5.062-12.222l-9.161-9.161 14.545-14.544 1.648 1.648c3.141 3.141 7.317 4.87 11.759 4.87s8.618-1.729 11.758-4.871l11.03-11.03c3.141-3.141 4.871-7.316 4.871-11.759 0-4.441-1.729-8.617-4.871-11.759l-48.84-48.84c-3.14-3.141-7.316-4.87-11.758-4.87s-8.618 1.729-11.759 4.871l-11.03 11.03c-3.141 3.141-4.872 7.316-4.872 11.759 0 4.441 1.73 8.617 4.871 11.759l1.648 1.648-14.545 14.545-9.161-9.161c-3.265-3.266-7.605-5.063-12.222-5.063s-8.958 1.798-12.222 5.062l-111.787 111.788c-6.738 6.738-6.738 17.704 0 24.443l2.712 2.712-14.492 14.493c-2.847 2.847-4.416 6.632-4.416 10.659 0 4.026 1.568 7.812 4.415 10.658zm143.552-231.821 11.031-11.03c.395-.395.844-.478 1.152-.478s.757.082 1.152.478l48.84 48.841c.395.395.477.844.477 1.151s-.083.757-.477 1.152l-11.031 11.031c-.394.395-.844.477-1.151.477-.308 0-.758-.083-1.152-.478l-48.84-48.841c-.395-.395-.478-.844-.478-1.151s.082-.757.477-1.152zm1.647 25.165 24.332 24.332-14.545 14.545-24.331-24.331zm-171.717 158.821 14.493-14.494 25.822 25.821 11.407 11.408-14.494 14.493c-.024.022-.079.024-.103 0 0 0 0 0 0-.001l-37.125-37.125c-.025-.024-.025-.077 0-.102z"/><path d="m454.104 78.262c-3.306-2.496-8.01-1.838-10.505 1.466-2.496 3.306-1.84 8.009 1.466 10.505 20.568 15.53 32.364 39.196 32.364 64.932 0 44.831-36.473 81.304-81.305 81.304-44.831 0-81.304-36.473-81.304-81.304s36.473-81.305 81.304-81.305c7.684 0 15.286 1.069 22.595 3.179 3.98 1.145 8.137-1.147 9.286-5.127s-1.147-8.137-5.126-9.285c-8.661-2.499-17.663-3.767-26.754-3.767-52.934 0-96.025 42.93-96.298 95.802h-27.202c-4.142 0-7.5 3.357-7.5 7.5s3.358 7.5 7.5 7.5h28.286c3.876 25.562 17.836 47.858 37.684 62.689v205.573h-40.535v-209.489c0-14.024-11.41-25.435-25.435-25.435h-24.96c2.512-5.35 3.924-11.315 3.924-17.606 0-22.924-18.65-41.573-41.574-41.573s-41.574 18.649-41.574 41.573 18.65 41.574 41.574 41.574c9.717 0 18.659-3.36 25.746-8.968h36.864c5.754 0 10.435 4.681 10.435 10.435v141.485h-210.727c-8.547 0-15.5 6.953-15.5 15.5v16.64c0 8.547 6.953 15.5 15.5 15.5h210.727v20.363h-225.371c-21.019 0-38.118 17.101-38.118 38.119v23.458c0 6.893 5.607 12.5 12.5 12.5h309.025c6.893 0 12.5-5.607 12.5-12.5v-54.077c0-.87-.156-1.702-.428-2.479h.428v-201.393c12.833 6.344 27.271 9.917 42.529 9.917 53.103 0 96.305-43.202 96.305-96.304-.001-30.482-13.97-58.513-38.326-76.902zm-270.662 107.132c0-14.652 11.921-26.573 26.574-26.573s26.574 11.921 26.574 26.573c0 14.653-11.921 26.574-26.574 26.574s-26.574-11.921-26.574-26.574zm-111.109 217.166c-.276 0-.5-.225-.5-.5v-16.64c0-.275.224-.5.5-.5h210.727v17.64zm266.262 94.44h-304.024v-20.958c0-12.748 10.371-23.119 23.118-23.119h280.907v44.077z"/><path d="m421.491 119.19-7.961 7.96c-3.057-1.905-6.395-3.283-9.906-4.09v-11.27c0-4.143-3.358-7.5-7.5-7.5s-7.5 3.357-7.5 7.5v11.303c-3.492.819-6.811 2.206-9.85 4.113l-8.017-8.016c-2.93-2.928-7.677-2.929-10.607.001-2.929 2.929-2.928 7.678 0 10.606l8.048 8.048c-1.876 3.033-3.235 6.342-4.034 9.819h-11.415c-4.142 0-7.5 3.357-7.5 7.5s3.358 7.5 7.5 7.5h11.447c.811 3.458 2.179 6.747 4.057 9.762l-8.104 8.103c-2.929 2.929-2.929 7.678 0 10.606 1.465 1.465 3.384 2.197 5.304 2.197 1.919 0 3.839-.732 5.303-2.196l8.111-8.111c3.055 1.895 6.352 3.246 9.756 4.046v11.465c0 4.143 3.358 7.5 7.5 7.5s7.5-3.357 7.5-7.5v-11.434c3.422-.788 6.738-2.13 9.811-4.022l8.056 8.055c1.465 1.464 3.384 2.196 5.303 2.196s3.839-.732 5.304-2.197c2.929-2.929 2.928-7.678 0-10.606l-8.022-8.022c1.924-3.079 3.293-6.407 4.101-9.843h11.322c4.142 0 7.5-3.357 7.5-7.5s-3.358-7.5-7.5-7.5h-11.291c-.796-3.455-2.156-6.802-4.078-9.899l7.968-7.967c2.929-2.929 2.929-7.678 0-10.606-2.928-2.928-7.677-2.929-10.606-.001zm-37.936 48.544c-3.376-3.377-5.236-7.867-5.236-12.643s1.86-9.265 5.236-12.642c3.377-3.376 7.866-5.236 12.642-5.236s9.265 1.86 12.642 5.237c6.97 6.97 6.97 18.312 0 25.282-6.972 6.973-18.313 6.972-25.284.002z"/></g></g></svg>