<svg id="Capa_1" enable-background="new 0 0 512 512" height="512" viewBox="0 0 512 512" width="512" xmlns="http://www.w3.org/2000/svg"><g><g><path d="m420.5 503.5h-329c-8.284 0-15-6.716-15-15v-465c0-8.284 6.716-15 15-15l4-1h326c8.284 0 15 6.716 15 15v462l-1 4c0 8.284-6.716 15-15 15z" fill="#f9f8f9"/><path d="m100.5 484.5c-2.761 0-5-2.239-5-5v-472h-5c-8.284 0-15 6.716-15 15v467c0 8.284 6.716 15 15 15h331c8.284 0 15-6.716 15-15v-5z" fill="#e8e8e8"/><g><g><path d="m201.425 77.438h-21.788c-1.146 0-2.075-.929-2.075-2.075v-21.788c0-1.146-.929-2.075-2.075-2.075h-19.05l-6.925 1c-1.146 0-2.075.929-2.075 2.075v20.788c0 1.146-1.929 2.075-3.075 2.075h-13.862l-6.925 1c-1.146 0-2.075.929-2.075 2.075v24.975c0 1.146.929 2.075 2.075 2.075h21.788c1.146 0 2.075.929 2.075 2.075v21.788c0 1.146.929 2.075 2.075 2.075h24.975c1.146 0 2.075-.929 2.075-2.075l1-6.925v-13.863c0-1.146.929-3.075 2.075-3.075h20.788c1.146 0 2.075-.929 2.075-2.075l1-6.925v-19.05c-.001-1.146-.93-2.075-2.076-2.075z" fill="#e27f86"/><g fill="#df646e"><path d="m148.437 77.438c4.418 0 8-3.582 8-8v-17.938h-7.925c-1.146 0-2.075.929-2.075 2.075v21.787c0 1.146-.929 2.075-2.075 2.075h4.075z"/><path d="m185.562 98.562c-4.418 0-8 3.582-8 8v4.075c0-1.146.929-2.075 2.075-2.075h21.787c1.146 0 2.075-.929 2.075-2.075v-7.925z"/><path d="m158.513 124.5c-1.146 0-2.075-.929-2.075-2.075v-15.862c0-4.418-3.582-8-8-8h-15.862c-1.146 0-2.075-.929-2.075-2.075v-19.05h-7.925c-1.146 0-2.075.929-2.075 2.075v26.975c0 1.146.929 2.075 2.075 2.075h21.787c1.146 0 2.075.929 2.075 2.075v21.787c0 1.146.929 2.075 2.075 2.075h26.975c1.146 0 2.075-.929 2.075-2.075v-7.925z"/></g></g></g></g><g><path d="m75.5 273.628c4.142 0 7.5-3.357 7.5-7.5v-243.628c0-4.136 3.364-7.5 7.5-7.5h195.94c4.143 0 7.5-3.357 7.5-7.5s-3.357-7.5-7.5-7.5h-195.94c-12.407 0-22.5 10.094-22.5 22.5v243.628c0 4.143 3.358 7.5 7.5 7.5z"/><path d="m436.5 402.821c-4.143 0-7.5 3.357-7.5 7.5v79.179c0 4.136-3.364 7.5-7.5 7.5h-331c-4.136 0-7.5-3.364-7.5-7.5v-188.372c0-4.143-3.358-7.5-7.5-7.5s-7.5 3.357-7.5 7.5v188.372c0 12.406 10.093 22.5 22.5 22.5h331c12.406 0 22.5-10.094 22.5-22.5v-79.179c0-4.142-3.357-7.5-7.5-7.5z"/><path d="m421.5 0h-100.06c-4.143 0-7.5 3.357-7.5 7.5s3.357 7.5 7.5 7.5h100.06c4.136 0 7.5 3.364 7.5 7.5v352.821c0 4.143 3.357 7.5 7.5 7.5s7.5-3.357 7.5-7.5v-352.821c0-12.406-10.094-22.5-22.5-22.5z"/><path d="m175.487 44h-26.975c-5.28 0-9.575 4.296-9.575 9.575v16.362h-16.362c-5.28 0-9.575 4.296-9.575 9.575v26.975c0 5.279 4.295 9.575 9.575 9.575h16.362v16.362c0 5.279 4.295 9.575 9.575 9.575h26.975c5.28 0 9.575-4.296 9.575-9.575v-16.362h16.362c5.28 0 9.575-4.296 9.575-9.575v-26.974c0-5.279-4.295-9.575-9.575-9.575h-16.362v-16.363c0-5.279-4.295-9.575-9.575-9.575zm20.513 40.938v16.125h-16.362c-5.28 0-9.575 4.296-9.575 9.575v16.362h-16.125v-16.362c0-5.279-4.295-9.575-9.575-9.575h-16.363v-16.125h16.362c5.28 0 9.575-4.296 9.575-9.575v-16.363h16.125v16.362c0 5.279 4.295 9.575 9.575 9.575h16.363z"/><path d="m306.404 85h85.096c4.143 0 7.5-3.357 7.5-7.5s-3.357-7.5-7.5-7.5h-85.096c-4.143 0-7.5 3.357-7.5 7.5s3.358 7.5 7.5 7.5z"/><path d="m233 85h43.404c4.143 0 7.5-3.357 7.5-7.5s-3.357-7.5-7.5-7.5h-43.404c-4.142 0-7.5 3.357-7.5 7.5s3.358 7.5 7.5 7.5z"/><path d="m391.5 101h-158.5c-4.142 0-7.5 3.357-7.5 7.5s3.358 7.5 7.5 7.5h158.5c4.143 0 7.5-3.357 7.5-7.5s-3.357-7.5-7.5-7.5z"/><path d="m391.5 158h-160.096c-4.142 0-7.5 3.357-7.5 7.5s3.358 7.5 7.5 7.5h160.096c4.143 0 7.5-3.357 7.5-7.5s-3.357-7.5-7.5-7.5z"/><path d="m120.5 173h75.904c4.142 0 7.5-3.357 7.5-7.5s-3.358-7.5-7.5-7.5h-75.904c-4.142 0-7.5 3.357-7.5 7.5s3.358 7.5 7.5 7.5z"/><path d="m391.5 333h-271c-4.142 0-7.5 3.357-7.5 7.5s3.358 7.5 7.5 7.5h271c4.143 0 7.5-3.357 7.5-7.5s-3.357-7.5-7.5-7.5z"/><path d="m320 370.5c0-4.143-3.357-7.5-7.5-7.5h-113c-4.142 0-7.5 3.357-7.5 7.5s3.358 7.5 7.5 7.5h113c4.143 0 7.5-3.357 7.5-7.5z"/><path d="m120.5 408h77c4.142 0 7.5-3.357 7.5-7.5s-3.358-7.5-7.5-7.5h-77c-4.142 0-7.5 3.357-7.5 7.5s3.358 7.5 7.5 7.5z"/><path d="m265 430.5c0-4.143-3.357-7.5-7.5-7.5h-52.5c-4.142 0-7.5 3.357-7.5 7.5s3.358 7.5 7.5 7.5h52.5c4.143 0 7.5-3.357 7.5-7.5z"/><path d="m120.5 438h54.5c4.142 0 7.5-3.357 7.5-7.5s-3.358-7.5-7.5-7.5h-54.5c-4.142 0-7.5 3.357-7.5 7.5s3.358 7.5 7.5 7.5z"/><path d="m120.5 468h127c4.142 0 7.5-3.357 7.5-7.5s-3.358-7.5-7.5-7.5h-127c-4.142 0-7.5 3.357-7.5 7.5s3.358 7.5 7.5 7.5z"/><path d="m391.5 393h-68.5c-4.143 0-7.5 3.357-7.5 7.5s3.357 7.5 7.5 7.5h68.5c4.143 0 7.5-3.357 7.5-7.5s-3.357-7.5-7.5-7.5z"/><path d="m391.5 423h-38.5c-4.143 0-7.5 3.357-7.5 7.5s3.357 7.5 7.5 7.5h38.5c4.143 0 7.5-3.357 7.5-7.5s-3.357-7.5-7.5-7.5z"/><path d="m391.5 453h-58.5c-4.143 0-7.5 3.357-7.5 7.5s3.357 7.5 7.5 7.5h58.5c4.143 0 7.5-3.357 7.5-7.5s-3.357-7.5-7.5-7.5z"/><path d="m175.984 214.351c-1.433-3.454-4.776-5.684-8.52-5.684-.003 0-.006 0-.009 0-3.748.004-7.091 2.241-8.518 5.7-.045.1-28.497 74.17-28.604 74.443-1.486 3.866.444 8.205 4.311 9.69 3.868 1.485 8.206-.443 9.691-4.312l5.259-13.688h35.528l5.203 13.666c1.14 2.993 3.988 4.834 7.011 4.834.887 0 1.789-.158 2.667-.493 3.871-1.474 5.814-5.806 4.341-9.677-.044-.1-28.254-74.227-28.36-74.479zm-20.627 51.151 12.082-31.447 11.972 31.447z"/><path d="m374.667 298.333c4.143 0 7.5-3.357 7.5-7.5v-75.333c0-4.143-3.357-7.5-7.5-7.5h-15.334c-4.143 0-7.5 3.357-7.5 7.5s3.357 7.5 7.5 7.5h7.834v67.833c0 4.143 3.357 7.5 7.5 7.5z"/><path d="m340.894 238.936c.153-.954.438-2.607.549-4.529 0-14.561-11.723-26.406-26.132-26.406-12.47 0-23.255 8.965-25.646 21.317-.787 4.066 1.871 8.001 5.938 8.788 4.067.785 8.002-1.871 8.788-5.938 1.028-5.312 5.62-9.167 10.919-9.167 6.003 0 10.911 4.895 11.125 10.993-.326 4.131-2.865 9.17-6.769 15.054-11.545 16.738-18.434 25.892-22.136 30.81-4.506 5.987-6.371 8.466-5.078 12.65.754 2.436 2.601 4.311 5.068 5.145 4.047 1.223 27.01.541 39.603.511 4.142-.053 7.456-3.453 7.403-7.595-.052-4.109-3.399-7.404-7.497-7.404-.032 0-.065 0-.098.001-7.999.102-16.519.165-23.27.169 4.097-5.529 10.04-13.72 18.352-25.77 4.589-6.652 7.576-12.919 8.881-18.629z"/><path d="m274.973 269.903v-33.473c0-15.677-12.337-28.431-27.5-28.431-15.164 0-27.5 12.754-27.5 28.431v33.473c0 15.676 12.336 28.43 27.5 28.43 15.163 0 27.5-12.754 27.5-28.43zm-40 0v-33.473c0-7.405 5.607-13.431 12.5-13.431s12.5 6.025 12.5 13.431v33.473c0 7.405-5.607 13.43-12.5 13.43s-12.5-6.024-12.5-13.43z"/></g></g></svg>