<svg id="Capa_1" enable-background="new 0 0 512 512" height="512" viewBox="0 0 512 512" width="512" xmlns="http://www.w3.org/2000/svg"><g><g><path d="m499.647 141.244-35.745-35.745c-2.783-2.783-7.14-3.222-10.421-1.048-12.868 8.526-30.376 7.12-41.714-4.218-11.338-11.337-12.744-28.846-4.218-41.714 2.174-3.281 1.735-7.637-1.048-10.42l-35.745-35.745c-6.471-6.471-16.963-6.471-23.434 0l-206.079 206.078 70.181 84.053 82.144 68.271 206.078-206.078c6.472-6.471 6.472-16.963.001-23.434z" fill="#f6df59"/><path d="m461.565 150.031-6.066-6.066c-1.928-1.928-4.692-2.704-7.367-2.178-11.574 2.275-23.579 1.416-34.697-2.429l-31.762-7.487-9.024-33.287c-3.85-11.123-4.712-23.137-2.436-34.717.526-2.675-.25-5.439-2.178-7.366l-6.066-6.066c-1.618-1.618-4.241-1.618-5.859 0l-9.33 9.33-18.097 35.275-39.181 22.002-54.555 54.555-7.016 29.422-50.261 27.855-12.991 12.991 36.918 61.065 68.538 44.391 13.008-13.008 28.636-38.986 28.636-18.286 54.535-54.535 12.626-25.46 44.645-31.811 9.346-9.346c1.616-1.616 1.616-4.24-.002-5.858z" fill="#dc3d36"/><g><g><g><path d="m499.647 141.244-35.745-35.745c-2.783-2.783-7.14-3.222-10.421-1.048-2.923 1.937-6.086 3.355-9.36 4.267l32.526 32.526c6.471 6.471 6.471 16.963 0 23.435l-195.639 195.638 12.561 10.439 206.078-206.078c6.471-6.471 6.471-16.963 0-23.434z" fill="#edbf50"/></g><g><path d="m347.756 12.354 35.745 35.745c2.783 2.783 3.222 7.14 1.048 10.42-8.526 12.868-7.12 30.377 4.218 41.714 9.445 9.445 23.17 11.991 34.93 7.651-4.352-1.607-8.434-4.155-11.93-7.651-11.338-11.337-12.744-28.846-4.218-41.714 2.174-3.281 1.735-7.637-1.048-10.42l-35.745-35.745c-6.401-6.402-16.731-6.46-23.217-.197.071.068.147.127.217.197z" fill="#edbf50"/></g></g></g><path d="m461.565 150.031-6.066-6.066c-1.928-1.928-4.692-2.704-7.367-2.178-5.609 1.102-11.32 1.463-16.983 1.112.48.306.937.654 1.349 1.066l6.066 6.066c1.618 1.618 1.618 4.241 0 5.859l-182.389 182.391 13.959 9.041 13.008-13.008 28.636-38.986 28.636-18.286 54.535-54.535 12.626-25.46 44.645-31.811 9.346-9.346c1.617-1.617 1.617-4.241-.001-5.859z" fill="#b13d49"/><path d="m270.134 394.191-65.91-89.344-86.415-62.981-105.455 105.456c-6.471 6.471-6.471 16.963 0 23.434l35.745 35.745c2.783 2.783 7.14 3.222 10.421 1.048 12.868-8.526 30.376-7.12 41.714 4.218s12.744 28.846 4.218 41.714c-2.174 3.281-1.735 7.638 1.048 10.421l35.745 35.745c6.471 6.471 16.963 6.471 23.435 0z" fill="#dc3d36"/><path d="m270.134 394.191-9.764-13.236-118.898 118.898c6.487 6.253 16.809 6.192 23.206-.206z" fill="#b13d49"/><path d="m129.324 335.806 12.121-12.121c3.124-3.124 8.189-3.124 11.314 0l35.555 35.556c3.124 3.124 3.124 8.19 0 11.314l-12.121 12.121c-3.124 3.124-8.189 3.124-11.314 0l-35.555-35.555c-3.124-3.125-3.124-8.19 0-11.315z" fill="#9eea4a"/><path d="m188.314 359.241-35.555-35.556c-3.124-3.124-8.189-3.124-11.314 0l-5.813 5.813 29.743 29.742c3.124 3.124 3.124 8.189 0 11.314l-6.308 6.308 5.813 5.813c3.124 3.124 8.189 3.124 11.314 0l12.121-12.121c3.124-3.124 3.124-8.189-.001-11.313z" fill="#7fdc3f"/><path d="m452.22 165.236-68.886 7.655c-3.983.443-6.07-4.596-2.94-7.099l33.042-26.434c-9.234-3.193-17.857-8.444-25.103-15.691-7.241-7.241-12.49-15.856-15.684-25.083l-26.428 33.035c-2.503 3.129-7.542 1.042-7.099-2.94l7.658-68.914-3.983 3.983-53.294 53.294 6.268 56.406c.283 2.548-1.87 4.7-4.417 4.417l-56.406-6.268-57.278 57.278 68.914-7.658c3.983-.443 6.07 4.596 2.941 7.099l-53.851 43.081 12.648 35.89 10.537 6.825 21.758 2.228 43.081-53.851c2.503-3.129 7.542-1.042 7.099 2.941l-7.655 68.885 57.272-57.272-6.265-56.383c-.283-2.548 1.87-4.7 4.417-4.417l56.383 6.265z" fill="#f6df59"/><circle cx="314.953" cy="197.048" fill="#dc3d36" r="24.85"/><path d="m332.524 179.476c-7.869-7.869-19.703-9.356-29.072-4.463 2.185 1.141 4.236 2.628 6.072 4.463 9.704 9.705 9.704 25.439 0 35.143-1.835 1.835-3.887 3.322-6.072 4.463 9.369 4.893 21.202 3.406 29.072-4.463 9.704-9.704 9.704-25.439 0-35.143z" fill="#b13d49"/><path d="m189.118 198.602h33.141v215.42h-33.141z" fill="#f3ffff" transform="matrix(.707 -.707 .707 .707 -156.35 235.16)"/><path d="m259.53 368.592h33.142v16.263h-33.142z" fill="#dff9f9" transform="matrix(.707 -.707 .707 .707 -185.516 305.573)"/><g><g fill="#edbf50"><path d="m340.413 277.043-2.301-20.7-52.096 52.096-2.875 25.875z"/><path d="m426.344 168.111-52.096 52.097 20.7 2.3 57.272-57.272z"/></g></g></g><g><path d="m512 152.961c0-6.43-2.504-12.475-7.05-17.021l-35.744-35.743c-5.286-5.285-13.64-6.125-19.867-1.997-10.108 6.694-23.679 5.32-32.269-3.269-8.591-8.592-9.965-22.163-3.27-32.27 4.128-6.229 3.287-14.584-1.996-19.865l-35.744-35.746c-4.546-4.546-10.591-7.05-17.021-7.05s-12.475 2.504-17.021 7.05l-278.311 278.31c-2.929 2.93-2.929 7.678 0 10.607 2.929 2.927 7.677 2.929 10.607 0l43.494-43.494 16.617 16.617c1.465 1.464 3.385 2.196 5.304 2.196s3.839-.732 5.304-2.196c2.929-2.93 2.929-7.678 0-10.607l-16.617-16.617 12.827-12.827 141.717 141.717-12.827 12.827-103.887-103.887c-2.93-2.928-7.678-2.928-10.607 0-2.929 2.93-2.929 7.678 0 10.607l103.888 103.887-100.153 100.154c-1.713 1.713-3.99 2.656-6.413 2.656s-4.701-.943-6.414-2.657l-35.745-35.746c-.26-.259-.301-.667-.099-.973 10.62-16.029 8.447-37.546-5.167-51.161-13.614-13.614-35.131-15.787-51.16-5.166-.307.202-.714.161-.975-.1l-35.744-35.744c-1.714-1.713-2.657-3.991-2.657-6.414s.943-4.7 2.657-6.413l35.514-35.516c2.929-2.929 2.929-7.677 0-10.607-2.93-2.928-7.678-2.929-10.607.001l-35.513 35.515c-4.547 4.546-7.051 10.59-7.051 17.02s2.504 12.475 7.05 17.021l35.744 35.743c5.284 5.284 13.639 6.124 19.867 1.997 10.107-6.695 23.678-5.321 32.269 3.268 8.591 8.592 9.965 22.163 3.27 32.27-4.128 6.229-3.287 14.584 1.996 19.865l35.744 35.746c4.547 4.546 10.592 7.05 17.021 7.05 6.43 0 12.475-2.504 17.02-7.05l334.968-334.969c4.547-4.544 7.051-10.589 7.051-17.019zm-147.725-55.916-16.365 20.457 6.033-54.293 5.096-5.096 3.69 3.69c.15.151.162.419.123.618-2.298 11.702-1.727 23.545 1.423 34.624zm-29.547 52.283c.931.386 1.904.571 2.868.571 2.228 0 4.402-.995 5.858-2.814l27.381-34.227c3.265 5.834 7.346 11.265 12.194 16.113 4.853 4.853 10.289 8.937 16.13 12.203l-34.23 27.384c-2.606 2.085-3.522 5.643-2.243 8.727 1.17 2.825 3.921 4.63 6.925 4.63.275 0 .554-.015.832-.046l61.353-6.817-39.603 39.604-47.343-5.261c4.821-11.72 2.483-25.716-7.022-35.222l-.001-.001c-9.503-9.501-23.494-11.841-35.211-7.026l-5.261-47.349 39.61-39.609-6.821 61.384c-.37 3.317 1.5 6.479 4.584 7.756zm114.853-.183c.196-.04.465-.028.614.123l3.692 3.691-5.113 5.113-54.264 6.029 20.466-16.372c11.075 3.147 22.909 3.715 34.605 1.416zm-146.896 35.634c3.382-3.383 7.824-5.073 12.267-5.073s8.887 1.69 12.269 5.072c6.765 6.766 6.765 17.773.001 24.537-6.767 6.765-17.773 6.765-24.537 0-6.765-6.763-6.765-17.771 0-24.536zm43.459 75.926-4.059-36.525 36.525 4.059zm-62.372-127.325 4.061 36.549-36.548-4.061zm-46.07 46.07 47.349 5.261c-4.815 11.717-2.476 25.709 7.026 35.212 6.308 6.307 14.59 9.459 22.875 9.459 4.202 0 8.403-.815 12.348-2.438l5.261 47.344-39.604 39.604 6.818-61.355c.369-3.317-1.5-6.479-4.584-7.757-3.082-1.277-6.641-.363-8.727 2.243l-47.12 58.901-33.255-33.255 58.901-47.12c2.606-2.085 3.521-5.643 2.243-8.727-1.277-3.084-4.439-4.954-7.757-4.584l-61.384 6.821zm12.314 137.147 31.992-39.99-6.031 54.265-5.843 5.844zm-68.903-80.558 54.293-6.034-39.99 31.992-20.131-20.131zm313.23-76.665-200.775 200.775-12.827-12.827 186.126-186.128c2.2-2.198 3.412-5.123 3.412-8.233s-1.211-6.034-3.41-8.233l-6.066-6.066c-3.669-3.668-8.944-5.253-14.116-4.233-10.266 2.018-20.663 1.276-30.232-1.931-.335-.147-.678-.265-1.028-.361-8.082-2.877-15.543-7.523-21.791-13.77-6.243-6.243-10.886-13.699-13.763-21.774-.096-.351-.215-.695-.363-1.03-3.213-9.575-3.956-19.979-1.938-30.248 1.016-5.17-.566-10.446-4.233-14.115l-6.066-6.066c-2.199-2.199-5.123-3.41-8.233-3.41s-6.035 1.212-8.232 3.41l-186.13 186.125-12.827-12.827 200.775-200.776c1.713-1.713 3.99-2.656 6.413-2.656s4.701.943 6.414 2.657l35.745 35.746c.26.259.301.667.099.973-10.62 16.029-8.447 37.546 5.167 51.161 13.613 13.613 35.129 15.785 51.16 5.166.306-.203.712-.162.975.1l35.744 35.744c1.714 1.713 2.657 3.991 2.657 6.414s-.943 4.7-2.657 6.413z"/><path d="m158.062 318.382c-6.044-6.043-15.875-6.043-21.921 0l-12.121 12.121c-6.043 6.044-6.043 15.877 0 21.921l35.556 35.556c3.022 3.022 6.991 4.532 10.961 4.532 3.969 0 7.938-1.511 10.96-4.532l12.121-12.121c6.043-6.044 6.043-15.877 0-21.921zm24.949 46.869-12.121 12.121c-.193.196-.513.194-.706 0l-35.556-35.556c-.195-.194-.195-.512 0-.706l12.121-12.121c.097-.098.225-.146.353-.146.129 0 .257.049.354.146l35.556 35.556c.194.194.194.512-.001.706z"/><path d="m140.689 394.746-23.435-23.435c-2.93-2.928-7.678-2.928-10.607 0-2.929 2.93-2.929 7.678 0 10.607l23.435 23.435c1.465 1.464 3.385 2.196 5.304 2.196s3.839-.732 5.304-2.196c2.927-2.929 2.927-7.677-.001-10.607z"/><path d="m159.374 469.799c1.465 1.464 3.385 2.196 5.304 2.196s3.839-.732 5.304-2.196c4.546-4.547 7.05-10.592 7.05-17.021 0-6.43-2.504-12.475-7.05-17.02-4.546-4.547-10.591-7.051-17.02-7.051-6.43 0-12.475 2.504-17.021 7.05-2.929 2.93-2.929 7.678 0 10.607 2.93 2.928 7.678 2.928 10.607 0 1.713-1.714 3.991-2.657 6.414-2.657s4.7.943 6.414 2.657c1.713 1.713 2.656 3.99 2.656 6.413s-.943 4.701-2.657 6.414c-2.93 2.93-2.93 7.678-.001 10.608z"/><path d="m65.636 376.06c1.465 1.464 3.385 2.196 5.304 2.196s3.839-.732 5.304-2.196c4.546-4.547 7.05-10.592 7.05-17.021 0-6.43-2.504-12.475-7.05-17.02-4.546-4.547-10.591-7.051-17.021-7.051s-12.475 2.504-17.021 7.05c-2.929 2.93-2.929 7.678 0 10.607 2.93 2.928 7.678 2.928 10.607 0 1.713-1.714 3.991-2.657 6.414-2.657s4.7.943 6.414 2.657c1.713 1.713 2.656 3.99 2.656 6.413s-.943 4.701-2.657 6.414c-2.929 2.931-2.929 7.679 0 10.608z"/><path d="m204.224 409.015c1.919 0 3.839-.732 5.304-2.196l2.93-2.93c2.929-2.93 2.929-7.678 0-10.607-2.93-2.928-7.678-2.928-10.607 0l-2.93 2.93c-2.929 2.93-2.929 7.678 0 10.607 1.464 1.463 3.384 2.196 5.303 2.196z"/><path d="m108.111 299.543-2.93 2.93c-2.929 2.93-2.929 7.678 0 10.607 1.465 1.464 3.385 2.196 5.304 2.196s3.839-.732 5.304-2.196l2.93-2.93c2.929-2.93 2.929-7.678 0-10.607-2.93-2.928-7.678-2.928-10.608 0z"/></g></g></svg>