<svg id="Capa_1" enable-background="new 0 0 511.984 511.984" height="512" viewBox="0 0 511.984 511.984" width="512" xmlns="http://www.w3.org/2000/svg"><g><g><g><path d="m377.458 388.525-121.466-17.85-121.466 17.85-8.167 73.817c-1.617 17.791 11.161 33.661 28.888 35.877 66.903 8.363 134.587 8.363 201.491 0 17.727-2.216 30.505-18.086 28.888-35.877z" fill="#413e82"/><path d="m377.458 388.525-23.478-3.45 8.646 79.644c1.617 17.791-11.161 33.661-28.888 35.877-1.972.247-3.948.461-5.921.693 9.653-.857 19.296-1.866 28.921-3.07 17.727-2.216 30.505-18.086 28.888-35.877z" fill="#2f2c59"/><path d="m140.025 326.477v12.348l-5.499 49.7h242.932l-5.499-49.7v-12.348z" fill="#dc3d36"/><path d="m354.354 388.525h23.104l-5.499-49.7v-12.348h-23v12.348z" fill="#b13d49"/><path d="m405.092 305.692c9.149 0 16.567 7.417 16.567 16.567v8.283c0 4.575-3.709 8.283-8.283 8.283h-314.767c-4.575 0-8.283-3.709-8.283-8.283v-8.283c0-9.15 7.417-16.567 16.567-16.567z" fill="#413e82"/><path d="m405.092 305.692h-23c9.149 0 16.567 7.417 16.567 16.567v8.283c0 4.575-3.709 8.283-8.283 8.283h23c4.575 0 8.283-3.708 8.283-8.283v-8.283c0-9.15-7.418-16.567-16.567-16.567z" fill="#2f2c59"/></g><g><path d="m382.308 229.803c-1.344-8.486-5.173-16.319-10.952-22.402-4.667-4.912-8.074-10.979-9.917-17.631-.542-1.954-1.195-3.876-1.851-5.794l-5.932-17.339c-.465-1.359-.166-2.863.784-3.94l19.039-21.598c1.935-2.195 3.776-4.477 5.55-6.817l16.67-113.81c-.991-1.885-2.052-3.73-3.193-5.523-4.55-7.147-12.994-9.499-19.945-5.557l-12.535 7.11c-24.933 14.143-44.132 38.601-53.635 68.33l-8.171 25.558c-.483 1.51-1.887 2.536-3.473 2.536-8.252-4.61-21.17-9.522-38.754-9.522-17.585 0-30.502 4.912-38.755 9.522-1.586 0-2.99-1.025-3.473-2.536l-8.171-25.558c-9.504-29.729-28.702-54.187-53.635-68.33l-12.535-7.11c-6.95-3.942-15.395-1.59-19.945 5.557-1.141 1.792-2.202 3.638-3.193 5.523l16.67 113.81c1.774 2.34 3.615 4.622 5.55 6.817l19.039 21.598c.95 1.077 1.249 2.581.784 3.94l-5.932 17.339c-.656 1.919-1.31 3.84-1.851 5.794-1.843 6.653-5.251 12.719-9.917 17.631-5.779 6.083-9.609 13.916-10.952 22.402l-1.424 8.992c-3.008 18.999 2.885 38.358 15.824 51.978 8.149 8.578 18.59 14.337 29.929 16.507l27.259 5.217h.011c4.049 7.21 10.438 12.678 18.036 15.344l26.202 9.194c6.782 2.38 14.173 2.38 20.955 0l26.202-9.194c7.598-2.666 13.987-8.134 18.036-15.344h.011l27.259-5.217c11.339-2.17 21.78-7.928 29.929-16.507 12.939-13.62 18.833-32.979 15.824-51.978z" fill="#f3ffff"/><path d="m382.308 229.803c-1.344-8.486-5.173-16.319-10.952-22.402-4.666-4.912-8.074-10.978-9.917-17.63-.542-1.955-1.195-3.877-1.852-5.796l-5.932-17.338c-.465-1.359-.166-2.862.784-3.94l19.039-21.598c1.935-2.195 3.776-4.477 5.55-6.817l16.67-113.81c-.991-1.885-2.052-3.73-3.193-5.523-4.55-7.147-12.994-9.499-19.945-5.557l-5.123 2.906c.754.795 1.455 1.673 2.078 2.651 9.661 15.175 14.003 33.884 12.18 52.489-2.729 27.861-13.735 53.839-31.207 73.66l-19.039 21.598c-.95 1.077-1.249 2.581-.784 3.94l5.932 17.338c.656 1.919 1.31 3.841 1.852 5.795 1.843 6.652 5.251 12.719 9.917 17.631 5.779 6.083 9.609 13.916 10.952 22.402l1.424 8.992c3.008 18.999-2.885 38.358-15.824 51.978-8.149 8.578-18.59 14.337-29.929 16.507l-23.749 4.543c-2.075.397-3.955 1.55-5.147 3.294-4.039 5.913-9.762 10.391-16.41 12.724l-25.185 8.837 1.017.357c6.783 2.38 14.174 2.38 20.956 0l26.202-9.194c7.598-2.666 13.987-8.134 18.036-15.344h.011l27.259-5.217c11.339-2.17 21.78-7.928 29.929-16.507 12.939-13.62 18.833-32.979 15.824-51.978z" fill="#dff9f9"/><path d="m394.641 21.001c-14.896 7.448-27.743 18.426-37.423 31.978l-2.094 2.932c-15.74 22.035-22.081 49.421-17.629 76.132.74 4.438 4.887 7.475 9.342 6.838l32.191-4.599c14.245-18.793 23.231-42.068 25.658-66.844 1.607-16.407-1.586-32.892-8.987-46.966z" fill="#e28bd2"/><path d="m154.766 52.978c-9.68-13.552-22.527-24.53-37.423-31.978l-1.056-.528c-7.402 14.074-10.594 30.559-8.987 46.966 2.427 24.776 11.413 48.051 25.658 66.844l32.191 4.599c4.454.636 8.602-2.4 9.342-6.838 4.452-26.711-1.89-54.096-17.629-76.132z" fill="#e28bd2"/><path d="m394.641 21.001c-6.058 3.029-11.77 6.651-17.075 10.783 3.856 11.251 5.322 23.471 4.129 35.654-2.589 26.429-12.636 51.152-28.575 70.545l25.908-3.701c14.245-18.793 23.231-42.068 25.658-66.844 1.607-16.407-1.586-32.892-8.987-46.966z" fill="#de6fba"/></g></g><g><path d="m405.092 298.192h-34.005c.766-.732 1.522-1.478 2.258-2.252 14.506-15.271 21.159-37.071 17.794-58.317l-1.424-8.992c-1.59-10.042-6.059-19.169-12.922-26.395-3.804-4.004-6.614-9.007-8.127-14.468-.618-2.23-1.343-4.349-1.982-6.216l-5.275-15.42 17.694-20.074c18.439-20.918 30.175-48.579 33.046-77.889 1.989-20.303-2.741-40.634-13.318-57.249-6.68-10.492-19.564-13.955-29.972-8.052l-12.534 7.11c-26.687 15.137-46.958 40.909-57.079 72.569l-6.682 20.901c-8.962-4.051-21.15-7.545-36.572-7.545s-27.61 3.494-36.572 7.545l-6.682-20.9c-5.75-17.987-15.129-34.643-27.124-48.168-2.748-3.1-7.489-3.383-10.587-.635-3.099 2.749-3.383 7.489-.634 10.588 10.62 11.975 18.939 26.768 24.058 42.782l7.692 24.061c-3.29 2.441-5.062 4.261-5.288 4.499-2.853 3.003-2.748 7.769.254 10.622 1.456 1.383 3.317 2.071 5.174 2.071 1.974 0 3.942-.778 5.412-2.325.604-.618 15.12-15.141 44.298-15.141 29.098 0 43.614 14.442 44.292 15.135 1.471 1.532 3.438 2.304 5.409 2.304 1.855 0 3.714-.685 5.164-2.062 3.003-2.853 3.125-7.601.272-10.604-.226-.238-1.998-2.057-5.288-4.499l7.692-24.061c8.969-28.059 26.794-50.819 50.192-64.091l12.534-7.11c2.991-1.696 6.456-.97 8.884 1.705-13.358 7.791-25.032 18.402-34.029 30.999l-2.094 2.932c-17.017 23.823-23.738 52.847-18.924 81.725 1.275 7.651 8.031 13.186 15.597 13.186.728 0 1.464-.052 2.203-.157l12.576-1.797s-13.2 14.982-13.2 14.983c-1.713 1.954-2.368 4.741-1.466 7.376l6.686 19.541c.571 1.67 1.219 3.564 1.718 5.363 2.167 7.824 6.216 15.015 11.708 20.795 4.763 5.015 7.869 11.381 8.982 18.41l1.424 8.992c2.639 16.669-2.54 33.73-13.854 45.64-5.751 6.053-12.718 10.447-20.387 12.901-.058.017-.114.036-.171.054-1.747.552-3.53 1.005-5.343 1.352l-12.626 2.416 5.09-10.717c1.777-3.741.185-8.215-3.557-9.992-3.742-1.78-8.216-.184-9.992 3.557l-10.429 21.956c-3.093 6.511-8.373 11.352-14.867 13.63l-26.202 9.194c-2.549.894-5.17 1.345-7.792 1.367h-.407c-2.622-.023-5.242-.473-7.791-1.367l-26.203-9.194c-6.493-2.278-11.773-7.119-14.866-13.63l-10.428-21.956c-1.777-3.742-6.251-5.333-9.992-3.557-3.742 1.777-5.334 6.251-3.557 9.992l5.09 10.717-12.626-2.417c-1.801-.345-3.571-.794-5.307-1.341-.076-.025-.152-.049-.229-.072-7.66-2.455-14.62-6.846-20.365-12.894-11.315-11.909-16.493-28.971-13.854-45.64l1.424-8.992c1.113-7.029 4.219-13.396 8.982-18.409 5.492-5.781 9.541-12.972 11.708-20.796.499-1.8 1.146-3.693 1.718-5.364l6.685-19.54c.902-2.635.247-5.423-1.467-7.376 0-.001-13.2-14.982-13.2-14.982l12.576 1.797c.739.105 1.475.156 2.204.156 7.565 0 14.322-5.535 15.597-13.186 4.813-28.878-1.908-57.901-18.924-81.724l-2.095-2.934c-8.997-12.595-20.669-23.206-34.028-30.998 2.428-2.676 5.892-3.402 8.883-1.705l12.537 7.111c1.617.917 3.245 1.903 4.837 2.933 3.478 2.245 8.121 1.25 10.37-2.229 2.248-3.479 1.249-8.122-2.23-10.37-1.835-1.186-3.712-2.323-5.578-3.381l-12.535-7.11c-10.408-5.904-23.292-2.441-29.972 8.053-10.577 16.614-15.307 36.945-13.318 57.248 2.871 29.31 14.607 56.971 33.046 77.888l17.695 20.074-5.275 15.42c-.64 1.868-1.364 3.986-1.982 6.217-1.513 5.461-4.324 10.464-8.128 14.469-6.864 7.226-11.332 16.353-12.922 26.395l-1.424 8.992c-3.364 21.246 3.288 43.047 17.795 58.317.735.774 1.492 1.52 2.258 2.252h-34.005c-13.27 0-24.066 10.796-24.066 24.066v8.283c0 8.703 7.081 15.784 15.783 15.784h33.041l-12.745 115.191c-.005.049-.01.098-.015.147-1.995 21.939 13.567 41.266 35.426 43.998 3.7.463 7.48.908 11.236 1.325 4.11.454 7.824-2.51 8.281-6.627.457-4.116-2.51-7.824-6.627-8.281-3.686-.409-7.396-.847-11.029-1.302-13.768-1.721-23.574-13.874-22.355-27.686l7.42-67.066h229.499l7.42 67.066c1.22 13.811-8.587 25.965-22.355 27.686-52.577 6.574-106.031 7.934-158.877 4.045-4.129-.293-7.726 2.799-8.03 6.929-.304 4.131 2.798 7.727 6.93 8.03 19.966 1.47 40.017 2.203 60.077 2.203 34.023 0 68.07-2.11 101.762-6.322 21.86-2.732 37.421-22.059 35.426-43.998-.004-.049-.009-.098-.015-.147l-12.745-115.191h33.041c8.703 0 15.783-7.081 15.783-15.784v-8.283c0-13.27-10.796-24.066-24.066-24.066zm-59.317-166.736c-.419.061-.813-.229-.882-.646-4.155-24.925 1.647-49.977 16.335-70.54l2.094-2.932c7.661-10.727 17.573-19.78 28.909-26.479 4.436 11.131 6.202 23.479 4.99 35.848-2.179 22.241-10.042 43.356-22.38 60.597zm-226.021-100.598c11.336 6.699 21.248 15.752 28.908 26.478l2.095 2.934c14.688 20.562 20.489 45.614 16.334 70.539-.07.417-.469.711-.883.646l-29.065-4.152c-12.337-17.24-20.201-38.355-22.379-60.597-1.213-12.369.553-24.717 4.99-35.848zm-21.928 299.684v-8.283c0-4.999 4.067-9.066 9.066-9.066h59.758c1.951.576 3.932 1.07 5.946 1.455l24.028 4.598c3.342 4.945 7.63 9.046 12.621 12.08h-110.636c-.432 0-.783-.352-.783-.784zm271.256 50.483h-226.18l3.839-34.699h218.502zm45.077-50.483c0 .433-.352.784-.783.784h-110.637c4.991-3.035 9.279-7.135 12.621-12.08l24.027-4.598c2.014-.385 3.995-.879 5.946-1.455h59.758c4.999 0 9.066 4.067 9.066 9.066v8.283z"/><path d="m174.166 196.189c-1.005 4.018 1.438 8.091 5.457 9.096l25.741 6.436c2.571.643 4.725 2.37 5.91 4.741l4.876 9.752c1.314 2.628 3.962 4.147 6.714 4.147 1.127 0 2.271-.256 3.348-.794 3.705-1.853 5.207-6.357 3.354-10.062l-4.876-9.751c-3.145-6.292-8.864-10.88-15.689-12.586l-25.741-6.436c-4.012-.999-8.089 1.439-9.094 5.457z"/><path d="m289.119 230.361c2.751 0 5.4-1.52 6.714-4.147l4.877-9.753c1.184-2.37 3.339-4.098 5.91-4.74l25.741-6.436c4.018-1.005 6.462-5.077 5.457-9.096-1.005-4.02-5.079-6.459-9.095-5.457l-25.741 6.436c-6.825 1.706-12.543 6.294-15.688 12.585l-4.876 9.752c-1.853 3.705-.351 8.21 3.354 10.062 1.076.539 2.22.794 3.347.794z"/><path d="m239.425 298.192c-4.142 0-7.5 3.357-7.5 7.5s3.358 7.5 7.5 7.5h33.134c4.142 0 7.5-3.357 7.5-7.5s-3.358-7.5-7.5-7.5h-9.067v-20.999l12.421-6.21c3.705-1.853 5.206-6.357 3.354-10.062-1.853-3.704-6.356-5.206-10.062-3.354l-13.213 6.606-13.213-6.606c-3.704-1.853-8.209-.352-10.062 3.354-1.853 3.705-.351 8.21 3.354 10.062l12.421 6.21v20.999z"/><path d="m64.692 189.725c0-4.143-3.358-7.5-7.5-7.5h-33.133c-4.142 0-7.5 3.357-7.5 7.5s3.358 7.5 7.5 7.5h33.133c4.142 0 7.5-3.357 7.5-7.5z"/><path d="m90.321 285.375c-2.071-3.588-6.66-4.814-10.245-2.745l-28.694 16.567c-3.587 2.071-4.816 6.658-2.745 10.245 1.389 2.406 3.91 3.751 6.502 3.751 1.272 0 2.563-.324 3.743-1.006l28.694-16.567c3.587-2.072 4.816-6.659 2.745-10.245z"/><path d="m460.602 299.197-28.694-16.567c-3.587-2.07-8.174-.843-10.245 2.745-2.071 3.587-.842 8.174 2.745 10.245l28.694 16.567c1.181.682 2.471 1.006 3.743 1.006 2.592 0 5.113-1.345 6.502-3.751 2.072-3.587.843-8.174-2.745-10.245z"/><path d="m487.925 182.225h-33.133c-4.142 0-7.5 3.357-7.5 7.5s3.358 7.5 7.5 7.5h33.133c4.142 0 7.5-3.357 7.5-7.5 0-4.142-3.358-7.5-7.5-7.5z"/><path d="m428.165 97.826c1.272 0 2.562-.324 3.743-1.006l28.694-16.566c3.587-2.071 4.816-6.658 2.745-10.245-2.071-3.588-6.658-4.814-10.245-2.745l-28.694 16.566c-3.587 2.071-4.816 6.658-2.745 10.245 1.389 2.406 3.91 3.751 6.502 3.751z"/><path d="m51.382 80.253 28.694 16.567c1.181.682 2.471 1.006 3.743 1.006 2.592 0 5.113-1.345 6.502-3.751 2.071-3.587.842-8.174-2.745-10.245l-28.694-16.567c-3.588-2.07-8.175-.843-10.245 2.745-2.072 3.587-.842 8.174 2.745 10.245z"/></g></g></svg>