<svg id="Capa_1" enable-background="new 0 0 512.009 512.009" height="512" viewBox="0 0 512.009 512.009" width="512" xmlns="http://www.w3.org/2000/svg"><g><g><path d="m317.71 392.468-59.32 73.53c-1.2 1.49-3.46 1.49-4.66 0l-59.34-73.53 3.436-20.737.644-42.083 115.51 4.08-.622 17.706 2.128 6.015 1.174 18.49-1.26 9.198z" fill="#f2d1a5"/><g><path d="m453.196 504.508h-186.466l-11.465-2.564-9.875 2.564h-181.69l-3.776-1c-6.206 0-10.913-5.594-9.853-11.709l3.689-20.271c4.84-27.95 25.01-49.77 52.11-57.94l88.52-21.12 59.34 73.53c1.2 1.49 3.46 1.49 4.66 0l59.32-67.616 34.09 1.708 55.59 12.428c27.15 8.97 47.15 30.97 51.95 58.9l3.709 21.381c1.061 6.114-3.647 11.709-9.853 11.709z" fill="#f9f8f9"/></g><path d="m351.8 400.088-78.08 100.98c-1.68 2.16-4.26 3.42-6.99 3.42h-21.34c-2.73 0-5.31-1.26-6.99-3.42l-79.67-100.58 20.075.35 15.585-8.37 59.669 68.285c1.2 1.49 3.46 1.49 4.66 0l58.991-68.285z" fill="#7dc3ee"/><g><path d="m169.761 414.41-60.79 13.658c-21.17 6.59-36.64 24.24-40.45 46.19l-4.82 30.25h-4.776c-6.206 0-10.913-5.594-9.853-11.709l3.689-21.271c4.84-27.95 25.01-50.77 52.11-58.94l53.859-12.105 9.225 5.844z" fill="#e8e8e8"/></g><g><path d="m205.6 406.358-35.84 8.05-11.03-13.92 35.66-8.02 7.138 5.913z" fill="#64acdc"/></g><path d="m128.573 187.087h-7.581c-17.101 0-30.964 13.906-30.964 31.059 0 23.66 19.122 42.841 42.709 42.841h246.646c23.588 0 42.709-19.18 42.709-42.841 0-17.154-13.863-31.059-30.964-31.059h-7.581z" fill="#f2bb88"/><path d="m316.66 375.938-58.267 64.979c-1.192 1.329-3.275 1.33-4.467 0l-42.376-47.25c-.718-.801-1.083-1.857-1.014-2.93l1.305-20.079c.137-2.115 2.359-3.409 4.28-2.512 12.004 5.612 24.493 9.072 36.969 9.072 1.15 0 2.3-.03 3.44-.09 19.33-.11 39.14-6.72 58.96-19.68l-1.51-23.72-115.51-4.08-4.08 62.82 59.34 73.53c1.2 1.49 3.46 1.49 4.66 0l59.32-73.53z" fill="#f2bb88"/><path d="m265.741 146.412 118.806 5.082s-.276 11.485-.442 20.865l-2.534 17.798s2.323 11.079 2.322 11.111c-.508 41.11-3.742 61.866-23.076 88.72-5.636 7.829-11.528 15.193-17.618 21.997 0 0-1.04.542-1.389.926-26.615 29.352-56.581 44.904-85.76 44.904-29.147 1.738-62.045-19.419-86.341-45.83-.193-.209-1.017-.521-1.017-.521-6.56-7.182-12.445-14.502-17.389-21.477-19.282-26.782-22.551-47.5-23.072-88.391l1.297-11.271-1.293-18.069c.128-9.326.338-20.764.338-20.764z" fill="#f2d1a5"/><path d="m128.573 151.494 5.168-19.38-5.168-18.617 126.189-5.128 129.785 5.128v37.997z" fill="#7dc3ee"/><path d="m144.57 113.498v38h-16v-38l8-6.15z" fill="#64acdc"/><path d="m351.553 239.508-2.105 18.261-2.09 8.005.27 7.785-1.309 11.36-2.059 7.735.161 8.735-1.221 10.597c-26.85 30.02-57.576 49.142-87.136 49.142-21.87 1.303-46.105-12.084-67.106-30.005-7.212-6.154-12.544-13.856-18.766-20.669l-9.936-70.298 14.319-.649h33.21c11.71 0 22.93-4.65 31.21-12.93 2.27-2.26 4.93-4.03 7.83-5.23s6.04-1.84 9.24-1.84 6.34.64 9.24 1.84 5.56 2.97 7.83 5.23c4.14 4.14 9.01 7.37 14.32 9.57 5.3 2.2 11.03 3.36 16.89 3.36h47.208z" fill="#f9f8f9"/><path d="m188.954 331.123c-7.21-6.16-14.042-12.848-20.262-19.658l-1.256-9.887.624-8.124-2.714-8.366-1.453-11.461.804-6.705-2.806-9.095-2.322-18.32h15z" fill="#e8e8e8"/><path d="m381.656 113.497c0-4.724 1.615-15.999 1.615-15.999-3.696-26.579-14.604-61.734-21.905-78.029-3.886-8.673-13.052-13.449-22.144-11.546l-51.141 10.706c-21.129 4.423-42.909 4.404-64.031-.056l-50.254-10.611c-.222-.047-.444-.09-.665-.129 0 0-4.477.214-6.624.579-6.409 1.088-10.973 5.126-13.809 11.489-10.359 25.67-22.326 67.892-22.468 93.596" fill="#f9f8f9"/><path d="m383.27 97.498h-232.758c-2.462 0-4.351-2.199-3.954-4.629 3.96-24.276 13.134-53.734 21.043-73.331.41-.93 3.09-6.67 5.53-11.7-8.9-1.56-17.74 3.2-21.53 11.7-8.872 21.984-19.329 56.368-22.239 81.935-.336 3.198-.734 7.096-.791 12.025h255.98c-.001-4.72-.461-10.16-1.281-16z" fill="#e8e8e8"/></g><g><path d="m304.642 207.107c4.142 0 7.5-3.357 7.5-7.5v-17.065c0-4.143-3.358-7.5-7.5-7.5s-7.5 3.357-7.5 7.5v17.065c0 4.143 3.358 7.5 7.5 7.5z"/><path d="m207.478 207.107c4.142 0 7.5-3.357 7.5-7.5v-17.065c0-4.143-3.358-7.5-7.5-7.5s-7.5 3.357-7.5 7.5v17.065c0 4.143 3.358 7.5 7.5 7.5z"/><path d="m466.734 470.158c-4.663-27.641-24.479-51.954-51.611-62.795-3.197-1.277-6.506-2.259-9.866-3.01l-80.205-17.929-3.012-44.224c22.894-18.317 47.257-45.581 59.574-73.771 26.653-1.176 47.978-23.276 47.978-50.283 0-21.139-17.058-38.352-38.099-38.55 3.351-83.02-2.996-112.672-23.283-163.194-5.356-11.955-17.911-18.456-30.524-15.82l-34.671 7.258c-3.734.782-6.498 4.162-6.189 7.964.373 4.598 4.652 7.684 9.017 6.769l34.917-7.31c5.655-1.185 11.314 1.807 13.763 7.271 8.119 18.121 19.999 57.936 22.176 83.462h-134.907c-4.107 0-7.688 3.165-7.811 7.27-.127 4.247 3.278 7.73 7.497 7.73h135.569v22.997h-240.974v-22.997h71.091c4.107 0 7.688-3.165 7.811-7.27.127-4.247-3.278-7.73-7.497-7.73h-71.029c2.064-23.877 12.35-59.431 22.054-83.516 2.472-5.422 8.104-8.371 13.744-7.182l50.254 10.611c15.692 3.313 31.734 4.296 47.692 2.919 4.125-.356 7.451-3.84 7.19-7.972-.267-4.223-3.955-7.362-8.147-7.002-14.598 1.291-29.279.41-43.637-2.621l-50.253-10.609c-12.661-2.681-25.242 3.849-30.594 15.862-31.165 77.99-22.292 111.802-24.106 163.109-21.05.188-38.118 17.405-38.118 38.551 0 27.006 21.322 49.105 47.973 50.283 11.361 27.092 36.372 54.601 59.657 73.373l-3.079 44.621-79.888 17.953c-4.007.9-6.807 4.773-6.027 8.805.806 4.171 4.89 6.821 9.009 5.899l46.646-10.483 75.668 97.083c3.12 4.005 7.822 6.302 12.9 6.302h21.347c5.078 0 9.78-2.297 12.899-6.301l26.78-34.359c2.546-3.267 1.962-7.979-1.305-10.525-3.268-2.549-7.98-1.963-10.526 1.305l-26.781 34.36c-.256.328-.649.521-1.066.521h-21.35c-.417 0-.811-.192-1.068-.521l-71.317-91.5 18.478-4.153 56.409 69.898c2.004 2.483 4.982 3.906 8.172 3.906s6.168-1.425 8.171-3.907l56.39-69.901 18.511 4.138-22.865 29.336c-2.546 3.267-1.962 7.979 1.305 10.525 1.37 1.068 2.993 1.585 4.605 1.585 2.232 0 4.442-.992 5.921-2.89l27.23-34.936 43.803 9.792c8.992 2.01 17.601 5.586 25.15 10.87 14.66 10.26 24.588 25.547 27.668 43.467l.038-.007c.355 2.273 1.566 9.256 5.702 33.104l14.779-2.562c.002-.001-5.598-32.291-5.733-33.069zm-124.938-211.524-40.551 9.486c-29.543 6.91-60.784 6.952-90.346.115l-41.339-9.558-1.479-11.667h39.7c13.793 0 26.76-5.371 36.514-15.125 3.142-3.143 7.321-4.873 11.766-4.873s8.624 1.73 11.766 4.874c9.753 9.753 22.72 15.124 36.513 15.124h38.796zm-170.226 15.904 35.95 8.312c15.803 3.653 32.05 5.479 48.3 5.479 16.433 0 32.869-1.868 48.841-5.604l35.309-8.26-1.36 11.794-40.166 14.177c-27.005 9.532-56.789 9.639-83.862.304l-41.505-14.312zm183.16 11.068c-.372.517-.748 1.018-1.121 1.53l5.201-45.114 17.309-28.127c-1.08 32.122-5.296 49.357-21.389 71.711zm59.862-67.46c0 16.979-11.994 31.196-27.923 34.574 3.86-16.042 4.638-34.06 4.781-58.126 12.79.175 23.142 10.669 23.142 23.552zm-37.786-59.152c-.246 8.725-.183 18.345-.41 25.832l-29.036 47.184h-43.02c-9.786 0-18.987-3.811-25.906-10.73-5.976-5.977-13.921-9.268-22.373-9.268s-16.397 3.291-22.373 9.267c-6.92 6.921-16.121 10.731-25.907 10.731h-43.951l-28.083-47.106c-.329-5.764.1-16.29.144-25.909h240.915zm-279.278 59.152c0-12.883 10.352-23.377 23.142-23.551.143 24.069.921 42.088 4.778 58.125-15.928-3.38-27.92-17.596-27.92-34.574zm38.501-3.477 16.297 27.337 5.625 44.376c-15.922-21.702-20.969-40.067-21.922-71.713zm39.808 93.53-.657-5.181 34.513 11.901c14.967 5.162 30.674 7.741 46.381 7.741 16.052 0 32.104-2.694 47.362-8.08l33.262-11.74-.682 5.917c-26.285 28.801-54.538 44.868-79.957 44.868-24.306 1.682-55.959-19.211-80.222-45.426zm80.222 148.748-54.179-67.134 2.609-37.797c18.08 11.26 34.967 17.379 51.792 16.61 16.649-.05 34.113-5.75 51.407-16.407l2.558 37.558z"/><path d="m72.184 422.354c-14.088 12.384-23.611 29.395-26.813 47.896l-5.72 32.977c-.708 4.081 2.027 7.963 6.108 8.671.434.075.865.111 1.291.111 3.58 0 6.748-2.571 7.381-6.22l5.72-32.979c2.621-15.142 10.411-29.06 21.937-39.19 3.111-2.734 3.416-7.474.681-10.584-2.735-3.112-7.474-3.416-10.585-.682z"/><path d="m389.56 487.008h-63c-4.142 0-7.5 3.357-7.5 7.5s3.358 7.5 7.5 7.5h63c4.142 0 7.5-3.357 7.5-7.5s-3.358-7.5-7.5-7.5z"/></g></g></svg>