<svg id="Capa_1" enable-background="new 0 0 512 512" height="512" viewBox="0 0 512 512" width="512" xmlns="http://www.w3.org/2000/svg"><g><g><g><path d="m306.37 440.932h-232.589c-8.6 0-15.572-6.972-15.572-15.572v-402.288c0-8.6 6.972-15.572 15.572-15.572h294.176c8.6 0 15.572 6.972 15.572 15.572v340.701c0 3.883-1.542 7.606-4.288 10.352l-62.519 62.519c-2.745 2.746-6.469 4.288-10.352 4.288z" fill="#b3dafe"/></g><g><path d="m144.043 46.068c-22.372 0-40.572 18.2-40.572 40.572v354.291h202.899c3.883 0 7.606-1.542 10.352-4.288l62.519-62.519c2.745-2.745 4.288-6.469 4.288-10.352v-317.704z" fill="#8ac9fe"/></g><g><path d="m83.996 425.36v-402.288c0-8.6 6.972-15.572 15.572-15.572h-25.787c-8.6 0-15.572 6.972-15.572 15.572v402.288c0 8.6 6.972 15.572 15.572 15.572h25.788c-8.601 0-15.573-6.972-15.573-15.572z" fill="#8ac9fe"/></g><g><path d="m376.633 504.5h-232.59c-8.6 0-15.572-6.972-15.572-15.572v-402.288c0-8.6 6.972-15.572 15.572-15.572h294.176c8.6 0 15.572 6.972 15.572 15.572v340.701c0 3.883-1.542 7.606-4.288 10.352l-62.519 62.519c-2.745 2.746-6.468 4.288-10.351 4.288z" fill="#f6f1f1"/></g><g><path d="m154.259 488.928v-402.288c0-8.6 6.972-15.572 15.572-15.572h-25.788c-8.6 0-15.572 6.972-15.572 15.572v402.287c0 8.6 6.972 15.572 15.572 15.572h25.788c-8.6.001-15.572-6.971-15.572-15.571z" fill="#e2dfe2"/></g><g><path d="m382.697 438.596v64.571c1.578-.719 3.038-1.705 4.288-2.955l62.519-62.519c1.25-1.25 2.236-2.709 2.955-4.288h-64.571c-2.867 0-5.191 2.324-5.191 5.191z" fill="#d3ced5"/></g></g><g><path d="m94.288 433.432h-20.507c-4.451 0-8.072-3.621-8.072-8.072v-402.288c0-4.451 3.621-8.072 8.072-8.072h294.176c4.451 0 8.073 3.621 8.073 8.072v13.888c0 4.143 3.358 7.5 7.5 7.5s7.5-3.357 7.5-7.5v-13.888c-.001-12.721-10.352-23.072-23.074-23.072h-294.175c-12.723 0-23.073 10.351-23.073 23.072v402.287c0 12.722 10.35 23.072 23.072 23.072h20.508c4.142 0 7.5-3.357 7.5-7.5s-3.358-7.499-7.5-7.499z"/><path d="m453.792 148.847c4.142 0 7.5-3.357 7.5-7.5v-54.706c0-12.722-10.351-23.072-23.073-23.072h-294.176c-12.722 0-23.072 10.351-23.072 23.072v402.287c0 12.722 10.35 23.072 23.072 23.072h232.59c5.915 0 11.475-2.304 15.655-6.484l62.52-62.52c4.182-4.182 6.484-9.742 6.484-15.655v-251.024c0-4.143-3.358-7.5-7.5-7.5s-7.5 3.357-7.5 7.5v249.588h-58.404c-6.998 0-12.691 5.693-12.691 12.69v58.405h-231.154c-4.451 0-8.072-3.621-8.072-8.072v-402.287c0-4.451 3.621-8.072 8.072-8.072h294.176c4.451 0 8.073 3.621 8.073 8.072v54.706c0 4.142 3.358 7.5 7.5 7.5zm-18.107 292.058-45.488 45.487v-45.487z"/><path d="m409.391 118.908h-236.52c-4.142 0-7.5 3.357-7.5 7.5s3.358 7.5 7.5 7.5h236.52c4.142 0 7.5-3.357 7.5-7.5s-3.358-7.5-7.5-7.5z"/><path d="m409.391 159.252h-236.52c-4.142 0-7.5 3.357-7.5 7.5s3.358 7.5 7.5 7.5h236.52c4.142 0 7.5-3.357 7.5-7.5s-3.358-7.5-7.5-7.5z"/><path d="m409.391 199.596h-236.52c-4.142 0-7.5 3.357-7.5 7.5s3.358 7.5 7.5 7.5h236.52c4.142 0 7.5-3.357 7.5-7.5s-3.358-7.5-7.5-7.5z"/><path d="m409.391 239.94h-236.52c-4.142 0-7.5 3.357-7.5 7.5s3.358 7.5 7.5 7.5h236.52c4.142 0 7.5-3.357 7.5-7.5s-3.358-7.5-7.5-7.5z"/><path d="m409.391 280.284h-236.52c-4.142 0-7.5 3.357-7.5 7.5s3.358 7.5 7.5 7.5h236.52c4.142 0 7.5-3.357 7.5-7.5s-3.358-7.5-7.5-7.5z"/><path d="m409.391 320.628h-236.52c-4.142 0-7.5 3.357-7.5 7.5s3.358 7.5 7.5 7.5h236.52c4.142 0 7.5-3.357 7.5-7.5s-3.358-7.5-7.5-7.5z"/><path d="m416.891 368.472c0-4.143-3.358-7.5-7.5-7.5h-236.52c-4.142 0-7.5 3.357-7.5 7.5s3.358 7.5 7.5 7.5h236.52c4.142 0 7.5-3.358 7.5-7.5z"/><path d="m351.4 401.316h-178.529c-4.142 0-7.5 3.357-7.5 7.5s3.358 7.5 7.5 7.5h178.529c4.142 0 7.5-3.357 7.5-7.5s-3.358-7.5-7.5-7.5z"/><path d="m351.4 441.66h-178.529c-4.142 0-7.5 3.357-7.5 7.5s3.358 7.5 7.5 7.5h178.529c4.142 0 7.5-3.357 7.5-7.5s-3.358-7.5-7.5-7.5z"/></g></g></svg>