<svg id="Capa_1" enable-background="new 0 0 512 512" height="512" viewBox="0 0 512 512" width="512" xmlns="http://www.w3.org/2000/svg"><g><g><g><path d="m471.1 376.92h-430.2v-301.14c0-11.046 8.954-20 20-20h390.2c11.046 0 20 8.954 20 20z" fill="#365f7e"/></g><g><path d="m82.14 55.78h-21.24c-11.046 0-20 8.954-20 20v301.14h21.24v-301.14c0-11.045 8.954-20 20-20z" fill="#2c4d66"/></g><g><path d="m75.9 336.74v-240.96c0-2.761 2.239-5 5-5h350.2c2.761 0 5 2.239 5 5v240.96c0 2.761-2.239 5-5 5h-350.2c-2.762 0-5-2.238-5-5z" fill="#b3dafe"/></g><g><path d="m97.5 336.74v-240.96c0-2.761 2.239-5 5-5h-21.6c-2.761 0-5 2.239-5 5v240.96c0 2.761 2.239 5 5 5h21.6c-2.762 0-5-2.238-5-5z" fill="#8ac9fe"/></g><g><path d="m504.5 431.22v-44.3c0-5.523-4.477-10-10-10h-477c-5.523 0-10 4.477-10 10v44.3c0 13.807 11.193 25 25 25h447c13.807 0 25-11.193 25-25z" fill="#d3ced5"/></g><g><path d="m28.4 431.22v-44.3c0-5.523 4.477-10 10-10h-20.9c-5.523 0-10 4.477-10 10v44.3c0 13.807 11.193 25 25 25h20.9c-13.807 0-25-11.193-25-25z" fill="#c3bec6"/></g><g><path d="m294.1 420.5h-76.2c-8.892 0-16.1-7.208-16.1-16.1v-27.48h108.4v27.48c0 8.892-7.208 16.1-16.1 16.1z" fill="#b5adb7"/></g><g><path d="m207 198.912h-81.84c-2.761 0-5-2.239-5-5v-59.392c0-2.761 2.239-5 5-5h81.84c2.761 0 5 2.239 5 5v59.392c0 2.762-2.239 5-5 5z" fill="#f6f1f1"/></g></g><g><path d="m80.9 83.28c-6.893 0-12.5 5.607-12.5 12.5v240.96c0 6.893 5.607 12.5 12.5 12.5h350.2c6.893 0 12.5-5.607 12.5-12.5v-240.96c0-6.893-5.607-12.5-12.5-12.5zm347.7 250.96h-345.2v-235.96h345.2z"/><path d="m494.5 369.42h-15.9v-200.1c0-4.142-3.358-7.5-7.5-7.5s-7.5 3.358-7.5 7.5v200.1h-338.36c-4.142 0-7.5 3.357-7.5 7.5s3.358 7.5 7.5 7.5h69.06v19.98c0 13.013 10.587 23.6 23.6 23.6h76.2c13.013 0 23.6-10.587 23.6-23.6v-19.98h176.8c1.378 0 2.5 1.121 2.5 2.5v44.3c0 9.649-7.851 17.5-17.5 17.5h-447c-9.649 0-17.5-7.851-17.5-17.5v-44.3c0-1.379 1.122-2.5 2.5-2.5h71.7c4.142 0 7.5-3.357 7.5-7.5s-3.358-7.5-7.5-7.5h-40.8v-293.64c0-6.893 5.607-12.5 12.5-12.5h390.2c6.893 0 12.5 5.607 12.5 12.5v58.98c0 4.142 3.358 7.5 7.5 7.5s7.5-3.358 7.5-7.5v-58.98c0-15.164-12.336-27.5-27.5-27.5h-390.2c-15.164 0-27.5 12.336-27.5 27.5v293.64h-15.9c-9.649 0-17.5 7.851-17.5 17.5v44.3c0 17.921 14.579 32.5 32.5 32.5h447c17.921 0 32.5-14.579 32.5-32.5v-44.3c0-9.649-7.851-17.5-17.5-17.5zm-191.8 34.981c0 4.742-3.858 8.6-8.6 8.6h-76.2c-4.742 0-8.6-3.857-8.6-8.6v-19.98h93.4z"/><path d="m125.16 206.412h81.84c6.893 0 12.5-5.607 12.5-12.5v-59.392c0-6.893-5.607-12.5-12.5-12.5h-81.84c-6.893 0-12.5 5.607-12.5 12.5v59.392c0 6.893 5.607 12.5 12.5 12.5zm2.5-69.392h76.84v54.392h-76.84z"/><path d="m245.68 137.02h146.16c4.142 0 7.5-3.358 7.5-7.5s-3.358-7.5-7.5-7.5h-146.16c-4.142 0-7.5 3.358-7.5 7.5s3.358 7.5 7.5 7.5z"/><path d="m245.68 171.716h146.16c4.142 0 7.5-3.358 7.5-7.5s-3.358-7.5-7.5-7.5h-146.16c-4.142 0-7.5 3.358-7.5 7.5s3.358 7.5 7.5 7.5z"/><path d="m245.68 206.412h146.16c4.142 0 7.5-3.358 7.5-7.5s-3.358-7.5-7.5-7.5h-146.16c-4.142 0-7.5 3.358-7.5 7.5s3.358 7.5 7.5 7.5z"/><path d="m120.16 241.108h271.68c4.142 0 7.5-3.358 7.5-7.5s-3.358-7.5-7.5-7.5h-271.68c-4.142 0-7.5 3.358-7.5 7.5s3.358 7.5 7.5 7.5z"/><path d="m120.16 275.804h271.68c4.142 0 7.5-3.357 7.5-7.5s-3.358-7.5-7.5-7.5h-271.68c-4.142 0-7.5 3.357-7.5 7.5s3.358 7.5 7.5 7.5z"/><path d="m120.16 310.5h271.68c4.142 0 7.5-3.357 7.5-7.5s-3.358-7.5-7.5-7.5h-271.68c-4.142 0-7.5 3.357-7.5 7.5s3.358 7.5 7.5 7.5z"/></g></g></svg>