<svg id="Capa_1" enable-background="new 0 0 512.035 512.035" height="512" viewBox="0 0 512.035 512.035" width="512" xmlns="http://www.w3.org/2000/svg"><g><g><g><g><path d="m32.367 303.851c-13.724 0-24.85 11.126-24.85 24.85v41.417c0 18.299 14.834 33.133 33.133 33.133h430.733c18.299 0 33.133-14.834 33.133-33.133v-41.417c0-13.724-11.126-24.85-24.85-24.85z" fill="#e59f4f"/><path d="m48.934 336.985c-4.575 0-8.283 3.708-8.283 8.283v8.283c0 9.15 7.417 16.567 16.567 16.567h397.6c9.149 0 16.567-7.417 16.567-16.567v-8.283c0-4.575-3.709-8.283-8.283-8.283z" fill="#f2d2a1"/><path d="m479.667 303.851h-22.992c13.724 0 24.85 11.126 24.85 24.85v41.417c0 18.299-14.834 33.133-33.133 33.133h22.992c18.299 0 33.133-14.834 33.133-33.133v-41.417c0-13.724-11.125-24.85-24.85-24.85z" fill="#e27f4d"/></g><path d="m355.395 123.501c54.664 32.031 91.139 89.689 91.139 155.5 0 35.887-10.851 69.347-29.577 97.552-2.095 3.156-3.104 6.916-2.751 10.687 2.013 21.521-2.827 43.285-14.23 62.29-15.146 25.244-40.435 42.796-69.382 48.157-24.534 4.543-49.625 6.847-74.576 6.847-24.195 0-48.521-2.166-72.343-6.44-29.343-5.264-55.503-22.283-71.088-47.696-11.798-19.238-16.814-41.374-14.747-63.255.353-3.739-.687-7.466-2.764-10.595-18.725-28.205-29.574-61.663-29.574-97.547 0-65.811 36.475-123.469 91.139-155.5l99.198-12.784z" fill="#e59f4f"/><path d="m446.534 279.001c0-65.811-36.475-123.468-91.139-155.5l-99.556-12.784-11.479 1.479 88.035 11.304c54.664 32.032 91.139 89.689 91.139 155.5 0 35.887-10.851 69.347-29.577 97.552-2.095 3.156-3.104 6.916-2.751 10.687 2.013 21.521-2.827 43.285-14.23 62.29-15.146 25.243-40.435 42.796-69.382 48.157-20.763 3.845-41.925 6.067-63.063 6.665 3.831.108 7.661.182 11.487.182 24.951 0 50.042-2.304 74.576-6.847 28.947-5.361 54.236-22.914 69.382-48.157 11.403-19.005 16.243-40.769 14.23-62.29-.353-3.771.656-7.531 2.751-10.687 18.726-28.204 29.577-61.664 29.577-97.551z" fill="#e27f4d"/><path d="m366.238 332.629c23.797-14.93 39.475-41.603 38.862-71.909-.855-42.281-37.143-79.351-79.398-81.05-22.619-.91-43.325 7.257-58.777 21.151-6.17 5.548-15.644 5.548-21.814 0-15.452-13.895-36.158-22.061-58.777-21.151-42.255 1.699-78.543 38.769-79.399 81.05-.613 30.306 15.065 56.979 38.862 71.909 1.642 1.03 2.338 3.068 1.681 4.892l-12.811 35.584c-7.078 19.66-4.947 41.46 5.804 59.378 10.266 17.11 27.383 28.991 47.003 32.624 45.31 8.391 91.775 8.391 137.085 0 19.62-3.634 36.737-15.514 47.004-32.624 10.751-17.918 12.881-39.718 5.804-59.378l-12.81-35.584c-.657-1.823.038-3.861 1.681-4.892z" fill="#f2d2a1"/><path d="m364.557 337.522c-.657-1.824.039-3.862 1.681-4.892 23.797-14.93 39.475-41.603 38.862-71.909-.855-42.281-37.143-79.351-79.398-81.05-5.105-.205-10.106.075-14.978.756 38.727 5.709 70.576 40.716 71.376 80.294.613 30.306-15.066 56.979-38.862 71.909-1.642 1.03-2.338 3.068-1.681 4.892l12.81 35.584c7.078 19.66 4.947 41.46-5.804 59.378-10.266 17.11-27.383 28.991-47.004 32.625-18.869 3.494-37.939 5.511-57.042 6.095 26.768.818 53.602-1.199 80.042-6.095 19.62-3.633 36.737-15.514 47.004-32.625 10.751-17.918 12.881-39.717 5.804-59.378z" fill="#eaaa85"/></g><g><path d="m178.198 57.235 77.82 24.85 77.819-24.85 2.377-24.087c1.47-8.82-4.324-17.215-13.092-18.969-44.297-8.859-89.911-8.859-134.208 0-8.768 1.754-14.562 10.149-13.092 18.969z" fill="#dc3d36"/><path d="m300.121 14.179c8.768 1.754 14.562 10.149 13.092 18.969l-3.125 31.67 23.748-7.583 2.377-24.087c1.47-8.82-4.324-17.215-13.092-18.969-25.927-5.185-52.303-7.312-78.604-6.427 18.636.627 37.234 2.753 55.604 6.427z" fill="#b13d49"/><path d="m178.198 57.235 3.269 33.133 74.55 16.567 74.55-16.567 3.27-33.133z" fill="#f6df59"/><path d="m310.837 57.235-3.27 33.133-63.049 14.011 11.499 2.556 74.55-16.567 3.27-33.133z" fill="#edbf50"/><path d="m364.267 123.501h-216.5c-8.837 0-16-7.164-16-16v-9.133c0-4.418 3.582-8 8-8h232.5c4.418 0 8 3.582 8 8v9.133c0 8.837-7.163 16-16 16z" fill="#dc3d36"/><path d="m372.267 90.368h-23c4.418 0 8 3.582 8 8v9.133c0 8.836-7.164 16-16 16h23c8.836 0 16-7.164 16-16v-9.133c0-4.418-3.581-8-8-8z" fill="#b13d49"/></g></g><g><path d="m479.667 296.351h-26.459c.547-5.747.826-11.535.826-17.35 0-33.112-9.038-65.711-26.136-94.27-13.205-22.056-31.006-41.401-52.078-56.777 7.126-4.041 11.947-11.692 11.947-20.452v-9.134c0-8.547-6.953-15.5-15.5-15.5h-33.424l4.811-48.757c1.988-12.788-6.339-24.741-19.063-27.286-45.503-9.1-91.647-9.1-137.15 0-12.723 2.545-21.05 14.498-19.062 27.286l4.811 48.757h-33.423c-8.547 0-15.5 6.953-15.5 15.5v9.134c0 8.762 4.823 16.413 11.95 20.454-10.36 7.552-19.949 16.051-28.612 25.441-2.809 3.045-2.618 7.789.427 10.599 1.442 1.33 3.265 1.987 5.083 1.987 2.021 0 4.036-.812 5.514-2.414 11.686-12.667 25.185-23.601 40.116-32.566h42.655c4.142 0 7.5-3.357 7.5-7.5s-3.358-7.5-7.5-7.5h-53.635c-4.687 0-8.5-3.813-8.5-8.5v-9.134c0-.275.224-.5.5-.5h232.5c.276 0 .5.225.5.5v9.134c0 4.687-3.813 8.5-8.5 8.5h-132.863c-4.142 0-7.5 3.357-7.5 7.5s3.358 7.5 7.5 7.5h121.896c53.716 32.232 85.736 87.402 85.736 148 0 33.195-9.795 65.493-28.326 93.404-3.065 4.617-4.475 10.134-3.97 15.533 1.892 20.23-2.67 40.194-13.194 57.733-14.04 23.399-37.482 39.671-64.316 44.641-24.086 4.46-48.717 6.722-73.21 6.722-23.742 0-47.637-2.127-71.02-6.322-27.771-4.982-51.833-21.105-66.019-44.235-10.892-17.76-15.62-38.033-13.674-58.627.504-5.335-.91-10.821-3.982-15.449-18.529-27.91-28.323-60.207-28.323-93.399 0-32.847 9.599-64.852 27.76-92.555 2.271-3.465 1.304-8.113-2.161-10.385-3.463-2.27-8.113-1.304-10.384 2.16-19.767 30.153-30.215 65.003-30.215 100.779 0 5.814.279 11.602.826 17.35h-26.459c-17.838 0-32.35 14.513-32.35 32.351v41.416c0 22.405 18.228 40.634 40.633 40.634h50.127c1.956 15.302 7.135 30.066 15.414 43.567 16.42 26.774 44.178 45.421 76.157 51.157 24.254 4.353 49.04 6.559 73.669 6.559 25.407 0 50.957-2.346 75.941-6.972 31.061-5.753 58.196-24.588 74.447-51.674 7.946-13.243 12.934-27.689 14.847-42.638h50.131c22.405 0 40.633-18.228 40.633-40.634v-41.416c.001-17.839-14.511-32.352-32.349-32.352zm-289.283-274.817c43.552-8.71 87.716-8.71 131.266 0 4.827.966 7.975 5.525 7.165 10.382-.027.164-1.775 17.819-1.775 17.819h-142.046s-1.748-17.655-1.775-17.819c-.809-4.857 2.338-9.416 7.165-10.382zm-3.909 43.201h139.085l-1.789 18.133h-135.507zm-108.241 297.883h-21.016c-5 0-9.067-4.067-9.067-9.066v-8.283c0-.432.352-.783.783-.783h21.195c2.365 6.165 5.071 12.217 8.105 18.132zm-37.583 33.133c-14.134 0-25.633-11.499-25.633-25.634v-41.416c0-9.567 7.783-17.351 17.35-17.351h28.52c1.099 6.116 2.507 12.167 4.222 18.134h-16.176c-8.703 0-15.783 7.08-15.783 15.783v8.283c0 13.271 10.796 24.066 24.067 24.066h29.61c.656 1.032 1.321 2.059 1.999 3.08 1.179 1.775 1.727 3.814 1.545 5.741-.294 3.113-.449 6.218-.482 9.312h-49.239zm401.255-51.266h21.195c.432 0 .783.352.783.783v8.283c0 4.999-4.067 9.066-9.067 9.066h-21.017c3.035-5.914 5.74-11.966 8.106-18.132zm55.111 25.633c0 14.135-11.499 25.634-25.633 25.634h-49.241c-.032-3.06-.183-6.132-.47-9.209-.187-1.996.358-4.07 1.532-5.84.679-1.023 1.345-2.052 2.003-3.085h29.61c13.271 0 24.067-10.796 24.067-24.066v-8.283c0-8.703-7.08-15.783-15.783-15.783h-16.175c1.715-5.967 3.123-12.018 4.222-18.134h28.52c9.567 0 17.35 7.783 17.35 17.351v41.415z"/><path d="m412.598 260.569c-.452-22.369-9.798-43.975-26.315-60.839-16.521-16.869-37.93-26.654-60.281-27.554-23.724-.949-46.488 7.237-64.094 23.068-3.304 2.973-8.48 2.971-11.784 0-17.605-15.83-40.37-24.027-64.093-23.068-22.352.899-43.759 10.685-60.281 27.553-16.517 16.864-25.862 38.471-26.315 60.84-.63 31.132 14.304 59.686 40.08 76.927l-11.905 33.07c-7.874 21.87-5.53 45.845 6.429 65.776 11.367 18.945 30.345 32.118 52.069 36.142 23.194 4.294 46.551 6.441 69.908 6.441s46.715-2.147 69.909-6.441c21.724-4.023 40.702-17.196 52.069-36.142 11.959-19.932 14.302-43.906 6.429-65.776l-11.905-33.07c25.775-17.241 40.71-45.795 40.08-76.927zm-50.346 65.707c-4.592 2.882-6.59 8.68-4.752 13.786l12.811 35.584c6.341 17.615 4.454 36.925-5.178 52.979-9.155 15.259-24.441 25.868-41.938 29.108-44.576 8.255-89.779 8.255-134.354 0-17.497-3.24-32.783-13.85-41.938-29.108-9.632-16.054-11.52-35.364-5.178-52.979l12.81-35.583c1.84-5.107-.159-10.906-4.751-13.786-22.676-14.228-35.891-38.678-35.35-65.405.777-38.411 33.841-72.165 72.202-73.707 1.039-.042 2.073-.062 3.106-.062 18.667 0 36.445 6.79 50.354 19.297 9.077 8.161 22.767 8.161 31.843 0 14.681-13.2 33.658-20.04 53.461-19.234 38.36 1.542 71.424 35.296 72.201 73.707.541 26.726-12.673 51.176-35.349 65.403z"/><path d="m190.656 309.225c-.631 8.268 1.209 16.394 5.322 23.501 1.39 2.402 3.909 3.744 6.498 3.744 1.275 0 2.567-.325 3.75-1.01 3.585-2.075 4.809-6.663 2.734-10.248-2.59-4.476-3.748-9.609-3.349-14.845.949-12.428 11.034-22.539 23.459-23.52 5.258-.414 10.411.743 14.908 3.349 7.426 4.301 16.652 4.301 24.078 0 4.497-2.605 9.658-3.757 14.908-3.349 12.424.98 22.51 11.091 23.459 23.518.399 5.235-.758 10.369-3.348 14.846-2.074 3.585-.85 8.174 2.736 10.248 3.584 2.072 8.172.85 10.247-2.736 4.112-7.108 5.952-15.233 5.321-23.5-1.506-19.725-17.514-35.773-37.235-37.329-8.304-.66-16.465 1.185-23.606 5.321-2.746 1.592-6.295 1.592-9.041 0-7.14-4.137-15.302-5.981-23.606-5.321-19.722 1.557-35.73 17.606-37.235 37.331z"/><path d="m225.864 307.095c-2.929 2.93-2.929 7.678 0 10.607l8.283 8.283c1.464 1.464 3.384 2.196 5.303 2.196s3.839-.732 5.303-2.196c2.929-2.93 2.929-7.678 0-10.607l-8.283-8.283c-2.928-2.927-7.677-2.927-10.606 0z"/><path d="m275.564 307.095-8.283 8.283c-2.929 2.93-2.929 7.678 0 10.607 1.464 1.464 3.384 2.196 5.303 2.196s3.839-.732 5.303-2.196l8.283-8.283c2.929-2.93 2.929-7.678 0-10.607-2.928-2.927-7.677-2.927-10.606 0z"/><path d="m339.526 390.059c-8.578 8.986-20.901 14.141-33.808 14.141-16.511 0-31.706-8.374-39.655-21.854-2.124-3.602-5.879-5.756-10.043-5.76-.004 0-.006 0-.01 0-4.16 0-7.913 2.146-10.042 5.742-7.985 13.49-23.255 21.871-39.851 21.871-12.973 0-25.357-5.158-33.977-14.151-2.866-2.991-7.614-3.09-10.604-.226-2.991 2.866-3.091 7.614-.225 10.604 11.434 11.931 27.766 18.772 44.806 18.772 20.043 0 38.696-9.405 49.888-24.855 11.152 15.45 29.739 24.855 49.712 24.855 16.986 0 33.264-6.847 44.659-18.783 2.86-2.996 2.749-7.744-.247-10.604-2.995-2.857-7.743-2.749-10.603.248z"/><path d="m203.316 259.634c.978.427 1.996.629 2.999.629 2.891 0 5.645-1.681 6.876-4.499 1.659-3.796-.074-8.217-3.87-9.876-11.422-4.99-23.58-7.52-36.138-7.52-6.122 0-12.245.617-18.197 1.836-4.058.83-6.675 4.793-5.844 8.852s4.798 6.677 8.851 5.844c4.966-1.016 10.076-1.531 15.19-1.531 10.479-.001 20.617 2.107 30.133 6.265z"/><path d="m356.985 240.204c-5.953-1.219-12.075-1.836-18.197-1.836-12.558 0-24.716 2.53-36.138 7.52-3.795 1.659-5.528 6.08-3.87 9.876 1.231 2.818 3.986 4.499 6.876 4.499 1.002 0 2.021-.202 2.999-.629 9.516-4.158 19.654-6.267 30.132-6.267 5.114 0 10.225.516 15.19 1.531 4.056.826 8.021-1.787 8.851-5.844.832-4.057-1.785-8.02-5.843-8.85z"/></g></g></svg>