<svg id="Capa_1" enable-background="new 0 0 512 512" height="512" viewBox="0 0 512 512" width="512" xmlns="http://www.w3.org/2000/svg"><g><g><g><path d="m256 7.5c-27.614 0-50 22.386-50 50s22.386 50 50 50 50-22.386 50-50-22.386-50-50-50zm0 71.18c-11.697 0-21.18-9.483-21.18-21.18s9.483-21.18 21.18-21.18 21.18 9.483 21.18 21.18-9.483 21.18-21.18 21.18z" fill="#fdcd08"/></g><g><path d="m221.36 57.5c0-25.002 18.352-45.717 42.32-49.412-2.504-.386-5.068-.588-7.68-.588-27.614 0-50 22.386-50 50s22.386 50 50 50c2.612 0 5.176-.202 7.68-.588-23.968-3.695-42.32-24.41-42.32-49.412z" fill="#faab18"/></g><g><path d="m263.68 77.222c2.384.929 4.968 1.458 7.68 1.458 11.697 0 21.18-9.483 21.18-21.18s-9.483-21.18-21.18-21.18c-2.712 0-5.296.529-7.68 1.458 7.896 3.078 13.5 10.737 13.5 19.722s-5.604 16.644-13.5 19.722z" fill="#faab18"/></g><g><circle cx="256" cy="291.59" fill="#365f7e" r="212.91"/></g><g><circle cx="256" cy="291.59" fill="#b3dafe" r="166.35"/></g><g><path d="m65.95 291.59c0-113.752 89.208-206.663 201.48-212.603-3.785-.2-7.595-.307-11.43-.307-117.587 0-212.91 95.323-212.91 212.91s95.323 212.91 212.91 212.91c3.835 0 7.645-.107 11.43-.307-112.272-5.94-201.48-98.851-201.48-212.603z" fill="#2c4d66"/></g><g><path d="m112.51 291.59c0-88.03 68.38-160.078 154.92-165.952-3.778-.256-7.587-.398-11.43-.398-91.873 0-166.35 74.477-166.35 166.35s74.477 166.35 166.35 166.35c3.843 0 7.652-.142 11.43-.398-86.54-5.875-154.92-77.923-154.92-165.952z" fill="#8ac9fe"/></g><g><path d="m257.676 326.316c19.148 10.897 49.817 28.352 65.963 37.541 2.999 1.707 6.334-1.632 4.627-4.631l-37.538-65.958c-.592-1.041-.594-2.314-.002-3.355 10.897-19.148 28.352-49.817 37.541-65.963 1.707-2.999-1.632-6.334-4.631-4.627l-65.957 37.538c-1.041.592-2.314.594-3.355.002-19.148-10.897-49.817-28.352-65.963-37.541-2.999-1.707-6.334 1.632-4.627 4.631l37.538 65.958c.592 1.041.594 2.314.002 3.355-10.897 19.148-28.352 49.817-37.541 65.963-1.707 2.999 1.632 6.334 4.631 4.627l65.957-37.538c1.041-.592 2.314-.594 3.355-.002z" fill="#f6f1f1"/></g><g><g><path d="m285.082 317.994c24.003-6.591 62.449-17.148 82.69-22.707 3.76-1.032 3.757-6.364-.003-7.396l-82.683-22.705c-1.305-.358-2.324-1.374-2.682-2.679-6.591-24.003-17.149-62.449-22.707-82.69-1.032-3.76-6.364-3.757-7.396.003l-22.705 82.683c-.358 1.305-1.374 2.324-2.679 2.682-24.003 6.591-62.449 17.148-82.69 22.706-3.76 1.032-3.757 6.364.003 7.396l82.683 22.705c1.305.358 2.323 1.374 2.682 2.679 6.591 24.003 17.149 62.449 22.707 82.69 1.032 3.76 6.364 3.757 7.396-.003l22.705-82.683c.358-1.304 1.374-2.323 2.679-2.681z" fill="#e58e82"/></g><g><path d="m246.186 320.672c-.358-1.305-1.377-2.321-2.682-2.679l-82.683-22.705c-3.76-1.032-3.763-6.364-.003-7.396 20.241-5.558 58.687-16.115 82.69-22.706 1.305-.358 2.321-1.377 2.679-2.682l18.108-65.943c-1.728-6.293-3.3-12.018-4.597-16.742-1.032-3.76-6.364-3.756-7.396.003l-22.705 82.682c-.358 1.305-1.374 2.323-2.679 2.682-24.003 6.591-62.449 17.148-82.69 22.706-3.76 1.032-3.757 6.364.003 7.396l82.683 22.705c1.305.358 2.323 1.374 2.682 2.679 6.591 24.003 17.148 62.449 22.706 82.69 1.032 3.76 6.364 3.756 7.396-.003l4.597-16.739c-5.675-20.669-13.056-47.548-18.109-65.948z" fill="#e06c57"/></g></g></g><g><path d="m206 65c4.142 0 7.5-3.357 7.5-7.5 0-23.435 19.065-42.5 42.5-42.5s42.5 19.065 42.5 42.5c0 4.143 3.358 7.5 7.5 7.5s7.5-3.357 7.5-7.5c0-31.706-25.795-57.5-57.5-57.5s-57.5 25.794-57.5 57.5c0 4.143 3.358 7.5 7.5 7.5z"/><path d="m393.58 119.382c-3.236-2.588-7.954-2.062-10.542 1.172-2.587 3.234-2.062 7.954 1.172 10.541 49.062 39.245 77.2 97.743 77.2 160.495 0 113.264-92.147 205.41-205.41 205.41s-205.41-92.146-205.41-205.41 92.147-205.41 205.41-205.41c36.336 0 72.038 9.61 103.247 27.793 3.578 2.083 8.171.874 10.256-2.705s.874-8.171-2.705-10.256c-26.471-15.422-55.948-25.093-86.388-28.474 2.706-4.375 4.271-9.526 4.271-15.038 0-15.814-12.866-28.681-28.68-28.681s-28.68 12.866-28.68 28.681c0 5.506 1.562 10.653 4.263 15.025-49.638 5.436-95.618 27.393-131.436 63.212-41.63 41.63-64.557 96.979-64.557 155.854s22.927 114.224 64.557 155.854 96.978 64.555 155.852 64.555 114.224-22.927 155.854-64.557 64.557-96.979 64.557-155.854c-.001-67.333-30.192-130.101-82.831-172.207zm-151.26-61.882c0-7.544 6.137-13.681 13.68-13.681s13.68 6.137 13.68 13.681c0 7.543-6.137 13.68-13.68 13.68s-13.68-6.137-13.68-13.68z"/><path d="m133.909 291.588c0 5.17 3.35 9.563 8.336 10.933l56.328 15.468-21.36 37.532c-2.456 4.317-1.747 9.577 1.766 13.089 3.514 3.514 8.776 4.222 13.094 1.765l37.529-21.358 15.468 56.331c1.368 4.984 5.76 8.333 10.928 8.333 5.169 0 9.563-3.35 10.933-8.335l15.468-56.329 37.531 21.36c1.714.976 3.577 1.452 5.42 1.452 2.798 0 5.551-1.099 7.669-3.216 3.514-3.514 4.224-8.776 1.766-13.096l-21.358-37.528 56.331-15.469c4.984-1.368 8.333-5.76 8.333-10.929 0-5.17-3.35-9.562-8.335-10.932l-56.329-15.468 21.36-37.531c2.458-4.317 1.749-9.578-1.764-13.09-3.514-3.515-8.776-4.223-13.095-1.766l-37.528 21.359-15.468-56.33c-1.368-4.984-5.76-8.333-10.929-8.333-5.17 0-9.563 3.35-10.932 8.335l-15.468 56.328-37.531-21.36c-4.317-2.457-9.577-1.747-13.089 1.764-3.514 3.513-4.224 8.774-1.766 13.096l21.358 37.528-56.332 15.468c-4.985 1.368-8.334 5.76-8.334 10.929zm63.737 58.355 15.854-27.856 9.417 2.586 2.586 9.417zm116.707 0-27.856-15.854 2.586-9.417 9.417-2.586zm0-116.707-15.854 27.856-9.417-2.586-2.586-9.417zm-116.706 0 27.856 15.854-2.586 9.417-9.416 2.586zm31.257 39.182c3.834-1.053 6.872-4.091 7.926-7.928l19.17-69.813 19.172 69.817c1.053 3.834 4.09 6.87 7.928 7.925l69.813 19.171-69.817 19.172c-3.834 1.053-6.872 4.091-7.926 7.928l-19.17 69.813-19.172-69.817c-1.053-3.835-4.091-6.871-7.928-7.925l-69.814-19.171z"/><path d="m107.17 366.357c-3.612 2.027-4.896 6.6-2.869 10.211 30.771 54.817 88.898 88.871 151.699 88.871 95.861 0 173.85-77.988 173.85-173.85s-77.989-173.85-173.85-173.85-173.85 77.989-173.85 173.851c0 17.555 2.609 34.881 7.756 51.497 1.225 3.956 5.427 6.169 9.383 4.945 3.957-1.226 6.171-5.427 4.945-9.383-3.967-12.807-6.262-26.083-6.889-39.56h12.762c4.142 0 7.5-3.357 7.5-7.5s-3.358-7.5-7.5-7.5h-12.775c1.782-38.155 17.083-72.834 41.217-99.342l8.986 8.986c1.464 1.464 3.384 2.196 5.303 2.196s3.839-.732 5.303-2.197c2.929-2.929 2.929-7.677 0-10.606l-8.986-8.986c26.507-24.136 61.188-39.438 99.344-41.22v12.778c0 4.143 3.358 7.5 7.5 7.5s7.5-3.357 7.5-7.5v-12.778c38.155 1.782 72.835 17.083 99.343 41.218l-8.986 8.986c-2.929 2.93-2.929 7.678 0 10.607 1.464 1.464 3.384 2.196 5.303 2.196s3.839-.732 5.303-2.196l8.986-8.986c24.135 26.507 39.436 61.188 41.219 99.344h-12.776c-4.142 0-7.5 3.357-7.5 7.5s3.358 7.5 7.5 7.5h12.776c-1.783 38.156-17.084 72.836-41.22 99.344l-8.984-8.983c-2.929-2.928-7.678-2.928-10.606 0-2.929 2.93-2.929 7.678 0 10.607l8.983 8.983c-26.507 24.134-61.187 39.435-99.341 41.217v-12.773c0-4.143-3.358-7.5-7.5-7.5s-7.5 3.357-7.5 7.5v12.756c-37.277-1.766-72.33-16.621-99.369-41.176l9.009-9.009c2.929-2.93 2.929-7.678 0-10.607-2.929-2.928-7.678-2.928-10.606 0l-9.023 9.023c-8.037-8.817-15.153-18.597-21.13-29.245-2.027-3.612-6.599-4.894-10.21-2.869z"/></g></g></svg>