<svg id="Capa_1" enable-background="new 0 0 512 512" height="512" viewBox="0 0 512 512" width="512" xmlns="http://www.w3.org/2000/svg"><g><g><path d="m76.919 474.799 93.557-93.557-36.253-36.145-93.482 93.494z" fill="#909ba6"/><path d="m139.68 356.54-87.494 87.508-7.453-3.686-4.497-8.304 87.454-87.468 8.97 4.027z" fill="#7e8b96"/><path d="m185.691 270.034-9.542 22.498-10.334 14.28 40.151 38.981 16.792-9.088 5.327-5.556 13.898-4.849z" fill="#909ba6"/><path d="m185.69 270.03-19.871 36.778 12 11.99.531-.928 5.746-10.686c.988-1.828 3.494-2.126 4.871-.57 10.017 11.318 21.36 21.433 33.791 30.092l19.222-10.406z" fill="#7e8b96"/><path d="m206.393 354.398-30.26 30.26c-2.343 2.343-6.142 2.343-8.485 0l-28.048-28.048-10.258-12.258c-2.343-2.343-2.343-6.142 0-8.485l28.26-28.26c2.343-2.343 6.142-2.343 8.485 0l12.263 10.263 28.043 28.043c2.343 2.342 2.343 6.141 0 8.485z" fill="#ffe07d"/><path d="m178.35 317.87-38.75 38.74-12.26-12.26c-2.34-2.34-2.34-6.14 0-8.48l30.26-30.26c2.35-2.35 6.14-2.35 8.49 0z" fill="#ffd064"/><path d="m80.209 480.021-22.722 22.722c-2.343 2.343-6.142 2.343-8.485 0l-27.772-27.772-9.972-11.972c-2.343-2.343-2.343-6.142 0-8.485l20.722-20.722c2.343-2.343 6.142-2.343 8.485 0l11.977 9.977 27.767 27.767c2.343 2.343 2.343 6.141 0 8.485z" fill="#ffe07d"/><path d="m52.44 443.77-31.21 31.2-11.97-11.97c-2.35-2.34-2.35-6.14 0-8.49l22.72-22.72c2.34-2.34 6.14-2.34 8.48 0z" fill="#ffd064"/><path d="m159.213 181.5c0-96.098 75.897-171.606 171.995-171.606 43.2 0 80.988 14.364 111.41 40.426 6.82 5.843 20.054 18.009 20.054 18.009 26.075 30.424 41.828 69.958 41.828 113.171 0 96.098-77.902 174-174 174-46.577 0-88.879-18.301-120.109-48.103 0 0-5.924-7.09-9.093-10.652-27.346-30.737-42.085-70.868-42.085-115.245z" fill="#909ba6"/><path d="m464.712 70.754c-31.14-29.3-73.072-47.254-119.212-47.254-96.1 0-174 77.9-174 174 0 42.07 14.93 80.66 39.78 110.74-33.72-31.73-54.78-76.78-54.78-126.74 0-96.1 77.9-174 174-174 54.03 0 102.292 24.614 134.212 63.254z" fill="#7e8b96"/><path d="m196.915 181.5c0-74.558 59.027-133.138 133.585-133.138 37.567 0 71.431 13.826 95.904 38.59 1.804 1.825 5.375 5.284 5.375 5.284 20.987 23.794 33.721 55.042 33.721 89.264 0 74.558-60.442 135-135 135-34.877 0-66.664-13.225-90.621-34.935 0 0-8.529-10.078-12.666-15.076-19.331-23.357-30.298-52.302-30.298-84.989z" fill="#f9f8f9"/><path d="m432.24 92.76c-23.73-20.71-54.77-33.26-88.74-33.26-74.56 0-135 60.44-135 135 0 33.97 12.55 65.01 33.26 88.74-28.35-24.75-46.26-61.15-46.26-101.74 0-74.56 60.44-135 135-135 40.59 0 76.99 17.91 101.74 46.26z" fill="#e8e8e8"/><g><g><path d="m317.503 194.5c27.063.002 49-21.934 48.997-48.997-.001-10.843-3.524-20.864-9.487-28.981 0 0-.734-.797-1.067-1.221-8.973-11.408-21.328-15.693-36.967-15.695-27.063-.002-47.541 18.55-47.539 45.613.001 15.875 4.707 30.156 16.412 39.111.262.201.693.7.693.7 8.114 5.953 18.125 9.469 28.958 9.47z" fill="#df646e"/><path d="m279.106 156.105c0 10.832 3.513 20.842 9.467 28.945-12.169-8.916-20.073-23.317-20.073-39.551 0-27.066 21.933-49 49-49 16.234 0 30.638 7.907 39.554 20.075-8.103-5.953-18.115-9.47-28.948-9.47-27.067.002-49 21.935-49 49.001z" fill="#dc4955"/></g><circle cx="317.5" cy="145.5" fill="#e27f86" r="20"/></g><g><path d="m353.877 275.13c10.574-2.055 20.385-7.449 27.728-15.624 3.125-3.48 4.324-8.018 3.666-12.307 0 0-1.207-1.988-1.548-2.923-.815-2.232-2.279-3.089-4.17-4.787-6.164-5.535-14.208-5.332-19.744.83-4.66 5.189-12.193 7.619-19.192 6.192-8.117-1.657-16.067 3.032-17.723 11.149-.492 2.414-.355 4.142.266 6.362.207.74.271 2.514.271 2.514 1.919 4.229 5.769 7.511 10.667 8.51 6.618 1.35 13.341 1.336 19.779.084z" fill="#afefa5"/></g><g><path d="m385.27 247.2c-6.52-1.56-14.11.17-19.23 4.92-5.83 5.41-15.01 8.16-23.4 7.01-7.54-1.05-15.11 2.085-19.21 7.406-1.25-2.78-1.69-5.965-1.03-9.185 1.65-8.12 9.58-13.36 17.69-11.7 7 1.43 14.54-1 19.2-6.19 5.53-6.16 15.02-6.67 21.18-1.14 2.68 2.419 4.3 5.569 4.8 8.879z" fill="#8ce1a4"/></g><g><path d="m426.643 199.637c5.615-5.615 7.193-13.738 4.734-20.764 0 0-1.808-2.232-2.428-3.309-.859-1.492-1.565-2.407-2.84-3.683-7.812-7.812-18.917-7.739-26.728.072s-8.604 19.63-.792 27.442c1.373 1.373 2.938 2.374 4.559 3.265.972.534 2.736 1.712 2.736 1.712 7.024 2.458 15.145.879 20.759-4.735z" fill="#ffe07d"/><path d="m405.883 204.373c-2.753-.962-5.336-2.541-7.523-4.729-7.816-7.816-7.806-20.478 0-28.284s20.468-7.816 28.284 0c2.187 2.187 3.771 4.761 4.733 7.514-7.024-2.461-15.142-.877-20.761 4.742s-7.194 13.733-4.733 20.757z" fill="#ffd064"/></g></g><g><path d="m196.089 166.755c-4.145-.245-7.668 2.955-7.887 7.092-.135 2.532-.203 5.107-.203 7.653 0 78.575 63.925 142.5 142.5 142.5s142.501-63.925 142.501-142.5-63.925-142.5-142.5-142.5c-30.723 0-59.983 9.625-84.62 27.834-24.144 17.845-41.771 42.302-50.975 70.727-1.276 3.94.884 8.17 4.825 9.445 3.942 1.277 8.169-.884 9.446-4.824 17.08-52.744 65.836-88.182 121.324-88.182 70.304 0 127.5 57.196 127.5 127.5s-57.196 127.5-127.5 127.5-127.5-57.196-127.5-127.5c0-2.282.061-4.59.181-6.858.22-4.137-2.955-7.668-7.092-7.887z"/><path d="m330.5 0c-100.08 0-181.5 81.421-181.5 181.5 0 33.988 9.399 65.818 25.722 93.043l-12.097 22.351c-3.694-.197-7.453 1.097-10.268 3.912l-29.815 29.815c-2.216 2.886-4.738 6.331-3.693 12.204l-79.978 79.978c-4.276-.849-8.887.376-12.195 3.684l-22.721 22.723c-2.551 2.55-3.955 5.939-3.955 9.546s1.404 6.996 3.954 9.546l39.744 39.743c2.55 2.551 5.94 3.955 9.546 3.955s6.997-1.404 9.546-3.954l22.722-22.722c3.307-3.307 4.533-7.918 3.684-12.195l23.169-23.168c2.929-2.929 2.929-7.678 0-10.606-2.928-2.929-7.677-2.93-10.606-.001l-21.562 21.562-29.111-29.111 76.774-76.774 29.112 29.111-30.606 30.606c-2.929 2.93-2.929 7.678 0 10.607 1.464 1.464 3.384 2.196 5.303 2.196s3.839-.732 5.303-2.196l32.213-32.213c3.435.594 7.893.118 12.194-3.684l29.814-29.814c1.738-1.731 4.083-5.794 3.919-10.273l22.344-12.093c27.226 16.323 59.056 25.722 93.044 25.722 71.345 0 136.354-42.059 165.619-107.148 1.699-3.777.013-8.217-3.765-9.916-3.779-1.695-8.218-.012-9.916 3.766-26.848 59.713-86.487 98.298-151.938 98.298-91.809 0-166.5-74.691-166.5-166.5s74.691-166.5 166.5-166.5 166.5 74.691 166.5 166.5c0 12.271-1.34 24.507-3.982 36.369-.9 4.043 1.647 8.051 5.69 8.951 4.044.903 8.051-1.647 8.952-5.689 2.88-12.932 4.34-26.266 4.34-39.631 0-100.079-81.42-181.5-181.5-181.5zm-277.256 496.378-37.623-37.622 20.601-20.601 37.623 37.623zm118.589-118.588-37.623-37.622 27.693-27.693 37.623 37.622zm51.484-49.915-16.091 8.709-31.809-31.809 8.709-16.091c10.991 14.97 24.22 28.198 39.191 39.191z"/><path d="m251.5 138c-4.142 0-7.5 3.357-7.5 7.5s3.358 7.5 7.5 7.5h10.013c1.33 9.977 5.266 19.137 11.109 26.771l-7.094 7.094c-2.929 2.93-2.929 7.678 0 10.607 1.464 1.464 3.384 2.196 5.303 2.196s3.839-.732 5.303-2.196l7.095-7.095c7.634 5.844 16.794 9.78 26.771 11.109v10.014c0 4.143 3.358 7.5 7.5 7.5s7.5-3.357 7.5-7.5v-10.013c9.977-1.33 19.137-5.266 26.771-11.11l7.094 7.094c1.464 1.465 3.384 2.197 5.303 2.197s3.839-.732 5.303-2.196c2.929-2.929 2.929-7.678 0-10.606l-7.095-7.095c5.844-7.634 9.78-16.794 11.11-26.771h10.014c4.142 0 7.5-3.357 7.5-7.5s-3.358-7.5-7.5-7.5h-10.013c-1.33-9.977-5.266-19.137-11.109-26.771l7.094-7.094c2.929-2.93 2.929-7.678 0-10.607-2.929-2.928-7.678-2.928-10.606 0l-7.095 7.095c-7.634-5.844-16.794-9.78-26.771-11.109v-10.014c0-4.143-3.358-7.5-7.5-7.5s-7.5 3.357-7.5 7.5v10.013c-9.977 1.33-19.137 5.266-26.771 11.109l-7.095-7.095c-2.929-2.928-7.678-2.928-10.606 0-2.929 2.93-2.929 7.678 0 10.607l7.094 7.094c-5.844 7.634-9.779 16.794-11.109 26.771h-10.013zm66-34c22.883 0 41.5 18.617 41.5 41.5s-18.617 41.5-41.5 41.5-41.5-18.617-41.5-41.5 18.617-41.5 41.5-41.5z"/><path d="m317.5 168c12.407 0 22.5-10.094 22.5-22.5s-10.093-22.5-22.5-22.5-22.5 10.094-22.5 22.5 10.093 22.5 22.5 22.5zm0-30c4.136 0 7.5 3.364 7.5 7.5s-3.364 7.5-7.5 7.5-7.5-3.364-7.5-7.5 3.364-7.5 7.5-7.5z"/><path d="m412.5 208c12.407 0 22.5-10.094 22.5-22.5s-10.093-22.5-22.5-22.5-22.5 10.094-22.5 22.5 10.093 22.5 22.5 22.5zm0-30c4.136 0 7.5 3.364 7.5 7.5s-3.364 7.5-7.5 7.5-7.5-3.364-7.5-7.5 3.364-7.5 7.5-7.5z"/><path d="m385.48 232.743c-9.227-8.287-23.48-7.524-31.774 1.705-2.871 3.196-7.739 4.746-12.111 3.854-10.496-2.387-24.268 4.94-26.545 17.547-2.479 12.155 5.393 24.063 17.548 26.545 6.356 1.238 14.324 1.738 22.71.098 12.289-2.388 23.609-8.771 31.877-17.975 8.29-9.23 7.525-23.484-1.705-31.774zm-9.649 21.967c-6.083 6.674-14.375 11.306-23.384 13.057 0 0 0 0-.001 0-5.606 1.092-11.276 1.068-16.848-.07-4.053-.827-6.677-4.797-5.851-8.849.722-3.083 2.652-6.245 8.117-5.912 8.916.793 20.428-.929 27.001-8.464 2.954-3.289 8.179-3.355 11.202.043 2.569 2.889 2.368 7.338-.236 10.195z"/><path d="m239.722 225.918c3.643 5.203 8.111 6.471 10.78 7.229 1.912.543 2.033.608 2.589 1.402s.576.931.432 2.912c-.201 2.767-.537 7.398 3.106 12.604 3.643 5.201 8.11 6.467 10.779 7.224 1.909.541 2.029.606 2.583 1.397 1.459 2.084 3.786 3.199 6.15 3.199 1.486 0 2.986-.44 4.296-1.357 3.393-2.376 4.217-7.053 1.841-10.445-3.643-5.202-8.111-6.469-10.78-7.226-1.909-.541-2.029-.606-2.583-1.396-.557-.795-.577-.931-.433-2.912.201-2.768.537-7.399-3.106-12.603-3.644-5.203-8.111-6.471-10.78-7.229-1.911-.543-2.032-.608-2.588-1.402-2.376-3.394-7.053-4.217-10.445-1.842-3.393 2.376-4.217 7.052-1.841 10.445z"/></g></g></svg>