<svg id="Capa_1" enable-background="new 0 0 511.992 511.992" height="512" viewBox="0 0 511.992 511.992" width="512" xmlns="http://www.w3.org/2000/svg"><g><g><g><path d="m96.298 332.235h31.013v135.914h-31.013z" fill="#fdcd08" transform="matrix(.707 -.707 .707 .707 -250.232 196.271)"/></g><g><path d="m384.681 43.852h31.013v135.914h-31.013z" fill="#fdcd08" transform="matrix(.707 -.707 .707 .707 38.152 315.723)"/></g><g><path d="m266.678 161.855h31.013v135.914h-31.013z" fill="#fdcd08" transform="matrix(.707 -.707 .707 .707 -79.852 266.845)"/></g><g><path d="m214.301 214.231h31.013v135.914h-31.013z" fill="#fdcd08" transform="matrix(.707 -.707 .707 .707 -132.228 245.15)"/></g><g><path d="m59.668 347.407h31.013v32.308h-31.013z" fill="#faab18" transform="matrix(.707 -.707 .707 .707 -235.059 159.641)"/></g><g><path d="m348.051 59.024h31.013v32.308h-31.013z" fill="#faab18" transform="matrix(.707 -.707 .707 .707 53.324 279.093)"/></g><g><path d="m228.902 177.502h31.013v29.068h-31.013z" fill="#faab18" transform="matrix(.707 -.707 .707 .707 -64.205 229.069)"/></g><g><path d="m176.526 229.878h31.013v29.068h-31.013z" fill="#faab18" transform="matrix(.707 -.707 .707 .707 -116.581 207.374)"/></g><g><path d="m295.7 123.593c22.935 2.35 45.239 12.306 62.814 29.878.002.002.004.004.006.006l.006.006c22.63 21.954 59.386 21.676 81.681-.619l28.438-28.438c3.887-3.887 10.188-3.887 14.075 0l18.861 18.861c3.887 3.887 3.887 10.188 0 14.075l-29.052 29.052c-23.002 23.002-54.106 32.959-84.126 29.883-22.936-2.35-45.239-12.306-62.814-29.878-.002-.002-.004-.004-.006-.006l-.006-.005c-22.968-21.617-60.007-21.055-82.309 1.247l-55.62 55.62c-22.302 22.302-22.863 59.341-1.247 82.309l.006.006c.002.002.004.004.006.005 17.572 17.575 27.528 39.878 29.878 62.814 3.076 30.02-6.881 61.124-29.883 84.126l-29.051 29.051c-3.887 3.887-10.188 3.887-14.075 0l-18.861-18.861c-3.887-3.887-3.887-10.188 0-14.075l28.438-28.438c22.295-22.295 22.573-59.051.619-81.681l-.006-.006c-.002-.002-.004-.004-.006-.006-17.572-17.575-27.528-39.878-29.878-62.814-3.076-30.02 6.881-61.124 29.883-84.126l58.103-58.103c23.003-23.002 54.106-32.959 84.126-29.883z" fill="#b3dafe"/></g><g><path d="m137.342 481.57 28.438-28.438c22.295-22.295 22.573-59.051.619-81.681l-.006-.006c-.002-.002-.004-.004-.006-.006-17.572-17.575-27.528-39.878-29.878-62.814-3.076-30.02 6.881-61.124 29.883-84.126l58.103-58.103c23.002-23.002 54.106-32.959 84.126-29.883 22.935 2.35 45.239 12.306 62.814 29.878.002.002.004.004.006.006l.006.006c22.63 21.954 59.386 21.676 81.681-.619l28.438-28.438c3.887-3.887 10.188-3.887 14.075 0l-12.921-12.921c-3.887-3.887-10.188-3.887-14.075 0l-28.438 28.438c-22.295 22.295-59.051 22.573-81.681.619l-.006-.006c-.002-.002-.004-.004-.006-.006-17.575-17.572-39.878-27.527-62.814-29.878-30.02-3.076-61.124 6.881-84.126 29.883l-58.103 58.103c-23.002 23.002-32.959 54.106-29.883 84.126 2.35 22.935 12.306 45.239 29.878 62.814.002.002.004.004.006.006l.006.006c21.954 22.63 21.676 59.386-.619 81.681l-28.438 28.438c-3.887 3.887-3.887 10.189 0 14.075l12.921 12.921c-3.887-3.886-3.887-10.188 0-14.075z" fill="#8ac9fe"/></g><g><path d="m388.403 216.296c-2.35-22.935-12.306-45.239-29.878-62.814-.002-.002-.004-.004-.006-.006l-.006-.006c-21.954-22.63-21.676-59.386.619-81.681l28.438-28.438c3.887-3.887 3.887-10.188 0-14.075l-18.86-18.861c-3.887-3.887-10.188-3.887-14.075 0l-29.052 29.052c-23.002 23.002-32.959 54.106-29.883 84.126 2.35 22.936 12.306 45.239 29.878 62.814.002.002.004.004.006.005l.006.006c21.617 22.968 21.055 60.006-1.247 82.309l-55.62 55.62c-22.302 22.302-59.341 22.863-82.309 1.247l-.006-.005c-.002-.002-.004-.004-.006-.006-17.575-17.572-39.878-27.527-62.814-29.878-30.02-3.076-61.124 6.881-84.126 29.883l-29.051 29.052c-3.887 3.887-3.887 10.189 0 14.075l18.861 18.861c3.887 3.887 10.188 3.887 14.075 0l28.438-28.438c22.295-22.295 59.051-22.573 81.681-.619l.006.006c.002.002.004.004.006.006 17.575 17.572 39.878 27.527 62.814 29.878 30.02 3.076 61.124-6.881 84.126-29.883l58.103-58.103c23.001-23.004 32.958-54.107 29.882-84.127z" fill="#e58e82"/></g><g><path d="m23.585 367.814 29.051-29.051c23.002-23.002 54.106-32.959 84.126-29.883 22.935 2.35 45.239 12.306 62.814 29.878.002.002.004.004.006.006l.006.005c22.968 21.617 60.006 21.055 82.309-1.247l27.81-27.81 27.81-27.81c22.302-22.302 22.863-59.341 1.247-82.309l-.005-.006c-.002-.002-.004-.004-.006-.006-17.572-17.575-27.528-39.878-29.878-62.814-3.076-30.02 6.881-61.124 29.883-84.126l29.052-29.051c3.887-3.887 10.188-3.887 14.075 0l-13.175-13.175c-3.887-3.887-10.189-3.887-14.075 0l-29.052 29.052c-23.002 23.002-32.959 54.106-29.883 84.126 2.35 22.936 12.306 45.239 29.878 62.814.002.002.004.004.006.005l.006.006c21.617 22.968 21.056 60.006-1.247 82.309l-27.81 27.81-27.81 27.81c-22.302 22.302-59.341 22.863-82.309 1.247l-.006-.005c-.002-.002-.004-.004-.006-.006-17.575-17.572-39.878-27.527-62.814-29.878-30.02-3.076-61.124 6.881-84.126 29.883l-29.051 29.052c-3.887 3.887-3.887 10.189 0 14.075l13.174 13.174c-3.886-3.886-3.886-10.188 0-14.075z" fill="#e06c57"/></g></g><g><path d="m187.363 185.188c1.919 0 3.839-.732 5.303-2.197l24.211-24.211c13.841-13.841 31.289-23.04 50.457-26.601 4.072-.757 6.76-4.672 6.004-8.744-.757-4.072-4.671-6.763-8.744-6.004-22.161 4.118-42.329 14.748-58.323 30.743l-24.211 24.211c-2.929 2.929-2.929 7.678 0 10.606 1.464 1.464 3.384 2.197 5.303 2.197z"/><path d="m506.884 137.982-18.861-18.861c-6.806-6.805-17.878-6.805-24.682 0l-11.653 11.653-70.467-70.467 11.652-11.652c3.296-3.296 5.112-7.679 5.112-12.341s-1.816-9.045-5.112-12.341l-18.86-18.861c-3.296-3.296-7.678-5.112-12.34-5.112s-9.045 1.816-12.341 5.112l-29.052 29.052c-23.797 23.797-35.476 56.672-32.041 90.194 1.454 14.193 5.659 27.93 12.24 40.443-21.814-5.077-45.781.818-62.514 17.549l-55.62 55.621c-16.738 16.738-22.619 40.714-17.547 62.514-10.658-5.606-22.208-9.465-34.168-11.391-1.142-26.96 8.937-53.004 28.144-72.211l12.583-12.583c2.929-2.929 2.929-7.678 0-10.606-2.929-2.929-7.678-2.929-10.606 0l-12.583 12.584c-21.716 21.716-33.321 50.992-32.577 81.42-30.433-.746-59.713 10.87-81.433 32.59l-29.05 29.049c-6.805 6.805-6.805 17.877 0 24.682l18.861 18.861c3.402 3.402 7.872 5.104 12.341 5.103 4.469 0 8.938-1.701 12.341-5.104l11.653-11.653 70.467 70.467-11.653 11.653c-6.805 6.805-6.805 17.877 0 24.682l18.861 18.861c3.402 3.402 7.872 5.104 12.341 5.104s8.938-1.701 12.341-5.104l29.051-29.051c15.407-15.406 25.881-34.781 30.291-56.029.842-4.056-1.763-8.026-5.819-8.868-4.055-.844-8.026 1.763-8.868 5.819-3.814 18.377-12.878 35.138-26.211 48.471l-29.051 29.051c-.957.957-2.512.956-3.469 0l-18.861-18.861c-.625-.625-.718-1.355-.718-1.734s.093-1.109.718-1.734l28.438-28.438c16.604-16.604 22.394-40.187 17.343-61.674 12.401 6.455 25.986 10.59 40.021 12.028 33.524 3.435 66.396-8.243 90.194-32.041l28.131-28.131c2.929-2.929 2.929-7.678 0-10.606-2.929-2.929-7.678-2.929-10.606 0l-28.131 28.131c-20.593 20.593-49.045 30.699-78.058 27.726-21.933-2.248-42.615-12.079-58.239-27.684-.016-.016-.032-.032-.048-.048-.027-.027-.054-.053-.081-.08-25.61-24.846-66.975-24.532-92.206.699l-28.438 28.438c-.956.956-2.513.956-3.469 0l-18.861-18.861c-.956-.957-.956-2.512 0-3.469l29.051-29.051c20.593-20.593 49.045-30.701 78.058-27.726 21.931 2.247 42.61 12.077 58.234 27.678.016.016.031.032.047.047.053.054.114.112.169.164 12.709 11.962 29.17 17.914 45.625 17.912 17.14-.001 34.272-6.462 47.127-19.317l55.62-55.621c25.196-25.196 25.827-66.804 1.405-92.752-.052-.055-.11-.116-.164-.169-.014-.015-.029-.029-.043-.043-15.605-15.625-25.435-36.305-27.682-58.238-2.973-29.014 7.133-57.465 27.726-78.058l29.052-29.052c.625-.625 1.354-.718 1.734-.718s1.109.093 1.734.719l18.861 18.861c.625.625.718 1.354.718 1.734s-.093 1.109-.719 1.734l-28.437 28.439c-25.224 25.225-25.545 66.571-.721 92.183.038.04.076.079.113.116 15.626 15.628 25.471 36.325 27.721 58.275 2.973 29.015-7.133 57.466-27.726 78.059l-5.251 5.251c-2.929 2.929-2.929 7.678 0 10.606 2.929 2.929 7.678 2.929 10.606 0l5.251-5.251c21.715-21.715 33.332-50.99 32.59-81.417 30.426.742 59.703-10.875 81.418-32.592l29.052-29.052c6.806-6.805 6.806-17.877.001-24.682zm-358.727 225.838c13.572 14.04 17.363 34.182 11.457 51.646l-63.084-63.084c17.456-5.903 37.587-2.12 51.627 11.438zm-65.547-4.145 69.711 69.711c-1.436 1.928-10.945 11.701-10.945 11.701l-70.466-70.467s9.773-9.509 11.7-10.945zm148.073-148.829 70.467 70.467-19.84 19.841-70.467-70.467zm-38.968 109.434c-13.771-14.758-17.137-35.972-10.269-53.917l64.188 64.187c-17.946 6.867-39.161 3.5-53.919-10.27zm67.429 2.567-69.994-69.994c1.178-1.48 11.086-11.559 11.086-11.559l70.467 70.467s-10.08 9.908-11.559 11.086zm52.612-52.14-70.467-70.467s10.079-9.908 11.559-11.086l69.994 69.994c-1.178 1.479-11.086 11.559-11.086 11.559zm18.79-25.069-64.188-64.188c17.948-6.868 39.166-3.499 53.924 10.276 13.766 14.758 17.131 35.969 10.264 53.912zm40.069-174.724 70.467 70.467s-9.773 9.509-11.7 10.945l-69.712-69.711c1.436-1.928 10.945-11.701 10.945-11.701zm-6.777 77.27c-13.575-14.041-17.367-34.184-11.46-51.649l63.085 63.084c-17.455 5.903-37.585 2.121-51.625-11.435zm132.44 3.874-29.052 29.052c-19.208 19.208-45.252 29.274-72.213 28.131-1.9-11.791-5.688-23.179-11.168-33.711 4.991 1.171 10.093 1.768 15.198 1.768 16.864-.001 33.725-6.389 46.467-19.131l28.438-28.438c.956-.956 2.513-.956 3.469 0l18.861 18.861c.956.955.956 2.511 0 3.468z"/></g></g></svg>