<svg id="Capa_1" enable-background="new 0 0 512 512" height="512" viewBox="0 0 512 512" width="512" xmlns="http://www.w3.org/2000/svg"><g><g><path d="m280.85 7.514h41.402c36.524 0 66.238 29.715 66.238 66.238v54.7h-33.133v-54.7c0-18.254-14.851-33.105-33.105-33.105h-41.402z" fill="#dff8fa"/><path d="m322.253 7.514h-23c36.524 0 66.238 29.715 66.238 66.238v54.7h23v-54.7c0-36.523-29.715-66.238-66.238-66.238z" fill="#c3f2f7"/><path d="m239.504 7.514h41.417c9.15 0 16.567 7.417 16.567 16.567s-7.417 16.567-16.567 16.567h-41.417z" fill="#413e82"/><ellipse cx="239.504" cy="24.081" fill="#2f2c59" rx="16.567" ry="16.567" transform="matrix(.161 -.987 .987 .161 177.174 256.582)"/><path d="m106.901 359.628h-49.702c-28.955 10.235-49.699 37.849-49.699 70.308 0 41.173 33.377 74.55 74.55 74.55s74.55-33.377 74.55-74.55c0-32.459-20.745-60.074-49.699-70.308zm-24.851 111.725c-22.874 0-41.417-18.543-41.417-41.417 0-13.549 6.506-25.579 16.565-33.135h49.703c10.059 7.556 16.565 19.586 16.565 33.135.001 22.874-18.542 41.417-41.416 41.417z" fill="#413e82"/><path d="m106.901 359.628h-23c28.955 10.234 49.699 37.848 49.699 70.308 0 37.261-27.338 68.134-63.05 73.665 3.749.581 7.589.885 11.5.885 41.173 0 74.55-33.377 74.55-74.55 0-32.459-20.745-60.074-49.699-70.308z" fill="#2f2c59"/><path d="m106.881 145.631h33.133v90.943h-33.133z" fill="#dff8fa"/><path d="m117.015 145.631h23v90.943h-23z" fill="#c3f2f7"/><path d="m173.151 123.345-5.146 20.585c-1.844 7.375-8.47 12.549-16.072 12.549h-56.964c-7.602 0-14.228-5.174-16.072-12.549l-5.146-20.585v-11.338h99.4z" fill="#f3ffff"/><path d="m150.151 112.007v11.338l-5.146 20.585c-1.844 7.375-8.47 12.549-16.072 12.549h23c7.602 0 14.228-5.174 16.072-12.549l5.146-20.585v-11.338z" fill="#dff9f9"/><g><path d="m189.712 123.345h-115.961c-18.299 0-33.133-14.834-33.133-33.133 0-8.57 7.841-14.998 16.245-13.318l53.72 10.744c8.558 1.712 17.264 2.574 25.992 2.574h53.138c12.315 0 20.325 12.96 14.818 23.975-2.808 5.613-8.544 9.158-14.819 9.158z" fill="#413e82"/><path d="m189.712 90.212h-23c12.315 0 20.325 12.96 14.818 23.976-2.806 5.613-8.543 9.158-14.818 9.158h23c6.275 0 12.011-3.545 14.818-9.158 5.507-11.016-2.503-23.976-14.818-23.976z" fill="#2f2c59"/></g><g><path d="m355.4 181.436h-132.533c-86.781 0-157.383 70.602-157.383 157.383l14.516 18.636 18.617-18.636c0-68.511 55.738-124.25 124.25-124.25h132.533z" fill="#f6df59"/></g><g><path d="m371.967 239.401c-73.206 0-132.552 59.345-132.552 132.552 0 73.206 59.346 132.552 132.552 132.552s132.552-59.346 132.552-132.552c0-73.207-59.346-132.552-132.552-132.552zm0 231.952c-54.897 0-99.4-44.503-99.4-99.4s44.503-99.4 99.4-99.4 99.4 44.503 99.4 99.4-44.503 99.4-99.4 99.4z" fill="#413e82"/><path d="m371.967 239.401c-3.875 0-7.709.176-11.5.502 67.82 5.83 121.052 62.719 121.052 132.05s-53.232 126.22-121.052 132.05c3.791.326 7.625.502 11.5.502 73.206 0 132.552-59.346 132.552-132.552 0-73.207-59.346-132.552-132.552-132.552z" fill="#2f2c59"/><g><path d="m347.117 152.07h49.7v203.331h-49.7z" fill="#f6df59"/><path d="m373.817 152.07h23v203.331h-23z" fill="#edbf50"/></g><ellipse cx="371.967" cy="371.971" fill="#f3ffff" rx="33.133" ry="33.133" transform="matrix(.707 -.707 .707 .707 -154.077 371.968)"/><g><path d="m449.095 356.462-25.133-43.532c-2.209-3.826-.898-8.719 2.928-10.928l14.838-8.567c3.826-2.209 8.719-.898 10.928 2.928l25.133 43.532c2.209 3.826.898 8.719-2.928 10.928l-14.838 8.567c-3.826 2.21-8.718.899-10.928-2.928z" fill="#f3ffff"/><path d="m477.79 339.896-25.133-43.532c-2.209-3.826-7.102-5.137-10.928-2.928l-10.319 5.958 23.384 40.503c2.209 3.826.898 8.719-2.928 10.928l-4.519 2.609 1.749 3.029c2.209 3.826 7.102 5.137 10.928 2.928l14.838-8.567c3.826-2.209 5.137-7.102 2.928-10.928z" fill="#dff9f9"/><path d="m291.277 447.579-25.133-43.532c-2.209-3.826-.898-8.719 2.928-10.928l14.838-8.567c3.826-2.209 8.719-.898 10.928 2.928l25.133 43.532c2.209 3.826.898 8.719-2.928 10.928l-14.838 8.567c-3.826 2.209-8.719.898-10.928-2.928z" fill="#f3ffff"/><path d="m319.971 431.012-25.133-43.532c-2.209-3.826-7.102-5.137-10.928-2.928l-10.303 5.948 23.389 40.512c2.209 3.826.898 8.719-2.928 10.928l-4.535 2.618 1.744 3.02c2.209 3.826 7.102 5.137 10.928 2.928l14.838-8.567c3.826-2.208 5.137-7.1 2.928-10.927z" fill="#dff9f9"/></g><path d="m342.975 123.453c-9.15 0-16.567 7.417-16.567 16.567 0 9.149 7.417 16.567 16.567 16.567h57.983c9.15 0 16.567-7.417 16.567-16.567s-7.417-16.567-16.567-16.567z" fill="#f3ffff"/><g fill="#dff9f9"><path d="m400.958 123.453h-23c9.149 0 16.567 7.417 16.567 16.567s-7.417 16.567-16.567 16.567h23c9.149 0 16.567-7.417 16.567-16.567s-7.417-16.567-16.567-16.567z"/><path d="m371.967 338.838c-4.044 0-7.917.727-11.5 2.053 12.63 4.675 21.633 16.825 21.633 31.08s-9.004 26.405-21.633 31.08c3.583 1.326 7.456 2.053 11.5 2.053 18.299 0 33.133-14.834 33.133-33.133s-14.834-33.133-33.133-33.133z"/></g></g><path d="m57.2 413.369v-70.408c0-2.287 1.854-4.142 4.142-4.142h41.417c2.287 0 4.142 1.854 4.142 4.142v70.408c0 4.575-3.709 8.283-8.283 8.283h-33.135c-4.574.001-8.283-3.708-8.283-8.283z" fill="#f3ffff"/><path d="m102.758 338.819h-23.018c2.287 0 4.142 1.854 4.142 4.142v70.408c0 4.575-3.709 8.283-8.283 8.283h23.019c4.575 0 8.283-3.708 8.283-8.283v-70.408c-.001-2.288-1.855-4.142-4.143-4.142z" fill="#dff9f9"/></g><path d="m404.317 235.675v-71.829c11.686-1.639 20.708-11.697 20.708-23.827 0-13.27-10.796-24.066-24.066-24.066h-4.968v-42.2c0-40.659-33.079-73.738-73.738-73.738h-82.748c-13.271 0-24.067 10.796-24.067 24.066 0 13.271 10.796 24.067 24.067 24.067h82.748c14.119 0 25.605 11.486 25.605 25.605v42.2h-4.882c-13.271 0-24.067 10.796-24.067 24.066 0 12.131 9.023 22.188 20.709 23.827v10.09h-116.75c-26.688 0-52.385 6.348-75.344 18.173v-28.023h4.416c11.063 0 20.664-7.497 23.348-18.23l3.726-14.903h10.706c9.174 0 17.422-5.098 21.526-13.304 3.757-7.515 3.363-16.269-1.054-23.416s-12.07-11.414-20.472-11.414h-53.133c-8.214 0-16.464-.817-24.521-2.428l-53.72-10.744c-6.219-1.244-12.596.349-17.5 4.369-4.903 4.02-7.716 9.962-7.716 16.303 0 20.377 15.078 37.293 34.662 40.191l3.836 15.346c2.684 10.733 12.285 18.23 23.348 18.23h4.415v65.563c-2.11 2.389-4.161 4.847-6.149 7.374-2.562 3.255-1.999 7.971 1.256 10.532 1.375 1.081 3.01 1.606 4.633 1.606 2.22 0 4.419-.982 5.899-2.862 28.687-36.455 71.638-57.363 117.839-57.363h116.75v18.133h-116.75c-70.129 0-127.63 55.08-131.532 124.25h-18.158c1.031-21.208 6.436-41.526 16.132-60.491 1.886-3.688.424-8.206-3.264-10.092-3.687-1.886-8.206-.425-10.092 3.264-10.857 21.235-16.824 44.005-17.809 67.776-4.869 1.394-8.446 5.875-8.446 11.185v11.565c-29.934 12.846-49.7 42.494-49.7 75.41 0 45.242 36.808 82.05 82.05 82.05 45.243 0 82.05-36.808 82.05-82.05 0-32.916-19.767-62.564-49.7-75.41v-11.565c0-5.174-3.394-9.565-8.072-11.076 3.601-61.16 54.491-109.815 116.538-109.815h116.75v13.626c-20.74 4.918-40.262 14.601-56.78 28.246-3.193 2.638-3.643 7.365-1.005 10.559 1.483 1.795 3.627 2.724 5.787 2.724 1.682 0 3.374-.563 4.772-1.718 13.827-11.422 30.008-19.733 47.227-24.345v18.894c-44.175 13.977-74.55 55.058-74.55 101.897 0 4.768.326 9.54.953 14.249l-.698.403c-7.401 4.273-9.946 13.771-5.673 21.173l25.133 43.532c2.07 3.585 5.413 6.15 9.412 7.222 1.335.358 2.69.535 4.037.535 2.685 0 5.337-.705 7.725-2.083l.706-.408c18.645 14.395 41.626 22.277 65.306 22.277 58.945 0 106.9-47.955 106.9-106.9 0-4.768-.326-9.54-.953-14.25l.698-.403c3.586-2.07 6.15-5.413 7.222-9.412 1.071-3.999.522-8.176-1.549-11.762l-25.133-43.532c-2.07-3.585-5.412-6.15-9.411-7.222-3.999-1.07-8.175-.521-11.762 1.548l-.704.406c-9.882-7.624-21.107-13.514-32.958-17.285v-18.897c54.217 14.447 92.682 63.865 92.682 120.809 0 68.943-56.09 125.033-125.033 125.033-68.944 0-125.034-56.09-125.034-125.033 0-27.788 8.92-54.093 25.797-76.073 2.522-3.285 1.904-7.994-1.381-10.516-3.285-2.523-7.994-1.904-10.516 1.381-18.906 24.624-28.899 54.088-28.899 85.208 0 77.214 62.819 140.033 140.034 140.033 77.214 0 140.033-62.819 140.033-140.033-.001-65.119-44.922-121.459-107.684-136.278zm-356.189-145.356c0-2.504 1.395-4.021 2.226-4.703.685-.561 1.999-1.385 3.813-1.385.389 0 .802.038 1.236.125l53.72 10.744c9.023 1.804 18.263 2.719 27.462 2.719h53.133c3.212 0 6.023 1.567 7.712 4.3s1.834 5.948.397 8.821c-1.546 3.092-4.654 5.012-8.11 5.012h-115.956c-14.134.001-25.633-11.498-25.633-25.633zm38.05 51.899-2.816-11.266h80.189l-2.816 11.266c-1.011 4.043-4.628 6.868-8.796 6.868h-56.965c-4.168 0-7.785-2.824-8.796-6.868zm46.344 21.868v18.133h-18.133v-18.133zm-18.133 50.621v-17.488h18.133v3.662c-6.327 4.163-12.385 8.779-18.133 13.826zm-64.038 203.117c1.929 6.539 7.977 11.328 15.132 11.328h33.133c7.155 0 13.204-4.79 15.132-11.328 1.446 3.802 2.218 7.887 2.218 12.112 0 18.702-15.215 33.917-33.917 33.917s-33.917-15.215-33.917-33.917c.001-4.225.773-8.31 2.219-12.112zm49.049-71.505v67.05c0 .432-.352.784-.783.784h-33.134c-.432 0-.783-.352-.783-.784v-67.05zm49.7 83.617c0 36.971-30.079 67.05-67.05 67.05s-67.05-30.079-67.05-67.05c0-24.669 13.583-47.094 34.7-58.741v22.067c-10.566 9.288-16.567 22.443-16.567 36.674 0 26.973 21.944 48.917 48.917 48.917s48.917-21.944 48.917-48.917c0-14.231-6.001-27.386-16.567-36.674v-22.067c21.117 11.647 34.7 34.072 34.7 58.741zm293.501-69.742c.97 1.68 2.213 3.102 3.635 4.259h-34.341c-.384-2.048-.919-4.041-1.599-5.969l23.488-13.561zm-116.135 67.05-8.817-15.271 23.508-13.572c5.905 6.869 14.057 11.746 23.309 13.48v51.653c-15.595-1.278-30.594-6.523-43.56-15.19 7.311-4.306 9.811-13.738 5.56-21.1zm5.573-47.791c.384 2.047.919 4.041 1.599 5.969l-23.488 13.561-8.817-15.271c-.957-1.657-2.195-3.084-3.635-4.259zm57.278-104.152c-.014.259-.013.517 0 .772v59.146c-5.265-2.497-11.146-3.9-17.35-3.9s-12.085 1.403-17.35 3.9v-171.133h34.7zm-17.35 122.285c-6.742 0-12.881-2.621-17.462-6.892l21.212-12.246c3.587-2.071 4.816-6.658 2.745-10.245-2.071-3.588-6.658-4.816-10.245-2.745l-21.223 12.253c-.427-1.852-.66-3.778-.66-5.758 0-14.134 11.499-25.633 25.633-25.633s25.633 11.499 25.633 25.633-11.499 25.633-25.633 25.633zm-132.463-382.572c4.999 0 9.066 4.067 9.066 9.066s-4.067 9.067-9.066 9.067-9.067-4.067-9.067-9.067c0-4.999 4.067-9.066 9.067-9.066zm41.346 18.133h-19.059c1.143-2.8 1.779-5.86 1.779-9.067s-.635-6.266-1.779-9.066h19.059.07c5 0 9.067 4.067 9.067 9.066s-4.067 9.067-9.067 9.067zm41.402 0h-19.044c1.143-2.8 1.779-5.86 1.779-9.067s-.635-6.266-1.779-9.066h19.044c32.388 0 58.738 26.35 58.738 58.738v9.067h-18.133v-9.067c0-22.389-18.215-40.605-40.605-40.605zm40.605 64.672h18.133v18.133h-18.133zm-28.949 42.2c0-4.999 4.067-9.066 9.067-9.066h57.983c4.999 0 9.066 4.067 9.066 9.066 0 5-4.067 9.067-9.066 9.067h-57.983c-4.999 0-9.067-4.067-9.067-9.067zm5.709 145.901v61.183c0 .095.011.187.014.281-3.756 4.932-6.406 10.744-7.592 17.069h-51.663c2.882-35.506 26.057-66.096 59.241-78.533zm-41.541 158.123c-.2-.054-.278-.188-.303-.233l-25.133-43.531c-.138-.239-.056-.545.183-.684l14.838-8.567c.079-.045.164-.067.249-.067.173 0 .341.09.434.25l12.565 21.763c.001.001.001.002.002.003 0 .001.001.001.001.002l12.565 21.764c.025.044.104.179.05.379s-.188.278-.233.304l-14.838 8.567c-.046.026-.181.104-.38.05zm81.391 19.502v-51.665c16.401-3.074 29.353-16.027 32.428-32.428h51.664c-3.628 44.705-39.388 80.465-84.092 84.093zm66.011-163.633c.079-.045.164-.067.249-.067.173 0 .341.09.434.25l25.133 43.532c.026.044.104.18.05.38s-.188.277-.233.303l-14.837 8.566c-.239.138-.545.056-.684-.183l-25.133-43.532c-.026-.044-.103-.18-.05-.379.054-.2.188-.278.233-.304l9.69-5.595c.017-.01.035-.02.052-.03zm-22.439-4.358c-3.531 2.075-6.059 5.386-7.12 9.346-1.072 3.999-.521 8.176 1.549 11.762l8.817 15.271-21.967 12.683v-58.694c6.567 2.479 12.867 5.718 18.721 9.632z"/></g></svg>