<svg id="Capa_1" enable-background="new 0 0 511.999 511.999" height="512" viewBox="0 0 511.999 511.999" width="512" xmlns="http://www.w3.org/2000/svg"><g><g><path d="m175.803 34.902c3.016 19.362 3.2 39.079.574 58.45l.003-.002 79.62 28.168 79.622-28.169c-2.626-19.37-2.442-39.086.574-58.447 1.47-9.436-4.324-18.417-13.092-20.293-44.297-9.478-89.911-9.478-134.208 0-8.768 1.875-14.563 10.857-13.093 20.293z" fill="#413e82"/><path d="m300.105 14.608c8.768 1.876 14.562 10.858 13.092 20.293-3.418 21.937-3.191 44.328.631 66.157l21.793-7.71c-2.626-19.37-2.442-39.086.574-58.447 1.47-9.436-4.324-18.417-13.092-20.293-25.926-5.547-52.303-7.822-78.603-6.876 18.636.671 37.234 2.945 55.605 6.876z" fill="#2f2c59"/><path d="m338.833 111.287-.879-4.262c-.935-4.533-1.711-9.095-2.332-13.676l-.002.001c-23.179 3.405-50.715 5.266-79.62 5.266s-56.441-1.861-79.62-5.266l-.003.001c-.621 4.581-1.396 9.142-2.332 13.675l-.88 4.262v27.871h165.667v-27.872z" fill="#dc3d36"/><path d="m338.833 139.158v-27.871l-.879-4.262c-.935-4.533-1.711-9.095-2.332-13.676l-.002.001c-7.148 1.05-14.713 1.952-22.602 2.699.549 3.673 1.186 7.335 1.937 10.976l.88 4.262v27.871z" fill="#b13d49"/><path d="m156.599 156.597c-9.15 0-16.567 7.417-16.567 16.567v33.134c0 9.15 7.417 16.567 16.567 16.567h16.567 165.667 16.567c9.15 0 16.567-7.417 16.567-16.567v-33.134c0-9.15-7.417-16.567-16.567-16.567z" fill="#e28367"/><path d="m421.665 405.099c0-16.945-6.36-32.404-16.823-44.12l-71.238-22.143h-11.338l-66.265 3.133-66.267-3.133h-11.34l-71.235 22.139c-10.465 11.717-16.826 27.177-16.826 44.123l-.001 82.833c0 9.149 7.417 16.567 16.567 16.567h99.404l49.698-9.975 49.698 9.975h99.4c9.15 0 16.567-7.417 16.567-16.567z" fill="#dc3d36"/><path d="m421.665 405.099c0-16.945-6.36-32.404-16.823-44.12l-23-7.069c10.463 11.716 16.823 27.176 16.823 44.12l.001 89.902c0 9.149-7.417 16.567-16.567 16.567h23c9.15 0 16.567-7.417 16.567-16.567z" fill="#b13d49"/><path d="m206.3 388.533h99.399v115.967h-99.399z" fill="#f3ffff"/><path d="m282.699 388.533h23v115.967h-23z" fill="#dff9f9"/><path d="m206.3 278.524v63.446h99.4v-63.434z" fill="#eaaa85"/><path d="m282.701 278.536h22.999v63.433h-22.999z" fill="#e28367"/><path d="m338.834 156.597v-14.113l-165.666.001.001 80.383c0 45.747 37.085 82.832 82.832 82.832 9.397 0 18.418-1.587 26.837-4.47l22.848-12.084c20.126-15.111 33.148-39.173 33.148-66.278l-11.26-36.779z" fill="#eaaa85"/><path d="m315.834 142.484v80.383c0 41.842-31.031 76.419-71.332 82.02 3.761.523 7.596.813 11.5.813 45.747 0 82.832-37.085 82.832-82.832v-80.383z" fill="#e28367"/><g><g><path d="m255.999 164.881c-46.639 0-90.506-4.701-120.354-12.898-8.823-2.423-14.011-11.539-11.588-20.363 2.423-8.822 6.882-24.721 20.363-24.721 37.029 0 67.779 24.848 111.579 24.848s74.55-24.848 111.579-24.848c12.671 0 17.939 15.897 20.363 24.721 2.423 8.823-2.765 17.94-11.588 20.363-29.847 8.197-73.715 12.898-120.354 12.898z" fill="#413e82"/></g></g><path d="m313.983 358.448 8.283-19.615-16.568-16.567-46.961 17.095c-1.768.643-3.705.643-5.473 0l-46.964-17.095-16.568 16.567 8.283 19.615 57.983 30.085z" fill="#413e82"/><path d="m315.437 355.004 6.829-16.171-16.567-16.567-16.862 6.138z" fill="#2f2c59"/><path d="m206.301 247.715c0-5.077 2.868-9.717 7.409-11.988l10.907-5.453c9.745-4.872 20.49-7.409 31.384-7.409 10.895 0 21.64 2.537 31.384 7.409l10.907 5.453c4.541 2.27 7.409 6.911 7.409 11.988 0 4.575-3.709 8.283-8.283 8.283h-82.833c-4.575 0-8.284-3.709-8.284-8.283z" fill="#413e82"/><g><g><path d="m93.379 349.761-2.619-7.858c-1.447-4.34.899-9.031 5.239-10.478l64.07-21.406c4.34-1.447 9.031.899 10.478 5.239l7.858 23.574-64.07 21.406c-8.68 2.894-18.062-1.797-20.956-10.477z" fill="#f6df59"/></g></g><g><g><path d="m418.62 349.761 2.619-7.858c1.447-4.34-.899-9.031-5.239-10.478l-64.07-21.406c-4.34-1.447-9.031.899-10.478 5.239l-7.858 23.574 64.07 21.406c8.68 2.894 18.062-1.797 20.956-10.477z" fill="#f6df59"/></g></g><path d="m416 331.425-64.07-21.406c-4.018-1.339-8.332.575-10.098 4.31l51.168 17.096c4.34 1.447 6.685 6.138 5.239 10.478l-2.619 7.858c-1.089 3.266-3.096 5.966-5.639 7.911l7.684 2.567c8.68 2.893 18.062-1.798 20.955-10.478l2.619-7.858c1.446-4.34-.899-9.031-5.239-10.478z" fill="#edbf50"/><path d="m170.547 315.258c-1.447-4.34-6.138-6.685-10.478-5.239l-21.969 7.34c4.029-.793 8.114 1.505 9.447 5.503l7.858 23.574 23-7.604z" fill="#edbf50"/><circle cx="156.599" cy="454.799" fill="#f6df59" r="16.567"/><path d="m156.599 438.233c-4.471 0-8.52 1.779-11.5 4.657 3.119 3.013 5.067 7.23 5.067 11.909s-1.948 8.897-5.067 11.909c2.98 2.878 7.029 4.658 11.5 4.658 9.149 0 16.567-7.417 16.567-16.567s-7.417-16.566-16.567-16.566z" fill="#edbf50"/><circle cx="355.399" cy="454.799" fill="#f6df59" r="16.567"/><path d="m355.399 438.233c-4.471 0-8.52 1.779-11.5 4.657 3.119 3.013 5.067 7.23 5.067 11.909s-1.948 8.897-5.067 11.909c2.98 2.878 7.03 4.658 11.5 4.658 9.149 0 16.567-7.417 16.567-16.567s-7.417-16.566-16.567-16.566z" fill="#edbf50"/><g><path d="m270.344 371.966 41.121-13.12c5.344-1.705 10.801 2.282 10.801 7.891v43.591c0 5.609-5.458 9.596-10.801 7.891l-41.121-13.12h-28.69l-41.121 13.12c-5.344 1.705-10.801-2.282-10.801-7.891v-43.591c0-5.609 5.458-9.596 10.801-7.891l41.121 13.12z" fill="#de5e4c"/><path d="m272.566 396.816c0-1.433 0-15.134 0-16.567 0-9.149-7.417-16.567-16.567-16.567s-16.567 7.417-16.567 16.567v16.567c0 9.15 7.417 16.567 16.567 16.567s16.567-7.417 16.567-16.567z" fill="#dc3d36"/><path d="m255.999 363.683c-4.471 0-8.52 1.779-11.5 4.658 3.119 3.012 5.067 7.23 5.067 11.909v16.567c0 4.679-1.947 8.897-5.067 11.909 2.98 2.878 7.029 4.657 11.5 4.657 9.15 0 16.567-7.417 16.567-16.567 0-1.433 0-15.134 0-16.567 0-9.149-7.417-16.566-16.567-16.566z" fill="#b13d49"/></g><g><g fill="#2f2c59"><path d="m232.999 136.135c12.635 0 24.18-2.073 35.107-5.015-3.93.403-7.959.628-12.107.628-43.8 0-74.55-24.848-111.579-24.848-4.886 0-8.583 2.094-11.431 5.178 32.114 4.205 60.847 24.057 100.01 24.057z"/><path d="m387.941 131.62c-2.423-8.823-7.692-24.721-20.363-24.721-10.242 0-20.004 1.905-29.694 4.656 2.211-.173 4.441-.268 6.694-.268 12.671 0 17.939 15.897 20.363 24.721 2.423 8.823-2.765 17.94-11.588 20.363-2.902.797-5.94 1.56-9.097 2.29 11.859-1.853 22.677-4.09 32.097-6.677 8.823-2.424 14.012-11.541 11.588-20.364z"/></g></g><path d="m298.293 235.727-10.907-5.453c-9.745-4.872-20.49-7.409-31.384-7.409-3.865 0-7.71.326-11.5.955 6.892 1.145 13.597 3.31 19.884 6.454l10.907 5.453c4.541 2.27 7.409 6.911 7.409 11.988 0 4.575-3.709 8.283-8.283 8.283h23c4.575 0 8.283-3.709 8.283-8.283-.001-5.077-2.869-9.718-7.409-11.988z" fill="#2f2c59"/></g><g><path d="m429.165 405.099c0-14.668-4.349-28.873-12.392-40.922 4.059-2.857 7.275-6.984 8.962-12.043v-.001l2.619-7.857c1.333-4 1.029-8.279-.857-12.05s-5.126-6.582-9.121-7.913l-64.076-21.408c-8.252-2.75-17.212 1.726-19.964 9.982l-6.15 18.45h-2.811l-12.175-12.175v-26.432c18.398-15.092 30.749-37.292 32.819-62.365h9.38c13.271 0 24.067-10.796 24.067-24.067v-33.134c0-4.87-1.465-9.399-3.961-13.192.957-.249 1.903-.501 2.834-.757 6.199-1.702 11.364-5.716 14.544-11.304 3.18-5.587 3.993-12.078 2.29-18.277-5.51-20.062-14.794-30.234-27.595-30.234-7.967 0-15.535 1.038-22.946 2.69-.61-3.243-1.142-6.493-1.585-9.751-.004-.027-.004-.053-.008-.079-.002-.011-.005-.022-.007-.033-2.526-18.631-2.34-37.468.574-56.17 2.09-13.42-6.227-26.063-18.934-28.782-31.223-6.681-63.154-8.773-94.908-6.222-4.128.332-7.206 3.948-6.875 8.077.332 4.129 3.953 7.199 8.077 6.875 30.297-2.437 60.769-.438 90.567 5.938 4.851 1.038 8.103 6.333 7.251 11.805-2.756 17.692-3.237 35.497-1.471 53.167-21.454 2.751-45.927 4.201-71.315 4.201-25.387 0-49.86-1.45-71.315-4.201 1.766-17.67 1.286-35.475-1.471-53.167-.852-5.472 2.4-10.768 7.251-11.805 3.696-.792 7.466-1.527 11.204-2.186 4.079-.72 6.803-4.609 6.083-8.689-.72-4.079-4.605-6.801-8.689-6.084-3.915.691-7.864 1.461-11.737 2.29-12.707 2.719-21.024 15.361-18.934 28.782 2.913 18.702 3.099 37.539.573 56.171-.002.011-.005.022-.006.033-.004.026-.004.052-.008.078-.444 3.258-.976 6.509-1.585 9.752-7.411-1.652-14.979-2.69-22.946-2.69-19.29 0-25.11 21.187-27.595 30.234-1.703 6.199-.89 12.69 2.29 18.277s8.345 9.602 14.543 11.304c.93.255 1.873.507 2.829.756-2.496 3.792-3.955 8.324-3.955 13.193v33.134c0 13.27 10.796 24.067 24.067 24.067h9.383c2.07 25.072 14.42 47.272 32.818 62.364v26.432l-12.177 12.177h-2.811l-6.15-18.45c-2.752-8.254-11.704-12.732-19.969-9.98l-64.063 21.402c-4 1.333-7.241 4.144-9.126 7.915s-2.189 8.05-.856 12.049l2.619 7.858v.001c1.687 5.06 4.903 9.186 8.962 12.043-8.043 12.05-12.392 26.254-12.392 40.922l-.002 82.833c0 13.271 10.796 24.067 24.067 24.067h16.2c4.142 0 7.5-3.358 7.5-7.5s-3.358-7.5-7.5-7.5h-16.2c-5 0-9.067-4.067-9.067-9.067l.002-82.833c0-13.341 4.521-26.197 12.776-36.568 2.033-.128 4.081-.505 6.102-1.179l62.902-21.016h5.147l3.417 8.092c-3.723 2.98-5.945 7.519-5.945 12.309v43.591c0 5.019 2.419 9.783 6.472 12.744 2.73 1.995 6.014 3.035 9.329 3.034.255 0 .511-.017.767-.029v21.222h-19.337c-3.16-9.608-12.212-16.566-22.863-16.566-13.27 0-24.067 10.796-24.067 24.066s10.796 24.067 24.067 24.067c10.652 0 19.704-6.959 22.863-16.567h19.335v34.7h-45.7c-4.142 0-7.5 3.358-7.5 7.5s3.358 7.5 7.5 7.5h252c13.271 0 24.067-10.796 24.067-24.067zm-272.565 58.767c-4.999 0-9.067-4.067-9.067-9.067 0-4.999 4.067-9.066 9.067-9.066 4.999 0 9.066 4.067 9.066 9.066 0 5-4.067 9.067-9.066 9.067zm191.967-146.236c.136-.41.582-.631.986-.498l64.076 21.408c.204.068.356.2.452.393.096.192.111.393.042.598l-2.619 7.857c-1.581 4.743-6.723 7.315-11.464 5.736l-56.961-19.031zm-68.75 82.62c.161-1.122.249-2.267.249-3.433v-.784h9.066c4.142 0 7.5-3.358 7.5-7.5s-3.358-7.5-7.5-7.5h-9.066v-.783c0-1.166-.088-2.311-.249-3.433l33.927-10.825c.094-.031.379-.121.701.114.321.234.321.534.321.632v43.591c0 .098 0 .398-.321.632-.32.234-.606.144-.7.114zm-32.884-3.434v-16.567c0-4.999 4.067-9.067 9.067-9.067s9.067 4.067 9.067 9.067v16.567c0 4.999-4.067 9.066-9.067 9.066-5 .001-9.067-4.067-9.067-9.066zm61.681-44.933-35.602 11.36c-2.638-2.639-5.887-4.664-9.511-5.856v-11.778l40.273-14.66 9.618 9.618zm55.852-178.72v33.134c0 4.999-4.067 9.067-9.067 9.067h-9.066v-49.444c3.477-.551 6.868-1.134 10.16-1.75 4.485.543 7.973 4.366 7.973 8.993zm-181.807-71.386c22.115 2.841 47.284 4.339 73.34 4.339 26.057 0 51.226-1.498 73.34-4.339.246 1.423.507 2.845.782 4.266-5.315 1.671-10.629 3.528-16.035 5.419-17.965 6.285-36.543 12.785-58.087 12.785s-40.122-6.499-58.087-12.785c-5.406-1.891-10.72-3.748-16.035-5.419.276-1.42.536-2.842.782-4.266zm-50.506 38.715c-1.198-2.105-1.504-4.55-.863-6.886 3.167-11.529 6.612-19.207 13.131-19.207 16.464 0 32.044 5.451 48.539 11.222 19.147 6.699 38.947 13.626 63.04 13.626s43.893-6.927 63.04-13.626c16.495-5.771 32.075-11.222 48.539-11.222 5.212 0 9.63 6.462 13.131 19.207.641 2.335.335 4.781-.863 6.886s-3.143 3.617-5.479 4.258c-29.226 8.027-72.369 12.631-118.368 12.631s-89.142-4.604-118.368-12.631c-2.336-.641-4.281-2.153-5.479-4.258zm15.38 65.805v-33.134c0-4.628 3.488-8.45 7.972-8.994 3.293.616 6.685 1.2 10.164 1.751l.001 49.444h-9.07c-5 0-9.067-4.067-9.067-9.067zm33.136 16.57-.001-54.839c22.891 2.828 48.683 4.353 75.331 4.353 26.649 0 52.443-1.525 75.334-4.353v54.827c0 .003-.001.007-.001.01v.007c-.003 41.537-33.795 75.328-75.332 75.328s-75.331-33.794-75.331-75.333zm75.332 90.333c15.234 0 29.596-3.796 42.199-10.484v14.299l-42.199 15.361-42.201-15.362v-14.299c12.604 6.688 26.966 10.485 42.201 10.485zm-47.776 17.748 40.276 14.66v11.776c-3.625 1.192-6.876 3.218-9.515 5.858l-35.602-11.36-4.779-11.316zm-96.262 22.175c-4.743 1.583-9.887-.992-11.468-5.734l-2.619-7.858c-.068-.204-.054-.405.043-.598.096-.192.248-.325.457-.395l64.065-21.404c.409-.137.854.085.991.495l5.488 16.464zm85.591 57.838c-.321-.234-.321-.534-.321-.632v-43.591c0-.098 0-.398.321-.632.321-.236.607-.144.7-.114l33.927 10.825c-.161 1.122-.249 2.268-.249 3.434v.783h-9.066c-4.142 0-7.5 3.358-7.5 7.5s3.358 7.5 7.5 7.5h9.066v.784c0 1.166.088 2.311.249 3.433l-33.927 10.825c-.093.028-.38.12-.7-.115zm16.246 10.898 25.187-8.036c4.358 4.359 10.376 7.06 17.012 7.06s12.654-2.7 17.013-7.06l25.187 8.036v25.44h-84.399zm0 40.44h84.399v34.7h-84.399zm191.3 34.7h-91.901v-34.7h19.337c3.16 9.608 12.212 16.567 22.863 16.567 13.271 0 24.067-10.796 24.067-24.067s-10.796-24.066-24.067-24.066c-10.651 0-19.704 6.958-22.863 16.566h-19.337v-21.222c.256.012.511.029.767.029 3.315 0 6.599-1.04 9.329-3.034 4.053-2.961 6.472-7.725 6.472-12.744v-43.591c0-4.79-2.222-9.329-5.945-12.309l3.417-8.092h5.147l62.907 21.018c2.02.673 4.066 1.05 6.098 1.177 8.255 10.371 12.775 23.226 12.775 36.567l.001 82.833c-.001 5-4.068 9.068-9.067 9.068zm-58.767-42.2c0-4.999 4.067-9.066 9.066-9.066 5 0 9.067 4.067 9.067 9.066 0 5-4.067 9.067-9.067 9.067-4.999 0-9.066-4.067-9.066-9.067z"/><path d="m222.867 205.514c4.142 0 7.5-3.358 7.5-7.5v-8.284c0-4.142-3.358-7.5-7.5-7.5s-7.5 3.358-7.5 7.5v8.284c0 4.142 3.358 7.5 7.5 7.5z"/><path d="m289.134 205.514c4.142 0 7.5-3.358 7.5-7.5v-8.284c0-4.142-3.358-7.5-7.5-7.5s-7.5 3.358-7.5 7.5v8.284c0 4.142 3.358 7.5 7.5 7.5z"/><path d="m214.584 263.498h82.833c8.703 0 15.783-7.08 15.783-15.783 0-7.969-4.428-15.133-11.555-18.696l-10.907-5.454c-10.73-5.365-22.742-8.2-34.738-8.2s-24.008 2.835-34.738 8.201l-10.906 5.453c-7.128 3.563-11.556 10.727-11.556 18.696.001 8.703 7.081 15.783 15.784 15.783zm2.48-21.063 10.907-5.453c8.658-4.329 18.351-6.617 28.03-6.617s19.372 2.288 28.03 6.617l10.907 5.454c2.013 1.006 3.263 3.029 3.263 5.279 0 .432-.352.783-.783.783h-82.833c-.432 0-.783-.351-.783-.783-.001-2.251 1.249-4.274 3.262-5.28z"/></g></g></svg>