<svg id="Capa_1" enable-background="new 0 0 512 512" height="512" viewBox="0 0 512 512" width="512" xmlns="http://www.w3.org/2000/svg"><g><g><path d="m347.5 52.5h64c11.046 0 20 8.954 20 20v412c0 1.727-.219 3.402-.63 5 0 0-3.385 4.691-5.083 6.84-3.663 4.638-9.142 5.383-15.511 5.383l-307.776.777c-11.046 0-20-8.954-20-20l-.947-406.096c0-9.319 13.947-23.274 13.947-23.274 1.598-.411 3.273-.63 5-.63h64l85.309 11.011z" fill="#909ba6"/><path d="m430.87 489.5c-2.22 8.63-10.05 15-19.37 15h-311c-11.05 0-20-8.95-20-20v-412c0-9.32 6.37-17.15 15-19.37v425.37c0 6.08 4.92 11 11 11z" fill="#7e8b96"/><path d="m347.5 52.5v35c0 13.79-11.21 25-25 25h-133c-13.79 0-25-11.21-25-25v-35z" fill="#7e8b96"/><path d="m347.5 82.5h49c2.761 0 5 2.239 5 5v372l-2 8c0 2.761-2.239 5-5 5h-277c-2.761 0-5-2.239-5-5v-378c0-2.761 2.239-5 5-5l8-2h39l87.989 10.372z" fill="#f9f8f9"/><path d="m401.5 459.5v10c0 2.761-2.239 5-5 5h-281c-2.761 0-5-2.239-5-5v-382c0-2.761 2.239-5 5-5h10v372c0 2.761 2.239 5 5 5z" fill="#e8e8e8"/><path d="m347.5 82.5v5c0 13.79-11.21 25-25 25h-133c-13.79 0-25-11.21-25-25v-5z" fill="#e8e8e8"/><path d="m322.5 97.5c5.523 0 10-4.477 10-10v-40c0-5.523-4.477-10-10-10h-35.5c-2.761 0-5-2.239-5-5 0-13.807-11.193-25-25-25-13.807 0-25 11.193-25 25 0 2.761-2.239 5-5 5h-37.5c-5.523 0-10 4.477-10 10v40c0 5.523 4.477 10 10 10z" fill="#f9f8f9"/><path d="m326 307.25c0-38.66-31.34-70-70-70s-70 31.34-70 70c0 25.176 13.291 47.248 33.239 59.582 0 0 1.566.099 2.165.445 10.292 5.949 21.853 8.809 34.596 8.809 12.892 0 24.924-2.493 35.298-8.54.149-.087.493-.124.493-.124 20.486-12.213 34.209-34.59 34.209-60.172z" fill="#b2e5fb"/><path d="m291.79 357.98.001 9.441c-10.47 6.25-22.711 9.829-35.791 9.829-6.497 0-12.79-.885-18.762-2.542 0 0-.552-.843-.876-.942-5.988-1.823-11.177-4.199-16.426-7.447l.191-7.979c0-9.24 6.353-16.66 15.383-16.66l1.729-.431h38.2c9.031.001 16.351 7.491 16.351 16.731z" fill="#e27f86"/><path d="m237.24 341.25-.002 33.458c-6.42-1.77-12.469-4.456-17.999-7.876l.001-8.852c0-9.24 7.32-16.73 16.35-16.73z" fill="#df646e"/><g><path d="m255.515 314.681c-13.785 0-23.962-10.371-23.962-24.156s9.704-24.163 23.489-24.163c2.799 0 8.479.203 8.479.203 9.87 3.346 16.993 12.699 16.993 23.685 0 10.985-7.122 20.338-16.99 23.684 0 0-1.33.193-2 .36-1.932.481-3.93.387-6.009.387z" fill="#f2d1a5"/></g><g><path d="m263.525 313.934c-2.51.86-5.205 1.316-8.005 1.316-13.79 0-25-11.22-25-25s11.21-25 25-25c2.8 0 5.492.455 8.002 1.315-9.88 3.34-17.002 12.705-17.002 23.685s7.125 20.344 17.005 23.684z" fill="#f2bb88"/></g><g><path d="m221.425 159.688h-21.788c-1.146 0-2.075-.929-2.075-2.075v-21.788c0-1.146-.929-2.075-2.075-2.075h-19.05l-7.925 2c-1.146 0-.075.929-.075 2.075v19.788c0 1.146-2.929 2.075-4.075 2.075h-13.862l-6.925 1c-1.146 0-2.075.929-2.075 2.075v24.975c0 1.146.929 2.075 2.075 2.075h21.788c1.146 0 2.075.929 2.075 2.075v21.788c0 1.146.929 2.075 2.075 2.075h24.975c1.146 0 2.075-.929 2.075-2.075l1-6.925v-13.863c0-1.146.929-4.075 2.075-4.075l20.788 1c1.146 0 2.075-.929 2.075-2.075l1-6.925v-19.05c-.001-1.146-.93-2.075-2.076-2.075z" fill="#e27f86"/><g fill="#df646e"><path d="m205.562 180.812c-4.418 0-8 3.582-8 8v4.075c0-1.146.929-2.075 2.075-2.075h21.788c1.146 0 2.075-.929 2.075-2.075v-7.925z"/><path d="m178.512 206.75c-1.146 0-2.075-.929-2.075-2.075v-15.863c0-4.418-3.582-8-8-8h-15.863c-1.146 0-2.075-.929-2.075-2.075v-19.05h-7.925c-1.146 0-2.075.929-2.075 2.075v26.975c0 1.146.929 2.075 2.075 2.075h21.787c1.146 0 2.075.929 2.075 2.075v21.787c0 1.146.929 2.075 2.075 2.075h26.975c1.146 0 2.075-.929 2.075-2.075v-7.925h-19.049z"/></g><g><path d="m176.437 151.688v-17.938h-7.925c-1.146 0-2.075.929-2.075 2.075v21.788c0 1.146-.929 2.075-2.075 2.075h4.075c4.419 0 8-3.582 8-8z" fill="#df646e"/></g></g></g><g><path d="m431.5 228c-4.142 0-7.5 3.357-7.5 7.5v249c0 6.893-5.607 12.5-12.5 12.5h-311c-6.893 0-12.5-5.607-12.5-12.5v-143.25c0-4.143-3.358-7.5-7.5-7.5s-7.5 3.357-7.5 7.5v143.25c0 15.163 12.336 27.5 27.5 27.5h311c15.164 0 27.5-12.337 27.5-27.5v-249c0-4.143-3.358-7.5-7.5-7.5z"/><path d="m411.5 45h-71.7c-1.22-8.466-8.502-15-17.3-15h-33.095c-1.281-16.757-15.325-30-32.405-30s-31.124 13.243-32.405 30h-35.095c-8.798 0-16.081 6.534-17.3 15h-71.7c-15.164 0-27.5 12.337-27.5 27.5v233.75c0 4.143 3.358 7.5 7.5 7.5s7.5-3.357 7.5-7.5v-233.75c0-6.893 5.607-12.5 12.5-12.5h71.5v15h-56.5c-6.893 0-12.5 5.607-12.5 12.5v382c0 6.893 5.607 12.5 12.5 12.5h55.712c4.142 0 7.5-3.357 7.5-7.5s-3.358-7.5-7.5-7.5h-53.212v-377h54.2c1.22 8.466 8.502 15 17.3 15h38.121c4.142 0 7.5-3.357 7.5-7.5s-3.358-7.5-7.5-7.5h-38.121c-1.378 0-2.5-1.121-2.5-2.5v-40c0-1.379 1.122-2.5 2.5-2.5h37.5c6.893 0 12.5-5.607 12.5-12.5 0-9.649 7.851-17.5 17.5-17.5s17.5 7.851 17.5 17.5c0 6.893 5.607 12.5 12.5 12.5h35.5c1.378 0 2.5 1.121 2.5 2.5v40c0 1.379-1.122 2.5-2.5 2.5h-59.879c-4.142 0-7.5 3.357-7.5 7.5s3.358 7.5 7.5 7.5h59.879c8.798 0 16.081-6.534 17.3-15h54.2v377h-187.788c-4.142 0-7.5 3.357-7.5 7.5s3.358 7.5 7.5 7.5h190.288c6.893 0 12.5-5.607 12.5-12.5v-382c0-6.893-5.607-12.5-12.5-12.5h-56.5v-15h71.5c6.893 0 12.5 5.607 12.5 12.5v128c0 4.143 3.358 7.5 7.5 7.5s7.5-3.357 7.5-7.5v-128c0-15.163-12.336-27.5-27.5-27.5z"/><path d="m306 67.5c0-4.143-3.358-7.5-7.5-7.5h-85c-4.142 0-7.5 3.357-7.5 7.5s3.358 7.5 7.5 7.5h85c4.142 0 7.5-3.357 7.5-7.5z"/><path d="m255.515 320.25c16.542 0 30-13.458 30-30s-13.458-30-30-30-30 13.458-30 30 13.458 30 30 30zm0-45c8.271 0 15 6.729 15 15s-6.729 15-15 15-15-6.729-15-15 6.729-15 15-15z"/><path d="m178.5 307.25c0 42.733 34.766 77.5 77.5 77.5s77.5-34.767 77.5-77.5-34.766-77.5-77.5-77.5-77.5 34.767-77.5 77.5zm48.243 55.207v-4.475c0-5.09 3.969-9.231 8.848-9.231h39.85c4.878 0 8.848 4.142 8.848 9.231v4.972c-8.501 4.335-18.11 6.796-28.288 6.796-10.567 0-20.523-2.645-29.258-7.293zm29.257-117.707c34.462 0 62.5 28.037 62.5 62.5 0 17.946-7.614 34.138-19.767 45.547-2.343-10.878-11.894-19.047-23.292-19.047h-39.85c-11.132 0-20.504 7.791-23.12 18.288-11.689-11.363-18.971-27.237-18.971-44.788 0-34.463 28.038-62.5 62.5-62.5z"/><path d="m168.513 224.25h26.975c5.28 0 9.575-4.296 9.575-9.575v-16.362h16.362c5.28 0 9.575-4.296 9.575-9.575v-26.975c0-5.279-4.295-9.575-9.575-9.575h-16.362v-16.362c0-5.279-4.295-9.575-9.575-9.575h-26.975c-5.28 0-9.575 4.296-9.575 9.575v16.362h-16.362c-5.28 0-9.575 4.296-9.575 9.575v26.975c0 5.279 4.295 9.575 9.575 9.575h16.362v16.362c-.001 5.279 4.295 9.575 9.575 9.575zm-20.513-40.938v-16.125h16.362c5.28 0 9.575-4.296 9.575-9.575v-16.362h16.125v16.362c0 5.279 4.295 9.575 9.575 9.575h16.363v16.125h-16.362c-5.28 0-9.575 4.296-9.575 9.575v16.362h-16.125v-16.362c0-5.279-4.295-9.575-9.575-9.575z"/><path d="m371.5 167.25c4.142 0 7.5-3.357 7.5-7.5s-3.358-7.5-7.5-7.5h-65.096c-4.142 0-7.5 3.357-7.5 7.5s3.358 7.5 7.5 7.5z"/><path d="m253 167.25h23.404c4.142 0 7.5-3.357 7.5-7.5s-3.358-7.5-7.5-7.5h-23.404c-4.142 0-7.5 3.357-7.5 7.5s3.358 7.5 7.5 7.5z"/><path d="m253 198.25h118.5c4.142 0 7.5-3.357 7.5-7.5s-3.358-7.5-7.5-7.5h-118.5c-4.142 0-7.5 3.357-7.5 7.5s3.358 7.5 7.5 7.5z"/><path d="m299.5 407.25c0-4.143-3.358-7.5-7.5-7.5h-72c-4.142 0-7.5 3.357-7.5 7.5s3.358 7.5 7.5 7.5h72c4.142 0 7.5-3.357 7.5-7.5z"/><path d="m299.243 444.75h26.757c4.142 0 7.5-3.357 7.5-7.5s-3.358-7.5-7.5-7.5h-26.757c-4.142 0-7.5 3.357-7.5 7.5s3.358 7.5 7.5 7.5z"/><path d="m186 444.75h83.243c4.142 0 7.5-3.357 7.5-7.5s-3.358-7.5-7.5-7.5h-83.243c-4.142 0-7.5 3.357-7.5 7.5s3.358 7.5 7.5 7.5z"/></g></g></svg>