<svg id="Capa_1" enable-background="new 0 0 512.001 512.001" height="512" viewBox="0 0 512.001 512.001" width="512" xmlns="http://www.w3.org/2000/svg"><g><g><path d="m327.838 501.167-6.493-58.136-7.411-36.066-115.654 1.154-13.117 92.048c-.199 1.778 1.193 3.333 2.981 3.333l13.346 1h123.366c1.789 0 3.181-1.555 2.982-3.333z" fill="#f2d1a5"/><path d="m425.79 241.216c14.154 0 25.629 11.444 25.629 25.561 0 34.586-28.112 62.624-62.79 62.624h-265.257c-34.678 0-62.79-28.038-62.79-62.624 0-14.117 11.474-25.561 25.629-25.561h.289l3.628-.706 315.298.706 6.043-1.28 14.032 1.28z" fill="#f2bb88"/><path d="m317.32 406.96-122.76 1.16-10.4 93.05c-.2 1.77 1.2 3.33 2.98 3.33h14.35l5.508-47.359c.238-2.046 2.425-3.248 4.28-2.352 8.317 4.017 16.365 7.289 23.781 9.791 6.69 2.25 13.74 3.4 20.96 3.4 6.52 0 13.07-.94 19.46-2.77 14.38-4.14 30.234-11.839 45.864-22.179z" fill="#f2bb88"/><path d="m117.782 309.996c5.29 21.128 12.818 40.973 22.256 58.72 19.62 36.182 62.324 65.858 100.764 78.807 9.59 3.23 19.979 3.183 29.703.384 33.316-9.589 79.107-42.978 102.061-82.218 9.005-17.082 16.253-36.016 21.426-56.103v-184.714l-166.411-42.127-85.474 35.865-25.979 186.582z" fill="#f2d1a5"/><path d="m89.171 197.298s-33.277-152.957 96.085-160.17c13.086-.73 27.497 4.988 30.298 12l10.894 44.766.255 12.851c0 4.904-.238 9.046-1.932 13.349-.188.479-.407 1.758-.407 1.758-5.885 13.32-19.213 22.616-34.712 22.616-25.403 0-46.469 20.539-50.162 44.911z" fill="#909ba6"/><path d="m414.277 208.872-3.702 41.234.925 6.003-1.537 26.147c-1.262 16.781-14.634 30.101-31.42 31.296l-78.094 5.563c-9.926.707-18.925-5.818-21.338-15.472l-6.16-24.639c-1.944-7.778-8.933-13.235-16.95-13.235-8.017 0-15.006 5.456-16.95 13.235l-6.161 24.645c-2.413 9.651-11.407 16.175-21.33 15.472l-78.77-5.58c-4.357-.309-8.485-1.434-12.231-3.226 0 0-1.97-2.796-2.961-3.402-9.049-5.54-14.796-13.754-15.638-24.957l-5.3-66.956z" fill="#f9f8f9"/><path d="m113.111 214.683v-.003l-16.45.32 2.87 41.19h.003l1.817 26.06c.94 12.42 8.517 22.957 19.207 28.067l-4.923-63.241c-.07-.893.162-1.783.659-2.528l5.252-7.885c.38-.57 1.02-.913 1.705-.913h85.781c1.636 0 3.107.996 3.714 2.516l1.185 2.964c2.795 6.994 9.567 11.58 17.098 11.58h49.943c7.531 0 14.303-4.587 17.098-11.58l1.185-2.964c.607-1.519 2.078-2.516 3.714-2.516h86.201c.705 0 1.361.361 1.738.957l6.932 10.953c3.06 4.82 8.07 7.9 13.66 8.45l2.78-47.24z" fill="#e8e8e8"/><path d="m216.911 46.86c-.897-2.243-3.129-4.319-6.179-6.082-.03-.017-.063-.029-.093-.046-6.487-3.726-16.609-6.034-25.467-5.542-129.362 7.21-98.672 158.1-98.672 158.1l7.947 1.88 9.941-3.201c-4.038-30.112-11.123-136.964 88.85-149.781 3.032-.389 5.708 1.971 5.671 5.027-.005.387-.007.788-.008 1.205-.08 27.05 8.883 52.691 25.463 73.431 2.07-4.68 3.217-9.861 3.217-15.311v-12.82z" fill="#7e8b96"/><path d="m370.873 190.234c-9.973-33.036-44.933-43.205-81.836-47.081-16.816-2.692-31.737-13.082-43.618-24.667-17.679-17.897-28.597-42.659-28.513-70.007.069-22.538 18.716-40.979 41.254-40.979h34.277c74.18-.002 133.352 60.899 133.352 133.454l-.289 52.337-26.543.262z" fill="#909ba6"/><path d="m370.495 189.262 55.006 4.029v47.926h-12.106c-1.169 0-2.256-.598-2.881-1.586l-6.934-10.949c-3.126-4.937-8.563-7.928-14.406-7.928h-94.45c-2.789 0-5.297 1.698-6.333 4.288l-4.248 10.621c-.518 1.295-1.772 2.144-3.167 2.144h-49.949c-1.395 0-2.649-.849-3.167-2.144l-4.248-10.621c-1.036-2.59-3.544-4.288-6.333-4.288h-94.027c-5.701 0-11.026 2.849-14.188 7.593l-4.614 6.922-2.953 3.429c-.633.949-1.697 1.519-2.838 1.519h-11.159v-45.926l16.888-2.322 34.719-2.566c67.68-4.369 144.276-5.32 231.388-.141z" fill="#b9c3cd"/><path d="m104.451 191.96v43.31l-2.95 4.43c-.64.95-1.7 1.52-2.84 1.52h-12.161v-47.93z" fill="#a2abb8"/></g><g><path d="m458.918 266.777c0-15.758-11.108-28.968-25.918-32.262-.069-16.678.216-76.113.289-93.561 0-30.671-9.677-59.834-27.984-84.339-2.478-3.316-7.178-3.997-10.497-1.52-3.318 2.479-3.999 7.18-1.52 10.498 16.355 21.892 25 47.951 25 75.329l-.186 44.25c-13.106-1.075-27.842-2.196-41.913-3.072-5.634-15.601-16.601-26.91-33.433-34.498-16.109-7.263-35.677-10.09-52.728-11.887-12.91-2.121-26.14-9.708-39.325-22.552-6.742-6.835-12.257-14.572-16.482-22.929-.018-.034-.033-.071-.052-.105-6.415-12.73-9.811-26.907-9.765-41.627.058-18.473 15.2-33.502 33.756-33.502h34.277c28.627 0 55.603 9.373 78.01 27.105 3.249 2.572 7.964 2.021 10.536-1.227 2.57-3.248 2.021-7.965-1.227-10.535-25.084-19.851-55.277-30.343-87.318-30.343h-34.278c-21.362 0-39.578 13.815-46.14 32.95-7.934-3.886-18.285-5.751-27.267-5.246-36.638 2.043-64.661 15.32-83.291 39.463-36.203 46.916-24.097 118.216-22.462 126.847v40.5c-14.81 3.295-25.918 16.505-25.918 32.262 0 36.843 28.633 67.118 64.861 69.894 4.371 12.501 9.536 24.404 15.472 35.566 1.349 2.535 3.944 3.98 6.628 3.98 1.188 0 2.393-.283 3.515-.88 3.657-1.945 5.045-6.486 3.101-10.144-7.309-13.744-13.382-28.715-18.161-44.612 4.443.668 78.851 5.777 84.535 6.094 12.765-.001 23.992-8.652 27.13-21.206l6.161-24.646c1.112-4.447 5.091-7.554 9.675-7.554s8.562 3.106 9.675 7.554l6.159 24.638c3.303 13.214 15.569 22.091 29.147 21.135l23.347-1.663c4.132-.295 7.243-3.883 6.948-8.015-.294-4.132-3.891-7.248-8.014-6.948l-23.347 1.663c-6.322.452-11.996-3.677-13.529-9.81l-6.16-24.639c-2.785-11.137-12.747-18.915-24.227-18.915s-21.442 7.778-24.227 18.915l-6.161 24.646c-1.533 6.131-7.221 10.255-13.524 9.811l-78.771-5.581c-12.982-.919-23.508-11.399-24.483-24.378l-2.703-35.942c.391.209 8.75-12.661 9.171-13.233 1.776-2.664 4.747-4.254 7.948-4.254h93.567l4.077 10.191c1.666 4.168 5.642 6.86 10.131 6.86h49.949c4.489 0 8.465-2.692 10.13-6.858l4.078-10.193h93.99c3.292 0 6.309 1.66 8.07 4.44 2.169 3.215 5.882 9.729 7.997 12.339l-2.756 36.661c-.975 12.974-11.497 23.454-24.474 24.378l-20.103 1.432c-4.132.295-7.243 3.883-6.948 8.015.281 3.95 3.573 6.967 7.473 6.967 5.996-.478 19.294-1.127 24.636-1.938-4.561 14.671-10.268 28.589-17.06 41.497-22.346 38.09-67.136 69.893-97.578 78.655-8.361 2.405-17.129 2.294-25.355-.323-22.018-7.008-54.444-24.799-77.253-48.75-2.857-2.998-7.604-3.114-10.604-.258s-3.115 7.604-.259 10.603c8.94 9.387 19.256 17.895 29.91 25.295l-8.533 76.4c-.46 4.117 2.504 7.827 6.621 8.287.283.031.563.047.842.047 3.769 0 7.016-2.835 7.444-6.668l7.709-69.015c14.182 8.417 28.166 14.721 39.575 18.352 10.141 3.128 21.943 3.895 34.052.444 12.018-3.459 26.128-10.11 40.419-19.243l7.758 69.461c.428 3.833 3.675 6.668 7.444 6.668.278 0 .559-.016.842-.047 4.117-.46 7.081-4.17 6.621-8.287l-8.66-77.53c19.987-15.039 39.105-34.556 52.036-56.661.056-.096.109-.192.161-.29 5.413-10.269 10.163-21.137 14.252-32.469 36.518-2.48 65.469-32.889 65.469-69.937zm-345.544-190.494c15.85-20.51 40.146-31.815 72.214-33.604 10.555-.575 21.092 3.514 23.821 6.286.025 16.419 3.712 32.259 10.673 46.573v10.998c0 16.779-13.651 30.43-30.431 30.43-14.011 0-27.55 5.05-38.124 14.221-9.402 8.154-15.914 19.081-18.639 31.102-11.975.752-27.346 1.917-40.079 2.969-2.551-18.686-7.043-73.25 20.565-108.975zm-2.517 236.855c.666 2.61 1.362 5.2 2.094 7.767-25.52-4.875-44.868-27.286-44.868-54.128 0-9.959 8.132-18.061 18.128-18.061.3-.003 3.852.002 5.102 0l2.563 34.092c.933 12.405 7.438 23.347 16.981 30.33zm278.316-99.884h-94.45c-5.89 0-11.109 3.533-13.296 9.002l-3.22 8.05h-44.412l-3.22-8.05c-2.188-5.469-7.407-9.002-13.296-9.002h-94.026c-8.228 0-15.864 4.087-20.429 10.933l-8.824 13.284v-37.261c33.169-2.793 68.612-4.909 102.294-5.949 4.14-.13 7.391-3.591 7.261-7.731s-3.579-7.396-7.731-7.261c-15.642.491-31.379 1.18-47.103 2.061 5.849-17.164 22.296-29.362 40.931-29.362 21.485 0 39.522-14.997 44.224-35.068 13.439 16.589 36.773 31.66 54.376 33.713 35.422 3.721 60.207 10.427 71.102 30.516-42.748-2.304-85.729-3.198-128.326-2.64-4.142.054-7.456 3.455-7.402 7.597.054 4.108 3.401 7.402 7.498 7.402 61.656-.839 125.24 1.524 186.876 6.727v37.654l-8.085-13.198c-4.527-7.15-12.281-11.417-20.742-11.417zm9.432 107.731c.793-2.693 1.553-5.405 2.273-8.141 9.316-6.996 15.645-17.801 16.564-30.024l2.564-34.103c.258.001 4.637-.002 5.784 0 9.996 0 18.128 8.102 18.128 18.061 0 26.998-19.574 49.509-45.313 54.207z"/><path d="m324.229 243.21c-4.142 0-7.5 3.357-7.5 7.5v19.171c0 4.143 3.358 7.5 7.5 7.5s7.5-3.357 7.5-7.5v-19.171c0-4.143-3.358-7.5-7.5-7.5z"/><path d="m180.119 250.71v19.171c0 4.143 3.358 7.5 7.5 7.5s7.5-3.357 7.5-7.5v-19.171c0-4.143-3.358-7.5-7.5-7.5s-7.5 3.357-7.5 7.5z"/><path d="m256.5 350.741c5.976 0 11.951-1.388 17.398-4.163 3.691-1.881 5.158-6.396 3.278-10.088-1.88-3.69-6.398-5.158-10.087-3.277-6.631 3.379-14.547 3.379-21.178 0-3.689-1.881-8.207-.413-10.087 3.277-1.88 3.691-.413 8.207 3.278 10.088 5.447 2.776 11.423 4.163 17.398 4.163z"/><path d="m224.639 378.924c-2.194 3.513-1.125 8.14 2.388 10.334 8.665 5.412 18.819 8.117 28.973 8.117s20.308-2.705 28.973-8.117c3.513-2.194 4.583-6.821 2.388-10.334-2.195-3.514-6.819-4.583-10.334-2.389-12.38 7.732-29.674 7.732-42.054 0-3.514-2.195-8.14-1.124-10.334 2.389z"/></g></g></svg>