<svg id="Capa_1" enable-background="new 0 0 512 512" height="512" viewBox="0 0 512 512" width="512" xmlns="http://www.w3.org/2000/svg"><g><g><path d="m126.606 96.478c-7.041-6.781-11.422-16.305-11.422-26.853 0-20.586 16.689-37.275 37.275-37.275 10.704 0 20.353 4.511 27.152 11.736v52.391h-53.005z" fill="#c3f2f7"/><path d="m367.275 57.309c-1.955-.119-3.566-1.595-3.767-3.543-1.718-16.686-15.818-29.7-32.958-29.7-2.092 0-4.138.196-6.122.567-1.251.234-2.547-.121-3.466-1.002-10.416-9.986-24.543-16.131-40.112-16.131-17.796 0-33.719 8.017-44.355 20.635l-63.328 29.065c-18.299 0-33.133 14.834-33.133 33.133 0 .277.014.551.021.826-18.915 3.83-33.154 20.546-33.154 40.59 0 2.837.285 5.607.828 8.283v59.996h308.358v-59.996c3.578-7.532 5.58-15.957 5.58-24.85 0-30.816-24.042-56.018-54.392-57.873z" fill="#f3ffff"/><path d="m367.275 57.309c-1.955-.119-3.566-1.595-3.767-3.543-1.718-16.686-15.818-29.7-32.958-29.7-2.092 0-4.138.195-6.122.567-1.251.234-2.547-.121-3.466-1.002-10.416-9.986-24.543-16.131-40.112-16.131-3.925 0-7.752.411-11.458 1.155 10.96 2.217 20.799 7.526 28.57 14.977.919.881 2.215 1.236 3.466 1.002 1.984-.372 4.03-.567 6.122-.567 17.14 0 31.24 13.014 32.958 29.7.201 1.948 1.812 3.424 3.767 3.543 30.351 1.855 54.392 27.057 54.392 57.874 0 8.893-2.002 17.319-5.58 24.85v59.996h23v-59.996c3.578-7.532 5.58-15.957 5.58-24.85 0-30.818-24.042-56.02-54.392-57.875z" fill="#dff9f9"/><path d="m268.425 140.033c-9.063 0-16.426-7.277-16.565-16.307-.135-8.812 6.877-16.338 15.678-16.802 2.179-.115 4.268.197 6.198.855 1.974.673 4.131-.377 4.946-2.297 4.139-9.751 14.323-16.314 25.853-14.974 11.428 1.328 20.572 10.621 21.74 22.067.811 7.956-2.138 15.242-7.28 20.308-.603.594-.988 1.383-1.102 2.222-.937 6.947-4.743 12.983-10.186 16.876h-38.913z" fill="#dff9f9"/><path d="m434.617 151.658c-2.161-6.916-8.567-11.625-15.812-11.625h-70.791c-7.131 0-13.462 4.563-15.717 11.327l-12.791 38.373h-127.012l-11.899-38.075c-2.161-6.916-8.566-11.625-15.812-11.625h-70.791c-7.131 0-13.462 4.563-15.717 11.327l-12.792 38.373v33.133l22.44 251.108c1.361 17.234 15.743 30.526 33.031 30.526h85.346l49.7-14.391 49.7 14.391h85.346c17.288 0 31.67-13.292 33.031-30.526l22.44-251.108v-33.133z" fill="#dc3d36"/><path d="m434.617 151.658c-2.161-6.916-8.567-11.625-15.812-11.625h-23c7.246 0 13.651 4.709 15.812 11.625l11.899 38.075v33.133l-22.44 251.108c-1.361 17.234-15.743 30.526-33.031 30.526h23c17.288 0 31.67-13.292 33.031-30.526l22.44-251.108v-33.133z" fill="#b13d49"/><path d="m319.506 222.867-13.806 281.633h-99.4l-13.806-281.633v-33.133l12.792-38.372c2.255-6.765 8.586-11.328 15.716-11.328h70.791c7.246 0 13.651 4.709 15.812 11.625l11.899 38.075v33.133z" fill="#f6df59"/><path d="m307.606 151.658c-2.162-6.916-8.567-11.625-15.812-11.625h-23c7.246 0 13.651 4.709 15.812 11.625l11.899 38.075v33.133l-13.805 281.634h23l13.806-281.633v-33.133z" fill="#edbf50"/><path d="m446.8 222.867h-381.6c-4.418 0-8-3.582-8-8v-17.133c0-4.418 3.582-8 8-8h381.6c4.418 0 8 3.582 8 8v17.133c0 4.418-3.582 8-8 8z" fill="#de5e4c"/><path d="m247.717 48.917c0-13.724-11.126-24.85-24.85-24.85-11.779 0-21.637 8.198-24.197 19.198-2.58-1.658-5.642-2.631-8.937-2.631-9.15 0-16.567 7.417-16.567 16.567s7.417 16.567 16.567 16.567c.471 0 .935-.032 1.396-.071 3.392 9.687 12.609 16.637 23.454 16.637 13.041 0 23.728-10.047 24.761-22.822 5.134-4.553 8.373-11.194 8.373-18.595z" fill="#dff9f9"/><path d="m339.4 355.4h-166.8c-8.837 0-16-7.163-16-16v-34.267c0-8.836 7.163-16 16-16h166.8c8.837 0 16 7.164 16 16v34.267c0 8.837-7.163 16-16 16z" fill="#f3ffff"/><path d="m339.4 289.133h-23c8.837 0 16 7.164 16 16v34.267c0 8.837-7.163 16-16 16h23c8.837 0 16-7.163 16-16v-34.267c0-8.836-7.163-16-16-16z" fill="#dff9f9"/><path d="m264.567 421.667h-17.133c-4.418 0-8-3.582-8-8v-17.133c0-4.418 3.582-8 8-8h17.133c4.418 0 8 3.582 8 8v17.133c0 4.418-3.582 8-8 8z" fill="#413e82"/><path d="m446.8 189.733h-23c4.418 0 8 3.582 8 8v17.133c0 4.418-3.582 8-8 8h23c4.418 0 8-3.582 8-8v-17.133c0-4.418-3.582-8-8-8z" fill="#dc3d36"/><path d="m264.567 388.533h-17.133c-1.037 0-2.024.204-2.933.563 2.965 1.171 5.067 4.056 5.067 7.437v17.133c0 3.382-2.101 6.267-5.067 7.437.909.359 1.897.563 2.933.563h17.133c4.418 0 8-3.582 8-8v-17.133c0-4.418-3.582-8-8-8z" fill="#2f2c59"/></g><g><path d="m452.357 183.281-10.582-33.86c-2.36-7.553-8.118-13.25-15.296-15.645 1.776-5.993 2.688-12.211 2.688-18.592 0-33.791-25.729-61.682-58.624-65.123-3.385-19.011-20.024-33.495-39.993-33.495-1.95 0-3.866.146-5.743.413-12.066-10.971-27.515-16.979-43.957-16.979-17.329 0-33.766 6.827-45.978 18.885-3.715-1.49-7.764-2.319-12.005-2.319-12.205 0-22.997 6.695-28.508 17.017-1.517-.299-3.064-.45-4.626-.45-3.196 0-6.245.632-9.038 1.768-7.935-6.435-17.939-10.051-28.238-10.051-24.688 0-44.774 20.086-44.774 44.775 0 9.343 2.827 18.205 8.073 25.663-10.102 9.056-16.356 22.182-16.356 36.462 0 .261.015.522.02.783h-5.429c-10.375 0-19.551 6.613-22.831 16.456l-11.42 34.256c-5.857 2.215-10.04 7.865-10.04 14.488v17.134c0 6.139 3.596 11.44 8.784 13.948l1.884 21.086c.349 3.898 3.621 6.832 7.462 6.832.224 0 .449-.01.677-.029 4.125-.369 7.171-4.013 6.803-8.139l-1.626-18.198h111.669l2.513 51.266h-15.266c-12.958 0-23.5 10.542-23.5 23.5v34.267c0 12.958 10.542 23.5 23.5 23.5h19.25l4.949 100.967h-102.249l-16.524-184.895c-.367-4.125-3.996-7.149-8.138-6.803-4.125.369-7.171 4.013-6.802 8.139l17.36 194.257c1.658 20.992 19.45 37.435 40.508 37.435h270.092c21.058 0 38.85-16.443 40.5-37.357l21.97-245.827c5.188-2.509 8.784-7.809 8.784-13.948v-17.134c0-6.587-4.137-12.212-9.943-14.453zm-34.907 280.586h-102.249l4.949-100.967h19.25c12.958 0 23.5-10.542 23.5-23.5v-34.268c0-12.958-10.542-23.5-23.5-23.5h-15.267l2.514-51.266h111.668zm-352.25-248.5c-.275 0-.5-.225-.5-.5v-17.134c0-.275.225-.5.5-.5h.283 381.033.283c.275 0 .5.225.5.5v17.134c0 .275-.225.5-.5.5zm194.158-91.9c0-4.999 4.067-9.066 9.066-9.066 1.728 0 3.416.498 4.881 1.439 2.052 1.32 4.617 1.559 6.875.642 2.26-.917 3.933-2.875 4.485-5.25 1.836-7.889 8.783-13.398 16.893-13.398 9.566 0 17.35 7.783 17.35 17.351 0 4.954-2.132 9.687-5.849 12.983-1.448 1.284-2.343 3.078-2.499 5.007-.181 2.239-.814 4.377-1.797 6.338-4.394-4.375-10.421-6.979-16.97-6.979h-23.369c-4.998-.001-9.066-4.068-9.066-9.067zm32.436 24.066c3.987 0 7.465 2.557 8.654 6.362l8.855 28.338h-106.403l9.501-28.501c1.236-3.708 4.692-6.199 8.602-6.199zm144.521 34.7h-106.403l9.5-28.501c1.236-3.708 4.692-6.199 8.602-6.199h70.791c3.987 0 7.465 2.557 8.654 6.362zm-241.7-132.659c2.052 1.317 4.616 1.56 6.875.64 2.259-.916 3.932-2.874 4.484-5.249 1.836-7.889 8.782-13.398 16.893-13.398 9.566 0 17.35 7.783 17.35 17.351 0 4.954-2.132 9.687-5.85 12.983-1.447 1.284-2.343 3.078-2.499 5.007-.722 8.931-8.314 15.926-17.285 15.926-7.361 0-13.942-4.668-16.376-11.616-1.059-3.025-3.913-5.021-7.074-5.021-.206 0-.413.008-.621.025-.258.021-.516.045-.778.045-4.999 0-9.066-4.067-9.066-9.066 0-5 4.067-9.067 9.066-9.067 1.726-.001 3.414.497 4.881 1.44zm-71.931 20.051c0-16.418 13.356-29.775 29.774-29.775 6.03 0 11.743 1.767 16.601 5.049-.99 1.658-1.786 3.443-2.357 5.326-17.724 2.847-31.656 17.186-33.863 35.113-1.535.512-3.03 1.106-4.49 1.761-3.676-5.044-5.665-11.089-5.665-17.474zm-37.293 84.107c1.236-3.708 4.692-6.199 8.601-6.199h31.286c4.143 0 7.5-3.357 7.5-7.5s-3.357-7.5-7.5-7.5h-10.858c-.006-.261-.02-.522-.02-.783 0-16.076 11.415-30.055 27.143-33.239 3.565-.722 6.1-3.898 6.01-7.536l-.02-.642c0-12.054 8.366-22.186 19.596-24.908 2.98 8.163 10.248 14.28 19.072 15.583 5.605 10.239 16.443 16.825 28.382 16.825 15.732 0 29.19-11.542 31.86-26.774 5.607-5.973 8.773-13.89 8.773-22.142 0-8.081-2.985-15.473-7.901-21.149 9.187-8.175 21.061-12.768 33.535-12.768 9.944 0 19.415 2.86 27.531 8.173-11.106 7.26-18.464 19.797-18.464 34.027 0 4.143 3.357 7.5 7.5 7.5s7.5-3.357 7.5-7.5c0-14.135 11.499-25.634 25.633-25.634 14.135 0 25.634 11.499 25.634 25.634 0 6.25-2.274 12.271-6.404 16.951-2.74 3.105-2.444 7.846.662 10.586 1.426 1.258 3.196 1.876 4.959 1.876 2.077 0 4.145-.858 5.627-2.538 4.77-5.406 7.97-11.939 9.362-18.916 24.677 3.291 43.778 24.462 43.778 50.025 0 6.004-1.043 11.817-3.073 17.35h-63.08c-10.376 0-19.552 6.613-22.832 16.456l-5.446 16.337-3.406-10.898c4.598-4.67 7.681-10.62 8.809-17.107 5.604-5.973 8.77-13.889 8.77-22.139 0-17.838-14.512-32.351-32.35-32.351-12.204 0-22.997 6.696-28.508 17.017-1.516-.298-3.065-.449-4.626-.449-13.271 0-24.066 10.796-24.066 24.066 0 3.207.635 6.266 1.779 9.066h-25.134c-10.376 0-19.552 6.613-22.832 16.456l-5.447 16.339-4.971-15.907c-3.156-10.101-12.387-16.888-22.97-16.888h-9.75c-4.143 0-7.5 3.357-7.5 7.5s3.357 7.5 7.5 7.5h9.75c3.986 0 7.464 2.557 8.653 6.362l8.856 28.338h-106.404zm114.98 76.635h111.258l-2.514 51.266h-106.23zm-36.271 109.033v-34.268c0-4.687 3.814-8.5 8.5-8.5h166.8c4.687 0 8.5 3.813 8.5 8.5v34.268c0 4.687-3.813 8.5-8.5 8.5h-166.8c-4.687 0-8.5-3.813-8.5-8.5zm42.768 23.5h98.264l-4.949 100.967h-88.365zm92.58 115.967-.889 18.133h-85.117l-.889-18.133zm-202.981 0h101.067l.889 18.133h-77.469c-11.366 0-21.217-7.596-24.487-18.133zm294.579 18.133h-77.469l.889-18.133h101.077c-3.249 10.513-13.113 18.133-24.497 18.133z"/><path d="m264.566 381.033h-17.133c-8.547 0-15.5 6.953-15.5 15.5v17.134c0 8.547 6.953 15.5 15.5 15.5h17.133c8.547 0 15.5-6.953 15.5-15.5v-17.134c0-8.547-6.953-15.5-15.5-15.5zm.5 32.634c0 .275-.225.5-.5.5h-17.133c-.275 0-.5-.225-.5-.5v-17.134c0-.275.225-.5.5-.5h17.133c.275 0 .5.225.5.5z"/><path d="m256 314.767h-66.267c-4.143 0-7.5 3.357-7.5 7.5s3.357 7.5 7.5 7.5h66.267c4.143 0 7.5-3.357 7.5-7.5s-3.357-7.5-7.5-7.5z"/><path d="m322.267 314.767h-33.134c-4.143 0-7.5 3.357-7.5 7.5s3.357 7.5 7.5 7.5h33.134c4.143 0 7.5-3.357 7.5-7.5s-3.358-7.5-7.5-7.5z"/></g></g></svg>