<svg id="Capa_1" enable-background="new 0 0 512 512" height="512" viewBox="0 0 512 512" width="512" xmlns="http://www.w3.org/2000/svg"><g><g><g><path d="m473.08 369.258h-434.16c-5.523 0-10-4.477-10-10v-313.176h454.16v313.176c0 5.523-4.477 10-10 10z" fill="#b3dafe"/></g><g><path d="m66.54 323.811c-.371 0-.735.002-1.108.007-5.091.066-10.073.604-14.912 1.561v-279.297h-21.6v313.176c0 5.523 4.477 10 10 10h102.237c-14.006-26.969-42.185-45.447-74.617-45.447z" fill="#8ac9fe"/></g><g><path d="m483.08 359.258v-26.523c-11.327-5.696-24.1-8.924-37.62-8.924-.371 0-.735.002-1.108.007-31.669.411-59.237 18.813-73.203 45.44h101.931c5.523 0 10-4.477 10-10z" fill="#8ac9fe"/></g><g><circle cx="256" cy="432.045" fill="#365f7e" r="21.675"/></g><g><path d="m499.5 55.02h-487c-2.761 0-5-2.239-5-5v-37.52c0-2.761 2.239-5 5-5h487c2.761 0 5 2.239 5 5v37.52c0 2.762-2.238 5-5 5z" fill="#e1761c"/></g><path d="m33.78 50.02v-37.52c0-2.761 2.239-5 5-5h-26.28c-2.761 0-5 2.239-5 5v37.52c0 2.761 2.239 5 5 5h26.28c-2.761 0-5-2.238-5-5z" fill="#d76718"/><g><path d="m97.522 251.273v11.474c0 3.063 1.319 5.977 3.62 7.998l13.418 11.787c4.331 3.805 6.814 9.291 6.814 15.056v22.724c0 5.875 4.762 10.637 10.637 10.637h7.792c5.017 0 9.352-3.505 10.402-8.411l9.524-44.507c.308-1.441.464-2.911.464-4.385v-20.113c0-7.128-5.778-12.907-12.907-12.907h-39.12c-5.878.001-10.644 4.767-10.644 10.647z" fill="#77d192"/></g><g><path d="m335.196 278.593v13.6c0 7.152 5.798 12.95 12.95 12.95 1.937 0 3.849-.434 5.595-1.271l9.039-4.33c5.123-2.454 11.252-1.225 15.032 3.016l13.883 15.576c3.689 4.139 8.97 6.506 14.514 6.506h8.819c10.738 0 19.443-8.705 19.443-19.443v-8.298c0-7.836-3.319-15.306-9.134-20.559l-23.944-21.628c-6.239-5.635-15.207-7.077-22.898-3.68l-35.581 15.715c-4.692 2.071-7.718 6.717-7.718 11.846z" fill="#77d192"/></g><path d="m408.255 318.133-13.883-15.576c-3.78-4.241-9.909-5.471-15.032-3.016l-3.137 1.503c.572.452 1.112.955 1.609 1.513l13.883 15.576c3.689 4.139 8.97 6.506 14.514 6.506h8.819c1.339 0 2.646-.136 3.909-.394-4.096-.823-7.857-2.942-10.682-6.112z" fill="#5bc175"/><g><path d="m124.48 212.17h-1.751c-6.949 0-12.583-5.634-12.583-12.583v-41.082c0-6.949-5.634-12.583-12.583-12.583h-13.73c-6.949 0-12.583-5.634-12.583-12.583v-7.636c0-6.949 5.634-12.583 12.583-12.583h44.686c2.748 0 5.42.899 7.609 2.561l9.792 7.434c2.189 1.662 4.861 2.561 7.609 2.561h47.966c6.949 0 12.583 5.634 12.583 12.583v7.159c0 6.949-5.634 12.583-12.583 12.583h-.471c-6.949 0-12.583 5.634-12.583 12.583 0 6.949-5.634 12.583-12.583 12.583h-23.875c-5.527 0-10.407 3.607-12.029 8.891l-3.445 11.222c-1.622 5.283-6.502 8.89-12.029 8.89z" fill="#77d192"/></g><g><path d="m350.839 92.465-75.626 38.457c-5.574 2.834-9.084 8.558-9.084 14.811v45.78c0 9.176-7.439 16.615-16.615 16.615h-13.24c-9.176 0-16.615 7.439-16.615 16.615v16.12c0 4.407 1.751 8.633 4.867 11.749l14.612 14.612c3.116 3.116 4.867 7.342 4.867 11.749v35.361c0 9.176 7.439 16.615 16.615 16.615 6.657 0 12.672-3.973 15.283-10.097l32.072-75.198c2.542-5.959 1.388-12.852-2.956-17.659l-7.115-7.873c-2.76-3.054-4.288-7.024-4.288-11.14v-8.425c0-9.176 7.439-16.615 16.615-16.615h21.123c5.509 0 10.66 2.73 13.752 7.29l6.514 9.606c3.092 4.559 8.243 7.29 13.752 7.29h19.071c6.172 0 11.836-3.422 14.708-8.885l33.412-63.57c1.253-2.384 1.908-5.037 1.908-7.73v-20.667c0-9.176-7.439-16.615-16.615-16.615h-59.484c-2.619-.001-5.199.618-7.533 1.804z" fill="#77d192"/></g><g><path d="m136.068 320.312v-22.724c0-5.765-2.483-11.251-6.814-15.056l-13.418-11.787c-2.301-2.021-3.62-4.936-3.62-7.998v-11.474c0-5.88 4.766-10.646 10.646-10.646h-14.693c-5.879 0-10.646 4.766-10.646 10.646v11.474c0 3.063 1.319 5.977 3.62 7.998l13.418 11.787c4.331 3.805 6.814 9.291 6.814 15.056v22.724c0 5.875 4.762 10.637 10.637 10.637h7.792c1.204 0 2.367-.207 3.456-.581-4.181-1.432-7.192-5.388-7.192-10.056z" fill="#5bc175"/></g><g><path d="m349.888 292.192v-13.6c0-5.129 3.027-9.774 7.718-11.846l35.581-15.715c.416-.184.836-.346 1.259-.502-5.09-1.867-10.805-1.771-15.952.502l-35.581 15.715c-4.692 2.072-7.718 6.718-7.718 11.846v13.6c0 7.152 5.798 12.95 12.95 12.95 1.937 0 3.849-.434 5.595-1.271l1.904-.912c-3.469-2.322-5.756-6.277-5.756-10.767z" fill="#5bc175"/></g><g><path d="m124.839 199.587v-41.082c0-6.949-5.634-12.583-12.583-12.583h-13.73c-6.949 0-12.583-5.634-12.583-12.583v-7.636c0-6.949 5.634-12.583 12.583-12.583h-14.693c-6.949 0-12.583 5.634-12.583 12.583v7.636c0 6.949 5.634 12.583 12.583 12.583h13.73c6.949 0 12.583 5.634 12.583 12.583v41.082c0 6.949 5.634 12.583 12.583 12.583h1.751c2.343 0 4.566-.654 6.477-1.802-3.661-2.201-6.118-6.199-6.118-10.781z" fill="#5bc175"/></g><g><g><path d="m258.697 314.334v-35.361c0-4.407-1.751-8.633-4.867-11.749l-14.612-14.612c-3.116-3.116-4.867-7.342-4.867-11.749v-16.12c0-9.176 7.439-16.615 16.615-16.615h13.24c9.176 0 16.615-7.439 16.615-16.615v-45.78c0-6.253 3.51-11.976 9.084-14.811l75.626-38.457c2.333-1.186 4.914-1.805 7.531-1.805h-14.693c-2.618 0-5.198.618-7.531 1.805l-75.626 38.457c-5.574 2.834-9.084 8.558-9.084 14.811v45.78c0 9.176-7.439 16.615-16.615 16.615h-13.24c-9.176 0-16.615 7.439-16.615 16.615v16.12c0 4.407 1.751 8.633 4.867 11.749l14.612 14.612c3.116 3.116 4.867 7.342 4.867 11.749v35.361c0 9.176 7.439 16.615 16.615 16.615 2.607 0 5.111-.617 7.354-1.725-5.49-2.711-9.276-8.351-9.276-14.89z" fill="#5bc175"/></g><g><path d="m366.314 200.838-6.514-9.606c-3.092-4.559-8.243-7.29-13.751-7.29h-14.693c5.509 0 10.66 2.73 13.752 7.29l6.514 9.606c3.092 4.559 8.243 7.29 13.752 7.29h14.693c-5.511 0-10.661-2.73-13.753-7.29z" fill="#5bc175"/></g></g><g><path d="m444.676 348.816c-32.445.421-58.256 27.467-58.256 59.915 0 25.542 10.232 50.02 28.41 67.964l26.415 26.075c2.337 2.307 6.093 2.307 8.43 0l26.415-26.075c18.178-17.944 28.41-42.422 28.41-67.964v-.88c0-32.868-26.858-59.463-59.824-59.035z" fill="#e58e82"/></g><g><path d="m430.31 476.695c-18.178-17.944-28.41-42.422-28.41-67.964 0-30.106 22.225-55.546 51.346-59.4-2.801-.369-5.66-.553-8.57-.515-32.445.421-58.256 27.467-58.256 59.915 0 25.542 10.232 50.02 28.41 67.964l26.415 26.075c2.337 2.307 6.093 2.307 8.43 0l3.525-3.48z" fill="#e06c57"/></g><g><circle cx="445.46" cy="407.851" fill="#f6f1f1" r="23.106"/></g><g><g><path d="m65.756 348.816c-32.445.421-58.256 27.468-58.256 59.915 0 25.542 10.232 50.02 28.41 67.964l26.415 26.075c2.337 2.307 6.093 2.307 8.43 0l26.415-26.075c18.178-17.944 28.41-42.422 28.41-67.964v-.88c0-32.868-26.858-59.463-59.824-59.035z" fill="#fdcd08"/></g></g><g><g><path d="m51.39 476.695c-18.178-17.944-28.41-42.422-28.41-67.964 0-30.106 22.225-55.546 51.346-59.4-2.801-.369-5.66-.553-8.57-.515-32.445.421-58.256 27.468-58.256 59.915 0 25.542 10.232 50.02 28.41 67.964l26.415 26.075c2.337 2.307 6.093 2.307 8.43 0l3.525-3.48z" fill="#faab18"/></g></g><g><circle cx="66.54" cy="407.851" fill="#f6f1f1" r="23.106"/></g></g><g><path d="m499.5 0h-70.62c-4.142 0-7.5 3.358-7.5 7.5s3.358 7.5 7.5 7.5h68.12v32.52h-482v-32.52h379.446c4.142 0 7.5-3.358 7.5-7.5s-3.358-7.5-7.5-7.5h-381.946c-6.892 0-12.5 5.607-12.5 12.5v37.52c0 6.893 5.607 12.5 12.5 12.5h8.92v259.68c0 4.142 3.358 7.5 7.5 7.5s7.5-3.358 7.5-7.5v-259.68h439.16v258.96c0 4.142 3.358 7.5 7.5 7.5s7.5-3.358 7.5-7.5v-258.96h8.92c6.893 0 12.5-5.607 12.5-12.5v-37.52c0-6.893-5.607-12.5-12.5-12.5z"/><path d="m132.012 338.45h7.792c8.499 0 15.958-6.032 17.736-14.342l9.524-44.507c.418-1.953.63-3.957.63-5.954v-20.113c0-11.252-9.154-20.407-20.406-20.407h-39.12c-10.006 0-18.146 8.14-18.146 18.146v11.474c0 5.219 2.249 10.188 6.17 13.633l13.418 11.787c2.71 2.38 4.264 5.814 4.264 9.421v22.725c.001 10 8.137 18.137 18.138 18.137zm-25.92-73.339c-.68-.598-1.07-1.459-1.07-2.364v-11.474c0-1.735 1.411-3.146 3.146-3.146h39.12c2.981 0 5.406 2.425 5.406 5.407v20.113c0 .945-.1 1.892-.298 2.815l-9.524 44.507c-.308 1.438-1.598 2.481-3.068 2.481h-7.792c-1.73 0-3.137-1.407-3.137-3.137v-22.725c0-7.921-3.413-15.463-9.365-20.69z"/><path d="m430.364 270.774-23.944-21.628c-8.423-7.609-20.573-9.561-30.955-4.976l-35.582 15.715c-7.404 3.27-12.188 10.613-12.188 18.707v13.6c0 11.276 9.174 20.451 20.45 20.451 3.04 0 6.095-.694 8.836-2.008l9.039-4.33c2.098-1.003 4.645-.494 6.193 1.243l13.883 15.576c5.107 5.73 12.438 9.016 20.113 9.016h8.818c14.856 0 26.943-12.086 26.943-26.943v-8.298c0-9.94-4.23-19.461-11.606-26.125zm-3.394 34.423c0 6.585-5.357 11.943-11.943 11.943h-8.818c-3.402 0-6.652-1.457-8.915-3.997l-13.883-15.576c-3.922-4.401-9.507-6.759-15.171-6.759-2.953 0-5.929.642-8.7 1.969l-9.04 4.331c-.73.35-1.545.535-2.354.535-3.005 0-5.45-2.445-5.45-5.451v-13.6c0-2.157 1.275-4.114 3.248-4.986l35.581-15.715c4.977-2.201 10.802-1.263 14.841 2.385l23.944 21.628c4.233 3.824 6.661 9.289 6.661 14.994v8.299z"/><path d="m201.495 118.175h-47.966c-1.103 0-2.195-.367-3.073-1.035l-9.792-7.434c-3.472-2.636-7.785-4.088-12.144-4.088h-44.687c-11.074 0-20.083 9.009-20.083 20.083v7.637c0 11.074 9.009 20.083 20.083 20.083h13.73c2.803 0 5.083 2.28 5.083 5.083v41.082c0 11.074 9.009 20.083 20.083 20.083h1.751c8.878 0 16.594-5.702 19.199-14.189l3.445-11.222c.66-2.148 2.612-3.592 4.859-3.592h23.875c11.074 0 20.083-9.009 20.083-20.083 0-2.803 2.28-5.083 5.083-5.083h.471c11.074 0 20.083-9.009 20.083-20.083v-7.159c0-11.073-9.009-20.083-20.083-20.083zm5.083 27.242c0 2.803-2.28 5.083-5.083 5.083h-.471c-11.074 0-20.083 9.009-20.083 20.083 0 2.803-2.28 5.083-5.083 5.083h-23.875c-8.878 0-16.593 5.702-19.199 14.19l-3.445 11.222c-.659 2.148-2.612 3.591-4.859 3.591h-1.751c-2.803 0-5.083-2.28-5.083-5.083v-41.082c0-11.074-9.009-20.083-20.083-20.083h-13.73c-2.803 0-5.083-2.28-5.083-5.083v-7.637c0-2.803 2.28-5.083 5.083-5.083h44.687c1.103 0 2.195.367 3.073 1.035l9.792 7.434c3.472 2.636 7.785 4.088 12.144 4.088h47.966c2.803 0 5.083 2.28 5.083 5.083z"/><path d="m441.97 107.276c0-13.297-10.818-24.116-24.115-24.116h-59.485c-3.781 0-7.56.906-10.931 2.62l-75.626 38.457c-8.132 4.136-13.184 12.373-13.184 21.496v45.78c0 5.026-4.089 9.115-9.115 9.115h-13.24c-13.297 0-24.115 10.818-24.115 24.115v16.12c0 6.442 2.509 12.499 7.063 17.052l14.612 14.612c1.722 1.722 2.67 4.011 2.67 6.446v35.361c0 13.297 10.818 24.115 24.115 24.115 9.678 0 18.385-5.752 22.182-14.655l32.072-75.198c3.676-8.618 1.992-18.678-4.29-25.63l-7.115-7.872c-1.517-1.679-2.353-3.85-2.353-6.112v-8.425c0-5.026 4.089-9.115 9.115-9.115h21.123c3.026 0 5.846 1.495 7.544 3.999l6.514 9.606c4.493 6.625 11.954 10.58 19.959 10.58h19.071c8.987 0 17.166-4.941 21.347-12.896l33.412-63.569c1.812-3.446 2.769-7.326 2.769-11.22v-20.666zm-15 20.667c0 1.472-.362 2.938-1.047 4.241l-33.412 63.57c-1.58 3.007-4.672 4.875-8.069 4.875h-19.071c-3.026 0-5.846-1.495-7.544-3.999l-6.514-9.606c-4.493-6.625-11.954-10.58-19.959-10.58h-21.123c-13.297 0-24.115 10.818-24.115 24.115v8.425c0 5.986 2.21 11.728 6.224 16.169l7.115 7.873c2.375 2.627 3.011 6.43 1.622 9.688l-32.072 75.198c-1.435 3.365-4.726 5.54-8.385 5.54-5.026 0-9.115-4.089-9.115-9.115v-35.361c0-6.441-2.508-12.497-7.063-17.052l-14.612-14.612c-1.722-1.721-2.67-4.01-2.67-6.445v-16.12c0-5.026 4.089-9.115 9.115-9.115h13.24c13.297 0 24.115-10.818 24.115-24.115v-45.78c0-3.449 1.91-6.562 4.983-8.125l75.626-38.457c1.274-.648 2.703-.99 4.132-.99h59.485c5.026 0 9.115 4.089 9.115 9.116v20.662z"/><path d="m445.46 377.245c-16.876 0-30.606 13.73-30.606 30.606s13.73 30.606 30.606 30.606 30.606-13.73 30.606-30.606-13.73-30.606-30.606-30.606zm0 46.212c-8.605 0-15.606-7.001-15.606-15.606s7.001-15.606 15.606-15.606 15.606 7.001 15.606 15.606-7.001 15.606-15.606 15.606z"/><path d="m444.579 341.317c-18.258.237-34.792 8.051-46.705 20.441h-283.372c-.406-.422-.801-.851-1.219-1.264-12.764-12.6-29.676-19.403-47.625-19.178-36.203.471-65.658 30.713-65.658 67.415 0 27.362 11.168 54.08 30.641 73.301l26.416 26.076c2.615 2.581 6.049 3.871 9.483 3.871 3.435 0 6.869-1.29 9.484-3.871l26.415-26.075c19.473-19.222 30.641-45.939 30.641-73.301v-.88c0-11.029-2.668-21.63-7.683-31.093h123.103v27.094c-12.464 3.319-21.675 14.699-21.675 28.193 0 16.087 13.088 29.175 29.175 29.175s29.175-13.088 29.175-29.175c0-13.495-9.211-24.875-21.675-28.193v-27.094h123.451c-5.116 9.537-8.031 20.435-8.031 31.973 0 27.362 11.168 54.079 30.641 73.301l26.416 26.076c2.615 2.581 6.049 3.871 9.483 3.871 3.435 0 6.869-1.29 9.484-3.871l26.415-26.075c19.473-19.223 30.641-45.941 30.641-73.303v-.88c0-17.937-7.031-34.755-19.797-47.356-12.764-12.6-29.67-19.403-47.624-19.178zm-326.499 67.414c0 23.377-9.542 46.204-26.179 62.626l-25.361 25.036-25.361-25.035c-16.637-16.423-26.179-39.249-26.179-62.627 0-28.539 22.813-52.052 50.853-52.416 13.889-.167 27.005 5.095 36.892 14.854 9.888 9.761 15.334 22.788 15.334 36.681v.881zm152.095 23.314c0 7.816-6.359 14.175-14.175 14.175s-14.175-6.359-14.175-14.175 6.359-14.175 14.175-14.175 14.175 6.359 14.175 14.175zm226.825-23.314c0 23.377-9.542 46.204-26.178 62.626l-25.362 25.035-25.361-25.035c-16.637-16.423-26.179-39.25-26.179-62.626 0-28.539 22.813-52.052 50.853-52.416 13.896-.167 27.006 5.095 36.892 14.854 9.888 9.761 15.334 22.788 15.334 36.681v.881z"/><path d="m66.54 377.245c-16.876 0-30.606 13.73-30.606 30.606s13.73 30.606 30.606 30.606 30.606-13.73 30.606-30.606-13.729-30.606-30.606-30.606zm0 46.212c-8.605 0-15.606-7.001-15.606-15.606s7.001-15.606 15.606-15.606 15.606 7.001 15.606 15.606-7 15.606-15.606 15.606z"/><path d="m131.066 497h-17.186c-4.142 0-7.5 3.358-7.5 7.5s3.358 7.5 7.5 7.5h17.186c4.142 0 7.5-3.358 7.5-7.5s-3.358-7.5-7.5-7.5z"/><path d="m184.477 497h-17.185c-4.142 0-7.5 3.358-7.5 7.5s3.358 7.5 7.5 7.5h17.185c4.142 0 7.5-3.358 7.5-7.5s-3.358-7.5-7.5-7.5z"/><path d="m237.887 497h-17.185c-4.142 0-7.5 3.358-7.5 7.5s3.358 7.5 7.5 7.5h17.185c4.142 0 7.5-3.358 7.5-7.5s-3.357-7.5-7.5-7.5z"/><path d="m291.298 497h-17.185c-4.142 0-7.5 3.358-7.5 7.5s3.358 7.5 7.5 7.5h17.185c4.142 0 7.5-3.358 7.5-7.5s-3.358-7.5-7.5-7.5z"/><path d="m344.709 497h-17.185c-4.142 0-7.5 3.358-7.5 7.5s3.358 7.5 7.5 7.5h17.185c4.142 0 7.5-3.358 7.5-7.5s-3.358-7.5-7.5-7.5z"/><path d="m398.12 497h-17.186c-4.142 0-7.5 3.358-7.5 7.5s3.358 7.5 7.5 7.5h17.186c4.142 0 7.5-3.358 7.5-7.5s-3.358-7.5-7.5-7.5z"/></g></g></svg>