<svg id="Capa_1" enable-background="new 0 0 512 512" height="512" viewBox="0 0 512 512" width="512" xmlns="http://www.w3.org/2000/svg"><g><g><path d="m504.5 256c0-137.243-111.257-248.5-248.5-248.5s-246.5 122.734-246.5 248.5c0 125.468 109.257 248.5 246.5 248.5s248.5-111.257 248.5-248.5z" fill="#909ba6"/><path d="m22.5 256c0-134.733 107.228-244.411 241-248.378-2.492-.073-4.99-.122-7.5-.122-137.243 0-248.5 111.257-248.5 248.5s111.257 248.5 248.5 248.5c2.51 0 5.008-.037 7.5-.111-133.772-3.967-241-113.656-241-248.389z" fill="#7e8b96"/><path d="m474.5 256c0-120.674-97.826-218.5-218.5-218.5s-215.5 120-215.5 218.5c0 99.5 94.826 218.5 215.5 218.5s218.5-97.826 218.5-218.5z" fill="#f9f8f9"/><path d="m62.5 256c0-116.478 91.144-211.669 206-218.148-4.138-.234-8.304-.352-12.5-.352-120.674 0-218.5 97.826-218.5 218.5s97.826 218.5 218.5 218.5c4.196 0 8.362-.125 12.5-.359-114.856-6.479-206-101.663-206-218.141z" fill="#e8e8e8"/><g><path d="m416.5 202.5c0-21.416-14.96-39.338-35-43.885-3.216-.73-6.563-.115-10-.115-24.853 0-44 19.147-44 44s19.147 44 44 44c3.437 0 6.784.615 10-.115 20.04-4.547 35-22.469 35-43.885z" fill="#ffe07d"/><g fill="#ffd064"><circle cx="371.5" cy="202.5" r="15"/><path d="m344.5 202.5c0-24.138 16.963-39.336 37-43.885-3.218-.73-6.561-1.115-10-1.115-24.853 0-45 20.147-45 45s20.147 45 45 45c3.439 0 6.782-.385 10-1.115-20.037-4.549-37-19.896-37-43.885z"/></g></g><g><path d="m306.5 276.5c0-8.39-5.166-15.573-12.491-18.543-2.319-.94-4.853-.457-7.509-.457-11.046 0-19 7.954-19 19s7.954 19 19 19c2.652 0 5.184.484 7.5-.454 7.33-2.967 12.5-10.153 12.5-18.546z" fill="#ffe07d"/><path d="m281.5 276.5c0-8.391 5.183-15.574 12.509-18.543-2.318-.939-4.855-1.457-7.509-1.457-11.046 0-20 8.954-20 20s8.954 20 20 20c2.654 0 5.182-.515 7.5-1.454-7.327-2.968-12.5-10.155-12.5-18.546z" fill="#ffd064"/></g><circle cx="135.5" cy="361.5" fill="#a9e5f7" r="15"/><g><g><g><path d="m374.238 367.697c-2.294-.241-4.565-1.016-6.628-2.365-5.778-3.778-7.402-10.791-5.159-17.036.928-2.584 1.278-5.334.785-8.034-1.221-6.682-2.283-19.618 4.928-29.336 7.576-10.212 17.111-13.803 22.701-15.065 2.639-.595 5.147-1.744 7.146-3.567 4.982-4.543 12.61-5.3 18.482-1.346 6.957 4.684 8.427 14.489 3.671 21.398-7.254 10.539-16.783 12.795-22.528 14.156-4.072.964-5.596 3.293-4.846 7.41 1.082 5.944 2.894 15.892-4.417 27.075-3.185 4.87-8.72 7.279-14.135 6.71z" fill="#a9e5f7"/></g></g></g><g><path d="m263.892 177.5c0-6.54 4.363-13.566 2.751-19.598-1.668-6.241-9.008-10.137-12.169-15.601-3.207-5.543-2.944-13.834-7.443-18.332-4.498-4.498-12.789-4.235-18.332-7.442-5.464-3.161-9.36-10.501-15.601-12.169-6.032-1.612-13.057 2.751-19.598 2.751-1.106 0-2.226-.125-3.353-.324-5.535-.981-11.233-1.766-16.245-.426-6.241 1.668-10.137 9.008-15.601 12.169-5.543 3.207-11.834 1.944-16.332 6.443-4.498 4.498-4.235 11.789-7.442 17.332-3.161 5.464-10.501 9.36-12.169 15.601-1.612 6.032 2.751 13.057 2.751 19.598 0 6.54-4.363 13.566-2.751 19.598 1.668 6.241 10.008 10.137 13.169 15.601 3.207 5.543 1.944 13.834 6.443 18.332 4.498 4.498 10.789 2.235 16.332 5.442 5.464 3.161 9.36 10.501 15.601 12.169 5.012 1.34 10.709.554 16.244-.426 1.127-.2 2.247-.324 3.353-.324 6.54 0 13.566 4.363 19.598 2.751 6.241-1.668 10.137-9.008 15.601-12.169 5.543-3.207 13.834-2.944 18.332-7.443 4.498-4.498 4.235-12.789 7.442-18.332 3.161-5.464 10.501-9.36 12.169-15.601 1.613-6.034-2.75-13.06-2.75-19.6z" fill="#ffe07d"/><path d="m233.5 177.5c0-18.638-12.748-34.299-30-38.74-3.196-.823-6.547-.26-10-.26-22.091 0-39 16.909-39 39s16.909 39 39 39c3.452 0 6.801.563 9.997-.259 17.254-4.44 30.003-20.101 30.003-38.741z" fill="#ffd064"/><path d="m173.5 177.5c0-18.638 12.748-34.299 30-38.74-3.196-.823-6.547-1.26-10-1.26-22.091 0-40 17.909-40 40s17.909 40 40 40c3.453 0 6.804-.438 10-1.26-17.252-4.441-30-20.102-30-38.74z" fill="#ffc250"/><g fill="#ffd064"><path d="m209.647 104.013c-.018.001-.036.001-.055.001.018 0 .036-.001.055-.001z"/><path d="m210.657 104.013c.061 0 .122.004.184.005-.061-.003-.122-.003-.184-.005z"/><path d="m209.594 250.986c.017.001.034.001.051.001-.018 0-.034-.001-.051-.001z"/><path d="m136.649 177.5c0-33.657 22.63-62.002 53.498-70.716-5.536-.98-11.232-3.766-16.245-2.426-6.241 1.668-10.137 9.008-15.601 12.169-5.543 3.207-13.834 2.944-18.332 7.442-4.498 4.499-4.235 12.789-7.442 18.332-3.161 5.464-10.501 9.36-12.169 15.601-1.612 6.032 2.751 13.057 2.751 19.598s-4.363 13.566-2.751 19.598c1.668 6.241 9.008 10.137 12.169 15.601 3.207 5.543 2.944 13.834 7.443 18.332 4.498 4.498 12.789 4.235 18.332 7.442 5.464 3.161 9.36 10.501 15.601 12.169 5.012 1.34 10.696-1.444 16.232-2.424-30.869-8.713-53.486-37.061-53.486-70.718z"/><path d="m210.658 250.987c.061-.002.123-.002.184-.005-.062.001-.123.005-.184.005z"/></g></g><g><path d="m309.174 389.5c0-4.894 3.265-10.151 2.058-14.665-1.248-4.67-6.74-7.585-9.106-11.674-2.4-4.148-2.203-10.352-5.569-13.718s-9.57-3.169-13.718-5.569c-4.089-2.366-7.004-7.858-11.674-9.106-4.514-1.206-9.771 2.058-14.665 2.058-.716 0-1.44-.07-2.168-.185-4.249-.674-8.644-1.903-12.497-.873-4.67 1.248-7.585 6.74-11.674 9.106-4.148 2.4-9.352 2.203-12.718 5.569s-3.169 9.57-5.569 13.718c-2.366 4.089-7.858 6.004-9.106 10.674-1.206 4.514 2.058 9.771 2.058 14.665s-3.265 10.151-2.058 14.665c1.248 4.67 6.74 6.585 9.106 10.674 2.4 4.148 2.203 11.352 5.569 14.718s9.57 2.169 13.718 4.569c4.089 2.366 6.004 7.858 10.674 9.106 3.853 1.03 8.249-.199 12.497-.873.728-.116 1.452-.185 2.168-.185 4.894 0 10.151 3.265 14.665 2.058 4.67-1.248 7.585-6.74 11.674-9.106 4.148-2.4 10.352-2.203 13.718-5.569s3.169-9.57 5.569-13.718c2.366-4.089 7.858-7.004 9.106-11.674 1.207-4.514-2.058-9.771-2.058-14.665z" fill="#afefa5"/><path d="m281.5 389.5c0-11.194-7.357-20.67-17.5-23.855-2.368-.744-4.887-.145-7.5-.145-13.807 0-24 10.193-24 24s10.193 24 24 24c2.613 0 5.133.599 7.5-.145 10.143-3.185 17.5-12.661 17.5-23.855z" fill="#8ce1a4"/><path d="m246.5 389.5c0-11.194 7.363-20.668 17.505-23.854-2.368-.744-4.892-1.146-7.505-1.146-13.807 0-25 11.193-25 25s11.193 25 25 25c2.613 0 5.132-.402 7.5-1.146-10.142-3.186-17.5-12.66-17.5-23.854z" fill="#7bd6a4"/><g fill="#8ce1a4"><path d="m214.5 389.5c0-25.112 16.836-46.273 39.832-52.859-4.249-.674-8.643-2.903-12.497-1.873-4.67 1.248-7.585 6.74-11.674 9.106-4.148 2.4-10.352 2.203-13.718 5.569s-3.169 9.57-5.569 13.718c-2.366 4.089-7.858 7.004-9.106 11.674-1.206 4.514 2.058 9.771 2.058 14.665s-3.265 10.151-2.058 14.665c1.248 4.67 6.74 7.585 9.106 11.674 2.4 4.148 2.203 10.352 5.569 13.718s9.57 3.169 13.718 5.569c4.089 2.366 7.004 7.858 11.674 9.106 3.854 1.03 8.248-1.199 12.497-1.873-22.996-6.586-39.832-27.747-39.832-52.859z"/><path d="m269.12 334.51c-.276-.003-.555.003-.835.021.279-.006.556-.02.835-.021z"/><path d="m268.286 444.469c.28.018.558.024.834.021-.279-.001-.556-.015-.834-.021z"/></g></g></g><g><path d="m437.02 74.98c-48.353-48.351-112.64-74.98-181.02-74.98s-132.667 26.629-181.02 74.98c-48.351 48.353-74.98 112.64-74.98 181.02 0 44.946 11.815 89.16 34.169 127.862 2.072 3.586 6.659 4.812 10.246 2.743 3.587-2.072 4.815-6.659 2.744-10.246-21.039-36.423-32.159-78.043-32.159-120.359 0-132.888 108.112-241 241-241s241 108.112 241 241-108.112 241-241 241c-74.568 0-143.749-33.704-189.802-92.47-2.556-3.261-7.271-3.832-10.529-1.277-3.261 2.555-3.832 7.269-1.277 10.53 23.439 29.909 53.756 54.643 87.673 71.526 35.577 17.711 73.911 26.691 113.935 26.691 68.38 0 132.667-26.629 181.02-74.98 48.351-48.353 74.98-112.64 74.98-181.02s-26.629-132.667-74.98-181.02z"/><path d="m406.268 422.126c1.852 0 3.707-.682 5.157-2.056 22.057-20.901 39.412-45.545 51.583-73.25 12.602-28.683 18.992-59.239 18.992-90.82 0-60.367-23.508-117.121-66.194-159.806s-99.439-66.194-159.806-66.194c-54.112 0-106.463 19.422-147.412 54.688-3.139 2.703-3.491 7.439-.789 10.578 2.703 3.138 7.438 3.492 10.578.789 38.227-32.924 87.102-51.055 137.623-51.055 116.346 0 211 94.654 211 211 0 58.516-23.401 112.917-65.892 153.183-3.007 2.849-3.134 7.596-.285 10.603 1.474 1.556 3.458 2.34 5.445 2.34z"/><path d="m93.985 109.2c-3.163-2.677-7.895-2.282-10.57.88-34.445 40.701-53.415 92.523-53.415 145.92 0 60.367 23.508 117.121 66.194 159.806s99.439 66.194 159.806 66.194c45.66 0 89.654-13.551 127.227-39.187 3.421-2.334 4.303-7.001 1.968-10.422-2.335-3.422-7-4.303-10.422-1.968-35.071 23.929-76.142 36.577-118.773 36.577-116.346 0-211-94.654-211-211 0-49.854 17.709-98.234 49.865-136.229 2.676-3.163 2.282-7.895-.88-10.571z"/><path d="m241 177.5c0-26.191-21.309-47.5-47.5-47.5s-47.5 21.309-47.5 47.5 21.309 47.5 47.5 47.5 47.5-21.309 47.5-47.5zm-80 0c0-17.92 14.58-32.5 32.5-32.5s32.5 14.58 32.5 32.5-14.58 32.5-32.5 32.5-32.5-14.58-32.5-32.5z"/><path d="m371.5 255c28.949 0 52.5-23.551 52.5-52.5s-23.551-52.5-52.5-52.5c-3.925 0-7.841.436-11.638 1.296-4.04.915-6.573 4.932-5.658 8.972.916 4.04 4.929 6.572 8.972 5.658 2.711-.614 5.512-.926 8.324-.926 20.678 0 37.5 16.822 37.5 37.5s-16.822 37.5-37.5 37.5-37.5-16.822-37.5-37.5c0-7.08 1.98-13.972 5.728-19.93 2.205-3.506 1.15-8.137-2.356-10.342-3.507-2.205-8.136-1.15-10.342 2.356-5.253 8.354-8.03 18.006-8.03 27.916 0 28.949 23.551 52.5 52.5 52.5z"/><path d="m371.5 225c12.407 0 22.5-10.093 22.5-22.5s-10.093-22.5-22.5-22.5-22.5 10.093-22.5 22.5 10.093 22.5 22.5 22.5zm0-30c4.136 0 7.5 3.364 7.5 7.5s-3.364 7.5-7.5 7.5-7.5-3.364-7.5-7.5 3.364-7.5 7.5-7.5z"/><path d="m259 276.5c0 15.164 12.336 27.5 27.5 27.5s27.5-12.336 27.5-27.5-12.336-27.5-27.5-27.5-27.5 12.336-27.5 27.5zm27.5-12.5c6.893 0 12.5 5.607 12.5 12.5s-5.607 12.5-12.5 12.5-12.5-5.607-12.5-12.5 5.607-12.5 12.5-12.5z"/><path d="m135.5 339c-12.407 0-22.5 10.093-22.5 22.5s10.093 22.5 22.5 22.5 22.5-10.093 22.5-22.5-10.093-22.5-22.5-22.5zm0 30c-4.136 0-7.5-3.364-7.5-7.5s3.364-7.5 7.5-7.5 7.5 3.364 7.5 7.5-3.364 7.5-7.5 7.5z"/><path d="m200.015 256.698c4.496 1.239 9.591 2.641 15.021 1.19 5.618-1.502 9.551-5.514 12.711-8.737 2.885-2.992 4.855-5.001 10.823-6.241 4.557-1.187 9.721-2.532 13.765-6.576s5.389-9.209 6.576-13.766c1.019-3.977 1.689-6.813 6.24-10.822 3.224-3.16 7.236-7.094 8.738-12.712 1.451-5.429.048-10.524-1.19-15.02-1.154-4.073-1.975-7.081 0-13.029 1.238-4.496 2.642-9.591 1.19-15.021-1.502-5.618-5.514-9.551-8.737-12.711-2.992-2.885-5.001-4.855-6.241-10.823-1.187-4.557-2.532-9.721-6.576-13.765s-9.209-5.389-13.766-6.576c-3.977-1.019-6.813-1.689-10.822-6.24-3.16-3.224-7.094-7.236-12.712-8.738-5.43-1.453-10.524-.048-15.02 1.19-4.073 1.154-7.081 1.975-13.029 0-4.496-1.239-9.592-2.64-15.021-1.19-5.618 1.502-9.551 5.514-12.711 8.737-2.885 2.992-4.855 5.001-10.823 6.241-4.557 1.187-9.721 2.532-13.765 6.576s-5.389 9.209-6.576 13.766c-1.019 3.977-1.689 6.813-6.24 10.822-3.224 3.16-7.236 7.094-8.738 12.712-1.451 5.429-.048 10.524 1.19 15.02 1.154 4.073 1.975 7.081 0 13.029-1.238 4.496-2.642 9.591-1.19 15.021 1.502 5.618 5.514 9.551 8.737 12.711 2.992 2.885 5.001 4.855 6.241 10.823 1.187 4.557 2.532 9.721 6.576 13.765s9.209 5.389 13.766 6.576c3.977 1.019 6.813 1.689 10.822 6.24 3.16 3.224 7.094 7.236 12.712 8.738 1.643.439 3.255.617 4.83.617 3.628 0 7.055-.943 10.19-1.807 4.072-1.154 7.08-1.976 13.029 0zm-17.013-14.462c-2.786.768-5.665 1.563-7.163 1.161-1.654-.442-3.8-2.631-5.875-4.748-3.612-4.145-10.368-8.993-17.753-10.255-2.84-.74-5.777-1.504-6.939-2.667-1.162-1.162-1.927-4.098-2.667-6.938-1.072-5.346-4.473-13.003-10.255-17.753-2.117-2.075-4.306-4.221-4.748-5.874-.4-1.497.394-4.378 1.161-7.164 1.789-5.271 2.654-13.848 0-20.995-.767-2.786-1.561-5.667-1.161-7.163.442-1.654 2.631-3.8 4.748-5.875 4.145-3.612 8.993-10.368 10.255-17.753.74-2.84 1.504-5.777 2.667-6.939 1.162-1.162 4.098-1.927 6.938-2.667 5.346-1.072 13.003-4.473 17.753-10.255 2.075-2.117 4.221-4.306 5.874-4.748 1.92-.272 3.23.144 7.164 1.161 5.271 1.789 13.848 2.654 20.995 0 2.786-.767 5.668-1.56 7.163-1.161 1.654.442 3.8 2.631 5.875 4.748 3.612 4.144 10.368 8.993 17.753 10.255 2.84.74 5.777 1.504 6.939 2.667 1.162 1.162 1.927 4.098 2.667 6.938 1.072 5.346 4.473 13.003 10.255 17.753 2.117 2.075 4.306 4.221 4.748 5.874.4 1.497-.394 4.378-1.161 7.164-1.789 5.271-2.654 13.848 0 20.995.767 2.786 1.561 5.667 1.161 7.163-.442 1.654-2.631 3.8-4.748 5.875-4.145 3.612-8.993 10.368-10.255 17.753-.74 2.84-1.504 5.777-2.667 6.939-1.162 1.162-4.098 1.927-6.938 2.667-5.346 1.072-13.003 4.473-17.753 10.255-2.075 2.117-4.221 4.306-5.874 4.748-1.499.402-4.378-.394-7.164-1.161-5.27-1.789-13.847-2.654-20.995 0z"/><path d="m256.5 357c-17.92 0-32.5 14.58-32.5 32.5s14.58 32.5 32.5 32.5 32.5-14.58 32.5-32.5-14.58-32.5-32.5-32.5zm0 50c-9.649 0-17.5-7.851-17.5-17.5s7.851-17.5 17.5-17.5 17.5 7.851 17.5 17.5-7.851 17.5-17.5 17.5z"/><path d="m318.478 372.898c-1.257-4.703-4.464-7.847-7.04-10.373-1.48-1.744-3.069-2.12-4.165-7.227-.901-3.462-2.023-7.771-5.413-11.16-3.389-3.389-7.698-4.511-11.16-5.413-2.096-.775-3.766-.299-7.226-4.165-2.526-2.577-5.67-5.783-10.373-7.04-4.558-1.217-8.811-.047-12.229.894-2.291.405-3.606 1.659-8.747 0-3.417-.941-7.671-2.112-12.229-.894-4.703 1.257-7.847 4.464-10.373 7.04-1.744 1.48-2.12 3.069-7.227 4.165-3.462.901-7.771 2.023-11.16 5.413-3.389 3.389-4.511 7.698-5.413 11.16-.775 2.096-.299 3.766-4.165 7.226-2.577 2.526-5.783 5.67-7.04 10.373-1.218 4.558-.047 8.811.894 12.229.405 2.291 1.659 3.606 0 8.747-.941 3.417-2.112 7.671-.894 12.229 1.257 4.703 4.464 7.847 7.04 10.373 1.48 1.744 3.069 2.12 4.165 7.227.901 3.462 2.023 7.771 5.413 11.16 3.389 3.389 7.698 4.511 11.16 5.413 2.096.775 3.766.299 7.226 4.165 2.526 2.577 5.67 5.783 10.373 7.04 1.396.373 2.764.522 4.088.522 2.997 0 5.77-.763 8.141-1.416 2.291-.405 3.606-1.659 8.747 0 3.417.941 7.672 2.112 12.229.894 4.703-1.257 7.847-4.464 10.373-7.04 1.744-1.48 2.12-3.069 7.227-4.165 3.462-.901 7.771-2.023 11.16-5.413 3.389-3.389 4.511-7.698 5.413-11.16.775-2.096.299-3.766 4.165-7.226 2.577-2.526 5.783-5.67 7.04-10.373 1.218-4.558.047-8.811-.894-12.229-.405-2.291-1.659-3.606 0-8.747.941-3.418 2.112-7.671.894-12.229zm-14.491 29.331c-.197.738-1.914 2.421-3.05 3.535-3.007 2.728-6.925 7.644-8.18 14.158-.373 1.431-.996 3.826-1.503 4.333s-2.902 1.131-4.333 1.503c-3.927.869-9.844 3.155-14.157 8.179-1.114 1.136-2.797 2.853-3.53 3.049-.698.152-3.001-.484-4.378-.863-3.914-1.24-10.336-2.211-16.712 0-1.378.38-3.687 1.011-4.373.865-.738-.197-2.421-1.914-3.535-3.05-2.728-3.007-7.644-6.925-14.158-8.18-1.431-.373-3.826-.996-4.333-1.503s-1.131-2.902-1.503-4.333c-.869-3.927-3.155-9.844-8.179-14.157-1.136-1.114-2.853-2.797-3.049-3.53-.151-.694.484-3 .863-4.378 1.24-3.914 2.211-10.336 0-16.712-.379-1.378-1.015-3.684-.865-4.373.197-.738 1.914-2.421 3.05-3.535 3.007-2.728 6.925-7.644 8.18-14.158.373-1.431.996-3.826 1.503-4.333s2.902-1.131 4.333-1.503c3.927-.869 9.844-3.155 14.157-8.179 1.114-1.136 2.797-2.853 3.53-3.049 1.044-.03 1.363.101 4.378.863 3.914 1.24 10.336 2.211 16.712 0 1.378-.38 3.686-1.012 4.373-.865.738.197 2.421 1.914 3.535 3.05 2.728 3.007 7.644 6.925 14.158 8.18 1.431.373 3.826.996 4.333 1.503s1.131 2.902 1.503 4.333c.869 3.927 3.155 9.844 8.179 14.157 1.136 1.114 2.853 2.797 3.049 3.53.151.694-.484 3-.863 4.378-1.24 3.914-2.211 10.336 0 16.712.379 1.378 1.015 3.684.865 4.373z"/><path d="m92.871 243.073c-2.155-3.612-1.762-5.91-.669-10.764 1.22-5.418 2.891-12.839-2.421-21.743-2.122-3.558-6.726-4.721-10.283-2.599-3.558 2.122-4.721 6.726-2.599 10.283 2.155 3.612 1.762 5.91.669 10.764-1.22 5.418-2.891 12.839 2.421 21.743s12.635 10.96 17.983 12.462c4.792 1.345 7 2.092 9.156 5.705 2.155 3.612 1.763 5.911.67 10.766-1.219 5.419-2.889 12.84 2.423 21.745 1.404 2.354 3.894 3.659 6.448 3.659 1.307 0 2.631-.342 3.835-1.06 3.557-2.122 4.721-6.726 2.599-10.283-2.155-3.613-1.763-5.912-.67-10.767 1.219-5.418 2.89-12.84-2.422-21.744s-12.635-10.96-17.983-12.462c-4.793-1.346-7.002-2.092-9.157-5.705z"/><path d="m363.504 371.609c8.728 6.397 24.567 4.02 31.146-6.518 8.515-13.023 6.907-24.748 5.699-31.526 6.501-1.565 17.543-4.691 25.993-16.967 6.432-9.021 5.203-24.789-5.661-31.871-8.639-5.816-20.039-4.983-27.724 2.025-.904.824-2.199 1.444-3.743 1.793-6.183 1.395-17.922 5.577-27.074 17.912-8.871 11.957-7.744 27.157-6.282 35.152.229 1.256.073 2.654-.465 4.152-3.575 9.951-.315 20.339 8.111 25.848zm6.005-20.778c1.422-3.961 1.804-8.082 1.104-11.917-1.024-5.604-1.922-16.112 3.573-23.519 6.266-8.446 14.173-11.28 18.33-12.217 4.078-.921 7.726-2.768 10.547-5.341 2.559-2.332 6.358-2.607 9.24-.667 2.662 1.92 4.366 6.316 1.683 10.924-5.617 8.16-12.819 9.865-18.079 11.11-7.936 1.879-11.958 8.03-10.496 16.053.995 5.464 2.358 12.948-3.316 21.626-1.915 2.409-5.999 4.886-10.382 2.173-3.083-2.017-3.114-5.691-2.204-8.225z"/><path d="m324.182 99.085c4.08 1.027 5.43 2.929 8.094 7.132 2.974 4.691 7.046 11.116 17.101 13.647.615.155 1.23.229 1.836.229 3.356 0 6.411-2.269 7.268-5.671 1.011-4.017-1.425-8.093-5.442-9.104-4.079-1.027-5.429-2.929-8.093-7.132-2.974-4.691-7.046-11.116-17.102-13.647-10.053-2.531-16.684 1.2-21.524 3.924-4.337 2.441-6.427 3.476-10.505 2.45-4.079-1.027-5.428-2.928-8.092-7.131-2.973-4.691-7.045-11.116-17.099-13.647-4.02-1.013-8.093 1.425-9.104 5.442s1.425 8.093 5.442 9.104c4.078 1.027 5.428 2.928 8.091 7.131 2.973 4.691 7.045 11.117 17.1 13.647 10.055 2.532 16.684-1.2 21.524-3.924 4.336-2.441 6.427-3.478 10.505-2.45z"/><circle cx="203.5" cy="311.5" r="7.5"/><circle cx="172.5" cy="317.503" r="7.5"/><circle cx="182.5" cy="287.5" r="7.5"/></g></g></svg>