<svg id="Capa_1" enable-background="new 0 0 512 512" height="512" viewBox="0 0 512 512" width="512" xmlns="http://www.w3.org/2000/svg"><g><g><g><g fill="#f6df59"><g><path d="m70.767 206.3h27.699c3.893 0 7.279-2.707 8.085-6.516 2.804-13.251 13.869-24.18 26.945-26.965 3.816-.813 6.538-4.188 6.538-8.089v-27.697h-69.267z"/><path d="m371.967 137.033v27.697c0 3.902 2.722 7.276 6.538 8.089 13.076 2.785 24.141 13.714 26.945 26.965.806 3.809 4.192 6.516 8.085 6.516h27.699v-69.267z"/></g><g><path d="m441.233 239.433h-27.699c-3.893 0-7.279 2.707-8.085 6.516-2.804 13.251-13.869 24.18-26.945 26.965-3.816.813-6.538 4.187-6.538 8.089v27.697h69.267z"/><path d="m140.033 308.7v-27.697c0-3.901-2.722-7.276-6.538-8.089-13.076-2.785-24.141-13.714-26.945-26.965-.806-3.809-4.192-6.516-8.085-6.516h-27.698v69.267z"/></g></g></g><path d="m438.233 140.033h41.417v165.667h-41.417z" fill="#dc3d36"/><path d="m456.65 140.033h23v165.667h-23z" fill="#b13d49"/><path d="m32.35 140.033h41.417v165.667h-41.417z" fill="#dc3d36"/><path d="m50.767 140.033h23v165.667h-23z" fill="#b13d49"/><path d="m24.067 305.7h463.867v38.385h-463.867z" fill="#dc3d36" transform="matrix(-1 0 0 -1 512 649.785)"/><path d="m464.933 305.7h23v38.385h-23z" fill="#b13d49"/><path d="m24.067 101.648h463.867v38.385h-463.867z" fill="#dc3d36" transform="matrix(-1 0 0 -1 512 241.682)"/><path d="m464.933 101.648h23v38.385h-23z" fill="#b13d49"/><g><path d="m305.7 140.033h33.133v165.667h-33.133z" fill="#f3ffff"/><path d="m315.833 140.033h23v165.667h-23z" fill="#dff9f9"/></g><g><path d="m239.433 140.033h33.133v165.667h-33.133z" fill="#f3ffff"/><path d="m249.567 140.033h23v165.667h-23z" fill="#dff9f9"/></g><g><path d="m173.167 140.033h33.133v165.667h-33.133z" fill="#f3ffff"/><path d="m183.3 140.033h23v165.667h-23z" fill="#dff9f9"/></g><g><path d="m106.9 90.333v-16.566c-19.076 0-34.388-16.121-33.052-35.484 1.127-16.338 14.364-29.575 30.702-30.702 18.13-1.25 33.42 12.095 35.291 29.461.22 2.038 1.922 3.591 3.972 3.591h19.133c1.178 0 2.306-.512 3.054-1.423 7.596-9.245 19.116-15.144 32.016-15.144 3.501 0 6.901.437 10.148 1.255 1.266.319 2.618.011 3.589-.862 11.733-10.536 27.236-16.959 44.247-16.959s32.514 6.423 44.246 16.96c.971.872 2.323 1.181 3.589.862 3.247-.819 6.646-1.255 10.148-1.255 12.9 0 24.42 5.898 32.016 15.144.748.911 1.876 1.423 3.054 1.423h19.133c2.05 0 3.753-1.553 3.972-3.591 1.872-17.366 17.161-30.712 35.291-29.461 16.338 1.127 29.575 14.364 30.702 30.702 1.335 19.362-13.976 35.484-33.052 35.484v16.567h-298.199z" fill="#e59f4f"/><g><g><g><path d="m276.578 24.46c.971.872 2.323 1.181 3.589.862 3.247-.819 6.646-1.255 10.148-1.255 12.899 0 24.42 5.898 32.016 15.144.748.911 1.876 1.423 3.054 1.423h19.133c.842 0 1.617-.272 2.263-.722-.287-.2-.557-.425-.783-.701-7.596-9.245-19.116-15.144-32.016-15.144-3.501 0-6.901.437-10.148 1.255-1.266.319-2.618.011-3.589-.862-11.731-10.537-27.233-16.96-44.245-16.96-4.041 0-7.993.373-11.834 1.067 12.326 2.228 23.467 7.859 32.412 15.893z" fill="#e27f4d"/></g><g><path d="m116.173 37.042c.22 2.038 1.922 3.591 3.972 3.591h19.133c.822 0 1.61-.263 2.271-.722-.927-.646-1.579-1.668-1.709-2.869-1.871-17.365-17.16-30.711-35.29-29.461-3.308.228-6.485.96-9.464 2.107 11.374 4.359 19.735 14.805 21.087 27.354z" fill="#e27f4d"/></g><g><path d="m438.152 38.283c-1.127-16.338-14.363-29.575-30.702-30.702-5.029-.347-9.838.433-14.204 2.107 11.734 4.515 20.339 15.565 21.238 28.596 1.335 19.362-13.976 35.483-33.052 35.483v16.567h23.668v-16.567c19.076 0 34.387-16.122 33.052-35.484z" fill="#e27f4d"/></g></g></g></g><path d="m496.5 106.9h-481c-4.418 0-8-3.582-8-8v-17.133c0-4.418 3.582-8 8-8h481c4.418 0 8 3.582 8 8v17.133c0 4.418-3.582 8-8 8z" fill="#f6df59"/><path d="m496.5 73.767h-23c4.418 0 8 3.582 8 8v17.133c0 4.418-3.582 8-8 8h23c4.418 0 8-3.582 8-8v-17.133c0-4.419-3.582-8-8-8z" fill="#edbf50"/><path d="m50.767 438.233h-34.984c-4.575 0-8.283-3.708-8.283-8.283v-16.567c0-4.575 3.709-8.283 8.283-8.283h34.983v33.133z" fill="#f6df59"/><path d="m57.2 371.967h-41.417c-4.575 0-8.283-3.709-8.283-8.283v-16.567c0-4.575 3.709-8.283 8.283-8.283h480.433c4.575 0 8.283 3.709 8.283 8.283v16.567c0 4.575-3.709 8.283-8.283 8.283h-41.416z" fill="#f6df59"/><path d="m496.217 338.833h-23c4.575 0 8.283 3.709 8.283 8.283v16.567c0 4.575-3.708 8.283-8.283 8.283h23c4.575 0 8.283-3.709 8.283-8.283v-16.567c0-4.574-3.708-8.283-8.283-8.283z" fill="#edbf50"/><g><path d="m388.533 338.833c-45.748 0-82.833 37.086-82.833 82.833s37.086 82.833 82.833 82.833c45.748 0 82.833-37.086 82.833-82.833.001-45.747-37.085-82.833-82.833-82.833zm0 132.534c-27.449 0-49.7-22.251-49.7-49.7s22.251-49.7 49.7-49.7 49.7 22.251 49.7 49.7c0 27.448-22.251 49.7-49.7 49.7z" fill="#413e82"/><path d="m388.533 338.833c-3.904 0-7.739.29-11.5.813 40.302 5.601 71.333 40.177 71.333 82.021 0 41.843-31.032 76.42-71.333 82.021 3.761.522 7.596.813 11.5.813 45.748 0 82.833-37.086 82.833-82.833.001-45.749-37.085-82.835-82.833-82.835z" fill="#2f2c59"/><ellipse cx="388.533" cy="421.667" fill="#f3ffff" rx="16.567" ry="16.567" transform="matrix(.75 -.662 .662 .75 -181.804 362.703)"/><path d="m388.533 405.1c-4.47 0-8.52 1.779-11.5 4.657 3.119 3.013 5.067 7.23 5.067 11.909s-1.948 8.897-5.067 11.909c2.98 2.878 7.03 4.657 11.5 4.657 9.15 0 16.567-7.417 16.567-16.567s-7.417-16.565-16.567-16.565z" fill="#dff9f9"/></g><g><path d="m123.466 338.833c-45.747 0-82.833 37.086-82.833 82.833s37.086 82.833 82.833 82.833c45.748 0 82.834-37.086 82.834-82.833s-37.086-82.833-82.834-82.833zm0 132.534c-27.448 0-49.7-22.251-49.7-49.7s22.251-49.7 49.7-49.7 49.7 22.251 49.7 49.7c.001 27.448-22.251 49.7-49.7 49.7z" fill="#413e82"/><path d="m123.466 338.833c-3.904 0-7.739.29-11.5.813 40.302 5.601 71.334 40.177 71.334 82.021 0 41.843-31.032 76.42-71.334 82.021 3.761.522 7.596.813 11.5.813 45.748 0 82.834-37.086 82.834-82.833 0-45.749-37.086-82.835-82.834-82.835z" fill="#2f2c59"/><ellipse cx="123.467" cy="421.667" fill="#f3ffff" rx="16.567" ry="16.567" transform="matrix(.276 -.961 .961 .276 -315.899 423.878)"/><path d="m123.466 405.1c-4.47 0-8.52 1.779-11.5 4.657 3.119 3.013 5.067 7.23 5.067 11.909s-1.948 8.897-5.067 11.909c2.98 2.878 7.03 4.657 11.5 4.657 9.15 0 16.567-7.417 16.567-16.567s-7.417-16.565-16.567-16.565z" fill="#dff9f9"/></g></g><g><path d="m163.914 381.22c-.196-.196-.401-.377-.613-.546-10.308-10.019-24.359-16.207-39.835-16.207s-29.527 6.188-39.835 16.208c-.211.17-.416.35-.612.546s-.377.401-.547.613c-10.019 10.308-16.206 24.358-16.206 39.834s6.188 29.526 16.206 39.834c.17.211.351.417.547.613s.401.376.612.546c10.308 10.02 24.359 16.207 39.835 16.207s29.527-6.188 39.835-16.207c.211-.17.416-.35.612-.546s.377-.401.547-.613c10.019-10.308 16.206-24.358 16.206-39.834s-6.188-29.526-16.207-39.834c-.169-.212-.349-.418-.545-.614zm-5.796 64.492-13.185-13.184c1.659-3.266 2.6-6.954 2.6-10.861 0-3.906-.941-7.595-2.6-10.86l13.185-13.185c4.753 6.828 7.549 15.114 7.549 24.045s-2.797 17.217-7.549 24.045zm-69.303-.001c-4.752-6.828-7.549-15.114-7.549-24.044 0-8.931 2.796-17.216 7.549-24.044l13.185 13.184c-1.658 3.265-2.6 6.953-2.6 10.859s.941 7.594 2.6 10.86zm25.585-24.044c0-4.999 4.067-9.066 9.066-9.066s9.066 4.067 9.066 9.066-4.067 9.067-9.066 9.067c-4.998-.001-9.066-4.068-9.066-9.067zm33.112-34.651-13.185 13.184c-3.265-1.659-6.954-2.6-10.86-2.6s-7.595.941-10.86 2.6l-13.185-13.185c6.828-4.752 15.114-7.549 24.045-7.549 8.931.001 17.217 2.797 24.045 7.55zm-48.09 69.302 13.185-13.185c3.265 1.659 6.954 2.6 10.86 2.6s7.595-.942 10.86-2.6l13.185 13.184c-6.828 4.752-15.114 7.549-24.045 7.549-8.931.001-17.217-2.796-24.045-7.548z"/><path d="m428.98 381.22c-.196-.196-.401-.376-.612-.546-10.308-10.02-24.359-16.208-39.836-16.208-15.476 0-29.527 6.188-39.835 16.208-.211.17-.416.35-.612.546s-.376.401-.546.612c-10.019 10.308-16.207 24.358-16.207 39.834s6.188 29.526 16.207 39.834c.17.211.35.417.546.613s.402.377.613.547c10.308 10.019 24.358 16.207 39.834 16.207s29.527-6.188 39.835-16.207c.211-.17.417-.35.612-.546.196-.196.377-.402.547-.613 10.019-10.308 16.206-24.358 16.206-39.834s-6.188-29.526-16.207-39.834c-.168-.211-.348-.417-.545-.613zm-5.795 64.491-13.185-13.185c1.658-3.265 2.6-6.954 2.6-10.86s-.941-7.594-2.6-10.859l13.185-13.185c4.752 6.828 7.549 15.113 7.549 24.044-.001 8.931-2.797 17.217-7.549 24.045zm-69.303.001c-4.753-6.828-7.549-15.114-7.549-24.045s2.797-17.217 7.549-24.045l13.185 13.185c-1.659 3.265-2.6 6.954-2.6 10.86 0 3.907.941 7.595 2.6 10.861zm25.585-24.045c0-4.999 4.067-9.066 9.066-9.066s9.066 4.067 9.066 9.066-4.067 9.067-9.066 9.067-9.066-4.068-9.066-9.067zm33.111-34.651-13.185 13.184c-3.265-1.659-6.954-2.6-10.86-2.6s-7.595.941-10.86 2.6l-13.185-13.185c6.828-4.752 15.114-7.549 24.045-7.549 8.931.001 17.217 2.797 24.045 7.55zm-48.09 69.302 13.185-13.184c3.265 1.659 6.954 2.6 10.86 2.6s7.595-.941 10.86-2.6l13.185 13.185c-6.828 4.752-15.113 7.549-24.044 7.549-8.932-.001-17.218-2.798-24.046-7.55z"/><path d="m496.5 114.4c8.547 0 15.5-6.953 15.5-15.5v-17.133c0-8.547-6.953-15.5-15.5-15.5h-59.901c5.706-6.998 9.134-15.921 9.134-25.633 0-22.406-18.228-40.634-40.633-40.634-19.844 0-36.41 14.298-39.939 33.133h-14.48c-9.29-10.575-22.461-16.566-36.696-16.566-3.428 0-6.828.355-10.156 1.06-13.351-11.398-30.175-17.627-47.829-17.627s-34.479 6.229-47.827 17.626c-3.328-.704-6.729-1.06-10.156-1.06-14.235 0-27.406 5.992-36.696 16.566h-14.48c-3.53-18.834-20.097-33.132-39.941-33.132-22.405 0-40.633 18.228-40.633 40.633 0 9.712 3.429 18.636 9.134 25.633h-12.267c-4.143 0-7.5 3.358-7.5 7.5s3.357 7.5 7.5 7.5h433.366c.275 0 .5.224.5.5v17.134c0 .276-.225.5-.5.5h-472.434-8.566c-.275 0-.5-.224-.5-.5v-17.133c0-.276.225-.5.5-.5h17.634c4.143 0 7.5-3.358 7.5-7.5s-3.357-7.5-7.5-7.5h-17.634c-8.547 0-15.5 6.953-15.5 15.5v17.133c0 8.547 6.953 15.5 15.5 15.5h1.066v18.133h-.783c-4.143 0-7.5 3.358-7.5 7.5s3.357 7.5 7.5 7.5h9.066v102.534c0 4.142 3.357 7.5 7.5 7.5s7.5-3.358 7.5-7.5v-102.534h26.417v150.667h-26.416v-18.133c0-4.142-3.357-7.5-7.5-7.5s-7.5 3.358-7.5 7.5v18.133h-9.066c-4.143 0-7.5 3.358-7.5 7.5s3.357 7.5 7.5 7.5h.783v18.133h-.783c-8.704.001-15.784 7.081-15.784 15.784v16.566c0 8.703 7.08 15.784 15.783 15.784h27.834c-3.03 5.711-5.466 11.782-7.224 18.133h-20.61c-8.703 0-15.783 7.081-15.783 15.783v16.567c0 8.703 7.08 15.783 15.783 15.783h20.61c10.562 38.164 45.595 66.267 87.074 66.267 49.81 0 90.333-40.523 90.333-90.333 0-15.234-3.796-29.596-10.484-42.2h105.368c-6.688 12.603-10.484 26.965-10.484 42.2 0 49.81 40.523 90.333 90.333 90.333 49.811 0 90.334-40.523 90.334-90.333 0-15.234-3.796-29.596-10.484-42.2h27.834c8.703 0 15.783-7.081 15.783-15.784v-16.566c0-8.703-7.08-15.783-15.783-15.783h-.783v-18.134h.783c4.143 0 7.5-3.358 7.5-7.5s-3.357-7.5-7.5-7.5h-9.066v-150.667h9.066c4.143 0 7.5-3.358 7.5-7.5s-3.357-7.5-7.5-7.5h-.783v-18.133zm-415.233-73.767c0-14.134 11.499-25.633 25.633-25.633s25.633 11.499 25.633 25.633c0 4.142 3.357 7.5 7.5 7.5h24.85c2.358 0 4.58-1.109 5.996-2.995 6.479-8.625 16.37-13.571 27.138-13.571 3.401 0 6.762.503 9.986 1.495 2.603.801 5.426.13 7.39-1.75 10.994-10.519 25.416-16.312 40.607-16.312s29.613 5.793 40.607 16.312c1.964 1.879 4.791 2.55 7.39 1.75 3.225-.992 6.585-1.495 9.986-1.495 10.768 0 20.658 4.946 27.138 13.571 1.416 1.886 3.638 2.995 5.996 2.995h24.85c4.143 0 7.5-3.358 7.5-7.5 0-14.134 11.499-25.633 25.633-25.633 14.135 0 25.634 11.499 25.634 25.633s-11.499 25.633-25.634 25.633h-298.2c-14.134.001-25.633-11.498-25.633-25.633zm51.266 106.9v17.197c0 .362-.252.679-.601.753-16.154 3.441-29.303 16.601-32.719 32.747-.07.33-.385.57-.748.57h-17.198v-51.267zm33.134 0v150.667h-18.134v-17.197c0-7.397-5.246-13.884-12.476-15.424-10.289-2.191-18.994-10.902-21.17-21.184-1.529-7.221-8.015-12.462-15.422-12.462h-17.198v-18.133h17.199c7.407 0 13.893-5.241 15.423-12.463 2.175-10.28 10.88-18.991 21.169-21.182 7.229-1.54 12.476-8.026 12.476-15.424v-17.197h18.133zm33.133 0v18.133h-18.133v-18.133zm33.134 0v150.667h-18.134v-150.667zm33.132 0v18.133h-18.133v-18.133zm33.134 0v150.667h-18.134v-150.667zm33.133 0v18.133h-18.133v-18.133zm33.134 0v17.197c0 7.398 5.247 13.885 12.476 15.424 10.289 2.191 18.994 10.902 21.17 21.184 1.529 7.221 8.015 12.461 15.422 12.461h17.199v18.133h-17.199c-7.407 0-13.893 5.241-15.423 12.463-2.175 10.281-10.88 18.991-21.17 21.183-7.229 1.54-12.475 8.027-12.475 15.424v17.198h-18.134v-150.667zm66.266 0v51.267h-17.199c-.363 0-.678-.24-.747-.568-3.417-16.147-16.565-29.308-32.72-32.748-.349-.074-.601-.391-.601-.753v-17.197h51.267zm-51.266 150.667v-17.197c0-.362.253-.679.601-.753 16.154-3.441 29.303-16.601 32.719-32.747.07-.331.385-.57.748-.57h17.199v51.267zm-66.267 0v-18.133h18.133v18.133zm18.133-33.133h-18.133v-84.4h18.133zm-84.399 33.133v-18.133h18.133v18.133zm18.132-33.133h-18.133v-84.4h18.133zm-84.399 33.133v-18.133h18.133v18.133zm18.133-33.133h-18.133v-84.4h18.133zm-117.533-18.134h17.199c.363 0 .678.24.747.569 3.417 16.147 16.565 29.307 32.719 32.748.349.074.602.391.602.753v17.197h-51.267zm-66.267 116.75v-16.566c0-.432.352-.783.783-.783h17.35v18.133h-17.35c-.431 0-.783-.352-.783-.784zm58.676-17.349c-7.563 5.016-14.333 11.136-20.073 18.133h-5.47v-18.133zm-57.893 84.399c-.432 0-.783-.352-.783-.783v-16.567c0-.432.352-.783.783-.783h17.803c-.299 2.982-.453 6.007-.453 9.066 0 3.06.155 6.084.453 9.067zm107.684 66.267c-41.539 0-75.334-33.794-75.334-75.333s33.795-75.333 75.334-75.333 75.333 33.794 75.333 75.333-33.794 75.333-75.333 75.333zm69.862-132.533c-5.74-6.997-12.509-13.118-20.072-18.133h165.486c-7.564 5.016-14.333 11.136-20.073 18.133zm195.204 132.533c-41.539 0-75.333-33.794-75.333-75.333s33.794-75.333 75.333-75.333 75.334 33.794 75.334 75.333-33.795 75.333-75.334 75.333zm108.467-149.883v16.566c0 .432-.352.784-.783.784h-37.82c-5.74-6.997-12.509-13.118-20.073-18.133h49.61 8.283c.431 0 .783.351.783.783zm-16.566-15.783h-448.868v-18.134h448.867v18.134zm-8.284-33.134h-26.417v-150.667h26.417zm8.284-165.667h-448.868v-18.133h448.867v18.133z"/><path d="m108.971 33.133h-4.142c-4.143 0-7.5 3.358-7.5 7.5s3.357 7.5 7.5 7.5h4.142c4.143 0 7.5-3.358 7.5-7.5s-3.358-7.5-7.5-7.5z"/><path d="m414.671 40.633c0-4.142-3.357-7.5-7.5-7.5h-4.142c-4.143 0-7.5 3.358-7.5 7.5s3.357 7.5 7.5 7.5h4.142c4.143 0 7.5-3.358 7.5-7.5z"/><path d="m276.328 38.578c-6.154-3.561-13.184-5.444-20.328-5.444-7.143 0-14.171 1.882-20.325 5.442-3.585 2.074-4.811 6.662-2.736 10.248 2.075 3.585 6.662 4.81 10.248 2.736 3.874-2.241 8.305-3.426 12.814-3.426 4.51 0 8.94 1.185 12.815 3.427 1.183.685 2.475 1.01 3.75 1.01 2.589 0 5.107-1.343 6.498-3.745 2.074-3.585.849-8.174-2.736-10.248z"/></g></g></svg>