<svg id="Capa_1" enable-background="new 0 0 511.997 511.997" height="512" viewBox="0 0 511.997 511.997" width="512" xmlns="http://www.w3.org/2000/svg"><g><g><g><path d="m389.654 19.58-35.546 35.546 102.775 102.774 35.546-35.546c16.107-16.107 16.107-42.221 0-58.328l-44.446-44.446c-16.107-16.107-42.222-16.107-58.329 0z" fill="#e58e82"/></g><g><path d="m55.988 200.187h366.321v145.345h-366.321z" fill="#77d192" transform="matrix(.707 -.707 .707 .707 -122.896 249.023)"/></g><g><path d="m361.034 52.257h52.09v145.345h-52.09z" fill="#d3ced5" transform="matrix(.707 -.707 .707 .707 25.035 310.297)"/></g><g><path d="m318.492 69.879h52.09v25.016h-52.09z" fill="#c3bec6" transform="matrix(.707 -.707 .707 .707 42.656 267.755)"/></g><g><path d="m465.672 37.269-17.689-17.689c-16.107-16.107-42.222-16.107-58.328 0l-35.546 35.546 17.689 17.689 35.546-35.546c16.106-16.107 42.221-16.107 58.328 0z" fill="#e06c57"/></g><g><path d="m13.446 217.809h366.321v25.016h-366.321z" fill="#5bc175" transform="matrix(.707 -.707 .707 .707 -105.274 206.48)"/></g><g><path d="m161.022 453.761-23.433 23.433c-4.711 4.711-10.772 7.84-17.342 8.952l-108.118 18.297c-2.686.455-5.018-1.877-4.563-4.563l18.297-108.118c1.112-6.569 4.24-12.63 8.952-17.342l23.433-23.433z" fill="#e9a761"/></g><g><path d="m19.146 431.452-11.58 68.427c-.455 2.686 1.877 5.018 4.563 4.563l68.427-11.58z" fill="#365f7e"/></g><g><path d="m43.552 409.45c1.112-6.569 4.24-12.63 8.952-17.342l23.433-23.433-17.689-17.689-23.433 23.433c-4.711 4.711-7.84 10.772-8.952 17.342l-18.297 108.118c-.454 2.686 1.877 5.018 4.563 4.563l15.799-2.674z" fill="#e69642"/></g><g><path d="m36.835 449.141-17.689-17.689-11.58 68.427c-.455 2.686 1.877 5.018 4.563 4.563l15.799-2.674z" fill="#2c4d66"/></g></g><path d="m497.732 58.722-44.446-44.444c-9.207-9.208-21.447-14.278-34.467-14.278s-25.261 5.07-34.468 14.276l-354.84 354.84c-5.845 5.846-9.664 13.243-11.043 21.394l-18.297 108.118c-.618 3.652.577 7.396 3.196 10.016 2.164 2.163 5.095 3.354 8.107 3.354.634 0 1.271-.053 1.906-.16l108.118-18.297c8.15-1.378 15.548-5.196 21.394-11.042l222.407-222.407c2.929-2.93 2.929-7.678 0-10.607-2.929-2.928-7.678-2.928-10.606 0l-193.67 193.671-40.78-40.78 16.863-16.863c2.929-2.93 2.929-7.678 0-10.607-2.929-2.928-7.678-2.928-10.606 0l-16.864 16.864-40.781-40.781 248.421-248.421 40.781 40.78-202.002 201.999c-2.929 2.93-2.929 7.678 0 10.607 1.464 1.464 3.384 2.196 5.303 2.196s3.839-.732 5.303-2.196l202.002-202.001 40.781 40.781-31.53 31.529c-2.929 2.93-2.929 7.678 0 10.607 2.929 2.927 7.678 2.929 10.607 0l109.213-109.212c19.003-19.006 19.003-49.93-.002-68.936zm-473.616 388.308 40.863 40.863-49.186 8.324zm108.17 24.861c-3.632 3.632-8.227 6.004-13.29 6.86l-35.874 6.071-55.936-55.936 6.071-35.874c.857-5.063 3.229-9.659 6.86-13.29l18.129-18.13 46.081 46.081c.001.001.002.003.003.004s.002.002.004.003l46.08 46.08zm354.839-354.84-30.242 30.243-42.054-42.055c-2.929-2.928-7.677-2.928-10.606 0-2.929 2.93-2.929 7.678 0 10.607l42.053 42.054-26.226 26.226s-46.082-46.083-46.084-46.084-.004-.004-.006-.006l-46.077-46.077 26.226-26.227 23.245 23.245c2.929 2.928 7.677 2.928 10.607 0 2.929-2.93 2.929-7.678 0-10.607l-23.245-23.245 30.242-30.242c6.373-6.373 14.847-9.883 23.861-9.883 9.013 0 17.487 3.51 23.861 9.884l44.446 44.444c13.156 13.157 13.156 34.567-.001 47.723z"/></g></svg>