<svg id="Capa_1" enable-background="new 0 0 512 512" height="512" viewBox="0 0 512 512" width="512" xmlns="http://www.w3.org/2000/svg"><g><g><path d="m123.5 458.5 3 17-3 14-2 13h-96c-2.761 0-5-2.239-5-5v-37l13-2 40.649-2z" fill="#b9c3cd"/><path d="m36.5 489.5c-1.657 0-3-1.343-3-3v-28l-8.202-2-6.798 2v41c0 2.761 2.239 5 5 5h100l2-6.755-2-8.245z" fill="#a2abb8"/><path d="m493.5 458.5v31l-2 8c0 2.761-2.239 5-5 5h-96v-42l13-2 44.734-3z" fill="#b9c3cd"/><path d="m403.5 486.5v-28l-7.862-2-7.138 2-2 20.5 2 25.5h100c2.761 0 5-2.239 5-5v-10h-87c-1.657 0-3-1.343-3-3z" fill="#a2abb8"/><path d="m20.5 456.5v-301l13-2 45.564-4 44.436 4 3 147.032-3 142.968-2 13z" fill="#f9f8f9"/><path d="m33.5 440.5v-287l-7.564-2-7.436 2v305h105l2-7.33-2-7.67h-87c-1.657 0-3-1.343-3-3z" fill="#e8e8e8"/><path d="m390.5 456.5v-301l13-2 46.585-4 43.415 4v290l-2 13z" fill="#f9f8f9"/><path d="m403.5 440.5v-287h-15l-3 163.883 3 141.117h105v-15h-87c-1.657 0-3-1.343-3-3z" fill="#e8e8e8"/><path d="m89.5 217.5h-37c-1.657 0-3-1.343-3-3v-27c0-1.657 1.343-3 3-3l11-1h27c1.657 0 3 1.343 3 3v17l-1 11c0 1.657-1.343 3-3 3z" fill="#c8effe"/><path d="m65.5 203.5c-1.105 0-2-.895-2-2v-18h-12c-1.657 0-3 1.343-3 3v29c0 1.657 1.343 3 3 3h39c1.657 0 3-1.343 3-3v-12z" fill="#a9e5f7"/><path d="m89.5 282.5h-37c-1.657 0-3-1.343-3-3v-27c0-1.657 1.343-3 3-3l11-1h27c1.657 0 3 1.343 3 3v17l-1 11c0 1.657-1.343 3-3 3z" fill="#c8effe"/><path d="m65.5 268.5c-1.105 0-2-.895-2-2v-18h-12c-1.657 0-3 1.343-3 3v29c0 1.657 1.343 3 3 3h39c1.657 0 3-1.343 3-3v-12z" fill="#a9e5f7"/><path d="m89.5 347.5h-37c-1.657 0-3-1.343-3-3v-27c0-1.657 1.343-3 3-3l11-1h27c1.657 0 3 1.343 3 3v17l-1 11c0 1.657-1.343 3-3 3z" fill="#c8effe"/><path d="m65.5 333.5c-1.105 0-2-.895-2-2v-18h-12c-1.657 0-3 1.343-3 3v29c0 1.657 1.343 3 3 3h39c1.657 0 3-1.343 3-3v-12z" fill="#a9e5f7"/><path d="m89.5 412.5h-37c-1.657 0-3-1.343-3-3v-27c0-1.657 1.343-3 3-3l11-1h27c1.657 0 3 1.343 3 3v17l-1 11c0 1.657-1.343 3-3 3z" fill="#c8effe"/><path d="m65.5 398.5c-1.105 0-2-.895-2-2v-18h-12c-1.657 0-3 1.343-3 3v29c0 1.657 1.343 3 3 3h39c1.657 0 3-1.343 3-3v-12z" fill="#a9e5f7"/><path d="m459.5 217.5h-37c-1.657 0-3-1.343-3-3v-27c0-1.657 1.343-3 3-3l11-1h27c1.657 0 3 1.343 3 3v17l-1 11c0 1.657-1.343 3-3 3z" fill="#c8effe"/><path d="m435.5 203.5c-1.105 0-2-.895-2-2v-18h-12c-1.657 0-3 1.343-3 3v29c0 1.657 1.343 3 3 3h39c1.657 0 3-1.343 3-3v-12z" fill="#a9e5f7"/><path d="m459.5 282.5h-37c-1.657 0-3-1.343-3-3v-27c0-1.657 1.343-3 3-3l11-1h27c1.657 0 3 1.343 3 3v17l-1 11c0 1.657-1.343 3-3 3z" fill="#c8effe"/><path d="m435.5 268.5c-1.105 0-2-.895-2-2v-18h-12c-1.657 0-3 1.343-3 3v29c0 1.657 1.343 3 3 3h39c1.657 0 3-1.343 3-3v-12z" fill="#a9e5f7"/><path d="m459.5 347.5h-37c-1.657 0-3-1.343-3-3v-27c0-1.657 1.343-3 3-3l11-1h27c1.657 0 3 1.343 3 3v17l-1 11c0 1.657-1.343 3-3 3z" fill="#c8effe"/><path d="m435.5 333.5c-1.105 0-2-.895-2-2v-18h-12c-1.657 0-3 1.343-3 3v29c0 1.657 1.343 3 3 3h39c1.657 0 3-1.343 3-3v-12z" fill="#a9e5f7"/><path d="m459.5 412.5h-37c-1.657 0-3-1.343-3-3v-27c0-1.657 1.343-3 3-3l11-1h27c1.657 0 3 1.343 3 3v17l-1 11c0 1.657-1.343 3-3 3z" fill="#c8effe"/><path d="m435.5 398.5c-1.105 0-2-.895-2-2v-18h-12c-1.657 0-3 1.343-3 3v29c0 1.657 1.343 3 3 3h39c1.657 0 3-1.343 3-3v-12z" fill="#a9e5f7"/><path d="m497.5 151.5h-107v-26l13-2h96c2.761 0 5 2.239 5 5v10l-2 8c0 2.761-2.239 5-5 5z" fill="#b9c3cd"/><path d="m403.5 135.5v-12h-15l-3 15 3 15h111c2.761 0 5-2.239 5-5v-10h-98c-1.657 0-3-1.343-3-3z" fill="#a2abb8"/><path d="m122.5 152.5h-109c-2.761 0-5-2.239-5-5v-18c0-2.761 2.239-5 5-5l9-1h101l2 7.5-2 7.5z" fill="#b9c3cd"/><path d="m25.5 138.5c-1.657 0-3-1.343-3-3v-12h-10c-2.761 0-5 2.239-5 5v20c0 2.761 2.239 5 5 5h111l2-7.67-2-7.33z" fill="#a2abb8"/><path d="m386.5 502.5h-261v-463l13-2 115.069-3 134.931 3v452z" fill="#f9f8f9"/><path d="m276.5 442.5h-41v-59c0-1.657 1.343-3 3-3l10-2h27c1.657 0 3 1.343 3 3v48z" fill="#b9c3cd"/><path d="m348.5 151.5h-185c-2.761 0-5-2.239-5-5v-72c0-2.761 2.239-5 5-5l8-2h179c2.761 0 5 2.239 5 5v66l-2 8c0 2.761-2.239 5-5 5z" fill="#c8effe"/><path d="m138.5 486.5v-449h-15v467h56.5l76-2 76 2h56.5v-15h-56.5l-76 2-76-2h-38.5c-1.657 0-3-1.343-3-3z" fill="#e8e8e8"/><path d="m248.5 426.5v-48h-12c-1.657 0-3 1.343-3 3v63l22.5 2 22.5-2v-15h-27c-1.657 0-3-1.343-3-3z" fill="#a2abb8"/><path d="m174.5 138.5c-1.657 0-3-1.343-3-3v-68h-10c-2.761 0-5 2.239-5 5v76c0 2.761 2.239 5 5 5h189c2.761 0 5-2.239 5-5v-10z" fill="#a9e5f7"/><path d="m302 444.5h-80l-10 2c-1.657 0-3 1.343-3 3v23h94l2-13v-12c0-1.657-1.343-3-3-3z" fill="#e8e8e8"/><path d="m222 456.5v-12h-12c-1.657 0-3 1.343-3 3v27l49 3 49-3v-15h-80c-1.657 0-3-1.343-3-3z" fill="#dcdbdd"/><path d="m329 474.5h-134l-10 2c-1.657 0-3 1.343-3 3v23h148l2-13v-12c0-1.657-1.343-3-3-3z" fill="#e8e8e8"/><path d="m195 486.5v-12h-12c-1.657 0-3 1.343-3 3v27h152v-15h-134c-1.657 0-3-1.343-3-3z" fill="#dcdbdd"/><path d="m197.5 217.5h-37c-1.657 0-3-1.343-3-3v-27c0-1.657 1.343-3 3-3l11-1h27c1.657 0 3 1.343 3 3v17l-1 11c0 1.657-1.343 3-3 3z" fill="#c8effe"/><path d="m173.5 203.5c-1.105 0-2-.895-2-2v-18h-12c-1.657 0-3 1.343-3 3v29c0 1.657 1.343 3 3 3h39c1.657 0 3-1.343 3-3v-12z" fill="#a9e5f7"/><path d="m197.5 282.5h-37c-1.657 0-3-1.343-3-3v-27c0-1.657 1.343-3 3-3l11-1h27c1.657 0 3 1.343 3 3v17l-1 11c0 1.657-1.343 3-3 3z" fill="#c8effe"/><path d="m173.5 268.5c-1.105 0-2-.895-2-2v-18h-12c-1.657 0-3 1.343-3 3v29c0 1.657 1.343 3 3 3h39c1.657 0 3-1.343 3-3v-12z" fill="#a9e5f7"/><path d="m197.5 347.5h-37c-1.657 0-3-1.343-3-3v-27c0-1.657 1.343-3 3-3l11-1h27c1.657 0 3 1.343 3 3v17l-1 11c0 1.657-1.343 3-3 3z" fill="#c8effe"/><path d="m173.5 333.5c-1.105 0-2-.895-2-2v-18h-12c-1.657 0-3 1.343-3 3v29c0 1.657 1.343 3 3 3h39c1.657 0 3-1.343 3-3v-12z" fill="#a9e5f7"/><path d="m197.5 412.5h-37c-1.657 0-3-1.343-3-3v-27c0-1.657 1.343-3 3-3l11-1h27c1.657 0 3 1.343 3 3v17l-1 11c0 1.657-1.343 3-3 3z" fill="#c8effe"/><path d="m173.5 398.5c-1.105 0-2-.895-2-2v-18h-12c-1.657 0-3 1.343-3 3v29c0 1.657 1.343 3 3 3h39c1.657 0 3-1.343 3-3v-12z" fill="#a9e5f7"/><path d="m274 217.5h-37c-1.657 0-3-1.343-3-3v-27c0-1.657 1.343-3 3-3l11-1h27c1.657 0 3 1.343 3 3v17l-1 11c0 1.657-1.343 3-3 3z" fill="#c8effe"/><path d="m250.5 203.5c-1.105 0-2-.895-2-2v-18h-12c-1.657 0-3 1.343-3 3v29c0 1.657 1.343 3 3 3h39c1.657 0 3-1.343 3-3v-12z" fill="#a9e5f7"/><path d="m274 282.5h-37c-1.657 0-3-1.343-3-3v-27c0-1.657 1.343-3 3-3l11-1h27c1.657 0 3 1.343 3 3v17l-1 11c0 1.657-1.343 3-3 3z" fill="#c8effe"/><path d="m250.5 268.5c-1.105 0-2-.895-2-2v-18h-12c-1.657 0-3 1.343-3 3v29c0 1.657 1.343 3 3 3h39c1.657 0 3-1.343 3-3v-12z" fill="#a9e5f7"/><path d="m274 347.5h-37c-1.657 0-3-1.343-3-3v-27c0-1.657 1.343-3 3-3l11-1h27c1.657 0 3 1.343 3 3v17l-1 11c0 1.657-1.343 3-3 3z" fill="#c8effe"/><path d="m250.5 333.5c-1.105 0-2-.895-2-2v-18h-12c-1.657 0-3 1.343-3 3v29c0 1.657 1.343 3 3 3h39c1.657 0 3-1.343 3-3v-12z" fill="#a9e5f7"/><path d="m351.5 217.5h-37c-1.657 0-3-1.343-3-3v-27c0-1.657 1.343-3 3-3l11-1h27c1.657 0 3 1.343 3 3v17l-1 11c0 1.657-1.343 3-3 3z" fill="#c8effe"/><path d="m327.5 203.5c-1.105 0-2-.895-2-2v-18h-12c-1.657 0-3 1.343-3 3v29c0 1.657 1.343 3 3 3h39c1.657 0 3-1.343 3-3v-12z" fill="#a9e5f7"/><path d="m351.5 282.5h-37c-1.657 0-3-1.343-3-3v-27c0-1.657 1.343-3 3-3l11-1h27c1.657 0 3 1.343 3 3v17l-1 11c0 1.657-1.343 3-3 3z" fill="#c8effe"/><path d="m327.5 268.5c-1.105 0-2-.895-2-2v-18h-12c-1.657 0-3 1.343-3 3v29c0 1.657 1.343 3 3 3h39c1.657 0 3-1.343 3-3v-12z" fill="#a9e5f7"/><path d="m351.5 347.5h-37c-1.657 0-3-1.343-3-3v-27c0-1.657 1.343-3 3-3l11-1h27c1.657 0 3 1.343 3 3v17l-1 11c0 1.657-1.343 3-3 3z" fill="#c8effe"/><path d="m327.5 333.5c-1.105 0-2-.895-2-2v-18h-12c-1.657 0-3 1.343-3 3v29c0 1.657 1.343 3 3 3h39c1.657 0 3-1.343 3-3v-12z" fill="#a9e5f7"/><path d="m351.5 412.5h-37c-1.657 0-3-1.343-3-3v-27c0-1.657 1.343-3 3-3l11-1h27c1.657 0 3 1.343 3 3v17l-1 11c0 1.657-1.343 3-3 3z" fill="#c8effe"/><path d="m327.5 398.5c-1.105 0-2-.895-2-2v-18h-12c-1.657 0-3 1.343-3 3v29c0 1.657 1.343 3 3 3h39c1.657 0 3-1.343 3-3v-12z" fill="#a9e5f7"/><path d="m394.5 36.5h-277c-2.761 0-5-2.239-5-5v-18c0-2.761 2.239-5 5-5l9-1h269c2.761 0 5 2.239 5 5v10l-1 9c0 2.761-2.239 5-5 5z" fill="#b9c3cd"/><path d="m129.5 22.5c-1.657 0-3-1.343-3-3v-12h-10c-2.761 0-5 2.239-5 5v20c0 2.761 2.239 5 5 5h279c2.761 0 5-2.239 5-5v-10z" fill="#a2abb8"/></g><g><path d="m90.5 241h-39c-5.79 0-10.5 4.71-10.5 10.5v29c0 5.79 4.71 10.5 10.5 10.5h39c5.79 0 10.5-4.71 10.5-10.5v-29c0-5.79-4.71-10.5-10.5-10.5zm-4.5 35h-30v-20h30z"/><path d="m421.5 291h39c5.79 0 10.5-4.71 10.5-10.5v-29c0-5.79-4.71-10.5-10.5-10.5h-39c-5.79 0-10.5 4.71-10.5 10.5v29c0 5.79 4.71 10.5 10.5 10.5zm4.5-35h30v20h-30z"/><path d="m90.5 176h-39c-5.79 0-10.5 4.71-10.5 10.5v29c0 5.79 4.71 10.5 10.5 10.5h39c5.79 0 10.5-4.71 10.5-10.5v-29c0-5.79-4.71-10.5-10.5-10.5zm-4.5 35h-30v-20h30z"/><path d="m421.5 226h39c5.79 0 10.5-4.71 10.5-10.5v-29c0-5.79-4.71-10.5-10.5-10.5h-39c-5.79 0-10.5 4.71-10.5 10.5v29c0 5.79 4.71 10.5 10.5 10.5zm4.5-35h30v20h-30z"/><path d="m352.5 176h-39c-5.79 0-10.5 4.71-10.5 10.5v29c0 5.79 4.71 10.5 10.5 10.5h39c5.79 0 10.5-4.71 10.5-10.5v-29c0-5.79-4.71-10.5-10.5-10.5zm-4.5 35h-30v-20h30z"/><path d="m352.5 241h-39c-5.79 0-10.5 4.71-10.5 10.5v29c0 5.79 4.71 10.5 10.5 10.5h39c5.79 0 10.5-4.71 10.5-10.5v-29c0-5.79-4.71-10.5-10.5-10.5zm-4.5 35h-30v-20h30z"/><path d="m352.5 306h-39c-5.79 0-10.5 4.71-10.5 10.5v29c0 5.79 4.71 10.5 10.5 10.5h39c5.79 0 10.5-4.71 10.5-10.5v-29c0-5.79-4.71-10.5-10.5-10.5zm-4.5 35h-30v-20h30z"/><path d="m352.5 371h-39c-5.79 0-10.5 4.71-10.5 10.5v29c0 5.79 4.71 10.5 10.5 10.5h39c5.79 0 10.5-4.71 10.5-10.5v-29c0-5.79-4.71-10.5-10.5-10.5zm-4.5 35h-30v-20h30z"/><path d="m275.5 176h-39c-5.79 0-10.5 4.71-10.5 10.5v29c0 5.79 4.71 10.5 10.5 10.5h39c5.79 0 10.5-4.71 10.5-10.5v-29c0-5.79-4.71-10.5-10.5-10.5zm-4.5 35h-30v-20h30z"/><path d="m275.5 241h-39c-5.79 0-10.5 4.71-10.5 10.5v29c0 5.79 4.71 10.5 10.5 10.5h39c5.79 0 10.5-4.71 10.5-10.5v-29c0-5.79-4.71-10.5-10.5-10.5zm-4.5 35h-30v-20h30z"/><path d="m275.5 306h-39c-5.79 0-10.5 4.71-10.5 10.5v29c0 5.79 4.71 10.5 10.5 10.5h39c5.79 0 10.5-4.71 10.5-10.5v-29c0-5.79-4.71-10.5-10.5-10.5zm-4.5 35h-30v-20h30z"/><path d="m198.5 176h-39c-5.79 0-10.5 4.71-10.5 10.5v29c0 5.79 4.71 10.5 10.5 10.5h39c5.79 0 10.5-4.71 10.5-10.5v-29c0-5.79-4.71-10.5-10.5-10.5zm-4.5 35h-30v-20h30z"/><path d="m198.5 241h-39c-5.79 0-10.5 4.71-10.5 10.5v29c0 5.79 4.71 10.5 10.5 10.5h39c5.79 0 10.5-4.71 10.5-10.5v-29c0-5.79-4.71-10.5-10.5-10.5zm-4.5 35h-30v-20h30z"/><path d="m198.5 306h-39c-5.79 0-10.5 4.71-10.5 10.5v29c0 5.79 4.71 10.5 10.5 10.5h39c5.79 0 10.5-4.71 10.5-10.5v-29c0-5.79-4.71-10.5-10.5-10.5zm-4.5 35h-30v-20h30z"/><path d="m198.5 371h-39c-5.79 0-10.5 4.71-10.5 10.5v29c0 5.79 4.71 10.5 10.5 10.5h39c5.79 0 10.5-4.71 10.5-10.5v-29c0-5.79-4.71-10.5-10.5-10.5zm-4.5 35h-30v-20h30z"/><path d="m90.5 306h-39c-5.79 0-10.5 4.71-10.5 10.5v29c0 5.79 4.71 10.5 10.5 10.5h39c5.79 0 10.5-4.71 10.5-10.5v-29c0-5.79-4.71-10.5-10.5-10.5zm-4.5 35h-30v-20h30z"/><path d="m421.5 356h39c5.79 0 10.5-4.71 10.5-10.5v-29c0-5.79-4.71-10.5-10.5-10.5h-39c-5.79 0-10.5 4.71-10.5 10.5v29c0 5.79 4.71 10.5 10.5 10.5zm4.5-35h30v20h-30z"/><path d="m90.5 371h-39c-5.79 0-10.5 4.71-10.5 10.5v29c0 5.79 4.71 10.5 10.5 10.5h39c5.79 0 10.5-4.71 10.5-10.5v-29c0-5.79-4.71-10.5-10.5-10.5zm-4.5 35h-30v-20h30z"/><path d="m421.5 421h39c5.79 0 10.5-4.71 10.5-10.5v-29c0-5.79-4.71-10.5-10.5-10.5h-39c-5.79 0-10.5 4.71-10.5 10.5v29c0 5.79 4.71 10.5 10.5 10.5zm4.5-35h30v20h-30z"/><path d="m350.5 60h-189c-6.893 0-12.5 5.607-12.5 12.5v76c0 6.893 5.607 12.5 12.5 12.5h24c4.143 0 7.5-3.358 7.5-7.5s-3.357-7.5-7.5-7.5h-21.5v-71h184v71h-127.5c-4.143 0-7.5 3.358-7.5 7.5s3.357 7.5 7.5 7.5h130c6.893 0 12.5-5.607 12.5-12.5v-76c0-6.893-5.607-12.5-12.5-12.5z"/><path d="m499.5 116h-103.5v-71.025c6.66-.265 12-5.751 12-12.475v-20c0-6.893-5.607-12.5-12.5-12.5h-279c-6.893 0-12.5 5.607-12.5 12.5v20c0 6.724 5.34 12.209 12 12.475v71.025h-103.5c-6.893 0-12.5 5.607-12.5 12.5v20c0 6.384 4.813 11.657 11 12.401v338.599c0 6.893 5.607 12.5 12.5 12.5h465c6.893 0 12.5-5.607 12.5-12.5v-338.599c6.187-.745 11-6.017 11-12.401v-20c0-6.893-5.607-12.5-12.5-12.5zm-2.5 15v15h-101v-15zm-482 0h101v15h-101zm11 335h90v31h-90zm245-29h-30v-51h30zm26.5 15v15h-83v-15zm27 30v15h-137v-15zm56.5 15h-41.5v-19.5c0-5.79-4.71-10.5-10.5-10.5h-16.5v-19.5c0-5.79-4.71-10.5-10.5-10.5h-16v-55.5c0-5.79-4.71-10.5-10.5-10.5h-39c-5.79 0-10.5 4.71-10.5 10.5v55.5h-16c-5.79 0-10.5 4.71-10.5 10.5v19.5h-16.5c-5.79 0-10.5 4.71-10.5 10.5v19.5h-41.5v-100.75c0-4.142-3.357-7.5-7.5-7.5s-7.5 3.358-7.5 7.5v54.75h-90v-290h90v200.25c0 4.142 3.357 7.5 7.5 7.5s7.5-3.358 7.5-7.5v-316.25h152.404c4.143 0 7.5-3.358 7.5-7.5s-3.357-7.5-7.5-7.5h-164.404v-15h274v15h-74.596c-4.143 0-7.5 3.358-7.5 7.5s3.357 7.5 7.5 7.5h62.596v182c0 4.142 3.357 7.5 7.5 7.5s7.5-3.358 7.5-7.5v-66h90v290h-90v-189c0-4.142-3.357-7.5-7.5-7.5s-7.5 3.358-7.5 7.5zm15 0v-31h90v31z"/><path d="m221 110.5c0-4.142-3.357-7.5-7.5-7.5h-6.5v-6.5c0-4.142-3.357-7.5-7.5-7.5s-7.5 3.358-7.5 7.5v6.5h-6.5c-4.143 0-7.5 3.358-7.5 7.5s3.357 7.5 7.5 7.5h6.5v6.5c0 4.142 3.357 7.5 7.5 7.5s7.5-3.358 7.5-7.5v-6.5h6.5c4.143 0 7.5-3.358 7.5-7.5z"/><path d="m325.5 104c4.143 0 7.5-3.358 7.5-7.5s-3.357-7.5-7.5-7.5h-27.861c-4.143 0-7.5 3.358-7.5 7.5s3.357 7.5 7.5 7.5z"/><path d="m239.5 104h28.139c4.143 0 7.5-3.358 7.5-7.5s-3.357-7.5-7.5-7.5h-28.139c-4.143 0-7.5 3.358-7.5 7.5s3.357 7.5 7.5 7.5z"/><path d="m239.5 132h86c4.143 0 7.5-3.358 7.5-7.5s-3.357-7.5-7.5-7.5h-86c-4.143 0-7.5 3.358-7.5 7.5s3.357 7.5 7.5 7.5z"/></g></g></svg>