<svg id="Capa_1" enable-background="new 0 0 511.997 511.997" height="512" viewBox="0 0 511.997 511.997" width="512" xmlns="http://www.w3.org/2000/svg"><g><g><path d="m421.664 405.096c0-36.596-29.667-66.263-66.263-66.263h-8.286l-91.117 16.178-91.117-16.178h-8.286c-36.596 0-66.263 29.667-66.263 66.263l-.001 82.833c0 9.15 7.417 16.567 16.567 16.567h74.55l74.55-15.005 74.55 15.005h74.55c9.15 0 16.567-7.417 16.567-16.567z" fill="#413e82"/><path d="m421.664 405.096c0-36.596-29.667-66.263-66.263-66.263h-8.286l-4.462.792c31.727 4.928 56.011 32.362 56.011 65.471l.001 82.833c0 9.15-7.417 16.567-16.567 16.567h23c9.15 0 16.567-7.417 16.567-16.567z" fill="#2f2c59"/><path d="m353.534 427.918-20.764-4.153c-3.712-.742-4.565-5.665-1.319-7.613l26.782-16.069c3.214-1.929 4.733-5.775 3.703-9.379l-14.821-51.871h-182.233l-14.821 51.871c-1.03 3.604.489 7.45 3.703 9.379l26.782 16.069c3.246 1.948 2.394 6.87-1.319 7.613l-20.764 4.153c-5.203 1.041-8.1 6.637-5.945 11.487l28.93 65.093h34.245l40.305-15.005 40.305 15.005h34.245l28.93-65.093c2.156-4.85-.741-10.447-5.944-11.487z" fill="#dff8fa"/><path d="m353.534 427.918-20.764-4.153c-3.712-.742-4.565-5.665-1.319-7.613l26.782-16.069c3.214-1.929 4.733-5.775 3.703-9.379l-14.821-51.871h-23l14.821 51.871c1.03 3.604-.489 7.45-3.703 9.379l-26.782 16.069c-3.246 1.948-2.394 6.87 1.319 7.613l20.764 4.153c5.203 1.041 8.1 6.637 5.945 11.487l-28.93 65.093h23l28.93-65.093c2.155-4.85-.742-10.447-5.945-11.487z" fill="#c3f2f7"/><path d="m162.326 90.991 93.673 28.443 93.673-28.443 4.475-58.81c.708-8.588-5.287-16.285-13.787-17.702-55.855-9.309-112.866-9.309-168.721 0-8.5 1.417-14.495 9.113-13.787 17.702z" fill="#413e82"/><path d="m331.146 32.181-5.019 65.959 23.544-7.149 4.475-58.81c.708-8.588-5.287-16.285-13.787-17.702-31.722-5.287-63.816-7.563-95.861-6.844 24.378.547 48.727 2.822 72.861 6.844 8.5 1.417 14.495 9.114 13.787 17.702z" fill="#2f2c59"/><path d="m305.697 416.378-9.393 88.119h-80.611l-9.394-88.119v-27.848h99.398z" fill="#f3ffff"/><path d="m156.598 156.595c-9.149 0-16.567 7.417-16.567 16.567v33.134c0 9.149 7.417 16.567 16.567 16.567h16.567 165.667 16.567c9.15 0 16.567-7.417 16.567-16.567v-33.134c0-9.15-7.417-16.567-16.567-16.567z" fill="#eaaa85"/><g><path d="m206.299 278.522v100.499h99.4v-100.487z" fill="#f2d2a1"/><path d="m282.7 278.534h22.999v100.486h-22.999z" fill="#eaaa85"/></g><path d="m338.833 156.595v-14.113l-165.666.001.001 80.383c0 45.747 37.085 82.832 82.832 82.832 9.397 0 18.418-1.587 26.837-4.47l22.848-12.084c20.126-15.111 33.148-39.173 33.148-66.278l-11.26-36.779z" fill="#f2d2a1"/><path d="m315.833 142.482v80.383c0 41.842-31.031 76.419-71.332 82.02 3.761.523 7.596.813 11.5.813 45.747 0 82.832-37.085 82.832-82.832v-80.383z" fill="#eaaa85"/><g><g><g><path d="m313.982 376.859v-18.413l8.283-19.615-16.568-16.567-41.415 43.636h-16.567l-41.416-43.636-16.567 16.567 8.283 19.615v18.413z" fill="#f3ffff"/></g><g><path d="m294.491 334.072 20.941 20.94 6.833-16.181-16.568-16.567z" fill="#dff9f9"/></g></g></g><ellipse cx="255.998" cy="454.797" fill="#f6df59" rx="16.567" ry="16.567" transform="matrix(.396 -.918 .918 .396 -262.992 509.792)"/><g><path d="m270.343 371.964 41.121-13.12c5.344-1.705 10.801 2.282 10.801 7.891v43.591c0 5.609-5.458 9.596-10.801 7.891l-41.121-13.12h-28.69l-41.121 13.12c-5.344 1.705-10.801-2.282-10.801-7.891v-43.591c0-5.609 5.458-9.596 10.801-7.891l41.121 13.12z" fill="#de5e4c"/><path d="m272.565 396.814c0-1.433 0-15.134 0-16.567 0-9.15-7.417-16.567-16.567-16.567s-16.567 7.417-16.567 16.567v16.567c0 9.149 7.417 16.567 16.567 16.567s16.567-7.418 16.567-16.567z" fill="#dc3d36"/><path d="m255.998 363.68c-4.471 0-8.52 1.779-11.5 4.658 3.119 3.013 5.067 7.23 5.067 11.909v16.567c0 4.679-1.947 8.897-5.067 11.909 2.98 2.878 7.029 4.657 11.5 4.657 9.15 0 16.567-7.417 16.567-16.567 0-1.433 0-15.134 0-16.567 0-9.148-7.417-16.566-16.567-16.566z" fill="#b13d49"/></g><path d="m255.998 438.23c-4.471 0-8.52 1.779-11.5 4.657 3.119 3.013 5.067 7.23 5.067 11.909s-1.948 8.897-5.067 11.909c2.98 2.878 7.029 4.657 11.5 4.657 9.15 0 16.567-7.417 16.567-16.567 0-9.147-7.417-16.565-16.567-16.565z" fill="#edbf50"/><path d="m347.115 124.58 2.556-33.59c-25.681 4.894-58.673 7.623-93.673 7.623s-67.992-2.729-93.673-7.623l2.556 33.59 91.117 29.15z" fill="#dc3d36"/><path d="m326.398 94.583-2.464 33.44-79.435 22.027 11.5 3.679 91.117-29.15 2.556-33.59c-7.215 1.377-15.024 2.574-23.274 3.594z" fill="#b13d49"/><g><g><path d="m255.998 164.878c-46.639 0-90.506-4.701-120.354-12.898-8.823-2.423-14.011-11.539-11.588-20.363 2.423-8.822 11.538-14.01 20.363-11.588 27.11 7.445 67.779 11.715 111.579 11.715s84.469-4.27 111.579-11.715c8.825-2.426 17.939 2.765 20.363 11.588 2.423 8.823-2.765 17.94-11.588 20.363-29.847 8.198-73.715 12.898-120.354 12.898z" fill="#413e82"/></g></g><g><g><path d="m387.94 131.618c-2.423-8.823-11.538-14.013-20.363-11.588-4.954 1.36-10.365 2.614-16.16 3.755 6.283.944 11.732 5.47 13.523 11.991 2.423 8.823-2.765 17.94-11.588 20.363-3.866 1.062-7.971 2.063-12.282 3.005 13.112-1.942 25.025-4.346 35.282-7.163 8.823-2.423 14.011-11.54 11.588-20.363z" fill="#2f2c59"/></g></g></g><g><path d="m222.867 205.512c4.143 0 7.5-3.358 7.5-7.5v-8.284c0-4.142-3.357-7.5-7.5-7.5s-7.5 3.358-7.5 7.5v8.284c0 4.142 3.357 7.5 7.5 7.5z"/><path d="m289.133 205.512c4.142 0 7.5-3.358 7.5-7.5v-8.284c0-4.142-3.358-7.5-7.5-7.5-4.143 0-7.5 3.358-7.5 7.5v8.284c0 4.142 3.358 7.5 7.5 7.5z"/><path d="m256 246.931c8.551 0 16.533-4.607 20.832-12.023 2.077-3.584.855-8.173-2.728-10.25-3.584-2.077-8.173-.856-10.25 2.728-1.624 2.803-4.634 4.545-7.854 4.545s-6.229-1.742-7.854-4.545c-2.078-3.583-6.667-4.804-10.25-2.728-3.584 2.077-4.806 6.666-2.729 10.25 4.3 7.416 12.283 12.023 20.833 12.023z"/><path d="m429.164 405.096c0-40.673-33.09-73.763-73.764-73.763l-30.026.001-12.174-12.175v-26.432c18.399-15.091 30.749-37.293 32.819-62.365h9.38c13.271 0 24.066-10.796 24.066-24.067v-33.134c0-4.87-1.461-9.401-3.957-13.193.956-.249 1.9-.501 2.829-.756 6.199-1.702 11.365-5.716 14.545-11.304 3.18-5.587 3.993-12.079 2.29-18.277-1.702-6.2-5.717-11.365-11.303-14.545-5.587-3.181-12.08-3.994-18.278-2.29-3.222.885-6.647 1.723-10.249 2.514l6.278-82.515c1.021-12.378-7.777-23.674-20.028-25.716-39.849-6.642-80.494-8.625-120.8-5.893-4.133.28-7.256 3.857-6.976 7.99.278 4.133 3.879 7.247 7.989 6.976 39.147-2.652 78.62-.727 117.32 5.723 4.615.769 7.93 5.024 7.541 9.735l-4.034 53.024c-24.478 4.186-54.955 6.478-86.634 6.478-31.68 0-62.157-2.292-86.635-6.478l-4.038-53.071c-.385-4.663 2.93-8.918 7.546-9.688 6.445-1.075 13.009-2.038 19.508-2.862 4.109-.521 7.019-4.275 6.497-8.384-.521-4.109-4.269-7.018-8.384-6.497-6.692.849-13.451 1.84-20.087 2.947-12.252 2.042-21.05 13.337-20.033 25.668l6.282 82.562c-3.602-.791-7.027-1.63-10.249-2.515-12.799-3.512-26.067 4.039-29.58 16.833-1.703 6.199-.89 12.69 2.29 18.278 3.18 5.587 8.346 9.602 14.544 11.304.929.255 1.873.507 2.828.756-2.496 3.792-3.955 8.324-3.955 13.193v33.134c0 13.27 10.796 24.067 24.066 24.067h9.384c2.07 25.072 14.42 47.272 32.817 62.364v26.431l-12.177 12.177-30.026-.001c-40.674 0-73.764 33.09-73.764 73.763l-.001 82.833c0 13.271 10.796 24.067 24.066 24.067h16.201c4.143 0 7.5-3.358 7.5-7.5s-3.357-7.5-7.5-7.5h-16.201c-4.999 0-9.066-4.067-9.066-9.067l.001-82.833c0-31.842 25.462-57.831 57.093-58.72l-12.076 42.267c-1.96 6.854.941 14.204 7.056 17.872l19.332 11.6-12.245 2.449c-4.725.945-8.707 3.942-10.922 8.222-2.216 4.28-2.364 9.261-.406 13.665l24.243 54.546h-16.809c-4.143 0-7.5 3.358-7.5 7.5s3.357 7.5 7.5 7.5h252c13.271 0 24.066-10.796 24.066-24.067zm-74.439-12.33c.097.34-.047.704-.351.886l-24.609 14.766v-41.683c0-4.789-2.222-9.328-5.945-12.308l3.418-8.093h14.221zm-50.079 104.231 7.569-71.001c.582.065 1.166.109 1.749.109 3.037 0 6.044-.883 8.627-2.564 1.335 3.864 4.589 6.755 8.708 7.578l20.764 4.153c.092.018.369.074.542.408.174.335.059.594.021.679l-26.951 60.638zm-82.21 0-8.031-75.333 24.58-7.843c4.358 4.359 10.376 7.06 17.013 7.06s12.654-2.7 17.012-7.06l24.581 7.843-8.03 75.333zm-25.204-130.262c0-.098 0-.397.321-.632.319-.235.605-.145.699-.114l33.928 10.826c-.161 1.122-.249 2.267-.249 3.433v.783h-9.066c-4.143 0-7.5 3.358-7.5 7.5s3.357 7.5 7.5 7.5h9.066v.784c0 1.166.088 2.311.249 3.433l-33.929 10.825c-.094.03-.378.121-.699-.114s-.321-.534-.321-.632v-43.592zm116.511-.747c.095-.029.38-.119.7.114.321.235.321.534.321.632v43.591c0 .098 0 .397-.321.632-.322.234-.607.143-.7.114l-33.928-10.825c.161-1.122.249-2.267.249-3.433v-.784h9.066c4.143 0 7.5-3.358 7.5-7.5s-3.357-7.5-7.5-7.5h-9.066v-.783c0-1.166-.088-2.311-.249-3.433zm-48.678 14.259v16.567c0 4.999-4.067 9.066-9.066 9.066s-9.066-4.067-9.066-9.066v-16.567c0-5 4.067-9.067 9.066-9.067 4.998 0 9.066 4.068 9.066 9.067zm43.548-28.366-29.67 9.467 26.895-28.337 7.554 7.554zm55.852-178.72v33.134c0 4.999-4.067 9.067-9.066 9.067h-9.066l.001-49.444c3.477-.551 6.868-1.134 10.16-1.75 4.483.543 7.971 4.365 7.971 8.993zm-193.93-73.128c24.634 3.936 54.538 6.081 85.463 6.081s60.829-2.145 85.463-6.081l-1.383 18.174c-23.862 3.894-53.145 6.038-84.08 6.038s-60.218-2.144-84.08-6.038zm-38.383 40.457c-1.198-2.105-1.504-4.55-.862-6.886 1.104-4.02 4.765-6.666 8.746-6.666.792 0 1.598.105 2.398.325 27.729 7.615 69.122 11.983 113.565 11.983s85.837-4.368 113.567-11.983c2.335-.642 4.778-.336 6.884.862 2.104 1.198 3.616 3.144 4.258 5.481.642 2.335.336 4.78-.862 6.885-1.197 2.105-3.144 3.617-5.479 4.258-29.225 8.027-72.368 12.631-118.367 12.631s-89.143-4.604-118.368-12.631c-2.337-.642-4.283-2.155-5.48-4.259zm15.38 65.805v-33.134c0-4.628 3.488-8.451 7.971-8.994 3.294.616 6.686 1.199 10.165 1.751l.001 49.443h-9.07c-5 .001-9.067-4.066-9.067-9.066zm33.136 16.57-.001-54.839c22.891 2.828 48.683 4.353 75.331 4.353 26.65 0 52.443-1.525 75.335-4.353l-.001 54.817c0 .007-.001.013-.001.019 0 .005.001.009.001.014-.006 41.534-33.797 75.322-75.332 75.322-41.538-.001-75.332-33.795-75.332-75.333zm75.332 90.332c15.234 0 29.596-3.796 42.199-10.484v16.556l-35.846 37.768c-2.026-.555-4.155-.858-6.355-.858s-4.329.302-6.355.858l-35.844-37.766v-16.559c12.604 6.689 26.966 10.485 42.201 10.485zm-49.841 19.813 26.896 28.337-29.67-9.467-4.779-11.317zm-48.537 60.642c-.304-.182-.447-.546-.351-.887l13.266-46.431h14.221l3.418 8.093c-3.723 2.98-5.945 7.518-5.945 12.308v41.683zm1.749 42.706c-.038-.085-.153-.344.021-.679.173-.334.45-.39.542-.408l20.764-4.153c4.119-.824 7.374-3.714 8.708-7.578 2.583 1.681 5.589 2.564 8.627 2.564.583 0 1.167-.044 1.749-.109l7.569 71.001h-21.028zm245.728 60.639h-63.01l24.243-54.546c1.958-4.404 1.81-9.385-.406-13.665-2.215-4.28-6.196-7.277-10.922-8.222l-12.245-2.449 19.332-11.6c6.114-3.668 9.016-11.017 7.057-17.871l-12.077-42.268c31.631.89 57.093 26.879 57.093 58.72l.001 82.833c0 5-4.067 9.068-9.066 9.068z"/><path d="m255.998 430.731c-13.271 0-24.066 10.796-24.066 24.066s10.796 24.067 24.066 24.067 24.066-10.796 24.066-24.067-10.795-24.066-24.066-24.066zm0 33.133c-4.999 0-9.066-4.067-9.066-9.067 0-4.999 4.067-9.066 9.066-9.066s9.066 4.067 9.066 9.066c.001 4.999-4.067 9.067-9.066 9.067z"/></g></g></svg>