<svg id="Capa_1" enable-background="new 0 0 512.002 512.002" height="512" viewBox="0 0 512.002 512.002" width="512" xmlns="http://www.w3.org/2000/svg"><g><g><g><path d="m239.234 204.579h32.16v115.963h-32.16z" fill="#d3ced5"/></g><g><path d="m392.412 496.661-104.373-151.187-23.001 7.707h-18.087l-23.001-7.707-104.374 151.187c-2.29 3.317.084 7.841 4.115 7.841h22.921c1.627 0 3.152-.791 4.088-2.121l88.534-125.736v122.857c0 2.761 2.239 5 5 5h22.16c2.761 0 5-2.239 5-5v-124.789l89.894 127.667c.937 1.33 2.462 2.121 4.088 2.121h22.921c4.031.001 6.405-4.523 4.115-7.84z" fill="#d3ced5"/></g><g><circle cx="255.994" cy="329.602" fill="#365f7e" r="37.971"/></g><g><path d="m234.943 329.602c0-18.061 12.615-33.167 29.511-37.013-2.722-.62-5.551-.958-8.46-.958-20.971 0-37.971 17-37.971 37.971s17 37.971 37.971 37.971c2.909 0 5.738-.338 8.46-.958-16.896-3.847-29.511-18.952-29.511-37.013z" fill="#2c4d66"/></g><g><path d="m32.545 153.266-14.751 3.863c-2.671.7-4.27 3.432-3.57 6.104l23.308 88.999c.7 2.671 3.432 4.27 6.104 3.57l14.751-3.863c4.323-1.132 7.846-4.26 9.482-8.419l8.492-21.593-13.437-51.31-17.986-14.659c-3.466-2.825-8.07-3.825-12.393-2.692z" fill="#365f7e"/></g><g><path d="m52.855 248.218-23.308-88.999c-.681-2.599.823-5.24 3.363-6.027-.121.028-.244.041-.365.073l-14.751 3.863c-2.671.7-4.27 3.432-3.57 6.104l23.308 88.999c.7 2.671 3.432 4.27 6.104 3.57l14.751-3.863c.121-.032.234-.081.354-.116-2.601.56-5.206-1.005-5.886-3.604z" fill="#2c4d66"/></g><g><path d="m68.068 157.528h96.49v53.04h-96.49z" fill="#faab18" transform="matrix(.967 -.253 .253 .967 -42.833 35.472)"/></g><g><path d="m189.702 234.377 228.165-59.754-34.09-130.17-228.165 59.754c-5.343 1.399-8.539 6.865-7.14 12.207l29.023 110.823c1.399 5.342 6.865 8.539 12.207 7.14z" fill="#fdcd08"/></g><g><path d="m360.924 47.395h40.56v134.56h-40.56z" fill="#365f7e" transform="matrix(.967 -.253 .253 .967 -16.616 100.318)"/></g><g><path d="m459.11 193.634-29.099 7.621c-2.671.7-5.404-.899-6.104-3.57l-46.169-176.295c-.7-2.671.899-5.404 3.57-6.104l29.099-7.621c2.671-.7 5.404.899 6.104 3.57l46.17 176.295c.698 2.672-.9 5.405-3.571 6.104z" fill="#faab18"/></g><g><path d="m424.82 42.966c31.159-8.16 63.032 10.484 71.193 41.642 8.16 31.158-10.484 63.032-41.642 71.192z" fill="#b3dafe"/></g><g><path d="m443.269 41.18c-6.051-.381-12.263.166-18.449 1.786l29.55 112.835c6.186-1.62 11.869-4.188 16.957-7.486z" fill="#8ac9fe"/></g><g><path d="m311.507 202.477c-6.181-24.909-28.72-43.43-55.513-43.43-31.54 0-57.2 25.66-57.2 57.2 0 3.056.253 6.052.721 8.978-.712-.979-1.264-2.098-1.589-3.34l-29.023-110.823c-1.399-5.343 1.798-10.808 7.14-12.207l-20.431 5.351c-5.343 1.399-8.539 6.865-7.14 12.207l29.023 110.823c1.399 5.343 6.865 8.539 12.207 7.14z" fill="#faab18"/></g><g><circle cx="255.994" cy="216.248" fill="#b3dafe" r="32.2"/></g><g><path d="m240.714 216.248c0-14.855 10.062-27.353 23.74-31.069-2.697-.733-5.531-1.131-8.46-1.131-17.784 0-32.2 14.416-32.2 32.2s14.416 32.2 32.2 32.2c2.929 0 5.763-.398 8.46-1.131-13.678-3.717-23.74-16.215-23.74-31.069z" fill="#8ac9fe"/></g></g><g><path d="m271.394 410.382c-4.142 0-7.5 3.357-7.5 7.5v79.12h-17.16v-79.6c0-4.143-3.358-7.5-7.5-7.5s-7.5 3.357-7.5 7.5v82.1c0 6.893 5.607 12.5 12.5 12.5h22.16c6.893 0 12.5-5.607 12.5-12.5v-81.62c0-4.143-3.358-7.5-7.5-7.5z"/><path d="m298.074 346.809c2.18-5.312 3.391-11.12 3.391-17.208 0-16.726-9.084-31.361-22.571-39.259v-41.695c10.154-7.198 16.8-19.033 16.8-32.399 0-21.891-17.809-39.7-39.7-39.7s-39.7 17.81-39.7 39.7c0 12.76 6.057 24.125 15.44 31.392v43.532c-12.733 8.067-21.211 22.273-21.211 38.43 0 6.088 1.211 11.896 3.391 17.208l-100.51 145.59c-2.648 3.837-2.947 8.783-.781 12.911 2.166 4.127 6.407 6.69 11.068 6.69h22.921c4.062 0 7.882-1.982 10.22-5.303l92.985-132.057c2.021.276 4.081.431 6.177.431s4.156-.155 6.177-.431l92.985 132.057c2.338 3.32 6.159 5.303 10.221 5.303h22.921c4.661 0 8.902-2.563 11.068-6.69 2.166-4.128 1.867-9.074-.781-12.911zm-42.08-155.261c13.62 0 24.7 11.08 24.7 24.7s-11.08 24.7-24.7 24.7-24.7-11.08-24.7-24.7 11.081-24.7 24.7-24.7zm-9.26 63.298c2.973.713 6.071 1.102 9.26 1.102 2.704 0 5.346-.274 7.9-.792v29.676c-2.568-.452-5.205-.701-7.9-.701-3.172 0-6.269.329-9.26.95zm9.26 44.285c16.802 0 30.471 13.669 30.471 30.471s-13.669 30.472-30.471 30.472-30.471-13.67-30.471-30.472 13.669-30.471 30.471-30.471zm-110.679 197.871h-16.861l94.229-136.492c3.487 3.756 7.599 6.92 12.169 9.331zm221.358 0-89.537-127.161c4.571-2.411 8.682-5.575 12.169-9.331l94.229 136.492z"/><path d="m503.268 82.708c-2.987-11.403-8.97-21.795-17.304-30.052-2.942-2.914-7.691-2.894-10.606.05-2.915 2.942-2.893 7.691.049 10.606 6.427 6.367 11.044 14.389 13.35 23.196 3.439 13.131 1.559 26.816-5.295 38.533-5.574 9.53-13.896 16.831-23.875 21.075l-25.471-97.26c6.424-.7 12.938-.174 19.168 1.575 3.986 1.12 8.128-1.204 9.248-5.193 1.12-3.987-1.205-8.128-5.193-9.248-8.796-2.47-18.021-3.055-27.053-1.758l-6.52-24.897c-1.746-6.666-8.593-10.676-15.259-8.925l-29.098 7.62c-3.23.846-5.938 2.898-7.624 5.781-1.686 2.882-2.148 6.247-1.303 9.479l4.14 15.807-220.91 57.854c-9.335 2.444-14.94 12.028-12.495 21.362l5.893 22.502-82.402 21.58-15.033-12.253c-5.301-4.32-12.415-5.866-19.029-4.134 0 0 0 .001-.001.001l-14.753 3.863c-6.667 1.748-10.67 8.593-8.924 15.259l23.308 88.999c1.469 5.609 6.548 9.334 12.095 9.334 1.045 0 2.107-.132 3.164-.409l14.752-3.863c6.615-1.733 12.058-6.567 14.56-12.93l7.098-18.048 82.401-21.58 5.893 22.501c1.184 4.521 4.059 8.312 8.093 10.672 2.717 1.589 5.74 2.402 8.806 2.402 1.488 0 2.986-.191 4.463-.579l8.296-2.173c4.007-1.049 6.405-5.148 5.355-9.155-1.05-4.008-5.15-6.407-9.156-5.354l-8.296 2.173c-.871.226-1.562-.065-1.895-.261s-.928-.653-1.156-1.525l-29.023-110.822c-.349-1.333.452-2.702 1.785-3.052l181.673-47.578 30.29 115.66-54.871 14.37c-4.007 1.049-6.405 5.148-5.355 9.155s5.148 6.405 9.156 5.354l94.108-24.646 4.14 15.808c.846 3.229 2.899 5.937 5.781 7.622 1.94 1.136 4.1 1.716 6.289 1.716 1.063 0 2.133-.137 3.188-.414l29.099-7.62h.002c6.667-1.747 10.67-8.593 8.924-15.259l-6.524-24.911c13.841-5.34 25.397-15.11 32.998-28.105 8.877-15.174 11.313-32.898 6.859-49.905zm-442.38 158.066c-.757 1.923-2.403 3.385-4.402 3.909l-12.333 3.229-22.041-84.162 12.332-3.229c2-.525 4.151-.056 5.754 1.249l16.089 13.113 12.198 46.574zm20.828-28.004-9.637-36.799 78.831-20.646 9.637 36.799zm302.27-37.027-30.29-115.659 24.726-6.475 30.29 115.659zm46.543 17.623-44.903-171.457 24.262-6.354 44.903 171.458z"/></g></g></svg>