<svg id="Capa_1" enable-background="new 0 0 512 512" height="512" viewBox="0 0 512 512" width="512" xmlns="http://www.w3.org/2000/svg"><g><g><g><path d="m254.837 187.985h38.866v66.581c0 2.769 2.245 5.014 5.014 5.014h64.095c33.228 0 60.165 26.937 60.165 60.165v79.871c0 5.538-4.489 10.027-10.027 10.027h-48.633v84.829c0 5.538-4.489 10.027-10.027 10.027h-99.452v-316.514z" fill="#e58e82"/></g><g><path d="m254.837 187.985h14.76v139.735h-14.76z" fill="#e06c57"/></g><g><path d="m254.837 187.985h-36.54v66.581c0 2.769-2.245 5.014-5.014 5.014h-64.095c-33.228 0-60.165 26.937-60.165 60.165v79.871c0 5.538 4.489 10.027 10.027 10.027h48.633v84.829c0 5.538 4.489 10.027 10.027 10.027h97.126v-316.514z" fill="#ffcdbe"/></g><g><path d="m328.807 504.5h-145.614v-167.936c0-20.703 16.783-37.486 37.486-37.486h70.643c20.703 0 37.486 16.783 37.486 37.486v167.936z" fill="#365f7e"/></g><g><path d="m236.878 299.078h-16.2c-20.703 0-37.486 16.783-37.486 37.486v167.936h16.2v-167.936c.001-20.703 16.783-37.486 37.486-37.486z" fill="#2c4d66"/></g><g><g><path d="m293.712 403.714v-45.27c0-13.404-10.866-24.271-24.271-24.271h-26.882c-13.404 0-24.271 10.866-24.271 24.271v45.27z" fill="#e06c57"/></g><g><path d="m231.284 390.287v-31.843c0-13.404 10.866-24.271 24.271-24.271h-12.996c-13.404 0-24.271 10.866-24.271 24.271v45.27h75.423v-13.427z" fill="#dd554e"/></g></g><g><path d="m242.563 254.567v-66.581h-24.266v66.581c0 2.769-2.245 5.014-5.014 5.014h24.266c2.769-.001 5.014-2.245 5.014-5.014z" fill="#ebae9d"/></g><g><path d="m113.289 399.616v-79.871c0-33.228 26.937-60.165 60.165-60.165h-24.266c-33.228 0-60.165 26.937-60.165 60.165v79.871c0 5.538 4.489 10.027 10.027 10.027h24.266c-5.537.001-10.027-4.489-10.027-10.027z" fill="#ebae9d"/></g><g><path d="m254.837 7.5h-11.941c-39.459 0-71.447 31.988-71.447 71.447v28.596h-13.948c-10.938 0-19.805 8.867-19.805 19.805v5.676c0 10.938 8.867 19.805 19.805 19.805h10.93c2.37 0 4.399 1.664 4.897 3.982 8.08 37.599 41.495 65.789 81.509 65.789z" fill="#ffcdbe"/></g><g><path d="m266.778 7.5h-11.941v215.074h36.908c12.224 0 22.133-9.909 22.133-22.133v-9.741c0-4.205 1.434-8.284 4.065-11.564l14.762-18.404c3.573-4.454 5.519-9.992 5.519-15.702v-66.083c.001-39.459-31.987-71.447-71.446-71.447z" fill="#f6f1f1"/></g><g><path d="m266.778 7.5h-11.941v215.074h14.76v-215.003c-.937-.036-1.874-.071-2.819-.071z" fill="#e2dfe2"/></g><g><path d="m253.715 219.558c-29.663-8.217-52.682-32.401-59.206-62.733-.5-2.322-2.525-3.996-4.9-3.996h-10.93c-10.938 0-19.805-8.867-19.805-19.804v-5.676c0-10.938 8.867-19.805 19.804-19.805h13.948v-39.94c0-33.195 26.91-60.104 60.104-60.104h-9.835c-39.459 0-71.447 31.988-71.447 71.447v28.596h-13.948c-10.938 0-19.804 8.867-19.804 19.805v5.676c0 10.938 8.867 19.804 19.805 19.804h10.93c2.37 0 4.399 1.665 4.897 3.982 8.004 37.246 40.874 65.241 80.387 65.764z" fill="#ebae9d"/></g><g><path d="m218.288 504.5v-21.826c0-6 4.864-10.864 10.864-10.864h53.695c6 0 10.864 4.864 10.864 10.864v21.826z" fill="#e9a761"/></g><g><path d="m241.032 471.811h-11.88c-6 0-10.864 4.864-10.864 10.864v21.825h11.88v-21.825c0-6 4.864-10.864 10.864-10.864z" fill="#e69642"/></g><g><g><path d="m218.288 403.714v26.177c0 8.896 7.212 16.108 16.108 16.108h8.541c2.368 0 4.708-.522 6.851-1.53l36.083-16.957c4.785-2.249 7.84-7.06 7.84-12.347v-11.452h-75.423z" fill="#e58e82"/></g><g><path d="m230.743 429.892v-26.177h-12.454v26.177c0 8.896 7.212 16.108 16.108 16.108h8.541c.658 0 1.312-.05 1.962-.13-7.975-.964-14.157-7.744-14.157-15.978z" fill="#e27b67"/></g></g><g><circle cx="296.07" cy="120.56" fill="#d3ced5" r="17.809"/></g></g><g><path d="m362.812 252.08h-61.609v-3.18c0-4.142-3.358-7.5-7.5-7.5s-7.5 3.358-7.5 7.5v5.666c0 6.9 5.614 12.514 12.514 12.514h47.623v25.223c0 6.751 3.35 13.022 8.961 16.776l7.103 4.752c1.281.857 2.73 1.268 4.164 1.268 2.419 0 4.794-1.169 6.24-3.331 2.303-3.443 1.379-8.101-2.063-10.404l-7.103-4.752c-1.441-.964-2.301-2.575-2.301-4.309v-25.223h1.472c29.039 0 52.665 23.625 52.665 52.665v32.395h-19.278c-4.142 0-7.5 3.358-7.5 7.5s3.358 7.5 7.5 7.5h19.277v32.476c0 1.394-1.134 2.527-2.527 2.527h-12.01v-9.983c0-4.142-3.358-7.5-7.5-7.5s-7.5 3.358-7.5 7.5v9.983h-14.124v-50.872c0-4.142-3.358-7.5-7.5-7.5s-7.5 3.358-7.5 7.5v58.372 84.829c0 1.394-1.134 2.527-2.527 2.527h-17.982v-160.332c0-24.862-20.227-45.088-45.089-45.088h-28.882v-61.504h29.408c16.34 0 29.633-13.293 29.633-29.633v-9.742c0-2.489.858-4.929 2.415-6.871l14.762-18.404c4.623-5.763 7.169-13.006 7.169-20.395v-66.083c0-10.473-2.02-20.649-6.004-30.247-1.588-3.825-5.977-5.64-9.802-4.051-3.826 1.588-5.64 5.977-4.052 9.802 3.223 7.765 4.858 16.007 4.858 24.496v66.083c0 3.988-1.374 7.898-3.87 11.009l-14.762 18.404c-3.685 4.594-5.714 10.367-5.714 16.256v9.741c0 8.069-6.564 14.633-14.633 14.633h-29.408v-26.178h17.798c4.142 0 7.5-3.358 7.5-7.5s-3.358-7.5-7.5-7.5h-17.798v-106.575c0-4.142-3.358-7.5-7.5-7.5s-7.5 3.358-7.5 7.5v106.576h-15.471c-4.142 0-7.5 3.358-7.5 7.5s3.358 7.5 7.5 7.5h15.471v25.813c-32.338-3.251-59.752-27.252-66.676-59.474-1.233-5.74-6.377-9.906-12.23-9.906h-10.93c-6.785 0-12.305-5.52-12.305-12.305v-5.676c0-6.785 5.52-12.305 12.304-12.305h13.948c4.142 0 7.5-3.358 7.5-7.5v-28.596c0-35.261 28.687-63.947 63.947-63.947h4.441v21.12c0 4.142 3.358 7.5 7.5 7.5s7.5-3.358 7.5-7.5v-21.12h4.441c15.412 0 30.298 5.559 41.917 15.653 3.127 2.717 7.863 2.384 10.581-.743 2.717-3.127 2.384-7.864-.743-10.581-14.346-12.464-32.726-19.329-51.753-19.329h-11.941-11.941c-43.531 0-78.947 35.416-78.947 78.947v21.096h-6.448c-15.056 0-27.304 12.249-27.304 27.305v5.676c0 15.056 12.249 27.305 27.305 27.305h8.935c4.588 19.242 15.515 36.682 30.924 49.282 4.211 3.443 8.716 6.473 13.438 9.086v33.383h-61.609c-37.31 0-67.665 30.354-67.665 67.665v12.055c0 4.142 3.358 7.5 7.5 7.5s7.5-3.358 7.5-7.5v-12.055c0-29.04 23.625-52.665 52.665-52.665h64.095c6.9 0 12.514-5.614 12.514-12.514v-29.264c6.951 2.345 14.183 3.866 21.54 4.479v61.797h-26.556c-24.862 0-45.089 20.227-45.089 45.088v160.334h-17.982c-1.394 0-2.527-1.134-2.527-2.527v-84.829-58.372c0-4.142-3.358-7.5-7.5-7.5s-7.5 3.358-7.5 7.5v50.872h-41.134c-1.394 0-2.527-1.134-2.527-2.527v-34.217c0-4.142-3.358-7.5-7.5-7.5s-7.5 3.358-7.5 7.5v34.216c0 9.665 7.863 17.527 17.527 17.527h41.133v77.329c0 9.665 7.863 17.527 17.527 17.527h196.578c9.665 0 17.527-7.863 17.527-17.527v-77.329h41.133c9.665 0 17.527-7.863 17.527-17.527v-79.871c.001-37.31-30.353-67.665-67.664-67.665zm-172.119 84.587c0-16.591 13.498-30.088 30.089-30.088h26.556v20.096h-4.778c-17.519 0-31.771 14.252-31.771 31.771v45.27 26.177c0 13.018 10.591 23.608 23.608 23.608h8.541c3.448 0 6.92-.775 10.041-2.242l36.083-16.957c7.381-3.468 12.15-10.979 12.15-19.135v-11.452-45.27c0-17.518-14.252-31.771-31.771-31.771h-7.104v-20.096h28.882c16.591 0 30.089 13.498 30.089 30.088v160.334h-20.096v-14.326c0-10.126-8.238-18.364-18.364-18.364h-53.695c-10.126 0-18.364 8.238-18.364 18.364v14.326h-20.096zm35.095 74.547h60.423v3.952c0 2.37-1.385 4.552-3.53 5.559l-36.083 16.957c-1.138.535-2.404.817-3.661.817h-8.541c-4.747 0-8.608-3.862-8.608-8.608zm60.424-15h-23.875v-54.541h7.104c9.247 0 16.771 7.523 16.771 16.771zm-38.875 0h-21.549v-37.77c0-9.248 7.523-16.771 16.771-16.771h4.778zm-21.549 100.786v-14.326c0-1.855 1.509-3.364 3.364-3.364h19.348v17.69zm37.712 0v-17.689h19.348c1.855 0 3.364 1.509 3.364 3.364v14.325z"/><path d="m219.013 113.06c-4.142 0-7.5 3.358-7.5 7.5s3.358 7.5 7.5 7.5h3.876c4.142 0 7.5-3.358 7.5-7.5s-3.358-7.5-7.5-7.5z"/><path d="m296.07 95.251c-13.955 0-25.309 11.354-25.309 25.309s11.353 25.309 25.309 25.309 25.309-11.354 25.309-25.309c-.001-13.956-11.354-25.309-25.309-25.309zm0 35.618c-5.684 0-10.309-4.625-10.309-10.309 0-5.685 4.625-10.309 10.309-10.309s10.309 4.625 10.309 10.309c-.001 5.684-4.625 10.309-10.309 10.309z"/><path d="m330.607 291.3c4.142 0 7.5-3.358 7.5-7.5s-3.358-7.5-7.5-7.5h-3.6c-4.142 0-7.5 3.358-7.5 7.5s3.358 7.5 7.5 7.5z"/><path d="m397.22 329.88v-7.68c0-4.142-3.358-7.5-7.5-7.5s-7.5 3.358-7.5 7.5v7.68c0 4.142 3.358 7.5 7.5 7.5s7.5-3.358 7.5-7.5z"/></g></g></svg>