<svg id="Capa_1" enable-background="new 0 0 511.988 511.988" height="512" viewBox="0 0 511.988 511.988" width="512" xmlns="http://www.w3.org/2000/svg"><g><g><g><path d="m411.893 203.409-26.78 26.78 26.02 26.02c2.505 2.505 2.505 6.567 0 9.072l-102.366 102.365c-2.505 2.505-2.505 6.567 0 9.072l17.708 17.708c2.505 2.505 6.567 2.505 9.072 0l111.002-111.002c12.525-12.525 12.525-32.833 0-45.359z" fill="#d3ced5"/></g><g><path d="m385.282 214.432h37.872v16.165h-37.872z" fill="#c3bec6" transform="matrix(.707 -.707 .707 .707 -38.949 350.998)"/></g><g><path d="m411.132 256.209c2.505 2.505 2.505 6.566 0 9.072l-102.365 102.365c-2.505 2.505-2.505 6.567 0 9.072l11.43 11.431c-2.505-2.505-2.505-6.567 0-9.072l102.366-102.365c2.505-2.505 2.505-6.567 0-9.072z" fill="#c3bec6"/></g><g><path d="m498.59 44.334-30.936-30.936c-7.81-7.81-20.474-7.81-28.284 0l-43.627 43.627 59.22 59.22 43.627-43.627c7.811-7.81 7.811-20.474 0-28.284z" fill="#b3dafe"/></g><g><path d="m40.924 434.66-32.632 60.342c-3.033 5.608 3.086 11.727 8.694 8.694l60.341-32.631z" fill="#b5adb7"/></g><g><path d="m99.565 309.109-24.958 24.958c-7.197 7.197-12.968 15.692-17.006 25.035l-26.108 60.4c-1.044 2.414-.508 5.221 1.352 7.081l52.56 52.559c1.86 1.86 4.667 2.396 7.081 1.352l60.4-26.108c9.343-4.039 17.838-9.809 25.035-17.006l24.958-24.958z" fill="#d3ced5"/></g><g><path d="m103.583 172.7h325.303v146.108h-325.303z" fill="#365f7e" transform="matrix(.707 -.707 .707 .707 -95.796 260.236)"/></g><g><path d="m432.903 182.399 35.035-35.035c5.01-5.01 5.01-13.133 0-18.144l-85.17-85.17c-5.01-5.01-13.133-5.01-18.144 0l-35.035 35.035z" fill="#fdcd08"/></g><g><path d="m467.654 13.398c-7.811-7.81-20.474-7.81-28.284 0l-43.627 43.627 15.458 15.458 39.625-39.625c10.02-10.021 26.267-10.021 36.287 0z" fill="#8ac9fe"/></g><g><path d="m46.952 434.96 26.108-60.4c4.039-9.343 9.809-17.838 17.006-25.035l24.958-24.958-15.458-15.458-24.958 24.958c-7.198 7.198-12.968 15.692-17.006 25.035l-26.108 60.4c-1.044 2.414-.508 5.221 1.352 7.081l15.458 15.458c-1.86-1.86-2.396-4.667-1.352-7.081z" fill="#c3bec6"/></g><g><path d="m345.047 94.543-15.458-15.458-230.024 230.024 15.459 15.458z" fill="#2c4d66"/></g><g><path d="m364.624 44.05-35.035 35.035 15.458 15.458 35.035-35.035c5.01-5.01 13.134-5.01 18.144 0l-15.458-15.458c-5.01-5.011-13.133-5.011-18.144 0z" fill="#faab18"/></g></g><path d="m503.961 39.098-31.071-31.071c-5.177-5.176-12.059-8.027-19.378-8.027-7.32 0-14.202 2.851-19.378 8.026l-38.391 38.391-7.671-7.671c-3.841-3.84-8.945-5.954-14.376-5.954s-10.535 2.114-14.375 5.954l-111.927 111.927c-2.929 2.93-2.929 7.678 0 10.607 2.93 2.928 7.678 2.928 10.607 0l71.588-71.588 92.706 92.706-219.415 219.418-92.708-92.708 124.662-124.66c2.929-2.93 2.929-7.678 0-10.607-2.93-2.928-7.678-2.928-10.607 0l-154.923 154.922c-7.9 7.901-14.154 17.107-18.588 27.363l-26.107 60.399c-2.278 5.271-1.127 11.302 2.934 15.36l4.125 4.125-29.973 55.424c-2.95 5.458-1.985 12.071 2.401 16.458 2.692 2.692 6.224 4.096 9.812 4.096 2.258 0 4.538-.556 6.646-1.695l55.423-29.972 4.124 4.124c2.676 2.678 6.207 4.09 9.813 4.09 1.865 0 3.751-.378 5.548-1.154l60.399-26.107c10.256-4.434 19.462-10.688 27.362-18.588l201.889-201.888 19.949 19.948-101.598 101.596c-5.424 5.425-5.425 14.252 0 19.68l17.708 17.708c2.629 2.628 6.123 4.075 9.839 4.075 3.717 0 7.211-1.447 9.84-4.075l37.435-37.435c2.929-2.93 2.929-7.678 0-10.607-2.93-2.928-7.678-2.928-10.607 0l-36.666 36.667-16.174-16.173 101.599-101.598c5.424-5.425 5.425-14.252 0-19.68l-20.717-20.716 16.174-16.173 29.352 29.352c9.581 9.582 9.581 25.172 0 34.753l-50.806 50.806c-2.929 2.93-2.929 7.678 0 10.607 2.93 2.928 7.678 2.928 10.607 0l50.806-50.806c15.429-15.43 15.429-40.536 0-55.967l-29.353-29.351 50.741-50.741c3.841-3.84 5.955-8.944 5.955-14.375s-2.114-10.535-5.954-14.376l-66.892-66.892 38.392-38.392c2.343-2.343 5.457-3.633 8.771-3.633 3.312 0 6.428 1.29 8.771 3.634l31.071 31.071c2.344 2.343 3.634 5.458 3.634 8.771s-1.29 6.428-3.634 8.771l-21.993 21.993c-2.929 2.929-2.929 7.678.001 10.606 1.464 1.464 3.384 2.196 5.303 2.196s3.839-.732 5.304-2.197l21.991-21.992c5.177-5.176 8.027-12.058 8.027-19.378 0-7.319-2.851-14.2-8.027-19.377zm-487.34 456.268 26.114-48.288 22.174 22.173zm155.997-63.29c-6.557 6.557-14.196 11.747-22.707 15.426l-59.723 25.815-51.518-51.517 25.815-59.723c3.679-8.511 8.869-16.15 15.426-22.708l19.653-19.654 92.708 92.708zm291.578-293.784c0 1.423-.554 2.761-1.562 3.768l-29.731 29.731-92.707-92.707 29.732-29.732c1.007-1.007 2.345-1.561 3.768-1.561 1.424 0 2.762.555 3.769 1.562l85.17 85.17c1.006 1.007 1.561 2.345 1.561 3.769z"/></g></svg>