<svg id="Capa_1" enable-background="new 0 0 512 512" height="512" viewBox="0 0 512 512" width="512" xmlns="http://www.w3.org/2000/svg"><g><g><g><path d="m413.241 87.94h-54.101v-70.44c0-5.523 4.477-10 10-10h34.101c5.523 0 10 4.477 10 10z" fill="#e1761c"/></g><g><path d="m390.56 7.5h-21.42c-5.523 0-10 4.477-10 10v70.44h21.42v-70.44c0-5.523 4.477-10 10-10z" fill="#d76718"/></g><g><path d="m152.86 87.94h-54.101v-70.44c0-5.523 4.477-10 10-10h34.101c5.523 0 10 4.477 10 10z" fill="#e1761c"/></g><g><path d="m413.241 328.3h30.719c11.046 0 20 8.954 20 20v96.8c0 11.046-8.954 20-20 20h-30.719z" fill="#e1761c"/></g><g><path d="m98.759 465.1h-30.719c-11.046 0-20-8.954-20-20v-96.8c0-11.046 8.954-20 20-20h30.719z" fill="#e1761c"/></g><g><path d="m393.241 504.5h-274.482c-11.046 0-20-8.954-20-20v-354.374h314.482v354.374c0 11.046-8.954 20-20 20z" fill="#e9a761"/></g><g><path d="m98.759 130.126v354.374c0 11.046 8.954 20 20 20h21.42c-11.046 0-20-8.954-20-20v-238.673c4.523.68 9.151 1.034 13.861 1.034h243.92c12.482 0 24.395-2.478 35.281-6.958v-109.777z" fill="#e69642"/></g><g><path d="m377.96 221.86h-243.92c-37.555 0-68-30.445-68-68v-45.92c0-11.046 8.954-20 20-20h339.92c11.046 0 20 8.954 20 20v45.92c0 37.555-30.445 68-68 68z" fill="#77d192"/></g><g><path d="m87.46 153.86v-45.92c0-11.046 8.954-20 20-20h-21.42c-11.046 0-20 8.954-20 20v45.92c0 37.555 30.445 68 68 68h21.42c-37.555 0-68-30.445-68-68z" fill="#5bc175"/></g><g><path d="m349.14 465.1h-186.28c-5.523 0-10-4.477-10-10v-116.8c0-5.523 4.477-10 10-10h186.28c5.523 0 10 4.477 10 10v116.8c0 5.523-4.477 10-10 10z" fill="#77d192"/></g><g><path d="m174.28 455.1v-116.8c0-5.523 4.477-10 10-10h-21.42c-5.523 0-10 4.477-10 10v116.8c0 5.523 4.477 10 10 10h21.42c-5.523 0-10-4.477-10-10z" fill="#5bc175"/></g><g><path d="m311.8 412.38v-21.191c0-1.748-.553-3.451-1.58-4.865l-13.06-17.984-13.06 17.984c-1.027 1.414-1.58 3.117-1.58 4.865v21.191c0 4.573 3.707 8.28 8.28 8.28h12.72c4.573 0 8.28-3.707 8.28-8.28z" fill="#fdcd08"/></g><g><path d="m183.18 245.86h-20.32c-5.523 0-10-4.477-10-10v-29.44c0-5.523 4.477-10 10-10h20.32c5.523 0 10 4.477 10 10v29.44c0 5.523-4.477 10-10 10z" fill="#fdcd08"/></g><g><path d="m349.14 245.86h-20.32c-5.523 0-10-4.477-10-10v-29.44c0-5.523 4.477-10 10-10h20.32c5.523 0 10 4.477 10 10v29.44c0 5.523-4.477 10-10 10z" fill="#fdcd08"/></g><path d="m165.94 235.86v-29.44c0-5.523 4.477-10 10-10h-13.08c-5.523 0-10 4.477-10 10v29.44c0 5.523 4.477 10 10 10h13.08c-5.523 0-10-4.477-10-10z" fill="#faab18"/><path d="m331.9 235.86v-29.44c0-5.523 4.477-10 10-10h-13.08c-5.523 0-10 4.477-10 10v29.44c0 5.523 4.477 10 10 10h13.08c-5.523 0-10-4.477-10-10z" fill="#faab18"/><g><path d="m197.565 48.58h32.035v39.36h-32.035z" fill="#e1761c"/></g><g><path d="m282.4 48.58h32.035v39.36h-32.035z" fill="#e1761c"/></g><g><path d="m197.565 37.5v11.08h116.87v-11.08c0-16.569-13.431-30-30-30h-56.87c-16.568 0-30 13.431-30 30z" fill="#e9a761"/></g><g><path d="m248.985 7.5h-21.42c-16.568 0-30 13.432-30 30v11.08h21.42v-11.08c0-16.568 13.432-30 30-30z" fill="#e69642"/></g><g><path d="m249.636 183.696-22.432-22.432c-3.515-3.515-3.515-9.213 0-12.728l22.432-22.432c3.515-3.515 9.213-3.515 12.728 0l22.432 22.432c3.515 3.515 3.515 9.213 0 12.728l-22.432 22.432c-3.515 3.515-9.213 3.515-12.728 0z" fill="#365f7e"/></g><path d="m242.324 161.264c-3.515-3.515-3.515-9.213 0-12.728l21.236-21.236-1.196-1.196c-3.515-3.515-9.213-3.515-12.728 0l-22.432 22.432c-3.515 3.515-3.515 9.213 0 12.728l22.432 22.432c3.515 3.515 9.213 3.515 12.728 0l1.196-1.196z" fill="#2c4d66"/><g><path d="m130.179 7.5h-21.42c-5.523 0-10 4.477-10 10v70.44h21.42v-70.44c0-5.523 4.477-10 10-10z" fill="#d76718"/></g></g><g><path d="m463.96 375.84c4.142 0 7.5-3.357 7.5-7.5v-20.04c0-15.163-12.336-27.5-27.5-27.5h-23.219v-104.777c19.746-13.632 32.719-36.406 32.719-62.163v-45.92c0-15.163-12.336-27.5-27.5-27.5h-59.32v-62.94c0-1.379 1.122-2.5 2.5-2.5h34.101c1.378 0 2.5 1.121 2.5 2.5v41.58c0 4.143 3.358 7.5 7.5 7.5s7.5-3.357 7.5-7.5v-41.58c0-9.649-7.851-17.5-17.5-17.5h-34.101c-9.649 0-17.5 7.851-17.5 17.5v62.94h-29.705v-42.94c0-20.678-16.822-37.5-37.5-37.5h-56.87c-20.678 0-37.5 16.822-37.5 37.5v42.94h-29.705v-62.94c0-9.649-7.851-17.5-17.5-17.5h-34.101c-9.649 0-17.5 7.851-17.5 17.5v42.12c0 4.143 3.358 7.5 7.5 7.5s7.5-3.357 7.5-7.5v-42.12c0-1.379 1.122-2.5 2.5-2.5h34.101c1.378 0 2.5 1.121 2.5 2.5v62.94h-46.601-12.719c-15.164 0-27.5 12.337-27.5 27.5v45.92c0 25.757 12.973 48.531 32.719 62.163v43.297c0 4.143 3.358 7.5 7.5 7.5s7.5-3.357 7.5-7.5v-35.279c8.605 3.419 17.972 5.319 27.781 5.319h11.32v6.5c0 9.649 7.851 17.5 17.5 17.5h20.32c9.649 0 17.5-7.851 17.5-17.5v-6.5h22.595c4.142 0 7.5-3.357 7.5-7.5s-3.358-7.5-7.5-7.5h-22.595v-7.94c0-9.649-7.851-17.5-17.5-17.5h-20.32c-9.649 0-17.5 7.851-17.5 17.5v7.94h-11.32c-33.36 0-60.5-27.141-60.5-60.5v-45.92c0-6.893 5.607-12.5 12.5-12.5h339.92c6.893 0 12.5 5.607 12.5 12.5v45.92c0 33.359-27.14 60.5-60.5 60.5h-11.32v-7.94c0-9.649-7.851-17.5-17.5-17.5h-20.32c-9.649 0-17.5 7.851-17.5 17.5v7.94h-50.4c-4.142 0-7.5 3.357-7.5 7.5s3.358 7.5 7.5 7.5h50.4v6.5c0 9.649 7.851 17.5 17.5 17.5h20.32c9.649 0 17.5-7.851 17.5-17.5v-6.5h11.32c9.808 0 19.176-1.9 27.781-5.319v260.459c0 6.893-5.607 12.5-12.5 12.5h-274.482c-6.893 0-12.5-5.607-12.5-12.5v-192.26c0-4.143-3.358-7.5-7.5-7.5s-7.5 3.357-7.5 7.5v28.56h-23.219c-15.164 0-27.5 12.337-27.5 27.5v96.8c0 15.163 12.336 27.5 27.5 27.5h23.219v11.9c0 15.163 12.336 27.5 27.5 27.5h274.481c15.164 0 27.5-12.337 27.5-27.5v-11.9h23.219c15.164 0 27.5-12.337 27.5-27.5v-43.62c0-4.143-3.358-7.5-7.5-7.5s-7.5 3.357-7.5 7.5v43.62c0 6.893-5.607 12.5-12.5 12.5h-23.219v-121.8h23.219c6.893 0 12.5 5.607 12.5 12.5v20.04c.001 4.142 3.359 7.5 7.501 7.5zm-303.6-169.42c0-1.379 1.122-2.5 2.5-2.5h20.32c1.378 0 2.5 1.121 2.5 2.5v29.44c0 1.379-1.122 2.5-2.5 2.5h-20.32c-1.378 0-2.5-1.121-2.5-2.5zm129.54-125.98v-24.36h17.035v24.36zm-15 0h-37.8v-24.36h37.8zm-69.835-42.94c0-12.406 10.093-22.5 22.5-22.5h56.87c12.407 0 22.5 10.094 22.5 22.5v3.58h-101.87zm0 18.58h17.035v24.36h-17.035zm146.575 179.78c0 1.379-1.122 2.5-2.5 2.5h-20.32c-1.378 0-2.5-1.121-2.5-2.5v-29.44c0-1.379 1.122-2.5 2.5-2.5h20.32c1.378 0 2.5 1.121 2.5 2.5zm-283.6 221.74c-6.893 0-12.5-5.607-12.5-12.5v-96.8c0-6.893 5.607-12.5 12.5-12.5h23.219v121.8z"/><path d="m349.14 472.6c9.649 0 17.5-7.851 17.5-17.5v-116.8c0-9.649-7.851-17.5-17.5-17.5h-186.28c-9.649 0-17.5 7.851-17.5 17.5v116.8c0 9.649 7.851 17.5 17.5 17.5zm-188.78-17.5v-116.8c0-1.379 1.122-2.5 2.5-2.5h186.28c1.378 0 2.5 1.121 2.5 2.5v116.8c0 1.379-1.122 2.5-2.5 2.5h-186.28c-1.379 0-2.5-1.121-2.5-2.5z"/><path d="m185.2 375.84h97.245l-4.412 6.076c-1.971 2.713-3.013 5.92-3.013 9.273v21.19c0 8.701 7.079 15.78 15.78 15.78h12.72c8.701 0 15.78-7.079 15.78-15.78v-21.19c0-3.354-1.042-6.561-3.012-9.272l-4.413-6.077h14.925c4.142 0 7.5-3.357 7.5-7.5s-3.358-7.5-7.5-7.5h-141.6c-4.142 0-7.5 3.357-7.5 7.5s3.358 7.5 7.5 7.5zm119.1 36.54c0 .431-.35.78-.78.78h-12.72c-.43 0-.78-.35-.78-.78v-21.19c0-.165.051-.323.149-.458l6.991-9.628 6.992 9.629c.097.134.148.292.148.457z"/><path d="m267.667 189 22.432-22.433c6.433-6.434 6.433-16.901 0-23.335l-22.432-22.432c-6.433-6.432-16.901-6.432-23.334 0l-22.432 22.433c-6.433 6.434-6.433 16.901 0 23.335l22.432 22.432c3.216 3.216 7.442 4.824 11.667 4.824s8.451-1.608 11.667-4.824zm-35.16-33.04c-.584-.584-.584-1.536 0-2.12l22.432-22.433c.584-.586 1.536-.586 2.121 0l22.432 22.433c.584.584.584 1.536 0 2.12l-22.432 22.433c-.585.586-1.536.586-2.121 0z"/></g></g></svg>