<svg id="Capa_1" enable-background="new 0 0 512.001 512.001" height="512" viewBox="0 0 512.001 512.001" width="512" xmlns="http://www.w3.org/2000/svg"><g><g><path d="m319.639 391.809 1.732-.438c-1.71 32.34-16.97 62.46-42.04 82.97l-17 13.89c-3.68 3.01-8.98 3.01-12.66 0l-17-13.89c-25.07-20.51-40.33-50.63-42.04-82.97l.923.183c5.57-1.75 9.717-6.125 10.447-11.915l6.128-52.885 96.782 1.187-1.527 13.443 3.969 6.667 3.698 30.46c.089.704.227 1.394.41 2.067 1.325 4.854 3.285 9.693 8.178 11.231z" fill="#f2d1a5"/><path d="m430.69 504.5h-345.13l-3.25-1c-6.21 0-10.92-5.6-9.85-11.72l7.64-29.37c3.81-21.86 19.47-39.82 40.65-46.62l69.86-22.365s2.644 8.225 3.667 13.277c5.105 25.229 17.506 46.55 38.393 63.638l17 13.89c3.68 3.01 8.98 3.01 12.66 0l17-13.89c21.802-17.836 34.528-39.979 39.032-66.702.675-4.006 2.785-8.052 3.008-12.268l.02-.48 72.86 22.9c21.18 6.8 36.84 24.76 40.65 46.62l5.64 32.37c1.07 6.12-3.639 11.72-9.85 11.72z" fill="#f9f8f9"/><path d="m192.55 407.05-69.91 21.97c-15.57 5-26.98 18.08-29.78 34.14l-7.3 41.34h-4.25c-6.21 0-10.92-5.6-9.85-11.72l5.64-32.37c3.81-21.86 19.47-39.82 40.65-46.62l72.86-22.9 3.284 5.025z" fill="#e8e8e8"/><path d="m388.268 190.882c11.026 0 19.965 8.915 19.965 19.912 0 26.943-21.9 48.785-48.914 48.785h-206.637c-27.014 0-48.914-21.842-48.914-48.785 0-10.997 8.939-19.912 19.965-19.912l146.119-12.53z" fill="#f2bb88"/><path d="m311.264 379.768-.503 10.841c-1.65 27.75-16.27 53.75-40.12 71.34l-14.641 10.791-14.64-10.78c-19.565-14.438-32.894-34.534-37.97-56.607-.36-1.568.237-3.178 1.514-4.156 6.46-4.948 10.864-12.348 11.915-20.687l2.648-21.202c.232-1.855 2.084-3.045 3.867-2.485 10.214 3.206 20.923 4.857 31.845 4.857 18.3 0 36.31-4.76 52.17-13.63l-2.44-20.11-97.87-1.2-6.09 51.77c-.73 5.79-4.77 10.63-10.34 12.38l.02.48c.236 4.471.744 8.895 1.493 13.257.077.634.133.751.427 2.423l.02-.006c5.058 26.269 19.137 50.146 40.1 67.296l17 13.89c3.68 3.01 8.98 3.01 12.66 0l17-13.89c25.07-20.51 40.33-50.63 42.04-82.97l.02-.48c-5.178-1.63-9.025-5.872-10.125-11.122z" fill="#f2bb88"/><path d="m141.435 190.881c.708 36.939 10 72.341 25.612 100.559 2.799 5.059 6.224 9.888 10.089 14.453 0 0 2.867 1.553 3.864 2.639 6.976 7.601 14.869 13.307 23.234 19.149 33.009 23.052 75.656 21.465 106.979-3.83 7.866-6.353 16.241-12.172 22.819-19.931.237-.28.84-.549.84-.549 4.495-5.384 8.536-11.029 11.934-16.839 14.455-27.422 23.1-60.969 23.762-95.878l-56.802-157.481-132.255 44.55z" fill="#f2d1a5"/><path d="m225.547 38.164c-3.852-3.121-8.564-2.484-13.908-2.484-21.71 0-84.936 12.234-84.936 85.617l-2 68.926 17.028.659h.18c12.647 0 22.899-10.252 22.899-22.899v-14.28c0-21.818 17.687-39.504 39.504-39.504 11.293 0 21.107-6.336 26.08-15.647 0 0 .298-4.678.648-5.51 1.486-3.526 1.915-4.934 1.915-9l.383-9.83z" fill="#909ba6"/><path d="m225.55 38.16c-3.86-3.12-8.76-4.99-14.11-4.99-10.86 0-32.78 3.58-52 16.34-19.21 12.75-35.71 34.68-35.71 71.37v70h18v-63c0-36.69 16.5-58.62 35.71-71.37 9.425-6.258 19.494-10.301 28.594-12.8 1.815-.499 3.625.807 3.757 2.685 1.349 19.238 8.495 37.312 20.603 52.158 2.22-4.14 3.466-8.882 3.466-13.902v-9.99z" fill="#7e8b96"/><path d="m284.17 113.973c-13.945-2.222-26.579-10.277-36.413-20.014-13.858-14.028-22.382-33.471-22.21-54.931.141-17.511 14.625-31.528 32.136-31.528h26.702c28.684 0 54.659 11.639 73.456 30.446 18.797 18.817 30.426 44.813 30.426 73.516v79.42l-18.553-.238c-12.531-.161-22.606-10.365-22.606-22.897 2.343-24.369-14.542-47.302-38.93-50.289.002 0-24.008-3.485-24.008-3.485z" fill="#909ba6"/><path d="m336.76 237.29-.313 10.95-1.915 8.973 1.459 7.007-.191 6.67-1.929 9.47 1.416 8.5-.415 14.512c-6.75 8.09-14.512 15.578-22.662 22.158-31.32 25.29-75.67 26.97-108.68 3.92-3.857-2.695-7.666-5.596-11.335-8.684 0 0-9.233-10.348-13.749-15.68l-2.747-66.128 14.79-1.667h22.15c10.51 0 20.6-4.17 28.03-11.61 2.03-2.03 4.43-3.62 7.03-4.7 2.61-1.08 5.42-1.65 8.3-1.65s5.69.57 8.3 1.65c2.6 1.08 5 2.67 7.03 4.7 3.71 3.72 8.09 6.62 12.86 8.6 4.77 1.97 9.91 3.01 15.17 3.01h37.401z" fill="#f9f8f9"/><path d="m192.201 320.76c-5.42-4.56-10.544-9.537-15.064-14.867l-.704-17.263 1.827-9.027-2.562-8.993-.3-7.36 1.9-7.25-2.571-9.21-.387-9.5h16.15z" fill="#e8e8e8"/></g><g><path d="m449.977 503.212-7.686-44.087c-4.307-24.69-21.836-44.798-45.791-52.49l-72.86-22.905c-2.763-.868-4.783-3.286-5.146-6.161-.435-2.243-4.846-40.688-5.592-43.145 24.044-18.071 41.276-39.947 50.854-67.536 29.038-2.268 51.976-26.55 51.976-56.095 0-12.52-8.456-23.099-19.965-26.365v-72.967c0-29.769-11.584-57.759-32.621-78.817-21.039-21.05-49.01-32.644-78.761-32.644h-26.702c-17.46 0-32.381 11.338-37.624 26.972-2.782-.838-5.681-1.299-8.616-1.299-21.941 0-81.457 13.206-93.205 73.507-.792 4.066 1.861 8.004 5.927 8.796.484.095.967.14 1.442.14 3.517 0 6.655-2.485 7.354-6.066 9.81-50.35 59.979-61.376 78.482-61.376 2.357 0 4.61.545 6.658 1.573.354 12.027 3.185 23.61 8.262 34.178v8.227c0 12.158-9.891 22.049-22.048 22.049-25.918 0-47.004 21.086-47.004 47.004v14.279c0 8.491-6.908 15.399-15.399 15.399h-10.678v-47.829c0-4.143-3.358-7.5-7.5-7.5s-7.5 3.357-7.5 7.5v48.876c-11.509 3.267-19.965 13.845-19.965 26.365 0 29.382 22.685 53.562 51.496 56.058 12.33 37.355 32.836 54.575 51.008 69.002l-5.265 41.715c-.363 2.875-2.382 5.293-5.146 6.161l-72.904 22.919c-23.911 7.678-41.439 27.785-45.747 52.477l-7.686 44.086c-.711 4.08 2.02 7.965 6.101 8.677.436.076.869.112 1.297.112 3.577 0 6.744-2.568 7.38-6.213l7.686-44.085c3.345-19.182 16.969-34.805 35.511-40.758l63.965-20.108c1.537 12.097 4.859 23.842 9.922 35.021 1.254 2.77 3.982 4.407 6.836 4.407 1.035 0 2.086-.216 3.09-.67 3.773-1.709 5.446-6.153 3.737-9.927-4.94-10.905-7.99-22.424-9.099-34.295 5.389-3.555 9.107-9.341 9.938-15.926l4.526-35.861c25.805 12.728 59.519 12.848 86.083-.705l4.615 36.565c.831 6.583 4.546 12.367 9.932 15.922-4.335 42.481-27.489 65.352-55.962 87.056-.917.75-2.248.75-3.165 0-8.469-7.094-21.445-16.74-29.051-25.423-2.763-3.087-7.505-3.35-10.59-.586-3.086 2.762-3.349 7.504-.586 10.59 6.57 7.886 22.574 20.306 30.733 27.032 3.209 2.623 7.143 3.936 11.077 3.936s7.868-1.312 11.077-3.936c36.149-26.779 55.652-54.184 60.953-93.205l63.928 20.095c18.586 5.968 32.21 21.591 35.555 40.771l7.686 44.086c.636 3.645 3.803 6.213 7.38 6.213.427 0 .861-.036 1.297-.112 4.08-.709 6.811-4.594 6.1-8.674zm-267.715-258.42h30.377c12.592 0 24.43-4.903 33.334-13.808 2.678-2.679 6.239-4.153 10.027-4.153s7.349 1.475 10.027 4.154c8.904 8.903 20.742 13.807 33.334 13.807h29.603l-.228 5.85-6.74 2.454c-42.27 15.393-88.86 15.48-131.189.244l-8.24-2.966zm160.415 33.288 1.491-38.191 16.733-22.665c-3.071 21.606-9.283 42.49-18.224 60.856zm58.056-67.286c0 19.44-13.553 35.775-31.731 40.134 4.865-16.895 7.872-34.738 8.792-52.68l10.378.133c.032.001.063.001.096.001s0 0 0 0c6.873 0 12.465 5.568 12.465 12.412zm-228.423-42.812v-14.279c0-17.647 14.357-32.004 32.004-32.004 16.416 0 30.365-10.737 35.214-25.554.955 1.068 1.938 2.116 2.952 3.143 10.079 9.979 21.551 17.047 33.176 20.438 3.977 1.156 8.141-1.123 9.3-5.1 1.16-3.977-1.123-8.141-5.099-9.301-11.67-3.404-21.028-10.959-26.765-16.638-12.367-12.421-20.231-30.619-20.045-49.6.107-13.281 11.159-24.087 24.636-24.087h26.702c25.742 0 49.946 10.032 68.15 28.247 18.206 18.225 28.232 42.45 28.232 68.215v71.823c-1.345-.017-9.556-.122-10.957-.14-8.278-.106-15.033-6.845-15.199-15.087 2.404-27.058-15.099-51.628-40.859-57.252-4.046-.888-8.043 1.68-8.927 5.728-.883 4.047 1.681 8.044 5.728 8.927 17.807 3.773 31.313 22.752 29.056 42.286 0 12.483 7.663 23.306 18.531 27.962l-25.162 34.083h-33.616c-8.585 0-16.657-3.343-22.727-9.413-5.511-5.513-12.839-8.548-20.634-8.548s-15.123 3.035-20.634 8.547c-6.071 6.071-14.143 9.414-22.728 9.414h-34.453l-24.331-33.858c10.841-4.651 18.455-15.427 18.455-27.952zm-61.042 42.812c0-6.844 5.592-12.412 12.465-12.412h10.462c.891 17.962 3.782 35.697 8.455 52.466-18.004-4.483-31.382-20.738-31.382-40.054zm39.802 6.969 15.901 22.127 2.147 39.16c-8.855-18.433-15.014-39.402-18.048-61.287zm56.756 105.533c-6.734-4.703-14.97-11.234-22.315-19.248l-.559-10.206c22.289 14.263 49.116 22.029 76.071 20.946 4.14-.154 7.37-3.636 7.215-7.774-.154-4.14-3.642-7.324-7.774-7.216-22.472.853-44.526-4.838-63.795-16.415l-12.709-7.636-.499-9.11c22.266 8.347 48.362 13.164 72.604 13.065 23.332.056 49.221-4.341 72.041-12.868l-.356 9.111c-10.526 6.654-22.294 13.881-34.877 17.948-3.927 1.316-6.043 5.567-4.726 9.495 1.052 3.137 3.975 5.117 7.11 5.117 9.863-2.074 22.321-8.653 31.789-14.518l-.286 7.335c-5.633 6.403-12.104 12.59-19.259 18.368-28.628 23.116-69.616 24.601-99.675 3.606z"/><path d="m301.361 186.347c-4.142 0-7.5 3.357-7.5 7.5v14.935c0 4.143 3.358 7.5 7.5 7.5s7.5-3.357 7.5-7.5v-14.935c0-4.143-3.358-7.5-7.5-7.5z"/><path d="m210.521 186.347c-4.142 0-7.5 3.357-7.5 7.5v14.935c0 4.143 3.358 7.5 7.5 7.5s7.5-3.357 7.5-7.5v-14.935c0-4.143-3.358-7.5-7.5-7.5z"/><path d="m199.511 177.109c6.688-4.416 15.331-4.416 22.018 0 1.272.84 2.707 1.242 4.126 1.242 2.435 0 4.823-1.185 6.266-3.368 2.282-3.456 1.331-8.108-2.126-10.392-11.709-7.732-26.841-7.732-38.549 0-3.457 2.283-4.408 6.936-2.125 10.392 2.281 3.457 6.934 4.407 10.39 2.126z"/><path d="m290.352 177.109c6.688-4.415 15.33-4.416 22.018 0 1.272.84 2.707 1.242 4.126 1.242 2.435 0 4.823-1.185 6.265-3.368 2.283-3.456 1.331-8.108-2.125-10.392-11.709-7.732-26.841-7.732-38.549 0-3.457 2.283-4.408 6.936-2.125 10.392 2.281 3.457 6.934 4.407 10.39 2.126z"/><path d="m374.5 487h-63c-4.142 0-7.5 3.357-7.5 7.5s3.358 7.5 7.5 7.5h63c4.142 0 7.5-3.357 7.5-7.5s-3.357-7.5-7.5-7.5z"/></g></g></svg>