<svg id="Capa_1" enable-background="new 0 0 512 512" height="512" viewBox="0 0 512 512" width="512" xmlns="http://www.w3.org/2000/svg"><g><g><path d="m459.5 450h-435c-8.284 0-15-6.716-15-15v-249l13-2 8.499-2 419.533.054 8.968 1.946z" fill="#f9f8f9"/><path d="m27.5 438c-2.761 0-5-2.239-5-5v-249l-6.989-3-8.011 3v254c0 8.284 6.716 15 15 15h437v-15s-333.368 0-432 0z" fill="#e8e8e8"/><g><path d="m459.5 124-226.869-3-210.131 3-13 2v56l13 2h437z" fill="#e8e8e8"/><path d="m22.5 124-7.496-3-7.504 3v60h15.009z" fill="#dcdbdd"/></g><g><path d="m457.5 121h-448v-60c0-8.284 4.716-17 13-17h422c8.284 0 15 6.716 15 15v50z" fill="#7dc3ee"/><path d="m22.5 104v-60c-8.284 0-15 6.716-15 15v65h452v-15h-432c-2.761 0-5-2.239-5-5z" fill="#64acdc"/></g><g><path d="m73.5 73c-8.284 0-13-6.716-13-15v-26c0-8.284 4.716-17 13-17 8.284 0 15 6.716 15 15v30c0 2.53-.63 4.911-1.736 7.001-2.516 4.756-7.509 5.999-13.264 5.999z" fill="#f9f8f9"/><path d="m73.5 53.738v-38.738c-8.284 0-15 6.716-15 15v29.564c0 8.129 6.284 15.112 14.407 15.425 6.003.232 11.255-3.069 13.857-7.987-7.324-.001-13.264-5.939-13.264-13.264z" fill="#e8e8e8"/></g><g><path d="m153.528 73c-8.284 0-13-6.716-13-15v-26c0-8.284 4.716-17 13-17 8.284 0 15 6.716 15 15v30c0 2.53-.63 4.911-1.736 7.001-2.516 4.756-7.509 5.999-13.264 5.999z" fill="#f9f8f9"/><path d="m153.528 53.738v-38.738c-8.284 0-15 6.716-15 15v29.564c0 8.129 6.284 15.112 14.407 15.425 6.003.232 11.255-3.069 13.857-7.987-7.324-.001-13.264-5.939-13.264-13.264z" fill="#e8e8e8"/></g><g><path d="m233.5 73c-8.284 0-13-6.716-13-15v-26c0-8.284 4.716-17 13-17 8.284 0 15 6.716 15 15v30c0 2.53-.63 4.911-1.736 7.001-2.516 4.756-7.509 5.999-13.264 5.999z" fill="#f9f8f9"/><path d="m233.5 53.738v-38.738c-8.284 0-15 6.716-15 15v29.564c0 8.129 6.284 15.112 14.407 15.425 6.003.232 11.255-3.069 13.857-7.987-7.324-.001-13.264-5.939-13.264-13.264z" fill="#e8e8e8"/></g><g><path d="m313.5 73c-8.284 0-13-6.716-13-15v-26c0-8.284 4.716-17 13-17 8.284 0 15 6.716 15 15v30c0 2.53-.63 4.911-1.736 7.001-2.516 4.756-7.509 5.999-13.264 5.999z" fill="#f9f8f9"/><path d="m313.5 53.738v-38.738c-8.284 0-15 6.716-15 15v29.564c0 8.129 6.284 15.112 14.407 15.425 6.003.232 11.255-3.069 13.857-7.987-7.324-.001-13.264-5.939-13.264-13.264z" fill="#e8e8e8"/></g><g><path d="m393.5 73c-8.284 0-13-6.716-13-15v-26c0-8.284 4.716-17 13-17 8.284 0 15 6.716 15 15v30c0 2.53-.626 4.913-1.732 7.003-2.515 4.756-7.513 5.997-13.268 5.997z" fill="#f9f8f9"/><path d="m393.5 53.738v-38.738c-8.284 0-15 6.716-15 15v29.564c0 8.129 6.284 15.112 14.407 15.425 6.003.232 11.253-3.07 13.855-7.989-7.324 0-13.262-5.937-13.262-13.262z" fill="#e8e8e8"/></g><g><g><g><path d="m504.5 371.5c0-65.95-50.864-120.018-115.506-125.108-3.295-.259-6.632.608-9.994.608-69.312 0-123.5 55.188-123.5 124.5s54.188 124.5 123.5 124.5c3.293 0 6.664.863 9.893.614 64.738-4.993 115.607-59.095 115.607-125.114z" fill="#afefa5"/></g></g><path d="m273.5 371.5c0-65.946 50.858-120.012 115.494-125.108-3.299-.26-6.628-.392-9.994-.392-69.312 0-125.5 56.188-125.5 125.5s56.188 125.5 125.5 125.5c3.366 0 6.593-.126 9.893-.386-64.636-5.096-115.393-59.169-115.393-125.114z" fill="#8ce1a4"/><g><g><path d="m403.269 356.5 1-14v-14.214l-17.907-2-17.631 2-14 1v27.214z" fill="#b9c3cd"/><path d="m368.731 339.5v-11.215l-7.221-2-7.779 2v29.215l25.269 2 25.269-2v-15h-32.537c-1.658 0-3.001-1.343-3.001-3z" fill="#a2abb8"/></g><g><path d="m351.5 357.5-2.065 1c-6.591 0-11.935 5.343-11.935 11.934v71.632c0 6.591 5.343 11.934 11.935 11.934h59.13c6.591 0 11.935-5.343 11.935-11.934l1-2.066v-70.566c0-6.591-5.343-11.934-11.935-11.934z" fill="#f9f8f9"/><path d="m354.5 440c-1.657 0-3-1.343-3-3v-79.5h-3.065c-6.591 0-11.935 5.343-11.935 11.935v73.631c0 6.591 5.343 11.934 11.934 11.934h61.131c6.591 0 11.935-5.343 11.935-11.935v-3.065z" fill="#e8e8e8"/></g><g><path d="m410.5 327.286h-63c-5.523 0-10-4.477-10-10v-18.286c0-5.523 4.477-10 10-10l4-1h60c5.523 0 10 4.477 10 10v15.286l-1 4c0 5.522-4.477 10-10 10z" fill="#909ba6"/><path d="m351.5 310.286v-22.286h-5c-5.523 0-10 4.477-10 10v20.286c0 5.523 4.477 10 10 10h65c5.523 0 10-4.477 10-10v-5h-67c-1.657 0-3-1.343-3-3z" fill="#7e8b96"/></g></g></g></g><g><path d="m137.5 161.5h207c4.142 0 7.5-3.357 7.5-7.5s-3.358-7.5-7.5-7.5h-207c-4.142 0-7.5 3.357-7.5 7.5s3.358 7.5 7.5 7.5z"/><path d="m467 271.867c0-44.875-.001-170.022 0-212.867 0-12.406-10.093-22.5-22.5-22.5h-28.5v-6.5c0-12.406-10.093-22.5-22.5-22.5s-22.5 10.094-22.5 22.5v6.5h-35v-6.5c0-12.406-10.093-22.5-22.5-22.5s-22.5 10.094-22.5 22.5v6.5h-35v-6.5c0-12.406-10.093-22.5-22.5-22.5s-22.5 10.094-22.5 22.5v6.5h-35v-6.5c0-12.406-10.093-22.5-22.5-22.5s-22.5 10.094-22.5 22.5v6.5h-35v-6.5c0-12.406-10.093-22.5-22.5-22.5s-22.5 10.094-22.5 22.5v6.5h-28.5c-12.407 0-22.5 10.094-22.5 22.5v244.128c0 4.143 3.358 7.5 7.5 7.5s7.5-3.357 7.5-7.5v-21.628h76v75h-76v-18.372c0-4.143-3.358-7.5-7.5-7.5s-7.5 3.357-7.5 7.5v99.872c0 12.406 10.093 22.5 22.5 22.5h257.755c24.359 27 59.603 44 98.745 44 40.054 0 77.589-17.797 102.98-48.827 2.624-3.206 2.151-7.932-1.055-10.555s-7.931-2.15-10.554 1.055c-22.531 27.535-55.834 43.327-91.371 43.327-65.065 0-118-52.935-118-118s52.935-118 118-118 118 52.935 118 118c0 16.169-3.208 31.831-9.537 46.553-1.636 3.806.124 8.217 3.929 9.853 3.806 1.637 8.217-.123 9.853-3.929 7.136-16.604 10.755-34.26 10.755-52.477 0-39.622-17.422-75.246-45-99.633zm-81-241.867c0-4.136 3.364-7.5 7.5-7.5s7.5 3.364 7.5 7.5v30c0 4.136-3.364 7.5-7.5 7.5s-7.5-3.364-7.5-7.5zm-80 0c0-4.136 3.364-7.5 7.5-7.5s7.5 3.364 7.5 7.5v30c0 4.136-3.364 7.5-7.5 7.5s-7.5-3.364-7.5-7.5zm-80 0c0-4.136 3.364-7.5 7.5-7.5s7.5 3.364 7.5 7.5v30c0 4.136-3.364 7.5-7.5 7.5s-7.5-3.364-7.5-7.5zm-80 0c0-4.136 3.364-7.5 7.5-7.5s7.5 3.364 7.5 7.5v30c0 4.136-3.364 7.5-7.5 7.5s-7.5-3.364-7.5-7.5zm-80 0c0-4.136 3.364-7.5 7.5-7.5s7.5 3.364 7.5 7.5v30c0 4.136-3.364 7.5-7.5 7.5s-7.5-3.364-7.5-7.5zm-43.5 21.5h28.5v8.5c0 12.406 10.093 22.5 22.5 22.5s22.5-10.094 22.5-22.5v-8.5h35v8.5c0 12.406 10.093 22.5 22.5 22.5s22.5-10.094 22.5-22.5v-8.5h35v8.5c0 12.406 10.093 22.5 22.5 22.5s22.5-10.094 22.5-22.5v-8.5h35v8.5c0 12.406 10.093 22.5 22.5 22.5s22.5-10.094 22.5-22.5v-8.5h35v8.5c0 12.406 10.093 22.5 22.5 22.5s22.5-10.094 22.5-22.5v-8.5h28.5c4.136 0 7.5 3.364 7.5 7.5v57.5h-313.702c-4.142 0-7.5 3.357-7.5 7.5s3.358 7.5 7.5 7.5h313.702v45h-437v-45h88.298c4.142 0 7.5-3.357 7.5-7.5s-3.358-7.5-7.5-7.5h-88.298v-57.5c0-4.136 3.364-7.5 7.5-7.5zm248.5 215h-75v-75h75zm-90-75v75h-75v-75zm-166 75v-75h76v75zm91 15h75v75h-75zm75 90v74h-75v-74zm-166 66.5v-66.5h76v74h-68.5c-4.136 0-7.5-3.364-7.5-7.5zm253.541 7.5h-72.541v-74h50c0 27.369 8.313 52.83 22.541 74zm-21.69-89h-50.851v-75h75c.019.497-.039 12.168.024 12.438-12.979 18.017-21.561 39.398-24.173 62.562zm39.149-79.979v-85.021h75v48.223c-28.998 3.941-55.051 17.261-75 36.798zm90-37.983v-47.038h76v68.882c-21.082-13.94-48.273-22.615-76-21.844z"/><path d="m429 318.285v-20.285c0-9.649-7.851-17.5-17.5-17.5h-65c-9.649 0-17.5 7.851-17.5 17.5v20.285c0 9.559 7.707 17.341 17.231 17.486v14.363c-9.681 1.099-17.231 9.331-17.231 19.301v73.631c0 10.716 8.719 19.435 19.435 19.435h61.13c10.716 0 19.435-8.719 19.435-19.435v-73.631c0-9.97-7.55-18.201-17.231-19.301v-14.363c9.524-.145 17.231-7.927 17.231-17.486zm-67.769 31.715v-14.215h35.537v14.215zm-17.231-31.715v-20.285c0-1.379 1.122-2.5 2.5-2.5h65c1.378 0 2.5 1.121 2.5 2.5v20.285c0 1.379-1.122 2.5-2.5 2.5h-65c-1.378 0-2.5-1.121-2.5-2.5zm70 51.15v73.631c0 2.445-1.99 4.435-4.435 4.435h-61.13c-2.445 0-4.435-1.989-4.435-4.435v-73.631c0-2.445 1.99-4.435 4.435-4.435h61.13c2.445 0 4.435 1.989 4.435 4.435z"/><path d="m393.5 399.5h-6.5v-6.5c0-4.143-3.358-7.5-7.5-7.5s-7.5 3.357-7.5 7.5v6.5h-6.5c-4.142 0-7.5 3.357-7.5 7.5s3.358 7.5 7.5 7.5h6.5v6.5c0 4.143 3.358 7.5 7.5 7.5s7.5-3.357 7.5-7.5v-6.5h6.5c4.142 0 7.5-3.357 7.5-7.5s-3.358-7.5-7.5-7.5z"/><path d="m154.107 319 9.696-9.696c2.929-2.93 2.929-7.678 0-10.607-2.929-2.928-7.678-2.928-10.606 0l-9.697 9.697-9.697-9.697c-2.929-2.928-7.678-2.928-10.606 0-2.929 2.93-2.929 7.678 0 10.607l9.696 9.696-9.696 9.696c-2.929 2.93-2.929 7.678 0 10.607 1.464 1.464 3.384 2.196 5.303 2.196s3.839-.732 5.303-2.196l9.697-9.697 9.697 9.697c1.464 1.464 3.384 2.196 5.303 2.196s3.839-.732 5.303-2.196c2.929-2.93 2.929-7.678 0-10.607z"/><path d="m64.107 229 9.696-9.696c2.929-2.93 2.929-7.678 0-10.607-2.929-2.928-7.678-2.928-10.606 0l-9.697 9.697-9.697-9.697c-2.929-2.928-7.678-2.928-10.606 0-2.929 2.93-2.929 7.678 0 10.607l9.696 9.696-9.696 9.696c-2.929 2.93-2.929 7.678 0 10.607 1.464 1.464 3.384 2.196 5.303 2.196s3.839-.732 5.303-2.196l9.697-9.697 9.697 9.697c1.464 1.464 3.384 2.196 5.303 2.196s3.839-.732 5.303-2.196c2.929-2.93 2.929-7.678 0-10.607z"/><path d="m212.31 230.235 13 19c1.403 2.051 3.724 3.265 6.189 3.265.155 0 .311-.005.467-.015 2.636-.164 4.992-1.703 6.202-4.051l17-33c1.897-3.683.449-8.205-3.233-10.102-3.682-1.898-8.205-.45-10.102 3.232l-11.242 21.823-5.9-8.624c-2.339-3.418-7.007-4.296-10.425-1.954-3.42 2.34-4.295 7.007-1.956 10.426z"/><path d="m122.31 408.235 13 19c1.403 2.051 3.724 3.265 6.189 3.265.155 0 .311-.005.467-.015 2.636-.164 4.992-1.703 6.202-4.051l17-33c1.897-3.683.449-8.205-3.233-10.102-3.683-1.898-8.205-.45-10.102 3.232l-11.242 21.823-5.9-8.624c-2.339-3.418-7.006-4.296-10.425-1.954-3.42 2.34-4.295 7.007-1.956 10.426z"/><path d="m71.935 383.333c-3.683-1.898-8.205-.45-10.102 3.232l-11.243 21.824-5.9-8.624c-2.339-3.418-7.007-4.296-10.425-1.954-3.418 2.339-4.293 7.006-1.955 10.425l13 19c1.403 2.051 3.724 3.265 6.189 3.265.155 0 .311-.005.467-.015 2.636-.164 4.992-1.703 6.202-4.051l17-33c1.896-3.683.449-8.206-3.233-10.102z"/><path d="m121.31 230.235 13 19c1.403 2.051 3.724 3.265 6.189 3.265.155 0 .311-.005.467-.015 2.636-.164 4.992-1.703 6.202-4.051l17-33c1.897-3.683.449-8.205-3.233-10.102-3.683-1.898-8.206-.45-10.102 3.232l-11.242 21.823-5.9-8.624c-2.339-3.418-7.007-4.296-10.425-1.954-3.42 2.34-4.295 7.007-1.956 10.426z"/></g></g></svg>