<svg id="Capa_1" enable-background="new 0 0 512 512" height="512" viewBox="0 0 512 512" width="512" xmlns="http://www.w3.org/2000/svg"><g><g><path d="m365 433-287.5-1c-62.117 0-65.543-6.68-65.543-45.34l-1.457-347.16c0-11.103 3.033-22.796 11.999-27.983 4.413-2.553 9.536-4.017 15.001-4.017h367.5c16.569 0 30 13.431 30 30v327.5c0 38.66-31.34 68-70 68z" fill="#7dc3ee"/><path d="m391 420h-348.5c-11.046 0-20-8.954-20-20l-.001-388.483c-2.257 1.438-14.999 9.642-14.999 25.983v367.5c0 16.569 13.431 30 30 30h327.5c18.747 0 35.758-7.384 48.324-19.384-6.888 2.819-14.422 4.384-22.324 4.384z" fill="#64acdc"/><circle cx="221.25" cy="221.25" fill="#e8e8e8" r="160.5"/><path d="m221.25 60.75c-88.642 0-160.5 71.858-160.5 160.5s71.858 160.5 160.5 160.5 160.5-71.858 160.5-160.5-71.858-160.5-160.5-160.5zm0 302c-2.356 0-4.699-2.058-7.026-2.174-20.152-1-39.179-6.276-56.192-14.94-2.124-1.082-4.217-.216-6.277-1.402-2.277-1.311-4.513-4.684-6.707-6.117-16.242-10.612-30.137-24.519-40.735-40.772-1.246-1.911-4.447-3.855-5.6-5.829-1.369-2.344-.672-4.731-1.906-7.16-8.63-16.984-13.885-35.971-14.882-56.079-.115-2.328-2.174-4.67-2.174-7.026 0-2.676 2.075-5.335 2.224-7.974 1.125-19.96 6.446-38.798 15.095-55.647 1.198-2.334.46-5.63 1.784-7.885 1.208-2.058 4.467-3.083 5.776-5.072 10.676-16.226 24.648-30.092 40.964-40.643 1.816-1.175 3.662-4.308 5.535-5.4 2.447-1.426 4.942-.779 7.481-2.057 16.866-8.49 35.69-13.659 55.615-14.648 2.328-.115 4.67-2.174 7.026-2.174 2.676 0 5.335 2.075 7.974 2.224 19.89 1.121 38.666 6.409 55.469 15.004 2.074 1.061 5.119 1.173 7.131 2.333 2.322 1.339 3.603 3.743 5.838 5.209 16.007 10.5 29.724 24.203 40.24 40.199 1.371 2.086 3.688 3.21 4.948 5.372 1.26 2.161 1.464 5.36 2.609 7.593 8.632 16.834 13.943 35.653 15.067 55.591.149 2.639 2.224 5.298 2.224 7.974 0 2.324-2.057 4.635-2.169 6.931-3.483 71.18-60.315 128.342-131.357 132.345-2.64.149-5.299 2.224-7.975 2.224z" fill="#dcdbdd"/><path d="m391.25 41.25h-335l-4 1c-5.523 0-10 4.477-10 10l1 319c0 22.091 11.29 27.524 20 28l298 2c22.091 0 40-17.909 40-40v-310c0-5.523-4.477-10-10-10zm-170 331.5c-83.671 0-151.5-67.829-151.5-151.5s67.829-151.5 151.5-151.5 151.5 67.829 151.5 151.5-67.829 151.5-151.5 151.5z" fill="#f9f8f9"/><g><path d="m387.059 386.25h-327.809c-1.657 0-3-1.343-3-3v-342h-5c-5.523 0-10 4.477-10 10v340c0 5.523 4.477 10 10 10h310c12.899 0 24.364-6.112 31.679-15.591-1.897.387-3.86.591-5.87.591z" fill="#e8e8e8"/></g><path d="m231.75 200.5h-21l-2-14.681v-45.819c0-6.904 5.596-12.5 12.5-12.5 6.904 0 12.5 5.596 12.5 12.5v45.819z" fill="#7dc3ee"/><path d="m242.5 231.75v-21l14.181-2h20.319c6.904 0 12.5 5.596 12.5 12.5 0 6.904-5.596 12.5-12.5 12.5h-20.319z" fill="#7dc3ee"/><path d="m242.5 233.75h14.181c1.38-3.911 2.138-8.116 2.138-12.5s-.758-8.589-2.138-12.5h-14.181z" fill="#64acdc"/><path d="m233.75 185.819c-3.911-1.38-8.116-2.138-12.5-2.138s-8.589.758-12.5 2.138v14.681h25z" fill="#64acdc"/><circle cx="221.25" cy="221.25" fill="#7dc3ee" r="25"/><g><g><g><path d="m505 379c0-65.95-50.864-120.018-115.506-125.108-3.295-.259-6.632.608-9.994.608-69.312 0-123.5 55.188-123.5 124.5s54.188 124.5 123.5 124.5c3.293 0 6.664.863 9.893.614 64.738-4.993 115.607-59.095 115.607-125.114z" fill="#afefa5"/></g></g><path d="m274 379c0-65.946 50.858-120.012 115.494-125.108-3.299-.26-6.628-.392-9.994-.392-69.312 0-125.5 56.188-125.5 125.5s56.188 125.5 125.5 125.5c3.366 0 6.593-.126 9.893-.386-64.636-5.096-115.393-59.169-115.393-125.114z" fill="#8ce1a4"/><g><g><path d="m403.769 364 1-14v-14.214l-17.907-2-17.631 2-14 1v27.214z" fill="#b9c3cd"/><path d="m369.231 347v-11.215l-7.221-2-7.779 2v29.215l25.269 2 25.269-2v-15h-32.537c-1.658 0-3.001-1.343-3.001-3z" fill="#a2abb8"/></g><g><path d="m352 365-2.065 1c-6.591 0-11.935 5.343-11.935 11.934v71.632c0 6.591 5.343 11.934 11.935 11.934h59.13c6.591 0 11.935-5.343 11.935-11.934l1-2.066v-70.566c0-6.591-5.343-11.934-11.935-11.934z" fill="#f9f8f9"/><path d="m355 447.5c-1.657 0-3-1.343-3-3v-79.5h-3.065c-6.591 0-11.935 5.343-11.935 11.935v73.631c0 6.591 5.343 11.934 11.934 11.934h61.131c6.591 0 11.935-5.343 11.935-11.935v-3.065z" fill="#e8e8e8"/></g><g><path d="m411 334.786h-63c-5.523 0-10-4.477-10-10v-18.286c0-5.523 4.477-10 10-10l4-1h60c5.523 0 10 4.477 10 10v15.286l-1 4c0 5.522-4.477 10-10 10z" fill="#909ba6"/><path d="m352 317.786v-22.286h-5c-5.523 0-10 4.477-10 10v20.286c0 5.523 4.477 10 10 10h65c5.523 0 10-4.477 10-10v-5h-67c-1.657 0-3-1.343-3-3z" fill="#7e8b96"/></g></g></g></g><g><path d="m7.5 288.143c4.143 0 7.5-3.357 7.5-7.5v-243.143c0-12.406 10.094-22.5 22.5-22.5h367.5c12.406 0 22.5 10.094 22.5 22.5v103.265c0 4.143 3.357 7.5 7.5 7.5s7.5-3.357 7.5-7.5v-103.265c0-20.678-16.822-37.5-37.5-37.5h-367.5c-20.678 0-37.5 16.822-37.5 37.5v243.143c0 4.142 3.357 7.5 7.5 7.5z"/><path d="m442.5 262.163v-86.399c0-4.143-3.357-7.5-7.5-7.5s-7.5 3.357-7.5 7.5v79.392c-6.048-2.377-12.311-4.322-18.75-5.799v-198.107c0-9.649-7.851-17.5-17.5-17.5h-228.441c-4.143 0-7.5 3.357-7.5 7.5s3.357 7.5 7.5 7.5h228.441c1.379 0 2.5 1.121 2.5 2.5v195.572c-3.53-.387-9.705-.856-15.424-.814 1.275-8.161 1.924-16.458 1.924-24.759 0-87.673-71.327-159-159-159-88.08-.069-159.273 72.373-159 159 0 87.673 71.327 159 159 159 8.302 0 16.6-.651 24.759-1.925-.002.226-.009.45-.009.676 0 4.986.285 9.905.822 14.75h-195.572c-1.379 0-2.5-1.121-2.5-2.5v-340c0-1.379 1.121-2.5 2.5-2.5h76.559c4.143 0 7.5-3.357 7.5-7.5s-3.357-7.5-7.5-7.5h-76.559c-9.649 0-17.5 7.851-17.5 17.5v340c0 9.649 7.851 17.5 17.5 17.5h198.107c1.477 6.439 3.422 12.702 5.799 18.75h-217.656c-12.406 0-22.5-10.094-22.5-22.5v-89.357c0-4.143-3.357-7.5-7.5-7.5s-7.5 3.357-7.5 7.5v89.357c0 20.678 16.822 37.5 37.5 37.5h224.663c22.575 41.37 66.482 69.5 116.837 69.5 73.337 0 133-59.663 133-133 0-50.355-28.13-94.262-69.5-116.837zm-213.276 102.862v-21.023c0-4.143-3.357-7.5-7.5-7.5s-7.5 3.357-7.5 7.5v21.074c-20.92-1.01-40.682-6.502-58.345-15.539l5.19-9.417c1.999-3.628.68-8.189-2.948-10.188-3.629-1.999-8.189-.68-10.188 2.948l-5.032 9.131c-16.944-11.031-31.432-25.526-42.453-42.476l9.743-5.505c3.606-2.038 4.878-6.613 2.841-10.22s-6.613-4.878-10.22-2.841l-9.882 5.583c-9.016-17.645-14.496-37.384-15.505-58.276h21.074c4.143 0 7.5-3.357 7.5-7.5s-3.357-7.5-7.5-7.5h-21.025c1.139-20.775 6.701-40.391 15.76-57.92l9.441 5.596c1.2.711 2.517 1.049 3.817 1.049 2.562 0 5.058-1.313 6.459-3.677 2.111-3.563.936-8.164-2.628-10.276l-9.512-5.638c11.083-16.873 25.607-31.293 42.576-42.242l4.601 8.053c1.384 2.423 3.915 3.78 6.519 3.78 1.262 0 2.54-.318 3.714-.989 3.597-2.055 4.847-6.636 2.791-10.232l-4.614-8.075c17.531-8.88 37.11-14.28 57.825-15.281v20.126c0 4.143 3.357 7.5 7.5 7.5s7.5-3.357 7.5-7.5v-20.076c20.671 1.134 40.196 6.643 57.658 15.622l-4.915 8.721c-2.033 3.608-.757 8.183 2.852 10.217 1.164.655 2.429.967 3.676.967 2.619 0 5.163-1.374 6.541-3.818l4.809-8.533c16.71 10.927 31.019 25.227 41.956 41.93l-7.912 4.348c-3.63 1.995-4.955 6.555-2.961 10.186 1.365 2.484 3.932 3.889 6.58 3.889 1.221 0 2.459-.299 3.605-.928l8.25-4.533c9.003 17.482 14.528 37.034 15.663 57.736h-20.075c-4.143 0-7.5 3.357-7.5 7.5s3.357 7.5 7.5 7.5h20.126c-.303 6.285-1.009 12.541-2.117 18.694-60.539 7.311-108.677 55.448-115.989 115.987-5.843 1.051-11.779 1.739-17.746 2.066zm149.776 131.975c-65.065 0-118-52.935-118-118s52.935-118 118-118 118 52.935 118 118-52.935 118-118 118z"/><path d="m411.5 288h-65c-9.649 0-17.5 7.851-17.5 17.5v20.285c0 9.559 7.707 17.341 17.231 17.486v14.363c-9.681 1.099-17.231 9.331-17.231 19.301v19.565c0 4.143 3.357 7.5 7.5 7.5s7.5-3.357 7.5-7.5v-19.565c0-2.445 1.989-4.435 4.435-4.435h61.131c2.445 0 4.435 1.989 4.435 4.435v73.631c0 2.445-1.989 4.435-4.435 4.435h-61.131c-2.445 0-4.435-1.989-4.435-4.435v-19.066c0-4.143-3.357-7.5-7.5-7.5s-7.5 3.357-7.5 7.5v19.065c0 10.716 8.719 19.435 19.435 19.435h61.131c10.716 0 19.435-8.719 19.435-19.435v-73.631c0-9.97-7.55-18.202-17.231-19.301v-14.363c9.525-.146 17.231-7.927 17.231-17.486v-20.284c-.001-9.649-7.852-17.5-17.501-17.5zm-14.731 55.285v14.215h-35.537v-14.215zm17.231-17.5c0 1.379-1.121 2.5-2.5 2.5h-65c-1.379 0-2.5-1.121-2.5-2.5v-20.285c0-1.379 1.121-2.5 2.5-2.5h65c1.379 0 2.5 1.121 2.5 2.5z"/><path d="m379.5 393c-4.143 0-7.5 3.357-7.5 7.5v6.5h-6.5c-4.143 0-7.5 3.357-7.5 7.5s3.357 7.5 7.5 7.5h6.5v6.5c0 4.143 3.357 7.5 7.5 7.5s7.5-3.357 7.5-7.5v-6.5h6.5c4.143 0 7.5-3.357 7.5-7.5s-3.357-7.5-7.5-7.5h-6.5v-6.5c0-4.143-3.357-7.5-7.5-7.5z"/><path d="m297 221.25c0-11.028-8.972-20-20-20h-30.161c-1.63-2.082-3.508-3.959-5.589-5.589v-55.661c0-11.028-8.972-20-20-20s-20 8.972-20 20v55.661c-7.601 5.954-12.5 15.207-12.5 25.589 0 17.921 14.579 32.5 32.5 32.5 10.382 0 19.635-4.899 25.589-12.5h30.161c11.028 0 20-8.972 20-20zm-80.75-81.25c0-2.757 2.243-5 5-5s5 2.243 5 5v49.135c-1.857-.119-3.441-.79-10 0zm5 98.75c-9.649 0-17.5-7.851-17.5-17.5s7.851-17.5 17.5-17.5 17.5 7.851 17.5 17.5-7.851 17.5-17.5 17.5zm55.75-12.5h-23.635c.119-1.857.79-3.441 0-10h23.635c2.757 0 5 2.243 5 5s-2.243 5-5 5z"/><path d="m242 278h-41c-4.143 0-7.5 3.357-7.5 7.5s3.357 7.5 7.5 7.5h41c4.143 0 7.5-3.357 7.5-7.5s-3.357-7.5-7.5-7.5z"/></g></g></svg>