<svg id="Capa_1" enable-background="new 0 0 512 512" height="512" viewBox="0 0 512 512" width="512" xmlns="http://www.w3.org/2000/svg"><g><g><path d="m101.663 39.016h308.673v216.984h-308.673z" fill="#dff8fa"/><path d="m206.3 262.406v-49.244c0-4.394-1.745-8.607-4.852-11.714l-23.429-23.429c-3.107-3.107-7.321-4.852-11.714-4.852h-63.166v89.239z" fill="#413e82"/><path d="m201.448 201.448-23.429-23.429c-3.107-3.107-7.321-4.852-11.715-4.852h-23c4.394 0 8.608 1.745 11.715 4.852l23.429 23.429c3.107 3.107 4.852 7.321 4.852 11.714v49.244h23v-49.244c0-4.394-1.745-8.607-4.852-11.714z" fill="#2f2c59"/><g><path d="m405.1 30.874h33.133v234.886h-33.133z" fill="#92b0ea"/><path d="m415.233 30.874h23v234.886h-23z" fill="#7691ea"/><path d="m73.767 30.874h33.133v234.886h-33.133z" fill="#92b0ea"/><path d="m83.9 30.874h23v234.886h-23z" fill="#7691ea"/></g><path d="m438.233 289.133-182.233-7.694-182.233 7.694v188.085h364.466z" fill="#92b0ea"/><path d="m415.233 477.218h23v-188.085l-23-.971z" fill="#7691ea"/><g><path d="m446.8 471.367h-25.133l-56.548 9.653-42.852-9.653h-99.4l-62.866 11.317-36.534-11.317h-58.267c-4.418 0-8 3.582-8 8v17.133c0 4.418 3.582 8 8 8h25.133l57.023-7.203 42.377 7.203h99.4l62.56-8.748 36.84 8.748h58.267c4.418 0 8-3.582 8-8v-17.133c0-4.419-3.582-8-8-8z" fill="#f3ffff"/><path d="m322.267 471.367-33.134 33.133h99.4l33.134-33.133z" fill="#413e82"/><path d="m123.467 471.367-33.134 33.133h99.4l33.134-33.133z" fill="#413e82"/><path d="m446.8 471.367h-23c4.418 0 8 3.582 8 8v17.133c0 4.418-3.582 8-8 8h23c4.418 0 8-3.582 8-8v-17.133c0-4.419-3.582-8-8-8z" fill="#dff9f9"/></g><g><path d="m181.733 438.233h-66.833c-4.418 0-8-3.582-8-8v-99.967c0-4.418 3.582-8 8-8h66.833c4.418 0 8 3.582 8 8v99.967c0 4.419-3.581 8-8 8z" fill="#f3ffff"/><path d="m181.733 322.267h-23c4.418 0 8 3.582 8 8v99.967c0 4.418-3.582 8-8 8h23c4.418 0 8-3.582 8-8v-99.967c0-4.419-3.581-8-8-8z" fill="#dff9f9"/></g><g><path d="m334.833 123.467h-41.7c-2.209 0-4-1.791-4-4v-21.134c0-4.418 3.582-8 8-8h33.7c4.418 0 8 3.582 8 8v21.133c0 2.21-1.79 4.001-4 4.001z" fill="#f3ffff"/><path d="m303.487 127.219-36.411 13.015c-7.549 2.699-12.083 10.415-10.765 18.324l5.475 32.85c1.504 9.025 10.04 15.122 19.065 13.618 9.025-1.505 15.121-10.04 13.617-19.065l-2.272-13.63c-.64-3.84 1.48-7.607 5.094-9.053l16.693-6.677 16.693 6.677c3.614 1.446 5.734 5.213 5.094 9.053l-2.272 13.63c-1.504 9.025 4.592 17.56 13.617 19.065 9.025 1.504 17.561-4.592 19.065-13.618l5.475-32.85c1.318-7.908-3.216-15.625-10.765-18.324l-36.412-13.015z" fill="#f3ffff"/><ellipse cx="313.983" cy="140.033" fill="#f6df59" rx="16.567" ry="16.567" transform="matrix(.23 -.973 .973 .23 105.558 413.444)"/><path d="" fill="#f6df59"/><path d="m313.983 123.467c-4.471 0-8.52 1.779-11.5 4.657 3.119 3.013 5.067 7.23 5.067 11.909s-1.947 8.897-5.067 11.909c2.98 2.878 7.029 4.657 11.5 4.657 9.149 0 16.567-7.417 16.567-16.567 0-9.148-7.417-16.565-16.567-16.565z" fill="#edbf50"/></g><path d="m73.767 256h364.467v33.133h-364.467z" fill="#f3ffff"/><path d="m415.233 256h23v33.133h-23z" fill="#dff9f9"/><g><path d="m347.117 326.564v-20.864c0-9.15 7.417-16.567 16.567-16.567s16.567 7.417 16.567 16.567v20.864z" fill="#9eea4a"/><path d="m363.683 289.133c-4.47 0-8.52 1.779-11.5 4.657 3.119 3.013 5.067 7.23 5.067 11.909v20.864h23v-20.863c0-9.149-7.417-16.567-16.567-16.567z" fill="#7fdc3f"/><ellipse cx="305.7" cy="272.567" fill="#dc3d36" rx="16.567" ry="16.567" transform="matrix(.16 -.987 .987 .16 -12.315 530.659)"/><path d="m305.7 256c-4.471 0-8.52 1.779-11.5 4.657 3.119 3.013 5.067 7.23 5.067 11.909s-1.947 8.897-5.067 11.909c2.98 2.878 7.029 4.657 11.5 4.657 9.149 0 16.567-7.417 16.567-16.567 0-9.148-7.418-16.565-16.567-16.565z" fill="#b13d49"/><path d="m378.295 388.533h-95.489c-6.275 0-12.011-3.545-14.818-9.158l-8.49-16.979c-2.3-4.601-3.498-9.674-3.498-14.818v-17.028c0-4.575 3.709-8.283 8.283-8.283h132.533c4.575 0 8.283 3.708 8.283 8.283v17.028c0 5.144-1.198 10.217-3.498 14.818l-8.49 16.979c-2.805 5.613-8.541 9.158-14.816 9.158z" fill="#f3ffff"/><path d="m396.817 322.267h-23c4.575 0 8.283 3.708 8.283 8.283v17.028c0 5.144-1.198 10.217-3.498 14.818l-8.49 16.98c-2.806 5.613-8.543 9.158-14.818 9.158h23c6.275 0 12.011-3.545 14.818-9.158l8.49-16.98c2.3-4.601 3.498-9.674 3.498-14.818v-17.028c0-4.575-3.709-8.283-8.283-8.283z" fill="#dff9f9"/></g><path d="m446.8 7.5h-25.133l-56.548 9.653-42.852-9.653h-99.4l-62.866 11.316-36.534-11.316h-58.267c-4.418 0-8 3.582-8 8v17.133c0 4.418 3.582 8 8 8h25.133l57.023-7.203 42.377 7.203h99.4l62.56-8.748 36.84 8.748h58.267c4.418 0 8-3.582 8-8v-17.133c0-4.418-3.582-8-8-8z" fill="#f3ffff"/><path d="m322.267 7.5-33.134 33.133h99.4l33.134-33.133z" fill="#413e82"/><path d="m123.467 7.5-33.134 33.133h99.4l33.134-33.133z" fill="#413e82"/><path d="m446.8 7.5h-23c4.418 0 8 3.582 8 8v17.133c0 4.418-3.582 8-8 8h23c4.418 0 8-3.582 8-8v-17.133c0-4.418-3.582-8-8-8z" fill="#dff9f9"/></g><g><path d="m181.733 445.733c8.547 0 15.5-6.953 15.5-15.5v-99.967c0-8.547-6.953-15.5-15.5-15.5h-66.833c-8.547 0-15.5 6.953-15.5 15.5v10.134c0 4.142 3.357 7.5 7.5 7.5s7.5-3.358 7.5-7.5v-10.133c0-.276.225-.5.5-.5h66.833c.275 0 .5.224.5.5v99.967c0 .276-.225.5-.5.5h-66.833c-.275 0-.5-.224-.5-.5v-59.834c0-4.142-3.357-7.5-7.5-7.5s-7.5 3.358-7.5 7.5v59.833c0 8.547 6.953 15.5 15.5 15.5z"/><path d="m156.6 362.9c4.143 0 7.5-3.358 7.5-7.5s-3.357-7.5-7.5-7.5h-16.566c-4.143 0-7.5 3.358-7.5 7.5s3.357 7.5 7.5 7.5z"/><path d="m445.733 48.133h1.066c8.547 0 15.5-6.953 15.5-15.5v-17.133c0-8.547-6.953-15.5-15.5-15.5h-381.599c-8.547 0-15.5 6.953-15.5 15.5v17.133c0 8.547 6.953 15.5 15.5 15.5h1.066v43.767c0 4.142 3.357 7.5 7.5 7.5s7.5-3.358 7.5-7.5v-43.767h18.134v200.367h-18.133v-126.6c0-4.142-3.357-7.5-7.5-7.5s-7.5 3.358-7.5 7.5v341.967h-1.067c-8.547 0-15.5 6.953-15.5 15.5v17.133c0 8.547 6.953 15.5 15.5 15.5h381.6c8.547 0 15.5-6.953 15.5-15.5v-17.133c0-8.547-6.953-15.5-15.5-15.5h-1.066v-415.734zm-72.983 257.567v9.066h-18.133v-9.066c0-4.999 4.067-9.067 9.066-9.067s9.067 4.068 9.067 9.067zm30.81 173.167-18.134 18.133h-78.186l18.134-18.133zm-117.534 18.133h-78.186l18.133-18.133h78.185zm-177.586 0 18.133-18.133h78.186l-18.133 18.133zm-27.173-215.367v-18.133h202.145c-1.144 2.8-1.779 5.86-1.779 9.067s.635 6.266 1.779 9.066zm233.5-9.066c0 4.999-4.067 9.066-9.066 9.066-5 0-9.067-4.067-9.067-9.066s4.067-9.067 9.067-9.067c4.998 0 9.066 4.067 9.066 9.067zm-1.567 24.066h28.196c-1.143 2.8-1.779 5.86-1.779 9.067v9.066h-26.417zm83.616 33.134c.432 0 .783.352.783.783v17.028c0 3.96-.936 7.923-2.706 11.464l-8.489 16.979c-1.546 3.092-4.653 5.012-8.109 5.012h-95.489c-3.456 0-6.564-1.92-8.109-5.012l-8.49-16.98c-1.771-3.54-2.706-7.504-2.706-11.463v-17.028c0-.432.352-.783.783-.783zm-68.828-48.134c1.143-2.8 1.779-5.86 1.779-9.066 0-3.207-.635-6.266-1.779-9.067h102.746v18.133zm102.745-33.133h-18.133v-200.367h18.134v200.367zm-123.493-215.367 18.133-18.133h78.186l-18.134 18.133zm-99.4 0 18.134-18.133h78.185l-18.133 18.133zm-99.4 0 18.134-18.133h78.186l-18.133 18.133zm338.86-17.633v17.133c0 .276-.225.5-.5.5h-40.16l18.134-18.133h22.026c.275 0 .5.224.5.5zm-382.6 17.133v-17.133c0-.276.225-.5.5-.5h40.159l-18.133 18.133h-22.026c-.275 0-.5-.224-.5-.5zm241.783 15.5v34.7h-9.351c-8.547 0-15.5 6.953-15.5 15.5v21.133c0 2.544.841 4.89 2.244 6.796l-19.326 6.908c-10.979 3.925-17.556 15.12-15.639 26.619l5.475 32.85c1.057 6.341 4.52 11.891 9.751 15.628 5.231 3.736 11.602 5.213 17.946 4.155 13.089-2.182 21.963-14.606 19.782-27.696l-2.272-13.629c-.061-.367.137-.719.48-.856l13.908-5.563 13.907 5.562c.339.136.542.496.482.857l-2.272 13.629c-2.181 13.089 6.693 25.514 19.782 27.696 1.339.223 2.678.333 4.009.333 4.972 0 9.81-1.541 13.938-4.488 5.23-3.737 8.694-9.287 9.751-15.628l5.474-32.849c1.918-11.499-4.659-22.695-15.638-26.62l-19.327-6.908c1.404-1.907 2.244-4.252 2.244-6.796v-21.132c0-8.547-6.953-15.5-15.5-15.5h-9.35v-34.7h76.119v200.366h-183.8v-35.338c0-6.429-2.504-12.473-7.049-17.018l-23.429-23.428c-4.545-4.546-10.589-7.05-17.018-7.05h-51.904v-117.533zm26.978 108.181-1.31-.524c3.669-4.225 5.898-9.734 5.899-15.756l20.317 7.262c4.136 1.479 6.613 5.696 5.891 10.028l-5.475 32.85c-.397 2.389-1.702 4.48-3.673 5.887-1.971 1.408-4.372 1.964-6.761 1.566-4.932-.822-8.274-5.503-7.452-10.434l2.271-13.63c1.21-7.261-2.872-14.515-9.707-17.249zm-48.663 17.25 2.271 13.629c.822 4.931-2.521 9.612-7.452 10.434-2.387.399-4.79-.158-6.761-1.566-1.971-1.407-3.275-3.498-3.673-5.887l-5.476-32.85c-.722-4.332 1.756-8.549 5.892-10.028l20.317-7.262c0 6.023 2.229 11.531 5.898 15.756l-1.31.524c-6.833 2.734-10.915 9.988-9.706 17.25zm38.252-33.531c0 4.999-4.067 9.067-9.066 9.067s-9.066-4.067-9.066-9.067c0-4.999 4.067-9.066 9.066-9.066s9.066 4.067 9.066 9.066zm8.283-24.066h-34.7v-17.633c0-.276.225-.5.5-.5h33.7c.275 0 .5.224.5.5zm-216.933 64.7h51.904c2.422 0 4.698.943 6.41 2.656l23.43 23.429c1.712 1.712 2.655 3.989 2.655 6.411v35.337h-84.399zm-33.133 115.966h134.101v167.233h-134.101zm-16.567 199.867v-17.133c0-.276.225-.5.5-.5h40.159l-18.133 18.133h-22.026c-.275 0-.5-.224-.5-.5zm382.6-17.133v17.133c0 .276-.225.5-.5.5h-40.16l18.134-18.133h22.026c.275 0 .5.224.5.5zm-216.933-15.5v-167.234h67.833v18.133h-33.917c-8.703 0-15.783 7.08-15.783 15.783v17.028c0 6.276 1.483 12.561 4.29 18.172l8.49 16.979c4.102 8.206 12.351 13.304 21.525 13.304h95.489c9.174 0 17.422-5.098 21.525-13.304l8.489-16.979c2.807-5.612 4.29-11.896 4.29-18.172v-17.027c0-8.703-7.08-15.783-15.783-15.783h-9.066v-9.067c0-3.207-.635-6.267-1.779-9.067h44.762v167.233h-200.365z"/><path d="m322.267 414.167c-4.143 0-7.5 3.358-7.5 7.5v16.567c0 4.142 3.357 7.5 7.5 7.5s7.5-3.358 7.5-7.5v-16.567c0-4.143-3.358-7.5-7.5-7.5z"/><path d="m355.4 414.167c-4.143 0-7.5 3.358-7.5 7.5v16.567c0 4.142 3.357 7.5 7.5 7.5s7.5-3.358 7.5-7.5v-16.567c0-4.143-3.357-7.5-7.5-7.5z"/><path d="m388.533 414.167c-4.143 0-7.5 3.358-7.5 7.5v16.567c0 4.142 3.357 7.5 7.5 7.5s7.5-3.358 7.5-7.5v-16.567c0-4.143-3.357-7.5-7.5-7.5z"/></g></g></svg>