<svg id="Capa_1" enable-background="new 0 0 512 512" height="512" viewBox="0 0 512 512" width="512" xmlns="http://www.w3.org/2000/svg"><g><g><path d="m289.133 7.5h-16.567l-16.566 7.896-16.567-7.896h-16.567c-4.575 0-8.283 3.709-8.283 8.283v38.464h82.833v-38.464c.001-4.574-3.708-8.283-8.283-8.283z" fill="#f3ffff"/><path d="m289.133 7.5h-16.567l-2.315 1.103c2.486 1.43 4.165 4.106 4.165 7.18v38.464h23v-38.464c.001-4.574-3.708-8.283-8.283-8.283z" fill="#dff9f9"/><path d="m206.301 393.099h99.4v57.135h-99.4z" fill="#f3ffff"/><path d="m282.701 393.099h23v57.135h-23z" fill="#dff9f9"/><path d="m363.684 471.367-19.88-26.507c-3.129-4.172-8.039-6.627-13.253-6.627h-149.1c-5.214 0-10.125 2.455-13.253 6.627l-19.88 26.507v9.653h215.367v-9.653z" fill="#f6df59"/><path d="m343.804 444.86c-3.129-4.172-8.039-6.627-13.253-6.627h-23c5.214 0 10.125 2.455 13.253 6.627l19.88 26.507v9.653h23v-9.653z" fill="#edbf50"/><path d="m380.534 504.5h-249.067c-4.418 0-8-3.582-8-8v-17.133c0-4.418 3.582-8 8-8h249.067c4.418 0 8 3.582 8 8v17.133c0 4.418-3.582 8-8 8z" fill="#f3ffff"/><path d="m380.534 471.367h-23c4.418 0 8 3.582 8 8v17.133c0 4.418-3.582 8-8 8h23c4.418 0 8-3.582 8-8v-17.133c0-4.419-3.582-8-8-8z" fill="#dff9f9"/><path d="m245.01 40.959c-95.528 5.682-171.243 84.953-171.243 181.907 0 100.645 81.588 182.234 182.233 182.234s182.233-81.589 182.233-182.233c0-96.955-75.716-176.225-171.243-181.907h-21.98z" fill="#f6df59"/><path d="m361.424 117.443c-25.774-25.774-60.934-42.161-99.918-43.576h-5.506l-105.424 43.576c-26.982 26.982-43.676 64.251-43.676 105.424l43.67 105.43c26.982 26.982 64.257 43.671 105.43 43.671l105.43-43.67c26.982-26.982 43.67-64.257 43.67-105.43z" fill="#924af5"/><g fill="#7536f9"><path d="m361.424 117.443c-25.774-25.774-60.934-42.161-99.918-43.576h-5.506l-3.02 1.248c72.895 9.765 129.12 72.183 129.12 147.752 0 52.275-26.907 98.258-67.621 124.877l46.951-19.448c26.982-26.982 43.67-64.257 43.67-105.43z"/><path d="m263.628 368.807c-6.243 1.304-12.625 2.226-19.128 2.722 3.795.29 7.63.437 11.5.437z"/></g><path d="m266.99 40.959h-21.98c-.171.01-.34.026-.51.037 95.286 5.934 170.733 85.089 170.733 181.871 0 96.781-75.448 175.926-170.733 181.862 3.804.237 7.636.372 11.5.372 100.645 0 182.233-81.589 182.233-182.233 0-96.956-75.715-176.226-171.243-181.909z" fill="#edbf50"/><path d="m256 206.3v-132.434h-5.506c-38.984 1.415-74.145 17.802-99.918 43.576l93.71 93.71 11.714 28.281v132.533c41.173 0 78.448-16.689 105.43-43.67l-93.715-93.715z" fill="#9eea4a"/><path d="m267.714 211.152-28.281 11.714h-132.533c0 41.173 16.689 78.448 43.67 105.43l93.715-93.715 28.281-11.715h132.534c0-41.173-16.694-78.442-43.676-105.424z" fill="#92b0ea"/><ellipse cx="256" cy="222.867" fill="#f6df59" rx="16.567" ry="16.567" transform="matrix(.16 -.987 .987 .16 -4.996 439.862)"/><path d="m256 206.3c-4.471 0-8.52 1.779-11.5 4.657 3.119 3.013 5.067 7.23 5.067 11.909s-1.948 8.897-5.067 11.909c2.98 2.879 7.029 4.657 11.5 4.657 9.15 0 16.567-7.417 16.567-16.567 0-9.148-7.417-16.565-16.567-16.565z" fill="#edbf50"/><path d="m349.297 129.569c20.52 25.542 32.803 57.983 32.803 93.297h23c0-41.173-16.694-78.442-43.676-105.424z" fill="#7691ea"/><g fill="#7fdc3f"><path d="m244.5 74.215c3.877.296 7.711.747 11.5 1.334v-1.682h-5.506c-1.021.037-2.038.09-3.054.148-.982.058-1.962.125-2.94.2z"/><path d="m349.3 316.166c-22.782 28.361-55.721 48.21-93.3 54.029v1.771c41.173 0 78.448-16.689 105.43-43.67z"/></g><path d="m251.915 82.388-12.482-74.888h33.133l-12.481 74.888c-.769 4.615-7.401 4.615-8.17 0z" fill="#dc3d36"/><path d="m249.287 7.5-4.927 29.562 7.554 45.327c.769 4.614 7.401 4.614 8.171 0l12.482-74.889z" fill="#b13d49"/></g><path d="m380.533 463.867h-13.1l-17.63-23.507c-4.522-6.027-11.719-9.626-19.254-9.626h-17.351v-25.634c0-.437-.045-.863-.117-1.279 76.811-24.284 132.651-96.218 132.651-180.953 0-87.324-59.421-161.692-140.816-183.357v-23.728c.001-8.703-7.08-15.783-15.783-15.783h-66.266c-8.703 0-15.784 7.08-15.784 15.783v23.682c-27.185 7.196-52.403 20.41-74.269 39.092-3.149 2.69-3.521 7.425-.83 10.574 1.483 1.736 3.588 2.628 5.706 2.628 1.723 0 3.455-.591 4.868-1.798 27.415-23.424 60.547-37.514 96.185-40.985l2.99 17.939c-37.384 3.371-72.043 19.914-98.352 47.137-28.361 29.347-43.981 67.992-43.981 108.815 0 86.35 70.25 156.6 156.6 156.6s156.6-70.25 156.6-156.6c0-40.823-15.619-79.467-43.98-108.814-26.309-27.223-60.968-43.766-98.351-47.137l2.988-17.928c88.836 8.703 157.478 83.807 157.478 173.88 0 96.348-78.385 174.733-174.733 174.733s-174.735-78.386-174.735-174.734c0-41.13 14.567-81.079 41.018-112.487 2.669-3.168 2.263-7.899-.905-10.568-3.167-2.668-7.899-2.264-10.567.906-28.726 34.109-44.545 77.489-44.545 122.149 0 84.736 55.839 156.669 132.65 180.953-.072.417-.117.843-.117 1.28v25.634h-17.35c-7.535 0-14.732 3.599-19.254 9.626l-17.63 23.507h-13.1c-8.547 0-15.5 6.953-15.5 15.5v17.133c0 8.547 6.953 15.5 15.5 15.5h35.388c4.143 0 7.5-3.358 7.5-7.5s-3.357-7.5-7.5-7.5h-35.388c-.275 0-.5-.224-.5-.5v-17.133c0-.276.225-.5.5-.5h232.214.009.006 16.837c.275 0 .5.224.5.5v17.133c0 .276-.225.5-.5.5h-183.678c-4.143 0-7.5 3.358-7.5 7.5s3.357 7.5 7.5 7.5h183.679c8.547 0 15.5-6.953 15.5-15.5v-17.133c-.001-8.547-6.954-15.5-15.501-15.5zm16.868-233.5c-1.752 33.402-15.135 63.771-36.162 87.132l-83.772-83.773c.547-1.076 1.015-2.198 1.397-3.359zm-282.802 0h118.537c.382 1.161.85 2.283 1.397 3.359l-83.772 83.773c-21.027-23.361-34.41-53.73-36.162-87.132zm150.467-7.5c0 4.999-4.067 9.066-9.066 9.066s-9.066-4.067-9.066-9.066 4.067-9.067 9.066-9.067 9.066 4.067 9.066 9.067zm-19.926 21.466c1.076.547 2.198 1.015 3.36 1.397v118.538c-33.402-1.752-63.771-15.135-87.132-36.162zm18.36 1.397c1.162-.382 2.283-.85 3.36-1.397l83.772 83.773c-23.361 21.027-53.73 34.411-87.132 36.162zm.213-230.73-7.713 46.277-7.713-46.277zm-41.63 21.144v-20.361c0-.432.352-.783.784-.783h10.212l3.191 19.149c-4.772.49-9.504 1.156-14.187 1.995zm22.434 47.477c.482 2.892 1.926 5.341 3.983 7.06v109.323c-1.162.382-2.284.85-3.36 1.397l-83.971-83.971c22.285-20.038 51.063-33.067 83.037-35.675zm-93.948 44.421 83.964 83.965c-.547 1.076-1.015 2.198-1.397 3.359h-118.54c1.728-33.554 14.985-63.97 35.973-87.324zm246.834 87.325h-118.54c-.382-1.161-.85-2.283-1.397-3.359l83.964-83.965c20.989 23.353 34.246 53.769 35.973 87.324zm-46.572-97.939-83.971 83.972c-1.077-.547-2.199-1.015-3.36-1.397v-109.323c2.057-1.719 3.502-4.167 3.983-7.059l.311-1.868c31.975 2.609 60.752 15.637 83.037 35.675zm-71.911-102.428h10.213c.433 0 .784.352.784.783v20.379c-4.671-.843-9.403-1.511-14.189-2.005zm-65.12 392.863c13.576 3.096 27.7 4.737 42.2 4.737s28.623-1.641 42.199-4.737v22.87h-84.399zm-39.604 41.497c1.703-2.271 4.415-3.627 7.254-3.627h149.1c2.839 0 5.551 1.356 7.254 3.626l10.88 14.507h-185.368z"/></g></svg>