<svg id="Capa_1" enable-background="new 0 0 512 512" height="512" viewBox="0 0 512 512" width="512" xmlns="http://www.w3.org/2000/svg"><g><g><g><path d="m377.301 133.275c0-8.321-8.512-20.777-13.595-27.473 0 0-1.235-1.245-1.755-1.9-.979-1.234-2.854-1.234-3.833 0-4.504 5.679-14.706 20.135-14.706 29.542 0 9.554 7.035 16.218 16.589 16.218 2.424 0 4.483.079 6.577-.821 1.173-.504 3.55-1.539 3.55-1.539 4.346-3.142 7.173-8.254 7.173-14.027z" fill="#c8effe"/><path d="m370.128 147.303c-2.843 2.067-6.351 3.272-10.125 3.272-9.559 0-17.304-7.745-17.304-17.304 0-9.404 10.882-24.093 15.384-29.771.98-1.233 2.859-1.233 3.832 0 .523.654 1.129 1.428 1.791 2.303-4.984 6.969-11.203 17.093-11.203 24.201 0 9.559 7.745 17.304 17.304 17.304.106-.001.215.003.321-.005z" fill="#a9e5f7"/></g><path d="m354.5 234.5v30l-110 4.287-110-4.287 5.734-13.84-5.734-16.16 110-4.521z" fill="#afefa5"/><path d="m274.5 21.5-3.479 13.032 3.479 15.968h67c2.761 0 5 2.239 5 5v9c0 2.761 2.239 5 5 5l8.21 1h10.29c2.761 0 5-2.239 5-5v-14c0-16.569-13.431-30-30-30z" fill="#f9f8f9"/><path d="m359.71 70.5h-9.21c-2.76 0-5-2.24-5-5v-9c0-2.76-2.24-5-5-5h-66l-2.585-6.691 2.585-7.309h66c10.48 0 19 8.52 19 19z" fill="#e8e8e8"/><path d="m231 65.17h31.5v48.809h-31.5z" fill="#f9f8f9"/><path d="m227.5 65.17h13v48.81h-13z" fill="#e8e8e8"/><path d="m216.5 56.5v-38c0-5.523 4.477-10 10-10l6-1h32c5.523 0 10 4.477 10 10v33l-1 6c0 5.523-4.477 10-10 10h-37c-5.523 0-10-4.477-10-10z" fill="#f9f8f9"/><path d="m274.5 50.5v7c0 5.523-4.477 10-10 10h-39c-5.523 0-10-4.477-10-10v-40c0-5.523 4.477-10 10-10h7v38c0 2.761 2.239 5 5 5z" fill="#e8e8e8"/><path d="m303.5 167.5h-118v-48c0-5.523 4.477-10 10-10l2-1h9l6.66 2.16 8.34-2.16h15l7.383 2.16 7.617-2.16h15l8.34 2.16 6.66-2.16h13c5.523 0 10 4.477 10 10v36z" fill="#f9f8f9"/><path d="m304.5 154.5v13l-63.287 4.394-56.713-4.394v-49c0-5.523 4.477-10 10-10h3v42c0 2.209 1.791 4 4 4z" fill="#e8e8e8"/><path d="m354.5 217.5v17h-219v-17c0-15.899 6.425-30.067 17.995-39.226 8.522-6.746 19.294-10.774 31.005-10.774h120c27.61 0 50 22.39 50 50z" fill="#c8effe"/><path d="m354.5 407.5v30l-106.862 3.457-113.138-3.457 5.564-15-5.564-15 113.479-5.011z" fill="#afefa5"/><path d="m354.5 264.5v143h-220l6.755-70.649-6.755-72.351z" fill="#f9f8f9"/><path d="m354.5 437.5v47c0 .582-.025 1.158-.074 1.728-.875 10.24-12.15 15.921-22.618 15.921l-176.308 1.351c-11.05 0-20-8.95-20-20v-46z" fill="#c8effe"/><path d="m153.5 234.5v30l-9.5 1.989-9.5-1.989v-30l8.287-2.223z" fill="#8ce1a4"/><path d="m153.5 407.5v30l-11.904 4.989-7.096-4.989v-30l8.457-3.989z" fill="#8ce1a4"/><path d="m134.5 264.5h19v143h-19z" fill="#e8e8e8"/><path d="m354.475 485.5c-.52 10.58-9.265 19-19.975 19h-180c-11.05 0-20-8.95-20-20v-47h19v38c0 5.52 4.48 10 10 10z" fill="#a9e5f7"/><path d="m153.495 178.274.005 56.226h-19v-17c0-15.9 7.415-30.066 18.995-39.226z" fill="#a9e5f7"/><g><path d="m283.925 321.289h-21.787c-1.146 0-2.075-.929-2.075-2.075v-21.788c0-1.146-.929-2.075-2.075-2.075h-19.05l-7.925 2c-1.146 0-.075.929-.075 2.075v19.788c0 1.146-2.929 2.075-4.075 2.075h-13.863l-6.925 1c-1.146 0-2.075.929-2.075 2.075v24.975c0 1.146.929 2.075 2.075 2.075h21.788c1.146 0 2.075.929 2.075 2.075v21.788c0 1.146.929 2.075 2.075 2.075h24.975c1.146 0 2.075-.929 2.075-2.075l1-6.925v-13.863c0-1.146.929-4.075 2.075-4.075l20.787 1c1.146 0 2.075-.929 2.075-2.075l1-6.925v-19.05c0-1.146-.929-2.075-2.075-2.075z" fill="#e27f86"/><g fill="#df646e"><path d="m268.062 342.414c-4.418 0-8 3.582-8 8v4.075c0-1.146.929-2.075 2.075-2.075h21.788c1.146 0 2.075-.929 2.075-2.075v-7.925z"/><path d="m241.012 368.351c-1.146 0-2.075-.929-2.075-2.075v-15.863c0-4.418-3.582-8-8-8h-15.863c-1.146 0-2.075-.929-2.075-2.075v-19.05h-7.925c-1.146 0-2.075.929-2.075 2.075v26.975c0 1.146.929 2.075 2.075 2.075h21.787c1.146 0 2.075.929 2.075 2.075v21.787c0 1.146.929 2.075 2.075 2.075h26.975c1.146 0 2.075-.929 2.075-2.075v-7.925h-19.049z"/></g><g><path d="m238.938 313.289v-17.938h-7.925c-1.146 0-2.075.929-2.075 2.075v21.788c0 1.146-.929 2.075-2.075 2.075h4.075c4.418 0 8-3.582 8-8z" fill="#df646e"/></g></g></g><g><path d="m312 160.505v-42.005c0-9.649-7.851-17.5-17.5-17.5h-24.5v-26.899c6.504-2.161 11.32-8.034 11.924-15.101h56.076v6.5c0 6.893 5.607 12.5 12.5 12.5h19.5c6.893 0 12.5-5.607 12.5-12.5v-14c0-20.678-16.822-37.5-37.5-37.5h-3.659c-4.143 0-7.5 3.357-7.5 7.5s3.357 7.5 7.5 7.5h3.659c12.406 0 22.5 10.094 22.5 22.5v11.5h-14.5v-6.5c0-6.893-5.607-12.5-12.5-12.5h-58.5v-15h24.341c4.143 0 7.5-3.357 7.5-7.5s-3.357-7.5-7.5-7.5h-24.694c-1.626-7.978-8.696-14-17.147-14h-39c-9.649 0-17.5 7.851-17.5 17.5v40c0 7.727 5.039 14.289 12 16.601v26.899h-25.5c-9.649 0-17.5 7.851-17.5 17.5v42.005c-28.172 3.688-50 27.832-50 56.995v267c0 15.163 12.336 27.5 27.5 27.5h85.883c4.142 0 7.5-3.357 7.5-7.5s-3.358-7.5-7.5-7.5h-85.883c-6.893 0-12.5-5.607-12.5-12.5v-39.5h205v39.5c0 6.893-5.607 12.5-12.5 12.5h-59.117c-4.143 0-7.5 3.357-7.5 7.5s3.357 7.5 7.5 7.5h59.117c15.163 0 27.5-12.337 27.5-27.5v-152.5c0-4.143-3.357-7.5-7.5-7.5s-7.5 3.357-7.5 7.5v68h-205v-128h205v25c0 4.143 3.357 7.5 7.5 7.5s7.5-3.357 7.5-7.5v-79.5c0-29.163-21.827-53.306-50-56.995zm-15-42.005v41.5h-15.5v-44h13c1.379 0 2.5 1.121 2.5 2.5zm-60.5-2.5v44h-15v-44zm15 0h15v44h-15zm-28.5-98.5c0-1.379 1.122-2.5 2.5-2.5h39c1.379 0 2.5 1.121 2.5 2.5v40c0 1.379-1.121 2.5-2.5 2.5h-39c-1.378 0-2.5-1.121-2.5-2.5zm12 57.5h20v26h-20zm-40.5 41h12v44h-14.5v-41.5c0-1.379 1.122-2.5 2.5-2.5zm152.5 299v15h-205v-15zm0-188h-109c-4.142 0-7.5 3.357-7.5 7.5s3.358 7.5 7.5 7.5h109v15h-205v-15h61c4.142 0 7.5-3.357 7.5-7.5s-3.358-7.5-7.5-7.5h-61v-9.5c0-23.435 19.065-42.5 42.5-42.5h120c23.435 0 42.5 19.065 42.5 42.5z"/><path d="m365.704 96.131c-1.425-1.67-3.51-2.631-5.704-2.631s-4.279.961-5.704 2.631c-3.223 3.774-19.296 23.315-19.296 37.369 0 13.785 11.215 25 25 25s25-11.215 25-25c0-14.054-16.073-33.595-19.296-37.369zm-5.704 47.369c-5.514 0-10-4.486-10-10 0-4.534 4.895-13.063 10-20.251 5.105 7.188 10 15.717 10 20.251 0 5.514-4.486 10-10 10z"/><path d="m231.013 385.851h26.975c5.279 0 9.575-4.295 9.575-9.574v-16.363h16.362c5.279 0 9.575-4.295 9.575-9.574v-26.976c0-5.279-4.296-9.575-9.575-9.575h-16.362v-16.362c0-5.279-4.296-9.575-9.575-9.575h-26.975c-5.28 0-9.575 4.296-9.575 9.575v16.362h-16.362c-5.28 0-9.575 4.296-9.575 9.575v26.976c0 5.279 4.295 9.574 9.575 9.574h16.362v16.363c0 5.279 4.295 9.574 9.575 9.574zm-20.513-40.938v-16.125h16.362c5.28 0 9.575-4.295 9.575-9.574v-16.363h16.125v16.363c0 5.279 4.295 9.574 9.575 9.574h16.363v16.125h-16.362c-5.28 0-9.575 4.296-9.575 9.575v16.362h-16.125v-16.362c0-5.279-4.295-9.575-9.575-9.575z"/></g></g></svg>