<svg id="Capa_1" enable-background="new 0 0 512 512" height="512" viewBox="0 0 512 512" width="512" xmlns="http://www.w3.org/2000/svg"><g><g><g><path d="m378.493 369.3h-298.8c-5.523 0-10-4.477-10-10v-341.8c0-5.523 4.477-10 10-10h298.8c5.523 0 10 4.477 10 10v341.8c0 5.523-4.477 10-10 10z" fill="#f6f1f1"/></g><g><path d="m170.053 417.91h118.08v34.92h-118.08z" fill="#e1761c"/></g><g><path d="m175.172 500.449 32.704-169.129h-43.734l-32.337 167.231c-.597 3.085 1.767 5.949 4.909 5.949h33.549c2.395 0 4.454-1.699 4.909-4.051z" fill="#e9a761"/></g><g><path d="m164.142 331.32-32.337 167.231c-.597 3.085 1.767 5.949 4.909 5.949h14.88c-3.142 0-5.506-2.864-4.909-5.949l20.951-108.351h28.854l11.385-58.88h-28.854z" fill="#e69642"/></g><g><path d="m283.014 500.449-32.704-169.129h43.734l32.337 167.231c.597 3.085-1.767 5.949-4.909 5.949h-33.549c-2.396 0-4.455-1.699-4.909-4.051z" fill="#e9a761"/></g><g><path d="m297.894 500.449-21.319-110.249h28.854l-11.385-58.88h-28.854-14.88l32.704 169.129c.455 2.352 2.514 4.051 4.909 4.051h14.88c-2.396 0-4.455-1.699-4.909-4.051z" fill="#e69642"/></g><g><path d="m388.493 93.389c-.857-.512-1.71-1.031-2.583-1.521-5.771-15.912-19.507-27.816-36.441-31.073l-20.269-3.899c-1.665-.32-3.368-.482-5.061-.482-8.012 0-15.537 3.546-20.645 9.728-5.105 6.18-7.166 14.239-5.652 22.117l3.897 20.265c3.257 16.934 15.162 30.67 31.073 36.441 5.955 10.613 13.601 20.076 22.812 28.219l32.868 29.053v-108.848z" fill="#e2dfe2"/></g><g><path d="m378.493 369.3c5.523 0 10-4.477 10-10v-37.589l-94.121-62.08c-3.34-2.203-7.672-2.203-11.012 0l-166.272 109.669z" fill="#77d192"/></g><g><path d="m94.893 359.3v-341.8c0-5.523 4.477-10 10-10h-25.2c-5.523 0-10 4.477-10 10v341.8c0 5.523 4.477 10 10 10h25.2c-5.523 0-10-4.477-10-10z" fill="#e2dfe2"/></g><g><path d="m283.36 259.632-166.272 109.668h36l153.778-101.428-12.494-8.241c-3.341-2.203-7.672-2.203-11.012.001z" fill="#5bc175"/></g><g><path d="m79.693 369.3h261.405l-166.272-109.668c-3.34-2.203-7.672-2.203-11.012 0l-94.121 62.08v37.588c0 5.523 4.477 10 10 10z" fill="#88f2a9"/></g><g><path d="m94.893 359.3v-26.97c0-2.182 1.096-4.218 2.918-5.42l89.509-59.038-12.494-8.241c-3.34-2.203-7.672-2.203-11.012 0l-94.121 62.08v37.589c0 5.523 4.477 10 10 10h25.2c-5.523 0-10-4.477-10-10z" fill="#77d192"/></g><g><path d="m364.555 109.199 2.443 1.102c10.842 4.889 20.523 12.025 28.4 20.937l44.412 50.244c3.5 3.959 3.315 9.958-.421 13.694l-3.269 3.269c-3.736 3.736-9.735 3.921-13.694.421l-50.244-44.412c-8.911-7.877-16.048-17.557-20.937-28.4l-1.102-2.443z" fill="#365f7e"/></g><g><path d="m364.555 109.199-1.278-5.81c-2.018-9.176-9.303-16.271-18.53-18.045l-20.264-3.897c-1.24-.238-2.329.851-2.091 2.091l3.897 20.264c1.774 9.226 8.869 16.512 18.045 18.53l5.81 1.278z" fill="#e58e82"/></g><g><path d="m229.093 209.887c-16.108 0-29.166-13.058-29.166-29.166 0-16.108 13.058-29.166 29.166-29.166 16.108 0 29.166 13.058 29.166 29.166 0 16.108-13.058 29.166-29.166 29.166z" fill="#fdcd08"/></g><g><path d="m214.234 180.721c0-13.639 9.364-25.089 22.012-28.279-2.289-.577-4.685-.887-7.154-.887-16.108 0-29.166 13.058-29.166 29.166 0 16.108 13.058 29.166 29.166 29.166 2.469 0 4.864-.31 7.154-.887-12.649-3.189-22.012-14.639-22.012-28.279z" fill="#faab18"/></g></g><g><path d="m69.693 192.02c4.142 0 7.5-3.358 7.5-7.5v-167.02c0-1.378 1.122-2.5 2.5-2.5h298.8c1.378 0 2.5 1.122 2.5 2.5v68.915c0 4.142 3.358 7.5 7.5 7.5s7.5-3.358 7.5-7.5v-68.915c0-9.649-7.851-17.5-17.5-17.5h-298.8c-9.649 0-17.5 7.851-17.5 17.5v167.02c0 4.142 3.358 7.5 7.5 7.5z"/><path d="m388.493 200.86c-4.142 0-7.5 3.358-7.5 7.5v99.42l-82.492-54.41c-5.854-3.86-13.417-3.86-19.271 0l-50.137 33.069-50.137-33.069c-5.854-3.861-13.418-3.861-19.271 0l-82.492 54.41v-88.86c0-4.142-3.358-7.5-7.5-7.5s-7.5 3.358-7.5 7.5v140.38c0 9.649 7.851 17.5 17.5 17.5h68.015l-23.267 120.328c-.71 3.676.249 7.44 2.632 10.328s5.897 4.544 9.641 4.544h33.549c5.976 0 11.137-4.259 12.272-10.126 0 0 0 0 0-.001l8.033-41.543h77.048l8.033 41.543c1.135 5.868 6.296 10.127 12.273 10.127h33.549c3.744 0 7.258-1.656 9.641-4.544s3.342-6.653 2.631-10.329l-23.266-120.327h30.6c.005 0 .009.001.014.001s.011-.001.016-.001h37.386c9.649 0 17.5-7.851 17.5-17.5v-150.94c0-4.142-3.358-7.5-7.5-7.5zm-311.3 158.44v-33.551l90.751-59.857c.836-.552 1.917-.552 2.752 0l145.409 95.908h-236.412c-1.378 0-2.5-1.122-2.5-2.5zm129.528 17.5h44.744l6.499 33.61h-57.742zm-38.521 120.2h-28.456l23.242-120.2h28.456zm25.269-51.67 3.852-19.92h63.543l3.852 19.92zm124.973 51.67h-28.456l-23.243-120.2h28.456zm60.051-135.2h-35.144l-100.634-66.375 44.774-29.532c.836-.551 1.917-.552 2.753 0l90.75 59.857v33.55c.001 1.378-1.121 2.5-2.499 2.5z"/><path d="m445.429 176.514-44.413-50.244c-8.393-9.495-18.469-16.989-29.938-22.324l-.476-2.167c-2.665-12.115-12.257-21.457-24.438-23.799l-20.263-3.896c-3.028-.582-6.14.371-8.321 2.552s-3.136 5.292-2.553 8.319l3.897 20.264c2.342 12.181 11.684 21.773 23.799 24.438l2.167.477c5.336 11.47 12.831 21.546 22.325 29.939l50.244 44.412c3.312 2.928 7.452 4.378 11.585 4.378 4.494 0 8.98-1.717 12.379-5.116l3.269-3.269c6.524-6.524 6.848-17.05.737-23.964zm-111.775-74.128-2.304-11.98 11.981 2.304c6.291 1.209 11.245 6.034 12.621 12.291l.396 1.799-8.604 8.604-1.799-.396c-6.257-1.377-11.081-6.331-12.291-12.622zm100.431 87.486-3.269 3.269c-.933.932-2.436.979-3.423.105l-50.245-44.412c-7.547-6.671-13.597-14.605-18.008-23.613l7.024-7.024c9.007 4.411 16.942 10.461 23.613 18.009l44.413 50.244c.873.986.827 2.49-.105 3.422z"/><path d="m265.759 180.722c0-20.218-16.448-36.666-36.666-36.666s-36.666 16.448-36.666 36.666c0 20.217 16.448 36.666 36.666 36.666s36.666-16.449 36.666-36.666zm-36.666 21.665c-11.947 0-21.666-9.719-21.666-21.666s9.719-21.666 21.666-21.666 21.666 9.719 21.666 21.666-9.719 21.666-21.666 21.666z"/><path d="m236.593 125.104v-5.862c0-4.142-3.358-7.5-7.5-7.5s-7.5 3.358-7.5 7.5v5.862c0 4.142 3.358 7.5 7.5 7.5s7.5-3.358 7.5-7.5z"/><path d="m221.593 236.339v5.862c0 4.142 3.358 7.5 7.5 7.5s7.5-3.358 7.5-7.5v-5.862c0-4.142-3.358-7.5-7.5-7.5s-7.5 3.358-7.5 7.5z"/><path d="m184.462 146.697c1.464 1.464 3.384 2.197 5.303 2.197s3.839-.732 5.303-2.197c2.929-2.929 2.929-7.678 0-10.606l-4.145-4.145c-2.929-2.929-7.678-2.929-10.606 0-2.929 2.929-2.929 7.678 0 10.606z"/><path d="m267.262 229.498c1.464 1.464 3.384 2.197 5.303 2.197s3.839-.732 5.303-2.197c2.929-2.929 2.929-7.678 0-10.606l-4.145-4.145c-2.929-2.929-7.678-2.929-10.606 0-2.929 2.929-2.929 7.678 0 10.606z"/><path d="m167.613 173.222c-4.142 0-7.5 3.358-7.5 7.5s3.358 7.5 7.5 7.5h5.862c4.142 0 7.5-3.358 7.5-7.5s-3.358-7.5-7.5-7.5z"/><path d="m290.573 188.222c4.142 0 7.5-3.358 7.5-7.5s-3.358-7.5-7.5-7.5h-5.862c-4.142 0-7.5 3.358-7.5 7.5s3.358 7.5 7.5 7.5z"/><path d="m185.62 231.694c1.919 0 3.839-.732 5.303-2.197l4.145-4.145c2.929-2.929 2.929-7.678 0-10.606-2.929-2.929-7.678-2.929-10.606 0l-4.145 4.145c-2.929 2.929-2.929 7.678 0 10.606 1.464 1.465 3.383 2.197 5.303 2.197z"/><path d="m273.724 146.697 4.145-4.145c2.929-2.929 2.929-7.678 0-10.606-2.929-2.929-7.678-2.929-10.606 0l-4.145 4.145c-2.929 2.929-2.929 7.678 0 10.606 1.464 1.464 3.384 2.197 5.303 2.197s3.838-.733 5.303-2.197z"/></g></g></svg>