<svg id="Capa_1" enable-background="new 0 0 512 512" height="512" viewBox="0 0 512 512" width="512" xmlns="http://www.w3.org/2000/svg"><g><g><path d="m422.233 504.5h-332.466c-8.837 0-16-7.163-16-16v-465c0-8.837 7.163-16 16-16h332.467c8.837 0 16 7.163 16 16v465c-.001 8.837-7.164 16-16.001 16z" fill="#f3ffff"/><path d="m405.1 371.967v-272.93c0-4.073-2.955-7.585-6.986-8.177-21.868-3.212-40.018-21.242-43.241-43.249-.59-4.028-4.106-6.978-8.177-6.978h-181.393c-4.071 0-7.587 2.95-8.177 6.978-3.223 22.007-21.372 40.037-43.241 43.249-4.03.592-6.986 4.104-6.986 8.177v272.93l149.101 17.647z" fill="#92b0ea"/><g><path d="m347.661 98.617c3.308 0 5.281 3.687 3.446 6.439l-9.316 13.973c-1.791 2.687-1.791 6.188 0 8.875l9.316 13.973c1.835 2.752-.138 6.439-3.446 6.439h-50.245c-4.575 0-8.283-3.709-8.283-8.283v-22.736h-66.267v22.736c0 4.575-3.709 8.283-8.283 8.283h-50.244c-3.308 0-5.281-3.687-3.446-6.439l9.316-13.973c1.791-2.687 1.791-6.188 0-8.875l-9.316-13.973c-1.835-2.752.138-6.439 3.446-6.439z" fill="#e59f4f"/><g fill="#e59f4f"><path d="m199.867 140.033c0 4.575-3.709 8.283-8.283 8.283h23c4.575 0 8.283-3.708 8.283-8.283v-22.736h-23z"/><path d="m341.792 127.904c-1.792-2.687-1.792-6.188 0-8.875l9.316-13.973c1.835-2.752-.138-6.439-3.446-6.439h-23c3.308 0 5.281 3.687 3.446 6.439l-9.316 13.973c-1.791 2.687-1.791 6.188 0 8.875l9.316 13.973c1.835 2.752-.138 6.439-3.446 6.439h23c3.308 0 5.281-3.687 3.446-6.439z"/></g><path d="m305.983 123.467h-99.967c-4.418 0-8-3.582-8-8v-33.7c0-4.418 3.582-8 8-8h99.967c4.418 0 8 3.582 8 8v33.7c0 4.418-3.581 8-8 8z" fill="#f6df59"/><path d="m305.983 73.767h-23c4.418 0 8 3.582 8 8v33.7c0 4.418-3.582 8-8 8h23c4.418 0 8-3.582 8-8v-33.7c0-4.419-3.581-8-8-8z" fill="#edbf50"/></g><g><path d="m164.883 371.967 8.284-74.55v-9.269h165.666v9.269l8.284 74.55v10.993h-182.234z" fill="#dc3d36"/><path d="m338.833 297.417v-9.269h-23v9.269l8.284 74.55v10.993h23v-10.993z" fill="#b13d49"/></g><path d="m289.133 371.967-8.283-74.55h-49.7l-8.283 74.55v7.429h66.266z" fill="#413e82"/><path d="m280.85 297.417h-23l8.283 74.55v7.429h23v-7.429z" fill="#2f2c59"/><path d="m422.233 7.5h-23c8.837 0 16 7.164 16 16v465c0 8.836-7.163 16-16 16h23c8.837 0 16-7.164 16-16v-465c0-8.836-7.163-16-16-16z" fill="#dff9f9"/><path d="m331.873 47.611c3.223 22.007 21.372 40.037 43.241 43.249 4.03.592 6.986 4.104 6.986 8.177v275.652l23-2.722v-272.93c0-4.073-2.955-7.585-6.986-8.177-21.868-3.212-40.018-21.242-43.241-43.249-.59-4.028-4.106-6.978-8.177-6.978h-23c4.071 0 7.587 2.951 8.177 6.978z" fill="#7691ea"/><path d="m113.886 421.14c21.868 3.211 40.018 21.241 43.241 43.249.59 4.028 4.106 6.978 8.177 6.978h181.394c4.07 0 7.587-2.95 8.177-6.978 3.223-22.007 21.373-40.037 43.241-43.249 4.03-.592 6.986-4.104 6.986-8.177v-40.996h-298.202v40.996c0 4.073 2.955 7.585 6.986 8.177z" fill="#f6df59"/><path d="m248 438.233h-50.267c-4.418 0-8-3.582-8-8v-17.133c0-4.418 3.582-8 8-8h50.267c4.418 0 8 3.582 8 8v17.133c0 4.419-3.582 8-8 8z" fill="#dc3d36"/><path d="m248 405.1h-23c4.418 0 8 3.582 8 8v17.133c0 4.418-3.582 8-8 8h23c4.418 0 8-3.582 8-8v-17.133c0-4.418-3.582-8-8-8z" fill="#b13d49"/><path d="m354.873 464.389c3.223-22.007 21.373-40.037 43.241-43.249 4.03-.592 6.986-4.104 6.986-8.177v-40.996h-23v40.996c0 4.073-2.955 7.585-6.986 8.177-21.868 3.211-40.018 21.241-43.241 43.249-.59 4.028-4.106 6.978-8.177 6.978h23c4.071 0 7.587-2.951 8.177-6.978z" fill="#edbf50"/><g><path d="m355.4 264.283-94.6-70.95c-2.844-2.133-6.756-2.133-9.6 0l-94.6 70.95 99.4 12.697z" fill="#dc3d36"/><path d="m251.2 193.333-6.7 5.025 87.9 65.925-87.9 11.228 11.5 1.469 99.4-12.697-94.6-70.95c-2.844-2.133-6.756-2.133-9.6 0z" fill="#b13d49"/><path d="m347.4 297.417h-182.8c-4.418 0-8-3.582-8-8v-25.133h198.8v25.133c0 4.418-3.582 8-8 8z" fill="#f3ffff"/><path d="m332.4 264.283v25.133c0 4.418-3.582 8-8 8h23c4.418 0 8-3.582 8-8v-25.133z" fill="#dff9f9"/></g></g><g><path d="m422.233 0h-332.466c-12.958 0-23.5 10.542-23.5 23.5v465c0 12.958 10.542 23.5 23.5 23.5h17.917c4.142 0 7.5-3.358 7.5-7.5s-3.358-7.5-7.5-7.5h-17.917c-4.687 0-8.5-3.813-8.5-8.5v-465c0-4.687 3.813-8.5 8.5-8.5h332.467c4.687 0 8.5 3.813 8.5 8.5v465c0 4.687-3.813 8.5-8.5 8.5h-284.55c-4.142 0-7.5 3.358-7.5 7.5s3.358 7.5 7.5 7.5h284.55c12.958 0 23.5-10.542 23.5-23.5v-465c-.001-12.958-10.543-23.5-23.501-23.5z"/><path d="m99.4 412.963c0 7.771 5.759 14.476 13.396 15.598 18.656 2.74 34.178 18.265 36.91 36.916 1.119 7.634 7.824 13.391 15.598 13.391h181.394c7.773 0 14.478-5.757 15.598-13.391 2.732-18.65 18.254-34.175 36.909-36.915 7.637-1.121 13.397-7.827 13.397-15.598v-313.927c0-7.771-5.759-14.476-13.396-15.598-18.656-2.74-34.178-18.265-36.91-36.916-1.119-7.634-7.824-13.391-15.598-13.391h-181.395c-7.773 0-14.479 5.757-15.598 13.391-2.731 18.65-18.254 34.175-36.909 36.915-7.637 1.123-13.396 7.829-13.396 15.599zm297.624.757c-25.055 3.679-45.903 24.532-49.572 49.582-.045.311-.385.565-.756.565h-181.393c-.371 0-.71-.254-.756-.565-3.669-25.05-24.517-45.903-49.572-49.582-.323-.047-.576-.38-.576-.757v-33.496h283.2v33.496c.001.377-.252.709-.575.757zm-141.024-214.612 76.9 57.675h-153.8zm-91.9 72.675h183.8v17.633c0 .276-.224.5-.5.5h-182.8c-.276 0-.5-.224-.5-.5zm110.037 33.134 6.616 59.55h-49.508l6.617-59.55zm21.709 59.55-6.616-59.55h42.891l6.617 59.55zm-73.076-59.55-6.617 59.55h-42.891l6.617-59.55zm-107.794-206.637c25.055-3.679 45.903-24.532 49.572-49.582.045-.312.385-.565.756-.565h181.394c.371 0 .71.254.756.565 3.669 25.05 24.517 45.903 49.572 49.582.323.047.576.38.576.757v265.43h-43.771l-6.616-59.55h.187c8.547 0 15.5-6.953 15.5-15.5 0 0-.003-25.14-.003-25.141-.003-2.313-1.074-4.551-2.997-5.993l-96.4-72.3v-29.383c0-4.142-3.358-7.5-7.5-7.5s-7.5 3.358-7.5 7.5v29.383l-96.4 72.3c-1.923 1.442-2.994 3.68-2.997 5.993 0 0-.003 25.141-.003 25.141 0 8.547 6.953 15.5 15.5 15.5h.187l-6.617 59.55h-43.772v-265.43c0-.377.253-.709.576-.757z"/><path d="m115.183 56.417c4.142 0 7.5-3.358 7.5-7.5s-3.358-7.5-7.5-7.5h-8.283c-4.142 0-7.5 3.358-7.5 7.5s3.358 7.5 7.5 7.5z"/><path d="m115.183 455.583h-8.283c-4.142 0-7.5 3.358-7.5 7.5s3.358 7.5 7.5 7.5h8.283c4.142 0 7.5-3.358 7.5-7.5s-3.358-7.5-7.5-7.5z"/><path d="m405.1 56.417c4.142 0 7.5-3.358 7.5-7.5s-3.358-7.5-7.5-7.5h-8.283c-4.142 0-7.5 3.358-7.5 7.5s3.358 7.5 7.5 7.5z"/><path d="m396.817 455.583c-4.142 0-7.5 3.358-7.5 7.5s3.358 7.5 7.5 7.5h8.283c4.142 0 7.5-3.358 7.5-7.5s-3.358-7.5-7.5-7.5z"/><path d="m164.153 123.467-9.501 14.251c-2.386 3.579-2.607 8.158-.578 11.951 2.03 3.792 5.962 6.148 10.264 6.148h50.245c8.703 0 15.783-7.081 15.783-15.784v-9.066h51.267v9.066c0 8.703 7.08 15.784 15.783 15.784h50.245c4.302 0 8.234-2.356 10.264-6.148 2.03-3.793 1.809-8.372-.578-11.951l-9.5-14.251 9.5-14.251c2.386-3.579 2.607-8.158.578-11.951-2.03-3.792-5.963-6.148-10.265-6.148h-26.178v-9.35c0-8.547-6.953-15.5-15.5-15.5h-53.117c-4.142 0-7.5 3.358-7.5 7.5s3.358 7.5 7.5 7.5h53.117c.276 0 .5.224.5.5v33.7c0 .276-.224.5-.5.5h-99.967c-.276 0-.5-.224-.5-.5v-33.7c0-.276.224-.5.5-.5h16.85c4.142 0 7.5-3.358 7.5-7.5s-3.358-7.5-7.5-7.5h-16.85c-8.547 0-15.5 6.953-15.5 15.5v9.35h-26.178c-4.302 0-8.235 2.356-10.265 6.148-2.029 3.793-1.808 8.372.578 11.951zm157.33-8v-9.35h19.903l-8.793 13.19c-1.68 2.519-1.68 5.801 0 8.32l8.793 13.19h-43.97c-.432 0-.783-.352-.783-.784v-9.066h9.35c8.547 0 15.5-6.953 15.5-15.5zm-142.076 3.84-8.793-13.19h19.903v9.35c0 8.547 6.953 15.5 15.5 15.5h9.35v9.066c0 .432-.352.784-.783.784h-43.97l8.793-13.19c1.679-2.519 1.679-5.801 0-8.32z"/><path d="m248 397.6h-50.267c-8.547 0-15.5 6.953-15.5 15.5v17.133c0 8.547 6.953 15.5 15.5 15.5h50.267c8.547 0 15.5-6.953 15.5-15.5v-17.133c0-8.547-6.953-15.5-15.5-15.5zm.5 32.633c0 .276-.224.5-.5.5h-50.267c-.276 0-.5-.224-.5-.5v-17.133c0-.276.224-.5.5-.5h50.267c.276 0 .5.224.5.5z"/><path d="m338.833 397.6h-49.7c-4.142 0-7.5 3.358-7.5 7.5s3.358 7.5 7.5 7.5h49.7c4.142 0 7.5-3.358 7.5-7.5s-3.357-7.5-7.5-7.5z"/><path d="m305.7 430.733h-16.567c-4.142 0-7.5 3.358-7.5 7.5s3.358 7.5 7.5 7.5h16.567c4.142 0 7.5-3.358 7.5-7.5s-3.358-7.5-7.5-7.5z"/></g></g></svg>