<svg id="Capa_1" enable-background="new 0 0 512 512" height="512" viewBox="0 0 512 512" width="512" xmlns="http://www.w3.org/2000/svg"><g><g><g><path d="m156.6 106.9c-20.817 10.409-35.397 30.149-39.223 53.107l-2.744 16.463c-4.706 28.237 7.585 56.609 31.404 72.488l10.563 7.042 99.4 16.343 99.4-16.343 10.563-7.042c23.819-15.879 36.11-44.251 31.404-72.488l-2.744-16.463c-3.826-22.958-18.406-42.698-39.223-53.107l-99.4-16.567z" fill="#dff8fa"/><path d="m397.367 176.47-2.744-16.463c-3.826-22.958-18.406-42.698-39.223-53.107l-99.4-16.567-11.5 1.917 87.9 14.65c20.817 10.409 35.397 30.149 39.223 53.107l2.744 16.463c4.706 28.237-7.586 56.609-31.404 72.488l-10.563 7.042-87.9 14.452 11.5 1.891 99.4-16.343 10.563-7.042c23.818-15.879 36.11-44.251 31.404-72.488z" fill="#c3f2f7"/></g><path d="m365.942 371.967-10.542-115.967h-198.8l-10.543 115.967v79.548h219.885z" fill="#dc3d36"/><path d="m365.942 451.515v-79.548l-10.542-115.967h-23l16.566 182.233v13.282z" fill="#b13d49"/><circle cx="181.449" cy="231.15" fill="#924af5" r="24.85"/><circle cx="231.15" cy="231.15" fill="#92b0ea" r="24.85"/><circle cx="206.299" cy="181.45" fill="#9eea4a" r="24.85"/><circle cx="255.999" cy="181.45" fill="#e28bd2" r="24.85"/><circle cx="305.699" cy="181.45" fill="#924af5" r="24.85"/><circle cx="280.849" cy="231.15" fill="#9eea4a" r="24.85"/><circle cx="330.549" cy="231.15" fill="#e28bd2" r="24.85"/><g><path d="m347.116 73.767-2.009-8.036c-3.687-14.75-16.94-25.097-32.144-25.097h-113.927c-15.204 0-28.457 10.347-32.144 25.097l-2.009 8.036 91.117 16.567z" fill="#dc3d36"/><ellipse cx="255.999" cy="24.067" fill="#f6df59" rx="16.567" ry="16.567" transform="matrix(.23 -.973 .973 .23 173.76 267.688)"/><path d="m345.107 65.731c-3.688-14.75-16.94-25.097-32.144-25.097h-23c15.204 0 28.456 10.347 32.144 25.097l2.009 8.036-79.617 14.476 11.5 2.091 91.117-16.567z" fill="#b13d49"/><path d="m363.966 106.9h-215.933c-4.418 0-8-3.582-8-8v-9.133c0-8.837 7.163-16 16-16h199.934c8.836 0 16 7.163 16 16v9.133c-.001 4.418-3.582 8-8.001 8z" fill="#f6df59"/><g fill="#edbf50"><path d="m255.999 7.5c-4.471 0-8.52 1.779-11.5 4.657 3.119 3.013 5.067 7.23 5.067 11.91 0 4.679-1.947 8.897-5.067 11.909 2.98 2.878 7.029 4.657 11.5 4.657 9.149 0 16.567-7.417 16.567-16.567 0-9.149-7.417-16.566-16.567-16.566z"/><path d="m355.966 73.767h-23c8.836 0 16 7.164 16 16v9.133c0 4.418-3.582 8-8 8h23c4.418 0 8-3.582 8-8v-9.133c0-8.837-7.163-16-16-16z"/></g></g><g><path d="m297.416 363.683c0 22.874-18.543 41.417-41.417 41.417s-41.417-18.543-41.417-41.417l41.417-12.683z" fill="#f6df59"/><path d="m255.999 351-11.5 3.522 29.917 9.162c0 18.882-12.64 34.801-29.917 39.786 3.653 1.054 7.508 1.63 11.5 1.63 22.874 0 41.417-18.543 41.417-41.417z" fill="#edbf50"/><path d="m222.866 336.55v-14.284c0-18.299 14.834-33.133 33.133-33.133s33.133 14.834 33.133 33.133v14.284z" fill="#413e82"/><path d="m255.999 289.133c-4.044 0-7.917.727-11.5 2.053 12.63 4.675 21.633 16.825 21.633 31.08v14.284h23v-14.284c.001-18.299-14.833-33.133-33.133-33.133z" fill="#2f2c59"/><path d="m214.583 330.55c-9.149 0-16.567 7.417-16.567 16.567s7.417 16.567 16.567 16.567h83.828c9.149 0 16.567-7.417 16.567-16.567s-7.417-16.567-16.567-16.567z" fill="#f3ffff"/><path d="m298.411 330.55h-23c9.149 0 16.567 7.417 16.567 16.567s-7.417 16.567-16.567 16.567h23c9.149 0 16.567-7.417 16.567-16.567s-7.418-16.567-16.567-16.567z" fill="#dff9f9"/></g><path d="m189.733 411.402c0-13.766-8.512-26.098-21.383-30.979l-22.293-8.456-6.024 66.267v13.281h49.7z" fill="#f3ffff"/><path d="m343.649 380.423c-12.871 4.882-21.383 17.214-21.383 30.979v40.113h49.7v-13.281l-6.024-66.267z" fill="#f3ffff"/><path d="m365.942 371.967-22.233 8.433 5.257 57.833v13.282h23v-13.282z" fill="#dff9f9"/><g><path d="m405.099 471.367-5.146-20.585c-1.844-7.375-8.47-12.549-16.072-12.549h-255.763c-7.602 0-14.228 5.174-16.072 12.549l-5.146 20.585v12.94h298.2v-12.94z" fill="#f6df59"/><path d="m399.953 450.782c-1.844-7.375-8.47-12.549-16.072-12.549h-23c7.602 0 14.228 5.174 16.072 12.549l5.146 20.585v12.94h23v-12.94z" fill="#edbf50"/><path d="m106.9 471.367c-9.149 0-16.567 7.417-16.567 16.567s7.417 16.567 16.567 16.567h298.2c9.15 0 16.567-7.417 16.567-16.567 0-9.149-7.417-16.567-16.567-16.567z" fill="#f3ffff"/><path d="m405.099 471.367h-23c9.15 0 16.567 7.417 16.567 16.567s-7.417 16.567-16.567 16.567h23c9.15 0 16.567-7.417 16.567-16.567s-7.417-16.567-16.567-16.567z" fill="#dff9f9"/></g><path d="m305.699 156.6c-4.151 0-8.061 1.023-11.5 2.823 7.933 4.15 13.35 12.454 13.35 22.027s-5.417 17.877-13.35 22.027c3.439 1.799 7.349 2.823 11.5 2.823 13.724 0 24.85-11.126 24.85-24.85s-11.125-24.85-24.85-24.85z" fill="#7536f9"/><path d="m255.999 156.6c-4.151 0-8.061 1.023-11.5 2.823 7.933 4.15 13.35 12.454 13.35 22.027s-5.417 17.877-13.35 22.027c3.439 1.799 7.349 2.823 11.5 2.823 13.724 0 24.85-11.126 24.85-24.85s-11.125-24.85-24.85-24.85z" fill="#de6fba"/><path d="m206.299 156.6c-4.151 0-8.061 1.023-11.5 2.823 7.933 4.15 13.35 12.454 13.35 22.027s-5.417 17.877-13.35 22.027c3.439 1.799 7.349 2.823 11.5 2.823 13.724 0 24.85-11.126 24.85-24.85s-11.125-24.85-24.85-24.85z" fill="#7fdc3f"/><path d="m330.549 206.3c-4.151 0-8.06 1.023-11.5 2.823 7.933 4.15 13.35 12.454 13.35 22.027 0 9.574-5.417 17.877-13.35 22.028 3.44 1.799 7.349 2.822 11.5 2.822 13.724 0 24.85-11.126 24.85-24.85.001-13.724-11.125-24.85-24.85-24.85z" fill="#de6fba"/><path d="m280.849 206.3c-4.151 0-8.06 1.023-11.5 2.823 7.933 4.15 13.35 12.454 13.35 22.027 0 9.574-5.417 17.877-13.35 22.028 3.44 1.799 7.349 2.822 11.5 2.822 13.724 0 24.85-11.126 24.85-24.85s-11.125-24.85-24.85-24.85z" fill="#7fdc3f"/><path d="m231.15 206.3c-4.151 0-8.061 1.023-11.5 2.823 7.933 4.15 13.35 12.454 13.35 22.027 0 9.574-5.417 17.877-13.35 22.028 3.439 1.799 7.349 2.822 11.5 2.822 13.724 0 24.85-11.126 24.85-24.85-.001-13.724-11.126-24.85-24.85-24.85z" fill="#7691ea"/><path d="m181.449 206.3c-4.151 0-8.061 1.023-11.5 2.823 7.933 4.15 13.35 12.454 13.35 22.027 0 9.574-5.417 17.877-13.35 22.028 3.439 1.799 7.349 2.822 11.5 2.822 13.724 0 24.85-11.126 24.85-24.85s-11.125-24.85-24.85-24.85z" fill="#7536f9"/></g><g><path d="m411.148 464.638-3.918-15.675c-2.684-10.733-12.285-18.229-23.349-18.229h-5.066l-15.542-170.968 6.85-4.567c26.226-17.483 39.824-48.87 34.642-79.962l-2.743-16.463c-3.174-19.043-13.164-36.182-27.707-48.366 3.154-2.839 5.152-6.939 5.152-11.507v-9.134c0-12.958-10.542-23.5-23.5-23.5h-2.994l-.589-2.356c-4.531-18.122-20.741-30.778-39.42-30.778h-34.676c1.143-2.8 1.779-5.86 1.779-9.066-.001-13.271-10.797-24.067-24.068-24.067s-24.066 10.796-24.066 24.066c0 3.206.635 6.266 1.779 9.066h-34.676c-18.679 0-34.889 12.656-39.42 30.778l-.589 2.356h-2.994c-12.958 0-23.5 10.542-23.5 23.5v9.134c0 4.568 1.998 8.668 5.152 11.507-14.542 12.184-24.532 29.323-27.706 48.366l-2.744 16.463c-5.183 31.092 8.416 62.479 34.642 79.962l6.85 4.567-1.975 21.728c-.375 4.125 2.665 7.773 6.79 8.147 4.114.381 7.772-2.665 8.147-6.79l1.76-19.351h185.103l9.406 103.474-16.969 6.437c-15.685 5.949-26.223 21.217-26.223 37.992v19.331h-117.533v-19.331c0-16.775-10.538-32.043-26.223-37.992l-16.968-6.437 4.924-54.157c.375-4.125-2.665-7.772-6.79-8.147-4.119-.378-7.773 2.664-8.147 6.79l-10.844 119.274h-5.066c-11.064 0-20.664 7.496-23.348 18.229l-3.919 15.675c-10.352 2.69-18.018 12.114-18.018 23.296 0 13.271 10.795 24.067 24.066 24.067h18.133c4.143 0 7.5-3.357 7.5-7.5s-3.357-7.5-7.5-7.5h-18.133c-4.999 0-9.066-4.067-9.066-9.066s4.067-9.066 9.066-9.066h298.171c.008 0 .015.002.022.002s.013-.001.02-.001c4.994.008 9.054 4.071 9.054 9.066 0 4.999-4.067 9.066-9.067 9.066h-250.067c-4.143 0-7.5 3.357-7.5 7.5s3.357 7.5 7.5 7.5h250.066c13.271 0 24.067-10.796 24.067-24.066.001-11.184-7.666-20.607-18.018-23.297zm-247.049-233.488c0-9.567 7.783-17.351 17.351-17.351 9.566 0 17.35 7.783 17.35 17.351 0 9.566-7.783 17.35-17.35 17.35-9.568 0-17.351-7.783-17.351-17.35zm141.601-32.35c-9.567 0-17.351-7.783-17.351-17.35s7.783-17.351 17.351-17.351c9.566 0 17.35 7.783 17.35 17.351-.001 9.567-7.784 17.35-17.35 17.35zm-49.701 0c-9.566 0-17.35-7.783-17.35-17.35s7.783-17.351 17.35-17.351 17.35 7.783 17.35 17.351c0 9.567-7.783 17.35-17.35 17.35zm-49.7 0c-9.566 0-17.35-7.783-17.35-17.35s7.783-17.351 17.35-17.351 17.351 7.783 17.351 17.351c0 9.567-7.783 17.35-17.351 17.35zm7.5 32.35c0-9.567 7.783-17.351 17.351-17.351 9.566 0 17.35 7.783 17.35 17.351 0 9.566-7.783 17.35-17.35 17.35s-17.351-7.783-17.351-17.35zm49.701 0c0-9.567 7.783-17.351 17.35-17.351s17.351 7.783 17.351 17.351c0 9.566-7.783 17.35-17.351 17.35-9.567 0-17.35-7.783-17.35-17.35zm49.7 0c0-9.567 7.783-17.351 17.35-17.351s17.351 7.783 17.351 17.351c0 9.566-7.783 17.35-17.351 17.35-9.567 0-17.35-7.783-17.35-17.35zm-66.267-207.084c0-4.999 4.067-9.066 9.066-9.066s9.066 4.067 9.066 9.066-4.067 9.066-9.066 9.066c-4.998.001-9.066-4.067-9.066-9.066zm-47.897 24.067h113.928c11.334 0 21.208 7.397 24.488 18.134h-162.905c3.282-10.738 13.155-18.134 24.489-18.134zm-51.503 41.634c0-4.687 3.814-8.5 8.5-8.5h8.879 191.055c4.686 0 8.5 3.813 8.5 8.5v9.133c0 .275-.225.5-.5.5h-215.934c-.275 0-.5-.225-.5-.5zm-25.503 87.936 2.745-16.463c3.326-19.955 15.854-37.341 33.653-46.84h195.144c17.799 9.499 30.327 26.885 33.653 46.84l2.744 16.463c4.214 25.279-6.843 50.799-28.166 65.015l-1.423.949c1.622-3.852 2.521-8.081 2.521-12.516 0-17.04-13.246-31.035-29.979-32.254 3.24-5.038 5.129-11.023 5.129-17.446 0-17.838-14.512-32.351-32.35-32.351-9.977 0-18.911 4.543-24.85 11.665-5.939-7.122-14.873-11.665-24.85-11.665s-18.911 4.543-24.85 11.665c-5.939-7.122-14.873-11.665-24.85-11.665-17.838 0-32.35 14.513-32.35 32.351 0 6.422 1.889 12.408 5.129 17.446-16.734 1.219-29.979 15.215-29.979 32.254 0 4.435.899 8.664 2.521 12.516l-1.424-.949c-21.324-14.216-32.381-39.736-28.168-65.015zm207.736 233.699c0-10.582 6.647-20.214 16.543-23.967l13.059-4.953 4.386 48.251h-33.988zm-177.134-28.92 13.058 4.953c9.896 3.753 16.543 13.385 16.543 23.967v19.331h-33.988zm-24.514 63.251h255.764c4.168 0 7.785 2.824 8.796 6.867l2.816 11.267h-278.988l2.816-11.266c1.012-4.043 4.628-6.868 8.796-6.868z"/><path d="m255.999 281.633c-22.405 0-40.633 18.228-40.633 40.634v.783h-.784c-13.271 0-24.066 10.797-24.066 24.067 0 10.814 7.169 19.982 17.004 23.007 3.164 23.938 23.691 42.475 48.48 42.475 24.687 0 45.149-18.386 48.442-42.182 10.361-2.684 18.035-12.112 18.035-23.301 0-13.27-10.796-24.067-24.066-24.067h-1.778v-.783c-.001-22.405-18.228-40.633-40.634-40.633zm-25.632 40.634c0-14.135 11.499-25.634 25.633-25.634s25.633 11.499 25.633 25.634v.783h-51.266zm25.632 75.333c-16.124 0-29.647-11.313-33.071-26.416h66.142c-3.424 15.102-16.946 26.416-33.071 26.416zm51.478-50.483c0 4.999-4.067 9.066-9.066 9.066h-83.828c-4.999 0-9.066-4.067-9.066-9.066 0-5 4.067-9.067 9.066-9.067h83.828c4.999 0 9.066 4.067 9.066 9.067z"/></g></g></svg>