<svg id="Capa_1" enable-background="new 0 0 512 512" height="512" viewBox="0 0 512 512" width="512" xmlns="http://www.w3.org/2000/svg"><g><g><g><path d="m64.3 54.76h383.4v33.48h-383.4z" fill="#365f7e"/></g><g><path d="m64.3 54.76h41.74v33.48h-41.74z" fill="#2c4d66"/></g><g><path d="m178.92 124.06h-25.28c-11.046 0-20-8.954-20-20v-65.12c0-11.046 8.954-20 20-20h25.28c11.046 0 20 8.954 20 20v65.12c0 11.045-8.954 20-20 20z" fill="#fdcd08"/></g><g><path d="m152.1 104.06v-65.12c0-11.046 8.954-20 20-20h-18.46c-11.046 0-20 8.954-20 20v65.12c0 11.046 8.954 20 20 20h18.46c-11.046 0-20-8.954-20-20z" fill="#faab18"/></g><g><path d="m244.2 124.06h-25.28c-11.046 0-20-8.954-20-20v-65.12c0-11.046 8.954-20 20-20h25.28c11.046 0 20 8.954 20 20v65.12c0 11.045-8.954 20-20 20z" fill="#fdcd08"/></g><g><path d="m217.38 104.06v-65.12c0-11.046 8.954-20 20-20h-18.46c-11.046 0-20 8.954-20 20v65.12c0 11.046 8.954 20 20 20h18.46c-11.046 0-20-8.954-20-20z" fill="#faab18"/></g><g><path d="m64.3 191.7h383.4v33.48h-383.4z" fill="#365f7e"/></g><g><path d="m64.3 191.7h41.74v33.48h-41.74z" fill="#2c4d66"/></g><g><path d="m217.38 261h-25.28c-11.046 0-20-8.954-20-20v-65.12c0-11.046 8.954-20 20-20h25.28c11.046 0 20 8.954 20 20v65.12c0 11.045-8.954 20-20 20z" fill="#e58e82"/></g><g><path d="m190.56 241v-65.12c0-11.046 8.954-20 20-20h-18.46c-11.046 0-20 8.954-20 20v65.12c0 11.046 8.954 20 20 20h18.46c-11.046 0-20-8.955-20-20z" fill="#e06c57"/></g><g><path d="m333.12 261h-25.28c-11.046 0-20-8.954-20-20v-65.12c0-11.046 8.954-20 20-20h25.28c11.046 0 20 8.954 20 20v65.12c0 11.045-8.954 20-20 20z" fill="#e58e82"/></g><g><path d="m306.3 241v-65.12c0-11.046 8.954-20 20-20h-18.46c-11.046 0-20 8.954-20 20v65.12c0 11.046 8.954 20 20 20h18.46c-11.046 0-20-8.955-20-20z" fill="#e06c57"/></g><g><path d="m64.3 328.64h383.4v33.48h-383.4z" fill="#365f7e"/></g><g><path d="m64.3 328.64h41.74v33.48h-41.74z" fill="#2c4d66"/></g><g><path d="m300.58 397.94h-25.28c-11.046 0-20-8.954-20-20v-65.12c0-11.046 8.954-20 20-20h25.28c11.046 0 20 8.954 20 20v65.12c0 11.045-8.954 20-20 20z" fill="#77d192"/></g><g><path d="m273.76 377.94v-65.12c0-11.046 8.954-20 20-20h-18.46c-11.046 0-20 8.954-20 20v65.12c0 11.046 8.954 20 20 20h18.46c-11.046 0-20-8.955-20-20z" fill="#5bc175"/></g><g><path d="m365.86 397.94h-25.28c-11.046 0-20-8.954-20-20v-65.12c0-11.046 8.954-20 20-20h25.28c11.046 0 20 8.954 20 20v65.12c0 11.045-8.954 20-20 20z" fill="#77d192"/></g><g><path d="m339.04 377.94v-65.12c0-11.046 8.954-20 20-20h-18.46c-11.046 0-20 8.954-20 20v65.12c0 11.046 8.954 20 20 20h18.46c-11.046 0-20-8.955-20-20z" fill="#5bc175"/></g><g><path d="m190.18 397.94h-25.28c-11.046 0-20-8.954-20-20v-65.12c0-11.046 8.954-20 20-20h25.28c11.046 0 20 8.954 20 20v65.12c0 11.045-8.954 20-20 20z" fill="#77d192"/></g><g><path d="m163.36 377.94v-65.12c0-11.046 8.954-20 20-20h-18.46c-11.046 0-20 8.954-20 20v65.12c0 11.046 8.954 20 20 20h18.46c-11.046 0-20-8.955-20-20z" fill="#5bc175"/></g><g><path d="m81.4 460.12h-46.08v-442.62c0-5.523 4.477-10 10-10h26.08c5.523 0 10 4.477 10 10z" fill="#e9a761"/></g><g><path d="m61.16 7.5h-15.84c-5.523 0-10 4.477-10 10v442.62h15.84v-442.62c0-5.523 4.477-10 10-10z" fill="#e69642"/></g><g><path d="m476.68 460.12h-46.08v-442.62c0-5.523 4.477-10 10-10h26.08c5.523 0 10 4.477 10 10z" fill="#e9a761"/></g><g><path d="m456.44 7.5h-15.84c-5.523 0-10 4.477-10 10v442.62h15.84v-442.62c0-5.523 4.477-10 10-10z" fill="#e69642"/></g><g><path d="m494.5 504.5h-477c-5.523 0-10-4.477-10-10v-41.282c0-5.523 4.477-10 10-10h477c5.523 0 10 4.477 10 10v41.282c0 5.523-4.477 10-10 10z" fill="#e1761c"/></g><g><path d="m33.42 494.5v-41.282c0-5.523 4.477-10 10-10h-25.92c-5.523 0-10 4.477-10 10v41.282c0 5.523 4.477 10 10 10h25.92c-5.523 0-10-4.477-10-10z" fill="#d76718"/></g></g><path d="m494.5 435.718h-10.32v-297.838c0-4.143-3.358-7.5-7.5-7.5s-7.5 3.357-7.5 7.5v297.838h-31.08v-418.218c0-1.379 1.122-2.5 2.5-2.5h26.08c1.378 0 2.5 1.121 2.5 2.5v85.5c0 4.143 3.358 7.5 7.5 7.5s7.5-3.357 7.5-7.5v-85.5c0-9.649-7.851-17.5-17.5-17.5h-26.08c-9.649 0-17.5 7.851-17.5 17.5v29.76h-151.4v-8.32c0-15.163-12.336-27.5-27.5-27.5h-25.28c-7.875 0-14.982 3.333-20 8.655-5.018-5.323-12.125-8.655-20-8.655h-25.28c-15.164 0-27.5 12.337-27.5 27.5v8.32h-37.24v-29.76c0-9.649-7.851-17.5-17.5-17.5h-26.08c-9.649 0-17.5 7.851-17.5 17.5v238.859c0 4.143 3.358 7.5 7.5 7.5s7.5-3.357 7.5-7.5v-238.859c0-1.379 1.122-2.5 2.5-2.5h26.08c1.378 0 2.5 1.121 2.5 2.5v418.218h-31.08v-142.899c0-4.143-3.358-7.5-7.5-7.5s-7.5 3.357-7.5 7.5v142.898h-10.32c-9.649 0-17.5 7.851-17.5 17.5v41.283c0 9.649 7.851 17.5 17.5 17.5h477c9.649 0 17.5-7.851 17.5-17.5v-41.282c0-9.65-7.851-17.5-17.5-17.5zm-166.42-122.899c0-6.893 5.607-12.5 12.5-12.5h25.28c6.893 0 12.5 5.607 12.5 12.5v65.12c0 6.893-5.607 12.5-12.5 12.5h-25.28c-6.893 0-12.5-5.607-12.5-12.5zm37.78-27.5h-25.28c-7.875 0-14.982 3.333-20 8.655-5.018-5.323-12.125-8.655-20-8.655h-25.28c-15.164 0-27.5 12.337-27.5 27.5v8.32h-30.12v-8.32c0-15.163-12.336-27.5-27.5-27.5h-25.28c-15.164 0-27.5 12.337-27.5 27.5v8.32h-48.5v-88.46h75.7v8.321c0 15.163 12.336 27.5 27.5 27.5h25.28c15.164 0 27.5-12.337 27.5-27.5v-8.32h35.46v8.32c0 15.163 12.336 27.5 27.5 27.5h25.28c15.164 0 27.5-12.337 27.5-27.5v-8.32h62.48v88.46h-29.74v-8.32c0-15.164-12.337-27.501-27.5-27.501zm-52.78 92.62c0 6.893-5.607 12.5-12.5 12.5h-25.28c-6.893 0-12.5-5.607-12.5-12.5v-65.12c0-6.893 5.607-12.5 12.5-12.5h25.28c6.893 0 12.5 5.607 12.5 12.5zm-65.28-23.319h-30.12v-18.48h30.12zm-45.12-41.801v65.12c0 6.893-5.607 12.5-12.5 12.5h-25.28c-6.893 0-12.5-5.607-12.5-12.5v-65.12c0-6.893 5.607-12.5 12.5-12.5h25.28c6.892 0 12.5 5.608 12.5 12.5zm-65.28 41.801h-48.5v-18.48h48.5zm27.2-136.94h-75.7v-18.48h75.7zm15 23.32v-65.12c0-6.893 5.607-12.5 12.5-12.5h25.28c6.893 0 12.5 5.607 12.5 12.5v65.12c0 6.893-5.607 12.5-12.5 12.5h-25.28c-6.893 0-12.5-5.607-12.5-12.5zm65.28-41.8h35.46v18.479h-35.46zm50.46 41.8v-65.12c0-6.893 5.607-12.5 12.5-12.5h25.28c6.893 0 12.5 5.607 12.5 12.5v65.12c0 6.893-5.607 12.5-12.5 12.5h-25.28c-6.893 0-12.5-5.607-12.5-12.5zm65.28-41.8h62.48v18.479h-62.48zm32.74 136.94h29.74v18.48h-29.74zm29.74-273.88v18.48h-151.4v-18.48zm-204.18-35.821h25.28c6.893 0 12.5 5.607 12.5 12.5v65.12c0 6.893-5.607 12.5-12.5 12.5h-25.28c-6.893 0-12.5-5.607-12.5-12.5v-65.12c0-6.892 5.607-12.5 12.5-12.5zm-77.78 12.5c0-6.893 5.607-12.5 12.5-12.5h25.28c6.893 0 12.5 5.607 12.5 12.5v65.12c0 6.893-5.607 12.5-12.5 12.5h-25.28c-6.893 0-12.5-5.607-12.5-12.5zm12.5 92.621h25.28c7.875 0 14.982-3.333 20-8.655 5.018 5.323 12.125 8.655 20 8.655h25.28c15.164 0 27.5-12.337 27.5-27.5v-8.32h151.4v88.46h-62.48v-8.32c0-15.163-12.336-27.5-27.5-27.5h-25.28c-15.164 0-27.5 12.337-27.5 27.5v8.32h-35.46v-8.32c0-15.163-12.336-27.5-27.5-27.5h-25.28c-15.164 0-27.5 12.337-27.5 27.5v8.32h-75.7v-88.46h37.24v8.319c0 15.164 12.336 27.501 27.5 27.501zm-27.5-69.3v18.48h-37.24v-18.48zm370.86 432.24c0 1.379-1.122 2.5-2.5 2.5h-477c-1.378 0-2.5-1.121-2.5-2.5v-41.282c0-1.379 1.122-2.5 2.5-2.5h153.06c4.142 0 7.5-3.357 7.5-7.5s-3.358-7.5-7.5-7.5h-81.66v-66.098h48.5v8.319c0 15.163 12.336 27.5 27.5 27.5h25.28c15.164 0 27.5-12.337 27.5-27.5v-8.319h30.12v8.319c0 15.163 12.336 27.5 27.5 27.5h25.28c7.875 0 14.982-3.333 20-8.655 5.018 5.323 12.125 8.655 20 8.655h25.28c15.164 0 27.5-12.337 27.5-27.5v-8.319h29.74v66.098h-216.538c-4.142 0-7.5 3.357-7.5 7.5s3.358 7.5 7.5 7.5h287.938c1.378 0 2.5 1.121 2.5 2.5z"/></g></svg>