<svg id="Capa_1" enable-background="new 0 0 512 512" height="512" viewBox="0 0 512 512" width="512" xmlns="http://www.w3.org/2000/svg"><g><g><path d="m447.82 312.852c0-12.575-1.211-24.867-3.524-36.765 0 0-3.555-5.058-4.018-6.96-5.951-24.475-15.681-45.761-29.872-65.745-5.469-7.701-9.553-16.454-16.072-23.251-34.818-36.299-83.799-58.884-138.119-58.884-105.821 0-185.638 85.785-185.638 191.605 0 45.63 14.988 85.368 41.617 118.275 35.127 43.409 83.831 73.33 144.021 73.33 1.936 0 3.61-.22 5.532-.277 1.78-.053 5.576-.04 5.576-.04 100.651-5.753 180.497-89.196 180.497-191.288z" fill="#7dc3ee"/><path d="m267.323 504.141c-3.83.23-7.654.402-11.534.402-87.474 0-160.898-58.611-183.729-138.711 0 0 .51-1.334.367-1.853l-2.319-37.745-5.901-14.048c0-.009-.027-.021-.027-.021.341-87.034 58.713-160.37 138.429-183.352-67.92 30.12-115.43 99.29-115.43 179.82 0 104.27 79.654 189.468 180.144 195.508z" fill="#64acdc"/><g fill="#afefa5"><path d="m444.296 276.087h-23.571c-7.91 0-15.65-1.57-22.81-4.54s-13.75-7.33-19.34-12.92c-2.16-2.17-4.72-3.87-7.5-5.02s-5.78-1.76-8.85-1.76c-6.13 0-12.02 2.44-16.35 6.78l-14.91 14.9c-3.53 3.53-7.68 6.28-12.19 8.15-4.52 1.87-9.4 2.86-14.39 2.86-3.67 0-7.27-.73-10.61-2.11-3.32-1.38-6.38-3.41-8.98-6.01-6.06-6.06-10.8-13.2-14.02-20.97s-4.92-16.17-4.92-24.74c0-8.36 3.39-15.93 8.87-21.41s13.05-8.87 21.42-8.87c3.07 0 6.07-.61 8.85-1.76s5.34-2.85 7.51-5.02c4.25-4.25 17.56-32.82 26.44-53.66 53.78 25.77 93.661 75.9 105.351 136.1z"/><path d="m285.681 416.75c-8.176-7.186-11.933-18.192-11.735-29.075-2.125-18.006 11.239-36.1 30.123-35.684 20.441 0 40.045-8.12 54.499-22.574 5.127-5.836 11.935-10.799 20.042-10.533 12.678 0 22.956 10.278 22.956 22.956 2.437 25.703-6.778 37.263-18.031 58.624-15.435 25.459-67.938 42.58-97.854 16.286z"/><path d="m223.195 368.387c0 32.73-5.28 55.2-31.41 53.89-11.7-.58-22.64-5.96-30.65-14.51l-23.1-24.68c-7.66-8.19-18.05-13.31-29.21-14.4l-12.762-.92-22.677-3.214c-4.86-16.86-5.613-49.559-6.809-50.532 0 0 12.809-19.416 21.985-25.11 9.822-6.094 20.968-10.011 32.684-11.324l72.77 11.39 7.17-3.14c8.67-3.79 18.64-3.83 27.12.38 7.3 3.62 14.4 10.63 17.9 24.13 6.858 26.44-23.011 26.02-23.011 58.04z"/></g><g><path d="m96.062 367.768-23.975-1.843c-.61-2.11-1.203-4.217-1.743-6.357-.211-1.575-.299.652-3.29-16.06-.221-2.649-.161 2.316-1.91-16.23-.075-2.7-.271-2.316-.964-15.113l.5-.76c6.25-9.15 14.257-16.519 23.438-22.209-.64 6.45-.513 12.721-.513 19.351 0 20.64 2.667 40.53 8.457 59.221z" fill="#8ce1a4"/></g><g><path d="m445.318 86.001c0-43.378-35.165-78.543-78.543-78.543-4.632 0-9.17.401-13.582 1.17 0 0-3.419 1.015-5.117 1.431-34.33 8.403-58.096 39.809-58.096 76.729 0 59.383 48.712 107.675 68.742 125.213 4.608 4.035 11.498 4.035 16.106 0 1.109-.971 2.31-1.041 3.592-2.207 21.869-19.904 66.898-67.697 66.898-123.793z" fill="#f9f8f9"/><path d="m378.42 209.793c-1.28 1.17-2.485 2.234-3.595 3.204-4.6 4.04-11.49 4.04-16.1 0-20.03-17.54-70.49-67.61-70.49-127 0-38.75 28.048-70.95 64.958-77.37-28.19 11.92-47.958 39.84-47.958 72.37 0 59.39 50.46 109.46 70.49 127 .83.73 1.745 1.326 2.695 1.796z" fill="#e8e8e8"/></g><g><path d="m240.485 183.053c0-43.378-35.165-78.543-78.543-78.543-4.632 0-9.17.401-13.582 1.17 0 0-3.419 1.015-5.117 1.431-34.33 8.403-58.096 39.809-58.096 76.729 0 59.383 48.712 107.675 68.742 125.213 4.608 4.035 11.498 4.035 16.106 0 1.109-.971 2.31-1.041 3.592-2.207 21.868-19.903 66.898-67.697 66.898-123.793z" fill="#f9f8f9"/><path d="m173.586 306.846c-1.28 1.17-2.485 2.234-3.595 3.204-4.6 4.04-11.49 4.04-16.1 0-20.03-17.54-70.49-67.61-70.49-127 0-38.75 28.048-70.95 64.958-77.37-28.19 11.92-47.958 39.84-47.958 72.37 0 59.39 50.46 109.46 70.49 127 .83.73 1.745 1.326 2.695 1.796z" fill="#e8e8e8"/></g><g><path d="m188.443 183.281c0-12.212-8.26-22.494-19.498-25.565 0 0-2.585.037-3.837-.12-1.092-.137-2.036-.277-3.165-.277-14.636 0-25.622 11.484-25.622 26.12s10.986 26.12 25.622 26.12c1.785 0 3.498-.119 5.184-.455.596-.119 1.799-.251 1.799-.251 11.247-3.065 19.517-13.353 19.517-25.572z" fill="#e27f86"/></g><g><path d="m168.925 208.852c-2.23.62-4.561.926-6.981.926-14.64 0-26.5-11.86-26.5-26.5 0-14.63 11.86-26.5 26.5-26.5 2.42 0 4.77.329 7 .939-11.24 3.06-19.5 13.351-19.5 25.561.001 12.219 8.241 22.514 19.481 25.574z" fill="#df646e"/></g><g><g><path d="m341.787 99.735c-5.039-.896-9.602-4.085-12.051-9.017-.213-.428-.405-.861-.578-1.297 0 0 .03-1.124-.113-1.612-2.232-7.618 2.037-15.267 9.404-18.918l32.298-15.805c7.216-3.578 15.479-2.567 20.266 3.521.509.647 1.725 1.829 1.725 1.829.155.272.303.55.444.834 4.103 8.257.727 18.273-7.541 22.37l-33.511 16.61c-3.33 1.65-6.945 2.089-10.343 1.485z" fill="#7dc3ee"/></g><g><path d="m392.738 58.436-63.581 30.984c-3.17-7.98.277-17.183 8.117-21.073l33.51-16.61c7.991-3.959 17.624-.951 21.954 6.699z" fill="#64acdc"/></g></g></g><g><path d="m410.303 187.057c9.647-11.673 19.356-25.501 27.048-40.948 1.846-3.707.337-8.21-3.371-10.057-3.708-1.845-8.211-.337-10.057 3.371-15.727 31.581-40.74 56.146-54.25 67.978-1.774 1.554-4.449 1.556-6.226 0-20.425-17.886-67.931-65.514-67.931-121.357 0-39.173 31.87-71.043 71.043-71.043s71.043 31.87 71.043 71.043c0 7.317-.839 14.846-2.494 22.378-.889 4.045 1.67 8.046 5.716 8.935 4.047.892 8.047-1.669 8.935-5.716 1.887-8.587 2.844-17.199 2.844-25.597.001-47.445-38.598-86.044-86.042-86.044s-86.043 38.599-86.043 86.043c0 10.245 1.402 20.198 3.831 29.769-22.161-3.142-45.075-2.56-66.969 1.74-15.016-12.769-34.443-20.497-55.652-20.497-14.655 0-29.128 3.751-41.854 10.849-3.617 2.017-4.914 6.585-2.896 10.203 2.017 3.617 6.586 4.916 10.203 2.896 10.497-5.854 22.443-8.948 34.547-8.948 39.173 0 71.043 31.87 71.043 71.043 0 55.844-47.506 103.472-67.931 121.357-1.777 1.553-4.453 1.551-6.225 0-20.425-17.885-67.931-65.514-67.931-121.357 0-14.859 4.537-29.088 13.121-41.146 2.401-3.375 1.613-8.058-1.761-10.46-3.376-2.401-8.059-1.612-10.46 1.761-10.402 14.613-15.9 31.85-15.9 49.846 0 12.098 1.953 23.791 5.249 34.924-15.72 28.961-24.04 61.718-24.04 94.874 0 84.601 53.636 160.164 133.466 188.03.818.285 1.651.421 2.472.421 3.101 0 6.001-1.938 7.081-5.03 1.365-3.911-.698-8.188-4.609-9.553-53.901-18.815-94.882-61.152-113.073-113.085l25.65 2.514c9.354.918 18.041 5.201 24.463 12.062l23.104 24.68c14.426 16.056 43.773 24.155 61.189 8.57 12.199-11.604 13.844-33.343 13.844-53.078 0-12.859 5.477-18.822 11.817-25.728 6.886-7.499 15.455-16.831 10.955-34.187-3.58-13.81-10.926-23.557-21.832-28.974-5.978-2.969-12.586-4.271-19.214-3.92 18.587-24.57 35.564-56.791 35.564-92.522 0-19.729-6.691-37.916-17.901-52.447 19.714-2.784 40.073-2.391 59.591 1.186 6.44 16.772 15.684 32.043 25.472 45.198-1.971 4.222-4.631 8.036-7.952 11.356-2.951 2.951-6.875 4.577-11.053 4.577-20.835 0-37.785 16.95-37.785 37.785 0 19.271 7.504 37.387 21.13 51.014 6.65 6.65 15.493 10.312 24.898 10.312 12.045 0 23.369-4.69 31.887-13.207l14.9-14.9c2.951-2.952 6.876-4.578 11.051-4.578s8.1 1.626 11.051 4.577c12.674 12.675 29.525 19.655 47.451 19.655h17.243c1.551 9.629 2.35 19.414 2.35 29.269.002 101.516-82.587 184.106-184.103 184.106-9.401 0-18.839-.714-28.052-2.123-4.089-.618-7.921 2.186-8.548 6.28-.626 4.095 2.186 7.922 6.28 8.548 9.962 1.523 20.162 2.295 30.32 2.295 109.787 0 199.105-89.318 199.105-199.105 0-45.886-15.879-90.398-44.802-125.838zm-322.178 50.217c5.748 12.747 12.988 24.503 20.624 34.977-13.184 3.318-25.336 9.704-35.512 18.573 2.232-18.514 7.26-36.599 14.888-53.55zm136.625 55.7c6.936 3.443 11.51 9.758 13.984 19.302 2.451 9.457-1.077 13.3-7.484 20.277-7.025 7.65-15.769 17.172-15.769 35.873 0 15.586-1.044 34.469-9.182 42.21-10.44 8.962-30.329 2.599-39.9-7.954l-23.104-24.679c-8.909-9.516-20.977-15.466-33.95-16.738l-31.795-3.117c-3.572-14.071-5.51-28.707-5.639-43.658 11.184-15.689 28.188-26.13 47.193-29.018 11.145 13.292 22.1 23.673 29.631 30.269 3.704 3.242 8.349 4.863 12.994 4.863s9.29-1.622 12.994-4.864c4.7-4.116 10.736-9.711 17.318-16.564 1.909-1.988 4.189-3.598 6.731-4.661 7.9-3.306 18.291-5.449 25.978-1.541zm195.762-24.348c-13.919 0-27.004-5.42-36.844-15.262-5.785-5.785-13.478-8.971-21.659-8.971s-15.872 3.186-21.657 8.971l-14.9 14.9c-5.684 5.685-13.24 8.814-21.279 8.814-5.398 0-10.475-2.103-14.291-5.92-10.793-10.793-16.737-25.143-16.737-40.406 0-12.563 10.222-22.785 22.788-22.785 8.182 0 15.873-3.187 21.656-8.971 2.838-2.837 5.322-5.94 7.453-9.272 10.761 12.666 21.244 22.584 28.526 28.961 3.704 3.243 8.349 4.865 12.994 4.865s9.291-1.622 12.995-4.865c5.51-4.826 12.829-11.662 20.708-20.164 16.437 20.721 28.136 44.667 34.437 70.104h-14.19z"/><path d="m303.689 359.531c4.868.036 9.828-.409 14.655-1.248 4.081-.71 6.814-4.593 6.105-8.674-.709-4.08-4.586-6.81-8.674-6.105-3.903.679-7.889 1.025-11.847 1.029-10.429-.212-20.152 4.054-27.37 11.995-7.677 8.447-11.519 20.206-10.334 31.554-.12 13.747 5.072 26.242 14.29 34.344 13.965 12.439 34.785 17.284 55.135 14.042 23.203-3.563 44.432-16.153 54.084-32.075 10.5-19.763 21.83-35.222 19.115-62.884-.199-16.582-13.719-30.017-30.332-30.083-9.08-.274-17.92 4.198-25.628 12.891-2.567 2.55-5.355 4.917-8.289 7.037-3.357 2.427-4.112 7.115-1.687 10.472 2.427 3.357 7.117 4.109 10.472 1.687 3.641-2.632 7.097-5.575 10.271-8.749 3.789-4.564 10.05-8.67 14.738-8.337 8.069-.103 15.738 7.357 15.489 16.164 2.542 22.226-6.992 35.26-17.088 54.208-7.396 12.015-24.811 21.985-43.423 24.844-9.864 1.514-28.562 2.168-42.956-10.483-5.55-4.647-9.576-14.601-9.238-24.32-.856-7.255 1.566-14.813 6.48-20.221 4.278-4.705 9.933-7.195 16.032-7.088z"/><path d="m115.229 198.324c4.143 0 7.5-3.357 7.5-7.5h10.989c1.202 4.484 3.451 8.542 6.472 11.895l-5.993 9.228-.044-.028c-3.473-2.254-8.118-1.269-10.375 2.205-2.256 3.474-1.269 8.119 2.205 10.375l12.668 8.227c1.262.819 2.678 1.211 4.078 1.211 2.454 0 4.86-1.204 6.297-3.416 2.256-3.474 1.269-8.119-2.205-10.375l-.044-.029 5.986-9.218c2.825.921 5.837 1.425 8.965 1.425s6.14-.504 8.965-1.425l5.985 9.217-.016.01c-3.474 2.256-4.461 6.901-2.205 10.375 1.437 2.212 3.842 3.416 6.297 3.416 1.4 0 2.816-.392 4.078-1.211l6.304-4.094s.001 0 .002-.001c.001 0 .001-.001.002-.002l6.304-4.094c3.474-2.256 4.461-6.901 2.205-10.375s-6.902-4.461-10.375-2.205l-.016.01-5.992-9.228c3.022-3.352 5.271-7.411 6.473-11.895h10.989c0 4.143 3.357 7.5 7.5 7.5s7.5-3.357 7.5-7.5v-15c0-4.143-3.357-7.5-7.5-7.5s-7.5 3.357-7.5 7.5h-10.988c-1.202-4.484-3.451-8.543-6.473-11.896l5.993-9.229.01.007c1.262.819 2.678 1.211 4.078 1.211 2.454 0 4.86-1.204 6.297-3.416 2.256-3.475 1.269-8.119-2.205-10.375l-6.298-4.09c-.001-.001-.002-.001-.002-.002s-.002-.001-.002-.001l-6.297-4.089c-3.472-2.255-8.118-1.269-10.375 2.205-2.256 3.475-1.269 8.119 2.205 10.375l.01.006-5.986 9.218c-2.825-.921-5.836-1.425-8.964-1.425s-6.14.504-8.965 1.425l-5.987-9.218.029-.019c3.474-2.256 4.461-6.901 2.205-10.375s-6.902-4.461-10.375-2.205l-6.315 4.101c-.001.001-.003.002-.005.003s-.003.002-.004.003l-6.314 4.1c-3.474 2.256-4.461 6.901-2.205 10.375 1.437 2.212 3.842 3.416 6.297 3.416 1.4 0 2.816-.392 4.078-1.211l.028-.018 5.993 9.229c-3.022 3.352-5.271 7.411-6.473 11.895h-10.989c0-4.143-3.357-7.5-7.5-7.5s-7.5 3.357-7.5 7.5v15c0 4.145 3.357 7.502 7.5 7.502zm46.5-29c7.72 0 14 6.28 14 14s-6.28 14-14 14-14-6.28-14-14 6.28-14 14-14z"/><path d="m326.049 92.487c1.711 3.445 4.28 6.349 7.384 8.491l.54 11.469c.189 4.018 3.506 7.147 7.486 7.147.119 0 .238-.003.358-.008 4.138-.195 7.334-3.707 7.14-7.845l-.324-6.894c2.609-.282 5.162-1.023 7.569-2.216l8.155-4.042 3.568 7.338c1.298 2.669 3.97 4.223 6.751 4.223 1.1 0 2.218-.243 3.273-.757 3.726-1.812 5.277-6.3 3.466-10.024l-3.618-7.441 8.486-4.206c2.263-1.121 4.267-2.601 5.993-4.343l5.451 4.714c1.418 1.227 3.164 1.827 4.902 1.827 2.103 0 4.192-.879 5.676-2.595 2.71-3.133 2.366-7.869-.768-10.578l-8.822-7.628c.277-3.942-.472-7.902-2.277-11.534-1.712-3.447-4.197-6.261-7.14-8.34l-.521-11.082c-.195-4.139-3.712-7.315-7.845-7.14-4.138.195-7.334 3.707-7.139 7.845l.298 6.34c-2.645.256-5.286.983-7.805 2.233l-8.156 4.042-3.306-6.8c-1.812-3.724-6.3-5.279-10.024-3.466-3.726 1.812-5.277 6.3-3.466 10.024l3.357 6.903-8.485 4.206c-2.335 1.157-4.395 2.697-6.157 4.513l-5.026-4.346c-3.133-2.709-7.87-2.366-10.578.768-2.71 3.133-2.366 7.869.768 10.578l8.537 7.381c-.221 3.846.539 7.701 2.299 11.243zm13.044-12.379c.639-1.895 1.979-3.429 3.774-4.318l30.083-14.911c3.709-1.837 8.217-.321 10.054 3.38.889 1.787 1.027 3.813.391 5.705-.638 1.896-1.978 3.429-3.773 4.318l-30.083 14.911c-1.45.72-3.056.95-4.642.668-2.373-.422-4.346-1.896-5.413-4.048-.889-1.787-1.028-3.813-.391-5.705z"/><path d="m385.55 135.19c8.604-.555 18.733-5.59 24.763-13.103 2.617-3.211 2.136-7.935-1.075-10.552-3.211-2.619-7.937-2.137-10.552 1.075-2.592 3.206-8.124 6.996-14.11 7.643-4.106.544-6.994 4.313-6.451 8.42.499 3.773 3.721 6.517 7.425 6.517z"/><path d="m339.871 155.433c6.186 4.693 13.433 7.103 20.903 7.103 2.789.006 8.011-.618 13.005-2.427 3.899-1.396 5.929-5.69 4.533-9.59-1.396-3.899-5.691-5.928-9.59-4.533-5.503 2.172-13.614 2.147-19.783-2.502-3.302-2.503-8.005-1.857-10.509 1.44-2.503 3.3-1.858 8.005 1.441 10.509z"/></g></g></svg>