<svg id="Capa_1" enable-background="new 0 0 512 512" height="512" viewBox="0 0 512 512" width="512" xmlns="http://www.w3.org/2000/svg"><g><g><ellipse cx="256" cy="24.067" fill="#f6df59" rx="16.567" ry="16.567" transform="matrix(.14 -.99 .99 .14 196.357 274.182)"/><path d="m256 7.5c-4.471 0-8.52 1.779-11.5 4.657 3.119 3.013 5.067 7.23 5.067 11.91 0 4.679-1.948 8.897-5.067 11.909 2.98 2.878 7.029 4.657 11.5 4.657 9.149 0 16.567-7.417 16.567-16.567 0-9.149-7.418-16.566-16.567-16.566z" fill="#edbf50"/><g><g><path d="m57.2 140.033v-16.566l165.666-49.7 33.134-16.567 33.134 16.567 165.666 49.7v16.566z" fill="#f6df59"/><g><path d="m289.134 73.767-33.134-16.567-11.5 5.75 21.634 10.817 165.666 49.7v16.566h23v-16.566z" fill="#edbf50"/></g></g></g><path d="m289.133 73.767h-66.267v-25.134c0-4.418 3.582-8 8-8h50.267c4.418 0 8 3.582 8 8z" fill="#f3ffff"/><path d="m281.133 40.633h-23c4.418 0 8 3.582 8 8v25.133h23v-25.133c0-4.418-3.581-8-8-8z" fill="#dff9f9"/><g><path d="m396.817 183.911v122.237 69.85 34.924h-33.134v-34.924-69.85-122.237z" fill="#dff8fa"/><path d="m373.817 183.911v122.237 69.85 34.924h23v-34.924-69.85-122.237z" fill="#c3f2f7"/><g><g><path d="m421.667 338.827v-24.844c0-4.575-3.709-8.283-8.283-8.283h-66.267c-4.575 0-8.283 3.709-8.283 8.283v24.844l41.417 9.757z" fill="#f3ffff"/><path d="m413.383 305.7h-23c4.575 0 8.283 3.709 8.283 8.283v24.844l-29.917 6.858 11.5 2.899 41.417-9.757v-24.844c.001-4.574-3.708-8.283-8.283-8.283z" fill="#dff9f9"/></g><path d="m421.65 338.833h-82.8c.356 17.751 14.369 32.632 32.185 33.121h18.429c17.817-.489 31.83-15.37 32.186-33.121z" fill="#924af5"/><path d="m398.667 338.833c-.34 16.986-13.19 31.335-29.908 32.969.753.073 1.51.131 2.277.152h18.429c17.816-.489 31.83-15.37 32.185-33.121z" fill="#7536f9"/></g></g><g><path d="m148.317 183.911v122.237 69.85 34.924h-33.134v-34.924-69.85-122.237z" fill="#dff8fa"/><path d="m125.317 183.911v122.237 69.85 34.924h23v-34.924-69.85-122.237z" fill="#c3f2f7"/><g><g><path d="m173.167 338.827v-24.844c0-4.575-3.708-8.283-8.283-8.283h-66.267c-4.575 0-8.283 3.709-8.283 8.283v24.844l41.417 9.757z" fill="#f3ffff"/><path d="m164.883 305.7h-23c4.575 0 8.283 3.709 8.283 8.283v24.844l-29.917 6.858 11.5 2.899 41.417-9.757v-24.844c.001-4.574-3.708-8.283-8.283-8.283z" fill="#dff9f9"/></g><path d="m173.15 338.833h-82.8c.356 17.751 14.369 32.632 32.185 33.121h18.429c17.817-.489 31.83-15.37 32.186-33.121z" fill="#924af5"/><path d="m150.167 338.833c-.341 16.986-13.19 31.335-29.908 32.969.752.073 1.51.131 2.277.152h18.429c17.816-.489 31.83-15.37 32.185-33.121z" fill="#7536f9"/></g></g><g><path d="m222.867 213.495h66.267v167.843h-66.267z" fill="#dff8fa"/><path d="m266.133 213.495h23v167.843h-23z" fill="#c3f2f7"/><path d="m305.7 410.1h-99.4v-30.134c0-4.418 3.582-8 8-8h83.4c4.418 0 8 3.582 8 8z" fill="#f6df59"/><path d="m206.3 184.733h99.4v30.134c0 4.418-3.582 8-8 8h-83.4c-4.418 0-8-3.582-8-8z" fill="#f6df59"/><g fill="#edbf50"><path d="m282.7 184.733v30.134c0 4.418-3.582 8-8 8h23c4.418 0 8-3.582 8-8v-30.134z"/><path d="m297.7 371.967h-23c4.418 0 8 3.582 8 8v30.133h23v-30.134c0-4.418-3.582-7.999-8-7.999z"/></g></g><path d="m475.98 123.467h-37.747l-33.133 16.566-33.133-16.566h-82.834l-33.133 16.566-33.133-16.566h-82.834l-33.133 16.566-33.133-16.566h-37.748c-5.783 0-9.787 5.776-7.756 11.192l16.622 44.325c2.425 6.466 8.606 10.75 15.512 10.75h79.636l33.133-16.567 33.15 16.567h99.384l33.133-16.567 33.133 16.567h79.636c6.906 0 13.087-4.284 15.512-10.75l16.622-44.325c2.031-5.416-1.972-11.192-7.756-11.192z" fill="#924af5"/><g><g fill="#f3ffff"><path d="m438.233 123.467c0 18.299-14.834 33.133-33.133 33.133s-33.133-14.834-33.133-33.133z"/><path d="m305.7 189.733c0-18.299 14.834-33.133 33.133-33.133s33.133 14.834 33.133 33.133z"/><path d="m289.133 123.467c0 18.299-14.834 33.133-33.133 33.133s-33.133-14.834-33.133-33.133z"/><path d="m140.033 123.467c0 18.299-14.834 33.133-33.133 33.133s-33.133-14.834-33.133-33.133z"/><path d="m140.033 189.733c0-18.299 14.834-33.133 33.133-33.133s33.133 14.834 33.133 33.133z"/></g><path d="m415.233 123.467c0 14.255-9.004 26.405-21.633 31.08 3.583 1.326 7.456 2.053 11.5 2.053 18.299 0 33.133-14.835 33.133-33.133z" fill="#dff9f9"/><path d="m338.833 156.6c-4.044 0-7.917.727-11.5 2.053 12.63 4.675 21.633 16.825 21.633 31.081h23c.001-18.3-14.834-33.134-33.133-33.134z" fill="#dff9f9"/><path d="m266.133 123.467c0 14.255-9.004 26.405-21.633 31.08 3.583 1.326 7.456 2.053 11.5 2.053 18.299 0 33.133-14.835 33.133-33.133z" fill="#dff9f9"/><path d="m117.033 123.467c0 14.255-9.004 26.405-21.633 31.08 3.583 1.326 7.456 2.053 11.5 2.053 18.299 0 33.133-14.835 33.133-33.133z" fill="#dff9f9"/><path d="m173.183 156.6c-4.044 0-7.917.727-11.5 2.053 12.63 4.675 21.633 16.825 21.633 31.081h23c0-18.3-14.834-33.134-33.133-33.134z" fill="#dff9f9"/></g><path d="m454.8 450.089h-397.6v-28.989c0-8.837 7.163-16 16-16h365.6c8.837 0 16 7.163 16 16z" fill="#f3ffff"/><path d="m438.8 405.1h-23c8.837 0 16 7.163 16 16v28.989h23v-28.989c0-8.837-7.163-16-16-16z" fill="#dff9f9"/><path d="m32.35 483.356v-11.989l24.85-33.134h397.6l24.85 33.134v11.989z" fill="#924af5"/><path d="m454.8 438.233h-23l24.85 33.134v11.989h23v-11.989z" fill="#7536f9"/><path d="m496.5 504.5h-481c-4.418 0-8-3.582-8-8v-17.133c0-4.418 3.582-8 8-8h481c4.418 0 8 3.582 8 8v17.133c0 4.418-3.582 8-8 8z" fill="#f6df59"/><path d="m496.5 471.367h-23c4.418 0 8 3.582 8 8v17.133c0 4.418-3.582 8-8 8h23c4.418 0 8-3.582 8-8v-17.133c0-4.419-3.582-8-8-8z" fill="#edbf50"/><path d="m475.98 123.467h-23c5.783 0 9.787 5.776 7.756 11.192l-16.622 44.325c-2.425 6.466-8.606 10.75-15.512 10.75h23c6.906 0 13.087-4.284 15.512-10.75l16.622-44.325c2.031-5.416-1.972-11.192-7.756-11.192z" fill="#7536f9"/></g><path d="m496.5 463.867h-13.1l-21.1-28.134v-14.633c0-12.958-10.542-23.5-23.5-23.5h-34.483v-21.43c14.154-6.167 24.281-20.328 24.817-36.666.02-.222.034-.445.034-.671 0-.077-.009-.151-.012-.228.002-.154.012-.307.012-.461v-24.161c0-8.703-7.081-15.783-15.784-15.783h-9.066v-100.967h47.286c9.976 0 19.031-6.275 22.534-15.616l16.622-44.325c1.817-4.845 1.143-10.277-1.805-14.531s-7.798-6.794-12.974-6.794h-20.079l-159.269-47.781v-19.553c0-8.547-6.953-15.5-15.5-15.5h-2.845c1.143-2.8 1.779-5.86 1.779-9.066-.001-13.271-10.797-24.067-24.067-24.067-13.271 0-24.067 10.796-24.067 24.066 0 3.206.635 6.266 1.779 9.066h-2.846c-8.547 0-15.5 6.953-15.5 15.5v19.554l-159.267 47.78h-20.08c-5.175 0-10.025 2.539-12.973 6.793-2.947 4.254-3.623 9.687-1.805 14.532l16.622 44.325c3.503 9.341 12.559 15.616 22.535 15.616h47.286v46c0 4.143 3.358 7.5 7.5 7.5s7.5-3.357 7.5-7.5v-12.866h18.134v67.834h-18.134v-24.967c0-4.143-3.358-7.5-7.5-7.5s-7.5 3.357-7.5 7.5v24.967h-9.066c-8.703 0-15.783 7.08-15.783 15.783v24.161c0 .154.01.307.012.461-.002.076-.012.151-.012.228 0 .227.014.45.034.671.536 16.338 10.662 30.499 24.816 36.665v21.43h-34.485c-12.958 0-23.5 10.542-23.5 23.5v14.634l-21.1 28.134h-13.1c-8.547 0-15.5 6.953-15.5 15.5v17.133c0 8.547 6.953 15.5 15.5 15.5h58.267c4.142 0 7.5-3.357 7.5-7.5s-3.358-7.5-7.5-7.5h-58.267c-.276 0-.5-.225-.5-.5v-17.133c0-.275.224-.5.5-.5h481c.275 0 .5.225.5.5v17.133c0 .275-.225.5-.5.5h-392.733c-4.142 0-7.5 3.357-7.5 7.5s3.358 7.5 7.5 7.5h392.733c8.547 0 15.5-6.953 15.5-15.5v-17.133c0-8.547-6.953-15.5-15.5-15.5zm-125.316-66.267v-18.146h18.133v18.146zm-57.984 0v-17.633c0-8.547-6.953-15.5-15.5-15.5h-1.067v-134.1h1.067c8.547 0 15.5-6.953 15.5-15.5v-17.634h42.983v100.967h-9.066c-8.703 0-15.784 7.08-15.784 15.783v24.161c0 .154.01.307.012.461-.002.076-.012.151-.012.228 0 .227.014.45.034.671.536 16.338 10.663 30.5 24.817 36.666v21.43zm-164.545-215.367c3.215-10.487 12.986-18.134 24.511-18.134 11.526 0 21.297 7.647 24.512 18.134zm65.145 15h84.4v17.634c0 .275-.225.5-.5.5h-83.4c-.276 0-.5-.225-.5-.5zm100.522-15c3.215-10.487 12.986-18.134 24.511-18.134 11.526 0 21.297 7.647 24.512 18.134zm-83.955 81.267h51.266v67.833h-51.266zm51.266-33.133v18.133h-51.266v-18.133zm-51.266 115.966h51.266v18.134h-51.266zm67.333 33.134c.275 0 .5.225.5.5v17.633h-84.4v-17.633c0-.275.224-.5.5-.5zm91.655-15.013h-18.211c-10.923-.342-20.204-7.914-23.512-18.121h65.235c-3.308 10.207-12.588 17.779-23.512 18.121zm24.812-50.471v17.35h-26.417v-.783c0-4.143-3.357-7.5-7.5-7.5s-7.5 3.357-7.5 7.5v.783h-26.417v-17.35c0-.432.352-.783.784-.783h66.266c.432 0 .784.352.784.783zm-42.983-15.783v-67.833h18.133v67.833zm18.132-82.833h-18.133v-18.134h18.133zm-281.016-99.4 115.666-34.7h64.066l115.667 34.7zm172.211 15c-3.215 10.486-12.986 18.133-24.511 18.133-11.526 0-21.296-7.647-24.511-18.133zm-149.1 0c-3.215 10.486-12.986 18.133-24.511 18.133-11.526 0-21.296-7.647-24.511-18.133zm298.201 0c-3.215 10.486-12.986 18.133-24.512 18.133-11.525 0-21.296-7.647-24.511-18.133zm-182.679-106.901c0-4.999 4.067-9.066 9.067-9.066 4.999 0 9.066 4.067 9.066 9.066s-4.067 9.066-9.066 9.066c-5 .001-9.067-4.067-9.067-9.066zm-16.567 24.567c0-.275.224-.5.5-.5h50.267c.275 0 .5.225.5.5v17.634h-51.267zm-178.458 127.717-16.622-44.325c-.04-.104-.144-.384.089-.721.234-.337.532-.337.644-.337h30.953c3.53 18.833 20.085 33.133 39.928 33.133 19.842 0 36.397-14.3 39.928-33.133h69.244c3.53 18.833 20.086 33.133 39.928 33.133s36.397-14.3 39.927-33.133h69.245c3.53 18.833 20.085 33.133 39.927 33.133s36.398-14.3 39.928-33.133h30.953c.112 0 .41 0 .645.337.233.337.129.615.089.721l-16.622 44.325c-1.319 3.52-4.731 5.884-8.489 5.884h-72.841c-3.53-18.833-20.086-33.134-39.928-33.134s-36.397 14.3-39.927 33.134h-85.811c-3.53-18.833-20.085-33.134-39.928-33.134s-36.398 14.3-39.928 33.134h-72.843c-3.758-.001-7.17-2.365-8.489-5.884zm70.775 39.017v-18.134h18.134v18.134zm33.134-18.134h42.983v17.634c0 8.547 6.953 15.5 15.5 15.5h1.067v134.1h-1.067c-8.547 0-15.5 6.953-15.5 15.5v17.633h-42.983v-21.43c14.153-6.167 24.28-20.327 24.816-36.665.02-.222.034-.445.034-.671 0-.077-.009-.151-.011-.228.002-.154.011-.307.011-.461v-24.161c0-8.703-7.081-15.783-15.783-15.783h-9.066v-100.968zm-57.2 115.967h66.267c.432 0 .783.352.783.783v17.35h-26.417v-.783c0-4.143-3.358-7.5-7.5-7.5s-7.5 3.357-7.5 7.5v.783h-26.417v-17.35c0-.431.352-.783.784-.783zm.516 33.133h65.234c-3.309 10.207-12.589 17.779-23.513 18.121h-18.209c-10.923-.342-20.204-7.914-23.512-18.121zm23.55 33.121h18.134v18.146h-18.134zm-57.983 41.646c0-4.687 3.813-8.5 8.5-8.5h365.6c4.686 0 8.5 3.813 8.5 8.5v9.634h-18.134v-2.475c0-4.143-3.357-7.5-7.5-7.5s-7.5 3.357-7.5 7.5v2.475h-51.267v-2.475c0-4.143-3.357-7.5-7.5-7.5s-7.5 3.357-7.5 7.5v2.475h-51.267v-2.475c0-4.143-3.357-7.5-7.5-7.5s-7.5 3.357-7.5 7.5v2.475h-51.267v-2.475c0-4.143-3.358-7.5-7.5-7.5s-7.5 3.357-7.5 7.5v2.475h-51.265v-2.475c0-4.143-3.358-7.5-7.5-7.5s-7.5 3.357-7.5 7.5v2.475h-51.267v-2.475c0-4.143-3.358-7.5-7.5-7.5s-7.5 3.357-7.5 7.5v2.475h-18.133zm-3.75 24.633h390.1l13.601 18.134h-417.301z"/></g></svg>