<svg id="Capa_1" enable-background="new 0 0 512.004 512.004" height="512" viewBox="0 0 512.004 512.004" width="512" xmlns="http://www.w3.org/2000/svg"><g><g><path d="m100.785 292.091 21.962 9.108 57.325 25.009c23.643 11.563 75.933 16.574 75.933 16.574 26.319 0 52.29-5.011 75.933-16.574l80.79-36.5-.302 1.549c-4.448 22.832-17.379 43.131-36.191 56.812l-48.5 35.272c-7.266 5.285-15.053 9.713-23.2 13.257-15.339 6.672-31.966 8.183-48.882 8.183-26.083 0-51.486-8.322-72.513-23.755l-46.643-34.967c-18.641-13.681-30.942-29.523-35.364-52.219z" fill="#afefa5"/><path d="m283.407 397.782c-60.783 1.548-87.5-29.655-132.912-60.722-13.208-9.036-21.908-21.665-27.749-35.861l-12.293-9.006-11.173-2.459.347 1.75c4.421 22.696 17.227 42.895 35.867 56.576l47.643 34.967c21.027 15.433 46.43 23.755 72.513 23.755 16.916 0 33.544-3.511 48.882-10.183-5.28.573-12.109.953-21.125 1.183z" fill="#8ce1a4"/><path d="m180.072 329.208c23.643 11.563 49.614 17.574 75.933 17.574 26.319 0 52.29-6.011 75.933-17.574l80.79-39.5 4.508-23.14c.786-4.033 1.436-8.088 1.951-12.16.911-7.204-2.602-9.459-2.544-16.728l4.063-12.824.59-73.467c.12-14.968-10.811-27.734-25.618-29.919l-79.993-11.807c-19.759-2.916-39.705-4.381-59.678-4.381-19.973 0-39.919 1.464-59.678 4.381l-79.993 11.807c-2.698.398-5.267 1.15-7.664 2.2-10.76 4.713-16.053 16.479-15.955 28.72l.653 80.291c.091 11.377 1.232 22.721 3.407 33.888l4.506 21.166 21.466 13.465z" fill="#8ce1a4"/><path d="m108.83 241.42c-.402-5.301 1.286-11.639 1.041-18.628-1.107-31.544-.845-76.368-1.202-99.123-10.759 4.713-18.053 15.479-17.955 27.72l.59 73.483 3.402 14.16c.059 7.272-2.794 8.179-1.882 15.387.515 4.068 1.165 8.121 1.95 12.15l4.507 23.166 23.466 11.465c-5.474-13.304-8.434-27.986-10.222-42.387-.73-5.883-3.265-11.718-3.695-17.393z" fill="#7bd6a4"/><path d="m419.186 254.408-83.153 18.553c-26.272 5.862-53.109 8.82-80.028 8.82s-53.755-2.958-80.028-8.82l-63.451-14.149-17.989-6.163c-.536-4.419-1.91-21.786-1.824-26.617 6.189-.693 10.969-2.546 17.158-3.24 28.773-3.224 57.547-6.448 86.32-9.673 19.86-2.223 39.829-3.337 59.814-3.337s39.953 1.114 59.814 3.337l104.886 11.737c.079 4.583.018 9.463-.242 14.607-.268 5.29-.715 10.281-1.277 14.945z" fill="#afefa5"/><path d="m110.83 241.42c-.401-5.3-.714-11.64-.959-18.628-6.189.693-12.377 1.387-18.566 2.08-.087 4.831-.015 9.994.282 15.447.271 4.972.702 9.68 1.238 14.099l19.7 4.393c-.729-5.881-1.265-11.717-1.695-17.391z" fill="#8ce1a4"/><path d="m256.004 171.282c-19.99 0-39.969.91-59.876 2.728l-64.741 7.362c-8.51.777-13.34-13.404-13.34-13.404 0-2.682-.84-5.174.386-7.358 2.34-4.168 6.603-7.107 11.65-7.568l66.045-6.032c19.907-1.818 39.886-2.728 59.876-2.728 19.99 0 39.969.91 59.876 2.728l66.045 6.032c4.983.455 9.202 3.326 11.561 7.389 1.282 2.209 1.136 4.881 1.136 7.602 0 0-6.663 13.561-15.413 12.762l-63.328-6.783c-19.908-1.82-59.877-2.73-59.877-2.73z" fill="#f9f8f9"/><path d="m379.208 167.793-63.328-5.783c-19.907-1.818-39.886-2.728-59.875-2.728-19.99 0-39.969.91-59.876 2.728l-63.775 5.824c-5.871.536-11.19-2.492-13.921-7.225-1.226 2.184-1.929 4.702-1.929 7.385v.371c0 8.545 7.339 15.246 15.85 14.469l63.775-5.824c19.907-1.818 39.886-2.728 59.876-2.728 19.99 0 39.969.91 59.875 2.728l63.328 5.783c8.75.799 16.296-6.09 16.296-14.876 0-2.72-.736-5.279-2.019-7.487-2.818 4.83-8.266 7.912-14.277 7.363z" fill="#e8e8e8"/></g><g><path d="m116.181 184.635c4.069 3.714 9.439 6.385 14.864 5.759 36.287-2.874 88.685-9.166 124.959-8.612 34.876-.525 87.534 5.439 122.521 8.48 11.655 1.277 24.633-8.734 24.479-22.345 0-11.676-8.769-21.283-20.397-22.345l-44.366-4.052c-4.109-.383-7.773 2.662-8.15 6.787s2.662 7.774 6.787 8.151l44.365 4.052c3.854.352 6.762 3.537 6.762 7.407-.063 3.238-2.749 7.59-8.114 7.407-36.138-3.153-87.805-9.022-123.886-8.543-35.526-.531-88.694 5.478-124.332 8.584-3.143.244-7.683-2.178-7.668-7.371 0-3.915 2.907-7.132 6.761-7.484 35.971-3.111 89.485-9.226 125.239-8.729 15.404 0 31.001.556 46.359 1.653 4.127.296 7.721-2.815 8.015-6.947.296-4.131-2.814-7.72-6.946-8.015-15.712-1.123-31.669-1.691-47.428-1.691-35.869-.545-90.601 5.671-126.604 8.791-11.628 1.062-20.396 10.702-20.396 22.422-.094 4.99 2.191 12.037 7.176 16.641z"/><path d="m494.67 126.633c-10.854-6.733-24.167-7.368-35.613-1.695l-31.775 15.75c-4.035-13.732-15.784-24.463-30.511-26.637-38.482-5.25-102.602-17.224-140.767-16.268-38.032-1.006-102.781 11.112-140.768 16.268-14.727 2.174-26.476 12.906-30.51 26.637l-31.775-15.75c-23.566-12.352-53.368 6.447-52.947 32.85 0 40.511 19.2 79.403 51.361 104.038l40.964 31.376c4.846 24.5 18.587 46.122 38.729 60.905l47.644 34.968c22.47 16.491 49.079 25.208 76.95 25.208 27.667 0 54.118-8.602 76.494-24.875l48.499-35.272c20.272-14.743 34.11-36.366 39.029-60.929l40.969-31.38c7.234-5.541 13.905-11.855 19.827-18.767 2.695-3.146 2.33-7.88-.815-10.575-3.146-2.696-7.881-2.33-10.575.815-5.244 6.12-11.151 11.711-17.558 16.619l-27.508 21.07c2.383-11.263 4.058-25.77 4.128-38.247l.61-76.04 36.967-18.323c12.979-7.005 31.541 3.312 31.285 19.411 0 16.58-3.459 32.647-10.281 47.756-1.705 3.775-.026 8.217 3.748 9.922 1.002.452 2.051.667 3.082.667 2.857 0 5.588-1.642 6.84-4.416 7.705-17.062 11.611-35.206 11.611-53.929 0-12.776-6.48-24.423-17.334-31.157zm-377.243 2.256c37.465-5.084 101.451-17.047 138.577-16.107 36.96-.995 101.63 11.119 138.576 16.107 11.044 1.63 19.304 11.277 19.214 22.44l-.523 65.152c-40.412-4.066-117.621-15.019-157.267-14.199-20.184 0-40.589 1.139-60.647 3.384-4.117.461-7.08 4.171-6.619 8.288.46 4.116 4.168 7.078 8.287 6.619 19.508-2.184 39.352-3.291 58.979-3.291 38.697-.867 117.99 10.387 157.146 14.28-.017 4.303-.232 10.204-.833 16.693l-77.918 17.387c-51.387 11.466-105.402 11.466-156.789 0l-77.918-17.387c-.378-3.933-.813-10.562-.833-16.693l63.604-7.12c4.117-.461 7.08-4.171 6.619-8.288-.46-4.117-4.185-7.081-8.287-6.619l-62.057 6.947-.523-65.152c-.09-11.164 8.169-20.811 19.212-22.441zm-102.423 28.899c-.453-14.946 16.844-26.631 31.285-19.411l36.967 18.323.61 76.041c.039 11.566 1.575 26.031 4.128 38.246l-27.508-21.07c-28.479-21.814-45.482-56.255-45.482-92.129zm356.819 184.216-48.499 35.272c-19.795 14.396-43.196 22.005-67.672 22.005-24.657 0-48.197-7.711-68.075-22.301l-47.644-34.968c-13.314-9.772-23.319-23.071-29.049-38.295l65.893 32.227c24.526 11.996 51.923 18.337 79.228 18.337 16.166 0 32.266-2.175 47.852-6.465 3.993-1.099 6.34-5.228 5.241-9.221-1.1-3.993-5.226-6.342-9.222-5.241-14.289 3.933-29.05 5.927-43.871 5.927-25.033 0-50.15-5.813-72.638-16.812l-77.439-37.874c-.351-1.85-3.766-19.23-3.975-20.468l72.39 16.153c26.766 5.972 54.24 9 81.662 9s54.896-3.028 81.662-9l72.39-16.153c-.12.776-3.719 19.11-3.974 20.468l-74.871 36.618c-3.721 1.82-5.263 6.312-3.442 10.032 1.301 2.661 3.968 4.207 6.743 4.207 1.105 0 2.229-.246 3.289-.764l63.276-30.947c-5.789 15.238-15.862 28.522-29.255 38.263z"/></g></g></svg>