<svg id="Capa_1" enable-background="new 0 0 512 512" height="512" viewBox="0 0 512 512" width="512" xmlns="http://www.w3.org/2000/svg"><g><g><g><path d="m412.88 169.655-84.148-55.319c-2.307-1.517-2.948-4.617-1.431-6.925l13.586-20.666c8.798-13.383 26.78-17.1 40.163-8.302l44.039 28.951c13.383 8.798 17.1 26.78 8.302 40.163l-13.586 20.666c-1.518 2.308-4.618 2.949-6.925 1.432z" fill="#fdcd08"/></g><g><path d="m350.918 114.336c-2.308-1.517-2.948-4.617-1.432-6.925l13.586-20.666c3.319-5.048 7.944-8.719 13.136-10.863-12.606-5.233-27.548-.962-35.322 10.863l-13.586 20.667c-1.517 2.307-.876 5.408 1.432 6.925l84.148 55.319c2.307 1.517 5.408.876 6.925-1.431l3.948-6.006z" fill="#faab18"/></g><g><path d="m99.12 169.655 84.148-55.319c2.307-1.517 2.948-4.617 1.431-6.925l-13.586-20.666c-8.798-13.383-26.78-17.1-40.163-8.302l-44.039 28.951c-13.383 8.798-17.1 26.78-8.302 40.163l13.586 20.666c1.518 2.308 4.618 2.949 6.925 1.432z" fill="#fdcd08"/></g><g><path d="m100.796 147.558c-8.798-13.383-5.081-31.365 8.302-40.163l44.039-28.951c1.558-1.024 3.18-1.872 4.841-2.561-8.573-3.542-18.692-2.919-27.027 2.561l-44.039 28.951c-13.383 8.798-17.1 26.78-8.302 40.163l13.586 20.666c1.517 2.307 4.617 2.948 6.925 1.431l11.313-7.437z" fill="#faab18"/></g><g><path d="m280.64 103.847h-49.28c-2.761 0-5-2.239-5-5v-20.24c0-2.761 2.239-5 5-5h49.28c2.761 0 5 2.239 5 5v20.24c0 2.762-2.238 5-5 5z" fill="#fdcd08"/></g><path d="m245.08 98.847v-20.24c0-2.761 2.239-5 5-5h-18.72c-2.761 0-5 2.239-5 5v20.24c0 2.761 2.239 5 5 5h18.72c-2.761 0-5-2.238-5-5z" fill="#faab18"/><g><path d="m184.945 413.379-35.342 59.694c-8.217 13.879 1.787 31.427 17.916 31.427 7.357 0 14.168-3.883 17.916-10.213l47.901-80.908z" fill="#e9a761"/></g><g><path d="m327.056 413.379 35.342 59.694c8.217 13.879-1.787 31.427-17.916 31.427-7.357 0-14.168-3.883-17.916-10.213l-47.901-80.908z" fill="#e9a761"/></g><g><circle cx="256" cy="299.883" fill="#365f7e" r="162.135"/></g><g><path d="m117.625 299.883c0-85.549 66.258-155.616 150.255-161.7-3.923-.284-7.884-.435-11.88-.435-89.545 0-162.135 72.59-162.135 162.135s72.59 162.135 162.135 162.135c3.996 0 7.957-.151 11.88-.435-83.997-6.084-150.255-76.151-150.255-161.7z" fill="#2c4d66"/></g><g><circle cx="256" cy="299.883" fill="#f6f1f1" r="121.112"/></g><g><path d="m156.008 299.883c0-63.329 48.61-115.297 110.552-120.649-3.481-.301-7.001-.464-10.56-.464-66.888 0-121.112 54.224-121.112 121.112s54.224 121.112 121.112 121.112c3.559 0 7.079-.163 10.56-.463-61.942-5.351-110.552-57.318-110.552-120.648z" fill="#e2dfe2"/></g><g><path d="m256 316.559c-9.21 0-16.676-7.466-16.676-16.676 0-9.21 7.466-16.676 16.676-16.676 9.21 0 16.676 7.466 16.676 16.676 0 9.21-7.466 16.676-16.676 16.676z" fill="#e58e82"/></g></g><g><path d="m429.208 101.127-15.752-10.356 5.475-8.329c2.275-3.461 1.314-8.112-2.147-10.387-3.461-2.274-8.111-1.314-10.387 2.147l-5.476 8.329-15.751-10.355c-5.336-3.508-11.358-5.506-17.56-5.92l-11.013-34.17c-6.185-19.192-23.889-32.086-44.052-32.086h-108.517c-20.164 0-37.867 12.894-44.052 32.085l-11.011 34.165c-7.565-.442-15.33 1.452-22.135 5.926l-15.752 10.356-5.476-8.329c-2.275-3.46-6.926-4.422-10.387-2.147s-4.422 6.926-2.147 10.387l5.476 8.329-15.752 10.356c-16.817 11.056-21.505 33.733-10.449 50.55l13.586 20.667c2.399 3.648 6.394 5.629 10.464 5.629 2.355 0 4.736-.664 6.847-2.051l35.806-23.539 10.31 15.684c-38.399 31.126-62.992 78.65-62.992 131.816 0 58.135 29.401 109.527 74.109 140.106l-17.325 29.263c-5.249 8.866-5.337 19.502-.234 28.453s14.3 14.295 24.604 14.295c9.958 0 19.296-5.323 24.37-13.893l20.325-34.33c13.975 3.737 28.65 5.741 43.787 5.741s29.812-2.004 43.787-5.741l20.325 34.33c5.073 8.569 14.411 13.893 24.37 13.893 10.303 0 19.5-5.344 24.604-14.294 5.103-8.951 5.015-19.588-.234-28.454l-17.325-29.263c44.708-30.579 74.109-81.971 74.109-140.106 0-19.934-3.427-39.455-10.185-58.022-1.417-3.893-5.72-5.9-9.613-4.483s-5.899 5.721-4.483 9.613c6.158 16.918 9.28 34.714 9.28 52.893 0 85.266-69.369 154.635-154.635 154.635s-154.635-69.369-154.635-154.635 69.369-154.637 154.635-154.637c52.498 0 100.971 26.298 129.666 70.346 2.262 3.471 6.908 4.451 10.378 2.19 3.471-2.261 4.451-6.907 2.19-10.378-9.879-15.166-21.899-28.41-35.52-39.449l10.239-15.575 35.806 23.539c2.064 1.357 4.427 2.06 6.841 2.06.849 0 1.705-.087 2.556-.263 3.27-.676 6.081-2.584 7.915-5.374l13.586-20.667c11.056-16.817 6.368-39.493-10.449-50.55zm-73.264 375.767c2.469 4.17 2.51 9.173.11 13.383s-6.726 6.724-11.572 6.724c-4.684 0-9.076-2.504-11.462-6.534l-18.552-31.335c8.439-3.108 16.56-6.877 24.312-11.23zm-176.963 13.572c-2.386 4.03-6.778 6.534-11.462 6.534-4.846 0-9.172-2.514-11.572-6.724s-2.359-9.213.11-13.383l17.165-28.992c7.751 4.352 15.872 8.121 24.311 11.229zm-81.892-328.451-12.212-18.578c-6.513-9.906-3.751-23.264 6.155-29.776l44.039-28.951c3.631-2.387 7.725-3.528 11.777-3.528 7.001 0 13.874 3.409 17.999 9.684l12.212 18.577zm136.771-65.668v-15.24h44.28v15.24zm116.773 62.682c-25.52-17.167-55.537-27.217-87.133-28.597v-19.084h17.14c6.893 0 12.5-5.607 12.5-12.5v-20.24c0-6.893-5.607-12.5-12.5-12.5h-49.28c-6.893 0-12.5 5.607-12.5 12.5v20.24c0 6.893 5.607 12.5 12.5 12.5h17.14v19.076c-32.134 1.405-61.976 11.784-87.072 28.699l-9.847-14.979 35.807-23.54c2.79-1.834 4.699-4.645 5.375-7.915s.039-6.607-1.796-9.397l-13.586-20.666c-3.605-5.484-8.451-9.669-13.922-12.448l10.794-33.49c4.181-12.973 16.146-21.688 29.775-21.688h108.517c13.628 0 25.594 8.715 29.775 21.687l10.223 31.717c-7.32 2.669-13.566 7.593-17.923 14.222l-13.587 20.667c-3.785 5.759-2.18 13.525 3.579 17.311l35.807 23.539zm76.491-15.591-12.213 18.577-79.97-52.572 12.213-18.577c3.155-4.798 7.989-8.082 13.613-9.244 5.624-1.164 11.364-.065 16.163 3.089l44.039 28.951c9.906 6.512 12.667 19.869 6.155 29.776z"/><path d="m139.631 265.377c-4.039-.925-8.061 1.596-8.987 5.633-2.16 9.415-3.255 19.129-3.255 28.873 0 70.917 57.695 128.612 128.612 128.612s128.611-57.695 128.611-128.612-57.695-128.612-128.612-128.612c-45.916 0-88.668 24.754-111.576 64.603-2.064 3.591-.827 8.176 2.765 10.24 3.591 2.064 8.175.827 10.24-2.765 20.239-35.208 58.009-57.079 98.571-57.079 62.646 0 113.612 50.966 113.612 113.612s-50.966 113.613-113.612 113.613-113.612-50.966-113.612-113.612c0-8.617.967-17.203 2.875-25.519.927-4.036-1.595-8.06-5.632-8.987z"/><path d="m256 227.163c4.142 0 7.5-3.358 7.5-7.5v-8.16c0-4.142-3.358-7.5-7.5-7.5s-7.5 3.358-7.5 7.5v8.16c0 4.142 3.358 7.5 7.5 7.5z"/><path d="m248.5 380.103v8.16c0 4.142 3.358 7.5 7.5 7.5s7.5-3.358 7.5-7.5v-8.16c0-4.142-3.358-7.5-7.5-7.5s-7.5 3.358-7.5 7.5z"/><path d="m323.797 232.086c-2.929-2.929-7.678-2.929-10.606 0l-5.77 5.77c-2.929 2.929-2.929 7.678 0 10.606 1.464 1.464 3.384 2.197 5.303 2.197s3.839-.732 5.303-2.197l5.77-5.77c2.93-2.928 2.93-7.677 0-10.606z"/><path d="m193.973 351.304-5.77 5.77c-2.929 2.929-2.929 7.678 0 10.607 1.465 1.464 3.384 2.197 5.304 2.197 1.919 0 3.839-.732 5.303-2.196l5.77-5.77c2.929-2.929 2.929-7.678 0-10.607-2.93-2.93-7.679-2.929-10.607-.001z"/><path d="m344.38 307.383c4.142 0 7.5-3.358 7.5-7.5s-3.358-7.5-7.5-7.5h-8.16c-4.142 0-7.5 3.358-7.5 7.5s3.358 7.5 7.5 7.5z"/><path d="m175.78 307.383c4.142 0 7.5-3.358 7.5-7.5s-3.358-7.5-7.5-7.5h-8.16c-4.142 0-7.5 3.358-7.5 7.5s3.358 7.5 7.5 7.5z"/><path d="m318.027 351.304c-2.93-2.929-7.678-2.928-10.607 0-2.929 2.929-2.928 7.678 0 10.607l5.77 5.77c1.465 1.464 3.384 2.196 5.303 2.196s3.839-.732 5.304-2.197c2.929-2.929 2.928-7.678 0-10.607z"/><path d="m204.579 237.856-5.77-5.77c-2.929-2.929-7.678-2.929-10.606 0-2.929 2.929-2.929 7.678 0 10.606l5.77 5.77c1.464 1.464 3.384 2.197 5.303 2.197s3.839-.732 5.303-2.197c2.929-2.928 2.929-7.677 0-10.606z"/><path d="m219.975 335.908c1.464 1.465 3.384 2.197 5.303 2.197s3.839-.732 5.303-2.197l14.478-14.478c3.288 1.677 7.005 2.628 10.941 2.628 13.331 0 24.176-10.845 24.176-24.176 0-10.713-7.007-19.815-16.676-22.979v-29.217c0-4.142-3.358-7.5-7.5-7.5s-7.5 3.358-7.5 7.5v29.217c-9.669 3.164-16.676 12.266-16.676 22.979 0 3.937.952 7.653 2.628 10.941l-14.478 14.478c-2.929 2.929-2.929 7.678.001 10.607zm36.025-45.201c5.06 0 9.176 4.117 9.176 9.176s-4.116 9.176-9.176 9.176-9.176-4.116-9.176-9.176 4.116-9.176 9.176-9.176z"/></g></g></svg>