<svg id="Capa_1" enable-background="new 0 0 512 512" height="512" viewBox="0 0 512 512" width="512" xmlns="http://www.w3.org/2000/svg"><g><g><path d="m363.683 289.133-92.866 206.209c-6.105 12.21-23.53 12.21-29.635 0l-92.866-206.209 107.684-23.678z" fill="#e59f4f"/><path d="m256 265.455-11.526 2.534 96.157 21.143-92.866 206.209c-.882 1.764-2.005 3.264-3.291 4.518 7.617 7.429 21.12 5.928 26.344-4.518l92.866-206.209z" fill="#e27f4d"/><path d="m161.481 153.535v-25.42c-3.164-9.252-4.881-19.174-4.881-29.498 0-50.322 40.794-91.117 91.117-91.117 50.322 0 91.117 40.794 91.117 91.117 0 1.657-.044 3.304-.132 4.939v49.979z" fill="#92b0ea"/><path d="m247.717 7.5c-3.87 0-7.684.243-11.427.712 44.929 5.622 79.69 43.953 79.69 90.405 0 1.657-.044 3.304-.132 4.939v49.979h22.854v-49.979c.087-1.635.132-3.282.132-4.939-.001-50.323-40.795-91.117-91.117-91.117z" fill="#7691ea"/><path d="m363.215 268.782v-12.782c15.742-17.586 25.319-40.806 25.319-66.267 0-54.897-44.503-99.4-99.4-99.4-20.672 0-39.868 6.314-55.77 17.114v161.335z" fill="#e28bd2"/><path d="m289.133 90.333c-3.899 0-7.745.226-11.527.663 49.492 5.689 87.927 47.721 87.927 98.737 0 25.46-9.577 48.68-25.318 66.267v12.782h23v-12.782c15.742-17.586 25.318-40.806 25.318-66.267 0-54.897-44.503-99.4-99.4-99.4z" fill="#de6fba"/><g><g><g><path d="m136.773 268.782v-12.782c-8.459-14.621-13.306-31.593-13.306-49.7 0-54.897 44.503-99.4 99.4-99.4s99.4 44.503 99.4 99.4c0 18.106-4.843 35.079-13.301 49.7v12.782z" fill="#f3ffff"/></g><g><path d="m222.867 106.9c-3.859 0-7.665.228-11.409.656 49.523 5.66 87.991 47.707 87.991 98.744 0 18.106-4.843 35.079-13.301 49.7v12.782h22.818v-12.782c8.458-14.621 13.301-31.594 13.301-49.7 0-54.897-44.503-99.4-99.4-99.4z" fill="#dff9f9"/></g></g></g><path d="m140.033 289.133c-9.149 0-16.567-7.417-16.567-16.567v-8.283c0-4.575 3.709-8.283 8.283-8.283h248.5c4.575 0 8.283 3.709 8.283 8.283v8.283c0 9.15-7.417 16.567-16.567 16.567z" fill="#e59f4f"/><path d="m380.25 256h-23c4.575 0 8.283 3.709 8.283 8.283v8.283c0 9.15-7.417 16.567-16.567 16.567h23c9.149 0 16.566-7.417 16.566-16.567v-8.283c.001-4.574-3.707-8.283-8.282-8.283z" fill="#e27f4d"/><path d="m289.133 239.433v82.833c0 9.15-7.417 16.567-16.567 16.567s-16.567-7.417-16.567-16.567v-16.566c0-9.15-7.417-16.567-16.567-16.567s-16.567 7.417-16.567 16.567v33.133c0 9.15-7.417 16.567-16.567 16.567s-16.567-7.417-16.567-16.567v-99.4z" fill="#f3ffff"/><g fill="#dff9f9"><path d="m216.406 289.133c-9.15 0-16.567 7.417-16.567 16.567v33.133c0 4.672-1.942 8.885-5.053 11.897 2.981 2.886 7.036 4.67 11.514 4.67 9.149 0 16.567-7.417 16.567-16.567v-33.133c0-4.672 1.942-8.885 5.053-11.897-2.982-2.886-7.037-4.67-11.514-4.67z"/><path d="m277.62 239.433c-6.359 0-11.514 5.155-11.514 11.514v71.32c0 4.672-1.942 8.885-5.053 11.897 3.042 2.944 7.201 4.741 11.785 4.668 9.113-.147 16.295-7.873 16.295-16.987v-70.897c0-6.36-5.155-11.515-11.513-11.515z"/></g></g><g><path d="m380.25 248.5h-1.838c11.434-17.349 17.622-37.724 17.622-58.767 0-37.925-19.854-71.297-49.711-90.278.002-.28.011-.56.011-.839-.001-54.377-44.24-98.616-98.617-98.616-20.695 0-40.506 6.341-57.29 18.339-3.37 2.409-4.148 7.093-1.74 10.463 2.407 3.369 7.092 4.149 10.463 1.74 14.224-10.167 31.019-15.542 48.567-15.542 43.665 0 79.598 33.65 83.283 76.377-12.865-5.497-27.016-8.544-41.867-8.544-20.59 0-40.469 5.848-57.686 16.911-2.831-.226-5.692-.345-8.58-.345-20.932 0-40.475 6.052-56.98 16.492-1.187-5.651-1.788-11.429-1.788-17.275 0-17.411 5.297-34.096 15.318-48.253 2.393-3.381 1.593-8.062-1.788-10.455-3.38-2.394-8.062-1.592-10.454 1.788-11.824 16.705-18.075 36.388-18.075 56.921 0 9.182 1.272 18.227 3.752 26.967-22.583 19.615-36.885 48.526-36.885 80.716 0 15.076 3.195 29.956 9.294 43.612-5.472 2.481-9.294 7.983-9.294 14.371v8.284c0 13.27 10.796 24.066 24.066 24.066h3.435l56.646 125.783c1.251 2.777 3.982 4.422 6.843 4.422 1.03 0 2.076-.213 3.076-.664 3.776-1.701 5.459-6.141 3.759-9.918l-3.138-6.968 104.084-29.738-26.187 58.148-57.68 16.48-4.584-10.178c-1.701-3.777-6.142-5.459-9.919-3.759-3.776 1.701-5.459 6.141-3.759 9.918l21.734 48.261c.042.092.085.184.131.274 4.103 8.208 12.351 13.306 21.526 13.306s17.423-5.098 21.525-13.304c.046-.091.089-.182.131-.274l90.875-201.789h3.435c13.271 0 24.066-10.796 24.066-24.066v-8.284c.001-8.703-7.079-15.783-15.782-15.783zm-91.117-150.666c50.674 0 91.9 41.226 91.9 91.9 0 21.546-7.539 42.28-21.272 58.767h-38.674c5.694-13.265 8.679-27.638 8.679-42.2 0-47.725-31.439-88.242-74.693-101.938 10.752-4.296 22.269-6.529 34.06-6.529zm-66.266 16.566c50.674 0 91.899 41.226 91.899 91.9 0 14.725-3.542 29.221-10.257 42.2h-7.877v-.783c0-4.142-3.357-7.5-7.5-7.5s-7.5 3.358-7.5 7.5v64.903.013 9.634c0 5-4.067 9.067-9.066 9.067s-9.066-4.067-9.066-9.067v-16.567c0-13.27-10.796-24.067-24.066-24.067s-24.066 10.796-24.066 24.067v33.133c0 4.999-4.067 9.066-9.067 9.066-4.999 0-9.066-4.067-9.066-9.066v-99.4c0-4.142-3.357-7.5-7.5-7.5s-7.5 3.358-7.5 7.5v9.067h-41.005c-6.718-12.982-10.261-27.479-10.261-42.2-.002-50.674 41.224-91.9 91.898-91.9zm73.766 182.233h21.783l-21.783 6.224zm-66.266 25.157v-16.09c0-4.999 4.067-9.067 9.066-9.067s9.066 4.067 9.066 9.067v10.909zm-99.4-49.223v-8.284c0-.432.352-.783.783-.783h50.483v18.133h-42.2c-4.999 0-9.066-4.067-9.066-9.066zm51.266 24.066v38.91l-4.245 1.213-18.069-40.122h22.314zm22.196 98.835-20.216-44.89.937-.268c4.082 7.494 12.032 12.59 21.149 12.59 13.27 0 24.067-10.796 24.067-24.066v-1.443l20.044-5.727c3.667 8.615 12.217 14.67 22.155 14.67 13.271 0 24.066-10.796 24.066-24.067v-3.809l52.355-14.958-26.187 58.148zm59.621 96.636c-1.585 3.068-4.585 4.896-8.05 4.896s-6.465-1.827-8.05-4.896l-10.855-24.103 43.393-12.398zm116.983-219.537c0 4.999-4.067 9.066-9.066 9.066h-75.334v-18.133h12.303c.007 0 .015.001.023.001s.015-.001.023-.001h71.268c.432 0 .783.352.783.783z"/><path d="m205.517 73.767c0-4.999 4.067-9.066 9.066-9.066 5 0 9.067 4.067 9.067 9.066 0 4.142 3.357 7.5 7.5 7.5s7.5-3.358 7.5-7.5c0-13.27-10.797-24.066-24.067-24.066s-24.066 10.796-24.066 24.066c0 4.142 3.357 7.5 7.5 7.5 4.142 0 7.5-3.358 7.5-7.5z"/><path d="m156.6 213.8c4.143 0 7.5-3.358 7.5-7.5 0-4.999 4.067-9.066 9.067-9.066 4.999 0 9.066 4.067 9.066 9.066 0 4.142 3.357 7.5 7.5 7.5s7.5-3.358 7.5-7.5c0-13.27-10.796-24.066-24.066-24.066-13.271 0-24.067 10.796-24.067 24.066 0 4.142 3.357 7.5 7.5 7.5z"/><path d="m189.733 172.383c4.143 0 7.5-3.358 7.5-7.5 0-4.999 4.067-9.066 9.066-9.066 5 0 9.067 4.067 9.067 9.066 0 4.142 3.357 7.5 7.5 7.5s7.5-3.358 7.5-7.5c0-13.271-10.797-24.066-24.067-24.066-13.271 0-24.066 10.796-24.066 24.066 0 4.142 3.358 7.5 7.5 7.5z"/></g></g></svg>