<svg id="Capa_1" enable-background="new 0 0 512 512" height="512" viewBox="0 0 512 512" width="512" xmlns="http://www.w3.org/2000/svg"><g><g><g><path d="m275.279 504.5h-38.559c-2.761 0-5-2.239-5-5v-164.872h48.559v164.872c0 2.762-2.238 5-5 5z" fill="#e9a761"/></g><g><path d="m163.997 500.449 32.704-169.129h-43.734l-32.337 167.231c-.597 3.085 1.767 5.949 4.909 5.949h33.549c2.396 0 4.455-1.699 4.909-4.051z" fill="#e9a761"/></g><g><path d="m280.279 382.44v-47.812h-48.559v164.872c0 2.761 2.239 5 5 5h18.24c-2.761 0-5-2.239-5-5v-117.06z" fill="#e69642"/></g><g><path d="m161.322 382.44h25.494l9.885-51.12h-43.734l-32.337 167.231c-.597 3.085 1.767 5.949 4.909 5.949h18.24c-3.142 0-5.506-2.864-4.909-5.949z" fill="#e69642"/></g><g><path d="m470.53 311.81h-429.06v-284.31c0-11.046 8.954-20 20-20h389.06c11.046 0 20 8.954 20 20z" fill="#e9a761"/></g><g><path d="m82.749 7.5h-21.279c-11.046 0-20 8.954-20 20v284.31h21.279v-284.31c0-11.045 8.955-20 20-20z" fill="#e69642"/></g><g><path d="m348.003 500.449-32.704-169.129h43.734l32.337 167.231c.597 3.085-1.767 5.949-4.909 5.949h-33.549c-2.396 0-4.455-1.699-4.909-4.051z" fill="#e9a761"/></g><g><path d="m366.243 500.449-22.819-118.009h25.494l-9.885-51.12h-43.734l32.704 169.129c.455 2.352 2.514 4.051 4.909 4.051h18.24c-2.396 0-4.454-1.699-4.909-4.051z" fill="#e69642"/></g><g><path d="m78.99 270.73v-222.15c0-2.761 2.239-5 5-5h344.02c2.761 0 5 2.239 5 5v222.15c0 2.761-2.239 5-5 5h-344.02c-2.761 0-5-2.238-5-5z" fill="#365f7e"/></g><g><path d="m103.27 270.73v-222.15c0-2.761 2.239-5 5-5h-24.28c-2.761 0-5 2.239-5 5v222.15c0 2.761 2.239 5 5 5h24.279c-2.761 0-4.999-2.238-4.999-5z" fill="#2c4d66"/></g><g><path d="m486.2 361.2h-460.4c-5.523 0-10-4.477-10-10v-29.39c0-5.523 4.477-10 10-10h460.4c5.523 0 10 4.477 10 10v29.39c0 5.523-4.477 10-10 10z" fill="#e1761c"/></g><g><path d="m40.079 351.2v-29.39c0-5.523 4.477-10 10-10h-24.279c-5.523 0-10 4.477-10 10v29.39c0 5.523 4.477 10 10 10h24.279c-5.522 0-10-4.477-10-10z" fill="#d76718"/></g><g><path d="m224.431 311.81h-103.893v-38.962c0-8.284 6.716-15 15-15h73.893c8.284 0 15 6.716 15 15z" fill="#b3dafe"/></g><g><path d="m154.858 257.848h-19.32c-8.284 0-15 6.716-15 15v38.962h19.32v-38.962c0-8.284 6.716-15 15-15z" fill="#8ac9fe"/></g></g><g><path d="m41.47 181.513c4.142 0 7.5-3.358 7.5-7.5v-146.513c0-6.893 5.607-12.5 12.5-12.5h389.06c6.893 0 12.5 5.607 12.5 12.5v106.06c0 4.142 3.358 7.5 7.5 7.5s7.5-3.358 7.5-7.5v-106.06c0-15.164-12.336-27.5-27.5-27.5h-389.06c-15.164 0-27.5 12.336-27.5 27.5v146.513c0 4.142 3.358 7.5 7.5 7.5z"/><path d="m486.2 304.311h-8.17v-134.271c0-4.142-3.358-7.5-7.5-7.5s-7.5 3.358-7.5 7.5v134.271h-231.099v-21.08h196.079c6.893 0 12.5-5.607 12.5-12.5v-222.151c0-6.893-5.607-12.5-12.5-12.5h-344.019c-6.893 0-12.5 5.607-12.5 12.5v222.15c0 6.893 5.607 12.5 12.5 12.5h29.047v21.08h-64.068v-90.35c0-4.142-3.358-7.5-7.5-7.5s-7.5 3.358-7.5 7.5v90.351h-8.17c-9.649 0-17.5 7.851-17.5 17.5v29.39c0 9.649 7.851 17.5 17.5 17.5h112.3l-24.833 128.427c-.711 3.676.248 7.44 2.631 10.329 2.383 2.888 5.897 4.544 9.642 4.544h33.549c5.976 0 11.137-4.259 12.272-10.126 0 0 0 0 0-.001l25.751-133.174h27.108v130.8c0 6.893 5.607 12.5 12.5 12.5h38.559c6.893 0 12.5-5.607 12.5-12.5v-130.8h27.108l25.751 133.173v.001c1.135 5.867 6.296 10.126 12.272 10.126h33.549c3.744 0 7.259-1.656 9.642-4.544s3.342-6.653 2.631-10.329l-24.832-128.427h112.3c9.649 0 17.5-7.851 17.5-17.5v-29.39c0-9.649-7.85-17.499-17.5-17.499zm-358.162 0v-31.462c0-4.136 3.364-7.5 7.5-7.5h73.893c4.136 0 7.5 3.364 7.5 7.5v31.462zm-41.547-36.081v-217.15h339.019v217.15h-194.058c-2.136-10.199-11.197-17.882-22.021-17.882h-73.893c-10.824 0-19.885 7.683-22.021 17.882zm70.534 228.77h-28.456l24.809-128.3h28.456zm115.754 0h-33.559v-128.3h33.559zm110.652 0h-28.456l-24.809-128.3h28.456zm105.269-145.8c0 1.378-1.122 2.5-2.5 2.5h-460.4c-1.378 0-2.5-1.122-2.5-2.5v-29.39c0-1.378 1.122-2.5 2.5-2.5h460.4c1.378 0 2.5 1.122 2.5 2.5z"/></g></g></svg>