<svg id="Capa_1" enable-background="new 0 0 512.008 512.008" height="512" viewBox="0 0 512.008 512.008" width="512" xmlns="http://www.w3.org/2000/svg"><g><g><path d="m187.729 437.55 181.187 65.947c8.598 3.129 18.104-1.304 21.234-9.901l113.323-311.352c3.129-8.598-1.304-18.104-9.901-21.234l-105.034-38.229z" fill="#f3ffff"/><path d="m236.167 419.92 89.451 32.557c3.666 1.335 7.768-.07 9.837-3.377 7.089-11.335 21.144-17.994 34.555-16.097 3.854.545 7.557-1.71 8.888-5.368l73.557-202.095c1.331-3.658-.055-7.766-3.358-9.826-11.493-7.167-17.978-21.302-16.123-34.542.541-3.864-1.699-7.576-5.365-8.911l-39.071-14.221z" fill="#dc3d36"/><path d="m493.571 161.01-20.934-7.619c7.212 3.801 10.702 12.424 7.836 20.299l-113.323 311.35c-3.129 8.598-12.636 13.031-21.234 9.901l23 8.554c8.598 3.129 18.104-1.304 21.234-9.901l113.323-311.352c3.129-8.596-1.304-18.103-9.902-21.232z" fill="#dff9f9"/><path d="m449.097 215.714c-11.493-7.167-17.978-21.302-16.123-34.542.541-3.864-1.699-7.576-5.365-8.911l-39.071-14.221-4.02 6.908 20.09 7.312c3.666 1.335 5.906 5.047 5.365 8.911-1.855 13.24 4.63 27.375 16.123 34.542 3.303 2.06 4.689 6.167 3.358 9.826l-73.557 202.095c-1.331 3.658-5.033 5.914-8.888 5.368-12.952-1.832-26.485 4.331-33.783 14.964l12.391 4.51c3.666 1.335 7.768-.07 9.837-3.377 7.089-11.335 21.143-17.994 34.555-16.097 3.855.545 7.557-1.71 8.888-5.368l73.557-202.095c1.332-3.658-.054-7.765-3.357-9.825z" fill="#b13d49"/><path d="m365.563 371.97c-1.334 1.04-2.85 1.891-4.525 2.501l-217.946 79.326c-8.598 3.129-18.104-1.304-21.234-9.901l-113.323-311.352c-3.129-8.598 1.304-18.104 9.902-21.234l105.034-38.229z" fill="#dff9f9"/><path d="m123.471 351.451-63.917-175.612c-1.331-3.658.055-7.766 3.358-9.826 11.493-7.167 17.978-21.302 16.123-34.542-.541-3.864 1.699-7.576 5.365-8.911l39.071-14.221 28.147 119.689z" fill="#b13d49"/><path d="m271.042 371.967-84.652 30.811c-3.666 1.334-7.768-.07-9.837-3.377-7.089-11.335-21.144-17.994-34.555-16.097-3.855.545-7.557-1.71-8.888-5.368l-3.524-9.682z" fill="#b13d49"/><g><path d="m388.538 355.4c0 9.15-7.417 16.567-16.567 16.567h-231.933c-9.149 0-16.567-7.417-16.567-16.567v-331.333c0-9.149 7.417-16.567 16.567-16.567h231.933c9.15 0 16.567 7.417 16.567 16.567z" fill="#f3ffff"/><path d="m310.667 184.117-47.403-73.267c-3.407-5.267-11.112-5.267-14.52 0l-47.402 73.267c-3.703 5.507-5.865 12.136-5.866 19.272-.001 19.083 15.757 34.727 34.84 34.589 2.162-.016 4.277-.231 6.327-.628 2.466-.477 4.556 1.812 3.761 4.195l-8.444 25.331c-.933 2.8 1.151 5.691 4.102 5.691h39.884c2.951 0 5.035-2.891 4.102-5.691l-8.444-25.331c-.794-2.383 1.295-4.672 3.761-4.195 2.05.397 4.164.612 6.327.628 19.083.138 34.842-15.506 34.84-34.589 0-7.135-2.162-13.765-5.865-19.272z" fill="#413e82"/><path d="m388.537 24.067c0-9.15-7.417-16.567-16.567-16.567h-22.974c9.15 0 16.567 7.417 16.567 16.567v331.333c0 9.15-7.417 16.567-16.567 16.567h22.974c9.149 0 16.567-7.417 16.567-16.567z" fill="#dff9f9"/><path d="m310.667 184.117-47.402-73.267c-3.407-5.267-11.113-5.267-14.52 0l-4.24 6.553 43.162 66.714c3.703 5.507 5.865 12.136 5.866 19.272.001 19.083-15.757 34.727-34.84 34.589-2.162-.016-4.277-.231-6.327-.628-2.466-.477-4.556 1.812-3.761 4.195l8.444 25.331c.933 2.799-1.15 5.691-4.101 5.691h23c2.951 0 5.035-2.891 4.102-5.691l-8.444-25.331c-.794-2.383 1.295-4.672 3.761-4.195 2.05.397 4.164.612 6.327.628 19.083.138 34.842-15.506 34.84-34.589-.002-7.135-2.164-13.765-5.867-19.272z" fill="#2f2c59"/></g></g><g><path d="m496.137 153.962-100.1-36.433v-93.462c0-13.271-10.796-24.067-24.066-24.067h-180.708c-4.143 0-7.5 3.358-7.5 7.5s3.357 7.5 7.5 7.5h180.708c4.999 0 9.066 4.067 9.066 9.067v331.333c0 5-4.067 9.067-9.066 9.067h-231.934c-4.999 0-9.066-4.067-9.066-9.067v-331.333c0-5 4.067-9.067 9.066-9.067h21.226c4.143 0 7.5-3.358 7.5-7.5s-3.357-7.5-7.5-7.5h-21.226c-13.271 0-24.066 10.796-24.066 24.067v43.762l-100.1 36.433c-12.47 4.539-18.922 18.376-14.384 30.847l92.785 254.924c1.108 3.046 3.984 4.937 7.049 4.937.852 0 1.718-.146 2.564-.454 3.892-1.417 5.9-5.721 4.482-9.613l-92.784-254.924c-1.71-4.698.721-9.912 5.419-11.621l94.969-34.565v19.297l-34.137 12.425c-6.952 2.53-11.253 9.68-10.227 16.999 1.46 10.418-3.748 21.578-12.665 27.138-6.264 3.907-8.971 11.795-6.437 18.754l63.465 174.369v2.626c0 6.704 2.758 12.773 7.195 17.141l2.897 7.958c2.533 6.962 9.673 11.264 16.986 10.23 10.399-1.474 21.566 3.729 27.145 12.649 2.935 4.69 8.093 7.388 13.416 7.388 1.789 0 3.597-.305 5.345-.941l83.41-30.358h53.017l-91.715 33.382c-.004.002-.009.003-.013.005l-48.421 17.624c-.007.003-.015.005-.022.008l-44.684 16.264c-2.274.829-4.737.721-6.933-.302-2.194-1.024-3.859-2.841-4.688-5.117l-10.278-28.238c-1.417-3.892-5.722-5.9-9.613-4.482-3.892 1.417-5.899 5.721-4.482 9.613l10.278 28.237c2.198 6.041 6.618 10.864 12.444 13.581 3.235 1.509 6.689 2.268 10.156 2.268 2.775 0 5.56-.486 8.246-1.464l42.072-15.313 178.622 65.013c2.686.978 5.469 1.464 8.245 1.464 3.467 0 6.921-.759 10.156-2.268 5.826-2.717 10.246-7.54 12.444-13.581l113.323-311.352c4.541-12.472-1.911-26.309-14.381-30.848zm-51.009 68.116c.285.178.403.555.278.897l-49.759 136.712c.251-1.392.39-2.823.39-4.287v-186.648l29.007 10.557c.34.124.551.469.501.822-2.291 16.357 5.579 33.214 19.583 41.947zm-378.527-48.805c-.124-.341-.006-.718.279-.896 14.004-8.732 21.874-25.589 19.583-41.948-.05-.352.161-.697.502-.821l29.006-10.557v189.864zm117.223 222.457c-.341.121-.725-.005-.913-.308-4.408-7.047-10.868-12.535-18.281-15.956h63.877zm188.147-16.263c8.943 0 16.757-4.907 20.905-12.167l-21.026 57.77c-.124.342-.456.555-.789.507-16.345-2.312-33.205 5.543-41.964 19.545-.189.302-.573.433-.913.308l-70.087-25.51 105.508-38.402c1.487-.542 2.9-1.239 4.242-2.051zm124.454-199.789-113.323 311.352c-.828 2.275-2.493 4.092-4.688 5.116-2.195 1.023-4.656 1.131-6.933.303l-161.822-58.899 26.508-9.648 86.886 31.624c1.749.636 3.556.941 5.345.941 5.323 0 10.482-2.699 13.416-7.389 5.578-8.918 16.736-14.119 27.146-12.648 7.313 1.038 14.453-3.268 16.986-10.23l73.556-202.094c2.535-6.96-.172-14.848-6.436-18.756-8.916-5.56-14.125-16.719-12.665-27.136 1.026-7.321-3.274-14.47-10.227-17l-34.137-12.425v-19.296l94.969 34.565c4.698 1.709 7.129 6.922 5.419 11.62z"/><path d="m269.561 106.776c-2.988-4.619-8.056-7.376-13.557-7.376s-10.568 2.757-13.557 7.376l-47.368 73.215c-4.646 6.935-7.102 15.023-7.104 23.397-.001 11.242 4.43 21.834 12.477 29.824 8.049 7.991 18.67 12.322 29.917 12.267.274-.002.548-.007.822-.014l-6.347 19.042c-1.198 3.596-.59 7.578 1.626 10.652s5.802 4.909 9.591 4.909h39.885c3.789 0 7.375-1.835 9.591-4.909 2.216-3.075 2.824-7.057 1.626-10.654l-6.347-19.04c.274.007.548.012.822.014 11.268.094 21.869-4.275 29.917-12.267 8.047-7.99 12.478-18.581 12.477-29.824-.001-8.373-2.457-16.462-7.103-23.397zm31.426 115.791c-5.143 5.106-11.898 7.912-19.043 7.912-.066 0-.131-.001-.197-.001-1.664-.012-3.332-.177-4.955-.491-3.766-.731-7.676.602-10.198 3.477-2.536 2.891-3.322 6.799-2.103 10.453l7.05 21.15h-31.07l7.049-21.149c1.22-3.655.434-7.563-2.103-10.455-2.522-2.875-6.433-4.208-10.196-3.477-1.625.314-3.293.479-4.957.491-.066.001-.132.001-.197.001-7.144 0-13.9-2.805-19.043-7.912-5.189-5.152-8.047-11.963-8.046-19.178.001-5.406 1.588-10.622 4.59-15.087.025-.037.05-.074.073-.111l47.402-73.268c.449-.695 1.477-.696 1.926.001l47.402 73.267c.023.037.048.074.073.111 3.002 4.465 4.589 9.682 4.59 15.087-.001 7.216-2.858 14.027-8.047 19.179z"/><path d="m168.257 38.664-18.662 49c-1.475 3.871.469 8.204 4.34 9.678.878.335 1.78.493 2.668.493 3.021 0 5.87-1.84 7.01-4.833l2.808-7.373h19.631l2.774 7.352c1.462 3.876 5.79 5.833 9.665 4.369 3.875-1.462 5.831-5.79 4.368-9.665l-18.492-49.002c-.025-.068-.052-.136-.08-.204-1.335-3.249-4.466-5.346-7.979-5.346-.002 0-.004 0-.006 0-3.515.002-6.646 2.106-7.977 5.358-.023.058-.046.115-.068.173zm12.134 31.966h-8.258l4.148-10.891z"/><path d="m313.517 282.116c-3.875 1.462-5.831 5.79-4.368 9.665l18.492 49.003c.025.068.052.136.08.204 1.335 3.248 4.466 5.346 7.978 5.346h.006c3.515-.002 6.647-2.105 7.979-5.357.023-.057.046-.115.068-.173l18.662-49c1.475-3.871-.469-8.204-4.34-9.678-3.866-1.475-8.203.468-9.678 4.339l-2.808 7.373h-19.631l-2.774-7.352c-1.463-3.876-5.789-5.832-9.666-4.37zm26.358 26.721-4.148 10.891-4.11-10.891z"/></g></g></svg>