<svg id="Capa_1" enable-background="new 0 0 512 512" height="512" viewBox="0 0 512 512" width="512" xmlns="http://www.w3.org/2000/svg"><g><g><g><path d="m405.1 389.97v-117.403c0-18.299 14.834-33.133 33.133-33.133h12.113v150.536z" fill="#e28367"/><path d="m339.514 289.106c18.141.364 32.453 15.637 32.453 33.781v41.072c0 1.72.277 3.428.821 5.06l4.568 13.705c1.947 5.842 9.361 7.592 13.715 3.238l37.458-37.457c6.214-6.214 9.704-14.641 9.704-23.429v-101.554c0-18.145 14.312-33.418 32.453-33.781 18.61-.373 33.813 14.601 33.813 33.126v145.046c0 13.181-5.236 25.823-14.557 35.143l-42.005 42.005c-6.214 6.214-9.705 14.641-9.705 23.429v27.726c0 4.575-3.708 8.283-8.283 8.283h-99.4c-4.575 0-8.283-3.709-8.283-8.283v-58.455c0-7.122-1.148-14.198-3.401-20.955l-11.465-34.396c-1.126-3.378-1.701-6.916-1.701-10.478v-49.7c.001-18.525 15.205-33.5 33.815-33.126z" fill="#eaaa85"/><g fill="#e28367"><path d="m348.967 322.921v61.437c0 3.439.555 6.856 1.642 10.119l3.747 11.242c1.947 5.842 9.361 7.592 13.715 3.238l22.972-22.971c-4.358 4.32-11.744 2.567-13.687-3.263l-4.568-13.705c-.544-1.631-.821-3.34-.821-5.059v-41.075c0-17.824-13.812-32.954-31.618-33.751-4.615-.207-9.029.542-13.074 2.049 12.739 4.805 21.692 17.385 21.692 31.739z"/><path d="m470.435 189.747c-3.698.101-7.227.831-10.51 2.07 12.597 4.692 21.575 16.819 21.575 31.05v145.046c0 13.181-5.236 25.823-14.557 35.143l-42.005 42.005c-6.214 6.214-9.705 14.641-9.705 23.429v27.726c0 4.575-3.708 8.283-8.283 8.283h23c4.575 0 8.283-3.709 8.283-8.283v-27.726c0-8.788 3.491-17.215 9.705-23.429l42.005-42.005c9.32-9.321 14.557-21.962 14.557-35.143v-145.046c0-18.609-15.34-33.634-34.065-33.12z"/></g></g><g><path d="m106.9 389.97v-117.403c0-18.299-14.834-33.133-33.133-33.133h-12.114v150.536z" fill="#e28367"/><path d="m172.486 289.106c-18.141.364-32.453 15.637-32.453 33.781v41.072c0 1.72-.277 3.428-.821 5.06l-4.568 13.705c-1.947 5.842-9.361 7.592-13.715 3.238l-37.458-37.457c-6.214-6.214-9.704-14.641-9.704-23.429v-101.554c0-18.145-14.312-33.418-32.453-33.781-18.611-.374-33.814 14.601-33.814 33.126v145.046c0 13.181 5.236 25.823 14.557 35.143l42.005 42.005c6.214 6.214 9.705 14.641 9.705 23.429v27.726c0 4.575 3.708 8.283 8.283 8.283h99.4c4.575 0 8.283-3.709 8.283-8.283v-58.455c0-7.122 1.148-14.198 3.401-20.955l11.465-34.396c1.126-3.378 1.701-6.916 1.701-10.478v-49.7c0-18.525-15.204-33.5-33.814-33.126z" fill="#eaaa85"/><path d="m172.486 289.105c-3.787.076-7.403.81-10.761 2.076 12.597 4.692 21.575 16.819 21.575 31.051v49.7c0 3.561-.574 7.099-1.701 10.478l-11.465 34.396c-2.252 6.757-3.4 13.833-3.4 20.955v58.455c0 4.575-3.709 8.283-8.283 8.283h23c4.575 0 8.283-3.709 8.283-8.283v-58.455c0-7.122 1.148-14.198 3.4-20.955l11.465-34.396c1.126-3.378 1.701-6.917 1.701-10.478v-49.7c0-18.525-15.204-33.5-33.814-33.127z" fill="#e28367"/></g><ellipse cx="380.25" cy="73.767" fill="#9eea4a" rx="66.267" ry="66.267" transform="matrix(.16 -.987 .987 .16 246.527 437.291)"/><ellipse cx="131.75" cy="73.767" fill="#f6df59" rx="66.267" ry="66.267" transform="matrix(.16 -.987 .987 .16 37.832 191.999)"/><ellipse cx="256" cy="222.867" fill="#dc3d36" rx="66.267" ry="66.267" transform="matrix(.16 -.987 .987 .16 -4.996 439.862)"/><path d="m380.25 7.5c-3.925 0-7.763.361-11.5 1.015 31.113 5.447 54.767 32.578 54.767 65.252s-23.653 59.804-54.767 65.252c3.737.654 7.575 1.015 11.5 1.015 36.598 0 66.267-29.669 66.267-66.267s-29.669-66.267-66.267-66.267z" fill="#7fdc3f"/><path d="m131.75 7.5c-3.925 0-7.763.361-11.5 1.015 31.113 5.447 54.767 32.578 54.767 65.252s-23.653 59.804-54.767 65.252c3.737.654 7.575 1.015 11.5 1.015 36.598 0 66.267-29.669 66.267-66.267s-29.669-66.267-66.267-66.267z" fill="#edbf50"/><path d="m256 156.6c-3.925 0-7.763.361-11.5 1.015 31.113 5.447 54.767 32.578 54.767 65.252s-23.653 59.804-54.767 65.251c3.737.654 7.575 1.015 11.5 1.015 36.598 0 66.267-29.668 66.267-66.267s-29.669-66.266-66.267-66.266z" fill="#b13d49"/></g><g><path d="m172.028 281.614c-21.777.598-39.495 19.128-39.495 41.308v42.416l-5.004 15.013c-.038.113-.138.415-.563.515-.422.105-.65-.124-.733-.208l-11.833-11.833v-96.258c0-19.842-14.3-36.398-33.134-39.928v-9.083c0-22.18-17.718-40.71-39.496-41.308-11.082-.306-21.541 3.778-29.471 11.492-7.931 7.718-12.299 18.062-12.299 29.127v145.046c0 15.278 5.95 29.643 16.753 40.446l42.006 42.006c4.842 4.841 7.508 11.278 7.508 18.125v27.727c0 8.703 7.08 15.783 15.783 15.783h10.436c4.143 0 7.5-3.357 7.5-7.5s-3.357-7.5-7.5-7.5h-10.436c-.432 0-.783-.352-.783-.783v-27.727c0-10.854-4.227-21.058-11.9-28.732l-42.007-42.006c-7.97-7.97-12.36-18.567-12.36-29.839v-145.046c0-6.98 2.756-13.506 7.761-18.375 5.001-4.866 11.639-7.439 18.598-7.249 13.734.377 24.908 12.181 24.908 26.313v101.518c0 10.854 4.227 21.058 11.901 28.733l37.458 37.457c3.896 3.896 9.425 5.466 14.787 4.199 5.362-1.266 9.604-5.143 11.347-10.37l5.389-16.168c.255-.765.385-1.565.385-2.371v-43.633c0-14.133 11.173-25.936 24.907-26.314 6.994-.206 13.598 2.382 18.599 7.249 5.005 4.869 7.761 11.395 7.761 18.375v49.699c0 2.761-.442 5.487-1.315 8.105l-11.466 34.397c-2.512 7.536-3.785 15.384-3.785 23.326v58.456c0 .432-.352.783-.783.783h-59.5c-4.143 0-7.5 3.357-7.5 7.5s3.357 7.5 7.5 7.5h59.5c8.703 0 15.783-7.08 15.783-15.783v-58.456c0-6.327 1.015-12.58 3.016-18.583l11.466-34.396c1.384-4.151 2.085-8.475 2.085-12.85v-49.699c0-11.064-4.368-21.408-12.3-29.126-7.931-7.711-18.39-11.796-29.474-11.49zm-90.761 43.46v-77.019c10.486 3.215 18.133 12.986 18.133 24.512v81.258l-10.625-10.625c-4.841-4.842-7.508-11.279-7.508-18.126z"/><path d="m499.7 193.741c-7.93-7.715-18.377-11.791-29.471-11.492-21.778.598-39.496 19.128-39.496 41.308v9.083c-18.833 3.53-33.134 20.086-33.134 39.928v96.258l-11.831 11.831c-.085.084-.312.314-.734.208-.426-.1-.525-.401-.564-.514l-5.004-15.014v-42.416c0-22.18-17.718-40.71-39.495-41.308-11.073-.313-21.541 3.777-29.472 11.492-7.932 7.718-12.3 18.062-12.3 29.126v49.699c0 4.375.701 8.698 2.085 12.85l11.466 34.395c2.001 6.004 3.016 12.257 3.016 18.584v58.456c0 8.703 7.08 15.783 15.783 15.783h99.4c8.703 0 15.783-7.08 15.783-15.783v-27.725c0-6.847 2.666-13.284 7.508-18.125l42.006-42.006c10.804-10.803 16.754-25.168 16.754-40.446v-145.046c0-11.065-4.368-21.409-12.3-29.126zm-87.1 78.826c0-11.526 7.647-21.297 18.134-24.512v77.019c0 6.847-2.667 13.284-7.509 18.126l-10.625 10.625zm84.4 95.346c0 11.272-4.39 21.869-12.36 29.839l-42.006 42.006c-7.674 7.675-11.9 17.879-11.9 28.732v27.727c0 .432-.352.783-.783.783h-99.4c-.432 0-.783-.352-.783-.783v-58.456c0-7.942-1.273-15.79-3.785-23.327l-11.466-34.396c-.873-2.618-1.315-5.345-1.315-8.105v-49.699c0-6.98 2.756-13.506 7.761-18.375 4.828-4.697 11.15-7.259 17.871-7.259.242 0 .485.003.728.01 13.734.377 24.907 12.181 24.907 26.314v43.633c0 .806.13 1.606.385 2.371l5.389 16.169c1.742 5.227 5.984 9.104 11.347 10.369 5.361 1.268 10.891-.304 14.788-4.199l37.457-37.457c7.675-7.676 11.901-17.88 11.901-28.733v-101.52c0-14.133 11.174-25.936 24.908-26.313 6.993-.205 13.597 2.382 18.598 7.249 5.005 4.869 7.761 11.395 7.761 18.375v145.045z"/><path d="m380.25 147.533c40.675 0 73.767-33.092 73.767-73.767s-33.092-73.766-73.767-73.766-73.767 33.092-73.767 73.767 33.092 73.766 73.767 73.766zm0-132.533c32.404 0 58.767 26.362 58.767 58.767s-26.362 58.767-58.767 58.767-58.767-26.362-58.767-58.767 26.363-58.767 58.767-58.767z"/><path d="m131.75 147.533c40.675 0 73.767-33.092 73.767-73.767s-33.092-73.766-73.767-73.766c-13.836 0-27.325 3.855-39.012 11.149-3.514 2.193-4.584 6.819-2.391 10.334 2.192 3.514 6.819 4.582 10.334 2.391 9.301-5.806 20.045-8.874 31.069-8.874 32.404 0 58.767 26.362 58.767 58.767s-26.362 58.767-58.767 58.767-58.767-26.362-58.767-58.767c0-11.047 3.08-21.809 8.907-31.121 2.196-3.512 1.131-8.14-2.38-10.337-3.512-2.194-8.139-1.132-10.337 2.38-7.32 11.701-11.19 25.214-11.19 39.078 0 40.674 33.092 73.766 73.767 73.766z"/><path d="m329.767 222.867c0-40.676-33.092-73.768-73.767-73.768s-73.767 33.092-73.767 73.768c0 40.675 33.092 73.766 73.767 73.766s73.767-33.091 73.767-73.766zm-73.767 58.766c-32.404 0-58.767-26.362-58.767-58.766s26.362-58.768 58.767-58.768 58.767 26.363 58.767 58.768c0 32.403-26.363 58.766-58.767 58.766z"/><path d="m40.633 164.1c4.143 0 7.5-3.357 7.5-7.5v-49.7c0-4.143-3.357-7.5-7.5-7.5s-7.5 3.357-7.5 7.5v49.7c0 4.142 3.357 7.5 7.5 7.5z"/><path d="m471.367 164.1c4.143 0 7.5-3.357 7.5-7.5v-49.7c0-4.143-3.357-7.5-7.5-7.5s-7.5 3.357-7.5 7.5v49.7c0 4.142 3.358 7.5 7.5 7.5z"/><path d="m153.708 149.752c-3.822 1.597-5.626 5.989-4.028 9.812 3.958 9.473 9.183 18.392 15.529 26.509 1.479 1.893 3.685 2.881 5.913 2.881 1.615 0 3.243-.52 4.614-1.592 3.264-2.551 3.841-7.265 1.289-10.527-5.521-7.061-10.064-14.818-13.506-23.054-1.597-3.823-5.992-5.626-9.811-4.029z"/><path d="m348.509 153.714c-3.445 8.261-7.999 16.04-13.535 23.121-2.552 3.263-1.975 7.976 1.289 10.527 1.371 1.072 2.998 1.592 4.614 1.592 2.228 0 4.434-.989 5.913-2.881 6.364-8.14 11.601-17.085 15.562-26.586 1.595-3.823-.212-8.215-4.035-9.809-3.82-1.594-8.214.212-9.808 4.036z"/><path d="m214.088 23.464c.975 0 1.965-.191 2.918-.595 12.348-5.222 25.468-7.869 38.994-7.869 13.377 0 26.361 2.591 38.592 7.7 3.822 1.6 8.216-.206 9.811-4.028 1.597-3.822-.207-8.215-4.028-9.811-14.072-5.881-29.002-8.861-44.375-8.861-15.545 0-30.63 3.046-44.836 9.055-3.815 1.613-5.601 6.014-3.986 9.828 1.21 2.862 3.987 4.581 6.91 4.581z"/></g></g></svg>