<svg id="Capa_1" enable-background="new 0 0 512 512" height="512" viewBox="0 0 512 512" width="512" xmlns="http://www.w3.org/2000/svg"><g><g><path d="m231.15 425.337h49.7v71.163c0 4.418-3.582 8-8 8h-33.7c-4.418 0-8-3.582-8-8z" fill="#f3ffff"/><path d="m257.85 425.337v71.163c0 4.418-3.582 8-8 8h23c4.418 0 8-3.582 8-8v-71.163z" fill="#dff9f9"/><path d="m371.966 388.533v33.133c0 9.15-7.417 16.567-16.567 16.567h-198.799c-9.15 0-16.567-7.417-16.567-16.567v-33.133z" fill="#413e82"/><path d="m348.966 388.533v33.133c0 9.15-7.417 16.567-16.567 16.567h23c9.15 0 16.567-7.417 16.567-16.567v-33.133z" fill="#2f2c59"/><g><path d="m89.766 381.139v-9.172c-8.837 0-16-7.163-16-16v-332.467c0-8.837 7.163-16 16-16h332.467c8.837 0 16 7.163 16 16v332.467c0 8.837-7.163 16-16 16v9.172z" fill="#f6df59"/><g fill="#924af5"><path d="m381.555 272.04c-22.007 3.223-40.037 21.373-43.249 43.241-.592 4.03-4.104 6.986-8.177 6.986h-148.259c-4.073 0-7.585-2.955-8.177-6.986-3.211-21.868-21.241-40.018-43.249-43.241-4.027-.59-6.978-4.106-6.978-8.177v-148.26c0-4.071 2.95-7.587 6.978-8.177 22.007-3.223 40.037-21.373 43.249-43.241.592-4.03 4.104-6.986 8.177-6.986h148.259c4.073 0 7.586 2.955 8.177 6.986 3.211 21.868 21.241 40.018 43.249 43.241 4.028.59 6.978 4.106 6.978 8.177v148.26c0 4.071-2.95 7.587-6.978 8.177z"/><ellipse cx="123.466" cy="57.2" rx="16.567" ry="16.567" transform="matrix(.052 -.999 .999 .052 59.966 177.547)"/><ellipse cx="388.533" cy="57.2" rx="16.567" ry="16.567" transform="matrix(.033 -1 1 .033 318.616 443.647)"/><ellipse cx="123.466" cy="322.267" rx="16.567" ry="16.567" transform="matrix(.381 -.925 .925 .381 -221.539 313.834)"/><ellipse cx="388.533" cy="322.267" rx="16.567" ry="16.567" transform="matrix(.756 -.655 .655 .756 -116.139 333.231)"/></g><path d="m422.233 7.5h-23c8.836 0 16 7.163 16 16v332.467c0 8.837-7.164 16-16 16v9.172h23v-9.172c8.836 0 16-7.163 16-16v-332.467c0-8.837-7.163-16-16-16z" fill="#edbf50"/><path d="m381.555 107.427c-22.007-3.223-40.037-21.373-43.249-43.241-.592-4.03-4.104-6.986-8.177-6.986h-23c4.073 0 7.586 2.955 8.177 6.986 3.211 21.869 21.241 40.018 43.249 43.241 4.028.59 6.978 4.106 6.978 8.177v148.26c0 4.07-2.95 7.587-6.978 8.177-22.007 3.223-40.037 21.373-43.249 43.241-.592 4.03-4.104 6.986-8.177 6.986h23c4.074 0 7.586-2.955 8.177-6.986 3.211-21.868 21.241-40.018 43.249-43.241 4.028-.59 6.978-4.106 6.978-8.177v-148.26c0-4.071-2.95-7.587-6.978-8.177z" fill="#7536f9"/><path d="m388.533 40.633c-4.471 0-8.52 1.779-11.5 4.657 3.119 3.013 5.067 7.23 5.067 11.909s-1.947 8.897-5.067 11.909c2.98 2.878 7.029 4.657 11.5 4.657 9.15 0 16.567-7.417 16.567-16.567 0-9.147-7.417-16.565-16.567-16.565z" fill="#7536f9"/><path d="m388.533 305.701c-4.471 0-8.52 1.779-11.5 4.657 3.119 3.013 5.067 7.23 5.067 11.909s-1.947 8.897-5.067 11.909c2.98 2.878 7.029 4.657 11.5 4.657 9.15 0 16.567-7.417 16.567-16.567 0-9.148-7.417-16.565-16.567-16.565z" fill="#7536f9"/><path d="m123.466 40.633c-4.471 0-8.52 1.779-11.5 4.657 3.119 3.013 5.067 7.23 5.067 11.909s-1.947 8.897-5.067 11.909c2.98 2.878 7.029 4.657 11.5 4.657 9.149 0 16.567-7.417 16.567-16.567 0-9.147-7.417-16.565-16.567-16.565z" fill="#7536f9"/><path d="m123.466 305.701c-4.471 0-8.52 1.779-11.5 4.657 3.119 3.013 5.067 7.23 5.067 11.909s-1.947 8.897-5.067 11.909c2.98 2.878 7.029 4.657 11.5 4.657 9.149 0 16.567-7.417 16.567-16.567 0-9.148-7.417-16.565-16.567-16.565z" fill="#7536f9"/></g><path d="m310.662 184.117-47.402-73.267c-3.407-5.266-11.113-5.266-14.52 0l-47.402 73.267c-3.703 5.507-5.865 12.137-5.866 19.272-.001 19.083 15.757 34.727 34.84 34.589 2.162-.016 4.277-.231 6.327-.628 2.466-.477 4.556 1.812 3.761 4.195l-8.444 25.331c-.933 2.8 1.151 5.691 4.102 5.691h39.884c2.951 0 5.035-2.891 4.102-5.691l-8.444-25.331c-.794-2.383 1.295-4.672 3.761-4.195 2.05.397 4.164.613 6.327.628 19.083.138 34.842-15.506 34.84-34.589 0-7.135-2.163-13.765-5.866-19.272z" fill="#413e82"/><path d="m310.662 184.117-47.402-73.267c-3.407-5.266-11.113-5.266-14.52 0l-4.24 6.554 43.162 66.714c3.703 5.507 5.865 12.137 5.866 19.272.001 19.083-15.757 34.727-34.84 34.589-2.162-.016-4.277-.231-6.327-.628-2.466-.477-4.556 1.812-3.761 4.195l8.444 25.331c.933 2.8-1.151 5.691-4.102 5.691h23c2.951 0 5.035-2.891 4.102-5.691l-8.444-25.331c-.794-2.383 1.295-4.672 3.761-4.195 2.05.397 4.164.613 6.327.628 19.083.138 34.842-15.506 34.84-34.589 0-7.136-2.163-13.766-5.866-19.273z" fill="#2f2c59"/><path d="m338.833 31.567c4.143 0 7.5-3.358 7.5-7.5v-16.567h-15v16.567c0 4.142 3.357 7.5 7.5 7.5z" fill="#e59f4f"/><path d="m463.366 405.1h-414.733c-4.418 0-8-3.582-8-8v-17.133c0-4.418 3.582-8 8-8h414.733c4.418 0 8 3.582 8 8v17.133c0 4.418-3.581 8-8 8z" fill="#e59f4f"/><path d="m463.366 371.967h-23c4.418 0 8 3.582 8 8v17.133c0 4.418-3.582 8-8 8h23c4.418 0 8-3.582 8-8v-17.133c0-4.419-3.581-8-8-8z" fill="#e27f4d"/></g><g><path d="m463.367 364.467h-19.231c1.027-2.638 1.597-5.503 1.597-8.5v-332.467c0-12.958-10.542-23.5-23.5-23.5h-202.276c-4.142 0-7.5 3.358-7.5 7.5s3.358 7.5 7.5 7.5h111.376v9.067c0 4.142 3.357 7.5 7.5 7.5s7.5-3.358 7.5-7.5v-9.067h75.9c4.686 0 8.5 3.813 8.5 8.5v75.9h-9.066c-4.143 0-7.5 3.358-7.5 7.5s3.357 7.5 7.5 7.5h9.066v150.667h-9.066c-4.143 0-7.5 3.358-7.5 7.5s3.357 7.5 7.5 7.5h9.066v75.9c0 4.687-3.814 8.5-8.5 8.5h-75.9v-9.067c0-4.142-3.357-7.5-7.5-7.5s-7.5 3.358-7.5 7.5v9.067h-150.667v-9.067c0-4.142-3.358-7.5-7.5-7.5s-7.5 3.358-7.5 7.5v9.067h-75.9c-4.687 0-8.5-3.813-8.5-8.5v-75.9h9.067c4.142 0 7.5-3.358 7.5-7.5s-3.358-7.5-7.5-7.5h-9.067v-150.667h9.067c4.142 0 7.5-3.358 7.5-7.5s-3.358-7.5-7.5-7.5h-9.067v-75.9c0-4.687 3.813-8.5 8.5-8.5h75.9v9.067c0 4.142 3.358 7.5 7.5 7.5s7.5-3.358 7.5-7.5v-9.067h9.291c4.142 0 7.5-3.358 7.5-7.5s-3.358-7.5-7.5-7.5h-100.191c-12.958 0-23.5 10.542-23.5 23.5v332.467c0 2.997.57 5.862 1.597 8.5h-19.23c-8.547 0-15.5 6.953-15.5 15.5v17.133c0 8.547 6.953 15.5 15.5 15.5h25.133c4.142 0 7.5-3.358 7.5-7.5s-3.358-7.5-7.5-7.5h-25.133c-.276 0-.5-.224-.5-.5v-17.133c0-.276.224-.5.5-.5h414.734c.275 0 .5.224.5.5v17.133c0 .276-.225.5-.5.5h-359.601c-4.142 0-7.5 3.358-7.5 7.5s3.358 7.5 7.5 7.5h28.767v9.066c0 13.271 10.796 24.067 24.067 24.067h67.05v50.767c0 8.547 6.953 15.5 15.5 15.5h33.7c8.547 0 15.5-6.953 15.5-15.5v-50.767h67.05c13.271 0 24.066-10.796 24.066-24.067v-9.066h83.9c8.547 0 15.5-6.953 15.5-15.5v-17.133c.001-8.547-6.952-15.5-15.499-15.5zm-190.518 132.533h-33.7c-.276 0-.5-.224-.5-.5v-17.633h34.7v17.633c0 .276-.224.5-.5.5zm.5-33.133h-34.7v-18.133h34.7zm91.118-42.2c0 4.999-4.067 9.067-9.066 9.067h-198.801c-4.999 0-9.067-4.067-9.067-9.067v-9.067h216.934z"/><path d="m345.727 63.096c-1.122-7.637-7.827-13.396-15.597-13.396h-148.26c-7.771 0-14.476 5.759-15.598 13.396-2.74 18.656-18.265 34.179-36.916 36.91-7.634 1.118-13.391 7.824-13.391 15.598v148.26c0 7.774 5.757 14.48 13.391 15.598 18.651 2.732 34.176 18.254 36.916 36.91 1.122 7.637 7.827 13.396 15.598 13.396h148.26c7.77 0 14.476-5.759 15.598-13.396 2.739-18.656 18.265-34.179 36.915-36.91 7.634-1.118 13.391-7.824 13.391-15.598v-148.26c0-7.774-5.757-14.48-13.391-15.598-18.651-2.732-34.176-18.254-36.916-36.91zm35.306 52.508v148.26c0 .371-.253.71-.564.756-25.05 3.669-45.902 24.517-49.583 49.573-.047.322-.379.575-.756.575h-148.26c-.377 0-.709-.252-.757-.575-3.679-25.055-24.532-45.903-49.583-49.572-.311-.045-.564-.385-.564-.756v-148.26c0-.371.253-.71.564-.756 25.051-3.669 45.903-24.517 49.583-49.573.047-.322.38-.575.757-.575h148.26c.377 0 .709.252.757.575 3.68 25.055 24.532 45.903 49.582 49.572.311.045.564.384.564.756z"/><path d="m123.467 81.267c13.271 0 24.066-10.796 24.066-24.066 0-13.271-10.796-24.067-24.066-24.067s-24.067 10.796-24.067 24.066c0 13.271 10.796 24.067 24.067 24.067zm0-33.134c4.999 0 9.066 4.067 9.066 9.067 0 4.999-4.067 9.066-9.066 9.066s-9.067-4.067-9.067-9.066 4.067-9.067 9.067-9.067z"/><path d="m388.533 33.133c-13.271 0-24.066 10.796-24.066 24.067s10.796 24.066 24.066 24.066 24.066-10.796 24.066-24.066-10.796-24.067-24.066-24.067zm0 33.134c-4.999 0-9.066-4.067-9.066-9.066 0-5 4.067-9.067 9.066-9.067s9.066 4.067 9.066 9.067c0 4.998-4.067 9.066-9.066 9.066z"/><path d="m123.467 346.334c13.271 0 24.066-10.796 24.066-24.067s-10.796-24.066-24.066-24.066-24.067 10.795-24.067 24.066c0 13.27 10.796 24.067 24.067 24.067zm0-33.134c4.999 0 9.066 4.067 9.066 9.066s-4.067 9.067-9.066 9.067-9.067-4.067-9.067-9.067c0-4.998 4.067-9.066 9.067-9.066z"/><path d="m388.533 298.2c-13.271 0-24.066 10.796-24.066 24.066s10.796 24.067 24.066 24.067 24.066-10.796 24.066-24.067c0-13.27-10.796-24.066-24.066-24.066zm0 33.134c-4.999 0-9.066-4.067-9.066-9.067 0-4.999 4.067-9.066 9.066-9.066s9.066 4.067 9.066 9.066-4.067 9.067-9.066 9.067z"/><path d="m269.556 106.776c-2.988-4.619-8.056-7.376-13.557-7.376s-10.569 2.757-13.557 7.376l-47.369 73.214c-4.646 6.936-7.102 15.025-7.103 23.398-.001 11.242 4.431 21.834 12.478 29.824 7.975 7.919 18.478 12.268 29.608 12.267.103 0 .207 0 .309-.001.274-.002.548-.007.822-.014l-6.347 19.041c-1.198 3.595-.591 7.578 1.626 10.652 2.216 3.075 5.802 4.91 9.591 4.91h39.885c3.789 0 7.375-1.835 9.591-4.909 2.216-3.075 2.824-7.057 1.626-10.654l-6.348-19.04c.274.007.549.012.823.014 11.278.072 21.869-4.275 29.917-12.267 8.047-7.99 12.478-18.581 12.477-29.824-.001-8.374-2.457-16.462-7.103-23.397zm31.426 115.791c-5.144 5.106-11.898 7.912-19.043 7.912-.065 0-.131 0-.197-.001-1.664-.012-3.332-.177-4.955-.491-3.771-.732-7.675.602-10.197 3.475-2.536 2.891-3.323 6.798-2.105 10.455l7.051 21.15h-31.07l7.05-21.15c1.218-3.655.432-7.563-2.104-10.454-2.521-2.874-6.43-4.203-10.196-3.477-1.625.314-3.293.48-4.957.492-7.208.05-14.05-2.757-19.24-7.911-5.189-5.152-8.047-11.963-8.046-19.178.001-5.405 1.587-10.622 4.59-15.087.024-.037.049-.073.073-.11l47.403-73.268c.45-.695 1.476-.696 1.926.001l47.402 73.267c.023.037.048.074.073.111 3.002 4.465 4.589 9.682 4.59 15.087-.001 7.214-2.858 14.025-8.048 19.177z"/></g></g></svg>