<svg id="Capa_1" enable-background="new 0 0 512 512" height="512" viewBox="0 0 512 512" width="512" xmlns="http://www.w3.org/2000/svg"><g><g><path d="m419.139 504.5h-353.033c-5.523 0-10-4.477-10-10v-477c0-5.523 4.477-10 10-10h353.033c5.523 0 10 4.477 10 10v477c0 5.523-4.477 10-10 10z" fill="#f6f1f1"/></g><g><path d="m77.706 494.5v-477c0-5.523 4.477-10 10-10h-21.6c-5.523 0-10 4.477-10 10v477c0 5.523 4.477 10 10 10h21.6c-5.522 0-10-4.477-10-10z" fill="#e2dfe2"/></g><g><path d="m429.139 41.24h-8.933c-23.405 0-42.447 19.042-42.447 42.447v245.82 49.688 3.028c0 7.256 1.486 14.299 4.417 20.932l18.774 42.517c4.927 11.158 15.992 18.368 28.189 18.368z" fill="#e2dfe2"/></g><g><path d="m75.658 84.345h-39.103c-5.523 0-10-4.477-10-10v-10.991c0-5.523 4.477-10 10-10h39.104c5.523 0 10 4.477 10 10v10.991c-.001 5.523-4.478 10-10.001 10z" fill="#e58e82"/></g><g><path d="m75.658 159.205h-39.103c-5.523 0-10-4.477-10-10v-10.991c0-5.523 4.477-10 10-10h39.104c5.523 0 10 4.477 10 10v10.991c-.001 5.523-4.478 10-10.001 10z" fill="#e58e82"/></g><g><path d="m75.658 234.066h-39.103c-5.523 0-10-4.477-10-10v-10.991c0-5.523 4.477-10 10-10h39.104c5.523 0 10 4.477 10 10v10.991c-.001 5.522-4.478 10-10.001 10z" fill="#e58e82"/></g><g><path d="m75.658 308.926h-39.103c-5.523 0-10-4.477-10-10v-10.991c0-5.523 4.477-10 10-10h39.104c5.523 0 10 4.477 10 10v10.991c-.001 5.523-4.478 10-10.001 10z" fill="#e58e82"/></g><g><path d="m75.658 383.786h-39.103c-5.523 0-10-4.477-10-10v-10.991c0-5.523 4.477-10 10-10h39.104c5.523 0 10 4.477 10 10v10.991c-.001 5.523-4.478 10-10.001 10z" fill="#e58e82"/></g><g><path d="m402.759 121.92v-38.233c0-9.636 7.811-17.447 17.447-17.447h17.866c9.636 0 17.447 7.811 17.447 17.447v38.233z" fill="#b3dafe"/></g><g><path d="m402.759 354.508v27.716c0 3.731.778 7.421 2.285 10.833l18.775 42.517c2.041 4.622 8.599 4.622 10.64 0l18.775-42.517c1.507-3.413 2.285-7.103 2.285-10.833v-27.716z" fill="#b5adb7"/></g><g><path d="m402.759 121.92h52.761v232.275h-52.761z" fill="#365f7e"/></g><g><path d="m436.766 66.24h-16.56c-9.636 0-17.448 7.811-17.448 17.447v38.233h16.56v-38.233c.001-9.636 7.812-17.447 17.448-17.447z" fill="#8ac9fe"/></g><g><path d="m421.604 393.057c-1.507-3.413-2.285-7.103-2.285-10.833v-27.716h-16.56v27.716c0 3.731.778 7.421 2.286 10.833l18.775 42.517c2.041 4.622 8.599 4.622 10.64 0l2.96-6.703z" fill="#a59da7"/></g><g><path d="m402.759 121.92h16.56v232.275h-16.56z" fill="#2c4d66"/></g><g><path d="m75.658 458.646h-39.103c-5.523 0-10-4.477-10-10v-10.991c0-5.523 4.477-10 10-10h39.104c5.523 0 10 4.477 10 10v10.991c-.001 5.523-4.478 10-10.001 10z" fill="#e58e82"/></g><g fill="#e06c57"><path d="m42.355 74.345v-10.991c0-5.523 4.477-10 10-10h-15.8c-5.523 0-10 4.477-10 10v10.991c0 5.523 4.477 10 10 10h15.8c-5.523 0-10-4.477-10-10z"/><path d="m42.355 149.205v-10.991c0-5.523 4.477-10 10-10h-15.8c-5.523 0-10 4.477-10 10v10.991c0 5.523 4.477 10 10 10h15.8c-5.523 0-10-4.477-10-10z"/><path d="m42.355 224.065v-10.991c0-5.523 4.477-10 10-10h-15.8c-5.523 0-10 4.477-10 10v10.991c0 5.523 4.477 10 10 10h15.8c-5.523 0-10-4.477-10-10z"/><path d="m42.355 298.926v-10.991c0-5.523 4.477-10 10-10h-15.8c-5.523 0-10 4.477-10 10v10.991c0 5.523 4.477 10 10 10h15.8c-5.523 0-10-4.477-10-10z"/><path d="m42.355 373.786v-10.991c0-5.523 4.477-10 10-10h-15.8c-5.523 0-10 4.477-10 10v10.991c0 5.523 4.477 10 10 10h15.8c-5.523 0-10-4.477-10-10z"/><path d="m42.355 448.646v-10.991c0-5.523 4.477-10 10-10h-15.8c-5.523 0-10 4.477-10 10v10.991c0 5.523 4.477 10 10 10h15.8c-5.523 0-10-4.477-10-10z"/></g><g><path d="m429.139 466.34c-4.142 0-7.5 3.357-7.5 7.5v20.66c0 1.379-1.122 2.5-2.5 2.5h-353.032c-1.378 0-2.5-1.121-2.5-2.5v-28.354h12.052c9.649 0 17.5-7.851 17.5-17.5v-10.991c0-9.649-7.851-17.5-17.5-17.5h-12.052v-28.869h12.052c9.649 0 17.5-7.851 17.5-17.5v-10.991c0-9.649-7.851-17.5-17.5-17.5h-12.052v-28.869h12.052c9.649 0 17.5-7.851 17.5-17.5v-10.991c0-9.649-7.851-17.5-17.5-17.5h-12.052v-28.869h12.052c9.649 0 17.5-7.851 17.5-17.5v-10.991c0-9.649-7.851-17.5-17.5-17.5h-12.052v-28.869h12.052c9.649 0 17.5-7.851 17.5-17.5v-10.991c0-9.649-7.851-17.5-17.5-17.5h-12.052v-28.87h12.052c9.649 0 17.5-7.851 17.5-17.5v-10.991c0-9.649-7.851-17.5-17.5-17.5h-12.052v-28.354c0-1.379 1.122-2.5 2.5-2.5h353.033c1.378 0 2.5 1.121 2.5 2.5v15.7c0 4.143 3.358 7.5 7.5 7.5s7.5-3.357 7.5-7.5v-15.7c0-9.649-7.851-17.5-17.5-17.5h-353.033c-9.649 0-17.5 7.851-17.5 17.5v28.354h-12.052c-9.649 0-17.5 7.851-17.5 17.5v10.991c0 9.649 7.851 17.5 17.5 17.5h12.052v28.869h-12.052c-9.649 0-17.5 7.851-17.5 17.5v10.991c0 9.649 7.851 17.5 17.5 17.5h12.052v28.869h-12.052c-9.649 0-17.5 7.851-17.5 17.5v10.991c0 9.649 7.851 17.5 17.5 17.5h12.052v28.869h-12.052c-9.649 0-17.5 7.851-17.5 17.5v10.991c0 9.649 7.851 17.5 17.5 17.5h12.052v28.869h-12.052c-9.649 0-17.5 7.851-17.5 17.5v10.991c0 9.649 7.851 17.5 17.5 17.5h12.052v28.869h-12.052c-9.649 0-17.5 7.851-17.5 17.5v10.991c0 9.649 7.851 17.5 17.5 17.5h12.052v28.355c0 9.649 7.851 17.5 17.5 17.5h353.033c9.649 0 17.5-7.851 17.5-17.5v-20.66c-.001-4.143-3.359-7.5-7.501-7.5zm-395.084-391.995v-10.991c0-1.379 1.122-2.5 2.5-2.5h39.104c1.378 0 2.5 1.121 2.5 2.5v10.991c0 1.379-1.122 2.5-2.5 2.5h-39.104c-1.378 0-2.5-1.121-2.5-2.5zm0 74.86v-10.991c0-1.379 1.122-2.5 2.5-2.5h39.104c1.378 0 2.5 1.121 2.5 2.5v10.991c0 1.379-1.122 2.5-2.5 2.5h-39.104c-1.378 0-2.5-1.121-2.5-2.5zm0 74.86v-10.991c0-1.379 1.122-2.5 2.5-2.5h39.104c1.378 0 2.5 1.121 2.5 2.5v10.991c0 1.379-1.122 2.5-2.5 2.5h-39.104c-1.378 0-2.5-1.121-2.5-2.5zm0 74.861v-10.991c0-1.379 1.122-2.5 2.5-2.5h39.104c1.378 0 2.5 1.121 2.5 2.5v10.991c0 1.379-1.122 2.5-2.5 2.5h-39.104c-1.378 0-2.5-1.121-2.5-2.5zm0 74.86v-10.991c0-1.379 1.122-2.5 2.5-2.5h39.104c1.378 0 2.5 1.121 2.5 2.5v10.991c0 1.379-1.122 2.5-2.5 2.5h-39.104c-1.378 0-2.5-1.121-2.5-2.5zm0 74.86v-10.991c0-1.379 1.122-2.5 2.5-2.5h39.104c1.378 0 2.5 1.121 2.5 2.5v10.991c0 1.379-1.122 2.5-2.5 2.5h-39.104c-1.378 0-2.5-1.121-2.5-2.5z"/><path d="m360.883 56.671h-236.52c-4.142 0-7.5 3.357-7.5 7.5s3.358 7.5 7.5 7.5h236.52c4.142 0 7.5-3.357 7.5-7.5s-3.358-7.5-7.5-7.5z"/><path d="m360.883 99.3h-236.52c-4.142 0-7.5 3.357-7.5 7.5s3.358 7.5 7.5 7.5h236.52c4.142 0 7.5-3.357 7.5-7.5s-3.358-7.5-7.5-7.5z"/><path d="m360.883 141.928h-236.52c-4.142 0-7.5 3.357-7.5 7.5s3.358 7.5 7.5 7.5h236.52c4.142 0 7.5-3.357 7.5-7.5s-3.358-7.5-7.5-7.5z"/><path d="m360.883 184.557h-236.52c-4.142 0-7.5 3.357-7.5 7.5s3.358 7.5 7.5 7.5h236.52c4.142 0 7.5-3.357 7.5-7.5s-3.358-7.5-7.5-7.5z"/><path d="m360.883 227.186h-236.52c-4.142 0-7.5 3.357-7.5 7.5s3.358 7.5 7.5 7.5h236.52c4.142 0 7.5-3.357 7.5-7.5s-3.358-7.5-7.5-7.5z"/><path d="m360.883 269.814h-236.52c-4.142 0-7.5 3.357-7.5 7.5s3.358 7.5 7.5 7.5h236.52c4.142 0 7.5-3.357 7.5-7.5s-3.358-7.5-7.5-7.5z"/><path d="m360.883 312.443h-236.52c-4.142 0-7.5 3.357-7.5 7.5s3.358 7.5 7.5 7.5h236.52c4.142 0 7.5-3.357 7.5-7.5s-3.358-7.5-7.5-7.5z"/><path d="m360.883 355.072h-236.52c-4.142 0-7.5 3.357-7.5 7.5s3.358 7.5 7.5 7.5h236.52c4.142 0 7.5-3.357 7.5-7.5s-3.358-7.5-7.5-7.5z"/><path d="m360.883 397.7h-236.52c-4.142 0-7.5 3.357-7.5 7.5s3.358 7.5 7.5 7.5h236.52c4.142 0 7.5-3.357 7.5-7.5s-3.358-7.5-7.5-7.5z"/><path d="m360.883 440.329h-236.52c-4.142 0-7.5 3.357-7.5 7.5s3.358 7.5 7.5 7.5h236.52c4.142 0 7.5-3.357 7.5-7.5s-3.358-7.5-7.5-7.5z"/><path d="m477.445 140.34h-14.425v-56.652c0-13.756-11.191-24.947-24.947-24.947h-17.866c-13.756 0-24.947 11.191-24.947 24.947v298.536c0 4.804.984 9.467 2.924 13.862l18.775 42.517c2.162 4.896 6.83 7.938 12.181 7.938s10.02-3.042 12.181-7.938l18.775-42.517c1.94-4.396 2.924-9.059 2.924-13.862v-76.784c0-4.143-3.358-7.5-7.5-7.5s-7.5 3.357-7.5 7.5v41.255h-37.761v-217.275h37.761v144.82c0 4.143 3.358 7.5 7.5 7.5s7.5-3.357 7.5-7.5v-118.9h14.425c.276 0 .5.225.5.5v84.034c0 4.143 3.358 7.5 7.5 7.5s7.5-3.357 7.5-7.5v-84.034c0-8.547-6.953-15.5-15.5-15.5zm-29.425 241.884c0 2.704-.554 5.33-1.646 7.804l-17.234 39.027-17.234-39.027c-1.093-2.474-1.646-5.1-1.646-7.804v-20.216h37.761v20.216zm-37.761-267.804v-30.732c0-5.485 4.462-9.947 9.947-9.947h17.866c5.485 0 9.947 4.462 9.947 9.947v30.732z"/></g></g></svg>