<svg id="Capa_1" enable-background="new 0 0 511.992 511.992" height="512" viewBox="0 0 511.992 511.992" width="512" xmlns="http://www.w3.org/2000/svg"><g><g><path d="m346.772 344.446h-31.012c-5.523 0-10-4.477-10-10v-39.112l17.108-2.902 23.904 3 3 27.007z" fill="#909ba6"/><path d="m346.772 344.446 4.82-56.858-35.489 7.844c2.194 20.479 13.956 38.731 30.669 49.014z" fill="#7e8b96"/><path d="m294.817 12.421-25.568 25.569 28.509 28.377 9.959-7.997 17.504-17.571c3.894-3.909 3.888-10.232-.013-14.133l-13.318-13.318-4.927-2.927c-3.906-3.906-8.239-1.906-12.146 2z" fill="#b9c3cd"/><path d="m290.792 34.446 21.098-21.098-2.927-2.927c-3.906-3.906-10.24-3.906-14.146 0l-27.568 27.569 11.576 18.513 18.933 11.864 9.959-9.997-16.917-16.845c-1.96-1.951-1.963-5.123-.008-7.079z" fill="#a2abb8"/><path d="m144.11 503.492h-21.799c-2.153 0-3.064-1.378-3.745-3.42l-7.863-24.589 14-1 16.718-2 17.297 2-6.003 18.009-3.86 8.58c-.681 2.042-2.592 2.42-4.745 2.42z" fill="#909ba6"/><path d="m387.18 503.492h-20.799c-2.153 0-4.064-.378-4.745-2.42l-8.863-25.589 15-1 17.201-2 16.866 1.84-6.056 18.169-3.86 8.58c-.68 2.042-2.591 2.42-4.744 2.42z" fill="#909ba6"/><path d="m134.311 492.492c-2.153 0-4.064-1.378-4.745-3.42l-4.863-14.589-8.644-1-7.356 1 8.863 26.589c.681 2.042 2.592 3.42 4.745 3.42h22.799c2.153 0 4.064-1.378 4.745-3.42l2.86-8.58z" fill="#7e8b96"/><path d="m377.381 492.492c-2.153 0-4.064-1.378-4.745-3.42l-4.903-14.701-7.844-.888-8.126.972 8.873 26.617c.681 2.042 2.592 3.42 4.745 3.42h22.799c2.153 0 4.064-1.378 4.745-3.42l2.86-8.58z" fill="#7e8b96"/><path d="m296.847 100.779 99.259 66.728c11.055 7.433 17.685 19.881 17.685 33.203v178.75l-2 13-63.019-1v-190.962c0-3.908-3.525-9.662-6.25-12.463l-50.951-52.362z" fill="#f9f8f9"/><path d="m362.772 374.46v-177.806c0-5.289-2.073-10.367-5.775-14.144l-61.76-63.023-3.667 18.186 50.951 52.362c2.726 2.801 4.251 6.555 4.251 10.464v194.196l32.522 2.766 34.497-3v-15h-46.019c-2.762-.001-5-2.239-5-5.001z" fill="#e8e8e8"/><path d="m295.758 101.378-111.033-1-1-11.426c0-10.352 5.375-22.612 14.994-26.327.184-.071.369-.14.555-.207l67.975-24.43 30.509 30.377v25.511z" fill="#f9f8f9"/><path d="m240.33 170.471h-.033c-31.756 0-55.5-26.744-55.5-58.5v-10.518l48.284-7.397 61.749 7.397 2.928 7.425v4.018c0 31.757-25.523 57.575-57.428 57.575z" fill="#f9f8f9"/><path d="m182.725 85.953v7.926l2 7.5h12l2-7.5v-31.253c-9.618 3.716-16 12.975-16 23.327z" fill="#e8e8e8"/><path d="m256.258 165.396h-.033c-31.428 0-56.967-25.214-57.492-56.518-.005-.327-2.008-7.5-2.008-7.5h-12l-2 7.5v4.018c0 31.756 25.377 57.5 57.5 57.5h.033c8.959 0 17.439-2.051 24.998-5.706-2.933.461-5.936.706-8.998.706z" fill="#e8e8e8"/><path d="m264.144 364.452h-35.411l-11.395 1c-2.153 0-4.064 1.378-4.745 3.42l-8.619 24.673 72.255.085-3.478-14.17-3.863-11.589c-.68-2.042-2.591-3.419-4.744-3.419z" fill="#909ba6"/><path d="m225.047 375.512 3.687-11.06h-12.395c-2.153 0-4.064 1.378-4.745 3.42l-8.863 26.589 37.511 2 37.511-2-5-15h-44.859c-2.049-.001-3.495-2.007-2.847-3.949z" fill="#7e8b96"/><path d="m346.772 292.432-188.057 1c-5.523 0-10.804-2.477-10.804-8v-13.01c0-5.523 3.281-11.281 8.804-11.281l5-.719h160.399l24.658 4z" fill="#e8e8e8"/><path d="m265.751 324.28h-53.019c-2.761 0-4-2.239-4-5l1-23.009 13-1 24.011-2 26.007 2v16.17l-2 9.839c.001 2.761-2.238 3-4.999 3z" fill="#909ba6"/><path d="m222.732 308.441v-13.178l-7.609-1.831-7.391 1.831v26.178c0 2.761 2.239 5 5 5h55.019c2.761 0 5-2.239 5-5v-10h-47.019c-1.657 0-3-1.343-3-3z" fill="#7e8b96"/><path d="m250.246 229.412h-19.009c-2.761 0-5-2.239-5-5v-34.18l14-1 7.908-1 7.101 1v26.18l-1 9c0 2.762-1.239 5-4 5z" fill="#b9c3cd"/><path d="m258.495 188.233h-37.509c-8.284 0-14-6.716-14-15v-13.009l14-1 53.509.003v15.006c0 8.284-7.716 14-16 14z" fill="#b9c3cd"/><path d="m240.237 212.412v-23.18l-7.241-1-7.759 1v36.18c0 2.761 2.239 5 5 5h20.009c2.761 0 5-2.239 5-5v-10h-12.009c-1.657 0-3-1.343-3-3z" fill="#a2abb8"/><path d="m220.986 171.232v-12.008l-15-.012v15.02c0 8.284 6.716 15 15 15h38.509c8.284 0 15-6.716 15-15l-50.509-.001c-1.657.001-3-1.342-3-2.999z" fill="#a2abb8"/><path d="m322.114 260.422c-2.84 5.938-4.795 12.378-5.718 19.146-.067.494-.483.864-.982.864h-150.699c-1.657 0-3-1.343-3-3v-17.01h-5c-5.523 0-10 4.477-10 10v15.01c0 5.523 4.477 10 10 10h190.057v-35.01z" fill="#dcdbdd"/><path d="m412.996 422.992-284.426.511 14.298-21.447c2.783-4.174 7.468-6.681 12.484-6.681l9.362-.914h249.076v15.009z" fill="#b9c3cd"/><path d="m157.818 404.805 6.896-10.345h-9.97c-5.017 0-9.702 2.507-12.484 6.681l-15.582 23.375 151.074 2.952 136.039-2.964v-15.036h-253.477c-2.396.001-3.825-2.67-2.496-4.663z" fill="#a2abb8"/><path d="m433.297 288.43c0-27.191-20.665-49.555-47.146-52.244-1.765-.179-3.557.729-5.369.729-29.003 0-50.515 22.512-50.515 51.515s21.512 51.515 50.515 51.515c1.558 0 3.099.932 4.622.799 26.838-2.34 47.893-24.868 47.893-52.314z" fill="#b9c3cd"/><path d="m403.288 288.43c0-9.8-6.263-18.137-15.005-21.226-2.346-.829-4.871-.28-7.502-.28-12.43 0-21.506 9.076-21.506 21.506s9.076 21.506 21.506 21.506c2.63 0 5.155.549 7.502-.28 8.742-3.09 15.005-11.426 15.005-21.226z" fill="#909ba6"/><path d="m343.267 288.43c0-26.456 19.573-48.337 45.022-51.978-2.45-.351-4.96-.537-7.507-.537-29.003 0-52.515 23.512-52.515 52.515s23.512 52.515 52.515 52.515c2.548 0 5.048-.187 7.499-.538-25.45-3.64-45.014-25.521-45.014-51.977z" fill="#a2abb8"/><path d="m373.275 288.43c0-9.799 6.266-18.136 15.008-21.226-2.346-.829-4.871-1.28-7.502-1.28-12.43 0-22.506 10.076-22.506 22.506s10.076 22.506 22.506 22.506c2.631 0 5.155-.451 7.502-1.28-8.741-3.09-15.008-11.427-15.008-21.226z" fill="#7e8b96"/><path d="m420.772 473.483h-331.053c-5.536 0-10.024-4.488-10.024-10.024v-27.966c0-5.536 4.488-10.024 10.024-10.024l3.976-1h328.077c5.536 0 10.024 4.488 10.024 10.024v24.99l-1 3.976c0 5.536-4.488 10.024-10.024 10.024z" fill="#f9f8f9"/><path d="m93.695 454.483v-30.014h-4.976c-5.536 0-10.024 4.488-10.024 10.024v29.966c0 5.536 4.488 10.024 10.024 10.024h333.053c5.536 0 10.024-4.488 10.024-10.024v-4.976h-333.101c-2.761 0-5-2.238-5-5z" fill="#e8e8e8"/></g><g><path d="m422.522 416.969h-.481c-.001-15.936 0-67.682 0-84.199 7.5-6.855 13.306-15.664 16.602-25.848 1.275-3.941-.886-8.169-4.826-9.445-3.94-1.275-8.17.885-9.445 4.827-6.027 18.626-23.243 31.142-42.839 31.142-24.821 0-45.016-20.194-45.016-45.015s20.194-45.015 45.016-45.015c18.849 0 35.85 11.891 42.305 29.589 1.419 3.891 5.718 5.897 9.616 4.476 3.891-1.419 5.895-5.725 4.476-9.616-3.37-9.24-8.903-17.284-15.888-23.663v-43.492c0-15.846-7.851-30.585-21-39.427l-95.033-63.902v-25.915l25.277-25.374c6.798-6.824 6.787-17.918-.023-24.729l-16.246-16.245c-6.826-6.824-17.928-6.824-24.754 0l-26.382 26.382-66.393 23.861c-12.867 4.625-21.513 16.918-21.513 30.591 0 6.929.002 19.912 0 26.943 0 19.478 8.435 37.437 23.261 49.827v11.51c0 11.303 8.379 20.683 19.251 22.262v28.918c0 6.893 5.607 12.5 12.5 12.5h20.009c6.893 0 12.5-5.607 12.5-12.5v-28.918c10.871-1.581 19.249-10.96 19.249-22.262v-11.514c4.394-3.673 8.212-7.842 11.429-12.389l43.722 44.935c1.371 1.41 2.126 3.268 2.126 5.233v44.649c-2.492 2.391-4.784 4.988-6.836 7.775h-82.313c-4.143 0-7.5 3.358-7.5 7.5s3.357 7.5 7.5 7.5h74.254c-2.281 6.253-3.541 12.991-3.599 20.01h-164.063c-1.379 0-2.5-1.122-2.5-2.5v-15.01c0-1.378 1.121-2.5 2.5-2.5h58.409c4.143 0 7.5-3.358 7.5-7.5s-3.357-7.5-7.5-7.5h-58.409c-9.649 0-17.5 7.851-17.5 17.5v15.01c0 9.649 7.851 17.5 17.5 17.5h43.518v18.509c0 6.893 5.607 12.5 12.5 12.5h55.019c6.893 0 12.5-5.607 12.5-12.5v-18.509h18.01v31.514c0 9.649 7.851 17.5 17.5 17.5h23.512v35.015h-56.114l-7.153-21.46c-1.704-5.113-6.471-8.549-11.86-8.549h-47.806c-5.39 0-10.156 3.436-11.86 8.548l-7.153 21.46h-42.58c-7.541 0-14.541 3.746-18.725 10.021l-13.325 19.987h-33.979c-9.663 0-17.524 7.861-17.524 17.524v29.966c0 9.663 7.861 17.524 17.524 17.524h14.579l7.154 21.46c1.704 5.113 6.47 8.549 11.859 8.549h22.799c5.39 0 10.156-3.436 11.86-8.548l7.153-21.46h182.244l7.153 21.46c1.704 5.113 6.471 8.549 11.86 8.549h22.799c5.39 0 10.155-3.436 11.859-8.548l7.154-21.461h14.578c9.663 0 17.524-7.861 17.524-17.524v-29.966c.003-9.662-7.859-17.523-17.522-17.523zm-121.651-401.244c.638-.638 1.382-.733 1.77-.733s1.132.095 1.77.733l16.244 16.245c.975.974.976 2.561.004 3.537l-22.172 22.256-19.869-19.784zm-109.896 97.171v-4.018h29.146c4.143 0 7.5-3.358 7.5-7.5s-3.357-7.5-7.5-7.5h-29.146v-7.926c0-7.364 4.656-13.985 11.585-16.475l63.51-22.825 24.938 24.831v22.395h-35.887c-4.143 0-7.5 3.358-7.5 7.5s3.357 7.5 7.5 7.5h35.887v4.018c0 15.242-6.736 29.28-18.524 38.828h-62.987c-11.788-9.547-18.522-23.579-18.522-38.828zm42.512 110.017v-26.18h15.009v26.18zm34.258-48.68c0 4.136-3.364 7.5-7.5 7.5h-38.509c-4.136 0-7.5-3.364-7.5-7.5v-7.509h53.509zm80.901 10.571-47.03-48.336c2.568-6.632 4.044-13.723 4.32-21.061l86.735 58.323c8.998 6.051 14.37 16.136 14.37 26.979v33.441c-7.834-3.694-16.511-5.736-25.509-5.736-9.513 0-18.51 2.234-26.51 6.191v-34.108c0-5.893-2.264-11.467-6.376-15.693zm-82.645 134.137h-50.019v-16.009h50.019zm50.509 18.005c-1.379 0-2.5-1.122-2.5-2.5v-31.514h9.288c2.778 11.149 8.683 21.066 16.724 28.78v5.233h-23.512zm38.512 5.308c8 3.956 16.997 6.191 26.51 6.191 9.046 0 17.711-2.004 25.509-5.652v44.168h-52.019zm-136.133 29.698h44.204l5.003 15.009h-54.21zm-74.83 125.04h-19.196l-5.003-15.009h29.202zm243.07 0h-19.196l-5.003-15.009h29.203zm37.918-32.533c0 1.392-1.133 2.524-2.524 2.524h-333.054c-1.392 0-2.524-1.132-2.524-2.524v-29.966c0-1.392 1.133-2.524 2.524-2.524h182.04c4.143 0 7.5-3.358 7.5-7.5s-3.357-7.5-7.5-7.5h-130.036l7.778-11.667c1.396-2.093 3.729-3.342 6.244-3.342h251.546v15.008h-100.531c-4.143 0-7.5 3.358-7.5 7.5s3.357 7.5 7.5 7.5h116.013c1.392 0 2.524 1.132 2.524 2.524z"/><path d="m351.525 288.43c0 16.546 13.461 30.007 30.007 30.007 16.545 0 30.006-13.461 30.006-30.007 0-16.545-13.461-30.006-30.006-30.006-16.546-.001-30.007 13.46-30.007 30.006zm45.013 0c0 8.275-6.731 15.007-15.006 15.007s-15.007-6.732-15.007-15.007c0-8.274 6.732-15.006 15.007-15.006s15.006 6.731 15.006 15.006z"/></g></g></svg>