<svg id="Capa_1" enable-background="new 0 0 512 512" height="512" viewBox="0 0 512 512" width="512" xmlns="http://www.w3.org/2000/svg"><g><g><g><g><path d="m224.975 8.5c-12.794 0-22.166 11.35-22.166 24.116v21.928c0 37.831-6.752 75.359-19.941 110.826l-3.507 9.432c-5.569 14.976-4.692 31.582 2.424 45.891l9.609 19.322c3.276 6.588 4.981 13.842 4.981 21.197 0 0 1.143 14.298-7.962 26.673l-5.644 8.492c-7.913 11.907-12.134 25.877-12.134 40.164v112.273c0 14.185 11.524 24.685 25.74 24.685h57.201c10.394 0 20.348-5.147 24.412-13.997 1.494-3.254 2.327-6.874 2.327-10.688v-17.523l-2-44.792 2-45.208v-4.296c0-14.57-4.389-28.804-12.598-40.853l-5.153-7.564c-2.498-3.667-4.454-7.64-5.836-11.799-1.724-5.188-5.554-10.663-5.416-16.193 0 0 3.941-9.361 5.418-13.811.703-2.119 1.548-4.193 2.548-6.203l9.886-19.88c7.116-14.309 7.993-30.915 2.424-45.891l-3.507-9.432c-6.633-17.839-11.637-36.2-14.974-54.857-.844-4.721-3.584-9.461-4.214-14.217s.852-9.527.437-14.31c-.79-9.113-1.191-18.268-1.191-27.442v-23.927c0-10.147-6.551-18.766-15.663-21.877-2.352-.803-7.501-.239-7.501-.239z" fill="#c8effe"/><path d="m184.635 444.5v-13.208l-2-43.079 2-46.921v-4.75c0-14.286 4.218-28.254 12.126-40.153l5.656-8.511c2.303-3.465 4.127-7.199 5.446-11.099 1.653-4.887.511-9.035.511-14.249v-2.318c0-4.914 1.227-8.78-.255-13.435-.736-2.311-1.638-4.573-2.724-6.757l-9.611-19.327c-7.114-14.307-7.991-30.92-2.422-45.896l3.51-9.44c6.631-17.833 11.632-36.19 14.968-54.845.844-4.721-.416-9.461.214-14.217s3.147-9.527 3.561-14.311c.789-9.113 1.192-18.268 1.192-27.442v-23.926c0-10.146 6.556-18.766 15.668-21.877-2.353-.803-4.876-1.239-7.502-1.239-12.794 0-23.166 10.349-23.166 23.116v23.928c0 9.175-.403 18.33-1.192 27.445-.38 4.383 1.155 9.757.594 14.117-.661 5.136-3.453 9.272-4.363 14.368-3.336 18.675-8.337 37.032-14.975 54.884l-3.512 9.444c-5.568 14.973-4.691 31.583 2.422 45.887l9.613 19.331c1.086 2.184 1.991 4.445 2.727 6.756 1.482 4.655 4.252 9.522 4.252 14.436v1.318c0 5.214-2.858 9.362-4.511 14.249-1.319 3.9-3.144 7.634-5.447 11.099l-5.656 8.511c-7.908 11.898-12.126 25.866-12.126 40.153v4.75l2 47.208-2 42.792v17.523c0 14.185 11.524 25.685 25.74 25.685h59.201c10.393 0 19.35-6.151 23.414-15h-78.355c-8.283 0-14.998-6.716-14.998-15z" fill="#a9e5f7"/><path d="m194.862 275.779 13.001 1h48.866c-1.724-5.188-2.554-10.663-2.416-16.193.117-4.71.941-9.361 2.418-13.811l-48.611.001-13.006 1.002c1.482 4.656 2.26 13.751 2.26 13.751 0 5.214-.859 9.363-2.512 14.25z" fill="#f9f8f9"/><path d="m192.864 276.78h14.999c1.169-3.485 2.493-8.751 2.511-15.249.018-6.232-1.167-11.32-2.255-14.753l-14.997-.001c1.088 3.433 2.269 8.522 2.252 14.754-.018 6.497-1.342 11.763-2.51 15.249z" fill="#e8e8e8"/><path d="m197.84 109.513 14.001 1h41.266c-1.689-9.442-2.948-18.961-3.777-28.527h-33.714l-14.003 1c-.828 9.566-2.084 17.084-3.773 26.527z" fill="#e27f86"/><path d="m211.841 110.513c1.689-9.442 2.947-18.961 3.776-28.527l-15 .003c-.412 4.756-.933 9.502-1.558 14.231-.632 4.765-1.366 9.521-2.211 14.254-.003.02.003-.02 0 0z" fill="#df646e"/><path d="m280.315 431.292h-95.681l-12.999-2v-86l13-2h95.68z" fill="#afefa5"/><path d="m169.635 341.292h15v90h-15z" fill="#8ce1a4"/></g><g><path d="m387.16 8.5c-12.794 0-22.166 11.35-22.166 24.116v21.928c0 37.831-6.752 75.359-19.941 110.826l-3.507 9.432c-5.569 14.976-4.692 31.582 2.424 45.891l9.609 19.322c3.276 6.588 4.981 13.842 4.981 21.197 0 0 1.143 14.298-7.962 26.673l-5.644 8.492c-7.913 11.907-12.134 25.877-12.134 40.164v112.273c0 14.185 11.524 24.685 25.74 24.685h57.201c10.394 0 20.348-5.147 24.412-13.997 1.494-3.254 2.327-6.874 2.327-10.688v-17.523l-2-44.792 2-45.208v-4.296c0-14.57-4.389-28.804-12.598-40.853l-5.153-7.564c-2.498-3.667-4.454-7.64-5.836-11.799-1.724-5.188-5.554-10.663-5.416-16.193 0 0 3.941-9.361 5.418-13.811.703-2.119 1.549-4.193 2.548-6.203l9.886-19.88c7.116-14.309 7.993-30.915 2.424-45.891l-3.507-9.432c-6.633-17.839-11.637-36.2-14.974-54.857-.844-4.721-3.584-9.461-4.214-14.217s.852-9.527.437-14.31c-.79-9.113-1.191-18.268-1.191-27.442v-23.927c0-10.147-6.551-18.766-15.663-21.877-2.352-.803-7.501-.239-7.501-.239z" fill="#c8effe"/><path d="m346.82 444.5v-13.208l-2-43.079 2-46.921v-4.75c0-14.286 4.218-28.254 12.126-40.153l5.656-8.511c2.303-3.465 4.127-7.199 5.446-11.099 1.653-4.887.511-9.035.511-14.249v-2.318c0-4.914 1.227-8.78-.255-13.435-.736-2.311-1.638-4.573-2.724-6.757l-9.611-19.327c-7.114-14.307-7.991-30.92-2.422-45.896l3.51-9.44c6.631-17.833 11.632-36.19 14.968-54.845.844-4.721-.416-9.461.214-14.217s3.147-9.527 3.561-14.311c.789-9.113 1.192-18.268 1.192-27.442v-23.926c0-10.146 6.556-18.766 15.668-21.877-2.353-.803-4.876-1.239-7.502-1.239-12.794 0-23.166 10.349-23.166 23.116v23.928c0 9.175-.403 18.33-1.192 27.445-.38 4.383 1.155 9.757.594 14.117-.661 5.136-3.453 9.272-4.363 14.368-3.336 18.675-8.337 37.032-14.975 54.884l-3.512 9.444c-5.568 14.973-4.691 31.583 2.422 45.887l9.613 19.331c1.086 2.184 1.991 4.445 2.727 6.756 1.482 4.655 4.252 9.522 4.252 14.436v1.318c0 5.214-2.858 9.362-4.511 14.249-1.319 3.9-3.144 7.634-5.447 11.099l-5.656 8.511c-7.908 11.898-12.126 25.866-12.126 40.153v4.75l2 47.208-2 42.792v17.523c0 14.185 11.524 25.685 25.74 25.685h59.201c10.393 0 19.35-6.151 23.414-15h-78.353c-8.285 0-15-6.716-15-15z" fill="#a9e5f7"/><path d="m357.047 275.779 13.001 1h48.866c-1.724-5.188-2.554-10.663-2.416-16.193.117-4.71.941-9.361 2.418-13.811l-48.611.001-13.006 1.002c1.482 4.656 2.26 13.751 2.26 13.751 0 5.214-.859 9.363-2.512 14.25z" fill="#f9f8f9"/><path d="m355.049 276.78h14.999c1.169-3.485 2.493-8.751 2.511-15.249.018-6.232-1.167-11.32-2.255-14.753l-14.997-.001c1.088 3.433 2.269 8.522 2.252 14.754-.018 6.497-1.342 11.763-2.51 15.249z" fill="#e8e8e8"/><path d="m360.025 109.513 14.001 1h41.266c-1.689-9.442-2.948-18.961-3.777-28.527h-33.714l-14.003 1c-.828 9.566-2.084 17.084-3.773 26.527z" fill="#e27f86"/><path d="m374.026 110.513c1.689-9.442 2.947-18.961 3.776-28.527l-15 .003c-.412 4.756-.933 9.502-1.558 14.231-.632 4.765-1.366 9.521-2.211 14.254-.003.02.003-.02 0 0z" fill="#df646e"/></g><g><path d="m62.84 8.5c-12.794 0-22.166 11.35-22.166 24.116v21.928c0 37.831-6.752 75.359-19.941 110.826l-3.507 9.432c-5.569 14.976-4.692 31.582 2.424 45.891l9.609 19.322c3.276 6.588 4.981 13.842 4.981 21.197 0 0 1.143 14.298-7.962 26.673l-5.644 8.492c-7.914 11.908-12.134 25.878-12.134 40.165v112.273c0 14.185 11.524 24.685 25.74 24.685h57.201c10.394 0 20.348-5.147 24.412-13.997 1.494-3.254 2.327-6.874 2.327-10.688v-17.523l-2-44.792 2-45.208v-4.296c0-14.57-4.389-28.804-12.597-40.853l-5.153-7.564c-2.498-3.667-4.454-7.64-5.836-11.799-1.724-5.188-5.554-10.663-5.416-16.193 0 0 3.941-9.361 5.418-13.811.703-2.119 1.549-4.193 2.548-6.203l9.886-19.88c7.116-14.309 7.993-30.915 2.424-45.891l-3.507-9.432c-6.633-17.839-11.637-36.2-14.974-54.857-.844-4.721-3.584-9.461-4.214-14.217s.852-9.527.437-14.31c-.79-9.113-1.191-18.268-1.191-27.442v-23.928c0-10.147-6.551-18.766-15.663-21.877-2.352-.803-7.502-.239-7.502-.239z" fill="#c8effe"/><path d="m22.5 444.5v-13.208l-2-43.079 2-46.921v-4.75c0-14.286 4.218-28.254 12.126-40.153l5.656-8.511c2.303-3.465 4.127-7.199 5.446-11.099 1.653-4.887.511-9.035.511-14.249v-2.318c0-4.914 1.227-8.78-.255-13.435-.736-2.311-1.638-4.573-2.724-6.757l-9.611-19.327c-7.114-14.307-7.991-30.92-2.422-45.896l3.51-9.44c6.631-17.833 11.632-36.19 14.968-54.845.844-4.721-.416-9.461.214-14.217s3.147-9.527 3.561-14.311c.789-9.113 1.192-18.268 1.192-27.442v-23.926c0-10.146 6.556-18.766 15.668-21.877-2.351-.803-4.874-1.239-7.5-1.239-12.794 0-23.166 10.349-23.166 23.116v23.928c0 9.175-.403 18.33-1.192 27.445-.38 4.383 1.155 9.757.594 14.117-.661 5.136-3.453 9.272-4.363 14.368-3.336 18.675-8.337 37.032-14.975 54.884l-3.512 9.444c-5.568 14.973-4.691 31.583 2.422 45.887l9.613 19.331c1.086 2.184 1.991 4.445 2.727 6.756 1.482 4.655 4.252 9.522 4.252 14.436v1.318c0 5.214-2.858 9.362-4.511 14.249-1.319 3.9-3.144 7.634-5.447 11.099l-5.656 8.511c-7.908 11.899-12.126 25.867-12.126 40.153v4.75l2 47.208-2 42.792v17.523c0 14.185 11.524 25.685 25.74 25.685h59.201c10.393 0 19.35-6.151 23.414-15h-78.355c-8.284 0-15-6.716-15-15z" fill="#a9e5f7"/><path d="m32.727 275.779 13.001 1h48.866c-1.724-5.188-2.554-10.663-2.416-16.193.117-4.71.941-9.361 2.418-13.811l-48.611.001-13.006 1.002c1.482 4.656 2.26 13.751 2.26 13.751.001 5.214-.859 9.363-2.512 14.25z" fill="#f9f8f9"/><path d="m30.729 276.78h14.999c1.169-3.485 2.493-8.751 2.511-15.249.018-6.232-1.167-11.32-2.255-14.753l-14.997-.001c1.088 3.433 2.269 8.522 2.252 14.754-.018 6.497-1.341 11.763-2.51 15.249z" fill="#e8e8e8"/><path d="m35.706 109.513 14.001 1h41.266c-1.689-9.442-2.948-18.961-3.777-28.527h-33.714l-14.003 1c-.828 9.566-2.085 17.084-3.773 26.527z" fill="#e27f86"/><path d="m49.707 110.513c1.689-9.442 2.947-18.961 3.776-28.527l-15 .003c-.412 4.756-.933 9.502-1.558 14.231-.632 4.765-1.366 9.521-2.211 14.254-.003.02.003-.02 0 0z" fill="#df646e"/><path d="m118.18 431.292h-95.68l-13-2v-86l13-2h95.68z" fill="#afefa5"/><path d="m7.5 341.292h15v90h-15z" fill="#8ce1a4"/></g></g><g><path d="m504.5 379c0-69.312-56.188-125.5-125.5-125.5s-123.5 66.819-123.5 125.5c0 60.085 54.188 125.5 123.5 125.5s125.5-56.188 125.5-125.5z" fill="#ffe07d"/><path d="m271.5 379c0-66.285 51.39-120.561 116.5-125.176-2.973-.211-5.973-.324-9-.324-69.312 0-125.5 56.188-125.5 125.5s56.188 125.5 125.5 125.5c3.027 0 6.027-.114 9-.324-65.11-4.615-116.5-58.891-116.5-125.176z" fill="#ffd064"/><g><g fill="#e27f86"><path d="m476.76 381.103c0-9.73-4.277-21.052-10.437-26.465-2.283-2.007-4.823-2.204-7.502-2.204-9.908 0-16.939 15.332-16.939 28.669s7.032 17.629 16.939 17.629c2.68 0 5.22.604 7.503-.224 6.158-2.235 10.436-7.675 10.436-17.405z"/><path d="m317.119 381.103c0-9.73-4.277-21.052-10.437-26.465-2.283-2.007-4.823-2.204-7.502-2.204-9.908 0-16.939 15.332-16.939 28.669s7.032 17.629 16.939 17.629c2.68 0 5.219.604 7.503-.224 6.159-2.235 10.436-7.675 10.436-17.405z"/></g><g fill="#e27f86"><path d="m430.091 325.839c0-9.73-4.277-21.052-10.437-26.465-2.283-2.007-4.823-2.204-7.502-2.204-9.908 0-16.939 15.332-16.939 28.669s7.032 17.629 16.939 17.629c2.68 0 5.219.604 7.503-.224 6.159-2.236 10.436-7.675 10.436-17.405z"/><path d="m363.787 325.839c0-9.73-4.277-21.052-10.437-26.465-2.283-2.007-4.823-1.204-7.502-1.204-9.908 0-15.939 14.332-15.939 27.669s6.032 16.629 15.939 16.629c2.68 0 5.22 1.604 7.503.775 6.159-2.235 10.436-7.674 10.436-17.404z"/></g><g fill="#df646e"><path d="m455.881 381.103c0-9.732 4.281-21.053 10.442-26.465-2.283-2.005-4.824-3.204-7.502-3.204-9.908 0-17.939 16.332-17.939 29.669s8.032 18.629 17.939 18.629c2.681 0 5.218-.395 7.503-1.225-6.158-2.235-10.443-7.676-10.443-17.404z"/><path d="m296.24 381.103c0-9.732 4.281-21.053 10.442-26.465-2.282-2.005-4.824-3.204-7.502-3.204-9.907 0-17.939 16.332-17.939 29.669s8.032 18.629 17.939 18.629c2.681 0 5.219-.395 7.503-1.224-6.157-2.236-10.443-7.677-10.443-17.405z"/></g><g fill="#df646e"><path d="m409.213 325.839c0-9.732 4.281-21.053 10.442-26.465-2.282-2.005-4.824-3.204-7.502-3.204-9.907 0-17.939 16.332-17.939 29.669s8.032 18.629 17.939 18.629c2.681 0 5.219-.395 7.503-1.224-6.158-2.236-10.443-7.677-10.443-17.405z"/><path d="m342.909 325.839c0-9.732 4.281-21.053 10.442-26.465-2.283-2.005-4.824-3.204-7.502-3.204-9.908 0-17.939 16.332-17.939 29.669s8.032 18.629 17.939 18.629c2.681 0 5.219-.395 7.503-1.224-6.158-2.236-10.443-7.677-10.443-17.405z"/></g><path d="m410.982 384.834-.003-.011c-1.358-5.43-6.237-9.24-11.834-9.24h-32.744l-3.601 2c-5.539 0-10.383 1.732-11.795 7.088 0 0-2.75 19.222-19.937 33.505 0 0-6.641 8.509-6.997 15 0 0-2.339 21.271 15.993 25.866 6.493 1.628 11.974-3.262 15.574-9.191 2.511-4.136 9.214-5.922 13.021-2.936 2.452 1.923 4.764 3.064 8.92 3.064 4.018 0 7.093-1.519 9.58-3.574 3.708-3.064 12.17-1.543 14.691 2.553 3.799 6.171 5.136 10.07 12 9.574 5.054-.365 15.639-1.763 19.567-9.704 1.786-3.61 2.85-7.811 2.85-12.459v-2.128c0-6.633-2.635-12.995-7.326-17.686-8.75-8.75-14.958-19.715-17.959-31.721z" fill="#e27f86"/><path d="m420.125 452.829c-6.882 0-12.755-10.787-16.554-16.958-2.521-4.096-8.163-5.165-11.87-2.101-2.487 2.055-8.683 3.57-12.7 3.57-4.156 0-10.366-1.389-12.818-3.313-3.807-2.986-9.358-1.79-11.87 2.346-1.688 2.779-3.562 6.578-5.767 9.825-2.816 4.147-9.197 3.196-10.636-1.605-.754-2.515-1.176-5.266-1.176-8.225l.339-3.193c.355-6.49 3.223-12.588 7.996-17 9.181-8.486 15.75-19.416 18.937-31.505l2.396-9.088h-5.602c-5.573 0-10.39 3.788-11.818 9.176-3.196 12.054-9.755 22.951-18.914 31.417-4.773 4.412-7.641 10.509-7.996 17l-.339 3.193c0 15.562 11.68 25.376 21.834 25.461 2.59.021 4.687-.666 6.501-1.844.114-.061.227-.128.339-.206 2.669-1.854 4.715-4.813 6.801-8.235 2.552-4.186 8.209-5.413 12.095-2.423 2.436 1.874 5.609 3.219 9.697 3.219 3.929 0 7.072-1.448 9.534-3.434 3.825-3.085 9.443-2.251 12.018 1.935 3.805 6.185 7.679 11.045 14.572 10.988 6.991-.058 14.37-5.038 18.293-13.001-5.143 2.717-10.031 4.001-13.292 4.001z" fill="#df646e"/></g></g></g><g><path d="m106.628 284.356c-4.758-6.985-7.162-15.14-6.951-23.583.145-5.818 1.591-11.648 4.184-16.86l9.886-19.88c8.005-16.099 9.003-34.995 2.738-51.845-14.757-36.965-23.119-77.514-22.979-117.644v-23.928c0-16.882-13.757-30.616-30.666-30.616s-30.665 13.734-30.665 30.616v23.928c.225 39.824-8.197 80.416-22.979 117.644-6.265 16.85-5.267 35.746 2.738 51.845l9.609 19.323c2.744 5.519 4.195 11.694 4.195 17.857v.317c0 7.922-2.319 15.601-6.708 22.205l-5.644 8.492c-8.757 13.178-13.386 28.502-13.386 44.315v112.273c0 18.298 14.911 33.185 33.239 33.185h59.201c18.329 0 33.24-14.887 33.24-33.185v-111.82c0-16.14-4.807-31.727-13.899-45.076zm-61.334-194.87h35.093c.487 4.524 1.073 9.033 1.749 13.527h-38.592c.676-4.495 1.263-9.003 1.75-13.527zm1.881-58.87c0-8.611 7.027-15.616 15.665-15.616 8.639 0 15.666 7.005 15.666 15.616v23.928c0 6.67.218 13.317.621 19.941h-32.574c.404-6.624.621-13.272.621-19.941v-23.928zm-21.809 186.738c-6.167-12.402-6.936-26.958-2.109-39.938 7.319-17.288 14.459-44.712 18.006-59.404 2.239.003 42.204.001 43.403.001 3.536 16.477 10.319 41.217 17.758 59.403 4.826 12.98 4.058 27.537-2.109 39.938-3.002 6.146-8.419 16.706-10.832 21.925h-53.308c.345.386-10.729-21.732-10.809-21.925zm14.916 36.925h44.902c-.423 2.813-.829 8.964-.011 15h-44.983c.511-3.862.842-8.986.092-15zm-14.402 46.25 5.644-8.492c1.65-2.482 3.078-5.078 4.295-7.758h53.653c1.325 2.95 2.908 5.802 4.76 8.521l5.153 7.564c6.786 9.962 10.625 21.459 11.208 33.427h-27.869c-4.143 0-7.5 3.358-7.5 7.5s3.357 7.5 7.5 7.5h27.957v75h-95.681v-75h32.724c4.143 0 7.5-3.358 7.5-7.5s-3.357-7.5-7.5-7.5h-32.661c.498-11.87 4.209-23.318 10.817-33.262zm66.56 166.471h-59.201c-10.057 0-18.239-8.158-18.239-18.185v-10.023h95.681v10.023c0 10.027-8.183 18.185-18.241 18.185z"/><path d="m30 386.5c0 4.142 3.357 7.5 7.5 7.5h50c4.143 0 7.5-3.358 7.5-7.5s-3.357-7.5-7.5-7.5h-50c-4.143 0-7.5 3.358-7.5 7.5z"/><path d="m424.733 254.102c.613-6.225 10.592-24.155 13.333-30.069 8.005-16.099 9.003-34.995 2.738-51.845-14.757-36.965-23.119-77.514-22.979-117.644v-23.928c0-16.882-13.756-30.616-30.665-30.616s-30.666 13.734-30.666 30.616v23.928c.225 39.823-8.195 80.416-22.979 117.644-6.265 16.85-5.267 35.746 2.738 51.845 2.771 5.983 10.259 19.507 12.077 25.542-28.899 6.847-54.178 23.147-72.382 45.444-.567-1.045-6.205-9.254-7.16-10.664-4.759-6.985-7.163-15.139-6.952-23.582.145-5.816 1.591-11.646 4.184-16.86l9.886-19.879c7.952-15.992 8.99-34.78 2.848-51.547-1.424-3.889-5.729-5.887-9.622-4.462-3.89 1.425-5.887 5.733-4.462 9.623 4.731 12.916 3.932 27.388-2.195 39.708-3.001 6.145-8.421 16.708-10.833 21.925h-53.306c.345.386-10.729-21.734-10.809-21.925-6.168-12.401-6.937-26.958-2.109-39.938 7.208-18.517 13.789-39.409 17.673-59.403h43.836c1.731 8.706 3.81 17.35 6.253 25.905 1.138 3.983 5.288 6.292 9.271 5.152 3.983-1.137 6.29-5.288 5.152-9.271-7.921-27.732-11.937-56.416-11.937-85.254v-23.931c0-16.882-13.757-30.616-30.666-30.616s-30.666 13.734-30.666 30.616v23.928c.226 39.826-8.197 80.415-22.977 117.644-6.267 16.85-5.269 35.747 2.737 51.845l9.608 19.322c2.745 5.521 4.196 11.697 4.196 17.858.108 6.556-2.145 15.729-6.708 22.521l-5.645 8.492c-8.758 13.177-13.387 28.501-13.387 44.315v32.459c0 4.142 3.357 7.5 7.5 7.5s7.5-3.358 7.5-7.5v-20.208h72.302c-2.261 9.708-3.46 19.82-3.46 30.208h-45.5c-4.143 0-7.5 3.358-7.5 7.5s3.357 7.5 7.5 7.5h46.351c1.165 10.332 3.516 20.309 6.918 29.792h-76.609v-19.792c0-4.142-3.357-7.5-7.5-7.5s-7.5 3.358-7.5 7.5v44.815c0 18.298 14.911 33.185 33.239 33.185h59.201c10.682 0 20.335-4.996 26.475-13.102 24.327 26.478 59.219 43.102 97.925 43.102 39.178 0 76.183-17.161 101.527-47.082 2.678-3.161 2.285-7.893-.875-10.57-3.16-2.678-7.894-2.285-10.57.875-22.489 26.55-55.323 41.777-90.082 41.777-65.065 0-118-52.935-118-118s52.935-118 118-118 118 52.935 118 118c0 16.863-3.48 33.144-10.344 48.39-1.7 3.777-.017 8.217 3.76 9.917 3.778 1.7 8.219.018 9.918-3.76 7.741-17.194 11.666-35.547 11.666-54.547 0-57.275-36.392-106.21-87.267-124.898zm-219.029-151.089c.676-4.494 1.262-9.003 1.749-13.527h35.101c.488 4.521 1.076 9.031 1.753 13.527zm3.63-72.397c0-8.611 7.027-15.616 15.666-15.616s15.666 7.005 15.666 15.616v23.928c0 6.658.216 13.308.624 19.941h-32.577c.404-6.624.621-13.272.621-19.941zm38.01 223.663c-.423 2.813-.829 8.964-.011 15h-44.983c.51-3.863.842-8.986.092-15zm-70.121 79.513c.498-11.872 4.208-23.32 10.816-33.262 3.749-5.813 6.624-9.29 9.94-16.25h53.652c3.571 8.19 10.058 14.936 14.633 24.237-4.962 7.909-9.119 16.371-12.348 25.276h-76.693zm77.378 133.208h-59.201c-10.058 0-18.239-8.158-18.239-18.185v-10.023h83.061c3.155 6.243 6.789 12.204 10.851 17.837-2.983 6.293-9.308 10.371-16.472 10.371zm115.012-377.514h35.093c.487 4.524 1.073 9.033 1.75 13.527h-38.592c.676-4.495 1.262-9.003 1.749-13.527zm1.881-58.87c0-8.611 7.027-15.616 15.666-15.616 8.638 0 15.665 7.005 15.665 15.616v23.928c0 6.67.218 13.317.621 19.941h-32.574c.404-6.624.621-13.272.621-19.941v-23.928zm-8.318 216.329c-1.168-6.077-10.862-24.023-13.49-29.591-6.167-12.402-6.936-26.958-2.109-39.938 7.319-17.288 14.459-44.712 18.006-59.404 2.239.003 42.204.001 43.403.001 3.537 16.477 10.318 41.217 17.759 59.403 4.825 12.98 4.057 27.537-2.11 39.938-3.999 8.604-12.284 22.603-14.322 32.378-14.381-3.501-30.934-4.717-47.137-2.787z"/><path d="m484.26 381.103c0-15.521-9.678-37.169-25.439-37.169s-25.439 21.648-25.439 37.169c0 16.117 9.748 26.129 25.439 26.129s25.439-10.012 25.439-26.129zm-35.879 0c0-11.214 6.605-22.169 10.439-22.169s10.439 10.955 10.439 22.169c0 7.697-3.22 11.129-10.439 11.129s-10.439-3.432-10.439-11.129z"/><path d="m299.18 343.934c-15.762 0-25.439 21.648-25.439 37.169 0 16.117 9.748 26.129 25.439 26.129s25.439-10.012 25.439-26.129c0-15.52-9.678-37.169-25.439-37.169zm0 48.298c-7.22 0-10.439-3.433-10.439-11.129 0-11.214 6.605-22.169 10.439-22.169s10.439 10.955 10.439 22.169c0 7.697-3.22 11.129-10.439 11.129z"/><path d="m437.591 325.839c0-15.521-9.678-37.169-25.438-37.169-15.762 0-25.439 21.648-25.439 37.169 0 16.117 9.748 26.129 25.439 26.129s25.438-10.012 25.438-26.129zm-35.878 0c0-11.214 6.605-22.169 10.439-22.169s10.438 10.955 10.438 22.169c0 7.697-3.22 11.129-10.438 11.129-7.219 0-10.439-3.432-10.439-11.129z"/><path d="m345.848 351.968c15.691 0 25.439-10.012 25.439-26.129 0-15.521-9.678-37.169-25.439-37.169s-25.438 21.648-25.438 37.169c-.001 16.117 9.746 26.129 25.438 26.129zm0-48.298c3.834 0 10.439 10.955 10.439 22.169 0 7.697-3.22 11.129-10.439 11.129s-10.438-3.433-10.438-11.129c-.001-11.214 6.604-22.169 10.438-22.169z"/><path d="m343.505 469.33c10.573.299 17.352-8.808 20.219-14.064.179-.294.44-.37.546-.389.174-.034.24.019.283.052 4.155 3.259 9.017 4.912 14.447 4.912 5.286 0 10.293-1.829 14.478-5.289.02-.017.076-.068.257-.038.091.015.316.074.449.289 2.817 4.842 9.299 14.492 21.004 14.526 13.802-.115 28.58-13.386 28.58-32.959.562-8.181-2.94-18.734-9.522-25.117-7.095-6.911-13.459-17.916-15.99-28.249-2.196-8.785-10.055-14.92-19.11-14.92h-38.346c-8.937 0-16.769 6.035-19.047 14.677-2.827 10.726-8.629 20.377-16.777 27.909-6.726 5.942-10.564 16.053-10.743 25.7-.001 19.57 15.135 32.842 29.272 32.96zm-13.976-35.362c.164-3.501 1.731-8.416 5.629-12.284 10.247-9.473 17.543-21.61 21.099-35.1.544-2.061 2.412-3.5 4.543-3.5h38.345c2.143 0 4.005 1.44 4.563 3.582 3.333 13.318 10.225 25.488 19.931 35.194 3.184 3.186 5.541 8.79 5.129 14.51 0 11.057-7.982 17.913-13.705 17.96-.02 0-.039 0-.058 0-2.32 0-4.219-1.17-8.048-7.39-2.369-3.849-6.295-6.482-10.771-7.224-4.392-.729-8.864.464-12.266 3.274-1.526 1.263-3.091 1.851-4.921 1.851-2.05 0-3.698-.545-5.189-1.714-3.44-2.699-7.895-3.795-12.227-3.008-4.438.808-8.332 3.491-10.683 7.362-3.594 5.918-5.119 6.842-7.272 6.849-5.821-.048-14.214-6.335-14.394-17.592z"/></g></g></svg>