<svg id="Capa_1" enable-background="new 0 0 512.109 512.109" height="512" viewBox="0 0 512.109 512.109" width="512" xmlns="http://www.w3.org/2000/svg"><g><g><g><path d="m177.405 124.634-18.899-19.546c-2.595-2.684-6.683-3.257-9.915-1.39l-17.178 9.918c-3.233 1.866-4.78 5.693-3.754 9.282l7.478 26.14 4.508 9.001 41.024-21.203z" fill="#f6df59"/><path d="m143.669 113.301 18.899 19.546 3.135 11.724 14.965-7.735-3.263-12.202-18.899-19.546c-2.595-2.683-6.683-3.257-9.915-1.39l-12.783 7.38c2.775-.709 5.792.084 7.861 2.223z" fill="#edbf50"/><path d="m305.026 295.179-87.22 50.356-105.146-183.52 87.22-50.357z" fill="#dff9f9"/><ellipse cx="40.069" cy="326.036" fill="#f3ffff" rx="32.539" ry="32.539" transform="matrix(.568 -.823 .823 .568 -251.031 173.834)"/><g fill="#f6df59"><ellipse cx="209.146" cy="228.42" rx="16.269" ry="16.269" transform="matrix(.259 -.966 .966 .259 -65.622 371.32)"/><ellipse cx="176.607" cy="172.061" rx="16.269" ry="16.269" transform="matrix(.259 -.966 .966 .259 -35.3 298.118)"/><path d="m257.207 289.652c1.315-4.193.938-8.903-1.433-13.009-4.493-7.781-14.443-10.448-22.224-5.955-7.248 4.184-10.058 13.103-6.779 20.595z"/></g><path d="m144.999 364.59c-31.166-6.114-59.623-25.158-76.75-54.823-25.866-44.801-17.833-99.87 16.14-135.508h22.14l92.712 174.167z" fill="#92b0ea"/><path d="m393.952 27.892-.136.103c-34.242 25.849-74.469 42.613-116.934 48.732l-15.781 2.273c-4.097.59-8.044 1.957-11.629 4.027l-22.753 13.136 47.38 115.984 58.371 67.182 22.753-13.136c3.585-2.07 6.742-4.805 9.302-8.058l9.748-12.388c26.602-33.807 61.347-60.312 100.983-77.035l-22.569-78.545z" fill="#92b0ea"/><path d="m68.249 309.767c-8.09-14.012-25.026-19.724-39.68-14.168 6.789 2.561 12.769 7.394 16.68 14.168 8.985 15.563 3.653 35.463-11.91 44.449-1.551.896-3.147 1.643-4.769 2.258 8.808 3.322 18.98 2.817 27.769-2.258 15.563-8.986 20.895-28.886 11.91-44.449z" fill="#dff9f9"/><path d="m190.697 163.926c-4.493-7.782-14.443-10.448-22.224-5.955-1.266.731-2.382 1.619-3.368 2.606.98.982 1.861 2.091 2.587 3.349 3.762 6.515 2.49 14.539-2.587 19.619 5.079 5.092 13.114 6.372 19.637 2.606 7.781-4.493 10.447-14.443 5.955-22.225z" fill="#edbf50"/><path d="m223.235 220.285c-4.493-7.782-14.443-10.448-22.224-5.955-1.265.73-2.38 1.617-3.365 2.603.981.983 1.863 2.093 2.59 3.352 3.762 6.516 2.489 14.542-2.59 19.621 5.079 5.089 13.112 6.369 19.635 2.603 7.781-4.492 10.447-14.443 5.954-22.224z" fill="#edbf50"/><path d="m257.207 289.652c1.315-4.193.938-8.903-1.433-13.009-4.493-7.781-14.443-10.448-22.224-5.955-7.248 4.184-10.058 13.103-6.779 20.595z" fill="#f6df59"/><path d="m233.55 270.689c-1.263.729-2.382 1.609-3.366 2.593 0 .001.001.01.001.01.981.983 1.863 2.093 2.59 3.352 2.613 4.526 2.792 9.777.96 14.266l23.473-1.258c1.315-4.193.938-8.903-1.433-13.008-4.494-7.782-14.444-10.448-22.225-5.955z" fill="#edbf50"/><path d="m195.649 302.659-81.648-141.418c-4.493-7.782-14.443-10.448-22.224-5.955-7.782 4.493-10.448 14.443-5.955 22.224l83.856 145.242z" fill="#f6df59"/><path d="m91.113 161.241 88.859 153.547 15.676-12.129-81.647-141.418c-4.493-7.781-14.443-10.448-22.225-5.955-1.241.716-2.336 1.584-3.308 2.547 1.004.995 1.905 2.125 2.645 3.408z" fill="#edbf50"/><path d="m304.29 295.599c4.493 7.782 14.443 10.448 22.224 5.955 7.782-4.493 10.448-14.443 5.955-22.224l-105.75-183.167c-4.493-7.782-14.443-10.448-22.224-5.955-7.782 4.493-10.448 14.443-5.955 22.224z" fill="#f6df59"/><path d="m332.47 279.329-105.751-183.166c-4.493-7.782-14.443-10.448-22.224-5.955-1.265.73-2.38 1.617-3.366 2.603.981.983 1.863 2.093 2.59 3.352l105.751 183.166c3.762 6.517 2.489 14.542-2.59 19.621 5.079 5.09 13.112 6.368 19.635 2.603 7.781-4.492 10.447-14.442 5.955-22.224z" fill="#edbf50"/><path d="m500.573 163.488-14.323 8.269c-3.826 2.209-8.719.898-10.928-2.928l-81.438-141.053c-2.209-3.826-.898-8.719 2.928-10.928l14.323-8.269c3.826-2.209 8.719-.898 10.928 2.928l81.438 141.054c2.209 3.826.898 8.718-2.928 10.927z" fill="#f6df59"/><path d="m503.501 152.56-81.437-141.054c-2.209-3.826-7.102-5.137-10.928-2.928l-10.339 5.969 79.682 138.013c2.209 3.826.898 8.719-2.928 10.928l-3.984 2.3 1.756 3.041c2.209 3.826 7.102 5.137 10.928 2.928l14.323-8.269c3.825-2.209 5.136-7.101 2.927-10.928z" fill="#edbf50"/></g><g><path d="m325.444 322.375h87.965c4.575 0 8.283 3.708 8.283 8.283v34.555c0 4.394-1.745 8.608-4.852 11.714l-23.429 23.429c-3.107 3.107-7.321 4.852-11.714 4.852h-26.271l-66.683 66.267-118.77-.067-37.84 27.029c-5.619 4.014-12.353 6.172-19.258 6.172h-72.217c-9.15 0-16.567-7.417-16.567-16.567v-41.417c0-4.575 3.709-8.283 8.283-8.283h49.7c4.575 0 8.283 3.709 8.283 8.283v8.283c0 4.575 3.708 8.283 8.283 8.283h4.564c2.366 0 4.619-1.012 6.191-2.78l33.715-37.929 67.497-83.541 85.634-.534z" fill="#e59f4f"/><g><ellipse cx="247.742" cy="396.925" fill="#f3ffff" rx="16.567" ry="16.567" transform="matrix(.16 -.987 .987 .16 -183.742 577.888)"/><path d="m247.742 289.242c-59.472 0-107.683 48.211-107.683 107.683s48.212 107.683 107.683 107.683c59.472 0 107.683-48.211 107.683-107.683s-48.211-107.683-107.683-107.683zm0 165.667c-32.023 0-57.983-25.96-57.983-57.983s25.96-57.983 57.983-57.983 57.983 25.96 57.983 57.983-25.96 57.983-57.983 57.983z" fill="#413e82"/><path d="m247.742 380.359c-4.435 0-8.454 1.753-11.427 4.591 3.161 3.017 5.139 7.261 5.139 11.975s-1.979 8.959-5.139 11.975c2.974 2.838 6.992 4.591 11.427 4.591 9.15 0 16.567-7.417 16.567-16.567-.001-9.148-7.418-16.565-16.567-16.565z" fill="#dff9f9"/><path d="m247.742 289.242c-3.86 0-7.672.207-11.427.604 54.099 5.707 96.256 51.468 96.256 107.08s-42.157 101.373-96.256 107.08c3.755.396 7.567.604 11.427.604 59.472 0 107.683-48.211 107.683-107.683 0-59.474-48.211-107.685-107.683-107.685z" fill="#2f2c59"/></g><g><g><g><path d="m152.105 471.411c-3.338-.002-6.593 1.04-9.309 2.98l-33.664 24.046c-5.619 4.014-12.353 6.172-19.258 6.172h23c6.906 0 13.639-2.158 19.258-6.172l37.822-27.016z" fill="#e27f4d"/></g><g><path d="m413.408 322.375h-23c4.575 0 8.283 3.709 8.283 8.283v34.555c0 4.394-1.745 8.608-4.852 11.714l-23.429 23.429c-3.107 3.107-7.321 4.852-11.714 4.852h23c4.394 0 8.608-1.745 11.714-4.852l23.429-23.429c3.107-3.107 4.852-7.32 4.852-11.714v-34.555c.001-4.574-3.708-8.283-8.283-8.283z" fill="#e27f4d"/></g></g></g></g></g><g><g><path d="m59.296 478.975h-4.142c-4.143 0-7.5-3.358-7.5-7.5s3.357-7.5 7.5-7.5h4.142c4.143 0 7.5 3.358 7.5 7.5s-3.358 7.5-7.5 7.5z"/></g><g><g><path d="m140.008 116.158c-2.592 0-5.112-1.345-6.502-3.752l-8.135-14.089c-3.344-5.793-8.743-9.936-15.204-11.667-6.458-1.73-13.207-.843-18.999 2.501-3.586 2.07-8.173.842-10.245-2.745-2.071-3.587-.842-8.174 2.745-10.245 9.261-5.347 20.053-6.768 30.382-4 10.33 2.768 18.964 9.393 24.312 18.655l8.135 14.089c2.071 3.587.842 8.174-2.745 10.245-1.182.684-2.472 1.008-3.744 1.008z"/></g><g><path d="m482.275 180.336c-1.347 0-2.701-.177-4.037-.535-3.999-1.072-7.341-3.636-9.411-7.222l-81.438-141.053c-4.273-7.401-1.728-16.899 5.672-21.173l14.324-8.269c3.586-2.07 7.763-2.62 11.762-1.549s7.341 3.636 9.411 7.222l81.439 141.054c4.273 7.402 1.727 16.9-5.674 21.173l-14.323 8.269c-2.388 1.379-5.039 2.083-7.725 2.083zm-67.145-165.331c-.125 0-.21.049-.243.068l-14.324 8.269c-.238.138-.32.444-.183.683l81.438 141.054c.138.239.445.32.683.183l14.323-8.27c.239-.138.321-.444.184-.683l-81.44-141.053c-.025-.045-.104-.179-.304-.233-.048-.013-.093-.018-.134-.018z"/></g><g><path d="m40.137 366.067c-13.849 0-27.335-7.181-34.743-20.011-11.038-19.121-4.464-43.656 14.656-54.694 19.121-11.04 43.656-4.464 54.694 14.655 5.348 9.262 6.768 20.052 4 30.382-2.768 10.331-9.394 18.965-18.655 24.312-6.289 3.631-13.164 5.356-19.952 5.356zm-.11-65.065c-4.245 0-8.544 1.079-12.478 3.35-11.956 6.903-16.067 22.247-9.165 34.204 6.904 11.955 22.246 16.069 34.204 9.164 5.792-3.344 9.936-8.744 11.666-15.204 1.731-6.46.843-13.208-2.501-19.001-4.631-8.022-13.066-12.513-21.726-12.513z"/></g><g><g><path d="m209.184 252.199c-2.065 0-4.143-.271-6.191-.82-6.133-1.643-11.259-5.577-14.433-11.075-3.175-5.499-4.018-11.904-2.375-18.037 1.644-6.133 5.576-11.259 11.075-14.433 5.497-3.175 11.903-4.019 18.036-2.374 6.133 1.643 11.258 5.576 14.433 11.075v-.001c3.175 5.499 4.018 11.904 2.375 18.037-1.644 6.133-5.576 11.259-11.075 14.433-3.661 2.115-7.727 3.195-11.845 3.195zm-.052-32.553c-1.52 0-3.018.398-4.37 1.179-2.029 1.171-3.48 3.062-4.086 5.325-.607 2.263-.296 4.626.876 6.655 2.417 4.187 7.789 5.627 11.979 3.21 2.029-1.171 3.48-3.062 4.086-5.325s.296-4.626-.876-6.655c0 0 0 0 0-.001-1.171-2.028-3.062-3.48-5.324-4.085-.757-.203-1.524-.303-2.285-.303z"/></g><g><path d="m176.647 195.825c-8.222 0-16.228-4.263-20.625-11.88-3.175-5.498-4.019-11.904-2.375-18.037 1.644-6.132 5.577-11.258 11.075-14.433 11.349-6.551 25.915-2.651 32.47 8.7v.001c6.553 11.351 2.649 25.916-8.7 32.469-3.733 2.156-7.816 3.18-11.845 3.18zm-.055-32.532c-1.486 0-2.992.377-4.369 1.173-2.028 1.171-3.479 3.062-4.086 5.325-.606 2.263-.295 4.625.876 6.654 2.418 4.188 7.793 5.628 11.979 3.21 4.188-2.418 5.627-7.792 3.21-11.98-1.623-2.809-4.577-4.382-7.61-4.382z"/></g><g><path d="m226.774 298.785c-2.889 0-5.643-1.679-6.875-4.495-4.855-11.096-.599-24.034 9.9-30.097 5.499-3.175 11.902-4.019 18.037-2.375 6.133 1.643 11.259 5.576 14.433 11.075 3.317 5.746 4.08 12.672 2.094 19.003-1.24 3.953-5.452 6.15-9.401 4.911-3.952-1.24-6.151-5.449-4.911-9.401.744-2.372.47-4.862-.771-7.014-1.171-2.028-3.062-3.479-5.324-4.086-2.265-.607-4.626-.295-6.655.876-3.874 2.237-5.447 7.006-3.658 11.093 1.66 3.795-.069 8.217-3.864 9.878-.98.43-2.001.632-3.005.632z"/></g></g><g><path d="m135.132 156.54c-3.263 0-6.265-2.146-7.207-5.439l-7.478-26.14c-1.976-6.91.99-14.246 7.214-17.839l17.179-9.919c6.225-3.592 14.062-2.495 19.058 2.672l18.899 19.546c2.879 2.978 2.8 7.726-.178 10.605-2.979 2.878-7.727 2.8-10.605-.178l-18.899-19.546c-.202-.21-.521-.255-.775-.108l-17.177 9.917c-.253.146-.373.444-.293.725l7.478 26.14c1.139 3.982-1.166 8.134-5.148 9.273-.69.197-1.386.291-2.068.291z"/></g><g><path d="m57.486 228.658c-.69 0-1.393-.096-2.088-.297-3.979-1.151-6.271-5.31-5.12-9.289 5.408-18.692 15.326-35.978 28.683-49.988 2.857-2.999 7.604-3.112 10.604-.253 2.998 2.858 3.111 7.605.254 10.604-11.7 12.273-20.391 27.42-25.132 43.807-.95 3.281-3.947 5.416-7.201 5.416z"/></g><g><path d="m145.007 372.092c-.479 0-.964-.046-1.451-.142-34.448-6.758-64.264-28.056-81.802-58.434-10.998-19.049-16.623-40.684-16.266-62.564.067-4.1 3.412-7.378 7.496-7.378.042 0 .083.001.125.001 4.142.068 7.444 3.48 7.377 7.622-.312 19.166 4.617 38.122 14.258 54.819 15.371 26.624 41.504 45.29 71.698 51.214 4.065.797 6.714 4.739 5.916 8.804-.701 3.577-3.838 6.058-7.351 6.058z"/></g><g><g><g><path d="m318.419 311.243c-2.064 0-4.142-.272-6.19-.82-6.133-1.643-11.259-5.576-14.433-11.075l-105.751-183.166c-3.175-5.498-4.018-11.903-2.375-18.036s5.576-11.259 11.074-14.433c11.35-6.552 25.916-2.65 32.47 8.7l105.751 183.167c3.175 5.498 4.019 11.904 2.375 18.037-1.643 6.133-5.576 11.258-11.075 14.433-3.663 2.113-7.728 3.193-11.846 3.193zm-105.805-215.713c-1.486 0-2.992.378-4.37 1.173-2.028 1.171-3.48 3.062-4.085 5.325-.607 2.262-.296 4.626.876 6.654l105.751 183.166v.001c1.171 2.028 3.062 3.479 5.324 4.085 2.263.606 4.625.295 6.654-.876s3.48-3.062 4.086-5.325.296-4.626-.876-6.654l-105.751-183.166c-1.622-2.81-4.576-4.383-7.609-4.383z"/></g><g><path d="m169.684 330.254c-2.592 0-5.113-1.345-6.502-3.751l-83.855-145.243c-3.175-5.499-4.019-11.904-2.375-18.037s5.576-11.259 11.075-14.433c5.499-3.175 11.904-4.018 18.036-2.374 6.133 1.644 11.259 5.577 14.433 11.075l81.648 141.418c2.071 3.587.842 8.174-2.745 10.245-3.585 2.071-8.173.842-10.245-2.745l-81.648-141.419c-1.171-2.029-3.062-3.479-5.324-4.086-2.265-.605-4.626-.295-6.654.876-2.029 1.171-3.48 3.062-4.086 5.325s-.296 4.626.876 6.655l83.855 145.242c2.071 3.587.842 8.174-2.745 10.245-1.181.682-2.471 1.006-3.744 1.007z"/></g><g><path d="m114.008 168.742c-2.592 0-5.113-1.345-6.502-3.752-2.071-3.587-.842-8.174 2.745-10.245l84.539-48.808c3.585-2.072 8.175-.842 10.245 2.745 2.071 3.587.842 8.174-2.745 10.245l-84.539 48.808c-1.181.683-2.471 1.007-3.743 1.007z"/></g><g><path d="m295.774 308.021c-2.592 0-5.113-1.345-6.502-3.752-2.071-3.587-.842-8.174 2.745-10.245l8.523-4.921c3.585-2.072 8.174-.843 10.245 2.745 2.071 3.587.842 8.174-2.745 10.245l-8.523 4.921c-1.18.683-2.47 1.007-3.743 1.007z"/></g></g><g><path d="m226.725 103.664c-2.592 0-5.113-1.345-6.502-3.751-2.071-3.587-.842-8.174 2.745-10.245l22.753-13.136c4.432-2.558 9.246-4.225 14.309-4.955l15.781-2.274c41.1-5.921 80.343-22.275 113.485-47.294l.134-.101c3.305-2.497 8.008-1.841 10.505 1.464s1.842 8.008-1.464 10.505l-.136.102c-35.158 26.541-76.785 43.889-120.384 50.171l-15.781 2.274c-3.166.457-6.178 1.499-8.949 3.099l-22.752 13.136c-1.181.681-2.471 1.005-3.744 1.005z"/></g><g><path d="m408.77 217.302c-2.116 0-4.219-.89-5.702-2.624-2.693-3.147-2.325-7.881.821-10.575 20.528-17.568 43.559-31.8 68.45-42.301 3.812-1.609 8.214.178 9.825 3.995 1.61 3.816-.179 8.216-3.995 9.826-23.465 9.899-45.175 23.316-64.526 39.877-1.414 1.21-3.148 1.802-4.873 1.802z"/></g><g><path d="m332.476 286.831c-2.592 0-5.113-1.345-6.502-3.751-2.071-3.587-.842-8.174 2.745-10.245l22.753-13.136c2.771-1.6 5.18-3.686 7.157-6.2l9.749-12.389c3.244-4.123 6.666-8.211 10.17-12.15 2.753-3.094 7.493-3.372 10.589-.618 3.095 2.753 3.371 7.494.618 10.589-3.304 3.714-6.53 7.568-9.589 11.456l-9.749 12.388c-3.162 4.02-7.014 7.356-11.445 9.915l-22.753 13.136c-1.18.681-2.47 1.005-3.743 1.005z"/></g></g><g><path d="m360.351 270.033c-2.592 0-5.112-1.345-6.502-3.751l-105.141-182.11c-2.071-3.587-.842-8.174 2.745-10.245 3.585-2.071 8.173-.842 10.245 2.745l105.142 182.11c2.071 3.587.842 8.174-2.745 10.245-1.181.682-2.471 1.006-3.744 1.006z"/></g></g><g><g><g><path d="m247.742 420.992c-13.27 0-24.066-10.796-24.066-24.066 0-13.271 10.796-24.067 24.066-24.067 13.271 0 24.066 10.796 24.066 24.067 0 13.27-10.796 24.066-24.066 24.066zm0-33.133c-4.999 0-9.066 4.067-9.066 9.067 0 4.999 4.067 9.066 9.066 9.066s9.066-4.067 9.066-9.066c0-5-4.067-9.067-9.066-9.067z"/></g><g><path d="m247.742 462.408c-36.107 0-65.483-29.376-65.483-65.483s29.376-65.483 65.483-65.483 65.483 29.376 65.483 65.483-29.376 65.483-65.483 65.483zm0-115.966c-27.837 0-50.483 22.647-50.483 50.483s22.646 50.483 50.483 50.483 50.483-22.647 50.483-50.483-22.646-50.483-50.483-50.483z"/></g><g><path d="m247.742 512.109c-63.513 0-115.184-51.671-115.184-115.183s51.671-115.184 115.184-115.184 115.184 51.671 115.184 115.184-51.671 115.183-115.184 115.183zm0-215.367c-55.241 0-100.184 44.942-100.184 100.184s44.942 100.183 100.184 100.183 100.184-44.942 100.184-100.183-44.943-100.184-100.184-100.184z"/></g><g><g><path d="m236.027 392.711c-1.919 0-3.839-.732-5.304-2.197l-29.286-29.286c-2.929-2.929-2.929-7.678 0-10.606 2.93-2.929 7.678-2.929 10.607 0l29.286 29.286c2.929 2.929 2.929 7.678 0 10.607-1.464 1.464-3.384 2.196-5.303 2.196z"/></g><g><path d="m288.742 445.426c-1.919 0-3.839-.732-5.304-2.197l-29.286-29.286c-2.929-2.929-2.929-7.678 0-10.607 2.93-2.929 7.678-2.929 10.607 0l29.286 29.286c2.929 2.929 2.929 7.678 0 10.606-1.464 1.465-3.384 2.198-5.303 2.198z"/></g></g><g><g><path d="m259.456 392.711c-1.919 0-3.839-.732-5.304-2.197-2.929-2.929-2.929-7.678 0-10.607l29.286-29.286c2.93-2.929 7.678-2.929 10.607 0s2.929 7.678 0 10.606l-29.286 29.286c-1.464 1.466-3.384 2.198-5.303 2.198z"/></g><g><path d="m206.741 445.426c-1.92 0-3.839-.732-5.304-2.197-2.929-2.929-2.929-7.678 0-10.606l29.286-29.286c2.931-2.93 7.679-2.929 10.607 0 2.929 2.929 2.929 7.678 0 10.607l-29.286 29.286c-1.464 1.463-3.384 2.196-5.303 2.196z"/></g></g></g><g><path d="m112.874 512.109h-72.215c-13.271 0-24.067-10.796-24.067-24.067v-41.417c0-8.703 7.08-15.783 15.783-15.783h49.7c8.703 0 15.783 7.08 15.783 15.783v8.283c0 .432.352.784.783.784h4.564c.223 0 .437-.096.584-.262l33.716-37.93c2.751-3.096 7.492-3.375 10.588-.623s3.375 7.492.623 10.588l-33.715 37.929c-2.991 3.366-7.291 5.297-11.796 5.297h-4.564c-8.703 0-15.783-7.081-15.783-15.784v-8.283c0-.432-.352-.783-.783-.783h-49.7c-.432 0-.783.352-.783.783v41.417c0 4.999 4.067 9.067 9.067 9.067h72.215c5.374 0 10.525-1.651 14.898-4.774l37.841-27.029c3.37-2.408 8.054-1.628 10.462 1.744 2.408 3.371 1.627 8.055-1.743 10.462l-37.841 27.029c-6.932 4.951-15.099 7.569-23.617 7.569z"/></g><g><path d="m381.696 412.709h-26.271c-4.143 0-7.5-3.358-7.5-7.5s3.357-7.5 7.5-7.5h26.271c2.422 0 4.699-.943 6.412-2.656l23.428-23.428c1.713-1.713 2.656-3.99 2.656-6.411v-34.555c0-.432-.352-.783-.783-.783h-87.965c-4.143 0-7.5-3.358-7.5-7.5s3.357-7.5 7.5-7.5h87.965c8.703 0 15.783 7.08 15.783 15.783v34.555c0 6.428-2.503 12.471-7.049 17.017l-23.429 23.429c-4.546 4.545-10.59 7.049-17.018 7.049z"/></g></g><g><path d="m390.507 363.009h-4.142c-4.143 0-7.5-3.358-7.5-7.5s3.357-7.5 7.5-7.5h4.142c4.143 0 7.5 3.358 7.5 7.5s-3.358 7.5-7.5 7.5z"/></g></g></g></svg>