<svg id="Capa_1" enable-background="new 0 0 512 512" height="512" viewBox="0 0 512 512" width="512" xmlns="http://www.w3.org/2000/svg"><g><g><path d="m140.14 438.66-67.695-66.762 164.943-165.095c3.914-3.918 10.251-3.926 14.154-.019l54.56 53.611c3.903 3.908 3.895 10.252-.019 14.17l-12.148 14.16-21.24 21.26-11.745 7.754-9.496 13.505-100.814 100.906z" fill="#f9f8f9"/><path d="m251.883 287.171 10.502-8.499 10.751-10.747-4.751-11.752-13.083-6.084-10.498-8.499-19.253 19.247z" fill="#e8e8e8"/><path d="m92.563 369.778 98.67-98.759 8.636-12.647 12.604-8.613 21.24-21.26-3.91-7.074-6.594-3.432-21.24 21.26-9.735 12.746-11.505 8.514-111.39 111.49 30.118 33.939 40.302 37.098 10.88-10.89-41.067-41.105-7.447-3.452-3.154-7.159-6.409-6.415c-1.169-1.172-1.169-3.07.001-4.241z" fill="#e8e8e8"/><path d="m246.672 258.715 8.629-8.626-4.294-7.294-6.204-3.204-21.254 21.246 11.931 15.933 16.401 12.402 10.502-10.499-15.713-15.714c-1.17-1.172-1.169-3.072.002-4.244z" fill="#dcdbdd"/><path d="m77.939 464.262-30.201-30.25 19.615-19.655 10.502 8.518 11.609 9.625 10.136 12.062-11.163 11.183z" fill="#ffd064"/><path d="m129.89 472.968-90.832-90.933c-3.914-3.918-3.914-10.27 0-14.188l5.086-5.094c3.914-3.918 10.259-3.918 14.173 0l3.414 1.417 89.419 89.516c3.914 3.918 3.914 10.27 0 14.188l-3.673 3.677-3.414 1.417c-3.914 3.918-10.26 3.918-14.173 0z" fill="#f9f8f9"/><path d="m68.854 431.892 9.001-9.017-3.007-6.015-7.462-4.536-21.727 21.767 14.061 17.93 18.175 14.286 10.543-10.562-19.583-19.613c-1.17-1.172-1.17-3.069-.001-4.24z" fill="#ffc250"/><path d="m53.089 377.061c-1.17-1.171-1.17-3.069 0-4.24l8.641-8.651-3.414-3.417c-3.912-3.917-10.26-3.917-14.173 0l-7.086 7.094c-3.915 3.919-3.915 10.269 0 14.188l92.832 92.933c3.913 3.917 10.26 3.917 14.173 0l3.414-3.417z" fill="#e8e8e8"/><path d="m327.365 211.007-26.297-26.328 23.512-23.545c6.568-6.575 16.553-9.641 24.212-5.192 1.469.853 2.852 1.909 4.109 3.168 7.814 7.823 7.803 20.516-.024 28.352l-15.013 15.032z" fill="#ffd064"/><path d="m322.185 186.799c-1.17-1.171-1.17-3.069 0-4.24l26.612-26.614c-7.594-4.492-17.512-3.523-24.217 3.189l-25.512 25.545 11.139 15.153 17.158 13.175 10.499-10.512z" fill="#ffc250"/><path d="m302.891 253.178-44.002-44.047 24.216-24.242c3.914-3.918 10.519-3.659 14.753.58l2.834.837 27.834 27.861c4.234 4.238 4.494 10.851.581 14.769l-15.716 15.731z" fill="#ffd064"/><path d="m280.007 207.011 20.684-20.705-2.834-2.837c-4.234-4.238-10.839-4.498-14.753-.58l-26.247 26.273 20.072 25.031 25.889 21.056 10.572-10.583-33.383-33.416c-1.17-1.17-1.17-3.068 0-4.239z" fill="#ffc250"/><path d="m308.102 260.396-53.127-53.176-3.854-2.813c-3.955-3.539-8.988-4.365-12.732-.604l-14.178 14.191 69.726 69.732 10.496-9.505 3.652-3.655c3.795-3.668 4.021-9.677.51-13.618z" fill="#e8e8e8"/><path d="m246.329 215.873 8.645-8.653-3.432-3.435-.422-.378c-3.955-3.539-9.988-3.365-13.732.396l-14.178 14.191 70.726 70.732 10.496-10.505-58.101-58.106c-1.172-1.172-1.173-3.071-.002-4.242z" fill="#dcdbdd"/><path d="m251.455 329.245-68.726-68.732 19.24-19.259 10.505 8.505 60.221 60.226-10.745 10.755z" fill="#e8e8e8"/><path d="m203.848 258.392 8.625-8.633-10.504-10.505-21.24 21.26 70.726 70.732 10.496-10.505-58.101-58.106c-1.172-1.173-1.172-3.071-.002-4.243z" fill="#dcdbdd"/><path d="m70.666 499.562-58.235-58.3c-3.914-3.918-3.914-10.27 0-14.188l5.086-5.094c3.914-3.918 10.259-3.918 14.173 0l3.414 1.417 56.821 56.883c3.914 3.918 3.914 10.27 0 14.188l-3.673 3.677-3.414 1.417c-3.913 3.918-10.259 3.918-14.172 0z" fill="#ffd064"/><path d="m26.462 436.288c-1.17-1.171-1.17-3.069 0-4.24l8.641-8.651-3.414-3.417c-3.913-3.917-10.26-3.917-14.173 0l-7.086 7.094c-3.915 3.919-3.915 10.269 0 14.188l60.235 60.3c3.912 3.917 10.26 3.917 14.173 0l3.414-3.417z" fill="#ffc250"/></g><path d="m509.796 2.194c-2.93-2.927-7.679-2.925-10.606.006l-146.929 147.088c-9.186-5.49-24.293-4.533-32.988 4.547l-20.855 20.882c-2.625-1.357-5.535-2.104-8.469-2.104-4.63 0-8.945 1.768-12.15 4.976l-20.912 20.934-.038-.038c-3.302-3.305-7.694-5.125-12.367-5.125-4.683 0-9.086 1.827-12.399 5.143l-94.472 94.56c-2.928 2.93-2.925 7.679.005 10.606 2.93 2.928 7.679 2.925 10.606-.005l32.511-32.541 13.797 13.799-100.759 100.711-13.723-13.738 43.426-43.482c2.927-2.931 2.924-7.68-.007-10.606-2.931-2.927-7.68-2.923-10.606.007l-43.414 43.47-5.824-5.831c-3.31-3.313-7.71-5.138-12.392-5.138 0 0 0 0-.001 0-4.681 0-9.083 1.825-12.393 5.138l-7.086 7.094c-6.827 6.834-6.827 17.955 0 24.789l25 25.028-11.03 11.05-8.725-8.734c-3.31-3.313-7.711-5.138-12.393-5.138s-9.083 1.825-12.392 5.138l-7.087 7.095c-6.827 6.834-6.827 17.955 0 24.788l15.622 15.643c2.927 2.931 7.676 2.935 10.606.007 2.931-2.927 2.934-7.675.007-10.606l-15.622-15.643c-.988-.989-.988-2.598 0-3.587l7.087-7.095c.642-.643 1.391-.739 1.78-.739.39 0 1.139.096 1.781.739l60.234 60.301c.988.989.988 2.598 0 3.587l-7.086 7.094c-.642.643-1.391.739-1.78.739-.39 0-1.139-.096-1.778-.736l-19.865-19.912c-2.925-2.932-7.674-2.938-10.606-.012-2.932 2.925-2.938 7.674-.012 10.606l19.867 19.913c3.31 3.313 7.711 5.138 12.394 5.138 4.681 0 9.082-1.825 12.392-5.138l7.086-7.094c6.828-6.834 6.828-17.955 0-24.789l-8.701-8.711 11.03-11.051 25.023 25.051c3.31 3.313 7.711 5.138 12.393 5.138s9.083-1.825 12.393-5.138l7.086-7.094c6.827-6.834 6.827-17.955 0-24.789l-5.716-5.722 162.65-162.797c6.798-6.806 6.83-17.851.098-24.682l20.925-20.947c5.444-5.451 6.366-13.789 2.896-20.573l20.874-20.901c8.87-8.879 10.41-22.349 4.633-32.816l146.987-147.147c2.927-2.93 2.925-7.679-.006-10.606zm-237.103 297.182-10.203-10.204 10.645-10.641 10.197 10.198zm-20.809-20.811-17.726-17.727 10.645-10.641 17.726 17.727zm-28.332-28.334-10.978-10.979 10.638-10.648 10.985 10.986zm-145.623 205.425-21.607-21.631 11.03-11.051 21.607 21.631zm67.914 6.917-7.086 7.094c-.642.643-1.391.739-1.78.739s-1.138-.096-1.78-.739l-92.833-92.934c-.988-.989-.988-2.598 0-3.587l7.086-7.094c.642-.643 1.391-.739 1.781-.739.389 0 1.138.096 1.78.739l92.833 92.933c.987.99.987 2.599-.001 3.588zm-41.471-66.328 20.556-20.546 16.239 16.257c1.465 1.466 3.385 2.2 5.306 2.2 1.918 0 3.836-.731 5.3-2.194 2.931-2.927 2.933-7.676.006-10.606l-16.242-16.26 14.213-14.206 16.22 16.238c1.465 1.466 3.385 2.2 5.306 2.2 1.918 0 3.836-.731 5.3-2.194 2.931-2.927 2.933-7.676.006-10.606l-16.223-16.241 13.503-13.497 16.201 16.219c1.465 1.466 3.385 2.2 5.306 2.2 1.918 0 3.836-.731 5.3-2.194 2.931-2.927 2.933-7.676.006-10.606l-16.205-16.222 22.43-22.419c2.362-2.361 3.663-5.5 3.664-8.839 0-3.339-1.299-6.479-3.661-8.84l-15.571-15.573 10.638-10.648 60.119 60.124-10.638 10.648-16.264-16.266c-2.929-2.929-7.677-2.928-10.607 0-2.929 2.929-2.929 7.678 0 10.607l16.269 16.271-100.711 100.798zm198.405-126.98-8.844 8.852-60.119-60.125 8.88-8.888c.647-.647 1.398-.744 1.788-.744.47 0 1.155.126 1.755.726l56.559 56.61c.977.979.969 2.58-.019 3.569zm21.023-45.63-20.91 20.932-35.401-35.433 20.922-20.944c.477-.477 1.1-.577 1.538-.577.919 0 1.868.422 2.603 1.158l30.667 30.698c1.286 1.286 1.552 3.195.581 4.166zm23.77-41.473-20.205 20.231-17.698-17.715 20.219-20.245c3.951-3.893 12.113-5.509 17.709-.024 4.882 4.888 4.871 12.852-.025 17.753z"/></g></svg>