<svg id="Capa_1" enable-background="new 0 0 512 512" height="512" viewBox="0 0 512 512" width="512" xmlns="http://www.w3.org/2000/svg"><g><g><path d="m363.683 140.033c20.228 0 37.058 14.505 40.683 33.678.251 1.328 1.169 2.435 2.426 2.932 19.145 7.568 32.471 26.67 31.379 48.746-1.252 25.321-21.822 45.871-47.143 47.116-5.139.253-10.115-.281-14.823-1.484-1.579-.404-3.231.184-4.208 1.489-7.553 10.089-19.593 16.624-33.165 16.624-9.022 0-17.371-2.885-24.173-7.783h-117.317c-6.803 4.898-15.151 7.783-24.173 7.783-13.573 0-25.613-6.534-33.165-16.624-.977-1.305-2.628-1.892-4.208-1.489-4.708 1.203-9.684 1.737-14.823 1.484-25.321-1.245-45.891-21.795-47.143-47.116-1.092-22.076 12.234-41.179 31.379-48.746 1.257-.497 2.175-1.604 2.426-2.932 3.625-19.174 20.455-33.678 40.683-33.678z" fill="#dc3d36"/><path d="m371.967 173.164v33.134c0 9.15-7.417 16.567-16.567 16.567h-198.8c-9.15 0-16.567-7.417-16.567-16.567v-33.134z" fill="#eaaa85"/><path d="m421.666 388.531c0-17.577-6.844-33.555-18.012-45.416l-295.307-.001c-11.169 11.861-18.012 27.84-18.012 45.417l-.001 99.401c0 9.15 7.417 16.567 16.567 16.567h49.701l16.567-9.183 16.565 9.183h132.535l16.566-9.183 16.566 9.183h49.699c9.15 0 16.567-7.417 16.567-16.567z" fill="#924af5"/><path d="m421.666 388.531c0-17.577-6.844-33.555-18.012-45.416l-295.307-.001 272.307.001c11.168 11.861 18.012 27.839 18.012 45.416l.001 99.401c0 9.15-7.417 16.567-16.567 16.567h23c9.15 0 16.567-7.417 16.567-16.567z" fill="#7536f9"/><path d="m355.4 504.5v-71.101h-198.8v71.101h33.133v-48.636h132.534v48.636z" fill="#e59f4f"/><path d="m332.4 433.399h23v71.101h-23z" fill="#e27f4d"/><path d="m124.5 322.267c-9.96 0-17.68 8.729-16.449 18.612 9.16 73.562 71.907 130.488 147.95 130.488s138.789-56.926 147.95-130.488c1.231-9.884-6.489-18.612-16.449-18.612z" fill="#f6df59"/><path d="m387.5 322.267h-23c9.96 0 17.68 8.729 16.449 18.612-8.694 69.818-65.661 124.642-136.45 130.043 3.796.29 7.63.445 11.5.445 76.043 0 138.789-56.926 147.95-130.488 1.231-9.884-6.489-18.612-16.449-18.612z" fill="#edbf50"/><path d="m338.833 322.265c0 45.747-37.086 82.833-82.833 82.833s-82.833-37.086-82.833-82.833z" fill="#e59f4f"/><ellipse cx="256" cy="421.667" fill="#dc3d36" rx="16.567" ry="16.567" transform="matrix(.16 -.987 .987 .16 -201.229 606.817)"/><path d="m256 405.1c-4.471 0-8.52 1.779-11.5 4.657 3.119 3.013 5.067 7.23 5.067 11.909s-1.947 8.897-5.067 11.909c2.98 2.878 7.029 4.657 11.5 4.657 9.15 0 16.567-7.417 16.567-16.567 0-9.148-7.417-16.565-16.567-16.565z" fill="#b13d49"/><path d="m315.835 322.265c0 41.843-31.032 76.42-71.334 82.02 3.76.522 7.595.813 11.499.813 45.747 0 82.833-37.086 82.833-82.833z" fill="#e27f4d"/><path d="m305.701 272.57v49.695c0 27.449-22.251 49.7-49.699 49.7s-49.699-22.251-49.699-49.7l-.001-49.702z" fill="#f2d2a1"/><path d="m206.301 272.564v.001l76.406.005v49.695c0 23.489-16.3 43.159-38.202 48.348 3.692.875 7.538 1.352 11.497 1.352 27.448 0 49.699-22.251 49.699-49.7v-49.695z" fill="#eaaa85"/><path d="m173.169 140.033.001 82.834c0 45.747 37.085 82.832 82.832 82.832s82.832-37.085 82.832-82.832v-82.834z" fill="#f3ffff"/><path d="m315.834 140.033v82.834c0 41.842-31.031 76.419-71.332 82.019 3.761.523 7.596.813 11.501.813 45.747 0 82.832-37.085 82.832-82.832v-82.834z" fill="#dff9f9"/><g><path d="m140.033 173.167h49.7c18.299 0 33.133-14.834 33.133-33.133v-7.568h66.268l-.001 7.568c0 18.299 14.834 33.133 33.133 33.133h49.7l-10.001-51.394h-211.931z" fill="#dc3d36"/></g><path d="m301.366 222.868c2.426 0 4.351 2.078 4.133 4.493-2.278 25.307-23.608 45.206-49.498 45.206s-47.219-19.899-49.498-45.206c-.217-2.416 1.708-4.493 4.133-4.493z" fill="#e28bd2"/><ellipse cx="256" cy="222.867" fill="#dc3d36" rx="16.567" ry="16.567" transform="matrix(.16 -.987 .987 .16 -4.996 439.862)"/><path d="m256 206.3c-4.471 0-8.52 1.779-11.5 4.657 3.119 3.013 5.067 7.23 5.067 11.909s-1.947 8.897-5.067 11.909c2.98 2.878 7.029 4.657 11.5 4.657 9.15 0 16.567-7.417 16.567-16.567 0-9.148-7.417-16.565-16.567-16.565z" fill="#b13d49"/><path d="m301.366 222.868h-23c2.426 0 4.351 2.078 4.133 4.493-1.93 21.438-17.534 38.99-37.998 43.857 3.693.878 7.542 1.348 11.5 1.348 25.89 0 47.219-19.899 49.498-45.206.218-2.415-1.707-4.492-4.133-4.492z" fill="#de6fba"/><path d="m168.314 73.767 87.686 19.49 87.686-19.491c-10.817-38.243-45.979-66.266-87.686-66.266s-76.869 28.023-87.686 66.267z" fill="#924af5"/><path d="m321.894 78.61 21.792-4.844c-10.817-38.243-45.979-66.266-87.686-66.266-3.895 0-7.733.246-11.5.72 38.245 4.817 69.092 33.344 77.394 70.39z" fill="#7536f9"/><path d="m164.883 98.617v20.542h182.233v-20.542c0-8.615-1.197-16.95-3.431-24.85h-175.371c-2.234 7.899-3.431 16.235-3.431 24.85z" fill="#f6df59"/><path d="m343.686 73.767h-23.005c2.235 7.9 3.436 16.234 3.436 24.85v20.542h23v-20.542c0-8.615-1.197-16.951-3.431-24.85z" fill="#edbf50"/><path d="m372.533 140.033h-233.066c-8.837 0-16-7.163-16-16v-9.133c0-4.418 3.582-8 8-8h249.067c4.418 0 8 3.582 8 8v9.133c-.001 8.837-7.164 16-16.001 16z" fill="#924af5"/><path d="m380.533 106.9h-23c4.418 0 8 3.582 8 8v9.133c0 8.837-7.163 16-16 16h23c8.837 0 16-7.163 16-16v-9.133c0-4.418-3.581-8-8-8z" fill="#7536f9"/><g><g><g><path d="m368.027 272.505c-5.139.253-10.115-.281-14.823-1.484-1.579-.404-3.231.184-4.207 1.489-5.336 7.128-12.917 12.467-21.691 14.996 3.659 1.058 7.526 1.628 11.526 1.628 13.573 0 25.613-6.534 33.165-16.624.112-.15.235-.287.364-.417-1.428.197-2.872.34-4.334.412z" fill="#b13d49"/></g><g><path d="m406.792 176.643c-1.257-.497-2.175-1.604-2.426-2.932-3.625-19.174-20.455-33.678-40.683-33.678h-23c20.228 0 37.058 14.505 40.683 33.678.251 1.328 1.169 2.435 2.426 2.932 19.145 7.568 32.471 26.67 31.379 48.746-1.1 22.241-17.106 40.797-38.143 45.826 4.465 1.06 9.158 1.528 14 1.29 25.321-1.245 45.891-21.794 47.143-47.115 1.092-22.077-12.234-41.179-31.379-48.747z" fill="#b13d49"/></g></g></g></g><g><path d="m222.868 205.515c4.142 0 7.5-3.357 7.5-7.5v-8.283c0-4.143-3.358-7.5-7.5-7.5s-7.5 3.357-7.5 7.5v8.283c0 4.142 3.358 7.5 7.5 7.5z"/><path d="m289.135 205.515c4.142 0 7.5-3.357 7.5-7.5v-8.283c0-4.143-3.358-7.5-7.5-7.5s-7.5 3.357-7.5 7.5v8.283c0 4.142 3.358 7.5 7.5 7.5z"/><path d="m411.506 340.64c.485-6.452-1.651-12.858-5.958-17.733-4.569-5.174-11.148-8.141-18.047-8.141h-74.299v-22.036c.792-.65 1.572-1.315 2.342-1.991 7.117 3.867 15.058 5.894 23.289 5.894 14.755 0 28.506-6.573 37.754-17.821 3.914.834 7.914 1.255 11.947 1.255 31.54 0 57.2-25.659 57.2-57.199 0-22.9-13.651-43.45-34.4-52.46-2.961-12.805-10.953-23.586-21.649-30.333 3.934-4.203 6.349-9.844 6.349-16.041v-9.134c0-8.547-6.953-15.5-15.5-15.5h-25.917v-.783c0-54.378-44.24-98.617-98.617-98.617-18.9 0-37.267 5.364-53.114 15.513-3.488 2.233-4.505 6.872-2.271 10.36 2.233 3.487 6.873 4.506 10.36 2.271 13.428-8.599 28.997-13.144 45.025-13.144 34.643 0 64.429 21.179 77.101 51.267h-154.244c2.936-6.981 6.834-13.589 11.681-19.68 2.58-3.241 2.043-7.96-1.198-10.539-3.24-2.579-7.958-2.044-10.538 1.197-14.012 17.606-21.419 38.827-21.419 61.372v.783h-25.917c-8.547 0-15.5 6.953-15.5 15.5v9.133c0 6.197 2.415 11.838 6.349 16.041-10.696 6.747-18.688 17.527-21.649 30.333-20.749 9.01-34.4 29.56-34.4 52.46 0 31.54 25.66 57.199 57.2 57.199 4.033 0 8.033-.421 11.947-1.255 9.249 11.248 22.999 17.821 37.754 17.821 8.231 0 16.173-2.027 23.291-5.895.77.676 1.549 1.341 2.341 1.991v22.038h-74.301c-6.9 0-13.478 2.967-18.047 8.141-4.307 4.875-6.443 11.281-5.958 17.733-11.413 13.351-17.66 30.219-17.66 47.891l-.002 99.401c.002 13.271 10.798 24.068 24.069 24.068h100.967c4.142 0 7.5-3.357 7.5-7.5s-3.358-7.5-7.5-7.5h-10.633v-29.592c18.218 7.396 38.076 11.458 58.767 11.458s40.549-4.062 58.767-11.458v29.592h-76.9c-4.142 0-7.5 3.357-7.5 7.5s3.358 7.5 7.5 7.5h167.232c13.271 0 24.067-10.797 24.067-24.067l-.001-99.401c-.001-17.672-6.247-34.541-17.66-47.892zm-155.506 71.96c5 0 9.067 4.067 9.067 9.067 0 4.999-4.067 9.066-9.067 9.066-4.999 0-9.067-4.067-9.067-9.066 0-5 4.068-9.067 9.067-9.067zm0-15.001c-39.007 0-71.181-29.802-74.958-67.832h18.267c3.687 28.006 27.696 49.698 56.692 49.698s53.005-21.692 56.692-49.698h18.265c-3.777 38.03-35.95 67.832-74.958 67.832zm-75.331-174.732-.001-42.2h9.065c19.842 0 36.398-14.301 39.928-33.134h52.678c3.53 18.833 20.085 33.134 39.928 33.134h9.068v42.186c0 .004-.001.007-.001.011v.008c-.003 41.537-33.796 75.328-75.332 75.328-41.539 0-75.333-33.794-75.333-75.333zm-15-7.503h-9.069c-4.999 0-9.067-4.067-9.067-9.066v-25.631h18.135zm198.798-34.697v25.631c0 4.999-4.067 9.066-9.067 9.066h-9.066v-34.697zm37.807 2.301c17.022 5.861 28.46 21.895 28.46 39.899 0 23.268-18.931 42.199-42.2 42.199-1.312 0-2.618-.068-3.917-.188 2.013-5.345 3.135-11.122 3.135-17.162 0-4.143-3.358-7.5-7.5-7.5s-7.5 3.357-7.5 7.5c0 7.101-2.205 13.691-5.951 19.144-.14.204-.87 1.222-1.102 1.523-6.411 8.338-16.261 13.249-26.867 13.249-4.285 0-8.451-.805-12.351-2.331 10.945-13.642 18.019-30.513 19.54-48.937h9.379c13.271 0 24.067-10.796 24.067-24.066v-33.134c0-4.143-3.358-7.5-7.5-7.5-.02 0-.038.003-.058.003h-49.642c-11.526 0-21.297-7.647-24.512-18.134h65.928c16.903 0 31.348 12.615 33.6 29.344.378 2.811 2.31 5.167 4.991 6.091zm-229.891-84.351c0-5.91.604-11.713 1.784-17.351h163.627c1.187 5.6 1.822 11.402 1.822 17.351v.783h-167.233zm-32.916 33.916c-4.687 0-8.5-3.814-8.5-8.5v-9.133c0-.275.224-.5.5-.5h249.066c.276 0 .5.225.5.5v9.133c0 4.686-3.813 8.5-8.5 8.5zm6.866 135.89h.001c-.26-.337-.896-1.22-.964-1.317-3.849-5.5-6.118-12.182-6.118-19.389 0-4.143-3.358-7.5-7.5-7.5s-7.5 3.357-7.5 7.5c0 6.04 1.122 11.817 3.135 17.162-1.3.12-2.607.188-3.92.188-23.269 0-42.2-18.931-42.2-42.199 0-18.004 11.437-34.038 28.459-39.899 2.681-.924 4.613-3.28 4.991-6.091 2.252-16.729 16.696-29.344 33.6-29.344h65.928c-3.215 10.487-12.986 18.134-24.512 18.134h-49.642c-.02 0-.038-.003-.058-.003-4.142 0-7.5 3.357-7.5 7.5v33.134c0 13.271 10.796 24.066 24.067 24.066h9.383c1.521 18.424 8.594 35.295 19.539 48.936-3.901 1.527-8.068 2.332-12.354 2.332-10.589 0-20.424-4.896-26.835-13.21zm109.669 44.777c15.234 0 29.596-3.796 42.199-10.484v19.549c0 23.269-18.931 42.199-42.2 42.199s-42.2-18.931-42.2-42.199c0-.007-.001-.013-.001-.019v-19.531c12.604 6.689 26.967 10.485 42.202 10.485zm-158.169 174.733.002-99.401c0-9.505 2.273-18.715 6.544-26.971 7.576 29.349 23.397 55.186 44.721 75.089v60.35h-42.2c-5 0-9.067-4.067-9.067-9.067zm84.4 9.067h-18.133v-47.989c5.767 4.184 11.824 7.98 18.133 11.358zm-66.74-157.048c-.325-2.612.457-5.14 2.203-7.115 1.749-1.98 4.165-3.07 6.804-3.07h41.481c3.238 39.198 31.609 71.375 68.919 80.337-1.889 3.434-2.967 7.375-2.967 11.563 0 13.271 10.796 24.066 24.067 24.066s24.067-10.796 24.067-24.066c0-4.188-1.078-8.129-2.967-11.563 37.31-8.962 65.682-41.139 68.92-80.338h41.48c2.639 0 5.056 1.09 6.804 3.07 1.746 1.976 2.528 4.503 2.203 7.115-8.797 70.644-69.202 123.915-140.507 123.915s-131.71-53.271-140.507-123.914zm214.274 120.416c6.309-3.377 12.367-7.174 18.133-11.358v47.99h-18.133zm75.333 36.632h-42.2v-60.35c21.324-19.903 37.145-45.74 44.721-75.089 4.271 8.255 6.545 17.465 6.545 26.97l.001 99.401c0 5.001-4.067 9.068-9.067 9.068z"/><path d="m294.681 264.976c10.52-9.67 17.015-22.789 18.289-36.942.291-3.235-.801-6.469-2.997-8.871-2.204-2.411-5.34-3.794-8.605-3.794l-22.502-.001c-3.16-9.609-12.212-16.568-22.864-16.568s-19.704 6.959-22.864 16.567h-22.499c-3.265 0-6.402 1.383-8.606 3.794-2.196 2.402-3.288 5.636-2.997 8.872 1.274 14.153 7.769 27.272 18.289 36.942 10.587 9.731 24.324 15.091 38.679 15.091 14.353 0 28.089-5.359 38.677-15.09zm-38.681-51.176c5 0 9.067 4.067 9.067 9.067 0 4.999-4.067 9.066-9.067 9.066-4.998 0-9.064-4.065-9.067-9.062 0-.002 0-.003 0-.005s0-.003 0-.005c.003-4.996 4.069-9.061 9.067-9.061zm-41.528 16.567h18.664c3.16 9.608 12.212 16.566 22.864 16.566s19.704-6.958 22.864-16.566l18.667.001c-3.581 19.731-21.148 34.698-41.529 34.698s-37.948-14.967-41.53-34.699z"/></g></g></svg>