<svg id="Capa_1" enable-background="new 0 0 512.013 512.013" height="512" viewBox="0 0 512.013 512.013" width="512" xmlns="http://www.w3.org/2000/svg"><g><g><g><path d="m90.509 77.003c0-6.948-4.05-12.95-9.918-15.776 0 0-2.5-.262-3.549-.545-1.455-.392-2.457-.521-4.036-.521-9.667 0-16.493 6.917-16.493 16.582s6.822 17.469 16.488 17.469c1.699 0 3.287-.349 4.84-.801.932-.271 2.752-.633 2.752-.633 5.868-2.827 9.916-8.828 9.916-15.775z" fill="#afefa5"/><path d="m80.595 92.777c-2.298 1.108-4.874 1.729-7.581 1.729-9.672 0-17.5-7.84-17.5-17.5s7.828-17.5 17.5-17.5c2.707 0 5.279.612 7.578 1.721-5.868 2.823-9.911 8.826-9.911 15.779s4.045 12.948 9.914 15.771z" fill="#8ce1a4"/></g><g><g><g><path d="m169.319 503.506h-50.932c-2.761 0-5-2.239-5-5v-88.021c0-2.761 2.239-5 5-5l10-1h41.932c2.761 0 5 2.239 5 5v79.021l-1 10c0 2.762-2.238 5-5 5z" fill="#b2e5fb"/><path d="m175.317 488.506v11c0 2.761-2.239 5-5 5h-52.93c-2.761 0-5-2.239-5-5v-90.023c0-2.761 2.239-5 5-5l11 .002v80.021c0 2.209 1.791 4 4 4z" fill="#98e0f9"/></g><g><path d="m274.206 503.506h-50.932c-2.761 0-5-2.239-5-5v-135.153c0-2.761 2.239-5 5-5l10-1h41.932c2.761 0 5 2.239 5 5v126.153l-1 10c0 2.762-2.238 5-5 5z" fill="#e27f86"/><path d="m280.204 488.506v11c0 2.761-2.239 5-5 5h-52.93c-2.761 0-5-2.239-5-5v-137.154c0-2.761 2.239-5 5-5l11 .002v127.153c0 2.209 1.791 4 4 4h42.93z" fill="#df646e"/></g><g><path d="m379.093 503.506h-50.932c-2.761 0-5-2.239-5-5v-249.911c0-2.761 2.239-5 5-5l10-1h41.932c2.761 0 5 2.239 5 5v240.912l-1 10c0 2.761-2.238 4.999-5 4.999z" fill="#ffe07d"/><path d="m385.091 488.506v11c0 2.761-2.239 5-5 5h-52.93c-2.761 0-5-2.239-5-5v-251.913c0-2.761 2.239-5 5-5l11 .002v241.912c0 2.209 1.791 4 4 4h42.93z" fill="#ffd064"/></g><g><path d="m483.98 503.506h-50.932c-2.761 0-5-2.239-5-5v-187.322c0-2.761 2.239-5 5-5l10-1h41.932c2.761 0 5 2.239 5 5v178.322l-1 10c0 2.762-2.238 5-5 5z" fill="#afefa5"/><path d="m489.978 488.506v11c0 2.761-2.239 5-5 5h-52.93c-2.761 0-5-2.239-5-5v-189.323c0-2.761 2.239-5 5-5l11 .002v179.322c0 2.209 1.791 4 4 4h42.93z" fill="#8ce1a4"/></g><g><path d="m483.98 272.711h-50.932c-2.761 0-5-2.239-5-5v-19.47c0-2.761 2.239-5 5-5l10-1h41.932c2.761 0 5 2.239 5 5v10.471l-1 10c0 2.76-2.238 4.999-5 4.999z" fill="#afefa5"/><path d="m489.978 257.711v11c0 2.761-2.239 5-5 5h-52.93c-2.761 0-5-2.239-5-5v-21.472c0-2.761 2.239-5 5-5l11 .002v11.471c0 2.209 1.791 4 4 4h42.93z" fill="#8ce1a4"/></g><g><path d="m483.98 209.766h-50.932c-2.761 0-5-2.239-5-5v-19.47c0-2.761 2.239-5 5-5l10-1h41.932c2.761 0 5 2.239 5 5v10.471l-1 10c0 2.761-2.238 4.999-5 4.999z" fill="#afefa5"/><path d="m489.978 194.766v11c0 2.761-2.239 5-5 5h-52.93c-2.761 0-5-2.239-5-5v-21.472c0-2.761 2.239-5 5-5l11 .002v11.471c0 2.209 1.791 4 4 4h42.93z" fill="#8ce1a4"/></g></g><path d="m449.532 71.9-34.574 60.979c-3.072 5.321-1.335 10.981 3.691 13.34 1.271.596 3.894 1.603 3.894 1.603h71.942c7.698 0 12.509-8.333 8.661-14.999l-35.971-62.315s-.252-.234-.34-.371c-4.004-6.244-13.537-4.761-17.303 1.763z" fill="#afefa5"/><path d="m467.175 70.507-44.485 77.319h-.15c-7.69 0-12.51-8.34-8.66-15l35.97-62.32c3.85-6.669 13.485-6.669 17.325.001z" fill="#8ce1a4"/><g><path d="m64.432 503.506h-50.932c-2.761 0-5-2.239-5-5v-56.258c0-2.761 2.239-5 5-5l10-1h41.932c2.761 0 5 2.239 5 5v47.258l-1 10c0 2.762-2.238 5-5 5z" fill="#7dc3ee"/><path d="m70.43 488.506v11c0 2.761-2.239 5-5 5h-52.93c-2.761 0-5-2.239-5-5v-58.26c0-2.761 2.239-5 5-5l11 .002v48.258c0 2.209 1.791 4 4 4z" fill="#64acdc"/></g></g><g><path d="m132.522 318.506c0-5.955-3.471-11.1-8.501-13.522 0 0-2.142-.225-3.042-.467-1.247-.336-2.106-.447-3.459-.447-8.286 0-14.136 5.928-14.136 14.213s5.847 14.973 14.133 14.973c1.456 0 2.817-.299 4.149-.686.799-.232 2.359-.543 2.359-.543 5.027-2.422 8.497-7.566 8.497-13.521z" fill="#afefa5"/><path d="m124.024 332.027c-1.97.95-4.178 1.482-6.498 1.482-8.29 0-15-6.72-15-15s6.71-15 15-15c2.32 0 4.525.525 6.495 1.475-5.03 2.42-8.495 7.565-8.495 13.525s3.468 11.098 8.498 13.518z" fill="#8ce1a4"/></g><g><path d="m224.038 259.632c-3.085-3.084-6.774-5.194-10.687-6.331 0 0-1.165.051-1.66-.061-8.093-1.825-16.391.701-22.691 7-9.77 9.768-9.206 24.136.564 33.904 5.597 5.596 12.298 8.443 19.596 7.628 1.401-.156 4.137-.419 4.137-.419 3.933-1.133 7.643-3.248 10.742-6.347 9.769-9.768 9.769-25.606-.001-35.374z" fill="#afefa5"/><path d="m202.66 295.006c3.08 3.08 6.717 5.207 10.637 6.347-8.48 2.47-17.947.343-24.637-6.347-9.77-9.77-9.77-25.61 0-35.37 6.69-6.69 16.212-8.805 24.692-6.335-3.92 1.13-7.612 3.245-10.692 6.335-9.77 9.761-9.77 25.6 0 35.37z" fill="#8ce1a4"/></g><g><g fill="#7dc3ee"><ellipse cx="168.241" cy="113.02" rx="15.801" ry="15.833"/><ellipse cx="349.492" cy="113.02" rx="15.008" ry="15.005"/><ellipse cx="258.738" cy="22.512" rx="15.008" ry="15.005"/><ellipse cx="258.738" cy="202.883" rx="15.592" ry="15.624"/><ellipse cx="328.031" cy="43.585" rx="21.103" ry="21.146"/><ellipse cx="189.88" cy="181.997" rx="20.432" ry="20.428"/><ellipse cx="194.747" cy="48.898" rx="15.801" ry="15.833"/><ellipse cx="322.729" cy="177.142" rx="15.801" ry="15.833"/></g><g><path d="m295.158 149.148c20.116-20.112 20.116-52.721 0-72.833-8.06-8.058-18.126-12.888-28.591-14.489 0 0-1.138-.047-1.7-.115-15.148-1.81-27.515 4.188-39.14 15.81-20.116 20.112-21.547 49.122-1.431 69.234 11.8 11.798 25.911 18.914 41.267 16.871.344-.046 1.036.005 1.036.005 10.453-1.604 20.507-6.432 28.559-14.483z" fill="#7dc3ee"/><path d="m238.084 149.15c8.051 8.051 18.102 12.879 28.549 14.477-15.671 2.417-32.249-2.411-44.315-14.477-20.117-20.117-20.117-52.72 0-72.836 12.066-12.066 28.648-16.894 44.318-14.477-10.447 1.598-20.502 6.426-28.553 14.477-20.116 20.116-20.116 52.719.001 72.836z" fill="#64acdc"/></g></g><path d="m108.166 247.155c19.139-19.136 19.139-50.161 0-69.296-7.668-7.667-17.246-12.262-27.203-13.785 0 0-1.082-.045-1.618-.109-14.412-1.722-26.179 3.985-37.239 15.043-19.139 19.136-20.501 46.737-1.362 65.872 11.227 11.225 24.653 17.996 39.263 16.052.327-.044.985.005.985.005 9.947-1.529 19.513-6.123 27.174-13.782z" fill="#ffd064"/><path d="m53.863 247.156c7.66 7.66 17.223 12.254 27.163 13.774-14.91 2.3-30.683-2.294-42.163-13.774-19.14-19.14-19.14-50.16 0-69.3 11.48-11.48 27.257-16.074 42.167-13.774-9.94 1.52-19.507 6.114-27.167 13.774-19.14 19.14-19.14 50.16 0 69.3z" fill="#ffc250"/><ellipse cx="73.512" cy="212.506" fill="#ffe07d" rx="15.003" ry="15"/></g><g><path d="m484.736 297.683h-52.443c-7.027 0-12.745 5.718-12.745 12.745v188.833c0 7.027 5.718 12.745 12.745 12.745h52.443c7.027 0 12.744-5.718 12.744-12.745v-33.332c0-4.143-3.357-7.5-7.5-7.5s-7.5 3.357-7.5 7.5v31.077h-47.933v-184.323h47.933v118.246c0 4.143 3.357 7.5 7.5 7.5s7.5-3.357 7.5-7.5v-120.501c0-7.027-5.716-12.745-12.744-12.745z"/><path d="m484.98 171.795h-52.933c-6.893 0-12.5 5.607-12.5 12.5v21.472c0 6.893 5.607 12.5 12.5 12.5h52.933c6.893 0 12.5-5.607 12.5-12.5v-21.472c0-6.893-5.607-12.5-12.5-12.5zm-2.5 31.471h-47.933v-16.472h47.933z"/><path d="m484.98 234.739h-52.933c-6.893 0-12.5 5.607-12.5 12.5v21.472c0 6.893 5.607 12.5 12.5 12.5h52.933c6.893 0 12.5-5.607 12.5-12.5v-21.472c0-6.893-5.607-12.5-12.5-12.5zm-2.5 31.472h-47.933v-16.472h47.933z"/><path d="m380.094 235.092h-52.933c-6.893 0-12.5 5.608-12.5 12.501v251.913c0 6.893 5.607 12.5 12.5 12.5h52.933c6.893 0 12.5-5.607 12.5-12.5v-133.325c0-4.143-3.357-7.5-7.5-7.5s-7.5 3.357-7.5 7.5v130.825h-47.933v-246.914h47.933v81.089c0 4.143 3.357 7.5 7.5 7.5s7.5-3.357 7.5-7.5v-83.588c0-6.892-5.608-12.501-12.5-12.501z"/><path d="m275.206 349.851h-52.932c-6.893 0-12.5 5.607-12.5 12.5v137.155c0 6.893 5.607 12.5 12.5 12.5h52.932c6.893 0 12.5-5.607 12.5-12.5v-137.155c0-6.892-5.607-12.5-12.5-12.5zm-2.5 147.155h-47.932v-132.155h47.932z"/><path d="m170.319 396.985h-52.933c-6.893 0-12.5 5.607-12.5 12.5v26.21c0 4.143 3.357 7.5 7.5 7.5s7.5-3.357 7.5-7.5v-23.71h47.933v85.021h-47.933v-27.312c0-4.143-3.357-7.5-7.5-7.5s-7.5 3.357-7.5 7.5v29.812c0 6.893 5.607 12.5 12.5 12.5h52.933c6.893 0 12.5-5.607 12.5-12.5v-90.021c0-6.893-5.607-12.5-12.5-12.5z"/><path d="m65.433 428.748h-52.933c-6.893 0-12.5 5.607-12.5 12.5v58.259c0 6.893 5.607 12.5 12.5 12.5h52.933c6.893 0 12.5-5.607 12.5-12.5v-58.259c0-6.893-5.608-12.5-12.5-12.5zm-2.5 68.258h-47.933v-53.259h47.933z"/><path d="m509.641 129.074-35.97-62.315c-3.163-5.48-8.829-8.752-15.156-8.752-6.328 0-11.994 3.271-15.157 8.752h.001l-35.971 62.314c-3.163 5.479-3.163 12.021 0 17.499s8.829 8.75 15.155 8.75h71.942c6.326 0 11.992-3.271 15.155-8.75s3.164-12.021.001-17.498zm-12.991 9.998c-.27.467-.909 1.25-2.165 1.25h-71.942c-1.256 0-1.896-.783-2.165-1.25s-.628-1.412 0-2.5l35.971-62.315h.001c.627-1.088 1.625-1.25 2.165-1.25.539 0 1.537.162 2.165 1.25l35.971 62.316c.627 1.087.269 2.032-.001 2.499z"/><path d="m73.012 102.006c13.787 0 25.003-11.215 25.003-25s-11.216-25-25.003-25-25.003 11.215-25.003 25 11.216 25 25.003 25zm0-35c5.516 0 10.003 4.486 10.003 10s-4.487 10-10.003 10-10.003-4.486-10.003-10 4.487-10 10.003-10z"/><path d="m140.022 318.506c0-12.406-10.095-22.5-22.503-22.5s-22.503 10.094-22.503 22.5 10.095 22.5 22.503 22.5 22.503-10.093 22.503-22.5zm-30.005 0c0-4.136 3.366-7.5 7.503-7.5s7.503 3.364 7.503 7.5-3.366 7.5-7.503 7.5-7.503-3.364-7.503-7.5z"/><path d="m238.866 277.319c0-8.685-3.383-16.85-9.525-22.99-12.679-12.677-33.308-12.679-45.986 0-11.974 11.466-12.966 33.49 0 45.981 12.176 12.292 32.98 12.784 45.986 0 6.142-6.14 9.525-14.305 9.525-22.991zm-20.131 12.384c-6.828 6.83-17.941 6.832-24.775 0-6.039-5.882-7.247-17.641 0-24.767 6.04-5.857 17.087-7.423 24.775 0 6.041 5.882 7.248 17.641 0 24.767z"/><path d="m339.211 193.635c9.075-9.096 9.075-23.894 0-32.987-6.384-6.305-17.043-9.046-26.589-4.54l-7.084-7.099c6.324-8.169 10.562-18.027 11.923-28.777h10.717c3.014 8.881 11.427 15.293 21.315 15.293 12.411 0 22.508-10.096 22.508-22.505 0-12.41-10.097-22.506-22.508-22.506-9.674 0-17.941 6.135-21.117 14.718h-10.916c-1.361-10.75-5.599-20.608-11.924-28.778l8.095-8.111c9.823 6.043 25.555 4.959 34.631-4.508 11.144-11.165 11.144-29.334 0-40.501-10.008-10.453-29.384-11.492-40.462 0-9.262 9.281-10.818 23.397-4.684 34.311l-8.178 8.195c-8.149-6.328-17.979-10.569-28.7-11.933v-10.179c8.734-3.096 15.008-11.435 15.008-21.216 0-12.409-10.097-22.505-22.508-22.505s-22.508 10.095-22.508 22.504c0 9.781 6.274 18.12 15.008 21.216v10.179c-10.721 1.364-20.552 5.606-28.701 11.934l-6.818-6.832c4.161-8.68 2.681-19.417-4.491-26.604-7.966-8.26-23.697-9.524-32.963 0-9.077 9.096-9.076 23.894-.001 32.987 6.515 6.422 17.309 9.097 26.972 4.347l6.702 6.717c-6.324 8.169-10.563 18.027-11.924 28.777h-9.813c-3.209-9.048-11.84-15.546-21.961-15.546-12.849 0-23.302 10.468-23.302 23.334s10.453 23.333 23.302 23.333c10.335 0 19.115-6.775 22.156-16.121h9.618c1.361 10.75 5.599 20.608 11.924 28.777l-8.539 8.556c-10.616-5.867-24.272-4.314-33.271 4.683-10.056 9.673-11.279 28.562 0 39.497 10.174 10.119 28.066 11.324 39.5 0 8.276-8.188 10.93-22.261 4.471-33.667l8.436-8.454c8.149 6.328 17.98 10.57 28.701 11.934v9.459c-9.062 3.125-15.593 11.743-15.593 21.865 0 12.751 10.359 23.124 23.093 23.124 12.732 0 23.092-10.373 23.092-23.124 0-10.122-6.531-18.739-15.592-21.865v-9.459c10.721-1.365 20.552-5.606 28.701-11.934l6.999 7.014c-4.397 8.746-2.971 19.703 4.309 26.998 7.968 8.26 23.699 9.524 32.966-.001zm-80.473-36.585c-24.379 0-44.213-19.881-44.213-44.318s19.834-44.318 44.213-44.318 44.212 19.881 44.212 44.318-19.833 44.318-44.212 44.318zm90.754-51.536c4.14 0 7.508 3.367 7.508 7.506s-3.368 7.505-7.508 7.505-7.508-3.366-7.508-7.505 3.369-7.506 7.508-7.506zm-31.075-71.584c4.298-4.235 13.148-5.962 19.228 0 5.312 5.324 5.312 13.986 0 19.31-4.297 4.234-13.147 5.962-19.228 0-5.313-5.323-5.313-13.985 0-19.31zm-59.679-18.924c4.14 0 7.508 3.366 7.508 7.505s-3.368 7.506-7.508 7.506-7.508-3.367-7.508-7.506 3.369-7.505 7.508-7.505zm-63.992 42.225c-2.214 0-4.296-.865-5.863-2.436-3.246-3.252-3.245-8.544 0-11.796 2.471-2.364 7.55-3.767 11.729 0 3.245 3.252 3.246 8.544 0 11.796-1.568 1.571-3.651 2.436-5.866 2.436zm-26.505 64.122c-4.577 0-8.302-3.738-8.302-8.333 0-4.596 3.725-8.334 8.302-8.334s8.301 3.738 8.301 8.334c0 4.595-3.724 8.333-8.301 8.333zm30.783 69.785c-5.043 5.04-13.246 5.041-18.289 0-4.017-4.085-5.655-12.503 0-18.282 5.043-5.041 13.248-5.041 18.289 0 4.018 4.085 5.658 12.502 0 18.282zm59.714 19.868c-4.462 0-8.093-3.645-8.093-8.124s3.631-8.124 8.093-8.124 8.092 3.645 8.092 8.124-3.63 8.124-8.092 8.124zm58.126-39.762c2.471-2.364 7.551-3.769 11.729 0 3.245 3.252 3.245 8.544-.001 11.796-2.471 2.364-7.549 3.769-11.729 0-3.244-3.252-3.245-8.544.001-11.796z"/><path d="m107.804 257.398 7.083 7.082c1.465 1.465 3.384 2.196 5.303 2.196s3.84-.732 5.304-2.197c2.929-2.929 2.929-7.678-.001-10.606l-7.076-7.075c6.004-7.828 9.809-17.01 11.099-26.791h10.008c4.143 0 7.5-3.357 7.5-7.5s-3.357-7.5-7.5-7.5h-10.008c-1.29-9.78-5.095-18.963-11.099-26.791l7.076-7.074c2.93-2.929 2.93-7.677.001-10.606-2.93-2.929-7.677-2.93-10.606-.001l-7.083 7.081c-7.997-6.115-17.259-9.81-26.792-11.075v-10.033c0-4.143-3.357-7.5-7.5-7.5s-7.5 3.357-7.5 7.5v10.033c-9.533 1.266-18.795 4.96-26.792 11.076l-7.083-7.081c-2.931-2.931-7.68-2.929-10.606.001-2.929 2.93-2.928 7.678.001 10.606l7.076 7.074c-6.005 7.828-9.809 17.011-11.099 26.791h-10.01c-4.143 0-7.5 3.357-7.5 7.5s3.357 7.5 7.5 7.5h10.008c1.29 9.78 5.094 18.963 11.099 26.791l-7.076 7.074c-2.93 2.929-2.93 7.678-.001 10.606 1.465 1.465 3.384 2.197 5.304 2.197 1.919 0 3.839-.732 5.303-2.196l7.083-7.082c7.997 6.115 17.259 9.81 26.792 11.075v10.033c0 4.143 3.357 7.5 7.5 7.5s7.5-3.357 7.5-7.5v-10.033c9.533-1.266 18.795-4.96 26.792-11.075zm-75.801-44.892c-.729-21.355 19.307-42.159 41.509-41.481 21.196-.752 42.028 18.955 41.509 41.481 0 11.085-4.318 21.507-12.157 29.345-16.186 16.182-42.518 16.182-58.703 0-7.841-7.839-12.158-18.26-12.158-29.345z"/><path d="m89.423 228.417c3.411-3.293 6.601-9.794 6.592-15.91 0-6.011-2.341-11.661-6.591-15.91-8.774-8.773-23.051-8.773-31.823 0-4.251 4.249-6.592 9.899-6.592 15.91-.32 11.027 9.983 22.774 22.503 22.49 5.761 0 11.524-2.194 15.911-6.58zm-23.414-15.911c.04-3.068 2.505-7.279 7.503-7.497 3.007.051 7.261 2.425 7.503 7.497 0 2.003-.78 3.886-2.197 5.303 0 0 0 0-.001 0-2.923 2.925-7.684 2.927-10.61 0-1.418-1.417-2.198-3.3-2.198-5.303z"/></g></g></svg>