<svg id="Capa_1" enable-background="new 0 0 512 512" height="512" viewBox="0 0 512 512" width="512" xmlns="http://www.w3.org/2000/svg"><g><g><circle cx="256" cy="256" fill="#f9f8f9" r="211.638"/><path d="m321.409 401.315v-47.595l-4.026-29.146 4.026-32.854v-19.599c0-17.727-5.745-34.977-16.373-49.165l-9.493-12.672c-4.091-5.461-6.534-11.98-7.039-18.785l-4.472-58.97c-.068-.862.179-1.703.671-2.38.739-1.019 1.48-2.036 2.033-3.167l.897-1.834c1.059-2.165 1.609-4.544 1.609-6.954v-18.999c0-8.014-6.496-14.51-14.51-14.51h-35.972l-1.59.326c-8.014 0-13.574 6.784-13.574 14.798l.164 20.108c0 1.277.292 2.537.853 3.685l3.686 6.548c.492.678.739 1.519.671 2.38l-2.472 58.97c-.505 6.805-2.947 13.324-7.039 18.785l-9.493 12.672c-10.629 14.188-16.373 31.437-16.373 49.165l-1 127.195c0 11.046 8.954 20 20 20l87.877.302c7.6 0 13.882-2.662 17.266-8.904.92-1.696 3.269-5.367 3.269-5.367.264-1.304.404-2.652.404-4.033z" fill="#8ce1a4"/><path d="m321.003 405.346c-1.86 9.13-9.923 15.974-19.593 15.974h-90.82c-11.046 0-20-8.954-20-20v-47.6l2.41-2.55-2.41-22.638v-56.412c0-17.73 5.75-34.98 16.37-49.16l9.5-12.68c4.09-5.46 6.53-11.98 7.04-18.78l4.47-58.97c.07-.86-.18-1.7-.67-2.38l-3.69-6.55c-.56-1.15-.85-2.41-.85-3.68v-20.73c0-8.014 6.496-14.51 14.51-14.51l1.49.005v31.372c0 1.202.309 2.383.899 3.431l1.311 2.332c2.24 3.55 3.28 7.75 2.95 11.92l-4.47 58.94c-.73 9.87-4.25 19.28-10.19 27.2l-9.49 12.67c-8.5 11.34-13.18 25.4-13.18 39.57v129.2c0 2.2 1.79 4 4 4z" fill="#7bd6a4"/><path d="m195.468 291.72h125.942v62h-125.942z" fill="#ffd064"/><path d="m190.59 291.72h16v62h-16z" fill="#ffc250"/><path d="m256 7.894c-137.243 0-244.362 110.903-244.362 248.146 0 127.079 92.337 230.779 214.894 245.599 9.802 1.185 19.305 2.862 29.468 2.862 137.243 0 248.5-111.257 248.5-248.5 0-135.058-107.744-244.952-241.968-248.416-2.17-.057-4.348.309-6.532.309zm-203.5 248.106c0-112.39 91.11-203.5 203.5-203.5 46.031 0 88.484 15.293 122.577 41.062 2.42 1.829 2.658 5.383.512 7.529l-277.998 277.999c-2.145 2.145-5.699 1.908-7.529-.512-25.769-34.094-41.062-76.547-41.062-122.578zm407 0c0 112.39-91.11 203.5-203.5 203.5-46.031 0-88.484-15.293-122.577-41.062-2.42-1.829-2.658-5.383-.512-7.529l277.998-277.999c2.145-2.145 5.699-1.908 7.529.512 25.769 34.094 41.062 76.547 41.062 122.578z" fill="#df646e"/><path d="m265.5 504.314c-3.15.12-6.32.186-9.5.186-137.24 0-248.5-111.26-248.5-248.5s111.26-248.5 248.5-248.5c3.18 0 6.35.06 9.5.18-132.84 4.99-239 114.26-239 248.32s106.16 243.324 239 248.314z" fill="#dc4955"/></g><g><path d="m375.115 465.555c-36.109 20.571-77.299 31.445-119.115 31.445-132.888 0-241-108.112-241-241 0-57.668 20.688-113.467 58.251-157.117 2.702-3.141 2.348-7.876-.792-10.577-3.142-2.702-7.875-2.347-10.577.793-39.905 46.371-61.882 105.644-61.882 166.901 0 68.38 26.629 132.667 74.98 181.02 48.353 48.351 112.64 74.98 181.02 74.98 44.415 0 88.172-11.554 126.541-33.412 3.599-2.051 4.854-6.63 2.804-10.229-2.051-3.599-6.63-4.856-10.23-2.804z"/><path d="m437.02 74.98c-48.353-48.351-112.64-74.98-181.02-74.98-62.099 0-121.99 22.513-168.642 63.393-3.116 2.729-3.429 7.468-.698 10.583 2.729 3.117 7.47 3.428 10.583.698 43.916-38.482 100.297-59.674 158.757-59.674 132.888 0 241 108.112 241 241 0 75.148-34.129 144.659-93.635 190.71-3.276 2.535-3.877 7.246-1.342 10.521 1.479 1.91 3.695 2.91 5.937 2.91 1.604 0 3.22-.512 4.585-1.568 30.262-23.419 55.301-53.825 72.411-87.93 17.945-35.771 27.044-74.342 27.044-114.643 0-68.38-26.629-132.667-74.98-181.02z"/><path d="m383.1 87.578c-36.855-27.854-80.804-42.578-127.099-42.578-116.31-.001-211.006 94.698-211.001 211.009.002 46.292 14.725 90.239 42.579 127.093 2.179 2.88 5.497 4.676 9.104 4.925 2.795.164 6.189-.642 9.712-3.633l130.361-130.361c2.929-2.93 2.929-7.678 0-10.607-2.931-2.929-7.679-2.928-10.607 0l-28.044 28.044c.142-15.777 5.4-31.385 14.862-44.016l9.493-12.672c4.96-6.619 7.904-14.478 8.516-22.715l4.472-58.953c.19-2.44-.435-4.875-1.767-6.916l-3.371-5.991c-.017-.063-.032-.123-.049-.186v-20.826c0-3.872 3.139-7.011 7.011-7.011h37.46c3.871 0 7.01 3.138 7.01 7.01v17.972c0 .828-.045 1.657-.183 2.473-.239 1.414-.789 2.914-2.924 6.102-1.546 2.129-2.285 4.747-2.081 7.355l4.224 55.7-30.081 30.081c-2.929 2.93-2.929 7.678 0 10.607 2.93 2.928 7.678 2.928 10.607 0l122.889-122.89c1.717-1.717 3.007-3.849 3.544-6.217 1.123-4.946-.789-9.888-4.637-12.799zm-88.34 87.235-3.143-41.44c.598-.871 1.514-2.317 2.752-4.932 1.552-3.172 2.371-6.715 2.371-10.247v-18.999c0-12.137-9.874-22.011-22.01-22.011h-37.46c-12.137 0-22.01 9.874-22.01 22.011v20.721c0 2.407.559 4.821 1.616 6.981.076.191 2.891 5.15 3.521 6.282l-4.381 57.765c-.399 5.388-2.323 10.521-5.562 14.843l-9.494 12.673c-11.523 15.383-17.87 34.44-17.87 53.661v14.361l-85.265 85.265c-24.755-33.748-37.825-73.707-37.825-115.747 0-108.075 87.925-196 196-196 42.043 0 81.999 13.068 115.747 37.826z"/><path d="m444.979 203.834c1.101 3.993 5.232 6.338 9.223 5.238 3.993-1.101 6.339-5.229 5.238-9.223-7.083-25.705-18.865-49.576-35.02-70.951-2.179-2.88-5.497-4.676-9.104-4.925-3.604-.256-7.149 1.073-9.712 3.633l-278 278.001c-2.559 2.559-3.882 6.099-3.632 9.71.249 3.606 2.045 6.925 4.927 9.104 36.856 27.855 80.806 42.579 127.101 42.579 116.346 0 211-94.654 211-211 0-6.847-.332-13.754-.987-20.53-.397-4.123-4.057-7.16-8.187-6.743-4.123.398-7.142 4.063-6.743 8.187.608 6.298.917 12.72.917 19.086 0 108.075-87.925 196-196 196-42.043 0-81.999-13.068-115.747-37.826l42.838-42.838v29.98c0 15.163 12.337 27.5 27.5 27.5h90.818c15.163 0 27.5-12.337 27.5-27.5v-129.195c0-13.126-2.942-26.211-8.519-38.085l93.783-93.783c14.125 19.258 24.483 40.634 30.806 63.581zm-131.07 142.39h-105.706l15-15h66.297c4.143 0 7.5-3.357 7.5-7.5s-3.357-7.5-7.5-7.5h-51.297l17-17h58.707v47zm-12.5 67.591h-90.818c-6.893 0-12.5-5.607-12.5-12.5v-40.092h115.818v40.092c0 6.893-5.607 12.5-12.5 12.5zm12.5-141.694v12.103h-43.707l38.763-38.763c3.247 8.488 4.944 17.563 4.944 26.66z"/></g></g></svg>