<svg id="Capa_1" enable-background="new 0 0 511.92 511.92" height="512" viewBox="0 0 511.92 511.92" width="512" xmlns="http://www.w3.org/2000/svg"><g><g><path d="m388.705 254.024 15.851 13.873 77.223 77.223c30.242 30.242 30.242 79.275 0 109.518l-27.141 27.141c-17.011 17.011-39.973 24.453-62.187 22.327-17.277-1.654-33.153-12.68-46.384-25.911l-90.67-90.128 65.898-67.909z" fill="#f2d1a5"/><path d="m119.302 252.492-87.16-87.692c-30.243-30.243-30.243-77.275 0-107.518l25.141-25.141c13.228-13.228 30.052-22.67 47.326-24.326 22.217-2.13 45.178 5.313 62.191 22.326l89.776 89.776-60.67 70.67-63.489 53.489z" fill="#f2d1a5"/><path d="m44.161 155.819c-24.178-24.178-24.178-63.378 0-87.556l60.448-60.448c-17.274 1.656-34.098 9.098-47.326 22.326l-27.141 27.142c-30.242 30.242-30.242 79.275 0 109.518l89.776 89.776 8.372-4.372 4.128-8.128z" fill="#f2bb88"/><path d="m283.932 388.52 120.623-120.623-12.5-12.5-78.261 73.261-58.398 63.398 89.723 89.723c13.229 13.229 30.057 20.671 47.331 22.327l-108.518-108.515c-1.952-1.953-1.952-5.119 0-7.071z" fill="#f2bb88"/><path d="m479.968 168.61-311.358 311.359c-17.816 17.816-41.944 25.464-65.186 22.96-17.514-1.887-34.23-12.075-47.655-25.501l-21.702-21.957c-31.243-31.242-31.357-78.919-.116-110.161l309.307-309.839c13.426-13.426 30.489-24.592 48.003-26.479 23.242-2.504 47.37 5.144 65.186 22.96l23.522 23.522c31.241 31.241 31.241 81.894-.001 113.136z" fill="#f2d1a5"/><path d="m46.203 445.699c-25.306-25.306-25.306-66.335 0-91.641l345.058-345.067c-17.514 1.887-34.525 9.534-47.951 22.96l-311.359 311.359c-31.242 31.242-31.242 81.895 0 113.137l23.522 23.522c13.426 13.426 30.437 21.073 47.951 22.96z" fill="#f2bb88"/><path d="m352.853 244.479-108.374 108.374c-.556.556-1.14 1.067-1.741 1.544-7.851 6.222-19.033 3.821-26.288-3.434l-55.382-55.237c-7.81-7.81-7.81-20.474 0-28.284l106.616-106.409c7.255-7.255 18.45-9.731 26.301-3.509.601.477 1.186.988 1.741 1.544l57.127 57.127c7.81 7.81 7.81 20.473 0 28.284z" fill="#f9f8f9"/><path d="m173.46 278.048 120.524-120.525c-7.85-6.221-19.289-5.71-26.543 1.544l-108.374 108.374c-7.81 7.81-7.81 20.474 0 28.284l57.127 57.127c7.254 7.254 18.692 7.765 26.543 1.544l-69.277-69.278c-1.952-1.952-1.952-5.117 0-7.07z" fill="#e8e8e8"/></g><g><path d="m262.138 153.764-108.374 108.374c-10.722 10.723-10.722 28.169 0 38.892l57.127 57.127c5.361 5.36 12.403 8.041 19.446 8.041 7.042 0 14.084-2.681 19.445-8.041l31.206-31.206c2.929-2.93 2.929-7.678 0-10.607-2.93-2.928-7.678-2.928-10.607 0l-31.206 31.206c-2.36 2.361-5.5 3.662-8.839 3.662-3.338 0-6.478-1.301-8.838-3.662l-57.127-57.127c-2.361-2.36-3.662-5.5-3.662-8.838 0-3.339 1.301-6.479 3.662-8.839l108.374-108.374c2.36-2.361 5.5-3.662 8.839-3.662 3.338 0 6.478 1.301 8.838 3.662l57.127 57.127c2.361 2.36 3.662 5.5 3.662 8.838 0 3.339-1.301 6.479-3.662 8.839l-52.419 52.42c-2.929 2.93-2.929 7.678 0 10.607 2.93 2.928 7.678 2.928 10.607 0l52.419-52.42c10.722-10.723 10.722-28.169 0-38.892l-57.127-57.127c-10.721-10.72-28.168-10.722-38.891 0z"/><circle cx="119.3" cy="187.632" r="7.498"/><circle cx="153.47" cy="153.464" r="7.498"/><path d="m187.64 111.797c-4.141 0-7.498 3.357-7.498 7.498s3.357 7.498 7.498 7.498 7.498-3.357 7.498-7.498-3.357-7.498-7.498-7.498z"/><circle cx="85.13" cy="153.464" r="7.498"/><path d="m119.3 111.797c-4.141 0-7.498 3.357-7.498 7.498s3.357 7.498 7.498 7.498 7.498-3.357 7.498-7.498-3.357-7.498-7.498-7.498z"/><path d="m153.47 77.629c-4.141 0-7.498 3.357-7.498 7.498s3.357 7.498 7.498 7.498 7.498-3.357 7.498-7.498-3.357-7.498-7.498-7.498z"/><path d="m43.462 119.295c0 4.141 3.357 7.498 7.498 7.498s7.498-3.357 7.498-7.498-3.357-7.498-7.498-7.498-7.498 3.357-7.498 7.498z"/><path d="m85.13 77.629c-4.141 0-7.498 3.357-7.498 7.498s3.357 7.498 7.498 7.498 7.498-3.357 7.498-7.498-3.357-7.498-7.498-7.498z"/><path d="m119.3 43.461c-4.141 0-7.498 3.357-7.498 7.498s3.357 7.498 7.498 7.498 7.498-3.357 7.498-7.498-3.357-7.498-7.498-7.498z"/><circle cx="392.62" cy="187.632" r="7.498"/><circle cx="358.45" cy="153.464" r="7.498"/><path d="m331.778 119.295c0-4.141-3.357-7.498-7.498-7.498s-7.498 3.357-7.498 7.498 3.357 7.498 7.498 7.498 7.498-3.356 7.498-7.498z"/><circle cx="426.79" cy="153.464" r="7.498"/><path d="m392.62 126.794c4.141 0 7.498-3.357 7.498-7.498s-3.357-7.498-7.498-7.498-7.498 3.357-7.498 7.498c-.001 4.141 3.357 7.498 7.498 7.498z"/><path d="m358.45 92.626c4.141 0 7.498-3.357 7.498-7.498s-3.357-7.498-7.498-7.498-7.498 3.357-7.498 7.498 3.357 7.498 7.498 7.498z"/><path d="m468.458 119.295c0-4.141-3.357-7.498-7.498-7.498s-7.498 3.357-7.498 7.498 3.357 7.498 7.498 7.498 7.498-3.356 7.498-7.498z"/><path d="m426.79 92.626c4.141 0 7.498-3.357 7.498-7.498s-3.357-7.498-7.498-7.498-7.498 3.357-7.498 7.498 3.356 7.498 7.498 7.498z"/><path d="m392.62 58.458c4.141 0 7.498-3.357 7.498-7.498s-3.357-7.498-7.498-7.498-7.498 3.357-7.498 7.498 3.357 7.498 7.498 7.498z"/><path d="m119.3 331.786c4.141 0 7.498-3.357 7.498-7.498s-3.357-7.498-7.498-7.498-7.498 3.357-7.498 7.498 3.357 7.498 7.498 7.498z"/><circle cx="153.47" cy="358.456" r="7.498"/><circle cx="187.64" cy="392.624" r="7.498"/><circle cx="85.13" cy="358.456" r="7.498"/><circle cx="119.3" cy="392.624" r="7.498"/><path d="m153.47 419.294c-4.141 0-7.498 3.357-7.498 7.498s3.357 7.498 7.498 7.498 7.498-3.357 7.498-7.498-3.357-7.498-7.498-7.498z"/><circle cx="50.96" cy="392.624" r="7.498"/><path d="m85.13 434.291c4.141 0 7.498-3.357 7.498-7.498s-3.357-7.498-7.498-7.498-7.498 3.357-7.498 7.498 3.357 7.498 7.498 7.498z"/><path d="m119.3 468.458c4.141 0 7.498-3.357 7.498-7.498s-3.357-7.498-7.498-7.498-7.498 3.357-7.498 7.498 3.357 7.498 7.498 7.498z"/><path d="m392.62 331.786c4.141 0 7.498-3.357 7.498-7.498s-3.357-7.498-7.498-7.498-7.498 3.357-7.498 7.498c-.001 4.141 3.357 7.498 7.498 7.498z"/><circle cx="358.45" cy="358.456" r="7.498"/><circle cx="324.28" cy="392.624" r="7.498"/><circle cx="426.79" cy="358.456" r="7.498"/><circle cx="392.62" cy="392.624" r="7.498"/><path d="m358.45 434.291c4.141 0 7.498-3.357 7.498-7.498s-3.357-7.498-7.498-7.498-7.498 3.357-7.498 7.498 3.357 7.498 7.498 7.498z"/><circle cx="460.959" cy="392.624" r="7.498"/><path d="m426.79 434.291c4.141 0 7.498-3.357 7.498-7.498s-3.357-7.498-7.498-7.498-7.498 3.357-7.498 7.498 3.356 7.498 7.498 7.498z"/><path d="m392.62 468.458c4.141 0 7.498-3.357 7.498-7.498s-3.357-7.498-7.498-7.498-7.498 3.357-7.498 7.498 3.357 7.498 7.498 7.498z"/><path d="m487.082 339.815-83.856-83.855 82.047-82.047c34.115-34.116 34.115-89.627 0-123.744l-23.523-23.522c-34.115-34.115-89.627-34.115-123.744 0l-82.046 82.047-37.939-37.939c-2.93-2.928-7.678-2.928-10.607 0-2.929 2.93-2.929 7.678 0 10.607l37.939 37.939-126.051 126.052-83.856-83.855c-27.27-27.27-27.27-71.642 0-98.911l27.14-27.141c27.271-27.271 71.643-27.271 98.912-.001l21.167 21.168c2.929 2.929 7.678 2.93 10.606.001 2.93-2.929 2.93-7.678.001-10.606l-21.168-21.169c-33.117-33.118-87.006-33.116-120.125 0l-27.141 27.14c-33.117 33.118-33.117 87.006 0 120.125l83.856 83.855-23.857 23.857c-2.929 2.93-2.929 7.678 0 10.607 2.931 2.928 7.679 2.927 10.607 0l253.169-253.17c28.267-28.268 74.264-28.268 102.53 0l23.521 23.521c28.268 28.269 28.268 74.264 0 102.531l-311.357 311.36c-28.266 28.269-74.263 28.267-102.53 0l-23.521-23.521c-28.268-28.269-28.268-74.264-.001-102.531l33.44-33.439c2.93-2.93 2.93-7.678.001-10.607-2.929-2.927-7.677-2.929-10.607 0l-33.44 33.44c-34.115 34.116-34.115 89.627 0 123.744l23.522 23.521c17.058 17.058 39.465 25.586 61.871 25.586 22.407 0 44.814-8.528 61.873-25.586l82.046-82.046 33.494 33.494c1.465 1.464 3.385 2.196 5.304 2.196s3.839-.732 5.304-2.196c2.929-2.93 2.929-7.678 0-10.607l-33.494-33.494 126.051-126.051 83.856 83.854c27.27 27.271 27.27 71.643 0 98.912l-27.14 27.141c-13.638 13.637-31.544 20.454-49.457 20.452-17.908-.002-35.822-6.818-49.455-20.452l-25.613-25.613c-2.93-2.928-7.678-2.928-10.607 0-2.929 2.93-2.929 7.678 0 10.607l25.614 25.613c16.559 16.559 38.311 24.838 60.062 24.838 21.752 0 43.504-8.279 60.063-24.838l27.141-27.142c33.115-33.118 33.115-87.005-.002-120.125z"/></g></g></svg>