<svg id="Capa_1" enable-background="new 0 0 512 512" height="512" viewBox="0 0 512 512" width="512" xmlns="http://www.w3.org/2000/svg"><g><g><g><path d="m325.519 109.555v78.937c0 9.954 2.861 19.699 8.243 28.073 9.957 15.492 10.963 35.099 2.644 51.529l-16.988 33.55h-195.067l-16.988-33.55c-8.319-16.43-7.313-36.037 2.644-51.529 5.382-8.374 8.243-18.119 8.243-28.073v-78.937z" fill="#e1761c"/></g><g><path d="m126.618 216.565c5.382-8.374 8.243-18.119 8.243-28.073v-78.937h-16.611v78.937c0 9.954-2.861 19.699-8.243 28.073-9.957 15.492-10.963 35.099-2.644 51.529l16.988 33.55h16.612l-16.988-33.55c-8.319-16.43-7.314-36.037 2.643-51.529z" fill="#d76718"/></g><g><path d="m192.507 203.739h58.754v76.917h-58.754z" fill="#faa68e"/></g><g><path d="m192.507 203.739v76.917h15.34v-37.896h28.804c5.006 0 9.892-.515 14.61-1.49v-37.531z" fill="#e09380"/></g><g><path d="m340.228 295.207-88.967-39.967-29.377 25.416-29.377-25.416-88.967 39.967c-14.717 6.611-24.184 21.244-24.184 37.377v162.687c0 5.097 4.132 9.229 9.229 9.229h266.599c5.097 0 9.229-4.132 9.229-9.229v-162.687c-.001-16.133-9.468-30.765-24.185-37.377z" fill="#d3ced5"/></g><g><path d="m232.277 227.642h-20.784c-35.48 0-64.242-28.762-64.242-64.242v-60.292c0-35.48 28.762-64.242 64.242-64.242h20.784c35.48 0 64.242 28.762 64.242 64.242v60.292c-.001 35.48-28.763 64.242-64.242 64.242z" fill="#ffcdbe"/></g><g><path d="m163.862 163.4v-60.292c0-35.48 28.762-64.242 64.242-64.242h-16.612c-35.48 0-64.242 28.762-64.242 64.242v60.292c0 35.48 28.762 64.242 64.242 64.242h16.612c-35.48 0-64.242-28.762-64.242-64.242z" fill="#ebae9d"/></g><g><path d="m325.518 109.555h-61.572c-14.329 0-27.944-6.25-37.285-17.116l-18.568-21.599c-1.528-1.777-4.33-1.605-5.628.346l-16.987 25.517c-5.345 8.028-14.35 12.852-23.995 12.852h-43.233v-45.308c0-31.34 25.406-56.747 56.747-56.747h93.774c31.34 0 56.747 25.406 56.747 56.747z" fill="#e9a761"/></g><g><path d="m196.237 7.5h-21.24c-31.34 0-56.747 25.406-56.747 56.747v45.308h21.24v-45.308c0-31.341 25.407-56.747 56.747-56.747z" fill="#e69642"/></g><g><path d="m179.111 261.258-50.76 22.804v17.582l50.76-22.803z" fill="#c3bec6"/></g><g><path d="m162.591 268.68 25.119 23.512c5.65 5.289 14.376 5.475 20.246.431l13.929-11.967-29.377-25.416z" fill="#f6f1f1"/></g><g><path d="m103.541 295.207c-14.717 6.611-24.184 21.243-24.184 37.377v162.687c0 5.097 4.132 9.229 9.229 9.229h58.239v-228.737z" fill="#e58e82"/></g><g><path d="m281.178 268.68-25.118 23.512c-5.65 5.289-14.376 5.475-20.246.431l-13.929-11.967 29.377-25.416z" fill="#f6f1f1"/></g><g><path d="m340.228 295.207c14.717 6.611 24.184 21.243 24.184 37.377v162.687c0 5.097-4.132 9.229-9.229 9.229h-58.239v-228.737z" fill="#e58e82"/></g><g><path d="m97.356 495.271v-153.19c0-16.134 9.467-30.766 24.184-37.377l25.283-11.358v-17.583l-43.283 19.444c-14.717 6.612-24.184 21.244-24.184 37.377v162.687c0 5.097 4.132 9.229 9.229 9.229h18c-5.097 0-9.229-4.132-9.229-9.229z" fill="#e06c57"/></g><g><path d="m296.945 298.147h-11.37c-19.299 0-35 15.701-35 35v161.353c0 3.474.516 6.829 1.463 10h44.907z" fill="#c3bec6"/></g><g><path d="m364.412 335.76v-3.176c0-11.092-4.475-21.474-12.054-29.028-2.027-2.02-4.28-3.833-6.724-5.409h-48.689v37.613z" fill="#e06c57"/></g><g><path d="m402.223 504.5h-116.649c-5.523 0-10-4.477-10-10v-161.353c0-5.523 4.477-10 10-10h116.649c5.523 0 10 4.477 10 10v161.353c0 5.523-4.477 10-10 10z" fill="#77d192"/></g><g><path d="m292.014 494.5v-161.353c0-5.523 4.477-10 10-10h-16.44c-5.523 0-10 4.477-10 10v161.353c0 5.523 4.477 10 10 10h16.44c-5.523 0-10-4.477-10-10z" fill="#5bc175"/></g><g><path d="m370.758 389.964h-53.72c-2.761 0-5-2.239-5-5v-24.56c0-2.761 2.239-5 5-5h53.72c2.761 0 5 2.239 5 5v24.56c0 2.761-2.238 5-5 5z" fill="#f6f1f1"/></g><g><path d="m432.644 426.611v36.635c0 5.592-4.533 10.125-10.125 10.125h-21.027c-10.736 0-19.44-8.704-19.44-19.44v-18.005c0-10.736 8.704-19.44 19.44-19.44h21.027c5.592-.001 10.125 4.532 10.125 10.125z" fill="#ffcdbe"/></g></g><g><path d="m187.129 143.135h3.577c4.142 0 7.5-3.357 7.5-7.5s-3.358-7.5-7.5-7.5h-3.577c-4.142 0-7.5 3.357-7.5 7.5s3.358 7.5 7.5 7.5z"/><path d="m253.063 143.135h3.577c4.142 0 7.5-3.357 7.5-7.5s-3.358-7.5-7.5-7.5h-3.577c-4.142 0-7.5 3.357-7.5 7.5s3.358 7.5 7.5 7.5z"/><path d="m196.354 180.693c-1.963 3.647-.598 8.195 3.049 10.159l1.767.95c6.109 3.289 12.86 4.924 19.604 4.924 7.526 0 15.043-2.037 21.644-6.085 3.531-2.166 4.638-6.784 2.472-10.314-2.165-3.53-6.782-4.638-10.314-2.473-7.978 4.894-18.053 5.177-26.294.74l-1.767-.951c-3.65-1.962-8.198-.598-10.161 3.05z"/><path d="m383.259 384.964v-24.561c0-6.893-5.607-12.5-12.5-12.5h-53.72c-6.893 0-12.5 5.607-12.5 12.5v24.561c0 6.893 5.607 12.5 12.5 12.5h53.72c6.892 0 12.5-5.608 12.5-12.5zm-15-2.5h-48.72v-19.561h48.72z"/><path d="m422.519 408.985h-2.796v-75.838c0-9.649-7.851-17.5-17.5-17.5h-97.778v-28.293l32.71 14.694c3.776 1.696 8.217.009 9.915-3.769 1.697-3.778.01-8.217-3.768-9.915l-7.131-3.204 6.927-13.68c9.48-18.721 8.321-41.317-3.025-58.971-4.614-7.179-7.053-15.484-7.053-24.019v-124.245c-.002-35.424-28.822-64.245-64.248-64.245h-93.775c-35.426 0-64.247 28.821-64.247 64.247v124.245c0 8.534-2.439 16.84-7.053 24.019-11.346 17.653-12.505 40.249-3.025 58.971l6.927 13.68-7.132 3.204c-17.381 7.809-28.611 25.165-28.611 44.219v22.819c0 4.143 3.358 7.5 7.5 7.5s7.5-3.357 7.5-7.5v-22.819c0-13.157 7.755-25.144 19.758-30.535l32.71-14.694v209.644h-50.739c-.954 0-1.729-.775-1.729-1.729v-110.401c0-4.143-3.358-7.5-7.5-7.5s-7.5 3.357-7.5 7.5v110.401c0 9.225 7.504 16.729 16.729 16.729h162.259c4.142 0 7.5-3.357 7.5-7.5s-3.358-7.5-7.5-7.5h-21.459v-46.675c0-4.143-3.358-7.5-7.5-7.5s-7.5 3.357-7.5 7.5v46.675h-60.061v-216.384l6.786-3.049 21.473 20.1c4.356 4.078 9.917 6.129 15.489 6.129 5.248 0 10.506-1.821 14.77-5.484l1.542-1.325v119.499c0 4.143 3.358 7.5 7.5 7.5s7.5-3.357 7.5-7.5v-119.499l1.542 1.324c4.264 3.664 9.521 5.484 14.77 5.484 5.571 0 11.133-2.052 15.49-6.129l21.473-20.1 6.786 3.049v35.032h-3.871c-9.649 0-17.5 7.851-17.5 17.5v161.353c0 9.649 7.851 17.5 17.5 17.5h116.649c9.649 0 17.5-7.851 17.5-17.5v-13.629h2.796c9.718 0 17.625-7.907 17.625-17.626v-36.635c0-9.718-7.907-17.625-17.625-17.625zm-92.804-144.279-7.242 14.302-38.213-17.167c-.02-.009-.039-.018-.059-.026l-25.44-11.428v-20.333c26.484-10.561 45.257-36.448 45.257-66.654v-46.346h14v71.438c0 11.415 3.262 22.525 9.434 32.128 8.483 13.197 9.35 30.09 2.263 44.086zm-107.83 6.032-21.877-18.927v-17.6c3.741.605 7.575.931 11.484.931h20.785c3.909 0 7.743-.326 11.484-.931v17.6zm-67.135-153.683h6.732c12.183 0 23.487-6.055 30.238-16.195l14.091-21.167 15.162 17.637c10.777 12.536 26.44 19.726 42.972 19.726h25.072v46.344c0 31.288-25.454 56.742-56.742 56.742h-20.785c-31.288 0-56.742-25.454-56.742-56.742v-46.345zm-29-52.808c0-27.155 22.092-49.247 49.247-49.247h93.775c27.155 0 49.247 22.092 49.247 49.247v37.808h-54.072c-12.156 0-23.673-5.287-31.598-14.505l-18.568-21.598c-2.119-2.466-5.132-3.844-8.351-3.844-.231 0-.463.007-.695.021-3.478.213-6.581 1.999-8.513 4.9l-16.987 25.517c-3.963 5.953-10.6 9.508-17.752 9.508h-35.733zm-11.696 200.459c-7.087-13.996-6.22-30.889 2.261-44.085 6.172-9.604 9.435-20.713 9.435-32.129v-71.438h14v46.346c0 30.206 18.773 56.093 45.257 66.654v20.333l-25.446 11.431c-.015.007-.03.013-.045.02l-38.221 17.17zm78.781 22.01-16.892-15.812 15.276-6.862 19.181 16.594-7.331 6.298c-2.975 2.554-7.373 2.46-10.234-.218zm58.099 0c-2.86 2.677-7.26 2.772-10.233.219l-7.331-6.298 19.181-16.594 15.275 6.862zm153.789 207.784c0 1.379-1.122 2.5-2.5 2.5h-116.649c-1.378 0-2.5-1.121-2.5-2.5v-161.353c0-1.379 1.122-2.5 2.5-2.5h116.649c1.378 0 2.5 1.121 2.5 2.5v75.838h-3.231c-14.855 0-26.94 12.085-26.94 26.939v18.006c0 14.855 12.085 26.94 26.94 26.94h3.231zm20.421-31.255c0 1.448-1.178 2.626-2.625 2.626h-21.027c-6.584 0-11.94-5.356-11.94-11.94v-18.006c0-6.583 5.356-11.939 11.94-11.939h21.027c1.447 0 2.625 1.178 2.625 2.625z"/></g></g></svg>