<svg id="Capa_1" enable-background="new 0 0 512 512" height="512" viewBox="0 0 512 512" width="512" xmlns="http://www.w3.org/2000/svg"><g><g><path d="m404.972 302.114c-.693-9.672-4.164-18.57-9.607-25.921-.933-1.259-1.423-2.791-1.423-4.358 0-2.594 1.353-5.002 3.576-6.338 14.466-8.688 24.149-24.525 24.149-42.628 0-26.216-20.298-47.692-46.036-49.567-2.073-.151-3.664-1.904-3.664-3.982v-29.286l-52.912-114.619c-4.314-.883-8.78-1.346-13.355-1.346h-33.133c-9.15 0-16.567 7.417-16.566 16.567 0-9.15-7.417-16.567-16.567-16.567h-33.134c-36.598 0-66.266 29.669-66.266 66.266v78.984c0 2.079-1.591 3.831-3.664 3.982-25.738 1.875-46.036 23.351-46.036 49.567 0 18.103 9.683 33.94 24.149 42.628 2.223 1.335 3.576 3.744 3.576 6.338 0 1.567-.49 3.098-1.423 4.358-5.443 7.351-8.914 16.249-9.607 25.921-.142 1.977-1.735 3.575-3.711 3.716-26.054 1.856-46.554 23.794-46.11 50.422.449 26.879 23.628 48.85 50.511 48.85h296.564c26.883 0 50.062-21.972 50.511-48.85.445-26.628-20.056-48.566-46.11-50.422-1.977-.141-3.57-1.738-3.712-3.715z" fill="#e59f4f"/><path d="m408.683 305.829c-1.977-.141-3.57-1.739-3.711-3.716-.693-9.672-4.164-18.57-9.607-25.921-.933-1.259-1.423-2.791-1.423-4.358 0-2.594 1.353-5.002 3.576-6.338 14.466-8.688 24.149-24.525 24.149-42.628 0-26.216-20.298-47.692-46.036-49.567-2.073-.151-3.664-1.904-3.664-3.982v-29.286l-23-49.823v79.109c0 2.079 1.591 3.831 3.664 3.982 25.738 1.875 46.036 23.351 46.036 49.567 0 18.103-9.683 33.94-24.149 42.628-2.223 1.335-3.576 3.744-3.576 6.338 0 1.567.49 3.098 1.423 4.358 5.443 7.351 8.914 16.249 9.607 25.921.142 1.977 1.735 3.575 3.711 3.716 26.054 1.856 46.554 23.794 46.11 50.422-.455 27.251-23.257 48.851-50.511 48.851h23c27.254 0 50.056-21.6 50.511-48.851.444-26.627-20.056-48.566-46.11-50.422z" fill="#e27f4d"/><path d="m371.966 504.5h36.298c6.158 0 10.163-6.48 7.409-11.988l-10.573-21.146v-13.356h-36.134z" fill="#e28bd2"/><path d="m415.673 492.512-10.573-21.146v-13.356h-22.959v13.356l10.573 21.146c2.754 5.508-1.251 11.988-7.409 11.988h22.959c6.158 0 10.163-6.48 7.409-11.988z" fill="#de6fba"/><g><path d="m305.701 289.137v49.695.003l33.134-.001c36.596 0 66.263 29.667 66.263 66.263l.001 52.913h-298.198l.001-52.913c0-36.596 29.667-66.263 66.263-66.263l33.133.001.002-.001v-49.703z" fill="#f2d2a1"/><g fill="#eaaa85"><path d="m282.701 289.137v60.039l23-10.341v-.003-49.695z"/><path d="m405.098 405.097c0-36.596-29.667-66.263-66.263-66.263h-22.988c36.591.006 66.251 29.67 66.251 66.263l.001 52.913h23z"/></g><g><ellipse cx="256.002" cy="388.533" fill="#f6df59" rx="16.567" ry="16.567" transform="matrix(.707 -.707 .707 .707 -199.753 294.819)"/><path d="m256.001 371.967c-4.47 0-8.52 1.779-11.5 4.657 3.119 3.013 5.067 7.23 5.067 11.909s-1.947 8.897-5.067 11.909c2.98 2.878 7.029 4.657 11.5 4.657 9.15 0 16.567-7.417 16.567-16.567 0-9.148-7.417-16.565-16.567-16.565z" fill="#edbf50"/></g></g><g><path d="m338.835 156.598v-19.113l-165.666.001.001 85.383c0 45.747 37.085 82.832 82.832 82.832 9.397 0 18.418-1.587 26.837-4.47l22.848-12.084c20.126-15.111 33.148-39.173 33.148-66.278l-11.26-36.779z" fill="#f2d2a1"/><path d="m315.835 137.484v85.383c0 41.842-31.031 76.419-71.332 82.02 3.761.523 7.596.813 11.5.813 45.747 0 82.832-37.085 82.832-82.832v-85.383z" fill="#eaaa85"/></g><path d="m366.217 438.233h38.883c9.149 0 16.567 7.417 16.567 16.567s-7.417 16.567-16.567 16.567h-38.883z" fill="#f6df59"/><g><path d="m164.883 173.168h8.283c21.639 0 40.049-13.83 46.872-33.133v-6.145h71.923v6.144c6.823 19.303 25.232 33.133 46.872 33.133h8.283v-55.12h-182.233z" fill="#e59f4f"/></g><path d="m371.967 106.9c4.575 0 8.283 3.709 8.283 8.283v16.567c0 4.575-3.709 8.283-8.283 8.283h-231.934c-4.575 0-8.283-3.708-8.283-8.283v-16.567c0-4.575 3.708-8.283 8.283-8.283z" fill="#f6df59"/><path d="m371.967 106.9h-23c4.575 0 8.283 3.709 8.283 8.283v16.567c0 4.575-3.708 8.283-8.283 8.283h23c4.575 0 8.283-3.708 8.283-8.283v-16.567c0-4.574-3.708-8.283-8.283-8.283z" fill="#edbf50"/><g><path d="m312.287 88.386 26.546 12.713 27.157-14.02 5.977-27.785v-5.992-7.522c0-4.394-1.746-8.607-4.853-11.714l-25.352-25.353c-1.617-1.618-4.24-1.618-5.857 0l-25.353 25.352c-3.107 3.107-4.852 7.321-4.852 11.714v7.515 5.999z" fill="#f3ffff"/><path d="m367.114 34.065-25.352-25.352c-1.617-1.618-4.24-1.618-5.857 0l-8.571 8.571 16.781 16.781c3.107 3.107 4.853 7.321 4.853 11.714v7.523 42.565l17.023-8.788 5.977-27.785v-5.992-7.522c-.001-4.394-1.747-8.608-4.854-11.715z" fill="#dff9f9"/><path d="m324.016 132.624 14.818 7.409 14.818-7.409c11.225-5.612 18.316-17.085 18.316-29.635v-49.7c0 12.55-7.091 24.023-18.316 29.635l-14.818 7.409-14.818-7.409c-11.226-5.612-18.316-17.085-18.316-29.635v49.7c0 12.55 7.09 24.023 18.316 29.635z" fill="#de5e4c"/><path d="m353.651 82.924-4.684 2.342v17.722c0 12.55-7.091 24.023-18.316 29.635l-3.318 1.659 11.5 5.75 14.818-7.409c11.225-5.612 18.316-17.085 18.316-29.635v-49.7c0 12.551-7.091 24.024-18.316 29.636z" fill="#b13d49"/></g><path d="m405.1 438.233h-23c9.15 0 16.567 7.417 16.567 16.567s-7.417 16.567-16.567 16.567h23c9.15 0 16.567-7.417 16.567-16.567 0-9.149-7.417-16.567-16.567-16.567z" fill="#edbf50"/><path d="m140.033 504.5h-36.298c-6.158 0-10.163-6.48-7.409-11.988l10.573-21.146v-13.356h36.134z" fill="#e28bd2"/><path d="m145.783 438.233h-38.883c-9.149 0-16.567 7.417-16.567 16.567s7.417 16.567 16.567 16.567h38.883z" fill="#f6df59"/><path d="m371.966 438.233c0-9.15-7.417-16.566-16.567-16.566h-49.7c-20.665 0-38.376 12.617-45.871 30.564-.647 1.55-2.149 2.569-3.829 2.569-1.68 0-3.182-1.019-3.829-2.569-7.495-17.947-25.206-30.564-45.871-30.564h-49.7c-9.149 0-16.567 7.417-16.567 16.566v66.267h231.933z" fill="#de5e4c"/><path d="m371.966 438.233c0-9.15-7.417-16.566-16.567-16.566h-23.666c9.148.001 16.564 7.418 16.564 16.566v66.267h23.668z" fill="#b13d49"/></g><g><path d="m462.3 355.402c0-29.152-21.927-53.263-50.15-56.75-1.229-9.939-5.006-19.097-10.672-26.791 16.892-10.227 27.69-28.811 27.69-48.992 0-28.996-21.694-53.006-49.7-56.693v-20.542c4.929-2.673 8.283-7.894 8.283-13.884v-16.566c0-5.99-3.354-11.211-8.283-13.884v-55.52c0-6.429-2.504-12.473-7.049-17.019l-25.354-25.352c-2.065-2.064-4.72-3.179-7.429-3.365-.263-.028-.531-.044-.803-.044s-.54.016-.804.044c-2.707.186-5.362 1.3-7.429 3.366l-13.97 13.97c-3.607-.536-7.268-.812-10.93-.812h-33.133c-6.416 0-12.248 2.528-16.567 6.635-4.319-4.106-10.151-6.635-16.567-6.635h-33.133c-12.965 0-25.72 3.414-36.887 9.873-3.586 2.074-4.812 6.662-2.737 10.247 2.073 3.586 6.664 4.811 10.247 2.737 8.888-5.141 19.046-7.857 29.377-7.857h33.134c4.996 0 9.06 4.06 9.067 9.054v.013c0 4.143 3.357 7.5 7.5 7.5h.001c4.143 0 7.5-3.357 7.5-7.5 0-.004 0-.009 0-.013.007-4.994 4.071-9.054 9.067-9.054h30.274c-3.012 4.099-4.641 9.03-4.641 14.212v53.62h-150.669v-9.065c0-11.627 3.388-22.866 9.797-32.501 2.295-3.449 1.358-8.104-2.09-10.398-3.448-2.297-8.105-1.357-10.398 2.09-8.053 12.105-12.309 26.217-12.309 40.81v10.964c-4.929 2.673-8.283 7.894-8.283 13.884v16.566c0 5.99 3.354 11.211 8.283 13.884v20.542c-28.006 3.687-49.7 27.696-49.7 56.693 0 20.181 10.798 38.765 27.69 48.992-5.666 7.694-9.444 16.852-10.672 26.791-28.224 3.487-50.151 27.598-50.151 56.75 0 28.997 21.695 53.007 49.702 56.693v19.84c-9.609 3.159-16.569 12.212-16.569 22.864 0 9.372 5.388 17.504 13.227 21.477l-6.441 12.88c-2.465 4.929-2.206 10.67.69 15.357 2.897 4.687 7.916 7.485 13.427 7.485h61.146c4.143 0 7.5-3.357 7.5-7.5s-3.357-7.5-7.5-7.5h-17.35v-58.747c0-.007.001-.013.001-.019 0-4.999 4.067-9.066 9.066-9.066h49.701c23.27 0 42.2 18.931 42.2 42.199v25.635h-53.617c-4.143 0-7.5 3.357-7.5 7.5s3.357 7.5 7.5 7.5h213.381c5.511 0 10.529-2.799 13.427-7.485 2.897-4.688 3.155-10.429.69-15.357l-6.44-12.88c7.838-3.973 13.226-12.105 13.226-21.477 0-10.652-6.959-19.705-16.568-22.864v-19.841c28.006-3.687 49.701-27.696 49.701-56.694zm-48.133-132.533c0 16.085-9.296 30.793-23.514 37.84-9.723-7.635-21.96-12.205-35.253-12.205-4.143 0-7.5 3.357-7.5 7.5s3.357 7.5 7.5 7.5c20.91 0 38.307 15.29 41.621 35.276-3.742.529-7.419 1.417-10.99 2.68-3.905 1.381-5.952 5.666-4.571 9.571s5.666 5.951 9.571 4.571c4.496-1.59 9.22-2.397 14.04-2.4.01 0 .019.001.028.001s.018-.001.027-.001c23.257.014 42.174 18.939 42.174 42.2 0 20.868-15.229 38.237-35.155 41.601-4.045-36.878-35.373-65.669-73.31-65.669h-17.401c.186-1.76-.239-3.591-1.348-5.144-1.626-2.276-4.288-3.367-6.885-3.096v-30.364c20.213-16.58 33.132-41.739 33.132-69.861l.001-42.2h.783c4.143 0 7.5-3.357 7.5-7.5s-3.357-7.5-7.5-7.5h-8.206c-.026 0-.051-.004-.077-.004-.019 0-.037.003-.056.003-14.01-.018-26.865-6.996-34.616-18.135h60.305v33.919c0 4.143 3.357 7.5 7.5 7.5s7.5-3.357 7.5-7.5v-.102c19.702 3.55 34.7 20.81 34.7 41.519zm-158.165 156.598c4.999 0 9.066 4.067 9.066 9.066s-4.067 9.066-9.066 9.066c-5 0-9.067-4.067-9.067-9.066s4.067-9.066 9.067-9.066zm-.002-16.717-42.199-30.142v-29.891c12.603 6.688 26.966 10.484 42.2 10.484 15.235 0 29.597-3.796 42.2-10.484v29.889zm-115.967-230.217c-.432 0-.783-.352-.783-.783v-16.566c0-.432.352-.783.783-.783h159.784c2.011 6.942 5.844 13.186 11.106 18.133h-170.89zm232.717-.783c0 .432-.352.783-.783.783h-5.223c2.286-2.149 4.293-4.547 6.006-7.139zm-8.283-28.761c0 9.771-5.43 18.557-14.17 22.927l-3.964 1.982v-32.93l10.673-5.335c2.696-1.348 5.187-2.969 7.461-4.807zm-33.134 24.908-3.963-1.981c-8.74-4.37-14.17-13.155-14.17-22.927v-18.164c2.274 1.839 4.765 3.459 7.462 4.808l10.671 5.335zm-106.272 19.636h61.878c8.239 17.754 25.074 30.071 44.395 32.632l-.001 42.704c0 41.538-33.794 75.332-75.332 75.332s-75.332-33.794-75.332-75.332l-.001-42.704c19.321-2.561 36.155-14.878 44.393-32.632zm136.749-108.164c1.713 1.712 2.656 3.989 2.656 6.411v7.509c0 9.771-5.43 18.557-14.169 22.928l-3.965 1.982v-54.308zm-30.477-15.478v54.307l-3.963-1.981c-8.74-4.371-14.17-13.156-14.17-22.928v-7.509c0-2.422.943-4.699 2.656-6.412zm-266.633 331.511c0-23.261 18.916-42.185 42.174-42.2.009 0 .018.001.027.001s.019-.001.028-.001c4.821.003 9.544.81 14.038 2.399 3.904 1.377 8.189-.667 9.571-4.571 1.381-3.905-.666-8.19-4.571-9.571-3.571-1.263-7.247-2.15-10.988-2.68 3.314-19.985 20.712-35.276 41.621-35.276 4.143 0 7.5-3.357 7.5-7.5s-3.357-7.5-7.5-7.5c-13.292 0-25.53 4.57-35.253 12.205-14.218-7.047-23.514-21.755-23.514-37.84 0-20.709 14.998-37.969 34.7-41.519v.102c0 4.143 3.357 7.5 7.5 7.5s7.5-3.357 7.5-7.5v-33.919h60.304c-7.75 11.139-20.604 18.116-34.614 18.135-.019 0-.037-.003-.056-.003-.026 0-.051.004-.077.004l-8.207-.001c-.001 0 0 0-.001 0-4.142 0-7.499 3.357-7.5 7.499-.001 4.143 3.357 7.501 7.499 7.501h.786l.001 42.201c0 28.122 12.919 53.282 33.132 69.861v30.364c-2.597-.271-5.261.819-6.887 3.096-1.11 1.553-1.534 3.384-1.348 5.144h-17.401c-37.937 0-69.264 28.791-73.309 65.669-19.926-3.363-35.155-20.731-35.155-41.6zm42.2 90.331h25.633v18.134h-25.633c-5 0-9.067-4.067-9.067-9.067 0-4.999 4.067-9.067 9.067-9.067zm-3.831 50.895c-.229-.371-.088-.655-.034-.762l8.5-16.999h20.998v18.133h-28.797c-.119 0-.437 0-.667-.372zm103.231-82.461h-49.699c-10.652 0-19.704 6.958-22.863 16.566h-19.336l.001-25.636c0-32.402 26.36-58.764 58.763-58.764l33.134.001c.286 0 .566-.019.844-.051l33.378 23.842c-5.245 4.418-8.586 11.028-8.586 18.407 0 13.271 10.797 24.066 24.067 24.066s24.066-10.796 24.066-24.066c0-7.379-3.341-13.99-8.587-18.408l33.376-23.84c.277.031.558.051.844.051l33.134-.001c32.402 0 58.763 26.361 58.763 58.764l.001 25.636h-19.335c-3.16-9.608-12.212-16.566-22.863-16.566h-49.701c-21.265 0-39.843 11.673-49.699 28.939-9.859-17.267-28.437-28.94-49.702-28.94zm57.2 57.199c0-23.269 18.931-42.199 42.199-42.199h49.701c4.999 0 9.066 4.067 9.066 9.066v58.767h-100.966zm145.431 25.262c-.23.372-.548.372-.667.372h-28.797v-18.133h20.998l8.5 16.999c.054.107.195.391-.034.762zm-3.831-32.761h-25.633v-18.134h25.633c4.999 0 9.066 4.067 9.066 9.066 0 5.001-4.067 9.068-9.066 9.068z"/><path d="m222.868 205.515c4.143 0 7.5-3.357 7.5-7.5v-8.283c0-4.143-3.357-7.5-7.5-7.5s-7.5 3.357-7.5 7.5v8.283c0 4.142 3.358 7.5 7.5 7.5z"/><path d="m289.133 205.515c4.143 0 7.5-3.357 7.5-7.5v-8.283c0-4.143-3.357-7.5-7.5-7.5s-7.5 3.357-7.5 7.5v8.283c0 4.142 3.357 7.5 7.5 7.5z"/><path d="m256.002 246.934c8.551 0 16.533-4.606 20.832-12.022 2.077-3.583.855-8.172-2.729-10.249-3.583-2.079-8.172-.857-10.25 2.728-1.624 2.803-4.634 4.544-7.853 4.544-3.22 0-6.23-1.741-7.854-4.545-2.078-3.585-6.666-4.804-10.25-2.729-3.584 2.077-4.806 6.666-2.729 10.25 4.299 7.415 12.281 12.023 20.833 12.023z"/></g></g></svg>