<svg id="Capa_1" enable-background="new 0 0 512 512" height="512" viewBox="0 0 512 512" width="512" xmlns="http://www.w3.org/2000/svg"><g><g><path d="m487.933 247.717-62.369-133.088c-1.439-3.07-5.805-3.07-7.244 0l-30.657 65.418h-263.326l-30.657-65.418c-1.439-3.07-5.805-3.07-7.244 0l-62.369 133.088v16.568h463.866z" fill="#de5e4c"/><g><g><g><path d="m108.471 195.27 15.865-15.224-30.656-65.417c-1.439-3.07-5.805-3.07-7.244 0l-7.878 16.81z" fill="#dc3d36"/></g><g><path d="m425.564 114.629c-1.439-3.07-5.805-3.07-7.244 0l-7.878 16.81 54.491 116.277v16.568h23v-16.568z" fill="#dc3d36"/></g></g></g><g><path d="m387.733 397.218v-102.975h-82.033v11.457c0 66.267 49.7 82.833 49.7 82.833v8.685z" fill="#dc3d36"/><path d="m363.687 504.5h-32.78c-4.846 0-8.668-4.146-8.262-8.975 3.669-43.575 32.755-73.858 32.755-73.858v-6.389h32.333v62.947z" fill="#dc3d36"/><path d="m387.733 421.666h-32.333c-9.15 0-16.567-7.417-16.567-16.567s7.417-16.567 16.567-16.567h32.333z" fill="#f6df59"/></g><g><path d="m124.268 397.218v-102.975h82.032v11.457c0 66.267-49.7 82.833-49.7 82.833v8.685z" fill="#dc3d36"/><path d="m148.313 504.5h32.78c4.846 0 8.668-4.146 8.262-8.975-3.669-43.575-32.755-73.858-32.755-73.858v-6.389h-32.333v62.947z" fill="#dc3d36"/><path d="m124.268 421.666h32.332c9.149 0 16.567-7.417 16.567-16.567s-7.417-16.567-16.567-16.567h-32.333v33.134z" fill="#f6df59"/></g><path d="m433.233 293.852h46.417v156.23h-46.417z" fill="#dc3d36"/><path d="m456.62 293.851h23.03v156.23h-23.03z" fill="#b13d49"/><path d="m32.35 293.852h50.749v156.23h-50.749z" fill="#dc3d36"/><path d="m76.767 438.233h-60.983c-4.575 0-8.283 3.708-8.283 8.283v49.7c0 4.575 3.709 8.283 8.283 8.283h60.984v-66.266z" fill="#f3ffff"/><path d="m433.233 438.233h62.983c4.575 0 8.283 3.708 8.283 8.283v49.7c0 4.575-3.709 8.283-8.283 8.283h-62.983z" fill="#f3ffff"/><path d="m496.216 438.233h-23c4.575 0 8.283 3.709 8.283 8.283v49.7c0 4.575-3.709 8.283-8.283 8.283h23c4.575 0 8.283-3.709 8.283-8.283v-49.7c.001-4.574-3.708-8.283-8.283-8.283z" fill="#dff9f9"/><g><path d="m380.25 298.842h57.983v179.383h-57.983z" fill="#e59f4f"/><path d="m415.233 298.842h23v179.383h-23z" fill="#e27f4d"/><path d="m462.831 494.207-2.573-10.292c-1.844-7.375-8.47-12.549-16.072-12.549h-69.89c-7.602 0-14.228 5.174-16.072 12.549l-2.573 10.292c-1.307 5.228 2.647 10.292 8.036 10.292h91.108c5.389.001 9.343-5.064 8.036-10.292z" fill="#f6df59"/><path d="m462.831 494.207-2.573-10.292c-1.844-7.375-8.47-12.549-16.072-12.549h-23c7.602 0 14.228 5.174 16.072 12.549l2.573 10.292c1.307 5.228-2.647 10.292-8.036 10.292h23c5.389.001 9.343-5.064 8.036-10.292z" fill="#edbf50"/></g><g><path d="m73.767 298.842h57.983v179.383h-57.983z" fill="#e59f4f"/><path d="m108.75 298.842h23v179.383h-23z" fill="#e27f4d"/><path d="m156.349 494.207-2.573-10.292c-1.844-7.375-8.47-12.549-16.072-12.549h-69.89c-7.602 0-14.228 5.174-16.072 12.549l-2.573 10.292c-1.307 5.228 2.647 10.292 8.036 10.292h91.108c5.389.001 9.343-5.064 8.036-10.292z" fill="#f6df59"/><path d="m156.349 494.207-2.573-10.292c-1.844-7.375-8.47-12.549-16.072-12.549h-23c7.602 0 14.228 5.174 16.072 12.549l2.573 10.292c1.307 5.228-2.647 10.292-8.036 10.292h23c5.389.001 9.343-5.064 8.036-10.292z" fill="#edbf50"/></g><path d="m487.933 247.717h-463.866c-9.15 0-16.567 7.417-16.567 16.567v24.85c0 9.149 7.417 16.567 16.567 16.567h74.703l157.23-16.958 157.229 16.957h74.704c9.15 0 16.567-7.417 16.567-16.567v-24.85c0-9.149-7.417-16.566-16.567-16.566z" fill="#f3ffff"/><path d="m487.933 247.717h-23c9.15 0 16.567 7.417 16.567 16.567v24.85c0 9.149-7.417 16.567-16.567 16.567h23c9.15 0 16.567-7.417 16.567-16.567v-24.85c0-9.15-7.417-16.567-16.567-16.567z" fill="#dff9f9"/><path d="m106.9 209.862v-20.129l145.215-80.675c2.416-1.342 5.354-1.342 7.77 0l145.215 80.675v20.129z" fill="#dc3d36"/><path d="m252.115 109.059-7.615 4.23 137.6 76.444v20.129h23v-20.129l-145.215-80.675c-2.416-1.342-5.354-1.342-7.77.001z" fill="#b13d49"/><path d="m347.661 73.767h-25.395c-9.15 0-16.567-7.417-16.567-16.567l-13.593-33.133h55.554c3.308 0 5.281 3.687 3.446 6.439l-10.741 16.114c-.928 1.391-.928 3.204 0 4.595l10.742 16.114c1.835 2.751-.138 6.438-3.446 6.438z" fill="#dc3d36"/><path d="m340.365 51.214c-.928-1.391-.928-3.204 0-4.595l10.742-16.114c1.835-2.752-.138-6.439-3.446-6.439h-23.055c3.308 0 5.281 3.687 3.446 6.439l-10.742 16.115c-.928 1.391-.928 3.203 0 4.595l10.742 16.114c1.835 2.752-.138 6.439-3.446 6.439h23.055c3.308 0 5.281-3.687 3.446-6.439z" fill="#b13d49"/><path d="m305.7 57.2h-49.7v-49.7h33.7c8.836 0 16 7.163 16 16z" fill="#de5e4c"/><g><path d="m90.681 196.272c-2.785 13.076-13.714 24.141-26.965 26.945-3.809.806-6.516 4.192-6.516 8.084v32.832c0 3.893 2.707 7.279 6.516 8.085 13.251 2.804 24.18 13.869 26.965 26.945.813 3.816 4.187 6.538 8.089 6.538h314.46c3.901 0 7.276-2.722 8.089-6.538 2.785-13.076 13.714-24.141 26.965-26.945 3.809-.806 6.516-4.192 6.516-8.085v-32.832c0-3.893-2.707-7.279-6.516-8.084-13.251-2.804-24.18-13.869-26.965-26.945-.813-3.816-4.187-6.538-8.089-6.538h-314.46c-3.901-.001-7.276 2.722-8.089 6.538z" fill="#f6df59"/><path d="m448.284 223.216c-13.251-2.804-24.18-13.869-26.965-26.945-.813-3.816-4.187-6.538-8.089-6.538h-23c3.901 0 7.276 2.722 8.089 6.538 2.785 13.076 13.714 24.141 26.965 26.945 3.809.806 6.516 4.192 6.516 8.085v32.832c0 3.893-2.707 7.279-6.516 8.084-13.251 2.804-24.18 13.869-26.965 26.945-.813 3.816-4.187 6.538-8.089 6.538h23c3.901 0 7.276-2.723 8.089-6.538 2.785-13.076 13.714-24.141 26.965-26.945 3.809-.806 6.516-4.192 6.516-8.084v-32.832c0-3.893-2.708-7.279-6.516-8.085z" fill="#edbf50"/><path d="m397.1 272.567h-282.2c-4.418 0-8-3.582-8-8v-33.7c0-4.418 3.582-8 8-8h282.2c4.418 0 8 3.582 8 8v33.7c0 4.418-3.582 8-8 8z" fill="#dc3d36"/><path d="m397.1 222.867h-23c4.418 0 8 3.582 8 8v33.7c0 4.418-3.582 8-8 8h23c4.418 0 8-3.582 8-8v-33.7c0-4.418-3.582-8-8-8z" fill="#b13d49"/></g><g fill="#dc3d36"><path d="m90.058 90.334v-49.7l35.389 17.694c5.896 2.948 5.896 11.363 0 14.311z"/><path d="m421.666 90.334v-49.7l35.389 17.694c5.896 2.948 5.896 11.363 0 14.311z"/></g></g><g><path d="m412.6 264.566v-33.699c0-8.547-6.953-15.5-15.5-15.5h-282.2c-8.547 0-15.5 6.953-15.5 15.5v33.699c0 8.547 6.953 15.5 15.5 15.5h282.2c8.547 0 15.5-6.953 15.5-15.5zm-298.2 0v-33.699c0-.275.224-.5.5-.5h282.2c.276 0 .5.225.5.5v33.699c0 .275-.224.5-.5.5h-282.2c-.276 0-.5-.224-.5-.5z"/><path d="m487.934 313.2c13.27 0 24.066-10.797 24.066-24.067v-24.85c0-11.551-8.18-21.223-19.051-23.537l-63.783-136.104v-9.673l45.554-22.778c2.541-1.271 4.146-3.867 4.146-6.708s-1.605-5.438-4.146-6.708l-49.7-24.85c-2.326-1.163-5.087-1.038-7.297.328-2.211 1.366-3.557 3.78-3.557 6.38v65.186l-29.884 63.769-120.782-67.101v-37.787h35.903c3.16 9.608 12.212 16.566 22.864 16.566h25.394c4.302 0 8.235-2.356 10.265-6.149 2.029-3.792 1.808-8.371-.578-11.949l-9.501-14.251 9.501-14.25c2.386-3.579 2.607-8.158.578-11.95-2.03-3.793-5.963-6.149-10.265-6.149h-35.506c-2.965-9.585-11.909-16.568-22.455-16.568h-33.7c-4.142 0-7.5 3.357-7.5 7.5v94.987l-120.782 67.101-30.16-64.358v-10.261l45.554-22.778c2.541-1.271 4.146-3.867 4.146-6.708s-1.605-5.438-4.146-6.708l-49.7-24.85c-2.326-1.163-5.087-1.038-7.297.328-2.211 1.366-3.557 3.78-3.557 6.38v64.597l-63.507 135.516c-10.871 2.314-19.051 11.986-19.051 23.537v24.85c0 13.27 10.796 24.067 24.066 24.067h.784v18.916c0 4.143 3.358 7.5 7.5 7.5s7.5-3.357 7.5-7.5v-18.916h26.417v117.533h-26.416v-68.617c0-4.143-3.358-7.5-7.5-7.5s-7.5 3.357-7.5 7.5v68.617h-9.067c-8.703 0-15.784 7.081-15.784 15.784v49.699c0 8.703 7.081 15.784 15.784 15.784h165.31c4.405 0 8.643-1.861 11.626-5.105 2.98-3.241 4.478-7.615 4.109-11.999-2.688-31.923-17.987-56.857-27.402-69.447 6.747-4.268 11.24-11.791 11.24-20.349 0-6.651-2.713-12.68-7.089-17.04 4.076-2.709 8.634-6.248 13.175-10.79 11.476-11.476 24.995-31.691 26.83-64.069h84.834c1.835 32.378 15.354 52.594 26.829 64.069 4.542 4.542 9.1 8.081 13.176 10.79-4.376 4.36-7.089 10.389-7.089 17.04 0 8.557 4.493 16.08 11.24 20.348-9.415 12.59-24.714 37.524-27.402 69.446-.369 4.384 1.128 8.758 4.108 11.999 2.983 3.245 7.221 5.106 11.627 5.106h165.309c8.703 0 15.783-7.081 15.783-15.784v-49.699c0-8.703-7.081-15.783-15.783-15.783h-9.066v-117.533zm9.066-24.067c0 5-4.067 9.067-9.066 9.067h-58.585c2.971-9.162 11.062-16.651 20.488-18.646 7.222-1.528 12.464-8.014 12.464-15.422v-8.916h25.61c.01 0 .019.002.029.002.006 0 .012-.001.017-.001 4.989.012 9.045 4.074 9.045 9.065v24.851zm-109.251 174.733v-18.133h42.983v18.133zm-32.349-49.7c-4.999 0-9.066-4.067-9.066-9.066 0-4.996 4.062-9.061 9.057-9.066.002 0 .004.001.006.001.004 0 .008-.001.012-.001h17.341v18.133h-17.35zm-256.63-115.966c-.362 0-.679-.253-.753-.602-3.441-16.154-16.602-29.303-32.748-32.72-.33-.069-.568-.384-.568-.746v-32.832c0-.362.239-.677.569-.746 16.147-3.418 29.307-16.567 32.748-32.721.074-.349.391-.601.753-.601h51.513c4.142 0 7.5-3.357 7.5-7.5s-3.358-7.5-7.5-7.5h-14.439l120.155-66.752 120.156 66.753h-195.872c-4.142 0-7.5 3.357-7.5 7.5s3.358 7.5 7.5 7.5h232.946c.362 0 .679.253.753.601 3.44 16.153 16.601 29.303 32.748 32.721.33.069.568.384.568.746v32.832c0 .362-.239.677-.569.746-16.146 3.417-29.307 16.565-32.748 32.72-.074.349-.391.602-.753.602h-314.459zm57.804 97.833c.008 0 .016.002.025.002.005 0 .01-.001.015-.001 4.993.008 9.053 4.072 9.053 9.066 0 4.999-4.067 9.066-9.067 9.066h-17.35v-18.133zm-7.644 100.666c-.235.301-.523.301-.617.301h-91.108c-.095 0-.382 0-.618-.301-.235-.302-.166-.581-.143-.673l2.573-10.292c1.011-4.044 4.628-6.868 8.796-6.868h69.89c4.168 0 7.785 2.824 8.796 6.868l2.573 10.291c.024.092.093.372-.142.674zm-24.68-32.833h-42.983v-18.133h42.983zm306.483-33.133h-42.983v-117.533h42.983zm-1.567-352.535v-25.43l25.43 12.715zm-7.224 46.376 54.193 115.643h-13.835v-8.916c0-7.408-5.242-13.894-12.463-15.422-10.281-2.176-18.991-10.881-21.183-21.171-1.54-7.228-8.027-12.475-15.424-12.475h-6.186l-9.618-5.344zm-87.818-69.199 7.261 10.892h-19.119c-4.999 0-9.066-4.067-9.066-9.066v-25.634h28.185l-7.262 10.893c-2.613 3.923-2.613 8.991.001 12.915zm-35.924-31.875v.567 25.633h-34.7v-34.7h26.2c4.687 0 8.5 3.813 8.5 8.5zm-193.244 158.733h-6.186c-7.398 0-13.885 5.247-15.424 12.476-2.191 10.289-10.902 18.994-21.182 21.17-7.222 1.528-12.464 8.014-12.464 15.422v8.916h-13.836l54.194-115.643 24.516 52.316zm-7.398-104.035v-25.43l25.429 12.715zm-82.558 210.935v-24.85c0-4.992 4.056-9.053 9.045-9.065.006 0 .011.001.017.001.01 0 .019-.002.029-.002h25.609v8.916c0 7.408 5.242 13.894 12.463 15.422 9.426 1.994 17.517 9.484 20.489 18.646h-58.586c-4.999-.001-9.066-4.068-9.066-9.068zm109.25 24.067v117.533h-42.983v-117.533zm-109.25 183.016v-49.699c0-.432.352-.783.783-.783h50.483v18.198c-10.401.663-19.244 7.935-21.801 18.164l-2.573 10.292c-.383 1.533-.509 3.083-.436 4.612h-25.672c-.432 0-.784-.352-.784-.784zm166.677.526c-.157.171-.354.258-.584.258h-17.033c.073-1.529-.052-3.079-.436-4.612l-2.573-10.292c-2.557-10.229-11.4-17.501-21.801-18.164v-34.766h13.96c6.381 7.589 25.83 33.244 28.671 66.987.019.223-.05.421-.204.589zm-26.433-115.709h-15.994v-67.833h59.311c-3.129 49.387-36.766 65.213-43.317 67.833zm158.195-67.833h59.311v67.833h-15.995c-6.554-2.622-40.187-18.449-43.316-67.833zm16.884 183.542c-.154-.168-.223-.365-.204-.589 2.841-33.738 22.286-59.394 28.67-66.987h13.96v34.766c-10.401.663-19.244 7.935-21.801 18.164l-2.574 10.293c-.383 1.532-.509 3.082-.435 4.611h-17.032c-.23 0-.427-.087-.584-.258zm33.364.258c-.094 0-.382 0-.617-.301-.235-.302-.165-.582-.143-.673l2.573-10.292c1.011-4.044 4.628-6.868 8.796-6.868h69.89c4.168 0 7.785 2.824 8.796 6.868l2.573 10.292c.023.092.092.371-.143.673-.234.301-.522.301-.617.301zm133.312-50.483v49.699c0 .433-.352.784-.783.784h-25.673c.073-1.529-.053-3.079-.436-4.612l-2.573-10.292c-2.557-10.229-11.4-17.501-21.801-18.164v-18.198h50.483c.432-.001.783.351.783.783zm-24.849-15.784h-26.417v-117.533h26.417z"/></g></g></svg>