<svg id="Capa_1" enable-background="new 0 0 511.999 511.999" height="512" viewBox="0 0 511.999 511.999" width="512" xmlns="http://www.w3.org/2000/svg"><g><g><g fill="#e8e8e8"><path d="m81.17 246.747-64.979-16.34c-5.335-1.429-8.5-6.913-7.071-12.247l3.624-13.029c1.429-5.335 6.913-8.501 12.247-7.071l1.893-.771 35.198 9.431 26.417 10.283z"/><path d="m88.499 319.313-64.384 15.787c-5.335 1.429-8.818.264-10.247-5.071l-4.026-15.023c-1.429-5.335-.264-8.818 5.071-10.247l3.921-3.051 41.165-11.03 21.298-3.707z"/><path d="m495.085 228.888-64.384 17.788-9.202-30.342 28.417-9.614 37.967-10.173c5.335-1.429 10.818 1.736 12.247 7.071l3.083 11.505-1.057 3.519c1.43 5.333-1.736 8.816-7.071 10.246z"/><path d="m485.883 335.101-62.384-17.788 7.202-30.342 21.298 3.707 45.086 12.081c5.335 1.429 8.5 6.913 7.071 12.247l-3.261 12.17-1.765 2.854c-1.429 5.335-7.912 6.5-13.247 5.071z"/></g><path d="m90.499 214.333-28.417-7.614c-1.347 4.813-2.083 9.88-2.083 15.123v2.93c0 1.973-1.871 3.408-3.776 2.898l-32.071-8.593c-1.6-.429-2.55-2.074-2.121-3.674l4.854-18.114-2.769-.742c-5.335-1.429-10.818 1.736-12.247 7.071l-4.026 15.022c-1.429 5.335 1.736 10.818 7.071 12.247l45.086 12.081 21.298 5.707 3.572-13.33z" fill="#dcdbdd"/><path d="m90.499 319.313-3.58-13.361-5.622-20.981-21.298 5.707v6.264c0 4.408.445 8.751 1.285 12.985.307 1.547-.637 3.065-2.161 3.473l-31.769 8.512c-1.6.429-3.245-.521-3.674-2.121l-4.845-18.083-3.921 1.051c-5.335 1.429-8.501 6.913-7.071 12.247l4.026 15.024c1.429 5.335 6.913 8.5 12.247 7.071l42.377-11.355z" fill="#dcdbdd"/><path d="m504.156 218.64-.943-3.519-47.437 12.711c-1.905.511-3.776-.925-3.776-2.898v-3.092c0-5.243-.736-10.311-2.083-15.123l-28.417 7.614 9.202 34.342 66.384-17.788c5.334-1.429 8.5-6.912 7.07-12.247z" fill="#dcdbdd"/><path d="m452.693 314.26c-1.536-.412-2.483-1.95-2.154-3.505.952-4.494 1.46-9.116 1.46-13.813v-6.264l-15.651-4.194-5.647-1.513-9.202 34.342 66.384 17.788c5.334 1.429 10.818-1.736 12.247-7.07l.765-2.855z" fill="#dcdbdd"/><path d="m408.155 347.757-38.855 23.346c-32.071 19.27-68.49 30.02-105.8 31.293l-7.851-1.468-7.149 1.468c-8.666-.296-17.284-1.102-25.81-2.409-.179-.027-.735-.228-.914-.256-5.162-.804-9.713-2.296-14.797-3.463-22.488-5.163-44.325-13.176-64.279-25.165l-37.402-25.164c-18.828-11.313-30.255-30.172-30.255-52.137l-.596-67.905c0-13.102 4.459-25.927 12.309-35.319.692-.828 1.739-2.972 1.739-2.972 9.457-9.6 22.608-15.552 37.148-15.552h.227c24.193 0 47.362-9.769 64.251-27.091l12.636-12.963c14.039-14.399 33.298-22.52 53.409-22.52 20.222 0 39.577 8.21 53.632 22.749l12.039 12.454c16.908 17.491 40.193 27.368 64.52 27.368 28.798 0 52.143 23.345 52.143 52.143v69.927c-.001 21.966-11.518 42.323-30.345 53.636z" fill="#c8effe"/><g><g><path d="m159.553 369.789-48.136-31.34c-14.219-8.543-22.917-25.917-22.917-42.505l-.006-108.34c-9.272 9.413-14.994 22.334-14.994 36.591v69.927c0 21.965 11.517 42.322 30.345 53.634l38.855 23.346c35.237 20.24 55.747 24.24 80.025 28.889-.001.001-27.493-8.763-63.172-30.202z" fill="#a9e5f7"/></g></g><path d="m391.79 322.953-35.792 21.054c-1.817 1.069-3.648 2.107-5.495 3.115-28.956 15.807-61.448 21.116-94.504 21.116-35.165 0-65.69-8.401-95.999-26.231l-36.792-20.054c-9.556-5.621-14.423-14.88-14.423-25.966l-1-62.578c0-9.8 2.682-21.338 10.406-26.152.406-.253 1.279-1.307 1.279-1.307 3.441-1.673 7.304-2.613 11.387-2.613h.281c29.436 0 57.567-12.15 77.747-33.581l13.579-14.42c8.756-9.299 20.962-14.571 33.735-14.571 12.844 0 25.112 5.331 33.875 14.721l12.996 13.925c20.197 21.64 48.47 33.926 78.071 33.926 14.399 0 26.071 11.673 26.071 26.071v66.578c.002 11.088-5.866 21.346-15.422 26.967z" fill="#f9f8f9"/><path d="m306.297 286.767 1.423 7.505c-3.639 25.241-25.358 44.637-51.607 44.637-26.252 0-47.973-19.401-51.608-44.647l.94-7.878-.939-7.123c3.28-22.755 21.253-40.759 43.993-44.086l7.614.678 7.386-.711c22.848 3.239 40.93 21.288 44.221 44.119z" fill="#c8effe"/><path d="m352.362 346.095c-23.372 10.456-48.762 15.908-74.517 15.908 0 0-9.941-.03-13.36-.064-.548-.005-.985-.452-.985-1v-22.565l-1-1.556c0-5.289-2.357-6.575-6.5-6.575s-6.5 1.286-6.5 6.575l-1 1.555v21.424c0 .598-.523 1.068-1.117 1-25.25-2.893-49.699-11.023-71.736-23.986l-49.288-28.993c-4.267-2.51-6.887-7.091-6.887-12.042v-89.826c-8.693 4.227-14.684 13.143-14.684 23.459v66.578c0 11.086 5.867 21.345 15.423 26.966l35.789 21.054c28.151 16.559 59.94 25.849 92.499 27.088 0 0 4.997.143 7.5.143s7.5-.134 7.5-.134c31.163-1.189 61.625-9.757 88.863-25.009z" fill="#e8e8e8"/><path d="m276.857 286.766c0-9.055-5.77-16.762-13.835-19.645 0 0-.42-.001-.582-.054-2.057-.679-4.156-.158-6.441-.158-11.519 0-19.857 8.338-19.857 19.857s8.338 19.857 19.857 19.857c2.32 0 4.272.54 6.357-.159.13-.043.666-.053.666-.053 8.064-2.882 13.835-10.589 13.835-19.645z" fill="#f9f8f9"/><path d="m249.142 286.766c0-9.06 5.809-16.766 13.88-19.645-2.191-.782-4.563-1.212-7.023-1.212-11.519 0-20.857 9.338-20.857 20.857s9.338 20.857 20.857 20.857c2.459 0 4.832-.43 7.023-1.212-8.07-2.879-13.88-10.585-13.88-19.645z" fill="#e8e8e8"/></g><g><path d="m499.027 295.515-53.027-14.209v-28.965l53.027-14.209c9.319-2.498 14.87-12.112 12.374-21.434l-4.026-15.022c-1.209-4.516-4.104-8.289-8.153-10.626-4.049-2.338-8.765-2.959-13.279-1.748l-44.544 11.935c-9.011-21.523-30.287-36.685-55.041-36.685-12.957 0-25.904-3.118-37.441-9.018-3.686-1.885-8.205-.425-10.092 3.263-1.886 3.688-.425 8.207 3.263 10.093 13.642 6.976 28.95 10.662 44.271 10.662 24.616 0 44.643 20.026 44.643 44.643v69.928c0 19.219-10.233 37.307-26.708 47.205l-38.854 23.347c-30.898 18.565-65.992 28.945-101.938 30.215v-16.301c22.924-.831 45.368-5.459 66.817-13.816 3.859-1.504 5.77-5.852 4.266-9.711-1.504-3.858-5.851-5.771-9.711-4.266-19.707 7.677-40.319 11.961-61.372 12.784v-17.659c29.357-3.702 52.143-28.809 52.143-59.154 0-32.888-26.756-59.644-59.643-59.644s-59.643 26.756-59.643 59.644c0 30.345 22.786 55.452 52.143 59.154v17.652c-31.204-1.238-61.722-10.163-88.696-26.031l-35.792-21.054c-7.232-4.254-11.726-12.11-11.726-20.502v-16.134c0-4.143-3.357-7.5-7.5-7.5s-7.5 3.357-7.5 7.5v16.134c0 13.684 7.326 26.493 19.12 33.432l35.792 21.054c29.279 17.222 62.424 26.878 96.302 28.123v16.282c-26.014-.904-51.35-6.5-75.416-16.7-3.809-1.615-8.216.165-9.832 3.979s.165 8.216 3.979 9.832c28.235 11.967 58.102 18.035 88.77 18.035 41.272 0 81.787-11.235 117.164-32.492l38.854-23.347c9.718-5.839 17.725-13.921 23.523-23.345l50.401 13.505c3.303.864 7.925 1.009 13.279-1.748 4.049-2.337 6.944-6.11 8.153-10.625l4.026-15.025c2.495-9.32-3.057-18.934-12.376-21.431zm-243.028-22.106c7.365 0 13.357 5.992 13.357 13.357s-5.992 13.356-13.357 13.356-13.357-5.991-13.357-13.356 5.992-13.357 13.357-13.357zm7.5 57.358v-16.658c9.617-2.641 17.202-10.226 19.843-19.842h16.657c-3.163 18.616-17.884 33.336-36.5 36.5zm36.5-51.5h-16.657c-2.641-9.617-10.227-17.202-19.843-19.843v-16.658c18.616 3.164 33.337 17.885 36.5 36.501zm-51.5-36.501v16.658c-9.617 2.641-17.202 10.226-19.843 19.843h-16.657c3.164-18.616 17.885-33.337 36.5-36.501zm-36.5 51.501h16.657c2.641 9.616 10.227 17.201 19.843 19.842v16.658c-18.615-3.164-33.336-17.884-36.5-36.5zm277.826-90.477c.872-.234 1.562.056 1.897.25.334.193.931.647 1.164 1.518l4.025 15.022c.357 1.332-.437 2.706-1.768 3.063l-49.145 13.168c-.111-7.038.382-13.545-.615-21.114zm7.088 109.275-4.026 15.025c-.233.869-.83 1.323-1.164 1.517-.336.193-1.025.483-1.897.25l-47.738-12.791c2.256-6.464 3.582-13.282 3.855-20.246l49.203 13.184c1.33.357 2.123 1.73 1.767 3.061z"/><path d="m143.036 362.555-35.329-21.228c-16.474-9.898-26.707-27.986-26.707-47.205v-69.928c0-24.616 20.026-44.643 44.643-44.643 25.317.162 51.874-10.723 69.849-29.355 15.431-18.057 35.986-33.945 60.675-33.216 21.892-.646 42.623 12.366 56.491 28.999 2.878 2.975 7.625 3.059 10.605.18 2.978-2.879 3.059-7.627.18-10.605-16.779-20.001-40.953-33.892-67.276-33.573-32.391-.085-53.262 17.504-71.415 37.745-14.721 15.25-37.244 25.033-59.108 24.826-24.755 0-46.03 15.162-55.041 36.685l-44.544-11.935c-4.514-1.21-9.23-.589-13.279 1.748s-6.944 6.11-8.153 10.625l-4.029 15.025c-2.497 9.319 3.055 18.934 12.374 21.432l53.027 14.208v28.965l-53.027 14.209c-9.319 2.498-14.871 12.112-12.374 21.433l4.025 15.022c1.21 4.516 4.105 8.29 8.153 10.627 2.696 1.557 5.689 2.353 8.722 2.353 1.521 0 3.051-.2 4.559-.604l50.401-13.505c5.798 9.424 13.805 17.505 23.523 23.345l35.328 21.228c1.21.727 2.541 1.072 3.856 1.072 2.546 0 5.028-1.297 6.436-3.638 2.134-3.551.984-8.158-2.565-10.292zm-126.181-138.911c-1.331-.357-2.125-1.73-1.769-3.062l4.026-15.025c.233-.869.83-1.323 1.164-1.517.336-.193 1.024-.482 1.897-.25l44.441 11.908c-.765 3.367-.625 16.879-.615 21.114zm5.319 106.213c-.876.233-1.562-.057-1.896-.25-.335-.193-.932-.647-1.165-1.519l-4.026-15.022c-.356-1.332.438-2.705 1.769-3.062l49.203-13.184c.273 6.965 1.599 13.782 3.855 20.246z"/><path d="m387.988 316.488-32.746 19.262c-3.57 2.101-4.762 6.697-2.662 10.268 1.397 2.376 3.901 3.698 6.472 3.698 1.292 0 2.602-.334 3.796-1.036l32.746-19.262c11.794-6.938 19.12-19.748 19.12-33.432v-66.577c0-18.512-15.06-33.571-33.571-33.571-27.421 0-53.879-11.497-72.588-31.544-12.959-15.528-30.25-31.917-52.355-31.027-25.124-.312-39.361 16.582-52.773 31.349-18.127 19.396-45.457 31.44-72.568 31.223-18.512 0-33.571 15.06-33.571 33.571v15.443c0 4.143 3.357 7.5 7.5 7.5s7.5-3.357 7.5-7.5v-15.443c0-10.24 8.331-18.571 18.571-18.571 30.704.177 62.182-13.111 83.488-35.939 10.646-11.87 23.809-27.46 41.854-26.632 17.947-.975 31.115 14.741 41.389 26.262 21.536 23.075 51.991 36.31 83.555 36.31 10.24 0 18.571 8.331 18.571 18.571v66.577c-.003 8.39-4.496 16.247-11.728 20.5z"/><path d="m276.999 194.002h-42c-4.143 0-7.5 3.357-7.5 7.5s3.357 7.5 7.5 7.5h42c4.143 0 7.5-3.357 7.5-7.5s-3.357-7.5-7.5-7.5z"/></g></g></svg>