<svg id="Capa_1" enable-background="new 0 0 512 512" height="512" viewBox="0 0 512 512" width="512" xmlns="http://www.w3.org/2000/svg"><g><g><g><path d="m471.1 425.2h-430.2v-301.14c0-11.046 8.954-20 20-20h390.2c11.046 0 20 8.954 20 20z" fill="#365f7e"/></g><g><path d="m101.54 104.06h308.92v35h-308.92z" fill="#2c4d66"/></g><g><path d="m82.14 104.06h-21.24c-11.046 0-20 8.954-20 20v301.14h21.24v-301.14c0-11.046 8.954-20 20-20z" fill="#2c4d66"/></g><g><path d="m75.9 385.02v-240.96c0-2.761 2.239-5 5-5h350.2c2.761 0 5 2.239 5 5v240.96c0 2.761-2.239 5-5 5h-350.2c-2.762 0-5-2.239-5-5z" fill="#b3dafe"/></g><g><path d="m80.9 139.06c-2.761 0-5 2.239-5 5v240.96c0 2.761 2.239 5 5 5h29.47c-2.761 0-5-2.239-5-5v-40.772c5.8 11.332 17.59 19.112 31.17 19.112h238.92c19.299 0 35-15.701 35-35v-189.3z" fill="#8ac9fe"/></g><g><path d="m504.5 479.5v-44.3c0-5.523-4.477-10-10-10h-477c-5.523 0-10 4.477-10 10v44.3c0 13.807 11.193 25 25 25h447c13.807 0 25-11.193 25-25z" fill="#d3ced5"/></g><g><path d="m28.4 479.5v-44.3c0-5.523 4.477-10 10-10h-20.9c-5.523 0-10 4.477-10 10v44.3c0 13.807 11.193 25 25 25h20.9c-13.807 0-25-11.193-25-25z" fill="#c3bec6"/></g><g><path d="m294.1 468.78h-76.2c-8.892 0-16.1-7.208-16.1-16.1v-27.48h108.4v27.48c0 8.891-7.208 16.1-16.1 16.1z" fill="#b5adb7"/></g><g><path d="m385.46 64.76h-258.92v-47.26c0-5.523 4.477-10 10-10h238.92c5.523 0 10 4.477 10 10z" fill="#e58e82"/></g><g><path d="m126.54 328.36v-263.6h258.92v263.6c0 5.523-4.477 10-10 10h-238.92c-5.523 0-10-4.477-10-10z" fill="#f6f1f1"/></g><g><path d="m158.14 7.5h-21.6c-5.523 0-10 4.477-10 10v47.26h21.6v-47.26c0-5.523 4.477-10 10-10z" fill="#e06c57"/></g><g><path d="m148.14 328.36v-263.6h-21.6v263.6c0 5.523 4.477 10 10 10h21.6c-5.523 0-10-4.478-10-10z" fill="#e2dfe2"/></g><g><path d="m337.4 161.96h-162.8c-2.761 0-5-2.239-5-5v-51.2c0-2.761 2.239-5 5-5h162.8c2.761 0 5 2.239 5 5v51.2c0 2.761-2.239 5-5 5z" fill="#b3dafe"/></g><g><path d="m230.4 254.2h-55.8c-2.761 0-5-2.239-5-5v-51.2c0-2.761 2.239-5 5-5h55.8c2.761 0 5 2.239 5 5v51.2c0 2.761-2.239 5-5 5z" fill="#fdcd08"/></g><path d="m185.68 156.96v-51.2c0-2.761 2.239-5 5-5h-16.08c-2.761 0-5 2.239-5 5v51.2c0 2.761 2.239 5 5 5h16.08c-2.762 0-5-2.239-5-5z" fill="#8ac9fe"/><path d="m185.68 249.2v-51.2c0-2.761 2.239-5 5-5h-16.08c-2.761 0-5 2.239-5 5v51.2c0 2.761 2.239 5 5 5h16.08c-2.762 0-5-2.239-5-5z" fill="#faab18"/></g><g><path d="m494.5 417.699h-15.9v-293.639c0-15.163-12.336-27.5-27.5-27.5h-31.059c-4.142 0-7.5 3.357-7.5 7.5s3.358 7.5 7.5 7.5h31.059c6.893 0 12.5 5.607 12.5 12.5v293.64h-338.36c-4.142 0-7.5 3.357-7.5 7.5s3.358 7.5 7.5 7.5h69.06v19.98c0 13.013 10.587 23.6 23.6 23.6h76.2c13.013 0 23.6-10.587 23.6-23.6v-19.98h176.8c1.378 0 2.5 1.121 2.5 2.5v44.3c0 9.649-7.851 17.5-17.5 17.5h-447c-9.649 0-17.5-7.851-17.5-17.5v-44.301c0-1.379 1.122-2.5 2.5-2.5h71.7c4.142 0 7.5-3.357 7.5-7.5s-3.358-7.5-7.5-7.5h-40.8v-293.639c0-6.893 5.607-12.5 12.5-12.5h28.3c4.142 0 7.5-3.357 7.5-7.5s-3.358-7.5-7.5-7.5h-28.3c-15.164 0-27.5 12.337-27.5 27.5v293.64h-15.9c-9.649 0-17.5 7.851-17.5 17.5v44.3c0 17.921 14.58 32.5 32.5 32.5h447c17.92 0 32.5-14.579 32.5-32.5v-44.301c0-9.649-7.851-17.5-17.5-17.5zm-191.8 34.981c0 4.742-3.858 8.6-8.6 8.6h-76.2c-4.742 0-8.6-3.857-8.6-8.6v-19.98h93.4z"/><path d="m119.04 131.56h-38.14c-6.893 0-12.5 5.607-12.5 12.5v240.96c0 6.893 5.607 12.5 12.5 12.5h350.2c6.893 0 12.5-5.607 12.5-12.5v-240.96c0-6.893-5.607-12.5-12.5-12.5h-38.14v-114.06c0-9.649-7.851-17.5-17.5-17.5h-238.92c-9.649 0-17.5 7.851-17.5 17.5zm15-114.06c0-1.379 1.122-2.5 2.5-2.5h238.92c1.378 0 2.5 1.121 2.5 2.5v39.76h-243.92zm294.56 129.06v235.96h-345.201v-235.96h35.64v26.92c0 4.143 3.358 7.5 7.5 7.5s7.5-3.357 7.5-7.5v-101.22h243.92v256.1c0 1.379-1.122 2.5-2.5 2.5h-238.919c-1.378 0-2.5-1.121-2.5-2.5v-121.8c0-4.143-3.358-7.5-7.5-7.5s-7.5 3.357-7.5 7.5v121.8c0 9.649 7.851 17.5 17.5 17.5h238.92c9.649 0 17.5-7.851 17.5-17.5v-181.8z"/><path d="m352.16 28.63h-11.04c-4.142 0-7.5 3.357-7.5 7.5s3.358 7.5 7.5 7.5h11.04c4.142 0 7.5-3.357 7.5-7.5s-3.358-7.5-7.5-7.5z"/><path d="m312.92 28.63h-11.04c-4.142 0-7.5 3.357-7.5 7.5s3.358 7.5 7.5 7.5h11.04c4.142 0 7.5-3.357 7.5-7.5s-3.358-7.5-7.5-7.5z"/><path d="m174.6 169.46h162.8c6.893 0 12.5-5.607 12.5-12.5v-51.2c0-6.893-5.607-12.5-12.5-12.5h-162.8c-6.893 0-12.5 5.607-12.5 12.5v51.2c0 6.893 5.607 12.5 12.5 12.5zm2.5-61.2h157.8v46.2h-157.8z"/><path d="m174.6 261.699h55.8c6.893 0 12.5-5.607 12.5-12.5v-51.199c0-6.893-5.607-12.5-12.5-12.5h-55.8c-6.893 0-12.5 5.607-12.5 12.5v51.199c0 6.893 5.607 12.5 12.5 12.5zm2.5-61.199h50.8v46.199h-50.8z"/><path d="m341.12 185.5h-74.04c-4.142 0-7.5 3.357-7.5 7.5s3.358 7.5 7.5 7.5h74.04c4.142 0 7.5-3.357 7.5-7.5s-3.358-7.5-7.5-7.5z"/><path d="m341.12 216.1h-74.04c-4.142 0-7.5 3.357-7.5 7.5s3.358 7.5 7.5 7.5h74.04c4.142 0 7.5-3.357 7.5-7.5s-3.358-7.5-7.5-7.5z"/><path d="m341.12 246.699h-74.04c-4.142 0-7.5 3.357-7.5 7.5s3.358 7.5 7.5 7.5h74.04c4.142 0 7.5-3.357 7.5-7.5s-3.358-7.5-7.5-7.5z"/><path d="m169.6 293.62h171.52c4.142 0 7.5-3.357 7.5-7.5s-3.358-7.5-7.5-7.5h-171.52c-4.142 0-7.5 3.357-7.5 7.5s3.358 7.5 7.5 7.5z"/></g></g></svg>