<svg id="Capa_1" enable-background="new 0 0 512.432 512.432" height="512" viewBox="0 0 512.432 512.432" width="512" xmlns="http://www.w3.org/2000/svg"><g><g><g><path d="m131.463 323.421h231.834v35.737h-231.834z" fill="#d3ced5" transform="matrix(.707 .707 -.707 .707 313.784 -74.963)"/></g><g><path d="m51.394 374.533-33.164-45.445c-2.394-3.28-1.675-7.879 1.605-10.273l276.161-201.534 41.832 57.322-276.161 201.534c-3.28 2.394-7.879 1.675-10.273-1.604z" fill="#b3dafe"/></g><g><path d="m295.996 117.281-276.161 201.534c-3.28 2.394-3.998 6.993-1.605 10.273l13.872 19.009c-2.958-4.053-2.07-9.737 1.983-12.695l274.761-200.512z" fill="#8ac9fe"/></g><g><path d="m137.899 461.037 45.445 33.164c3.28 2.394 7.879 1.675 10.273-1.605l201.533-276.161-57.322-41.832-201.534 276.161c-2.394 3.28-1.675 7.879 1.605 10.273z" fill="#b3dafe"/></g><g><path d="m354.493 186.765-16.664-12.161-201.535 276.16c-2.394 3.28-1.675 7.879 1.605 10.273l15.519 11.325c-1.801-3.032-1.74-6.971.47-10z" fill="#8ac9fe"/></g><g><path d="m455.987 89.945-33.501-33.501c-2.343-2.343-2.343-6.142 0-8.485l38.701-38.701c2.343-2.343 6.142-2.343 8.485 0l33.501 33.501c2.343 2.343 2.343 6.142 0 8.485l-38.701 38.701c-2.342 2.344-6.141 2.344-8.485 0z" fill="#d3ced5"/></g><g><path d="m434.571 58.573 37.231-37.231c2.749-2.749 7.206-2.749 9.956 0l-12.085-12.085c-2.343-2.343-6.142-2.343-8.485 0l-38.701 38.701c-2.343 2.343-2.343 6.142 0 8.485l12.085 12.085c-2.751-2.749-2.751-7.206-.001-9.955z" fill="#c3bec6"/></g><g><circle cx="359.114" cy="153.317" fill="#365f7e" r="74.833"/></g><g><path d="m320.933 115.136c26.723-26.723 68.62-28.994 97.941-6.845-2.073-2.745-4.344-5.388-6.845-7.889-29.224-29.224-76.606-29.224-105.831 0s-29.224 76.606 0 105.831c2.501 2.501 5.144 4.772 7.889 6.845-22.147-29.322-19.877-71.219 6.846-97.942z" fill="#2c4d66"/></g><g><circle cx="359.114" cy="153.317" fill="#e58e82" r="27.05"/></g><g><path d="m320.927 472.3-24.269-24.269c-2.448-2.448-2.448-6.418 0-8.867l48.596-48.596c2.448-2.448 6.418-2.448 8.867 0l24.269 24.269c2.448 2.448 2.448 6.418 0 8.867l-48.596 48.596c-2.448 2.449-6.418 2.449-8.867 0z" fill="#365f7e"/></g><g><path d="m310.27 451.239 47.06-47.06c2.872-2.872 7.529-2.873 10.402-.001l-13.61-13.61c-2.448-2.448-6.418-2.448-8.867 0l-48.596 48.596c-2.448 2.448-2.448 6.418 0 8.867l13.611 13.611c-2.873-2.872-2.873-7.53 0-10.403z" fill="#2c4d66"/></g></g><g><path d="m508.477 37.455-33.501-33.5c-2.549-2.551-5.94-3.955-9.546-3.955s-6.997 1.404-9.546 3.954l-38.701 38.701c-2.55 2.55-3.955 5.939-3.955 9.546 0 3.605 1.404 6.996 3.954 9.547l11.447 11.446-16.844 16.846c-14.114-11.772-31.687-18.475-50.238-19.02-4.137-.112-7.595 3.137-7.717 7.276-.122 4.141 3.136 7.596 7.276 7.718 17.227.506 33.428 7.499 45.62 19.692 12.718 12.717 19.721 29.626 19.721 47.611s-7.004 34.894-19.722 47.611c-12.718 12.718-29.626 19.722-47.612 19.722s-34.895-7.004-47.612-19.722-19.721-29.626-19.721-47.611 7.004-34.895 19.721-47.611c5.938-5.938 12.807-10.651 20.415-14.007 3.79-1.672 5.507-6.1 3.835-9.89s-6.1-5.505-9.889-3.835c-9.312 4.108-17.712 9.869-24.967 17.124-6.012 6.013-10.967 12.798-14.8 20.122l-270.681 197.537c-6.615 4.828-8.069 14.137-3.242 20.752l12.161 16.664-21.253 15.51c-3.346 2.442-4.079 7.134-1.637 10.479 1.469 2.013 3.75 3.08 6.064 3.08 1.533 0 3.082-.47 4.415-1.442l21.253-15.51 12.16 16.663c2.338 3.205 5.785 5.307 9.705 5.92.777.121 1.553.181 2.325.181 3.121 0 6.154-.982 8.723-2.857l107.715-78.607 35.04 35.04-77.856 106.685c-5.241 7.183-3.662 17.29 3.521 22.532l15.635 11.41-15.51 21.253c-2.442 3.346-1.709 8.037 1.637 10.479 1.334.974 2.881 1.442 4.415 1.442 2.313 0 4.596-1.067 6.064-3.08l15.51-21.253 15.635 11.409c2.791 2.037 6.083 3.104 9.472 3.104.837 0 1.68-.065 2.523-.197 4.256-.664 7.998-2.947 10.537-6.427l69.939-95.837 27.351 27.351-6.359 6.359c-2.601 2.601-4.033 6.059-4.033 9.737s1.432 7.136 4.033 9.736l24.269 24.269c2.601 2.601 6.059 4.033 9.737 4.033 3.679 0 7.137-1.433 9.737-4.033l48.596-48.596c5.369-5.368 5.369-14.104 0-19.475l-24.269-24.269c-5.369-5.368-14.104-5.368-19.473 0l-6.36 6.36-32.955-32.955 67.349-92.288c2.442-3.346 1.709-8.037-1.637-10.479-3.346-2.441-8.038-1.71-10.479 1.638l-167.56 229.606c-.227.312-.525.416-.735.448-.21.034-.526.025-.838-.203l-43.386-31.662c-.502-.365-.612-1.071-.246-1.573l169.804-232.682c13.527 9.211 29.483 14.176 46.207 14.176 21.992 0 42.668-8.563 58.218-24.114 15.551-15.552 24.115-36.228 24.115-58.219 0-19.472-6.726-37.904-19.058-52.668l16.847-16.847 11.448 11.447c2.55 2.55 5.94 3.954 9.546 3.954s6.997-1.404 9.546-3.954l38.701-38.701c2.55-2.55 3.954-5.94 3.954-9.546-.004-3.604-1.408-6.995-3.958-9.545zm-158.789 359.286 22.529 22.529-46.856 46.856-22.529-22.529zm-26.703 5.49-14.664 14.664-29.007-29.008 12.373-16.954zm-265.619-32.239-32.99-45.206 253.53-185.019c-.731 4.438-1.125 8.962-1.125 13.55 0 16.724 4.965 32.68 14.177 46.207zm128.7-75.352 16.954-12.373 27.144 27.144-12.373 16.954zm53.049 2.507-23.83-23.83 85.221-62.192c.133.135.257.276.391.41s.275.258.41.391zm221.115-213.566-31.38-31.379 36.58-36.58 31.38 31.379z"/><path d="m393.664 153.317c0-9.229-3.594-17.905-10.12-24.432-13.471-13.471-35.39-13.471-48.861.001s-13.471 35.391 0 48.86c6.526 6.526 15.202 10.12 24.431 10.12s17.905-3.594 24.431-10.12v.001c6.526-6.524 10.119-15.201 10.119-24.43zm-20.726 13.824c-3.693 3.693-8.602 5.727-13.824 5.727s-10.131-2.033-13.824-5.727c-7.623-7.622-7.622-20.025 0-27.647 3.812-3.812 8.817-5.717 13.824-5.717 5.006 0 10.013 1.905 13.824 5.716 3.693 3.693 5.726 8.603 5.726 13.825 0 5.221-2.033 10.13-5.726 13.823z"/></g></g></svg>