<svg id="Capa_1" enable-background="new 0 0 512.024 512.024" height="512" viewBox="0 0 512.024 512.024" width="512" xmlns="http://www.w3.org/2000/svg"><g><g><g><path d="m40.645 289.156h430.733v165.667h-430.733z" fill="#92b0ea"/><path d="m448.3 289.156h23.078v165.667h-23.078z" fill="#7691ea"/><g><path d="m380.262 331.756h33.133v80.467h-33.133z" fill="#dff8fa"/><path d="m390.395 331.756h23v80.467h-23z" fill="#c3f2f7"/><path d="m421.679 299.933v30.639c0 4.575-3.709 8.283-8.283 8.283h-33.133c-4.575 0-8.283-3.708-8.283-8.283v-30.639z" fill="#f3ffff"/><path d="m371.979 443.458v-30.052c0-4.575 3.708-8.283 8.283-8.283h33.133c4.575 0 8.283 3.709 8.283 8.283v30.052z" fill="#f3ffff"/><g fill="#dff9f9"><path d="m398.679 299.933v30.639c0 4.575-3.709 8.283-8.283 8.283h23c4.575 0 8.283-3.708 8.283-8.283v-30.639z"/><path d="m413.395 405.123h-23c4.575 0 8.283 3.709 8.283 8.283v30.052h23v-30.052c.001-4.575-3.708-8.283-8.283-8.283z"/></g></g><g><path d="m239.445 331.756h33.133v80.467h-33.133z" fill="#dff8fa"/><path d="m249.579 331.756h23v80.467h-23z" fill="#c3f2f7"/><path d="m280.862 299.933v30.639c0 4.575-3.709 8.283-8.283 8.283h-33.133c-4.575 0-8.283-3.708-8.283-8.283v-30.639z" fill="#f3ffff"/><path d="m231.162 443.458v-30.052c0-4.575 3.708-8.283 8.283-8.283h33.133c4.575 0 8.283 3.709 8.283 8.283v30.052z" fill="#f3ffff"/><g fill="#dff9f9"><path d="m257.862 299.933v30.639c0 4.575-3.709 8.283-8.283 8.283h23c4.575 0 8.283-3.708 8.283-8.283v-30.639z"/><path d="m272.579 405.123h-23c4.575 0 8.283 3.709 8.283 8.283v30.052h23v-30.052c0-4.575-3.709-8.283-8.283-8.283z"/></g></g><g><path d="m98.629 331.756h33.133v80.467h-33.133z" fill="#dff8fa"/><path d="m108.762 331.756h23v80.467h-23z" fill="#c3f2f7"/><path d="m140.045 299.933v30.639c0 4.575-3.709 8.283-8.283 8.283h-33.133c-4.575 0-8.283-3.708-8.283-8.283v-30.639z" fill="#f3ffff"/><path d="m90.345 443.458v-30.052c0-4.575 3.709-8.283 8.283-8.283h33.133c4.575 0 8.283 3.709 8.283 8.283v30.052z" fill="#f3ffff"/><g fill="#dff9f9"><path d="m117.045 299.933v30.639c0 4.575-3.709 8.283-8.284 8.283h23c4.575 0 8.283-3.708 8.283-8.283v-30.639z"/><path d="m131.762 405.123h-23c4.575 0 8.284 3.709 8.284 8.283v30.052h23v-30.052c-.001-4.575-3.709-8.283-8.284-8.283z"/></g></g><g><path d="m24.079 286.389v-13.8l5.146-20.585c1.844-7.375 8.47-12.549 16.072-12.549h421.43c7.602 0 14.228 5.174 16.072 12.549l5.146 20.585v13.8z" fill="#f3ffff"/><path d="m482.799 252.005c-1.844-7.375-8.47-12.549-16.072-12.549h-23c7.602 0 14.228 5.174 16.072 12.549l5.146 20.585v13.8h23v-13.8z" fill="#dff9f9"/><path d="m24.079 272.589c-9.15 0-16.567 7.417-16.567 16.567s7.417 16.567 16.567 16.567h463.867c9.15 0 16.567-7.417 16.567-16.567s-7.417-16.567-16.567-16.567z" fill="#dff8fa"/><path d="m487.945 272.589h-23c9.15 0 16.567 7.417 16.567 16.567 0 9.149-7.417 16.567-16.567 16.567h23c9.15 0 16.567-7.417 16.567-16.567s-7.417-16.567-16.567-16.567z" fill="#c3f2f7"/></g><path d="m24.079 457.59v13.8l5.146 20.585c1.844 7.375 8.47 12.549 16.072 12.549h421.43c7.602 0 14.228-5.174 16.072-12.549l5.146-20.585v-13.8z" fill="#f3ffff"/><path d="m482.799 491.974c-1.844 7.375-8.47 12.549-16.072 12.549h-23c7.602 0 14.228-5.174 16.072-12.549l5.146-20.585v-13.8h23v13.8z" fill="#dff9f9"/><path d="m24.079 471.389c-9.15 0-16.567-7.417-16.567-16.567s7.417-16.567 16.567-16.567h463.867c9.15 0 16.567 7.417 16.567 16.567s-7.417 16.567-16.567 16.567z" fill="#dff8fa"/><path d="m487.945 471.389h-23c9.15 0 16.567-7.417 16.567-16.567s-7.417-16.567-16.567-16.567h23c9.15 0 16.567 7.417 16.567 16.567s-7.417 16.567-16.567 16.567z" fill="#c3f2f7"/></g><path d="m254.199 72.623c-6.452-2.096-13.139-1.408-18.765 1.398-.956.477-2.062.545-3.078.215l-202.709-65.865c-8.484-2.757-17.902 1.391-21.055 9.736-3.366 8.909 1.417 18.722 10.371 21.631l203.154 66.009c1.016.33 1.871 1.036 2.364 1.983 2.902 5.577 7.908 10.064 14.36 12.161l21.246 6.903c13.25 4.305 27.936-2.911 31.989-16.24 3.929-12.921-3.199-26.663-16.099-30.854z" fill="#e59f4f"/><path d="m257.825 150.907c6.452-2.096 13.139-1.408 18.765 1.398.956.476 2.062.545 3.078.215l202.709-65.864c8.484-2.757 17.902 1.391 21.055 9.736 3.366 8.91-1.417 18.722-10.371 21.631l-203.154 66.009c-1.015.33-1.871 1.036-2.364 1.983-2.902 5.577-7.908 10.064-14.36 12.16l-21.246 6.903c-13.25 4.305-27.936-2.911-31.989-16.24-3.929-12.921 3.199-26.663 16.099-30.854z" fill="#e59f4f"/><g fill="#e27f4d"><path d="m503.431 96.392c-3.152-8.345-12.571-12.493-21.055-9.736l-7.521 2.444c2.453 1.794 4.431 4.262 5.576 7.292 3.366 8.91-1.417 18.722-10.371 21.631l-203.154 66.009c-1.015.33-1.871 1.036-2.364 1.983-2.903 5.577-7.908 10.064-14.36 12.16l-17.249 5.605c5.744 2.752 12.543 3.398 19.003 1.299l21.246-6.903c6.452-2.096 11.457-6.583 14.36-12.16.493-.947 1.348-1.653 2.364-1.983l203.154-66.009c8.954-2.911 13.737-12.723 10.371-21.632z"/><path d="m275.978 79.699-21.778-7.076c-6.442-2.093-13.117-1.41-18.738 1.385l17.516 5.691c12.9 4.191 20.028 17.934 16.099 30.854-2.077 6.83-6.949 12.049-12.986 14.941l3.997 1.299c13.25 4.305 27.936-2.911 31.989-16.24 3.929-12.92-3.199-26.663-16.099-30.854z"/></g></g><g><path d="m487.946 313.223c13.271 0 24.066-10.796 24.066-24.067 0-11.182-7.666-20.606-18.018-23.296l-3.919-15.674c-2.684-10.733-12.285-18.23-23.349-18.23h-356.314c-4.143 0-7.5 3.358-7.5 7.5s3.357 7.5 7.5 7.5h356.314c4.168 0 7.785 2.824 8.796 6.868l2.817 11.266h-444.654l2.817-11.266c1.011-4.044 4.628-6.868 8.796-6.868h35.115c4.143 0 7.5-3.358 7.5-7.5s-3.357-7.5-7.5-7.5h-35.116c-11.063 0-20.665 7.497-23.349 18.229l-3.918 15.675c-10.352 2.69-18.018 12.114-18.018 23.296 0 13.271 10.796 24.067 24.066 24.067h9.066v117.533h-9.066c-13.271 0-24.066 10.796-24.066 24.066 0 11.182 7.666 20.606 18.018 23.296l3.919 15.674c2.684 10.733 12.285 18.23 23.349 18.23h421.43c11.063 0 20.665-7.497 23.349-18.229l3.919-15.675c10.352-2.69 18.018-12.114 18.018-23.296 0-13.27-10.796-24.066-24.066-24.066h-9.066v-117.533zm-472.934-24.067c0-4.994 4.06-9.058 9.052-9.066.007 0 .014.001.02.001.008 0 .015-.002.023-.002h463.809c.008 0 .015.002.023.002.007 0 .013-.001.02-.001 4.992.008 9.052 4.072 9.052 9.066 0 5-4.067 9.067-9.066 9.067h-463.867c-4.999 0-9.066-4.068-9.066-9.067zm364.467 141.6v-17.35c0-.432.352-.783.783-.783h33.133c.433 0 .784.352.784.783v17.35zm-91.117 0v-17.35c0-5.99-3.355-11.211-8.283-13.884v-55.065c4.929-2.673 8.283-7.894 8.283-13.884v-17.35h76.117v17.35c0 5.99 3.354 11.211 8.283 13.884v55.065c-4.929 2.673-8.283 7.894-8.283 13.884v17.35zm-49.7 0v-17.35c0-.432.352-.783.783-.783h33.133c.432 0 .783.352.783.783v17.35zm-91.117 0v-17.35c0-5.99-3.355-11.211-8.283-13.884v-55.065c4.929-2.673 8.283-7.894 8.283-13.884v-17.35h76.117v17.35c0 5.99 3.354 11.211 8.283 13.884v55.065c-4.929 2.673-8.283 7.894-8.283 13.884v17.35zm-49.7 0v-17.35c0-.432.352-.783.784-.783h33.133c.432 0 .783.352.783.783v17.35zm34.7-117.533v17.35c0 .432-.352.784-.783.784h-33.133c-.433 0-.784-.352-.784-.784v-17.35zm-26.416 84.4v-51.267h18.133v51.267zm167.233-84.4v17.35c0 .432-.352.784-.783.784h-33.133c-.432 0-.783-.352-.783-.784v-17.35zm-26.416 84.4v-51.267h18.133v51.267zm158.949-51.267v51.267h-18.133v-51.267zm8.284-15.784c0 .432-.352.784-.784.784h-33.133c-.432 0-.783-.352-.783-.784v-17.35h34.7zm-366.034-17.349h34.7v17.35c0 5.99 3.355 11.211 8.284 13.884v55.065c-4.929 2.673-8.284 7.894-8.284 13.884v17.35h-34.7zm418.582 183.8h-421.43c-4.168 0-7.785-2.824-8.796-6.868l-2.816-11.265h444.654l-2.817 11.266c-1.01 4.042-4.627 6.867-8.795 6.867zm30.285-42.201c0 4.999-4.067 9.067-9.066 9.067h-463.868c-4.999 0-9.066-4.067-9.066-9.067 0-4.999 4.067-9.066 9.066-9.066h463.867c5 0 9.067 4.067 9.067 9.066zm-33.133-24.066h-34.7v-17.35c0-5.99-3.355-11.211-8.284-13.884v-55.065c4.929-2.673 8.284-7.894 8.284-13.884v-17.35h34.7z"/><path d="m16.647 46.871 201.881 65.596c4.003 6.928 10.343 12.07 17.996 14.557l21.246 6.903c3.288 1.069 6.721 1.597 10.152 1.597 5.32 0 10.64-1.27 15.422-3.763 7.759-4.047 13.408-10.803 15.908-19.024 5.091-16.741-4.31-34.761-20.957-40.169l-21.778-7.076c-7.652-2.486-15.805-2.054-23.115 1.199l-201.437-65.453c-12.499-4.06-25.843 2.186-30.388 14.218-2.353 6.228-2.065 12.955.811 18.943 2.835 5.903 8.032 10.449 14.259 12.472zm222.134 33.861c4.099-2.044 8.752-2.39 13.101-.977l21.778 7.076c8.928 2.901 13.971 12.563 11.24 21.54-1.318 4.336-4.335 7.919-8.493 10.088-4.318 2.251-9.42 2.688-14.003 1.201l-21.245-6.903c-4.352-1.414-7.911-4.429-10.025-8.491-1.404-2.697-3.783-4.705-6.699-5.652l-164.509-53.453 5.603-17.246 164.509 53.452c2.916.948 6.022.722 8.743-.635zm-223.172-59.975c1.331-3.521 4.9-5.732 8.701-5.732 1.003 0 2.022.154 3.021.478l23.934 7.777-5.603 17.246-24.379-7.921c-2.381-.773-4.288-2.442-5.372-4.7-1.085-2.255-1.191-4.793-.302-7.148z"/><path d="m255.507 143.775-21.778 7.076c-16.647 5.409-26.049 23.429-20.957 40.169 2.5 8.222 8.149 14.978 15.908 19.025 4.782 2.494 10.101 3.764 15.422 3.763 3.432 0 6.864-.528 10.152-1.597l21.246-6.903c7.654-2.486 13.995-7.629 17.996-14.557l201.881-65.596c6.227-2.023 11.424-6.568 14.259-12.472 2.876-5.988 3.164-12.715.811-18.942-4.545-12.032-17.895-18.281-30.388-14.218l-136.815 44.454c-3.939 1.28-6.096 5.511-4.815 9.451 1.28 3.94 5.517 6.096 9.45 4.815l98.615-32.042 5.603 17.246-164.51 53.452c-2.914.947-5.293 2.954-6.699 5.654-2.113 4.061-5.673 7.076-10.023 8.49l-21.246 6.903c-4.581 1.489-9.686 1.051-14.003-1.201-4.158-2.169-7.175-5.752-8.493-10.089-2.73-8.976 2.312-18.638 11.24-21.539l21.778-7.076c4.352-1.413 9.004-1.067 13.104.979 2.722 1.355 5.824 1.58 8.738.633l35.895-11.663c3.939-1.28 6.096-5.511 4.815-9.45-1.279-3.94-5.515-6.097-9.45-4.815l-34.623 11.249c-7.307-3.253-15.459-3.686-23.113-1.199zm205.253-42.21 23.934-7.776c4.784-1.553 10.04.803 11.722 5.254.889 2.354.782 4.893-.301 7.148-1.084 2.257-2.991 3.926-5.372 4.7l-24.379 7.921z"/></g></g></svg>