<svg id="Capa_1" enable-background="new 0 0 512 512" height="512" viewBox="0 0 512 512" width="512" xmlns="http://www.w3.org/2000/svg"><g><g><g><path d="m381.558 504.5h-232.59c-8.6 0-15.572-6.972-15.572-15.572v-402.288c0-8.6 6.972-15.572 15.572-15.572h294.176c8.6 0 15.572 6.972 15.572 15.572v340.701c0 3.883-1.542 7.606-4.288 10.352l-62.519 62.519c-2.745 2.746-6.469 4.288-10.351 4.288z" fill="#f6f1f1"/></g><g><path d="m238.508 87.612c0-5.628-.45-11.153-1.306-16.544h-88.234c-8.6 0-15.572 6.972-15.572 15.573v402.287c0 8.6 6.972 15.573 15.572 15.573h22.32c-8.6 0-15.572-6.972-15.572-15.573v-298.597c47.272-10.263 82.792-52.417 82.792-102.719z" fill="#e2dfe2"/></g><g><path d="m387.622 438.596v64.571c1.578-.719 3.038-1.705 4.288-2.955l62.519-62.519c1.25-1.25 2.236-2.709 2.955-4.288h-64.571c-2.867 0-5.191 2.324-5.191 5.191z" fill="#d3ced5"/></g><g><path d="m408.776 210.04h-225.44c-2.761 0-5-2.239-5-5v-83.72c0-2.761 2.239-5 5-5h225.44c2.761 0 5 2.239 5 5v83.72c0 2.761-2.239 5-5 5z" fill="#b3dafe"/></g><path d="m234.523 116.32h-51.187c-2.761 0-5 2.239-5 5v83.72c0 2.761 2.239 5 5 5h13.68c-2.761 0-5-2.239-5-5v-30.236c20.335-13.714 35.642-34.336 42.507-58.484z" fill="#8ac9fe"/><g><circle cx="133.396" cy="87.612" fill="#e58e82" r="80.112"/></g><g><path d="m73.924 87.612c0-40.745 30.426-74.361 69.792-79.428-3.381-.435-6.82-.684-10.32-.684-44.245 0-80.112 35.867-80.112 80.112s35.867 80.112 80.112 80.112c3.5 0 6.939-.249 10.32-.684-39.367-5.067-69.792-38.683-69.792-79.428z" fill="#e06c57"/></g><g><path d="m244.618 327.891h-61.282c-2.761 0-5-2.239-5-5v-61.282c0-2.761 2.239-5 5-5h61.282c2.761 0 5 2.239 5 5v61.282c0 2.761-2.238 5-5 5z" fill="#77d192"/></g><g><path d="m192.976 322.891v-61.282c0-2.761 2.239-5 5-5h-14.64c-2.761 0-5 2.239-5 5v61.282c0 2.761 2.239 5 5 5h14.64c-2.761 0-5-2.239-5-5z" fill="#5bc175"/></g><g><path d="m244.618 433.405h-61.282c-2.761 0-5-2.239-5-5v-61.282c0-2.761 2.239-5 5-5h61.282c2.761 0 5 2.239 5 5v61.282c0 2.762-2.238 5-5 5z" fill="#77d192"/></g><g><path d="m192.976 428.405v-61.282c0-2.761 2.239-5 5-5h-14.64c-2.761 0-5 2.239-5 5v61.282c0 2.761 2.239 5 5 5h14.64c-2.761 0-5-2.238-5-5z" fill="#5bc175"/></g></g><g><path d="m458.716 191.98c-4.142 0-7.5 3.357-7.5 7.5v226.425h-58.404c-6.998 0-12.691 5.693-12.691 12.69v58.405h-231.153c-4.451 0-8.072-3.621-8.072-8.072v-285.128c0-4.143-3.358-7.5-7.5-7.5s-7.5 3.357-7.5 7.5v285.128c0 12.722 10.35 23.072 23.072 23.072h232.59c5.914 0 11.474-2.303 15.655-6.484l62.52-62.52c4.181-4.183 6.484-9.742 6.484-15.655v-227.861c-.001-4.142-3.358-7.5-7.501-7.5zm-63.594 294.413v-45.488h45.488z"/><path d="m443.144 63.568h-188.208c-4.142 0-7.5 3.357-7.5 7.5s3.358 7.5 7.5 7.5h188.208c4.451 0 8.073 3.621 8.073 8.072v78.083c0 4.143 3.358 7.5 7.5 7.5s7.5-3.357 7.5-7.5v-78.082c-.001-12.722-10.351-23.073-23.073-23.073z"/><path d="m241.16 123.82h165.116v78.72h-220.44v-12.42c0-4.143-3.358-7.5-7.5-7.5s-7.5 3.357-7.5 7.5v14.92c0 6.893 5.607 12.5 12.5 12.5h225.44c6.893 0 12.5-5.607 12.5-12.5v-83.72c0-6.893-5.607-12.5-12.5-12.5h-167.616c-4.142 0-7.5 3.357-7.5 7.5s3.358 7.5 7.5 7.5z"/><path d="m221.008 87.612c0-48.309-39.303-87.612-87.612-87.612s-87.612 39.303-87.612 87.612 39.302 87.611 87.612 87.611 87.612-39.302 87.612-87.611zm-160.224 0c0-40.038 32.573-72.612 72.612-72.612s72.612 32.574 72.612 72.612-32.574 72.611-72.612 72.611-72.612-32.573-72.612-72.611z"/><path d="m138.266 126.799c3.875-1.462 5.831-5.789 4.369-9.665l-20.396-54.046c-.026-.068-.053-.137-.081-.205-1.354-3.291-4.527-5.416-8.085-5.416-.003 0-.007 0-.01 0-3.562.004-6.734 2.137-8.082 5.434-.023.056-.045.112-.067.169l-20.583 54.044c-1.474 3.87.469 8.203 4.339 9.678 3.871 1.476 8.204-.468 9.678-4.34l3.286-8.629h22.717l3.249 8.608c1.133 3.003 3.987 4.854 7.018 4.854.881-.001 1.776-.157 2.648-.486zm-29.917-27.977 5.698-14.96 5.646 14.96z"/><path d="m145.171 77.582h7.14v7.14c0 4.143 3.358 7.5 7.5 7.5s7.5-3.357 7.5-7.5v-7.14h7.14c4.142 0 7.5-3.357 7.5-7.5s-3.358-7.5-7.5-7.5h-7.14v-7.14c0-4.143-3.358-7.5-7.5-7.5s-7.5 3.357-7.5 7.5v7.14h-7.14c-4.142 0-7.5 3.357-7.5 7.5s3.358 7.5 7.5 7.5z"/><path d="m203.666 303.507c1.781 1.876 4.287 2.954 6.874 2.959h.015c2.583 0 5.086-1.07 6.873-2.94l12.23-12.812c2.86-2.996 2.75-7.744-.247-10.604-2.996-2.861-7.743-2.75-10.604.246l-8.241 8.635-1.406-1.48c-2.852-3.001-7.6-3.123-10.603-.271-3.003 2.853-3.125 7.6-.272 10.604z"/><path d="m257.118 261.609c0-6.893-5.607-12.5-12.5-12.5h-61.282c-6.893 0-12.5 5.607-12.5 12.5v61.281c0 6.893 5.607 12.5 12.5 12.5h61.282c6.893 0 12.5-5.607 12.5-12.5zm-15 58.782h-56.282v-56.281h56.282z"/><path d="m413.776 320.391h-127.44c-4.142 0-7.5 3.357-7.5 7.5s3.358 7.5 7.5 7.5h127.44c4.142 0 7.5-3.357 7.5-7.5s-3.358-7.5-7.5-7.5z"/><path d="m413.776 289.761h-127.44c-4.142 0-7.5 3.357-7.5 7.5s3.358 7.5 7.5 7.5h127.44c4.142 0 7.5-3.357 7.5-7.5s-3.358-7.5-7.5-7.5z"/><path d="m203.669 409.024c1.783 1.876 4.289 2.952 6.877 2.955h.009c2.584 0 5.089-1.071 6.872-2.94l12.23-12.812c2.86-2.996 2.75-7.743-.246-10.604-2.996-2.86-7.743-2.752-10.604.246l-8.242 8.634-1.406-1.479c-2.852-3.002-7.6-3.122-10.603-.271-3.003 2.853-3.125 7.6-.272 10.604z"/><path d="m244.618 354.623h-61.282c-6.893 0-12.5 5.607-12.5 12.5v61.282c0 6.893 5.607 12.5 12.5 12.5h61.282c6.893 0 12.5-5.607 12.5-12.5v-61.282c0-6.893-5.607-12.5-12.5-12.5zm-2.5 71.282h-56.282v-56.282h56.282z"/><path d="m286.336 425.905c-4.142 0-7.5 3.357-7.5 7.5s3.358 7.5 7.5 7.5h67.864c4.142 0 7.5-3.357 7.5-7.5s-3.358-7.5-7.5-7.5z"/><path d="m421.276 402.775c0-4.143-3.358-7.5-7.5-7.5h-127.44c-4.142 0-7.5 3.357-7.5 7.5s3.358 7.5 7.5 7.5h127.44c4.142 0 7.5-3.357 7.5-7.5z"/></g></g></svg>