<svg id="Capa_1" enable-background="new 0 0 512.008 512.008" height="512" viewBox="0 0 512.008 512.008" width="512" xmlns="http://www.w3.org/2000/svg"><g><g><path d="m440.21 134.353c-40.452-3.774-99.437-53.458-103.134-102.41-.205-2.718-2.499-4.801-5.224-4.801h-153.435c-2.73 0-5.025 2.09-5.225 4.812-3.611 48.944-61.101 98.616-101.396 102.398-2.711.254-4.792 2.5-4.792 5.223v107.559c0 85.514 47.248 164.03 122.805 204.078l53.941 28.59c7.689 4.076 16.899 4.075 24.587-.002l53.898-28.579c75.537-40.054 122.769-118.559 122.769-204.058v-107.587c0-2.723-2.082-4.97-4.794-5.223z" fill="#f9f8f9"/><g><g fill="#7dc3ee"><path d="m337.137 238.208c-4.582-37.319-33.966-65.464-69.679-69.817-6.353-.774-13.048.182-19.686.997-43.958 5.397-69.321 42.888-67.82 88.365 1.066 32.292 43.464 75.209 87.421 69.812 43.958-5.397 75.161-45.399 69.764-89.357z"/><path d="m146.735 262.021c-1.006-8.193-6.664-14.676-13.995-17.116-2.811-.936-5.867-.277-9.002.108-11.309 1.389-18.348 10.702-16.957 22.036 1.392 11.334 10.687 18.396 21.996 17.008 1.395-.171 2.74.52 4.023.092 9.127-3.042 15.155-12.192 13.935-22.128z"/><path d="m406.238 230.158c-.904-7.365-5.884-13.232-12.394-15.61-2.733-.998-5.736-.382-8.82-.003-10.433 1.281-16.849 9.796-15.565 20.251s9.782 16.894 20.215 15.613c1.462-.179 2.864.479 4.192-.003 8.147-2.962 13.476-11.257 12.372-20.248z"/><path d="m243.848 135.437c1.03-.126 2.129.609 3.076.29 6.629-2.23 10.899-8.852 10.011-16.08-.721-5.87-4.718-10.535-9.929-12.381-2.122-.752-4.446-.036-6.832.257-8.242 1.012-13.101 7.529-12.087 15.789s7.519 13.137 15.761 12.125z"/><path d="m276.823 403.996c1.598-.196 3.165.44 4.634-.054 10.279-3.457 17.036-13.772 15.66-24.98-1.129-9.197-7.447-16.488-15.651-19.287-3.222-1.099-6.734-.506-10.338-.064-12.78 1.569-20.866 12.225-19.293 25.034 1.572 12.809 12.208 20.92 24.988 19.351z"/><path d="m170.728 180.384c6.814-8.742 5.264-21.368-3.463-28.202-1.807-1.415-3.781-2.471-5.835-3.178-7.862-2.706-15.902.702-21.305 7.633-6.814 8.742-5.264 19.368 3.463 26.202 5.547 4.344 11.659 6.302 17.856 4.177 3.552-1.217 6.802-3.447 9.284-6.632z"/><path d="m368.378 335.159c5.441-6.98 4.203-17.061-2.765-22.518-1.506-1.179-3.16-2.037-4.877-2.601-6.227-2.044-12.326.889-16.591 6.36-5.441 6.98-4.203 15.061 2.765 20.518 4.355 3.41 8.955 5.192 13.843 3.606 2.933-.952 5.585-2.748 7.625-5.365z"/></g><path d="m197.951 257.754c-5.39-43.901 25.637-83.884 69.506-89.363-6.445-.81-12.945-.83-19.686-.003-43.958 5.397-75.217 45.408-69.82 89.365 5.397 43.958 45.463 75.209 89.421 69.812.056-.007-.056.007 0 0-35.58-4.472-64.851-32.594-69.421-69.811z" fill="#64acdc"/><path d="m118.782 267.049c-1.22-9.936 4.834-19.102 13.959-22.144-2.806-.932-5.873-1.276-9.002-.892-11.309 1.389-19.349 11.702-17.957 23.036s11.688 19.396 22.996 18.008c1.395-.171 2.74-.48 4.023-.908-7.337-2.436-13.012-8.901-14.019-17.1z" fill="#64acdc"/><path d="m381.458 234.797c-1.104-8.99 4.239-17.285 12.386-20.249-2.733-.998-5.735-1.382-8.82-1.003-10.433 1.281-17.849 10.796-16.565 21.251 1.284 10.456 10.782 17.894 21.215 16.613 1.463-.18 2.863-.52 4.192-1.003-6.512-2.378-11.504-8.245-12.408-15.609z" fill="#64acdc"/><path d="m237.088 123.313c-.878-7.149 3.411-13.746 9.919-16.046-2.121-.75-4.449-1.036-6.832-.743-8.242 1.012-14.101 8.529-13.087 16.789s8.518 14.136 16.76 13.124c1.109-.136 2.064-.352 3.076-.71-5.214-1.844-9.115-6.542-9.836-12.414z" fill="#64acdc"/><path d="m265.834 384.645c-1.374-11.187 5.384-21.494 15.632-24.97-3.222-1.099-6.734-1.506-10.338-1.064-12.78 1.569-21.866 13.225-20.293 26.034s13.208 21.92 25.989 20.351c1.618-.199 3.148-.55 4.634-1.054-8.205-2.799-14.494-10.1-15.624-19.297z" fill="#64acdc"/><path d="m155.589 183.839c-8.727-6.834-10.277-19.46-3.463-28.202 2.482-3.183 5.755-5.415 9.305-6.633-7.859-2.697-16.905-.293-22.305 6.633-6.814 8.742-5.264 21.368 3.463 28.202 5.549 4.345 12.659 5.303 18.856 3.177-2.06-.706-4.044-1.758-5.856-3.177z" fill="#64acdc"/><path d="m355.911 337.918c-6.968-5.456-8.206-15.538-2.765-22.518 2.023-2.595 4.688-4.401 7.591-5.36-6.226-2.043-13.326-.111-17.591 5.36-5.441 6.98-4.203 17.061 2.765 22.518 4.378 3.428 9.937 4.226 14.843 2.606-1.719-.564-3.337-1.426-4.843-2.606z" fill="#64acdc"/></g><path d="m452.898 112.627c-50.101-5.761-86.072-43.745-91.745-91.735-.899-7.606-7.24-13.392-14.9-13.392h-180.399c-7.597 0-14.098 5.635-14.974 13.181-5.417 46.647-39.45 85.351-90.124 91.761-.597.076-1.195 1.158-1.797 1.225-7.541.834-12.205 6.29-12.205 13.877l1 121.788c0 92.472 49.092 175.376 130.796 218.681l54.094 28.671c12.33 6.535 26.714 9.563 39.69 5.084 2.424-.837 4.799-1.866 7.103-3.087l54.052-28.66c81.686-43.311 132.763-128.206 132.763-220.663v-121.84c.001-7.645-5.76-14.018-13.354-14.891zm-376.746 33.535c0-2.591 1.981-4.728 4.56-4.971 38.344-3.599 93.051-50.867 96.488-97.441.191-2.591 2.375-4.579 4.972-4.579h146.009c2.596 0 4.776 1.987 4.972 4.576 1.246 16.47 9.071 33.025 20.365 47.707 1.368 1.778 1.38 4.249.03 6.041l-219.174 290.855c-1.94 2.575-5.787 2.673-7.841.188-32.017-38.747-50.381-88.023-50.381-140.023zm359.704 102.379c0 81.361-44.945 156.066-116.826 194.181l-51.289 27.196c-7.316 3.88-16.08 3.88-23.397.002l-51.331-27.206c-11.623-6.161-22.539-13.282-32.677-21.23-2.145-1.682-2.553-4.772-.912-6.95l219.513-291.305c1.625-2.156 4.66-2.616 6.871-1.068 15.254 10.681 31.539 17.734 45.502 19.032 2.575.24 4.546 2.383 4.546 4.969z" fill="#df646e"/><g><path d="m272.335 501.767-78.785-41.755c-81.704-43.305-132.796-128.21-132.796-220.681l.002-126.89c-.543.069-1.08.14-1.625.205-7.59.903-13.377 7.202-13.377 14.846v121.839c0 92.472 51.092 177.376 132.796 220.681l54.094 28.671c19.722 10.657 39.691 3.084 39.691 3.084z" fill="#dc4955"/></g></g><g><path d="m53.254 249.331v-121.787c0-3.82 2.807-7.012 6.529-7.423 52.773-5.835 92.376-45.449 98.546-98.575.434-3.731 3.668-6.546 7.524-6.546h39.499c4.142 0 7.5-3.357 7.5-7.5s-3.358-7.5-7.5-7.5h-39.499c-11.472 0-21.111 8.519-22.423 19.815-5.346 46.028-39.624 80.347-85.295 85.396-11.334 1.253-19.881 10.854-19.881 22.332v121.787c0 34.943 6.955 68.938 20.67 101.043 1.217 2.849 3.987 4.556 6.9 4.556.983 0 1.982-.194 2.943-.605 3.809-1.627 5.578-6.034 3.95-9.843-12.914-30.231-19.463-62.244-19.463-95.15z"/><path d="m453.755 105.176c-45.53-5.234-79.751-39.46-85.154-85.164-1.349-11.408-10.956-20.012-22.348-20.012h-105.901c-4.142 0-7.5 3.357-7.5 7.5s3.358 7.5 7.5 7.5h105.901c3.792 0 6.995 2.911 7.451 6.772 6.236 52.753 45.755 92.26 98.337 98.306 3.826.439 6.712 3.638 6.712 7.438v121.841c0 89.906-49.344 171.92-128.776 214.037l-54.052 28.66c-12.451 6.6-27.317 6.602-39.768.002l-54.094-28.671c-38.798-20.563-71.297-51.308-93.981-88.907-2.14-3.546-6.748-4.688-10.296-2.548-3.546 2.14-4.687 6.75-2.547 10.296 24.089 39.929 58.599 72.576 99.8 94.413l54.094 28.671c8.424 4.465 17.665 6.697 26.906 6.697 9.243 0 18.487-2.233 26.913-6.701l54.052-28.66c84.351-44.724 136.75-131.816 136.75-227.289v-121.84c-.001-11.426-8.598-21.031-19.999-22.341z"/><path d="m381.225 381.924c-2.602 3.223-2.099 7.944 1.124 10.547s7.945 2.099 10.547-1.125c32.54-40.304 50.46-91.02 50.46-142.805v-102.378c0-6.488-4.88-11.835-11.351-12.437-12.348-1.148-27.227-7.438-41.894-17.708-5.555-3.888-13.094-2.704-17.164 2.697l-219.512 291.306c-4.071 5.401-3.051 13.191 2.273 17.365 10.565 8.283 21.934 15.67 33.792 21.955l51.331 27.207c4.762 2.523 9.985 3.785 15.209 3.785 5.225 0 10.451-1.263 15.214-3.788l51.289-27.196c16.392-8.692 31.684-19.373 45.451-31.747 3.081-2.769 3.334-7.511.565-10.592-2.769-3.08-7.512-3.334-10.591-.564-12.858 11.556-27.141 21.532-42.452 29.651l-51.289 27.196c-5.126 2.717-11.246 2.718-16.372.001l-51.331-27.207c-10.355-5.488-20.311-11.876-29.628-19.008l64.372-85.425c8.9 2.661 18.856 4.371 29.477 3.952l2.136 17.398c-12.868 4.97-21.251 18.234-19.492 32.556 2.04 16.493 17.521 28.996 34.347 26.881 16.864-2.071 28.897-17.499 26.823-34.393-1.475-13.247-12.51-25.025-26.791-26.885l-2.136-17.392c17.758-3.714 33.721-12.733 46.064-26.027l12.005 9.401c-3.421 9.337-.65 20.229 7.584 26.678 4.418 3.072 10.217 5.749 17.344 4.823 6.235-.766 11.797-3.918 15.663-8.876 0 0 0 0 0-.001 7.968-10.223 6.149-25.042-4.056-33.034-7.154-5.519-18.149-6.971-27.133-1.28l-12.16-9.523c9.984-15.229 14.913-32.959 14.218-51.153l17.659-2.168c4.068 9.6 15.222 18.084 27.766 16.242 14.521-1.783 24.881-15.066 23.096-29.61-1.36-13.193-14.779-25.19-29.573-23.143-10.585 1.237-20.693 9.791-22.871 21.592l-17.9 2.198c-2.273-10.78-6.558-21.063-12.609-30.226l52.749-70c15.313 10.368 31.082 16.952 44.876 18.746v100.131c.001 48.368-16.737 95.737-47.129 133.383zm-91.553-2.048c1.066 8.684-5.108 16.613-13.763 17.676-8.662 1.068-16.564-5.138-17.631-13.82-1.066-8.684 5.108-16.613 13.764-17.676 7.045-1.048 16.609 4.453 17.63 13.82zm65.049-63.075c2.033-.101 2.729-.16 6.268 1.744 3.708 2.904 4.369 8.288 1.474 12.003-1.398 1.794-3.408 2.934-5.661 3.21-2.251.276-4.478-.343-6.268-1.744-3.708-2.904-4.369-8.289-1.475-12.003 1.399-1.794 3.41-2.934 5.662-3.21zm23.541-91.46c1.895-2.431 4.621-3.977 7.675-4.352 4.832-.699 11.966 2.935 12.856 10.082.778 6.335-3.724 12.119-10.035 12.894-5.092.581-11.899-2.917-12.856-10.082-.377-3.072.461-6.106 2.36-8.542zm-48.569 13.781c2.366 19.271-2.914 38.312-14.868 53.612s-29.151 25.029-48.422 27.396c-8.633 1.061-17.155.604-25.436-1.346l80.055-106.237c4.553 8.169 7.521 17.215 8.671 26.575z"/><path d="m340.632 43.18c-.489-6.453-5.958-11.509-12.451-11.509h-146.009c-6.506 0-11.976 5.063-12.452 11.527-3.084 41.803-53.976 87.173-89.709 90.526-6.476.607-11.359 5.955-11.359 12.438v102.353c0 52.717 18.502 104.142 52.099 144.801 2.387 2.888 5.877 4.527 9.615 4.527.096 0 .191-.001.287-.003 3.853-.086 7.393-1.9 9.71-4.977l100.94-133.952c2.493-3.308 1.832-8.011-1.476-10.504-3.309-2.492-8.011-1.831-10.503 1.477l-30.681 40.716c-7.189-9.903-11.733-21.429-13.247-33.76-4.885-39.782 23.507-76.122 63.29-81.007 11.432-1.403 22.903-.099 33.593 3.778l-31.827 42.236c-2.493 3.309-1.832 8.011 1.476 10.504 3.309 2.494 8.011 1.831 10.503-1.477l97.105-128.864c3.37-4.47 3.339-10.69-.074-15.129-11.264-14.643-17.775-29.753-18.83-43.701zm-97.698 85.813c-4.128.507-7.894-2.452-8.401-6.595-.355-3.265 2.06-8.419 7.477-8.487 3.751 0 7.012 2.818 7.482 6.65.508 4.143-2.434 7.925-6.558 8.432zm48.704 38.198c-11.793-4.99-24.488-7.312-37.296-6.833l-2.292-18.671c8.306-4.146 13.526-13.215 12.33-22.953-1.517-12.351-12.785-21.158-25.118-19.654-11.034 1.165-21.347 12.418-19.618 25.147 1.196 9.737 8.456 17.256 17.515 19.271l2.294 18.683c-18.189 3.821-34.061 13.181-46.038 26.057l-12.872-10.079c4.362-11.077 1.178-24.181-8.654-31.881-10.614-8.718-29.513-7.587-38.678 4.749-9.34 11.982-7.208 29.352 4.754 38.719 8.957 6.958 22.954 8.272 33.491.35l12.71 9.953c-9.664 14.769-14.947 32.495-14.252 51.136l-17.823 2.188c-4.219-10.333-16.603-18.468-29.267-16.804-15.396 1.891-26.38 15.975-24.487 31.395 1.586 14.373 15.664 26.596 31.354 24.538 12.977-1.594 22.819-11.85 24.458-24.268l17.594-2.16c2.843 13.578 8.816 26.161 17.539 36.948l-58.979 78.268c-30.108-37.579-46.651-84.598-46.651-132.774v-100.109c20.088-2.621 43.67-15.346 63.58-34.402 21.339-20.423 34.801-44.825 37.232-67.334h141.429c1.717 15.661 8.772 32.111 20.521 47.828zm-126.825 8.582c-3.457 4.361-11.367 6.936-17.601 2.161-5.464-4.278-6.438-12.213-2.171-17.687 2.895-3.282 7.014-5.435 11.918-4.51 4.044.762 7.658 3.279 9.367 7.022 1.892 4.146 1.473 9.183-1.513 13.014zm-36.949 101.839c-5.795.661-13.549-3.32-14.638-11.478-.886-7.211 4.24-13.796 11.426-14.678 5.982-.714 13.489 3.345 14.638 11.478.887 7.212-4.24 13.796-11.426 14.678z"/></g></g></svg>