<svg id="Capa_1" enable-background="new 0 0 511.945 511.945" height="512" viewBox="0 0 511.945 511.945" width="512" xmlns="http://www.w3.org/2000/svg"><g><g><path d="m174.191 239.429h163.563v33.133h-163.563z" fill="#f3ffff" transform="matrix(.707 -.707 .707 .707 -106.043 255.979)"/><path d="m180.143 253.796h163.563v16.3h-163.563z" fill="#dff9f9" transform="matrix(.707 -.707 .707 .707 -108.508 261.934)"/><path d="m149.739 315.371 24.111-24.111c3.235-3.235 8.479-3.235 11.714 0l35.143 35.143c3.235 3.235 3.235 8.48 0 11.714l-24.133 24.133z" fill="#f6df59"/><path d="m362.217 196.608-24.122 24.122c-3.235 3.235-8.48 3.235-11.714 0l-35.143-35.143c-3.235-3.235-3.235-8.48 0-11.714l24.125-24.125z" fill="#f6df59"/><path d="m350.715 185.111-24.122 24.122c-3.218 3.218-8.423 3.232-11.662.048l11.45 11.45c3.235 3.235 8.48 3.235 11.714 0l24.122-24.122z" fill="#edbf50"/><path d="m220.707 326.404-11.009-11.009c2.755 3.255 2.603 8.13-.466 11.199l-24.133 24.133 11.475 11.525 24.133-24.133c3.235-3.236 3.235-8.48 0-11.715z" fill="#edbf50"/><circle cx="106.872" cy="405.096" fill="#413e82" r="99.4"/><path d="m124.644 387.324-35.544 35.543c-3.124 3.124-8.189 3.124-11.314 0l-12.115-12.115c-3.124-3.124-3.124-8.19 0-11.314l35.544-35.544c3.124-3.124 8.19-3.124 11.314 0l12.115 12.115c3.124 3.125 3.124 8.19 0 11.315z" fill="#f3ffff"/><circle cx="405.072" cy="106.896" fill="#413e82" r="99.4"/><path d="m422.844 89.124-35.544 35.544c-3.124 3.124-8.19 3.124-11.314 0l-12.115-12.115c-3.124-3.124-3.124-8.19 0-11.314l35.544-35.544c3.124-3.124 8.19-3.124 11.314 0l12.115 12.115c3.124 3.124 3.124 8.189 0 11.314z" fill="#f3ffff"/><path d="m475.359 36.609c-22.339-22.339-52.666-31.819-81.787-28.446 21.482 2.488 42.307 11.967 58.786 28.446 38.818 38.818 38.818 101.755 0 140.573-16.479 16.479-37.305 25.958-58.786 28.446 29.121 3.372 59.447-6.107 81.786-28.446 38.819-38.818 38.819-101.755.001-140.573z" fill="#2f2c59"/><path d="m177.159 334.809c-22.339-22.339-52.665-31.818-81.786-28.446 21.482 2.488 42.308 11.967 58.786 28.446 38.818 38.818 38.818 101.755 0 140.573-16.479 16.479-37.305 25.958-58.786 28.446 29.121 3.373 59.447-6.107 81.786-28.446 38.818-38.818 38.818-101.755 0-140.573z" fill="#2f2c59"/><g fill="#dff9f9"><path d="m422.844 77.81-12.115-12.115c-3.124-3.124-8.19-3.124-11.314 0l-5.803 5.803 6.312 6.312c3.124 3.124 3.124 8.189 0 11.313l-29.741 29.741 5.803 5.803c3.124 3.124 8.19 3.124 11.314 0l35.544-35.544c3.125-3.124 3.125-8.189 0-11.313z"/><path d="m124.644 376.01-12.115-12.115c-3.124-3.124-8.189-3.124-11.314 0l-5.8 5.799 6.315 6.316c3.124 3.124 3.124 8.189 0 11.314l-29.744 29.744 5.799 5.8c3.124 3.124 8.19 3.124 11.314 0l35.544-35.544c3.125-3.125 3.125-8.19.001-11.314z"/></g></g><g><path d="m129.947 370.707-12.115-12.116c-6.043-6.043-15.877-6.043-21.92 0l-35.544 35.544c-6.043 6.044-6.043 15.877 0 21.921l12.115 12.115c3.021 3.022 6.991 4.532 10.96 4.532s7.938-1.511 10.96-4.532l35.544-35.544c6.044-6.044 6.044-15.877 0-21.92zm-10.606 11.313-35.544 35.544c-.036.036-.147.146-.354.146s-.317-.11-.354-.146l-12.115-12.115c-.036-.036-.146-.146-.146-.353 0-.208.11-.317.146-.353l35.544-35.544c.098-.098.226-.147.354-.147s.256.049.354.146l12.115 12.116c.036.036.146.146.146.353s-.11.317-.146.353z"/><path d="m136.712 411.506-23.429 23.429c-2.929 2.93-2.929 7.678 0 10.607 1.464 1.464 3.384 2.196 5.303 2.196s3.839-.733 5.303-2.196l23.429-23.429c2.929-2.93 2.929-7.678 0-10.608-2.928-2.927-7.677-2.927-10.606.001z"/><path d="m480.662 31.305c-27.413-27.411-67.627-37.839-104.952-27.218-3.984 1.135-6.294 5.283-5.16 9.268 1.134 3.983 5.28 6.296 9.267 5.16 32.092-9.138 66.669-.171 90.238 23.398 35.832 35.831 35.832 94.135 0 129.966-17.357 17.358-40.436 26.918-64.983 26.918s-47.625-9.56-64.983-26.918c-35.831-35.831-35.831-94.135 0-129.966 3.983-3.983 8.332-7.607 12.927-10.773 3.411-2.35 4.271-7.02 1.921-10.431-2.351-3.412-7.021-4.271-10.431-1.921-5.343 3.681-10.398 7.893-15.023 12.518-31.513 31.513-39.193 77.966-23.054 116.769l-20.495 20.495c-6.153 6.153-6.153 16.167.001 22.321l.554.554-62.682 62.683c-2.929 2.93-2.929 7.678 0 10.607 1.464 1.464 3.384 2.196 5.303 2.196s3.839-.732 5.303-2.196l62.683-62.683 12.821 12.821-95.066 95.067-12.821-12.822 11.171-11.17c2.929-2.93 2.929-7.678 0-10.606-2.929-2.93-7.678-2.929-10.607-.001l-11.171 11.171-.555-.555c-6.153-6.152-16.166-6.151-22.32 0l-20.448 20.449c-12.887-5.384-26.839-8.21-41.226-8.21-28.554 0-55.399 11.12-75.589 31.311-41.681 41.681-41.681 109.5 0 151.181 20.84 20.84 48.215 31.259 75.589 31.259 27.375 0 54.749-10.42 75.59-31.259 31.513-31.513 39.193-77.967 23.054-116.77l20.495-20.495c6.153-6.153 6.153-16.167-.001-22.321l-.554-.554 95.066-95.067.555.555c3.077 3.076 7.118 4.614 11.16 4.614s8.083-1.538 11.161-4.614l20.448-20.449c12.887 5.384 26.839 8.21 41.226 8.21 28.554 0 55.399-11.12 75.589-31.311 41.679-41.681 41.679-109.5-.001-151.181zm-308.806 438.773c-35.832 35.832-94.134 35.833-129.966 0-35.832-35.831-35.832-94.135 0-129.966 17.357-17.358 40.435-26.918 64.983-26.918s47.626 9.56 64.983 26.918c35.831 35.832 35.831 94.135 0 129.966zm43.548-137.263-17.019 17.018c-4.374-7.245-9.677-14.081-15.923-20.328-6.189-6.189-13.006-11.522-20.303-15.947l16.994-16.994c.306-.307.803-.307 1.108 0l35.143 35.142c.305.306.305.804 0 1.109zm117.388-117.388c-.306.307-.803.307-1.108 0l-35.143-35.143c-.306-.306-.306-.804 0-1.108l17.019-17.018c4.374 7.245 9.677 14.081 15.923 20.328 6.189 6.189 13.006 11.521 20.303 15.947z"/><path d="m416.032 60.391c-6.043-6.042-15.876-6.042-21.92 0l-35.543 35.544c-2.928 2.928-4.541 6.82-4.541 10.961 0 4.14 1.612 8.032 4.54 10.959l12.115 12.116c3.022 3.021 6.991 4.532 10.96 4.532s7.938-1.511 10.96-4.532l35.544-35.544c6.044-6.044 6.044-15.877 0-21.921zm1.509 23.429-35.544 35.544c-.195.195-.512.194-.707.001l-12.115-12.116c-.036-.036-.146-.146-.146-.353s.11-.317.146-.354l35.543-35.544c.098-.098.226-.146.354-.146s.256.049.354.146l12.115 12.115c.036.036.146.145.146.352 0 .209-.11.319-.146.355z"/><path d="m411.484 147.342c1.464 1.464 3.384 2.196 5.303 2.196s3.839-.732 5.303-2.196l23.429-23.429c2.929-2.93 2.929-7.678 0-10.607-2.929-2.928-7.678-2.928-10.607 0l-23.429 23.429c-2.929 2.929-2.929 7.678.001 10.607z"/></g></g></svg>