<svg id="Capa_1" enable-background="new 0 0 511.82 511.82" height="512" viewBox="0 0 511.82 511.82" width="512" xmlns="http://www.w3.org/2000/svg"><g><g><path d="m288.43 138.415 119.042-119.68c8.805-8.805 21.381-13.005 32.511-9.66.371.111 1.336.077 1.336.077 4.429 1.557 8.587 4.106 12.129 7.648l.33.33c12.639 12.639 12.639 33.132 0 45.771l-68.584 68.584-6.828 3.708-3.783 6.902-26.685 26.685-15.745 13.36z" fill="#ffe07d"/><path d="m190.359 326.32-34.79 34.79c-3.91 3.91-8.25 7.34-12.93 10.23-4.67 2.89-9.68 5.24-14.93 6.99-10.49 3.49-20.03 9.39-27.85 17.21l-13.64 13.64c-3.42 3.42-7.92 5.14-12.41 5.14-.437 0-.874-.016-1.31-.049 0 0-6.557-3.725-9.644-6.813-6.86-6.86-5.562-16.171 1.298-23.021l12.886-12.717c3.91-3.92 7.34-8.26 10.22-12.93 2.89-4.67 5.24-9.68 6.99-14.93 1.95-5.85 2.65-12.41 6.02-17.54l43.586-5.16z" fill="#c8effe"/><path d="m315.309 201.37-124.95 124.95h-90.09c2.65-4.06 6.807-6.04 10.267-9.5l161.106-160.468 23.404 19.66z" fill="#f9f8f9"/><path d="m124.159 326.32c-3.34 3.37-6.32 7.06-8.89 11-3.37 5.13-6.07 10.69-8.02 16.54-1.75 5.25-4.1 10.26-6.99 14.93-2.88 4.67-6.31 9.01-10.22 12.93l-13.64 13.64c-5.12 5.11-6.42 12.59-3.9 18.91-4.05-.3-8.01-2-11.1-5.09-6.86-6.86-6.86-17.97 0-24.82l13.64-13.64c3.91-3.92 7.34-8.26 10.22-12.93 2.89-4.67 5.24-9.68 6.99-14.93 1.95-5.85 4.65-11.41 8.02-16.54l10.778-1.713z" fill="#a9e5f7"/><path d="m282.209 168.27-157.75 157.74c-.1.1-.2.2-.3.31h-23.89c2.65-4.06 5.73-7.85 9.19-11.31l26.421-26.419 8.293-2.479 2.317-8.131 10.67-10.67 8.434-2.619 2.171-7.985 10.675-10.675 7.956-2.141 2.65-8.464 10.67-10.67 8.428-2.613 2.178-7.992 10.675-10.675 8.285-2.47 2.32-8.135 10.67-10.67 8.433-2.618 2.172-7.986 16.331-16.33 7.147 5.082z" fill="#e8e8e8"/><path d="m441.319 9.152c-11.38-4-24.539-1.452-33.639 7.648l-68.585 68.585-3.622 8.541-6.988 2.069-41.235 41.235 46.1 46.1 14.55-14.55-29.565-29.565c-1.953-1.953-1.953-5.118 0-7.071z" fill="#ffd064"/><path d="m266.682 131.78.152-.152c5.834-5.834 14.582-5.621 20.415.213l16.238 15.151 36.012 36.012c5.834 5.834 5.834 15.292 0 21.125l-.152.152c-5.834 5.834-15.292 5.834-21.125 0l-36.012-36.012-15.248-16.301c-5.834-5.833-6.114-14.354-.28-20.188z" fill="#e8e8e8"/><path d="m303.489 146.99-21.28 21.28-13-13-2.91-2.92c-5.84-5.83-5.84-15.29 0-21.12l.15-.15c5.83-5.84 15.29-5.84 21.12 0l2.92 2.91z" fill="#dcdbdd"/><path d="m90.932 483.145c0-10.185-10.419-25.431-16.64-33.627 0 0-1.512-1.524-2.148-2.326-1.198-1.511-3.494-1.511-4.692 0-5.513 6.951-18 24.645-18 36.16 0 11.695 8.611 19.851 20.306 19.851 2.967 0 5.488.096 8.051-1.005 1.436-.617 4.345-1.883 4.345-1.883 5.317-3.847 8.778-10.105 8.778-17.17z" fill="#c8effe"/><path d="m82.152 500.314c-3.48 2.53-7.773 4.005-12.393 4.005-11.7 0-21.18-9.48-21.18-21.18 0-11.51 13.32-29.49 18.83-36.44 1.2-1.51 3.5-1.51 4.69 0 .64.8 1.382 1.748 2.192 2.818-6.1 8.53-13.712 20.922-13.712 29.622 0 11.7 9.48 21.18 21.18 21.18.13.001.263.005.393-.005z" fill="#a9e5f7"/></g><g><path d="m459.081 11.826c-14.165-15.168-41.436-16.241-56.709-.33l-20.517 20.517c-2.929 2.93-2.929 7.678 0 10.607 2.93 2.928 7.678 2.928 10.607 0l20.517-20.517c8.721-9.079 25.835-10.022 35.494.329 9.694 9.695 9.694 25.471 0 35.165l-68.585 68.585-35.494-35.494 23.303-23.303c2.929-2.93 2.929-7.678 0-10.607-2.93-2.928-7.678-2.928-10.607 0l-66.803 66.803c-7.483-5.845-21.472-6.044-29.297 2.346-7.933 7.933-8.645 20.367-2.19 29.142-36.306 36.306-119.622 119.623-154.639 154.64-8.601 8.601-15.18 19.246-19.026 30.785-3.113 9.34-8.439 17.957-15.402 24.92l-13.639 13.639c-9.768 9.769-9.768 25.662 0 35.43 8.677 9.021 25.622 10.118 35.431.001l13.639-13.638c6.963-6.963 15.58-12.289 24.921-15.402 11.539-3.846 22.184-10.425 30.784-19.025l76.707-76.707c2.929-2.93 2.929-7.678 0-10.607-2.929-2.928-7.678-2.928-10.606 0l-39.718 39.718h-24.992c-4.142 0-7.5 3.357-7.5 7.5s3.358 7.5 7.5 7.5h9.992l-21.989 21.989c-6.963 6.963-15.58 12.289-24.921 15.402-11.539 3.846-22.184 10.425-30.784 19.025l-13.639 13.639c-2.995 2.846-9.044 4.579-14.217-.001-3.919-3.919-3.919-10.297 0-14.216l13.638-13.641c8.601-8.602 15.18-19.246 19.026-30.784 1.321-3.964 3.063-7.784 5.136-11.416h22.779c4.142 0 7.5-3.357 7.5-7.5s-3.358-7.5-7.5-7.5h-11.019l24.926-24.926 8.881 8.881c1.464 1.465 3.384 2.197 5.303 2.197s3.839-.732 5.303-2.196c2.929-2.93 2.929-7.678 0-10.606l-8.882-8.882 10.671-10.671 15.974 15.974c1.464 1.464 3.384 2.196 5.303 2.196s3.839-.732 5.303-2.196c2.929-2.93 2.929-7.678 0-10.607l-15.974-15.973 10.671-10.671 8.881 8.881c1.465 1.465 3.384 2.197 5.304 2.197 1.919 0 3.839-.732 5.303-2.196 2.929-2.929 2.929-7.678 0-10.606l-8.882-8.882 10.671-10.671 15.974 15.974c1.464 1.464 3.384 2.196 5.303 2.196s3.839-.732 5.303-2.196c2.929-2.93 2.929-7.678 0-10.607l-15.973-15.973 10.67-10.671 8.882 8.881c1.464 1.464 3.384 2.196 5.303 2.196s3.839-.732 5.303-2.197c2.929-2.929 2.929-7.678 0-10.606l-8.881-8.881 10.67-10.67 15.973 15.974c1.465 1.464 3.385 2.196 5.304 2.196s3.839-.732 5.304-2.196c2.929-2.93 2.929-7.678 0-10.607l-15.97-15.976 11.025-11.025 35.494 35.493-53.031 53.032c-2.929 2.93-2.929 7.678 0 10.607 1.464 1.464 3.384 2.196 5.303 2.196s3.839-.732 5.304-2.196l53.229-53.229c7.491 5.842 21.451 6.052 29.296-2.346 7.205-7.106 8.993-19.69 2.194-29.145l112.084-112.084c15.542-15.543 15.542-40.834 0-56.377zm-89.8 124.963-32.695 32.695-35.494-35.493 32.696-32.696zm-35.085 62.037c-2.222 2.25-6.853 3.58-10.67.152l-51.928-51.926c-2.898-2.898-2.9-7.613-.006-10.515 2.227-2.25 6.855-3.587 10.676-.156l51.928 51.927c2.116 2.214 3.373 6.772 0 10.518z"/><path d="m69.757 436.877s-.001 0-.002 0c-2.548 0-4.939 1.131-6.559 3.101-6.649 8.084-22.114 28.475-22.114 43.167 0 15.812 12.863 28.675 28.675 28.675s28.675-12.863 28.675-28.675c0-14.689-15.464-35.081-22.116-43.17-1.621-1.969-4.012-3.098-6.559-3.098zm0 59.943c-7.541 0-13.675-6.135-13.675-13.675 0-6.1 6.426-17.308 13.675-27.173 7.249 9.866 13.675 21.075 13.675 27.173 0 7.54-6.135 13.675-13.675 13.675z"/></g></g></svg>