<svg id="Capa_1" enable-background="new 0 0 512.486 512.486" height="512" viewBox="0 0 512.486 512.486" width="512" xmlns="http://www.w3.org/2000/svg"><g><g><path d="m391.95 77.165c-10.702 3.827-20.158 11.315-26.287 21.929l-19.693 34.186c-13.724 23.771-5.58 54.167 18.191 67.891 23.771 13.724 54.167 5.58 67.892-18.191l19.693-34.185c4.529-7.844 6.662-16.409 6.652-24.858z" fill="#c3f2f7"/><path d="m435.495 107.815v16.122c.009 8.45-2.124 17.014-6.653 24.858l-19.693 34.185c-7.129 12.349-18.761 20.467-31.623 23.507 20.824 4.954 43.276-4.02 54.527-23.507l19.693-34.185c4.529-7.844 6.662-16.409 6.652-24.858z" fill="#a2eef2"/><path d="m32.828 498.303c-23.771-13.724-31.916-44.12-18.192-67.891l53.073-92.467c13.724-23.771 44.12-31.916 67.891-18.191 23.771 13.724 31.916 44.12 18.191 67.891l-53.073 92.467c-13.723 23.771-44.119 31.915-67.89 18.191z" fill="#c3f2f7"/><path d="m327.985 322.736h-173.173c-35.346 0-64-28.654-64-64v-4.533c0-35.346 28.654-64 64-64h173.173c35.346 0 64 28.654 64 64v4.533c0 35.347-28.654 64-64 64z" fill="#dff8fa"/><path d="m123.914 196.264-1.603 1.603c-12.497 12.497-32.758 12.497-45.255 0l-60.175-60.175c-12.497-12.497-12.497-32.758 0-45.255l1.603-1.603c12.497-12.497 32.758-12.497 45.255 0l60.175 60.175c12.497 12.497 12.497 32.758 0 45.255z" fill="#c3f2f7"/><path d="m365.552 98.874-1.603 1.603c-12.497 12.497-32.758 12.497-45.255 0l-36.746-36.747c-12.497-12.497-12.497-32.758 0-45.255l1.603-1.603c12.497-12.497 32.758-12.497 45.255 0l36.746 36.746c12.496 12.498 12.496 32.759 0 45.256z" fill="#dff8fa"/><path d="m389.012 91.936v-2.266c0-17.673 14.327-32 32-32h51.967c17.673 0 32 14.327 32 32v2.267c0 17.673-14.327 32-32 32h-51.967c-17.674-.001-32-14.328-32-32.001z" fill="#dff8fa"/><path d="m446.986 498.303c23.771-13.724 31.916-44.12 18.192-67.891l-52.275-91.56c-13.724-23.771-44.12-31.916-67.891-18.191-23.771 13.724-31.916 44.12-18.191 67.891l52.275 91.559c13.723 23.772 44.119 31.916 67.89 18.192z" fill="#c3f2f7"/><path d="m123.914 151.009-60.175-60.175c-9.224-9.224-22.676-11.631-34.116-7.238 4.058 1.559 7.866 3.965 11.138 7.238l60.175 60.175c12.497 12.497 12.497 32.758 0 45.255l-1.603 1.603c-3.272 3.272-7.08 5.679-11.138 7.238 11.44 4.393 24.892 1.986 34.116-7.238l1.603-1.603c12.497-12.497 12.497-32.758 0-45.255z" fill="#a2eef2"/><path d="m135.601 319.753c-11.435-6.602-24.4-8.13-36.308-5.306 4.566 1.09 9.054 2.839 13.327 5.306 23.771 13.724 31.916 44.12 18.191 67.891l-53.073 92.467c-7.122 12.336-18.737 20.451-31.584 23.498 20.834 4.974 43.307-3.999 54.565-23.498l53.073-92.467c13.725-23.77 5.58-54.166-18.191-67.891z" fill="#a2eef2"/><path d="m465.178 430.411-52.275-91.56c-11.259-19.501-33.737-28.474-54.574-23.495 12.842 3.049 24.454 11.162 31.574 23.495l52.275 91.56c13.724 23.771 5.58 54.167-18.191 67.891-4.27 2.465-8.755 4.214-13.317 5.304 11.91 2.828 24.879 1.3 36.317-5.304 23.771-13.723 31.915-44.119 18.191-67.891z" fill="#a2eef2"/><g fill="#c3f2f7"><path d="m327.985 190.203h-23.507c35.346 0 64 28.654 64 64v4.533c0 35.346-28.654 64-64 64h23.507c35.346 0 64-28.654 64-64v-4.533c0-35.346-28.654-64-64-64z"/><path d="m472.978 57.67h-23c17.673 0 32 14.327 32 32v2.267c0 17.673-14.327 32-32 32h23c17.673 0 32-14.327 32-32v-2.267c0-17.673-14.327-32-32-32z"/><path d="m365.552 53.619-36.746-36.746c-9.225-9.225-22.68-11.632-34.12-7.237 4.057 1.559 7.863 3.965 11.135 7.237l36.746 36.746c12.497 12.497 12.497 32.758 0 45.255l-1.603 1.603c-3.272 3.271-7.077 5.678-11.134 7.236 11.441 4.395 24.895 1.989 34.12-7.236l1.603-1.603c12.495-12.497 12.495-32.758-.001-45.255z"/></g></g><g><path d="m472.978 50.17h-51.967c-15.224 0-28.454 8.663-35.046 21.312-1.246.54-2.465 1.13-3.665 1.755-.705-9.416-4.699-18.175-11.445-24.922l-36.746-36.745c-7.461-7.461-17.38-11.57-27.931-11.57s-20.47 4.109-27.929 11.568l-1.605 1.604c-15.399 15.4-15.399 40.46 0 55.861l36.746 36.746c7.701 7.7 17.816 11.551 27.932 11.551 1.803 0 3.606-.128 5.395-.373l-7.242 12.572c-7.64 13.232-9.669 28.646-5.715 43.404.976 3.64 2.289 7.131 3.909 10.442-3.17-.431-6.399-.674-9.685-.674h-131.057c-4.143 0-7.5 3.357-7.5 7.5s3.357 7.5 7.5 7.5h131.058c31.154 0 56.5 25.346 56.5 56.5v4.533c0 31.154-25.346 56.5-56.5 56.5h-173.173c-31.154 0-56.5-25.346-56.5-56.5v-4.533c0-31.154 25.346-56.5 56.5-56.5h12.115c4.143 0 7.5-3.357 7.5-7.5s-3.357-7.5-7.5-7.5h-12.115c-5.339 0-10.536.607-15.544 1.722 3.76-13.326.416-28.253-10.051-38.72l-60.176-60.173c-15.4-15.398-40.459-15.397-55.861 0l-1.603 1.603c-7.46 7.461-11.569 17.381-11.569 27.932s4.109 20.47 11.569 27.931l60.175 60.175c6.611 6.61 15.001 10.374 23.643 11.31-7.626 11.369-12.083 25.034-12.083 39.723v4.533c0 18.283 6.902 34.983 18.232 47.639-16.351 2.685-31.423 12.392-40.34 27.835l-34.751 60.546c-2.062 3.593-.821 8.176 2.771 10.238 3.592 2.064 8.176.821 10.238-2.771l34.741-60.529c11.635-20.15 37.495-27.08 57.646-15.446 9.762 5.636 16.745 14.736 19.662 25.624 2.918 10.888 1.42 22.261-4.226 32.039l-53.063 92.45c-5.636 9.762-14.735 16.745-25.624 19.662-10.887 2.919-22.26 1.421-32.021-4.216-9.762-5.636-16.745-14.736-19.662-25.624-2.918-10.888-1.42-22.261 4.226-32.039l3.388-5.902c2.061-3.593.821-8.176-2.771-10.238-3.59-2.061-8.175-.819-10.238 2.771l-3.378 5.886c-7.64 13.232-9.669 28.646-5.715 43.405 3.955 14.758 13.42 27.093 26.651 34.731 8.814 5.089 18.595 7.689 28.507 7.689 4.968 0 9.97-.653 14.898-1.974 14.758-3.955 27.093-13.42 34.741-26.668l53.063-92.45c7.64-13.231 9.669-28.647 5.715-43.404-1.726-6.443-4.505-12.424-8.187-17.754h165.675c-12.742 17.709-14.768 41.969-3.183 62.034l52.294 91.591c7.639 13.231 19.974 22.696 34.731 26.651 4.929 1.32 9.929 1.974 14.897 1.974 9.911 0 19.694-2.6 28.508-7.689 27.314-15.77 36.706-50.821 20.954-78.105l-52.293-91.591c-8.698-15.066-23.263-24.677-39.16-27.622 11.93-12.781 19.246-29.921 19.246-48.743v-4.533c0-14.339-4.259-27.695-11.555-38.9.328.006.656.016.984.016 19.785 0 39.053-10.261 49.639-28.594l19.69-34.18c3.761-6.514 6.189-13.7 7.167-21.108h7.569c21.78 0 39.5-17.72 39.5-39.5v-2.268c0-21.78-17.72-39.5-39.5-39.5zm-450.794 82.218c-4.627-4.627-7.176-10.779-7.176-17.323s2.549-12.697 7.177-17.324l1.602-1.602c4.777-4.776 11.05-7.164 17.325-7.164 6.272 0 12.548 2.389 17.323 7.164l60.175 60.175c4.628 4.627 7.177 10.779 7.177 17.323 0 6.545-2.549 12.697-7.177 17.324l-1.603 1.603c-4.627 4.628-10.779 7.177-17.324 7.177-6.544 0-12.696-2.549-17.323-7.177zm384.206 210.182 52.293 91.591c11.634 20.152 4.705 46.013-15.446 57.646-9.762 5.637-21.135 7.135-32.022 4.216-10.888-2.917-19.988-9.9-25.605-19.631l-52.294-91.591c-5.636-9.762-7.134-21.135-4.216-32.022 2.917-10.888 9.9-19.987 19.662-25.624 6.631-3.828 13.879-5.646 21.034-5.646 14.592.001 28.799 7.562 36.594 21.061zm-82.393-247.397-36.746-36.745c-9.552-9.553-9.552-25.097-.002-34.647l1.605-1.604c4.628-4.628 10.78-7.177 17.324-7.177s12.696 2.549 17.323 7.177l36.747 36.746c4.627 4.627 7.176 10.779 7.176 17.323s-2.549 12.697-7.177 17.324l-1.603 1.603c-4.627 4.628-10.779 7.177-17.323 7.177s-12.696-2.549-17.324-7.177zm121.25 49.878-19.689 34.18c-11.635 20.15-37.497 27.078-57.647 15.446-9.762-5.637-16.745-14.736-19.662-25.625-2.918-10.888-1.42-22.26 4.22-32.027l19.689-34.18c2.461-4.263 5.639-8.029 9.353-11.158v.249c0 21.78 17.72 39.5 39.5 39.5h29.203c-.86 4.769-2.523 9.384-4.967 13.615zm52.231-53.114c0 13.51-10.99 24.5-24.5 24.5h-51.967c-13.51 0-24.5-10.99-24.5-24.5v-2.267c0-13.51 10.99-24.5 24.5-24.5h51.967c13.51 0 24.5 10.99 24.5 24.5z"/><path d="m133.011 223.337c0 4.143 3.357 7.5 7.5 7.5h49.7c4.143 0 7.5-3.357 7.5-7.5s-3.357-7.5-7.5-7.5h-49.7c-4.142 0-7.5 3.357-7.5 7.5z"/></g></g></svg>