<svg id="Capa_1" enable-background="new 0 0 512 512" height="512" viewBox="0 0 512 512" width="512" xmlns="http://www.w3.org/2000/svg"><g><g><path d="m426.5 502.5h-341c-8.284 0-15-6.716-15-15v-463c0-8.284 4.716-17 13-17h244.472l7.58 1.553c3.952 0 7.745 1.56 10.554 4.341l90.703 89.277c2.845 2.817 4.446 6.655 4.446 10.659l2.245 9.67v366.5c0 8.284-8.716 13-17 13z" fill="#f9f8f9"/><path d="m443.5 113.757c0-1.996-.398-3.95-1.149-5.757-.756-1.819-2.902-1.8-4.33-3.213l-91.064-90.894c-1.156-1.145-2.553-4.135-3.985-4.842-2.047-1.011-4.317-1.552-6.642-1.552h-8.358v90.501c0 13.807 11.193 25 25 25h90.528z" fill="#e8e8e8"/><path d="m83.5 483.5v-476c-8.284 0-15 6.716-15 15v467c0 8.284 6.716 15 15 15h345c8.284 0 15-6.716 15-15h-354c-3.314 0-6-2.686-6-6z" fill="#e8e8e8"/><path d="m442.351 108h-84.379c-8.284 0-15-6.716-15-15v-83.948c.604.283 1.308.668 2.049 1.193.77.545 1.386 1.104 1.863 1.596 30.723 30.419 61.446 60.838 92.17 91.257.544.55 1.146 1.24 1.734 2.083.713 1.025 1.213 2.001 1.563 2.819z" fill="#f9f8f9"/><path d="m141 83.5h-33c-2.761 0-5-2.239-5-5v-32c0-2.761 2.239-5 5-5l9-1h25c2.761 0 5 2.239 5 5v24l-1 9c0 2.761-2.239 5-5 5z" fill="#7dc3ee"/><g><g fill="#c8effe"><path d="m291.242 156.5h-176.776c-2.733 0-4.965-2.172-5.024-4.891l-.44-18c-.062-2.804 2.206-5.109 5.024-5.109l9.193-1h169.494c2.822 0 5.09 2.311 5.024 5.117l-.233 9.883-1.238 9.117c-.064 2.715-2.295 4.883-5.024 4.883z"/><path d="m192.853 246.5h-18.154c-2.761 0-5-2.239-5-5v-18c0-2.761 2.239-5 5-5l9-1h10.154c2.761 0 5 2.239 5 5v10l-1 9c0 2.761-2.239 5-5 5z"/><path d="m253.16 246.5h-18.154c-2.761 0-5-2.239-5-5v-18c0-2.761 2.239-5 5-5l9-1h10.154c2.761 0 5 2.239 5 5v10l-1 9c0 2.761-2.239 5-5 5z"/><path d="m192.853 336.5h-18.154c-2.761 0-5-2.239-5-5v-18c0-2.761 2.239-5 5-5l9-1h10.154c2.761 0 5 2.239 5 5v10l-1 9c0 2.761-2.239 5-5 5z"/><path d="m253.16 336.5h-18.154c-2.761 0-5-2.239-5-5v-18c0-2.761 2.239-5 5-5l9-1h10.154c2.761 0 5 2.239 5 5v10l-1 9c0 2.761-2.239 5-5 5z"/><path d="m192.853 426.5h-18.154c-2.761 0-5-2.239-5-5v-18c0-2.761 2.239-5 5-5l9-1h10.154c2.761 0 5 2.239 5 5v10l-1 9c0 2.761-2.239 5-5 5z"/><path d="m132.545 246.5h-18.154c-2.761 0-5-2.239-5-5v-18c0-2.761 2.239-5 5-5l9-1h10.154c2.761 0 5 2.239 5 5v10l-1 9c0 2.761-2.238 5-5 5z"/><path d="m132.545 336.5h-18.154c-2.761 0-5-2.239-5-5v-18c0-2.761 2.239-5 5-5l9-1h10.154c2.761 0 5 2.239 5 5v10l-1 9c0 2.761-2.238 5-5 5z"/><path d="m132.545 426.5h-18.154c-2.761 0-5-2.239-5-5v-18c0-2.761 2.239-5 5-5l9-1h10.154c2.761 0 5 2.239 5 5v10l-1 9c0 2.761-2.238 5-5 5z"/><path d="m253.16 426.5h-18.154c-2.761 0-5-2.239-5-5v-18c0-2.761 2.239-5 5-5l9-1h10.154c2.761 0 5 2.239 5 5v10l-1 9c0 2.761-2.239 5-5 5z"/></g><path d="m120 69.5c-1.657 0-3-1.343-3-3v-26h-10c-2.761 0-5 2.239-5 5v34c0 2.761 2.239 5 5 5h35c2.761 0 5-2.239 5-5v-10z" fill="#64acdc"/><path d="m128.466 142.5c-2.733 0-4.965-2.172-5.024-4.891l-.222-10.109h-10.193c-2.819 0-5.086 2.306-5.024 5.109l.44 20c.06 2.718 2.292 4.891 5.024 4.891h178.776c2.73 0 4.96-2.168 5.024-4.883l.238-10.117z" fill="#a9e5f7"/><path d="m186.699 232.5c-1.657 0-3-1.343-3-3v-12h-10c-2.761 0-5 2.239-5 5v20c0 2.761 2.239 5 5 5h20.154c2.761 0 5-2.239 5-5v-10z" fill="#a9e5f7"/><path d="m247.006 232.5c-1.657 0-3-1.343-3-3v-12h-10c-2.761 0-5 2.239-5 5v20c0 2.761 2.239 5 5 5h20.154c2.761 0 5-2.239 5-5v-10z" fill="#a9e5f7"/><path d="m186.699 322.5c-1.657 0-3-1.343-3-3v-12h-10c-2.761 0-5 2.239-5 5v20c0 2.761 2.239 5 5 5h20.154c2.761 0 5-2.239 5-5v-10z" fill="#a9e5f7"/><path d="m247.006 322.5c-1.657 0-3-1.343-3-3v-12h-10c-2.761 0-5 2.239-5 5v20c0 2.761 2.239 5 5 5h20.154c2.761 0 5-2.239 5-5v-10z" fill="#a9e5f7"/><path d="m186.699 412.5c-1.657 0-3-1.343-3-3v-12h-10c-2.761 0-5 2.239-5 5v20c0 2.761 2.239 5 5 5h20.154c2.761 0 5-2.239 5-5v-10z" fill="#a9e5f7"/><path d="m126.391 232.5c-1.657 0-3-1.343-3-3v-12h-10c-2.761 0-5 2.239-5 5v20c0 2.761 2.239 5 5 5h20.154c2.761 0 5-2.239 5-5v-10z" fill="#a9e5f7"/><path d="m126.391 322.5c-1.657 0-3-1.343-3-3v-12h-10c-2.761 0-5 2.239-5 5v20c0 2.761 2.239 5 5 5h20.154c2.761 0 5-2.239 5-5v-10z" fill="#a9e5f7"/><path d="m126.391 412.5c-1.657 0-3-1.343-3-3v-12h-10c-2.761 0-5 2.239-5 5v20c0 2.761 2.239 5 5 5h20.154c2.761 0 5-2.239 5-5v-10z" fill="#a9e5f7"/><path d="m247.006 412.5c-1.657 0-3-1.343-3-3v-12h-10c-2.761 0-5 2.239-5 5v20c0 2.761 2.239 5 5 5h20.154c2.761 0 5-2.239 5-5v-10z" fill="#a9e5f7"/><g fill="#fff"><path d=""/><path d=""/><path d=""/></g></g><g><path d="m365 378.5h-27.982l-.018-18h27.982z" fill="#e8e8e8"/><path d="m364 291.747h-27.991l-.007-21.992c-.001-3.317 2.689-6.005 6.006-6.002l4.995-.994 11.996.013c3.311.003 5.993 2.688 5.994 5.998l.003 11.976z" fill="#ffe07d"/><path d="m347.008 279.747-.005-16.988-5.995-.006c-3.317-.004-6.007 2.685-6.006 6.002l.007 23.992 15.491 3 14.501-3-.003-12h-16.988c-.554 0-1.002-.448-1.002-1z" fill="#ffd064"/><path d="m370.5 354.5h-40.952l-.043-52.748c-.003-3.868 1.132-9.005 5-9.005h5.008 25.987c3.866 0 7 3.134 7 7v47.253z" fill="#c8effe"/></g></g><g><path d="m68.5 330.994c4.142 0 7.5-3.358 7.5-7.5v-300.994c0-4.136 3.364-7.5 7.5-7.5h60.479c4.142 0 7.5-3.358 7.5-7.5s-3.358-7.5-7.5-7.5h-60.479c-12.407 0-22.5 10.093-22.5 22.5v300.994c0 4.142 3.358 7.5 7.5 7.5z"/><path d="m443.5 250.928c-4.142 0-7.5 3.358-7.5 7.5v231.072c0 4.136-3.364 7.5-7.5 7.5h-345c-4.136 0-7.5-3.364-7.5-7.5v-131.006c0-4.142-3.358-7.5-7.5-7.5s-7.5 3.358-7.5 7.5v131.006c0 12.407 10.093 22.5 22.5 22.5h345c12.407 0 22.5-10.093 22.5-22.5v-231.072c0-4.142-3.358-7.5-7.5-7.5z"/><path d="m444.331 97.768-92.17-91.257c-4.241-4.199-9.863-6.511-15.83-6.511h-157.352c-4.142 0-7.5 3.358-7.5 7.5s3.358 7.5 7.5 7.5h156.494v78c0 12.407 10.093 22.5 22.5 22.5h78.027v107.928c0 4.142 3.358 7.5 7.5 7.5s7.5-3.358 7.5-7.5v-109.671c0-5.964-2.431-11.792-6.669-15.989zm-86.359 2.732c-4.136 0-7.5-3.364-7.5-7.5v-67.053l75.298 74.553z"/><path d="m171 55h83.5c4.142 0 7.5-3.358 7.5-7.5s-3.358-7.5-7.5-7.5h-83.5c-4.142 0-7.5 3.358-7.5 7.5s3.358 7.5 7.5 7.5z"/><path d="m171 85h127.5c4.142 0 7.5-3.358 7.5-7.5s-3.358-7.5-7.5-7.5h-127.5c-4.142 0-7.5 3.358-7.5 7.5s3.358 7.5 7.5 7.5z"/><path d="m115 85h20c6.893 0 12.5-5.607 12.5-12.5v-20c0-6.893-5.607-12.5-12.5-12.5h-20c-6.893 0-12.5 5.607-12.5 12.5v20c0 6.893 5.607 12.5 12.5 12.5zm2.5-30h15v15h-15z"/><path d="m100.943 152.774c.147 6.741 5.765 12.226 12.522 12.226h178.776c6.746 0 12.364-5.476 12.522-12.207l.471-20c.08-3.389-1.182-6.592-3.553-9.019-2.377-2.434-5.563-3.775-8.969-3.775h-179.686c-3.403 0-6.586 1.338-8.964 3.769-2.37 2.423-3.634 5.622-3.559 9.006zm189.236-17.774-.353 15h-173.94l-.33-15z"/><path d="m410.393 187.5c0-4.142-3.358-7.5-7.5-7.5h-63.829c-4.142 0-7.5 3.358-7.5 7.5s3.358 7.5 7.5 7.5h63.829c4.142 0 7.5-3.358 7.5-7.5z"/><path d="m304.064 180h-165.552c-4.142 0-7.5 3.358-7.5 7.5s3.358 7.5 7.5 7.5h165.552c4.142 0 7.5-3.358 7.5-7.5s-3.358-7.5-7.5-7.5z"/><path d="m108.392 465h172.881c4.142 0 7.5-3.358 7.5-7.5s-3.358-7.5-7.5-7.5h-172.881c-4.142 0-7.5 3.358-7.5 7.5s3.358 7.5 7.5 7.5z"/><path d="m131.012 277.5c0 4.142 3.358 7.5 7.5 7.5h120.145c4.142 0 7.5-3.358 7.5-7.5s-3.358-7.5-7.5-7.5h-120.145c-4.142 0-7.5 3.358-7.5 7.5z"/><path d="m259.16 360h-120.648c-4.142 0-7.5 3.358-7.5 7.5s3.358 7.5 7.5 7.5h120.648c4.142 0 7.5-3.358 7.5-7.5s-3.358-7.5-7.5-7.5z"/><path d="m402.893 150h-75.384c-4.142 0-7.5 3.358-7.5 7.5s3.358 7.5 7.5 7.5h75.384c4.142 0 7.5-3.358 7.5-7.5s-3.358-7.5-7.5-7.5z"/><path d="m193.853 255c6.893 0 12.5-5.607 12.5-12.5v-20c0-6.893-5.607-12.5-12.5-12.5h-20.154c-6.893 0-12.5 5.607-12.5 12.5v20c0 6.893 5.607 12.5 12.5 12.5zm-17.654-30h15.154v15h-15.154z"/><path d="m254.16 255c6.893 0 12.5-5.607 12.5-12.5v-20c0-6.893-5.607-12.5-12.5-12.5h-20.154c-6.893 0-12.5 5.607-12.5 12.5v20c0 6.893 5.607 12.5 12.5 12.5zm-17.654-30h15.154v15h-15.154z"/><path d="m193.853 345c6.893 0 12.5-5.607 12.5-12.5v-20c0-6.893-5.607-12.5-12.5-12.5h-20.154c-6.893 0-12.5 5.607-12.5 12.5v20c0 6.893 5.607 12.5 12.5 12.5zm-17.654-30h15.154v15h-15.154z"/><path d="m266.66 312.5c0-6.893-5.607-12.5-12.5-12.5h-20.154c-6.893 0-12.5 5.607-12.5 12.5v20c0 6.893 5.607 12.5 12.5 12.5h20.154c6.893 0 12.5-5.607 12.5-12.5zm-15 17.5h-15.154v-15h15.154z"/><path d="m173.699 390c-6.893 0-12.5 5.607-12.5 12.5v20c0 6.893 5.607 12.5 12.5 12.5h20.154c6.893 0 12.5-5.607 12.5-12.5v-20c0-6.893-5.607-12.5-12.5-12.5zm17.654 30h-15.154v-15h15.154z"/><path d="m133.545 210h-20.153c-6.893 0-12.5 5.607-12.5 12.5v20c0 6.893 5.607 12.5 12.5 12.5h20.153c6.893 0 12.5-5.607 12.5-12.5v-20c0-6.893-5.608-12.5-12.5-12.5zm-2.5 30h-15.153v-15h15.153z"/><path d="m113.392 345h20.153c6.893 0 12.5-5.607 12.5-12.5v-20c0-6.893-5.607-12.5-12.5-12.5h-20.153c-6.893 0-12.5 5.607-12.5 12.5v20c0 6.893 5.607 12.5 12.5 12.5zm2.5-30h15.153v15h-15.153z"/><path d="m113.392 390c-6.893 0-12.5 5.607-12.5 12.5v20c0 6.893 5.607 12.5 12.5 12.5h20.153c6.893 0 12.5-5.607 12.5-12.5v-20c0-6.893-5.607-12.5-12.5-12.5zm17.653 30h-15.153v-15h15.153z"/><path d="m254.16 390h-20.154c-6.893 0-12.5 5.607-12.5 12.5v20c0 6.893 5.607 12.5 12.5 12.5h20.154c6.893 0 12.5-5.607 12.5-12.5v-20c0-6.893-5.607-12.5-12.5-12.5zm-2.5 30h-15.154v-15h15.154z"/><path d="m340.734 458.086c6.717 1.538 10.337-5.059 11.7-7.543.538-.981 1.09-2.071 1.649-3.225.9 2.573 2.191 5.094 4.037 7.391 5.5 6.844 14.442 10.242 27.11 10.241 5.914 0 12.641-.741 20.206-2.217 4.065-.793 6.718-4.732 5.925-8.798s-4.734-6.711-8.798-5.925c-23.002 4.49-30.393.236-32.751-2.698-2.917-3.63-2.805-10.171-2.722-14.948.083-4.863.21-12.213-6.957-13.733-6.752-1.429-10.445 5.263-11.837 7.783-.381.688-.766 1.426-1.154 2.198-1.048-3.22-2.612-6.462-4.934-9.497-1.704-2.229-10.926-13.292-25.061-12.11-1.676.14-16.527 1.767-21.778 15.522-3.507 9.184-.857 19.881 6.595 26.621 3.898 3.525 9.065 5.736 14.55 6.224 4.12.363 7.768-2.68 8.135-6.806s-2.681-7.768-6.806-8.135c-1.307-.116-3.801-.583-5.818-2.407-2.333-2.11-4.156-6.185-2.643-10.145 1.986-5.203 8.747-5.899 9.014-5.925 6.489-.545 11.36 5.574 11.896 6.273 4.244 5.55 3.998 13.082 3.819 18.582-.142 4.364-.381 11.672 6.623 13.277z"/><path d="m310 354.5c0 4.142 3.358 7.5 7.5 7.5h10.005l.009 15h-.014c-4.142 0-7.5 3.358-7.5 7.5s3.358 7.5 7.5 7.5h45c4.142 0 7.5-3.358 7.5-7.5s-3.358-7.5-7.5-7.5h-.005l-.009-15h10.014c4.142 0 7.5-3.358 7.5-7.5s-3.358-7.5-7.5-7.5h-2.5v-47.253c0-5.458-3.034-10.217-7.502-12.691l-.005-18.288c-.002-7.433-6.051-13.487-13.486-13.496l-1.507-.002v-37.77c0-4.142-3.358-7.5-7.5-7.5s-7.5 3.358-7.5 7.5v37.755l-1.483-.002c-.005 0-.011 0-.017 0-3.603 0-6.99 1.402-9.54 3.95-2.554 2.551-3.959 5.944-3.958 9.554l.005 18.292c-1.18.652-2.279 1.468-3.258 2.448-2.74 2.741-4.247 6.385-4.244 10.261l.037 47.242h-2.542c-4.142 0-7.5 3.358-7.5 7.5zm32.514 22.5-.009-15h14.981l.009 15zm14.98-106.729.004 14.977h-14.992l-.004-14.992zm7.506 29.976v46.753h-29.958l-.037-46.753z"/><circle cx="108.39" cy="187.5" r="7.5"/><circle cx="108.39" cy="277.5" r="7.5"/><circle cx="108.39" cy="367.5" r="7.5"/></g></g></svg>