<svg id="Capa_1" enable-background="new 0 0 512 512" height="512" viewBox="0 0 512 512" width="512" xmlns="http://www.w3.org/2000/svg"><g><g><path d="m146.093 384.663v-12.697c-53.575-35.614-88.893-96.511-88.893-165.666 0-109.794 89.006-198.8 198.8-198.8s198.8 89.006 198.8 198.8c0 69.155-35.318 130.052-88.893 165.667v12.697h-219.814z" fill="#dff8fa"/><path d="m346.682 106.9h-3.707c-2.287 0-4.142-1.854-4.142-4.142v-3.707c0-8.504-6.23-15.965-14.683-16.897-9.993-1.103-18.451 6.692-18.451 16.463v4.142c0 2.287-1.854 4.142-4.142 4.142h-3.707c-8.504 0-15.965 6.23-16.898 14.683-1.103 9.993 6.692 18.451 16.463 18.451h4.142c2.287 0 4.142 1.854 4.142 4.142v3.707c0 8.504 6.23 15.965 14.683 16.898 9.993 1.102 18.451-6.692 18.451-16.463v-4.142c0-2.287 1.854-4.142 4.142-4.142h4.142c9.77 0 17.565-8.457 16.463-18.451-.933-8.454-8.394-14.684-16.898-14.684z" fill="#f3ffff"/><path d="m214.148 272.567h-3.707c-2.287 0-4.142-1.854-4.142-4.142v-3.707c0-8.504-6.23-15.965-14.683-16.898-9.993-1.102-18.451 6.692-18.451 16.462v4.142c0 2.287-1.854 4.142-4.142 4.142h-3.707c-8.504 0-15.965 6.23-16.898 14.683-1.102 9.993 6.692 18.451 16.462 18.451h4.142c2.287 0 4.142 1.854 4.142 4.142v3.707c0 8.504 6.23 15.965 14.683 16.897 9.993 1.103 18.451-6.692 18.451-16.462v-4.142c0-2.287 1.854-4.142 4.142-4.142h4.142c9.77 0 17.565-8.458 16.463-18.451-.932-8.452-8.393-14.682-16.897-14.682z" fill="#f3ffff"/><path d="m256 7.5c-3.861 0-7.693.122-11.5.339 104.441 5.959 187.3 92.528 187.3 198.461 0 69.155-35.318 130.052-88.893 165.667v12.697h23v-12.697c53.575-35.615 88.893-96.512 88.893-165.667 0-109.794-89.006-198.8-198.8-198.8z" fill="#c3f2f7"/><path d="m148.317 395.951h215.367v51.432h-215.367z" fill="#413e82"/><path d="m340.683 395.951h23v51.432h-23z" fill="#2f2c59"/><path d="m140.033 371.967c-9.15 0-16.567 7.417-16.567 16.567s7.417 16.567 16.567 16.567h231.933c9.15 0 16.567-7.417 16.567-16.567s-7.417-16.567-16.567-16.567z" fill="#f6df59"/><path d="m371.967 371.967h-23c9.15 0 16.567 7.417 16.567 16.567s-7.417 16.567-16.567 16.567h23c9.15 0 16.567-7.417 16.567-16.567-.001-9.15-7.418-16.567-16.567-16.567z" fill="#edbf50"/><path d="m405.1 471.367-11.988-23.975c-2.806-5.613-8.543-9.158-14.818-9.158h-244.589c-6.275 0-12.011 3.545-14.818 9.158l-11.987 23.975v16.567h298.2z" fill="#f6df59"/><path d="m393.112 447.391c-2.806-5.613-8.543-9.158-14.818-9.158h-23c6.275 0 12.011 3.545 14.818 9.158l11.988 23.975v16.567h23v-16.567z" fill="#edbf50"/><path d="m413.667 504.5h-315.334c-4.418 0-8-3.582-8-8v-17.133c0-4.418 3.582-8 8-8h315.333c4.418 0 8 3.582 8 8v17.133c.001 4.418-3.581 8-7.999 8z" fill="#e59f4f"/><path d="m413.667 471.367h-23c4.418 0 8 3.582 8 8v17.133c0 4.418-3.582 8-8 8h23c4.418 0 8-3.582 8-8v-17.133c0-4.419-3.582-8-8-8z" fill="#e27f4d"/></g><g><path d="m413.667 463.867h-3.932l-9.914-19.83c-4.104-8.206-12.352-13.303-21.525-13.303h-7.111v-18.134h.783c13.271 0 24.066-10.796 24.066-24.067 0-8.779-4.727-16.472-11.768-20.676 49.151-39.018 78.034-98.194 78.034-161.557 0-113.754-92.546-206.3-206.3-206.3-50.186 0-98.555 18.234-136.196 51.344-3.11 2.736-3.413 7.475-.678 10.585 2.736 3.111 7.475 3.414 10.585.678 34.902-30.7 79.752-47.607 126.289-47.607 105.483 0 191.3 85.817 191.3 191.3 0 63.478-31.263 122.425-83.72 158.167h-215.16c-52.457-35.742-83.72-94.689-83.72-158.167 0-44.98 15.918-88.679 44.82-123.048 2.666-3.17 2.257-7.901-.913-10.567-3.171-2.666-7.902-2.257-10.567.913-31.172 37.067-48.34 84.196-48.34 132.702 0 63.363 28.883 122.54 78.035 161.557-7.041 4.204-11.768 11.897-11.768 20.676 0 13.271 10.796 24.067 24.066 24.067h.784v18.133h-7.111c-9.175 0-17.423 5.098-21.526 13.304l-9.915 19.83h-3.931c-8.547 0-15.5 6.953-15.5 15.5v17.133c0 8.547 6.953 15.5 15.5 15.5h47.408c4.142 0 7.5-3.358 7.5-7.5s-3.358-7.5-7.5-7.5h-47.409c-.276 0-.5-.224-.5-.5v-17.133c0-.276.224-.5.5-.5h306.751 8.583c.275 0 .5.224.5.5v17.133c0 .276-.225.5-.5.5h-237.925c-4.142 0-7.5 3.358-7.5 7.5s3.358 7.5 7.5 7.5h237.925c8.547 0 15.5-6.953 15.5-15.5v-17.133c0-8.547-6.953-15.5-15.5-15.5zm-282.7-75.334c0-4.999 4.067-9.066 9.066-9.066h231.934c4.999 0 9.066 4.067 9.066 9.066 0 5-4.067 9.067-9.066 9.067h-231.934c-4.999 0-9.066-4.067-9.066-9.067zm24.85 24.067h200.367v18.133h-200.367zm-30.221 38.145c1.546-3.091 4.653-5.012 8.11-5.012h244.589c3.456 0 6.563 1.92 8.109 5.012l6.561 13.122h-273.93z"/><path d="m324.973 74.7c-6.826-.754-13.67 1.428-18.759 5.986-5.093 4.562-8.014 11.097-8.014 17.931v.783h-.349c-12.539 0-23.009 9.183-24.353 21.36-.754 6.832 1.429 13.67 5.987 18.76 4.562 5.092 11.097 8.013 17.931 8.013h.783v.349c0 12.54 9.183 23.009 21.36 24.352.888.098 1.776.146 2.661.146 5.92 0 11.671-2.167 16.098-6.133 5.093-4.562 8.014-11.097 8.014-17.931v-.784h.784c6.833 0 13.368-2.921 17.93-8.013 4.559-5.089 6.741-11.927 5.987-18.76-1.344-12.177-11.814-21.36-24.353-21.36h-.349v-.348c.002-12.539-9.181-23.008-21.358-24.351zm21.709 39.7c4.8 0 8.947 3.516 9.442 8.005.291 2.638-.508 5.162-2.25 7.107-1.72 1.92-4.183 3.021-6.757 3.021h-4.143c-6.419 0-11.642 5.222-11.642 11.642v4.142c0 2.575-1.102 5.038-3.021 6.757-1.944 1.742-4.465 2.543-7.106 2.251-4.488-.496-8.005-4.643-8.005-9.443v-3.707c0-6.419-5.223-11.642-11.642-11.642h-4.142c-2.574 0-5.038-1.101-6.758-3.021-1.742-1.945-2.541-4.469-2.25-7.106.495-4.489 4.643-8.005 9.442-8.005h3.707c6.419 0 11.642-5.222 11.642-11.642v-4.142c0-2.575 1.102-5.038 3.022-6.757 1.944-1.742 4.464-2.54 7.106-2.25 4.488.496 8.005 4.643 8.005 9.443v3.706c0 6.419 5.223 11.642 11.642 11.642h3.708z"/><path d="m140.966 286.427c-.754 6.833 1.428 13.671 5.987 18.76 4.561 5.092 11.097 8.013 17.93 8.013h.783v.348c0 12.54 9.183 23.009 21.36 24.352.888.098 1.776.147 2.661.147 5.92 0 11.671-2.167 16.099-6.133 5.092-4.561 8.013-11.097 8.013-17.93v-.784h.784c6.834 0 13.369-2.921 17.93-8.013 4.559-5.089 6.741-11.927 5.987-18.76-1.343-12.177-11.812-21.36-24.352-21.36h-.348v-.349c0-12.54-9.183-23.009-21.36-24.352-6.831-.754-13.67 1.428-18.76 5.987-5.092 4.562-8.013 11.097-8.013 17.93v.784h-.348c-12.54 0-23.009 9.183-24.353 21.36zm14.909 1.645c.496-4.489 4.643-8.005 9.443-8.005h3.706c6.419 0 11.642-5.223 11.642-11.642v-4.142c0-2.574 1.101-5.038 3.022-6.757 1.945-1.743 4.468-2.54 7.107-2.251 4.489.496 8.005 4.643 8.005 9.443v3.707c0 6.419 5.223 11.642 11.642 11.642h3.707c4.8 0 8.947 3.516 9.443 8.005.291 2.638-.508 5.162-2.25 7.107-1.72 1.92-4.183 3.021-6.757 3.021h-4.142c-6.419 0-11.642 5.222-11.642 11.642v4.142c0 2.574-1.101 5.038-3.021 6.757-1.945 1.743-4.473 2.542-7.106 2.251-4.489-.496-8.005-4.643-8.005-9.443v-3.707c0-6.419-5.222-11.642-11.642-11.642h-4.142c-2.574 0-5.038-1.101-6.757-3.021-1.744-1.945-2.544-4.469-2.253-7.107z"/><path d="m156.6 97.834h8.283c4.142 0 7.5-3.358 7.5-7.5s-3.358-7.5-7.5-7.5h-8.283c-4.142 0-7.5 3.358-7.5 7.5s3.358 7.5 7.5 7.5z"/><path d="m131.75 130.967c4.142 0 7.5-3.358 7.5-7.5s-3.358-7.5-7.5-7.5h-8.283c-4.142 0-7.5 3.358-7.5 7.5s3.358 7.5 7.5 7.5z"/><path d="m156.6 164.1h8.283c4.142 0 7.5-3.358 7.5-7.5s-3.358-7.5-7.5-7.5h-8.283c-4.142 0-7.5 3.358-7.5 7.5s3.358 7.5 7.5 7.5z"/><path d="m355.4 314.767h-8.283c-4.143 0-7.5 3.358-7.5 7.5s3.357 7.5 7.5 7.5h8.283c4.143 0 7.5-3.358 7.5-7.5s-3.357-7.5-7.5-7.5z"/><path d="m388.533 296.633c4.143 0 7.5-3.358 7.5-7.5s-3.357-7.5-7.5-7.5h-8.283c-4.143 0-7.5 3.358-7.5 7.5s3.357 7.5 7.5 7.5z"/><path d="m355.4 248.5h-8.283c-4.143 0-7.5 3.358-7.5 7.5s3.357 7.5 7.5 7.5h8.283c4.143 0 7.5-3.358 7.5-7.5s-3.357-7.5-7.5-7.5z"/></g></g></svg>