<svg id="Capa_1" enable-background="new 0 0 512 512" height="512" viewBox="0 0 512 512" width="512" xmlns="http://www.w3.org/2000/svg"><g><g><g><path d="m226.441 9.935 60.572 101.355h-84.473l-57.507-96.225c-1.992-3.333.409-7.565 4.292-7.565h72.824c1.76 0 3.39.925 4.292 2.435z" fill="#e06c57"/></g><g><path d="m169.485 7.5h-20.16c-3.883 0-6.284 4.232-4.292 7.565l57.507 96.225h20.16l-57.506-96.225c-1.992-3.333.409-7.565 4.291-7.565z" fill="#dd554e"/></g><g><path d="m171.58 135.65h30.96v109.92h-30.96z" fill="#b5adb7"/></g><g><path d="m309.46 135.65h30.96v109.92h-30.96z" fill="#b5adb7"/></g><g><path d="m340.42 166.37h-168.84v-45.08c0-5.523 4.477-10 10-10h148.84c5.523 0 10 4.477 10 10z" fill="#d3ced5"/></g><g><path d="m202.7 111.29h-21.12c-5.523 0-10 4.477-10 10v45.08h21.12v-45.08c0-5.523 4.477-10 10-10z" fill="#c3bec6"/></g><g><path d="m285.559 9.935-60.573 101.355h84.474l57.507-96.225c1.992-3.333-.409-7.565-4.292-7.565h-72.825c-1.759 0-3.389.925-4.291 2.435z" fill="#e58e82"/></g><g><path d="m310.01 7.5h-20.16c-1.76 0-3.389.925-4.292 2.435l-60.572 101.355h20.16l60.573-101.355c.902-1.51 2.532-2.435 4.291-2.435z" fill="#e27b67"/></g><g><circle cx="256" cy="350.861" fill="#fdcd08" r="153.639"/></g><g><path d="m123.601 350.861c0-81.282 63.122-147.811 143.019-153.268-3.51-.24-7.049-.372-10.62-.372-84.853 0-153.639 68.787-153.639 153.639s68.786 153.64 153.639 153.64c3.571 0 7.11-.132 10.62-.372-79.897-5.456-143.019-71.985-143.019-153.267z" fill="#faab18"/></g><g><g><circle cx="256" cy="350.861" fill="#faab18" r="115.488"/></g></g><g><g><path d="m161.752 350.861c0-60.201 46.065-109.634 104.868-114.997-3.498-.319-7.039-.491-10.62-.491-63.782 0-115.488 51.706-115.488 115.488s51.706 115.487 115.488 115.487c3.581 0 7.122-.172 10.62-.491-58.803-5.362-104.868-54.796-104.868-114.996z" fill="#f5901e"/></g></g><g><path d="m253.673 399.341-35.352 18.586c-3.668 1.928-7.955-1.186-7.255-5.271l6.752-39.365c.278-1.622-.26-3.277-1.438-4.426l-28.6-27.878c-2.968-2.893-1.33-7.933 2.771-8.528l39.525-5.743c1.629-.237 3.036-1.259 3.765-2.735l17.676-35.815c1.834-3.716 7.133-3.716 8.967 0l17.676 35.815c.728 1.476 2.136 2.499 3.765 2.735l39.525 5.743c4.101.596 5.739 5.636 2.771 8.528l-28.6 27.878c-1.178 1.149-1.716 2.804-1.438 4.426l6.752 39.365c.701 4.085-3.587 7.199-7.255 5.271l-35.352-18.586c-1.458-.766-3.198-.766-4.655 0z" fill="#f6f1f1"/></g><g><path d="m227.342 412.656 6.751-39.365c.278-1.622-.26-3.277-1.438-4.426l-28.6-27.878c-2.968-2.893-1.33-7.933 2.771-8.528l39.525-5.743c1.629-.237 3.036-1.259 3.765-2.735l14.022-28.412-3.654-7.404c-1.834-3.716-7.133-3.716-8.967 0l-17.677 35.815c-.728 1.476-2.136 2.499-3.765 2.735l-39.524 5.743c-4.101.596-5.739 5.636-2.771 8.528l28.6 27.878c1.178 1.149 1.716 2.804 1.438 4.426l-6.752 39.365c-.701 4.085 3.587 7.199 7.255 5.271l8.966-4.713c.012-.184.023-.368.055-.557z" fill="#e2dfe2"/></g></g><g><path d="m394.533 268.506c-2.12-3.558-6.723-4.725-10.282-2.605s-4.725 6.723-2.605 10.281c13.407 22.507 20.493 48.33 20.493 74.678 0 80.582-65.557 146.14-146.139 146.14s-146.139-65.558-146.139-146.14 65.558-146.139 146.139-146.139c40.662 0 78.425 16.298 106.335 45.892 2.842 3.014 7.589 3.153 10.602.31 3.013-2.842 3.152-7.588.31-10.602-7.787-8.257-16.273-15.571-25.328-21.897v-51.764h-.015c.004-.097.015-.192.015-.29v-45.08c0-9.649-7.851-17.5-17.5-17.5h-7.74l50.725-84.877c2.304-3.854 2.358-8.675.142-12.581-2.215-3.906-6.381-6.332-10.872-6.332h-72.824c-4.375 0-8.486 2.333-10.73 6.088v-.001l-58.39 97.703h-13.936l-53.062-88.79h66.999l10.256 17.162c2.125 3.555 6.729 4.716 10.286 2.59 3.555-2.125 4.715-6.73 2.59-10.286l-10.983-18.378c-2.244-3.755-6.356-6.088-10.731-6.088h-72.824c-4.49 0-8.656 2.426-10.872 6.332-2.216 3.905-2.161 8.726.142 12.581l50.725 84.877h-7.74c-9.649 0-17.5 7.851-17.5 17.5v45.08c0 .098.011.193.015.29h-.015v51.929c-41.806 29.141-69.219 77.561-69.219 132.272 0 88.852 72.286 161.139 161.139 161.139s161.139-72.287 161.139-161.14c0-29.049-7.817-57.527-22.606-82.354zm-184.493-72.096v-22.54h91.92v22.438c-14.698-4.336-30.128-6.587-45.96-6.587-15.964 0-31.389 2.345-45.96 6.689zm106.92 5.152v-27.692h15.96v35.272c-5.181-2.824-10.506-5.355-15.96-7.58zm-25.691-186.562h66.999l-53.063 88.79h-67zm-112.189 106.29c0-1.378 1.122-2.5 2.5-2.5h148.84c1.378 0 2.5 1.122 2.5 2.5v37.58h-153.84zm0 52.58h15.96v27.837c-5.475 2.246-10.805 4.776-15.96 7.589z"/><path d="m156.024 292.526c-3.704-1.856-8.21-.354-10.064 3.349-8.591 17.161-12.948 35.661-12.948 54.985 0 67.815 55.172 122.987 122.987 122.987s122.987-55.172 122.987-122.987-55.171-122.987-122.986-122.987c-34.996 0-68.445 14.982-91.769 41.105-2.759 3.09-2.49 7.831.6 10.589 3.089 2.758 7.83 2.489 10.59-.6 20.481-22.938 49.851-36.095 80.579-36.095 59.544 0 107.987 48.443 107.987 107.987s-48.443 107.989-107.987 107.989-107.987-48.444-107.987-107.988c0-16.972 3.822-33.212 11.361-48.271 1.854-3.703.355-8.209-3.35-10.063z"/><path d="m332.618 333.544c-1.481-4.559-5.348-7.818-10.091-8.507l-38.224-5.555-17.094-34.637c-2.122-4.298-6.417-6.968-11.209-6.968s-9.088 2.67-11.209 6.968l-17.094 34.637-38.223 5.555c-4.743.688-8.61 3.948-10.091 8.507s-.269 9.469 3.164 12.814l27.659 26.96-6.529 38.069c-.811 4.725 1.095 9.409 4.973 12.227 2.191 1.592 4.754 2.4 7.335 2.4 1.986 0 3.983-.479 5.829-1.449l34.186-17.974 34.188 17.975c4.243 2.229 9.287 1.866 13.165-.951 3.877-2.817 5.783-7.502 4.973-12.226l-6.529-38.07 27.659-26.96c3.431-3.346 4.643-8.256 3.162-12.815zm-42.233 29.95c-2.947 2.873-4.291 7.009-3.595 11.064l5.895 34.372-30.868-16.229c-1.821-.957-3.819-1.436-5.816-1.436s-3.995.479-5.816 1.436l-30.868 16.229 5.895-34.371c.696-4.057-.648-8.192-3.595-11.065l-24.972-24.342 34.514-5.015c4.072-.594 7.589-3.15 9.409-6.838l15.432-31.273 15.434 31.272c1.82 3.688 5.337 6.245 9.412 6.839l34.511 5.015z"/></g></g></svg>