<svg id="Capa_1" enable-background="new 0 0 512.141 512.141" height="512" viewBox="0 0 512.141 512.141" width="512" xmlns="http://www.w3.org/2000/svg"><g><g><path d="m449.713 69.158-139.141-61.569c-50.978-1.21-102.33 17.081-141.922 54.861l-61.568 139.136c-1.21 50.978 17.081 102.33 54.861 141.922l139.099 61.551c50.988 1.218 102.356-17.053 141.957-54.84l61.554-139.104c1.218-50.988-17.053-102.356-54.84-141.957z" fill="#f3ffff"/><g fill="#dff9f9"><path d="m310.627 7.613c-5.444-.13-10.892-.049-16.33.265 7.694.444 15.366 1.342 22.976 2.676z"/><path d="m504.553 211.115c1.218-50.988-17.053-102.356-54.84-141.957l-45.206-20.004c6.535 5.074 12.832 10.601 18.835 16.604 77.636 77.636 77.636 203.509 0 281.146-35.885 35.885-82.076 55.169-129.045 57.881 53.182 3.07 107.357-15.119 148.707-54.578z"/></g><g><path d="m21.967 502.306-12.115-12.115c-3.124-3.124-3.124-8.189 0-11.314l122.648-122.649 23.429 23.429-122.649 122.649c-3.124 3.124-8.189 3.124-11.313 0z" fill="#e59f4f"/><path d="m132.5 356.228-13.892 13.892 9.099 9.1c1.562 1.562 1.562 4.095 0 5.657l-111.584 111.585 5.844 5.844c3.124 3.124 8.189 3.124 11.314 0l122.649-122.649z" fill="#e27f4d"/></g><g><path d="m196.721 362.294-25.611 25.611c-3.235 3.235-8.48 3.235-11.714 0l-35.143-35.143c-3.235-3.235-3.235-8.48 0-11.714l25.611-25.611z" fill="#f3ffff"/><path d="m185.072 350.681-25.611 25.611c-3.113 3.113-8.081 3.221-11.334.344l11.269 11.269c3.235 3.235 8.48 3.235 11.714 0l25.611-25.611z" fill="#dff9f9"/></g><g fill="#e28bd2"><path d="m446.399 65.759c-37.611-37.611-86.543-57.001-135.827-58.17 6.203 22.068 10.118 44.595 11.753 67.235l88.163 50.179c14.849-17.163 28.007-35.857 39.224-55.844-1.089-1.143-2.191-2.277-3.313-3.4z"/><path d="m107.082 201.586c22.068-6.203 44.595-10.118 67.235-11.753l50.179-88.163c-17.163-14.849-35.857-28.008-55.844-39.224-1.142 1.09-2.277 2.192-3.399 3.314-37.611 37.61-57.001 86.542-58.171 135.826z"/><path d="m165.253 346.905c37.611 37.611 86.543 57.001 135.827 58.171-6.203-22.068-10.118-44.595-11.754-67.235l-88.163-50.179c-14.849 17.163-28.007 35.857-39.224 55.844 1.09 1.142 2.192 2.276 3.314 3.399z"/><path d="m504.569 211.078c-22.068 6.203-44.595 10.118-67.235 11.754l-50.179 88.163c17.163 14.849 35.857 28.007 55.844 39.224 1.142-1.09 2.277-2.192 3.399-3.314 37.612-37.611 57.002-86.543 58.171-135.827z"/></g><path d="m399.541 112.617c-3.951-3.951-8.092-7.597-12.389-10.945l-97.826-26.842c-28.229 3.522-55.542 16.113-77.215 37.787-3.951 3.951-7.597 8.092-10.945 12.389l-26.842 97.826c3.522 28.229 16.114 55.541 37.787 77.215 3.951 3.951 8.092 7.597 12.389 10.945l97.826 26.842c28.229-3.522 55.542-16.114 77.215-37.787 3.951-3.951 7.597-8.092 10.945-12.389l26.842-97.826c-3.522-28.229-16.114-55.542-37.787-77.215z" fill="#dff8fa"/><path d="m437.328 189.832c-22.294-1.61-44.698-1.01-66.88 1.794l-8.524 50.006c17.668 13.703 33.935 29.122 48.561 46.026 22.144-28.423 31.09-63.789 26.843-97.826z" fill="#de6fba"/><path d="m201.166 125.006c-22.143 28.423-31.089 63.789-26.842 97.826 22.294 1.61 44.698 1.01 66.88-1.794l8.524-50.006c-17.669-13.703-33.936-29.122-48.562-46.026z" fill="#de6fba"/><path d="m289.326 74.83c-1.61 22.294-1.01 44.698 1.794 66.879l50.006 8.524c13.703-17.668 29.121-33.935 46.026-48.561-28.423-22.143-63.789-31.089-97.826-26.842z" fill="#de6fba"/><path d="m270.526 262.43c-13.703 17.668-29.121 33.935-46.026 48.562 28.423 22.143 63.789 31.089 97.826 26.842 1.61-22.294 1.01-44.698-1.794-66.88z" fill="#de6fba"/><circle cx="305.826" cy="206.332" fill="#f3ffff" r="66.267"/><path d="m440.25 84.968c3.288-5.176 6.451-10.443 9.463-15.81-1.09-1.142-2.192-2.277-3.314-3.399-37.611-37.611-86.543-57.001-135.827-58.17.185.659.349 1.322.53 1.981 41.067 5.878 80.648 24.597 112.24 56.189 6.119 6.119 11.753 12.539 16.908 19.209z" fill="#de6fba"/><path d="m428.461 341.572c4.766 2.997 9.612 5.882 14.538 8.647 1.142-1.09 2.277-2.192 3.399-3.314 37.611-37.611 57.001-86.543 58.171-135.827-7.707 2.166-15.474 4.036-23.278 5.645-2.345 45.068-19.958 89.483-52.83 124.849z" fill="#de6fba"/></g><path d="m451.702 60.456c-30.177-30.176-68.27-49.999-110.162-57.326-40.95-7.161-82.556-1.979-120.321 14.991-3.778 1.697-5.465 6.137-3.768 9.915 1.697 3.777 6.138 5.462 9.915 3.767 24.776-11.133 51.197-16.566 77.471-16.63 4.415 16.833 7.525 34.051 9.245 51.374-2.739-.158-5.491-.248-8.257-.248-29.46 0-57.527 9.042-81.044 25.801-13.668-11.411-28.245-21.794-43.509-30.974 6.176-5.308 12.673-10.216 19.422-14.664 3.458-2.279 4.414-6.931 2.135-10.389-2.28-3.459-6.933-4.414-10.39-2.135-11.628 7.664-22.56 16.586-32.491 26.517-38.965 38.965-60.424 90.771-60.424 145.876 0 41.303 12.057 80.753 34.504 114.332l-15.081 15.081c-6.153 6.153-6.153 16.167.001 22.321l.553.553-75.37 75.37c-2.929 2.93-2.929 7.678 0 10.608 2.929 2.928 7.678 2.928 10.606 0l51.942-51.942 12.822 12.822-91.525 91.526c-.195.195-.512.195-.708 0l-12.115-12.115c-.195-.194-.195-.512 0-.706l18.371-18.371c2.929-2.93 2.929-7.678 0-10.607-2.929-2.928-7.678-2.928-10.606 0l-18.37 18.371c-6.043 6.044-6.043 15.877 0 21.921l12.116 12.115c3.022 3.022 6.99 4.532 10.96 4.531 3.969 0 7.938-1.511 10.96-4.531l114.955-114.956.553.553c2.981 2.981 6.945 4.624 11.161 4.624s8.18-1.643 11.16-4.623l15.117-15.116c34.474 22.956 74.383 34.442 114.296 34.442 52.829 0 105.658-20.108 145.876-60.326 38.965-38.966 60.424-90.772 60.424-145.877s-21.459-106.91-60.424-145.875zm-41.837 215.237c-11.812-12.918-24.638-24.958-38.26-35.941 5.21-10.229 7.987-21.608 7.987-33.42 0-2.743-.164-5.459-.458-8.146 17.025-1.743 34.225-2.155 51.311-1.252 2.04 27.296-4.821 55.137-20.58 78.759zm-15.627 19.051c-18.119 18.119-40.462 29.498-63.888 34.148.779-17.483.221-35.064-1.647-52.461 10.714-3.477 20.788-9.442 29.284-17.938 1.939-1.939 3.744-3.976 5.437-6.084 13.286 10.817 25.753 22.704 37.209 35.443-2.031 2.357-4.161 4.657-6.395 6.892zm-87.414 102.786c-4.427-16.868-7.543-34.124-9.263-51.483 2.752.161 5.508.252 8.264.252 28.432 0 56.86-8.59 81.025-25.751 13.671 11.416 28.255 21.804 43.527 30.989-35.436 30.44-79.462 45.765-123.553 45.993zm-135.535-55.215c8.798-15.068 18.797-29.481 29.856-42.98 1.82 2.046 3.702 4.055 5.662 6.016 21.32 21.319 47.86 34.314 75.544 38.983 1.591 17.725 4.551 35.367 8.845 52.644-43.685-3.321-86.435-21.542-119.907-54.663zm-56.751-134.96c16.899-4.44 34.184-7.565 51.572-9.288-1.825 31.145 6.674 62.782 25.5 89.29-11.417 13.673-21.806 28.257-30.992 43.529-29.602-34.402-45.841-77.71-46.08-123.531zm87.248-70.383c11.811 12.916 24.637 24.957 38.26 35.941-5.21 10.229-7.987 21.608-7.987 33.419 0 2.743.164 5.459.458 8.146-17.021 1.742-34.221 2.154-51.31 1.252-2.04-27.297 4.821-55.137 20.579-78.758zm79.519-53.284c-.784 17.511-.227 35.12 1.644 52.545-10.713 3.477-20.788 9.442-29.284 17.938-1.939 1.939-3.744 3.976-5.437 6.084-13.288-10.818-25.755-22.705-37.208-35.442 2.03-2.357 4.16-4.657 6.394-6.892 17.727-17.728 39.839-29.476 63.891-34.233zm112.933 34.233c18.119 18.119 29.498 40.461 34.148 63.887-17.469-.778-35.034-.222-52.415 1.642-3.549-10.917-9.631-20.927-17.984-29.279-1.947-1.947-3.984-3.751-6.085-5.435 10.818-13.288 22.708-25.757 35.448-37.214 2.362 2.037 4.659 4.17 6.888 6.399zm-46.858 46.857c11.1 11.1 17.212 25.856 17.212 41.554s-6.113 30.455-17.212 41.554c-20.966 20.966-53.954 22.735-76.964 5.334-13.811-18.853-11.844-45.257 4.789-61.889 6.928-6.928 16.138-10.743 25.935-10.743s19.007 3.815 25.935 10.743c5.259 5.258 8.155 12.25 8.155 19.688 0 7.437-2.896 14.429-8.155 19.688-3.924 3.923-9.141 6.084-14.689 6.084-5.549 0-10.766-2.161-14.69-6.084-2.929-2.93-7.678-2.929-10.606-.001-2.929 2.929-2.929 7.678 0 10.606 6.756 6.758 15.74 10.479 25.296 10.479 9.555 0 18.539-3.721 25.295-10.477 8.092-8.092 12.548-18.851 12.548-30.294 0-11.444-4.456-22.203-12.548-30.294-9.76-9.762-22.738-15.137-36.542-15.137s-26.781 5.375-36.542 15.136c-9.078 9.078-14.83 20.374-17.156 32.255-.245-2.192-.384-4.409-.384-6.647 0-15.697 6.113-30.454 17.212-41.554 11.457-11.457 26.505-17.186 41.554-17.186 15.052-.001 30.101 5.728 41.557 17.185zm-32.156 166.174c-27.297 2.04-55.137-4.822-78.759-20.58 12.924-11.819 24.971-24.652 35.958-38.282 10.463 5.305 21.929 7.974 33.402 7.974 2.719 0 5.436-.167 8.142-.465 1.748 17.038 2.161 34.253 1.257 51.353zm-131.959-100.1c5.135.229 10.277.357 15.422.357 12.359 0 24.726-.666 36.998-1.982 3.549 10.912 9.631 20.917 17.98 29.267 1.948 1.947 3.984 3.751 6.085 5.435-10.818 13.287-22.706 25.755-35.444 37.21-2.357-2.03-4.657-4.16-6.892-6.395-18.12-18.12-29.499-40.465-34.149-63.892zm236.776-105.545c11.418-13.674 21.806-28.258 30.992-43.53 29.603 34.402 45.842 77.712 46.08 123.532-16.896 4.439-34.182 7.563-51.572 9.287 1.825-31.144-6.674-62.781-25.5-89.289zm-99.565-109.531c44.311 3.489 87.176 22.211 119.888 54.57-8.798 15.069-18.797 29.483-29.858 42.983-1.82-2.046-3.701-4.055-5.662-6.016-20.831-20.831-47.071-34.284-75.551-39.062-1.59-17.669-4.541-35.253-8.817-52.475zm54.733 86.495c-12.934 11.825-24.987 24.666-35.981 38.303-12.942-6.562-27.422-9.064-41.544-7.51-1.75-17.061-2.161-34.298-1.253-51.42 3.111-.229 6.244-.346 9.395-.346 25.07.001 49.012 7.33 69.383 20.973zm-205.366-30.477c15.066 8.798 29.479 18.796 42.979 29.856-2.049 1.825-4.058 3.707-6.014 5.663-21.319 21.32-34.314 47.86-38.984 75.544-17.759 1.594-35.436 4.563-52.749 8.871 3.394-45.258 22.536-87.365 54.768-119.934zm-39.733 323.076-12.822-12.822 12.822-12.822 12.822 12.822zm35.696-12.268c-.305.305-.802.305-1.107-.001l-5.857-5.856s-.001-.001-.001-.001l-23.429-23.429c-.002-.002-.005-.004-.007-.007l-5.849-5.849c-.306-.306-.306-.804-.001-1.108l13.377-13.377c5.232 6.702 10.909 13.126 17.017 19.234 6.137 6.137 12.571 11.799 19.25 17zm276.004-41.732c-15.069-8.798-29.483-18.797-42.981-29.857 2.045-1.82 4.055-3.701 6.015-5.661 21.32-21.32 34.314-47.861 38.984-75.545 17.761-1.594 35.438-4.562 52.748-8.871-3.393 45.258-22.535 87.365-54.766 119.934z"/></g></svg>