<svg id="Capa_1" enable-background="new 0 0 512 512" height="512" viewBox="0 0 512 512" width="512" xmlns="http://www.w3.org/2000/svg"><g><g><g><path d="m405.1 338.833v-21.932h-298.2v21.932l-16.127 161.269c-.235 2.355 1.614 4.398 3.98 4.398h61.847l99.4-22.45 99.4 22.45h61.847c2.367 0 4.216-2.043 3.98-4.398z" fill="#dc3d36"/><path d="m405.1 338.833v-21.932h-23v21.932l16.127 161.269c.236 2.355-1.613 4.398-3.98 4.398h23c2.367 0 4.216-2.043 3.98-4.398z" fill="#b13d49"/><path d="m162.393 438.233 60.474-121.332h66.266l60.474 121.332-43.907 66.267h-99.4z" fill="#413e82"/><g fill="#de5e4c"><path d="m222.867 322.267c0 99.4-60.474 115.967-60.474 115.967s43.907 24.849 43.907 66.266h-49.7l16.4-187.599h49.867z"/><path d="m289.133 322.267c0 99.4 60.474 115.967 60.474 115.967s-43.907 24.849-43.907 66.266h49.7l-16.4-187.599h-49.867z"/></g></g><path d="m347.662 73.767h-25.395c-9.149 0-16.567-7.417-16.567-16.567l-13.593-33.133h55.554c3.308 0 5.281 3.687 3.446 6.439l-10.742 16.114c-.927 1.391-.927 3.204 0 4.595l10.742 16.113c1.836 2.752-.137 6.439-3.445 6.439z" fill="#dc3d36"/><path d="m340.365 51.214c-.927-1.391-.927-3.204 0-4.595l10.742-16.114c1.835-2.752-.138-6.439-3.446-6.439h-23.055c3.308 0 5.281 3.687 3.446 6.439l-10.742 16.114c-.927 1.391-.927 3.204 0 4.595l10.742 16.113c1.835 2.752-.138 6.439-3.446 6.439h23.055c3.308 0 5.281-3.687 3.446-6.439z" fill="#b13d49"/><path d="m305.701 57.2h-49.701v-49.7h33.7c8.837 0 16 7.163 16 16v33.7z" fill="#de5e4c"/><g><path d="m15.783 409.293v86.924c0 4.575 3.709 8.283 8.283 8.283h16.567c4.575 0 8.283-3.708 8.283-8.283v-53.79l-16.566-31.308z" fill="#f3ffff"/><path d="m25.917 410.41v94.09h14.717c4.575 0 8.283-3.708 8.283-8.283v-53.79l-16.567-31.308z" fill="#dff9f9"/><path d="m15.783 264.283 16.567 4.856 16.567 28.278v73.33l-16.567 3.184-16.567-36.318z" fill="#f3ffff"/><path d="m25.917 267.253v92.575l6.433 14.103 16.567-3.184v-73.33l-16.567-28.278z" fill="#dff9f9"/><path d="m48.917 370.747-33.134-33.134v71.68l33.134 33.133z" fill="#dc3d36"/><path d="m48.917 297.417-33.134-33.134v-65.54h33.134z" fill="#dc3d36"/><path d="m25.917 274.417 23 23v-98.674h-23z" fill="#b13d49"/><path d="m25.917 419.426 23 23v-71.679l-23-23z" fill="#b13d49"/><circle cx="32.35" cy="181.45" fill="#f6df59" r="24.85"/><path d="m32.35 156.6c-4.151 0-8.061 1.023-11.5 2.823 7.933 4.15 13.35 12.454 13.35 22.027s-5.417 17.877-13.35 22.027c3.439 1.799 7.349 2.823 11.5 2.823 13.724 0 24.85-11.126 24.85-24.85s-11.126-24.85-24.85-24.85z" fill="#edbf50"/></g><g><path d="m463.083 409.293v86.924c0 4.575 3.709 8.283 8.283 8.283h16.567c4.575 0 8.283-3.708 8.283-8.283v-53.79l-16.567-31.307z" fill="#f3ffff"/><path d="m473.217 410.41v94.09h14.717c4.575 0 8.283-3.708 8.283-8.283v-53.79l-16.567-31.307z" fill="#dff9f9"/><path d="m463.083 264.283 16.567 4.856 16.567 28.278v73.33l-16.567 3.184-16.567-36.318z" fill="#f3ffff"/><path d="m473.217 267.253v92.575l6.433 14.103 16.567-3.184v-73.33l-16.567-28.278z" fill="#dff9f9"/><path d="m496.217 370.747-33.134-33.134v71.68l33.134 33.133z" fill="#dc3d36"/><path d="m496.217 297.417-33.134-33.134v-65.54h33.134z" fill="#dc3d36"/><path d="m473.217 274.417 23 23v-98.674h-23z" fill="#b13d49"/><path d="m473.217 419.426 23 23v-71.679l-23-23z" fill="#b13d49"/><circle cx="479.65" cy="181.45" fill="#f6df59" r="24.85"/><path d="m479.65 156.6c-4.151 0-8.06 1.023-11.5 2.823 7.933 4.15 13.35 12.454 13.35 22.027s-5.417 17.877-13.35 22.027c3.44 1.799 7.349 2.823 11.5 2.823 13.724 0 24.85-11.126 24.85-24.85s-11.126-24.85-24.85-24.85z" fill="#edbf50"/></g><g><path d="m137.079 322.267v-44.336h236.436v44.336h-5.69c0 9.15-7.417 16.567-16.567 16.567h-20.708c-9.149 0-16.567-7.417-16.567-16.567v-4.415h-115.966v4.415c0 9.15-7.417 16.567-16.567 16.567h-20.708c-9.15 0-16.567-7.417-16.567-16.567z" fill="#f3ffff"/><g><g><g><path d="m256 214.583-163.716 74.486c-1.253 2.363-1.951 5.011-1.951 7.748v25.45c0 9.15 7.417 16.567 16.567 16.567h20.708c9.15 0 16.567-7.417 16.567-16.567v-33.133h223.65v33.133c0 9.15 7.417 16.567 16.567 16.567h20.708c9.15 0 16.567-7.417 16.567-16.567v-25.45c0-2.712-.686-5.337-1.916-7.684z" fill="#de5e4c"/></g><g><path d="m421.667 322.267v-25.45c0-2.712-.686-5.337-1.916-7.684l-45.193-20.575c3.234 2.85 6.496 5.671 9.79 8.458l8.454 7.154c3.72 3.148 5.866 7.774 5.866 12.647v25.45c0 8.763-6.808 15.918-15.421 16.509.38.026.759.058 1.146.058h20.707c9.15-.001 16.567-7.418 16.567-16.567z" fill="#dc3d36"/></g></g></g><path d="m419.75 289.133c-.981-1.87-2.299-3.567-3.949-4.963l-8.454-7.154c-61.693-52.201-113.032-115.527-151.347-186.682-38.314 71.155-89.654 134.481-151.347 186.683l-8.454 7.154c-1.65 1.396-2.968 3.093-3.949 4.963h51.925 223.65 51.925z" fill="#dc3d36"/><path d="m415.801 284.17-8.454-7.154c-61.693-52.201-113.032-115.527-151.347-186.682-3.711 6.892-7.547 13.707-11.5 20.449 36.86 62.866 84.129 119.088 139.847 166.234l8.454 7.154c1.65 1.396 2.969 3.093 3.949 4.963h23c-.98-1.871-2.299-3.568-3.949-4.964z" fill="#b13d49"/></g><g><path d="m314.619 256h-117.238c-3.427 0-6.39 2.194-7.623 5.392-1.87 4.849-6.145 9.261-11.212 11.188-3.228 1.227-5.379 4.296-5.379 7.75v17.608c0 3.454 2.151 6.523 5.379 7.75 5.067 1.927 9.341 6.339 11.212 11.188 1.233 3.197 4.196 5.392 7.623 5.392h117.238c3.427 0 6.39-2.194 7.623-5.392 1.87-4.849 6.145-9.261 11.212-11.188 3.228-1.227 5.379-4.296 5.379-7.75v-17.608c0-3.454-2.151-6.523-5.379-7.75-5.067-1.927-9.341-6.339-11.212-11.188-1.233-3.198-4.196-5.392-7.623-5.392z" fill="#f6df59"/><path d="m333.454 272.579c-5.067-1.927-9.342-6.339-11.212-11.188-1.233-3.197-4.196-5.392-7.623-5.392h-23c3.427 0 6.39 2.194 7.623 5.392 1.87 4.849 6.145 9.261 11.212 11.188 3.228 1.228 5.379 4.296 5.379 7.75v17.608c0 3.454-2.151 6.522-5.379 7.75-5.067 1.927-9.341 6.339-11.212 11.188-1.233 3.197-4.196 5.392-7.623 5.392h23c3.427 0 6.39-2.194 7.623-5.392 1.87-4.849 6.145-9.261 11.212-11.188 3.228-1.228 5.379-4.296 5.379-7.75v-17.608c0-3.453-2.151-6.522-5.379-7.75z" fill="#edbf50"/></g></g><g><path d="m206.3 296.633h33.133c4.142 0 7.5-3.358 7.5-7.5s-3.358-7.5-7.5-7.5h-33.133c-4.142 0-7.5 3.358-7.5 7.5s3.358 7.5 7.5 7.5z"/><path d="m272.566 296.633h33.134c4.143 0 7.5-3.358 7.5-7.5s-3.357-7.5-7.5-7.5h-33.134c-4.143 0-7.5 3.358-7.5 7.5s3.358 7.5 7.5 7.5z"/><path d="m503.717 203.039c5.146-5.73 8.283-13.299 8.283-21.589 0-17.838-14.512-32.35-32.35-32.35-13.906 0-25.789 8.82-30.353 21.16-56.534-9.152-110.975-31.267-157.842-64.187l-27.955-19.636v-21.737h35.903c3.16 9.608 12.212 16.566 22.865 16.566h25.395c4.301 0 8.234-2.356 10.264-6.148 2.029-3.792 1.809-8.372-.578-11.951l-9.5-14.251 9.5-14.25c2.387-3.579 2.607-8.159.578-11.951s-5.963-6.148-10.264-6.148h-35.507c-2.966-9.584-11.91-16.567-22.456-16.567h-33.7c-4.142 0-7.5 3.358-7.5 7.5v78.936l-27.957 19.637c-46.867 32.92-101.306 55.034-157.841 64.187-4.563-12.34-16.446-21.16-30.352-21.16-17.838 0-32.35 14.512-32.35 32.35 0 8.29 3.137 15.858 8.283 21.589v293.178c0 8.703 7.081 15.783 15.784 15.783h16.566c8.703 0 15.783-7.08 15.783-15.783v-293.177c4.365-4.861 7.278-11.045 8.063-17.87 58.986-9.452 115.799-32.483 164.686-66.822l3.585-2.519c-3.412 5.61-6.904 11.162-10.467 16.633-2.261 3.471-1.279 8.117 2.191 10.378 3.471 2.26 8.118 1.279 10.378-2.191 7.374-11.321 14.458-22.98 21.145-34.796 37.798 66.853 86.597 125.928 145.209 175.781h-54.874v-1.304c0-6.506-4.105-12.438-10.214-14.76-2.963-1.127-5.728-3.89-6.88-6.877-2.388-6.192-8.127-10.192-14.62-10.192h-117.237c-6.494 0-12.233 4.001-14.621 10.192-1.152 2.986-3.917 5.75-6.88 6.877-6.109 2.323-10.213 8.255-10.213 14.76v1.304h-54.878c39.891-33.934 75.66-72.651 106.317-115.114 2.425-3.358 1.668-8.046-1.69-10.471-3.358-2.426-8.046-1.667-10.471 1.691-30.278 41.936-65.65 80.141-105.136 113.552l-8.455 7.154c-5.415 4.582-8.521 11.278-8.521 18.372v25.45c0 10.413 6.648 19.299 15.921 22.645l-15.883 158.841c-.211 2.108.48 4.207 1.902 5.779 1.422 1.571 3.442 2.467 5.561 2.467h18.133c4.142 0 7.5-3.358 7.5-7.5s-3.358-7.5-7.5-7.5h-9.846l15.066-150.667h13.921c6.415 0 12.248-2.528 16.567-6.634 4.319 4.106 10.151 6.634 16.567 6.634h2.156l-13.171 150.667h-11.103c-4.142 0-7.5 3.358-7.5 7.5s3.358 7.5 7.5 7.5h283.044c2.119 0 4.139-.897 5.561-2.467 1.422-1.571 2.113-3.67 1.902-5.779l-15.885-158.842c9.274-3.346 15.922-12.233 15.922-22.645v-25.45c0-7.094-3.107-13.791-8.521-18.372l-8.454-7.154c-52.689-44.583-97.297-96.776-132.949-155.466l3.592 2.523c48.886 34.339 105.699 57.37 164.686 66.822.785 6.824 3.698 13.008 8.063 17.869v293.178c0 8.703 7.081 15.783 15.784 15.783h16.566c8.703 0 15.783-7.08 15.783-15.783v-293.178zm-480.434 152.681 18.133 18.133v50.467l-18.133-18.133zm0-21.213v-52.117l18.133 18.133v52.117zm0-73.33v-48.679c2.879.842 5.919 1.303 9.067 1.303 3.147 0 6.188-.46 9.066-1.302v66.812zm9.067-97.077c9.567 0 17.35 7.783 17.35 17.35 0 9.566-7.783 17.35-17.35 17.35s-17.35-7.783-17.35-17.35 7.783-17.35 17.35-17.35zm8.283 332.9h-16.566c-.432 0-.784-.352-.784-.783v-68.817l18.133 18.133v50.684c0 .431-.351.783-.783.783zm319.692-200.367v25.633c0 5-4.067 9.067-9.067 9.067h-20.708c-3.143 0-5.915-1.609-7.542-4.045 2.758-1.781 4.968-4.436 6.233-7.715 1.151-2.986 3.916-5.75 6.879-6.876 6.109-2.322 10.214-8.254 10.214-14.761v-1.304h13.991zm-78.563 33.134c1.543 49.101 18.079 77.485 32.068 92.814 7.334 8.036 14.724 13.418 20.72 16.936-12.986 10.155-32.787 29.882-35.92 57.484h-85.261c-3.132-27.602-22.934-47.329-35.919-57.484 5.996-3.518 13.386-8.9 20.72-16.936 13.989-15.329 30.525-43.713 32.068-92.814zm61.504 122.053 3.95 45.18h-33.446c3.155-20.926 18.851-36.688 29.496-45.18zm-19.014-40.08c-16.872-18.934-26.314-47.168-27.491-81.973h10.925c3.16 9.608 12.212 16.567 22.864 16.567h3.495l6.955 79.555c-4.848-2.98-10.82-7.496-16.748-14.149zm-143.586-131.41c0-.323.214-.614.545-.74 6.914-2.629 12.87-8.568 15.544-15.5.11-.284.352-.59.626-.59h117.238c.273 0 .516.306.625.59 2.674 6.931 8.63 12.871 15.545 15.5.33.126.544.416.544.74v17.607c0 .324-.213.614-.544.74-6.915 2.629-12.871 8.568-15.544 15.499-.11.285-.352.591-.626.591h-117.238c-.273 0-.516-.306-.626-.591-2.674-6.931-8.63-12.87-15.545-15.5-.33-.125-.544-.416-.544-.739zm-53.058 51.003h-20.708c-4.999 0-9.066-4.067-9.066-9.067v-25.45c0-.062.009-.122.01-.184h38.831v25.633c0 5.001-4.068 9.068-9.067 9.068zm24.067-9.066v-25.633h13.992v1.304c0 6.507 4.105 12.438 10.214 14.76 2.963 1.127 5.728 3.891 6.88 6.876 1.264 3.279 3.474 5.934 6.232 7.716-1.627 2.436-4.4 4.044-7.542 4.044h-20.708c-5.001-.001-9.068-4.068-9.068-9.067zm29.775 24.066c10.652 0 19.704-6.959 22.863-16.567h10.925c-1.177 34.805-10.618 63.039-27.49 81.973-5.929 6.653-11.9 11.169-16.747 14.148l6.955-79.554zm-12.716 105.487c10.645 8.492 26.341 24.254 29.496 45.18h-33.445zm193.539 45.18-13.171-150.667h2.156c6.415 0 12.248-2.528 16.567-6.634 4.319 4.106 10.151 6.634 16.567 6.634h13.921l15.067 150.667zm51.894-174.733c0 5-4.067 9.067-9.067 9.067h-20.708c-4.999 0-9.066-4.067-9.066-9.067v-25.633h38.832c.001.061.01.122.01.184v25.449zm-80.042-266.893 7.262 10.893h-19.119c-5 0-9.067-4.067-9.067-9.066v-25.634h28.186l-7.263 10.895c-2.613 3.922-2.612 8.989.001 12.912zm-35.925-31.874v.567 25.633h-34.7v-34.7h26.2c4.687 0 8.5 3.813 8.5 8.5zm172.383 332.22 18.134 18.133v50.466l-18.134-18.134zm0-21.214v-52.116l18.134 18.134v52.116zm0-73.33v-48.679c2.879.842 5.92 1.303 9.067 1.303s6.188-.46 9.066-1.302v66.812zm9.067-97.076c9.566 0 17.35 7.783 17.35 17.35 0 9.566-7.783 17.35-17.35 17.35s-17.351-7.783-17.351-17.35c.001-9.567 7.784-17.35 17.351-17.35zm8.284 332.9h-16.566c-.433 0-.784-.352-.784-.783v-68.817l18.134 18.134v50.684c-.001.43-.353.782-.784.782z"/></g></g></svg>