<svg id="Capa_1" enable-background="new 0 0 512 512" height="512" viewBox="0 0 512 512" width="512" xmlns="http://www.w3.org/2000/svg"><g><g><g><path d="m149.516 504.5h-123.049c-5.523 0-10-4.477-10-10v-477c0-5.523 4.477-10 10-10h123.049c5.523 0 10 4.477 10 10v477c0 5.522-4.477 10-10 10z" fill="#b3dafe"/></g><g><path d="m122.919 96.801c-19.339 0-35.072 15.71-35.072 35.021v362.678c0 3.475.516 6.829 1.463 10h60.207c5.523 0 10-4.477 10-10v-375.506l-11.921-11.921c-6.624-6.623-15.388-10.272-24.677-10.272z" fill="#8ac9fe"/></g><g><path d="m38.067 494.5v-477c0-5.523 4.477-10 10-10h-21.6c-5.523 0-10 4.477-10 10v477c0 5.523 4.477 10 10 10h21.6c-5.523 0-10-4.478-10-10z" fill="#8ac9fe"/></g><g><path d="m492.595 487.428-362.678-362.678c-6.3-6.3-17.071-1.838-17.071 7.071v362.679c0 5.523 4.477 10 10 10h362.678c8.909 0 13.371-10.772 7.071-17.072zm-314.749-52.928v-157.826c0-4.455 5.386-6.685 8.536-3.536l157.825 157.825c3.15 3.15.919 8.536-3.536 8.536h-157.825c-2.761.001-5-2.238-5-4.999z" fill="#fdcd08"/></g><g><g><path d="m365.807 430.964-179.529-179.529c-3.15-3.15-8.536-.919-8.536 3.535l.103 21.703c0-4.455 5.386-6.685 8.536-3.535l157.825 157.825h.001c.984.984 1.443 2.187 1.473 3.375.018.713-.119 1.421-.389 2.073-.18.435-.42.845-.713 1.217-.586.742-1.384 1.326-2.347 1.633-.481.154-1.003.238-1.56.238h21.6c4.455.001 6.686-5.385 3.536-8.535z" fill="#faab18"/></g><g><path d="m134.446 494.5v-362.678c0-.801.09-1.565.253-2.289l-4.782-4.782c-6.3-6.3-17.071-1.838-17.071 7.071v362.678c0 5.523 4.477 10 10 10h21.6c-5.523 0-10-4.478-10-10z" fill="#faab18"/></g></g></g><g><path d="m79.596 497h-53.129c-1.378 0-2.5-1.121-2.5-2.5v-47.4h20.45c4.142 0 7.5-3.357 7.5-7.5s-3.358-7.5-7.5-7.5h-20.45v-46.2h20.45c4.142 0 7.5-3.357 7.5-7.5s-3.358-7.5-7.5-7.5h-20.45v-46.2h20.45c4.142 0 7.5-3.357 7.5-7.5s-3.358-7.5-7.5-7.5h-20.45v-46.2h20.45c4.142 0 7.5-3.357 7.5-7.5s-3.358-7.5-7.5-7.5h-20.45v-46.2h20.45c4.142 0 7.5-3.357 7.5-7.5s-3.358-7.5-7.5-7.5h-20.45v-46.2h20.45c4.142 0 7.5-3.357 7.5-7.5s-3.358-7.5-7.5-7.5h-20.45v-46.2h20.45c4.142 0 7.5-3.357 7.5-7.5s-3.358-7.5-7.5-7.5h-20.45v-47.4c0-1.379 1.122-2.5 2.5-2.5h123.049c1.378 0 2.5 1.121 2.5 2.5v86.939c0 4.143 3.358 7.5 7.5 7.5s7.5-3.357 7.5-7.5v-86.939c0-9.649-7.851-17.5-17.5-17.5h-123.049c-9.649 0-17.5 7.851-17.5 17.5v477c0 9.649 7.851 17.5 17.5 17.5h53.129c4.142 0 7.5-3.357 7.5-7.5s-3.358-7.5-7.5-7.5z"/><path d="m178.063 265.125c-4.688 1.941-7.717 6.475-7.717 11.549v157.826c0 6.893 5.607 12.5 12.5 12.5h157.825c5.074 0 9.606-3.028 11.548-7.716s.878-10.035-2.709-13.624l-157.824-157.824c-3.588-3.587-8.934-4.65-13.623-2.711zm7.283 166.875v-149.29l149.291 149.29z"/><path d="m497.899 482.125-225.309-225.31c-2.929-2.928-7.678-2.928-10.606 0-2.929 2.93-2.929 7.678 0 10.607l225.309 225.31c1.028 1.027.781 2.147.542 2.725-.239.576-.856 1.543-2.31 1.543h-362.679c-1.378 0-2.5-1.121-2.5-2.5v-41.28h20.45c4.142 0 7.5-3.357 7.5-7.5s-3.358-7.5-7.5-7.5h-20.45v-46.2h20.45c4.142 0 7.5-3.357 7.5-7.5s-3.358-7.5-7.5-7.5h-20.45v-46.2h20.45c4.142 0 7.5-3.357 7.5-7.5s-3.358-7.5-7.5-7.5h-20.45v-46.2h20.45c4.142 0 7.5-3.357 7.5-7.5s-3.358-7.5-7.5-7.5h-20.45v-46.2h20.45c4.142 0 7.5-3.357 7.5-7.5s-3.358-7.5-7.5-7.5h-20.45v-61.598c0-1.454.967-2.071 1.543-2.311.577-.238 1.697-.486 2.725.542l112.284 112.284c2.929 2.928 7.678 2.928 10.606 0 2.929-2.93 2.929-7.678 0-10.607l-112.284-112.284c-5.023-5.022-12.508-6.513-19.071-3.792-6.562 2.718-10.803 9.064-10.803 16.168v362.678c0 9.649 7.851 17.5 17.5 17.5h362.678c7.104 0 13.45-4.24 16.168-10.803 2.719-6.563 1.23-14.049-3.793-19.072z"/></g></g></svg>