<svg id="Capa_1" enable-background="new 0 0 512.015 512.015" height="512" viewBox="0 0 512.015 512.015" width="512" xmlns="http://www.w3.org/2000/svg"><g><g><path d="m37.569 123.554v-66.5c0-2.761 2.243-5 5.009-5h10.525l1.912-15.479-1.975-14.521h-10.462c-7.461 0-14.379 2.326-20.063 6.292-9.069 6.327-14 17.826-14 29.708v64.5l14 1 7.606 2z" fill="#f9f8f9"/><path d="m351.39 272.054h-34.819c-15.02 0-29.12 3.928-41.327 10.811-25.565 14.415-40.824 44.79-40.824 76.189l1 53.18c0 25.733-9.673 32.143-20.388 42.215-9.425 8.859-21.977 14.386-35.868 14.598-30.213.46-54.938-23.938-54.938-53.994v-135.152c0-8.838 5.82-16.601 14.296-19.153 41.818-12.594 72.36-51.399 72.36-97.194v-10l-7.079-1-7.998 1-13.977 1v8.088c0 46.729-32.488 72.026-71.921 72.408-39.819.386-72.337-31.836-72.337-71.497v-10l-7.192-1-7.862 1-14 1v7c0 45.795 30.541 85.601 72.36 98.194 8.476 2.553 14.296 11.316 14.296 20.153l1 134.082c0 46.245 34.993 82.618 81.32 83.067 20.789.201 39.884-5.162 54.685-17.497 18.505-15.421 30.298-38.611 30.298-64.499v-59c0-15.938 6.918-30.264 17.919-40.148 9.584-8.611 14.495-15.852 34.178-15.852h35.819l1-13 1-7.299z" fill="#e27f86"/><g fill="#df646e"><path d="m195.827 153.554-7.79-1-7.21 1v9.088c0 33.878-24.833 70.815-70.921 72.408 68.683-.657 85.921-34.359 85.921-81.496z"/><path d="m215.03 454.448c19.14-8.54 32.389-27.998 32.389-50.214v-58.18c0-25.898 11.735-49.066 30.193-64.475-26.863 14.029-45.193 42.115-45.193 74.475v58.18c0 15.766-6.673 30.143-17.389 40.214z"/><path d="m319.478 287.054c-14.361 0-31.322 8.956-40.712 30.374 13.496-13.078 29.933-15.374 37.804-15.374h34.819l1-6.98-1-8.02z"/><path d="m192.491 491.05c-46.327-.449-83.32-31.976-83.32-87.067v-128.994c0-11.362-7.177-21.319-18.521-25.564-51.337-19.21-68.134-45.5-68.134-95.87l-.589-.937-13.911-.063-.5 1v10c0 45.795 30.542 84.601 72.36 97.194 8.476 2.553 14.296 10.316 14.296 19.153v134.082c0 46.245 36.993 84.618 83.32 85.067 20.79.201 39.883-7.161 54.685-19.497-11.861 6.187-25.372 11.635-39.686 11.496z"/></g><path d="m210.881 123.554v-66.5c0-19.33-15.698-35-35.063-35h-11.303l-1 7.849 2 7.151 1 14h10.303c2.766 0 5.009 2.239 5.009 5v66.5l14 1 8.21 1z" fill="#f9f8f9"/><path d="m195.827 123.554v-15-50.148c0-11.792-9.56-21.352-21.352-21.352h-8.96l-3 7.466 2 7.534h11.312c2.761 0 5 2.239 5 5v66.5l7.295 1z" fill="#e8e8e8"/><path d="m22.515 108.554v-80.208c-9.065 6.327-15 16.828-15 28.708v66.5l5.84 2 9.16-2z" fill="#e8e8e8"/><path d="m504.515 287.054c0-31.756-25.744-57.5-57.5-57.5-21.795 0-40.757 12.126-50.509 29.999-4.457 8.169-4.991 17.539-4.991 27.501 0 9.924.514 19.261 4.94 27.408 9.737 17.924 28.728 30.092 50.56 30.092 31.756 0 57.5-25.744 57.5-57.5z" fill="#b9c3cd"/><path d="m451.137 244.749c-14.132-1.332-26.999 4.269-35.621 13.788-.578.638-1.386 1.018-2.247 1.018l-16.764-.001c-4.458 8.169-6.991 17.539-6.991 27.501s2.532 19.331 6.99 27.5h16.763c.862 0 1.671.38 2.25 1.019 7.776 8.583 19.003 13.981 31.497 13.981 24.543 0 44.227-20.803 42.38-45.738-1.516-20.474-17.819-37.142-38.257-39.068z" fill="#a2abb8"/><path d="m352.39 301.054h88.646l1-14v-15h-75.646l-14 1z" fill="#f9f8f9"/><path d="m366.39 284.054v-12h-15v30h90.646v-15h-72.646c-1.657 0-3-1.343-3-3z" fill="#e8e8e8"/><path d="m474.515 287.054c0-12.769-8.702-23.505-20.499-26.601-2.235-.587-4.581.101-7.001.101-15.188 0-26.5 11.312-26.5 26.5s11.312 26.5 26.5 26.5c2.419 0 4.766.688 7.001.101 11.797-3.096 20.499-13.832 20.499-26.601z" fill="#f9f8f9"/><g fill="#e8e8e8"><path d="m433.515 287.054c0-12.768 8.704-23.505 20.501-26.601-2.235-.587-4.581-.899-7.001-.899-15.188 0-27.5 12.312-27.5 27.5s12.312 27.5 27.5 27.5c2.419 0 4.76-.311 6.995-.898-11.797-3.096-20.495-13.834-20.495-26.602z"/><path d="m63.671 59.462-5.733-1.433c-2.894-.723-4.924-3.323-4.924-6.306v-30.344c0-2.983 2.03-5.583 4.924-6.306l5.733-1.433c14.905-3.726 29.344 7.547 29.344 22.911 0 15.364-14.439 26.637-29.344 22.911z"/><path d="m160.591 58.535-5.733 1.433c-14.905 3.726-29.344-7.547-29.344-22.911 0-15.364 14.439-26.637 29.344-22.911l5.733 1.433c2.894.723 4.924 3.323 4.924 6.306v30.344c0 2.983-2.03 5.582-4.924 6.306z"/></g><path d="m78.671 44.462c-6.263-1.566-10.656-7.193-10.656-13.648v-17.847c-1.435.088-2.887.309-4.344.673l-5.733 1.433c-2.894.723-4.924 3.323-4.924 6.306v30.344c0 2.983 2.03 5.582 4.923 6.306l5.733 1.433c12.371 3.093 24.423-4.143 28.163-15.478-4.073 1.356-8.6 1.618-13.162.478z" fill="#dcdbdd"/><path d="m140.515 22.057c0-2.613.427-5.112 1.193-7.434-9.237 3.076-16.193 11.772-16.193 22.434 0 15.364 14.439 26.637 29.344 22.911l5.733-1.433c2.894-.723 4.924-3.323 4.924-6.306v-6.593c-13.247.811-25.001-9.717-25.001-23.579z" fill="#dcdbdd"/><path d="m8.515 152.554v-28l14-1h15.054v30h-15.054z" fill="#e8e8e8"/><path d="m7.515 123.554h15v30h-15z" fill="#dcdbdd"/><path d="m210.881 123.554v30h-15.077l-13.977-1v-28l14-1z" fill="#e8e8e8"/><path d="m180.827 123.554h15v30h-15z" fill="#dcdbdd"/></g><g><path d="m447.015 222.054c-27.321 0-51.675 17.225-60.999 42.5h-69.446c-50.537 0-91.651 41.047-91.651 91.5v58.18c.091 25.369-21.017 47.471-46.602 47.32-12.313 0-23.903-4.749-32.707-13.419-8.954-8.819-13.886-20.567-13.886-33.081v-135.153c0-5.547 3.6-10.358 8.959-11.972 11.348-3.417 22.021-8.648 31.724-15.546 3.376-2.4 4.167-7.083 1.767-10.458s-7.082-4.167-10.458-1.766c-8.37 5.951-17.574 10.462-27.357 13.408-11.744 3.536-19.634 14.119-19.634 26.334v135.153c0 16.563 6.521 32.107 18.36 43.768 11.634 11.458 26.95 17.733 43.226 17.732 33.276.126 61.754-28.134 61.608-62.32v-58.18c0-42.182 34.386-76.5 76.651-76.5h27.319v15h-27.319c-33.965 0-61.597 27.589-61.597 61.5v59c.946 40.728-35.848 77.845-77.411 76.497-41.847-.406-75.892-35.203-75.892-77.568v-28.675c0-4.142-3.357-7.5-7.5-7.5s-7.5 3.358-7.5 7.5v28.675c0 50.557 40.709 92.082 90.747 92.567 48.832 1.637 93.691-41.864 92.556-91.496v-59c0-25.64 20.903-46.5 46.597-46.5h69.449c9.326 25.267 33.696 42.5 60.996 42.5 4.405 0 8.81-.444 13.092-1.321 4.058-.831 6.675-4.793 5.844-8.852-.83-4.058-4.801-6.679-8.852-5.844-3.294.674-6.688 1.016-10.084 1.016-19.074 0-36.282-10.936-44.655-27.5h17.874c6.426 7.636 16.044 12.5 26.781 12.5 19.299 0 35-15.701 35-35s-15.701-35-35-35c-10.737 0-20.356 4.864-26.781 12.5h-17.876c8.369-16.569 25.568-27.5 44.658-27.5 27.57 0 50 22.43 50 50 0 12.744-4.796 24.882-13.504 34.177-2.832 3.022-2.677 7.769.346 10.601 1.447 1.355 3.289 2.027 5.126 2.027 2.002 0 3.999-.796 5.476-2.373 11.321-12.085 17.557-27.865 17.557-44.432-.002-35.84-29.161-64.999-65.002-64.999zm0 45c11.028 0 20 8.972 20 20s-8.972 20-20 20-20-8.972-20-20 8.971-20 20-20zm-34.183 27.5h-53.942v-15h53.943c-.796 3.845-1.264 8.952-.001 15z"/><path d="m86.671 350.308c0 4.142 3.357 7.5 7.5 7.5s7.5-3.358 7.5-7.5v-70.407c0-12.215-7.89-22.798-19.634-26.335-39.887-11.891-68.213-50.602-67.022-92.512h15.054c-2.273 42.636 35.536 82.53 79.121 81.5 43.63.15 80.141-37.039 79.137-81.5h15.055c.576 19.208-5.486 39.96-16.835 56.071-2.37 3.397-1.537 8.072 1.86 10.442 1.307.912 2.803 1.35 4.284 1.35 2.369 0 4.7-1.119 6.158-3.209 12.778-18.315 19.532-39.808 19.532-62.154v-106.5c0-23.435-19.094-42.5-42.563-42.5h-4.882c-1.867-3.037-4.869-5.337-8.525-6.25l-5.732-1.433c-9.362-2.34-19.091-.277-26.696 5.661s-11.967 14.877-11.967 24.526 4.361 18.588 11.967 24.526c5.551 4.334 12.234 6.604 19.08 6.604 2.274.277 10.048-1.423 13.349-2.376 3.659-.915 6.662-3.217 8.529-6.257h2.387v56.5h-7.834c-12.388 0-22.481 10.078-22.5 22.465l-.04 26.086c-.028 18.444-15.056 33.449-33.5 33.449-17.094.37-33.875-14.986-33.5-33.551l.04-25.948c.209-11.092-9.707-22.73-22.55-22.534l-8.374.018v-56.486h2.842c1.882 2.789 4.755 4.887 8.209 5.75 5.045 1.199 7.181 2.142 13.35 2.376 6.845 0 13.528-2.27 19.079-6.604 7.605-5.938 11.967-14.877 11.967-24.526s-4.361-18.588-11.967-24.526c-7.604-5.938-17.334-8.003-26.696-5.661l-5.732 1.433c-3.858.965-6.993 3.468-8.829 6.757h-4.712c-23.47 0-42.563 19.065-42.563 42.5v9.913c0 4.142 3.357 7.5 7.5 7.5s7.5-3.358 7.5-7.5v-9.913c0-15.164 12.365-27.5 27.563-27.5h2.937v15h-2.937c-6.897 0-12.51 5.607-12.51 12.5v59h-15.056v-14.087c0-4.142-3.357-7.5-7.5-7.5s-7.5 3.358-7.5 7.5v61.587c-.821 46.456 32.545 91.352 77.697 104.375 5.358 1.614 8.959 6.425 8.959 11.972zm-26.156-328.148 4.976-1.244c4.848-1.211 9.889-.143 13.826 2.933 3.939 3.075 6.198 7.705 6.198 12.703s-2.259 9.627-6.198 12.703c-3.938 3.075-8.977 4.145-13.826 2.932l-4.976-1.244zm127.811 123.894v-15h15.055v15zm-30.311-94.606-4.976 1.244c-4.847 1.211-9.888.143-13.826-2.933-3.939-3.075-6.198-7.705-6.198-12.703s2.259-9.627 6.198-12.703c2.875-2.245 6.336-3.42 9.882-3.42 1.239-.205 6.55 1.099 8.92 1.732zm15-6.894v-15h2.803c15.198 0 27.563 12.336 27.563 27.5v59h-15.055v-59c0-6.893-5.611-12.5-12.509-12.5zm-119.539 86.467c3.099.063 7.254 2.424 7.517 7.511l-.04 25.948c-.616 25.265 22.01 49.133 48.5 48.574 26.703 0 48.46-21.724 48.5-48.426l.04-26.085c.006-4.129 3.371-7.489 7.5-7.489h7.834v31.588c0 35.451-28.483 64.569-63.493 64.909-33.919 1.097-65.53-29.104-64.765-63.997v-32.514zm-23.407.033v15h-15.054v-15z"/></g></g></svg>