<svg id="Capa_1" enable-background="new 0 0 512.953 512.953" height="512" viewBox="0 0 512.953 512.953" width="512" xmlns="http://www.w3.org/2000/svg"><g><g><g><path d="m278.236 463.804-206.182-206.183-53.628 53.628c-14.567 14.567-14.567 38.184 0 52.751l118.529 118.529h122.557z" fill="#e58e82"/></g><g><path d="m317.712 424.328-206.182-206.183 177.49-177.49c13.668-13.668 35.829-13.668 49.497 0l156.685 156.685c13.668 13.668 13.668 35.829 0 49.497z" fill="#b3dafe"/></g><g><path d="m362.206 64.345-23.69-23.69c-13.668-13.668-35.829-13.668-49.497 0l-177.49 177.49 19.932 19.932 2.133 2.133 175.864-175.862c14.565-14.566 38.181-14.567 52.748-.003z" fill="#8ac9fe"/></g><g><path d="m49.09 313.061h291.586v55.828h-291.586z" fill="#f6f1f1" transform="matrix(.707 .707 -.707 .707 298.185 -37.934)"/></g><g><path d="m94.119 279.687-22.065-22.065-53.629 53.628c-14.567 14.567-14.567 38.184 0 52.751l22.062 22.062c-14.563-14.567-14.562-38.182.003-52.748z" fill="#e06c57"/></g><g><path d="m74.91 233.313h55.827v31.205h-55.827z" fill="#e2dfe2" transform="matrix(.707 -.707 .707 .707 -145.894 145.613)"/></g></g><g><path d="m436.183 475.029h-13.044c-4.142 0-7.5 3.357-7.5 7.5s3.358 7.5 7.5 7.5h13.044c4.142 0 7.5-3.357 7.5-7.5s-3.358-7.5-7.5-7.5z"/><path d="m477.375 475.029h-13.044c-4.142 0-7.5 3.357-7.5 7.5s3.358 7.5 7.5 7.5h13.044c4.142 0 7.5-3.357 7.5-7.5s-3.357-7.5-7.5-7.5z"/><path d="m500.505 192.037-156.685-156.685c-16.571-16.571-43.534-16.569-60.104 0l-51.606 51.605c-2.929 2.93-2.929 7.678 0 10.607 2.929 2.928 7.678 2.928 10.606 0l51.605-51.605c10.722-10.723 28.168-10.723 38.891 0l156.685 156.686c5.194 5.193 8.055 12.1 8.055 19.444 0 7.346-2.861 14.252-8.055 19.445l-172.185 172.187-195.576-195.575 95.409-95.409c2.929-2.93 2.929-7.678 0-10.607-2.929-2.928-7.678-2.928-10.606 0l-193.817 193.816c-8.462 8.462-13.122 19.712-13.122 31.679s4.66 23.217 13.122 31.68l93.104 93.104c1.464 1.464 3.384 2.196 5.303 2.196s3.839-.732 5.303-2.196c2.929-2.93 2.929-7.678 0-10.607l-93.104-93.104c-5.628-5.629-8.728-13.113-8.728-21.073s3.1-15.443 8.729-21.071l48.325-48.325 195.575 195.576-11.225 11.225h-184.351c-4.142 0-7.5 3.357-7.5 7.5s3.358 7.5 7.5 7.5h317.195c4.142 0 7.5-3.357 7.5-7.5s-3.358-7.5-7.5-7.5h-111.63l222.887-222.888c8.027-8.027 12.448-18.7 12.448-30.053 0-11.352-4.421-22.025-12.448-30.052zm-417.844 65.584 28.869-28.869 195.576 195.576-28.869 28.869z"/></g></g></svg>