<svg id="Capa_1" enable-background="new 0 0 512 512" height="512" viewBox="0 0 512 512" width="512" xmlns="http://www.w3.org/2000/svg"><g><g><g><path d="m215.593 186.048h-7.071c-1.802 0-3.56.189-5.255.547-11.425 2.418-17.999 14.561-17.999 26.707v213.667c0 9.484 8.689 15.173 18.173 15.173h106.118c9.484 0 18.173-5.689 18.173-15.173l1-2.827v-27.642l-3-75 3-75v-35.198c0-13.947-11.307-25.254-25.254-25.254h-7.071l-39.407-2.92z" fill="#c8effe"/><path d="m203.268 421.141v-24.641l-2-75 2-75-.001-59.905c-11.425 2.418-19.999 12.561-19.999 24.707v35.198l2 75-2 75v30.469c0 9.484 7.688 17.173 17.173 17.173h111.118c9.484 0 17.173-7.689 17.173-17.173v-2.827h-122.464c-1.657-.001-3-1.344-3-3.001z" fill="#a9e5f7"/><path d="m314.094 97.164h-116.189v-18.204c0-5.579 4.523-10.102 10.102-10.102l3.898-1h93.087c5.579 0 10.102 4.523 10.102 10.102v5.203z" fill="#b9c3cd"/><path d="m211.905 80.164v-12.305h-4.898c-5.579 0-10.102 4.523-10.102 10.102v20.203l59.095 2 59.095-2v-15h-100.19c-1.656 0-3-1.344-3-3z" fill="#a2abb8"/><path d="m283.5 186v15c0 8.284-7.716 14-16 14h-24c-8.284 0-14-6.716-14-15v-13.016l14-.996 19.694-1.995z" fill="#b9c3cd"/><path d="m243.5 186.019-7.668-2.018-7.332 1.983v15.016c0 8.284 6.716 15 15 15h25c8.284 0 15-6.716 15-15h-37c-1.657 0-3-1.343-3-3z" fill="#a2abb8"/><path d="m295.406 185.048 1-14v-22.376l-35.936-2-29.877 2-14 1v35.376z" fill="#b9c3cd"/><path d="m230.593 168.048v-19.376l-7.357-1-7.643 1v37.376h80.813v-15h-62.813c-1.656 0-3-1.343-3-3z" fill="#a2abb8"/><path d="m317.732 147.672h-123.464c-5.523 0-10-4.477-10-10v-28.508c0-5.523 4.477-10 10-10l4-1h120.463c5.523 0 10 4.477 10 10v25.508l-1 4c.001 5.523-4.476 10-9.999 10z" fill="#909ba6"/><path d="m198.268 130.672v-32.508h-5c-5.523 0-10 4.477-10 10v30.508c0 5.523 4.477 10 10 10h125.463c5.523 0 10-4.477 10-10v-5h-127.463c-1.657 0-3-1.343-3-3z" fill="#7e8b96"/><g><path d="m328.732 396.5h-125.464l-3-2v-146l3-2h125.464z" fill="#ffe07d"/></g><g><path d="m294 306.5h-21c-1.105 0-2-.895-2-2v-21c0-1.105-.895-2-2-2h-18.361l-7.639 1.928c-1.105 0-.072.895-.072 2v19.072c0 1.105-2.823 2-3.928 2h-13.361l-6.675.964c-1.105 0-2 .895-2 2v24.072c0 1.105.895 2 2 2h21c1.105 0 2 .895 2 2v21c0 1.105.895 2 2 2h24.072c1.105 0 2-.895 2-2l.964-6.675v-13.361c0-1.105.895-3.928 2-3.928l20.036.964c1.105 0 2-.895 2-2l.964-6.675v-18.361c0-1.105-.895-2-2-2z" fill="#f9f8f9"/><g fill="#e8e8e8"><path d="m278.711 326.861c-4.259 0-7.711 3.452-7.711 7.711v3.928c0-1.105.895-2 2-2h21c1.105 0 2-.895 2-2v-7.639z"/><path d="m252.638 351.861c-1.105 0-2-.895-2-2v-15.289c0-4.259-3.452-7.711-7.711-7.711h-15.289c-1.105 0-2-.895-2-2v-18.361h-7.638c-1.105 0-2 .895-2 2v26c0 1.105.895 2 2 2h21c1.105 0 2 .895 2 2v21c0 1.105.895 2 2 2h26c1.105 0 2-.895 2-2v-7.639z"/></g><g><path d="m250.639 298.789v-17.289h-7.639c-1.105 0-2 .895-2 2v21c0 1.105-.895 2-2 2h3.928c4.258 0 7.711-3.452 7.711-7.711z" fill="#e8e8e8"/></g></g><path d="m183.268 246.5h20v150h-20z" fill="#ffd064"/></g><g><path d="m391.362 186.048h-7.071c-1.802 0-3.56.189-5.255.547-11.425 2.418-17.999 14.561-17.999 26.707v213.667c0 9.484 8.689 15.173 18.173 15.173h106.118c9.484 0 18.173-5.689 18.173-15.173l1-2.827v-27.642l-3-75 3-75v-35.198c0-13.947-11.307-25.254-25.254-25.254h-7.071l-39.406-2.92z" fill="#c8effe"/><path d="m379.036 421.141v-24.641l-2-75 2-75-.001-59.905c-11.425 2.418-19.999 12.561-19.999 24.707v35.198l2 75-2 75v30.469c0 9.484 7.689 17.173 17.173 17.173h111.118c9.484 0 17.173-7.689 17.173-17.173v-2.827h-122.464c-1.656-.001-3-1.344-3-3.001z" fill="#a9e5f7"/><path d="m489.863 97.164h-116.189v-18.204c0-5.579 4.523-10.102 10.102-10.102l3.898-1h93.087c5.579 0 10.102 4.523 10.102 10.102v5.203z" fill="#b9c3cd"/><path d="m387.674 80.164v-12.305h-4.898c-5.579 0-10.102 4.523-10.102 10.102v20.203l59.095 2 59.095-2v-15h-100.19c-1.657 0-3-1.344-3-3z" fill="#a2abb8"/><path d="m459.268 186v15c0 8.284-7.716 14-16 14h-24c-8.284 0-14-6.716-14-15v-13.016l14-.996 19.694-1.995z" fill="#b9c3cd"/><path d="m419.268 186.019-7.668-2.018-7.332 1.983v15.016c0 8.284 6.716 15 15 15h25c8.284 0 15-6.716 15-15h-37c-1.657 0-3-1.343-3-3z" fill="#a2abb8"/><path d="m471.175 185.048 1-14v-22.376l-35.936-2-29.877 2-14 1v35.376z" fill="#b9c3cd"/><path d="m406.362 168.048v-19.376l-7.357-1-7.643 1v37.376h80.813v-15h-62.813c-1.657 0-3-1.343-3-3z" fill="#a2abb8"/><path d="m493.5 147.672h-123.464c-5.523 0-10-4.477-10-10v-28.508c0-5.523 4.477-10 10-10l4-1h120.464c5.523 0 10 4.477 10 10v25.508l-1 4c0 5.523-4.477 10-10 10z" fill="#909ba6"/><path d="m374.036 130.672v-32.508h-5c-5.523 0-10 4.477-10 10v30.508c0 5.523 4.477 10 10 10h125.464c5.523 0 10-4.477 10-10v-5h-127.464c-1.656 0-3-1.343-3-3z" fill="#7e8b96"/><g><path d="m504.5 396.5h-125.464l-3-2v-146l3-2h125.464z" fill="#ffe07d"/></g><g><path d="m469.768 306.5h-21c-1.105 0-2-.895-2-2v-21c0-1.105-.895-2-2-2h-18.361l-7.639 1.928c-1.105 0-.072.895-.072 2v19.072c0 1.105-2.823 2-3.928 2h-13.361l-6.675.964c-1.105 0-2 .895-2 2v24.072c0 1.105.895 2 2 2h21c1.105 0 2 .895 2 2v21c0 1.105.895 2 2 2h24.072c1.105 0 2-.895 2-2l.964-6.675v-13.361c0-1.105.895-3.928 2-3.928l20.036.964c1.105 0 2-.895 2-2l.964-6.675v-18.361c0-1.105-.895-2-2-2z" fill="#f9f8f9"/><g fill="#e8e8e8"><path d="m454.479 326.861c-4.259 0-7.711 3.452-7.711 7.711v3.928c0-1.105.895-2 2-2h21c1.105 0 2-.895 2-2v-7.639z"/><path d="m428.407 351.861c-1.105 0-2-.895-2-2v-15.289c0-4.259-3.452-7.711-7.711-7.711h-15.289c-1.105 0-2-.895-2-2v-18.361h-7.639c-1.105 0-2 .895-2 2v26c0 1.105.895 2 2 2h21c1.105 0 2 .895 2 2v21c0 1.105.895 2 2 2h26c1.105 0 2-.895 2-2v-7.639z"/></g><g><path d="m426.407 298.789v-17.289h-7.639c-1.105 0-2 .895-2 2v21c0 1.105-.895 2-2 2h3.928c4.258 0 7.711-3.452 7.711-7.711z" fill="#e8e8e8"/></g></g><path d="m359.036 246.5h20v150h-20z" fill="#ffd064"/></g><g><path d="m39.825 186.048h-7.071c-1.802 0-3.56.189-5.255.547-11.425 2.418-17.999 14.561-17.999 26.707v213.667c0 9.484 8.689 15.173 18.173 15.173h106.118c9.484 0 18.173-5.689 18.173-15.173l1-2.827v-27.642l-3-75 3-75v-35.198c0-13.947-11.307-25.254-25.254-25.254h-7.071l-39.407-2.92z" fill="#c8effe"/><path d="m27.5 421.141v-24.641l-2-75 2-75-.001-59.905c-11.425 2.418-19.999 12.561-19.999 24.707v35.198l2 75-2 75v30.469c0 9.484 7.688 17.173 17.173 17.173h111.118c9.484 0 17.173-7.689 17.173-17.173v-2.827h-122.464c-1.657-.001-3-1.344-3-3.001z" fill="#a9e5f7"/><path d="m138.326 97.164h-116.189v-18.204c0-5.579 4.523-10.102 10.102-10.102l3.898-1h93.087c5.579 0 10.102 4.523 10.102 10.102v5.203z" fill="#b9c3cd"/><path d="m36.137 80.164v-12.305h-4.898c-5.579 0-10.102 4.523-10.102 10.102v20.203l59.095 2 59.095-2v-15h-100.19c-1.657 0-3-1.344-3-3z" fill="#a2abb8"/><path d="m107.732 186v15c0 8.284-7.716 14-16 14h-24c-8.284 0-14-6.716-14-15v-13.016l14-.996 19.694-1.995z" fill="#b9c3cd"/><path d="m67.732 186.019-7.668-2.018-7.332 1.983v15.016c0 8.284 6.716 15 15 15h25c8.284 0 15-6.716 15-15h-37c-1.657 0-3-1.343-3-3z" fill="#a2abb8"/><path d="m119.638 185.048 1-14v-22.376l-35.936-2-29.877 2-14 1v35.376z" fill="#b9c3cd"/><path d="m54.825 168.048v-19.376l-7.357-1-7.643 1v37.376h80.813v-15h-62.813c-1.657 0-3-1.343-3-3z" fill="#a2abb8"/><path d="m141.963 147.672h-123.463c-5.523 0-10-4.477-10-10v-28.508c0-5.523 4.477-10 10-10l4-1h120.463c5.523 0 10 4.477 10 10v25.508l-1 4c0 5.523-4.477 10-10 10z" fill="#909ba6"/><path d="m22.5 130.672v-32.508h-5c-5.523 0-10 4.477-10 10v30.508c0 5.523 4.477 10 10 10h125.463c5.523 0 10-4.477 10-10v-5h-127.463c-1.657 0-3-1.343-3-3z" fill="#7e8b96"/><g><path d="m152.963 396.5h-125.463l-3-2v-146l3-2h125.463z" fill="#ffe07d"/></g><g><path d="m118.232 306.5h-21c-1.105 0-2-.895-2-2v-21c0-1.105-.895-2-2-2h-18.362l-7.639 1.928c-1.105 0-.072.895-.072 2v19.072c0 1.105-2.823 2-3.928 2h-13.361l-6.675.964c-1.105 0-2 .895-2 2v24.072c0 1.105.895 2 2 2h21c1.105 0 2 .895 2 2v21c0 1.105.895 2 2 2h24.072c1.105 0 2-.895 2-2l.964-6.675v-13.361c0-1.105.895-3.928 2-3.928l20.036.964c1.105 0 2-.895 2-2l.964-6.675v-18.361c.001-1.105-.895-2-1.999-2z" fill="#f9f8f9"/><g fill="#e8e8e8"><path d="m102.943 326.861c-4.259 0-7.711 3.452-7.711 7.711v3.928c0-1.105.895-2 2-2h21c1.105 0 2-.895 2-2v-7.639z"/><path d="m76.87 351.861c-1.105 0-2-.895-2-2v-15.289c0-4.259-3.452-7.711-7.711-7.711h-15.289c-1.105 0-2-.895-2-2v-18.361h-7.639c-1.105 0-2 .895-2 2v26c0 1.105.895 2 2 2h21c1.105 0 2 .895 2 2v21c0 1.105.895 2 2 2h26c1.105 0 2-.895 2-2v-7.639z"/></g><g><path d="m74.87 298.789v-17.289h-7.639c-1.105 0-2 .895-2 2v21c0 1.105-.895 2-2 2h3.928c4.259 0 7.711-3.452 7.711-7.711z" fill="#e8e8e8"/></g></g><path d="m7.5 246.5h20v150h-20z" fill="#ffd064"/></g></g><g><path d="m146.826 91.107v-13.147c0-9.706-7.896-17.602-17.602-17.602h-32.628c-4.142 0-7.5 3.358-7.5 7.5s3.358 7.5 7.5 7.5h32.629c1.435 0 2.602 1.167 2.602 2.602v12.703h-103.19v-12.703c0-1.435 1.167-2.602 2.602-2.602h30.357c4.142 0 7.5-3.358 7.5-7.5s-3.358-7.5-7.5-7.5h-30.357c-9.706 0-17.602 7.896-17.602 17.602v13.147c-7.794 1.766-13.637 8.736-13.637 17.057v30.508c0 9.649 7.851 17.5 17.5 17.5h14.825v22.387c-17.863.231-32.325 14.826-32.325 32.743v215.667c0 13.604 11.068 24.673 24.673 24.673h111.118c13.604 0 24.673-11.068 24.673-24.673v-61.849c0-4.142-3.358-7.5-7.5-7.5s-7.5 3.358-7.5 7.5v23.88h-130.464v-135h130.463v76.12c0 4.142 3.358 7.5 7.5 7.5s7.5-3.358 7.5-7.5v-118.818c0-17.917-14.462-32.512-32.325-32.743v-22.387h14.825c9.649 0 17.5-7.851 17.5-17.5v-30.508c0-8.321-5.842-15.291-13.637-17.057zm-86.594 102.441h40v7.452c0 4.136-3.364 7.5-7.5 7.5h-25c-4.136 0-7.5-3.364-7.5-7.5zm85.231 210.452v22.968c0 5.333-4.339 9.673-9.673 9.673h-111.117c-5.333 0-9.673-4.339-9.673-9.673v-22.968zm0-192.698v27.698h-130.463v-27.698c0-9.79 7.964-17.754 17.754-17.754h12.478v7.452c0 12.407 10.093 22.5 22.5 22.5h25c12.407 0 22.5-10.093 22.5-22.5v-7.452h12.478c9.789 0 17.753 7.964 17.753 17.754zm-32.325-32.754h-65.813v-22.376h65.813zm32.325-39.876c0 1.378-1.122 2.5-2.5 2.5h-125.463c-1.378 0-2.5-1.122-2.5-2.5v-30.508c0-1.378 1.122-2.5 2.5-2.5h125.463c1.378 0 2.5 1.122 2.5 2.5z"/><path d="m67.232 369h26c5.238 0 9.5-4.262 9.5-9.5v-15.5h15.5c5.238 0 9.5-4.262 9.5-9.5v-26c0-5.238-4.262-9.5-9.5-9.5h-15.5v-15.5c0-5.238-4.262-9.5-9.5-9.5h-26c-5.238 0-9.5 4.262-9.5 9.5v15.5h-15.5c-5.238 0-9.5 4.262-9.5 9.5v26c0 5.238 4.262 9.5 9.5 9.5h15.5v15.5c0 5.238 4.262 9.5 9.5 9.5zm-19.5-40v-15h15.5c5.238 0 9.5-4.262 9.5-9.5v-15.5h15v15.5c0 5.238 4.262 9.5 9.5 9.5h15.5v15h-15.5c-5.238 0-9.5 4.262-9.5 9.5v15.5h-15v-15.5c0-5.238-4.262-9.5-9.5-9.5z"/><path d="m322.595 91.108v-13.148c0-9.706-7.896-17.602-17.602-17.602h-97.986c-9.706 0-17.602 7.896-17.602 17.602v13.147c-7.795 1.765-13.637 8.735-13.637 17.056v30.508c0 9.649 7.851 17.5 17.5 17.5h14.825v22.387c-17.863.232-32.325 14.826-32.325 32.743v215.667c0 13.604 11.068 24.673 24.673 24.673h111.118c13.604 0 24.673-11.068 24.673-24.673v-104.436c0-4.142-3.357-7.5-7.5-7.5s-7.5 3.358-7.5 7.5v66.468h-130.464v-135h130.463v33.532c0 4.142 3.357 7.5 7.5 7.5s7.5-3.358 7.5-7.5v-76.23c0-17.917-14.462-32.512-32.325-32.743v-22.387h14.825c9.649 0 17.5-7.851 17.5-17.5v-30.508c0-8.321-5.842-15.291-13.636-17.056zm-115.588-15.749h97.986c1.435 0 2.602 1.167 2.602 2.602v12.703h-103.19v-12.704c0-1.434 1.168-2.601 2.602-2.601zm28.993 118.189h40v7.452c0 4.136-3.364 7.5-7.5 7.5h-25c-4.136 0-7.5-3.364-7.5-7.5zm85.231 210.452v22.968c0 5.333-4.339 9.673-9.673 9.673h-111.117c-5.333 0-9.673-4.339-9.673-9.673v-22.968zm0-192.698v27.698h-130.463v-27.698c0-9.79 7.964-17.754 17.754-17.754h12.478v7.452c0 12.407 10.093 22.5 22.5 22.5h25c12.406 0 22.5-10.093 22.5-22.5v-7.452h12.478c9.79 0 17.753 7.964 17.753 17.754zm-32.325-32.754h-65.813v-22.376h65.813zm32.325-39.876c0 1.378-1.121 2.5-2.5 2.5h-125.463c-1.378 0-2.5-1.122-2.5-2.5v-30.508c0-1.378 1.122-2.5 2.5-2.5h125.463c1.379 0 2.5 1.122 2.5 2.5z"/><path d="m243 369h26c5.238 0 9.5-4.262 9.5-9.5v-15.5h15.5c5.238 0 9.5-4.262 9.5-9.5v-26c0-5.238-4.262-9.5-9.5-9.5h-15.5v-15.5c0-5.238-4.262-9.5-9.5-9.5h-26c-5.238 0-9.5 4.262-9.5 9.5v15.5h-15.5c-5.238 0-9.5 4.262-9.5 9.5v26c0 5.238 4.262 9.5 9.5 9.5h15.5v15.5c0 5.238 4.262 9.5 9.5 9.5zm-19.5-40v-15h15.5c5.238 0 9.5-4.262 9.5-9.5v-15.5h15v15.5c0 5.238 4.262 9.5 9.5 9.5h15.5v15h-15.5c-5.238 0-9.5 4.262-9.5 9.5v15.5h-15v-15.5c0-5.238-4.262-9.5-9.5-9.5z"/><path d="m494.5 156.172c9.649 0 17.5-7.851 17.5-17.5v-30.508c0-8.321-5.842-15.291-13.637-17.056v-13.148c0-9.706-7.896-17.602-17.603-17.602h-97.985c-9.705 0-17.602 7.896-17.602 17.602v13.147c-7.795 1.765-13.638 8.735-13.638 17.056v30.508c0 9.649 7.851 17.5 17.5 17.5h14.825v22.387c-17.863.232-32.325 14.826-32.325 32.743v215.667c0 13.604 11.068 24.673 24.673 24.673h111.118c13.604 0 24.673-11.068 24.673-24.673v-215.666c0-17.917-14.462-32.512-32.325-32.743v-22.387zm-127.964-17.5v-30.508c0-1.378 1.121-2.5 2.5-2.5h35.232c4.143 0 7.5-3.358 7.5-7.5s-3.357-7.5-7.5-7.5h-24.095v-12.704c0-1.435 1.167-2.602 2.602-2.602h97.985c1.435 0 2.603 1.167 2.603 2.602v12.703h-44.095c-4.143 0-7.5 3.358-7.5 7.5s3.357 7.5 7.5 7.5h55.232c1.379 0 2.5 1.122 2.5 2.5v30.508c0 1.378-1.121 2.5-2.5 2.5h-125.464c-1.379.001-2.5-1.121-2.5-2.499zm45.233 54.876h40v7.452c0 4.136-3.364 7.5-7.5 7.5h-25c-4.136 0-7.5-3.364-7.5-7.5zm85.231 195.452h-130.464v-135h130.464zm-9.673 47.641h-111.118c-5.334 0-9.673-4.339-9.673-9.673v-22.968h130.464v22.968c0 5.334-4.339 9.673-9.673 9.673zm9.673-225.339v27.698h-130.464v-27.698c0-9.79 7.965-17.754 17.755-17.754h12.478v7.452c0 12.407 10.094 22.5 22.5 22.5h25c12.406 0 22.5-10.093 22.5-22.5v-7.452h12.478c9.788 0 17.753 7.964 17.753 17.754zm-32.325-32.754h-65.813v-22.376h65.813z"/><path d="m393.769 344h15.5v15.5c0 5.238 4.262 9.5 9.5 9.5h26c5.238 0 9.5-4.262 9.5-9.5v-15.5h15.5c5.238 0 9.5-4.262 9.5-9.5v-26c0-5.238-4.262-9.5-9.5-9.5h-15.5v-15.5c0-5.238-4.262-9.5-9.5-9.5h-26c-5.238 0-9.5 4.262-9.5 9.5v15.5h-15.5c-5.238 0-9.5 4.262-9.5 9.5v26c0 5.238 4.261 9.5 9.5 9.5zm5.5-30h15.5c5.238 0 9.5-4.262 9.5-9.5v-15.5h15v15.5c0 5.238 4.262 9.5 9.5 9.5h15.5v15h-15.5c-5.238 0-9.5 4.262-9.5 9.5v15.5h-15v-15.5c0-5.238-4.262-9.5-9.5-9.5h-15.5z"/></g></g></svg>