<svg id="Capa_1" enable-background="new 0 0 512 512" height="512" viewBox="0 0 512 512" width="512" xmlns="http://www.w3.org/2000/svg"><g><g><path d="m292.755 435.351-12.211-38.101h-49.088l-12.234 38.17z" fill="#7e8b96"/><path d="m323.723 472.106c5.545 0 11.234-1.836 11.234-7.66 0 0 1.933-3.244 1.723-4.697-2.045-14.154-13.68-25-27.727-25h-105.906c-3.703 0-7.238.758-10.474 2.127-10.301 4.359-16.054 27.453-16.054 27.453 0 5.823 3.448 8.627 8.993 8.627z" fill="#909ba6"/><path d="m200.04 459.75c-5.545 0-10.04-4.721-10.04-10.544 0-4.402.924-8.578 2.572-12.329-10.3 4.359-17.572 14.95-17.572 27.329 0 5.823 4.495 10.544 10.04 10.544h141.92c5.545 0 10.04-4.721 10.04-10.544 0-1.515-.109-3.003-.319-4.456z" fill="#7e8b96"/><path d="m500 373.362c0 10.846-8.792 19.638-19.638 19.638h-448.724c-10.846 0-19.638-8.793-19.638-19.638v-313.224c0-10.846 8.792-19.638 19.638-19.638h448.724c10.846 0 19.638 8.792 19.638 19.638z" fill="#f9f8f9"/><path d="m35.5 373.25c-2.761 0-5-2.239-5-5v-331h-3c-11.046 0-20 8.954-20 20v319c0 11.046 8.954 20 20 20h457c11.046 0 20-8.954 20-20v-3z" fill="#e8e8e8"/><g><g><g fill="#afefa5"><path d="m123.362 271.5c0-10.518-7.121-19.371-16.805-22.006-1.912-.52-3.924.199-6.001.199-12.595 0-21.806 9.211-21.806 21.806s9.211 21.806 21.806 21.806c2.077 0 4.089.72 6.001.199 9.684-2.633 16.805-11.486 16.805-22.004z"/><path d="m226.75 271.5c0-10.518-7.122-19.371-16.805-22.006-1.912-.52-3.924.199-6.001.199-12.595 0-21.806 9.211-21.806 21.806s9.211 21.806 21.806 21.806c2.077 0 4.088.72 6.001.199 9.683-2.633 16.805-11.486 16.805-22.004z"/><path d="m152.25 301.388c-12.595 0-21.806 9.211-21.806 21.806s9.211 21.806 21.806 21.806c2.077 0 4.089.72 6.001.199 9.684-2.634 16.805-11.487 16.805-22.005s-7.121-19.371-16.805-22.006c-1.913-.52-3.924.2-6.001.2z"/><path d="m152.25 198c-12.595 0-21.806 9.211-21.806 21.806s9.211 21.806 21.806 21.806c2.077 0 4.089.72 6.001.199 9.684-2.635 16.805-11.487 16.805-22.006s-7.122-19.371-16.805-22.006c-1.913-.519-3.924.201-6.001.201z"/></g><path d="m130.133 293.617c-1.408-1.408-3.025-2.476-4.749-3.216-5.548-2.382-11.223-.314-15.753 4.216-5.938 5.938-5.938 13.564 0 19.502 4.53 4.53 10.205 6.598 15.753 4.216 1.724-.74 3.341-1.809 4.749-3.216 5.938-5.938 5.938-15.565 0-21.502z" fill="#8ce1a4"/><path d="m195.868 227.882c-1.407-1.408-3.025-2.476-4.748-3.216-5.548-2.382-11.223-.314-15.753 4.216-5.938 5.938-5.938 13.564 0 19.502 4.453 4.453 9.981 6.566 15.472 4.34 1.83-.742 3.545-1.855 5.03-3.34 5.937-5.938 5.937-15.565-.001-21.502z" fill="#8ce1a4"/><path d="m175.367 294.617c-5.938 5.938-5.938 13.564 0 19.502 4.53 4.53 10.205 6.598 15.753 4.216 1.724-.74 3.341-1.809 4.748-3.216 5.938-5.938 5.938-15.564 0-21.502-1.407-1.408-3.025-2.476-4.748-3.216-5.548-2.383-11.223-.314-15.753 4.216z" fill="#8ce1a4"/><path d="m109.632 228.882c-5.938 5.938-5.938 13.564 0 19.502 4.453 4.453 9.981 6.566 15.472 4.34 1.83-.742 3.545-1.855 5.03-3.34 5.938-5.938 5.938-15.564 0-21.502-1.408-1.408-3.025-2.476-4.748-3.216-5.549-2.383-11.224-.315-15.754 4.216z" fill="#8ce1a4"/></g><g><g fill="#8ce1a4"><path d="m89.75 271.5c0-10.518 7.123-19.371 16.807-22.006-1.912-.52-3.923-.801-6.001-.801-12.596 0-22.806 10.211-22.806 22.806s10.211 22.806 22.806 22.806c2.077 0 4.088-.28 6.001-.801-9.684-2.633-16.807-11.486-16.807-22.004z"/><path d="m193.138 271.5c0-10.518 7.123-19.371 16.807-22.006-1.912-.52-3.923-.801-6.001-.801-12.595 0-22.806 10.211-22.806 22.806s10.211 22.806 22.806 22.806c2.077 0 4.088-.28 6.001-.801-9.684-2.633-16.807-11.486-16.807-22.004z"/><path d="m141.444 323.194c0-10.518 7.123-19.371 16.807-22.005-1.912-.52-3.923-.801-6.001-.801-12.595 0-22.806 10.211-22.806 22.806s10.211 22.806 22.806 22.806c2.077 0 4.088-.28 6.001-.801-9.684-2.634-16.807-11.487-16.807-22.005z"/><path d="m141.444 219.806c0-10.518 7.123-19.371 16.807-22.005-1.912-.52-3.923-.801-6.001-.801-12.595 0-22.806 10.211-22.806 22.806 0 12.596 10.211 22.806 22.806 22.806 2.077 0 4.088-.28 6.001-.801-9.684-2.634-16.807-11.487-16.807-22.005z"/></g><path d="m120.632 315.118c-5.938-5.938-5.938-15.564 0-21.502 1.408-1.408 3.029-2.476 4.753-3.216-5.548-2.382-12.223-1.314-16.753 3.216-5.938 5.938-5.938 15.564 0 21.502 4.53 4.53 11.205 5.598 16.753 3.216-1.724-.74-3.346-1.808-4.753-3.216z" fill="#7bd6a4"/><path d="m186.367 249.383c-5.938-5.938-5.938-15.564 0-21.502 1.408-1.408 3.029-2.476 4.753-3.216-5.548-2.382-12.223-1.314-16.753 3.216-5.938 5.938-5.938 15.564 0 21.502 4.53 4.53 11.212 5.602 16.76 3.22-1.725-.74-3.353-1.812-4.76-3.22z" fill="#7bd6a4"/><path d="m186.367 315.118c-5.938-5.938-5.938-15.564 0-21.502 1.408-1.408 3.029-2.476 4.753-3.216-5.548-2.382-12.223-1.314-16.753 3.216-5.938 5.938-5.938 15.564 0 21.502 4.53 4.53 11.205 5.598 16.753 3.216-1.724-.74-3.346-1.808-4.753-3.216z" fill="#7bd6a4"/><path d="m120.632 249.383c-5.938-5.938-5.938-15.564 0-21.502 1.408-1.408 3.029-2.476 4.753-3.216-5.548-2.382-12.223-1.314-16.753 3.216-5.938 5.938-5.938 15.564 0 21.502 4.53 4.53 11.205 5.604 16.753 3.223-1.724-.74-3.346-1.815-4.753-3.223z" fill="#7bd6a4"/></g><g><g fill="#e27f86"><path d="m326.857 201.393c-1.229-1.229-2.612-2.197-4.094-2.911-5.583-2.687-11.49-.719-16.119 3.911-5.858 5.858-5.858 13.355 0 19.213 4.629 4.629 10.531 6.6 16.114 3.913 1.482-.713 2.871-1.684 4.099-2.913 5.857-5.857 5.857-15.355 0-21.213z"/><path d="m395.857 201.393c-1.229-1.229-2.614-2.198-4.096-2.911-5.583-2.687-11.488-.718-16.117 3.911-5.858 5.858-5.858 13.355 0 19.213 4.629 4.629 10.535 6.598 16.117 3.911 1.482-.713 2.867-1.682 4.096-2.911 5.857-5.857 5.857-15.355 0-21.213z"/><path d="m326.857 320.393c-1.227-1.227-2.613-2.196-4.091-2.909-5.584-2.692-12.07-1.328-16.701 3.303-5.858 5.858-5.986 14.61-.128 20.468 4.633 4.633 11.249 5.953 16.833 3.258 1.477-.713 2.862-1.682 4.087-2.907 5.857-5.857 5.857-15.355 0-21.213z"/><path d="m395.857 320.393c-1.231-1.231-2.622-2.203-4.107-2.916-5.581-2.683-11.479-.711-16.107 3.916-5.858 5.858-5.858 13.355 0 19.213 4.632 4.632 10.54 6.601 16.125 3.908 1.478-.713 2.863-1.682 4.088-2.908 5.858-5.857 5.858-15.355.001-21.213z"/><path d="m292.857 260.893c-1.229-1.229-2.615-2.198-4.096-2.911-5.583-2.687-11.488-.718-16.117 3.911-5.858 5.858-5.858 13.355 0 19.213 4.629 4.629 10.531 6.6 16.114 3.913 1.482-.713 2.871-1.684 4.099-2.913 5.857-5.857 5.857-15.355 0-21.213z"/><path d="m429.857 260.893c-1.227-1.227-2.614-2.199-4.094-2.912-5.583-2.69-11.489-.719-16.119 3.912-5.858 5.858-5.858 13.355 0 19.213 4.631 4.631 10.536 6.601 16.12 3.91 1.48-.713 2.866-1.683 4.094-2.91 5.856-5.857 5.856-15.355-.001-21.213z"/><path d="m367.513 255.237c-2.807-2.807-6.183-4.743-9.739-5.795 0 0-.501.019-.699-.033-7.623-1.999-15.07.81-21.089 6.829-8.982 8.982-8.982 21.545 0 30.527 5.736 5.736 12.851 8.496 20.112 7.026.54-.109 1.652-.224 1.652-.224 3.574-1.049 6.944-2.983 9.763-5.802 8.983-8.984 8.983-23.546 0-32.528z"/></g><path d="m318.643 222.607c-5.858-5.858-5.858-15.355 0-21.213 1.229-1.229 2.637-2.197 4.119-2.91-5.582-2.686-12.49-1.718-17.119 2.91-5.858 5.858-5.858 15.355 0 21.213 4.629 4.629 11.531 5.599 17.114 2.913-1.482-.714-2.884-1.684-4.114-2.913z" fill="#df646e"/><path d="m387.643 222.607c-5.858-5.858-5.858-15.355 0-21.213 1.229-1.229 2.635-2.198 4.118-2.911-5.582-2.686-12.489-1.717-17.118 2.911-5.858 5.858-5.858 15.355 0 21.213 4.629 4.629 11.535 5.597 17.118 2.911-1.483-.714-2.888-1.682-4.118-2.911z" fill="#df646e"/><path d="m318.643 341.607c-5.858-5.858-5.858-15.355 0-21.213 1.229-1.229 2.639-2.196 4.122-2.909-5.582-2.686-12.493-1.72-17.122 2.909-5.858 5.858-5.858 15.355 0 21.213 4.629 4.629 11.544 5.593 17.126 2.907-1.482-.714-2.896-1.678-4.126-2.907z" fill="#df646e"/><path d="m387.643 341.607c-5.858-5.858-5.858-15.355 0-21.213 1.229-1.229 2.624-2.203 4.107-2.916-5.582-2.686-12.478-1.712-17.107 2.916-5.858 5.858-5.858 15.355 0 21.213 4.629 4.629 11.542 5.594 17.125 2.908-1.482-.714-2.895-1.679-4.125-2.908z" fill="#df646e"/><path d="m284.643 282.107c-5.858-5.858-5.858-15.355 0-21.213 1.229-1.229 2.635-2.198 4.117-2.911-5.582-2.686-12.488-1.717-17.117 2.911-5.858 5.858-5.858 15.355 0 21.213 4.629 4.629 11.532 5.599 17.114 2.913-1.482-.714-2.884-1.684-4.114-2.913z" fill="#df646e"/><path d="m421.643 282.107c-5.858-5.858-5.858-15.355 0-21.213 1.229-1.229 2.637-2.198 4.119-2.912-5.582-2.686-12.49-1.717-17.119 2.912-5.858 5.858-5.858 15.355 0 21.213 4.629 4.629 11.537 5.596 17.12 2.91-1.482-.714-2.89-1.681-4.12-2.91z" fill="#df646e"/><path d="m347.987 287.763c-8.982-8.982-8.982-23.545 0-32.527 2.82-2.82 6.214-4.746 9.788-5.795-7.812-2.294-16.625-.367-22.788 5.795-8.982 8.982-8.982 23.545 0 32.527 6.163 6.163 14.952 8.096 22.764 5.802-3.575-1.049-6.945-2.982-9.764-5.802z" fill="#df646e"/></g></g></g><g><path d="m484.5 29.75h-287.5c-4.142 0-7.5 3.358-7.5 7.5s3.358 7.5 7.5 7.5h287.5c6.893 0 12.5 5.607 12.5 12.5v112.559c0 4.142 3.357 7.5 7.5 7.5s7.5-3.358 7.5-7.5v-112.559c0-15.164-12.337-27.5-27.5-27.5z"/><path d="m504.5 197.31c-4.14 0-7.5 3.36-7.5 7.5v171.44c0 6.89-5.61 12.5-12.5 12.5h-457c-6.89 0-12.5-5.61-12.5-12.5v-319c0-6.89 5.61-12.5 12.5-12.5h134.5c4.14 0 7.5-3.36 7.5-7.5s-3.36-7.5-7.5-7.5h-134.5c-15.16 0-27.5 12.34-27.5 27.5v319c0 15.16 12.34 27.5 27.5 27.5h194l-7.53 23.5h-10.92c-19.6 0-35.55 16.58-35.55 36.96 0 9.95 7.87 18.04 17.54 18.04h46.42c4.14 0 7.5-3.36 7.5-7.5s-3.36-7.5-7.5-7.5h-46.42c-1.4 0-2.54-1.37-2.54-3.04 0-12.11 9.22-21.96 20.55-21.96h105.9c11.33 0 20.55 9.85 20.55 21.96 0 1.67-1.14 3.04-2.54 3.04h-60.5c-4.15 0-7.5 3.36-7.5 7.5s3.35 7.5 7.5 7.5h60.5c9.67 0 17.54-8.09 17.54-18.04 0-20.38-15.95-36.96-35.55-36.96h-10.91l-7.54-23.5h194c15.16 0 27.5-12.34 27.5-27.5v-171.44c0-4.14-3.36-7.5-7.5-7.5zm-274.78 229.94 7.53-23.5h37.5l7.53 23.5z"/><path d="m60 94.75h73c4.142 0 7.5-3.358 7.5-7.5s-3.358-7.5-7.5-7.5h-73c-4.142 0-7.5 3.358-7.5 7.5s3.358 7.5 7.5 7.5z"/><path d="m453 124.75c4.143 0 7.5-3.358 7.5-7.5s-3.357-7.5-7.5-7.5h-71.75c-4.143 0-7.5 3.358-7.5 7.5s3.357 7.5 7.5 7.5z"/><path d="m351.25 109.75h-231.25c-4.142 0-7.5 3.358-7.5 7.5s3.358 7.5 7.5 7.5h231.25c4.143 0 7.5-3.358 7.5-7.5s-3.357-7.5-7.5-7.5z"/><path d="m60 124.75h30c4.142 0 7.5-3.358 7.5-7.5s-3.358-7.5-7.5-7.5h-30c-4.142 0-7.5 3.358-7.5 7.5s3.358 7.5 7.5 7.5z"/><path d="m345.633 147.25c0 4.142 3.357 7.5 7.5 7.5h99.867c4.143 0 7.5-3.358 7.5-7.5s-3.357-7.5-7.5-7.5h-99.867c-4.143 0-7.5 3.358-7.5 7.5z"/><path d="m325.633 147.25c0-4.142-3.357-7.5-7.5-7.5h-134.867c-4.142 0-7.5 3.358-7.5 7.5s3.358 7.5 7.5 7.5h134.867c4.142 0 7.5-3.358 7.5-7.5z"/><path d="m60 154.75h93.266c4.142 0 7.5-3.358 7.5-7.5s-3.358-7.5-7.5-7.5h-93.266c-4.142 0-7.5 3.358-7.5 7.5s3.358 7.5 7.5 7.5z"/><path d="m60 184.75h30.5c4.142 0 7.5-3.358 7.5-7.5s-3.358-7.5-7.5-7.5h-30.5c-4.142 0-7.5 3.358-7.5 7.5s3.358 7.5 7.5 7.5z"/><g><path d="m234.25 271.5c0-15.47-11.65-28.25-26.63-30.08.82-6.7-1.31-13.71-6.45-18.84-5.14-5.14-12.14-7.27-18.84-6.45-1.83-14.98-14.61-26.63-30.08-26.63s-28.25 11.65-30.08 26.63c-6.7-.82-13.7 1.31-18.84 6.45-5.14 5.13-7.27 12.14-6.45 18.84-14.98 1.83-26.63 14.61-26.63 30.08s11.65 28.25 26.63 30.08c-.82 6.7 1.31 13.71 6.45 18.84 4.65 4.2 11.24 7.51 18.84 6.45 1.83 14.98 14.61 26.63 30.08 26.63s28.25-11.65 30.08-26.63c5.57.74 13.28-.99 18.84-6.45 5.14-5.13 7.27-12.14 6.45-18.84 14.98-1.83 26.63-14.61 26.63-30.08zm-49.07-40.48c4.17 0 7.55 3.38 7.55 7.55s-3.38 7.56-7.55 7.56-7.56-3.39-7.56-7.56 3.39-7.55 7.56-7.55zm-32.39-26.51c7.72.27 14.17 6.49 14.73 14.19.77 7.21-5.66 16.37-15.27 16.41-7.62-.4-14.96-5.63-15.31-15.3 0-8.62 7.17-15.6 15.85-15.3zm-52.23 82.3c-8.63 0-15.61-7.17-15.3-15.86.27-7.72 6.49-14.16 14.19-14.72 6.96-.74 15.72 5.21 16.37 14.25.05.68.03 1.36-.04 2.03-.79 7.25-5.98 13.97-15.22 14.3zm18.77 25.11c-4.18 0-7.56-3.38-7.56-7.55s3.38-7.56 7.56-7.56c4.17 0 7.55 3.39 7.55 7.56s-3.38 7.55-7.55 7.55zm0-65.79c-4.18 0-7.56-3.39-7.56-7.56s3.38-7.55 7.56-7.55c4.17 0 7.55 3.38 7.55 7.55s-3.38 7.56-7.55 7.56zm32.38 92.36c-7.72-.27-14.17-6.49-14.73-14.19-.77-7.21 5.66-16.37 15.27-16.41 7.62.4 14.96 5.63 15.31 15.3 0 8.62-7.17 15.6-15.85 15.3zm24.43-54.95c-2.57 1.1-4.98 2.68-7.08 4.77-2.09 2.1-3.67 4.51-4.78 7.08-3.69-1.61-7.76-2.5-12.03-2.5s-8.34.89-12.03 2.5c-1.11-2.57-2.69-4.98-4.78-7.08-2.1-2.09-4.51-3.67-7.08-4.77 1.61-3.7 2.5-7.77 2.5-12.04s-.89-8.34-2.5-12.04c2.57-1.1 4.98-2.68 7.08-4.77 2.09-2.1 3.67-4.51 4.78-7.08 3.69 1.61 7.76 2.5 12.03 2.5s8.34-.89 12.03-2.5c1.11 2.57 2.69 4.98 4.78 7.08 2.1 2.09 4.51 3.67 7.08 4.77-1.61 3.7-2.5 7.77-2.5 12.04s.89 8.34 2.5 12.04zm9.04 28.38c-4.17 0-7.56-3.38-7.56-7.55s3.39-7.56 7.56-7.56 7.55 3.39 7.55 7.56-3.38 7.55-7.55 7.55zm18.76-25.11c-3.48.11-7.28-1.43-10.22-4.14-6.65-6.12-6.44-16.98.43-22.85 2.47-2.11 5.74-3.48 9.79-3.63 8.44 0 15.31 6.87 15.31 15.31s-6.87 15.31-15.31 15.31z"/></g><path d="m435.16 255.59c-5.103-4.604-10.873-7.544-19.99-6.21l-13-22.58c3.6-4.11 5.58-9.3 5.58-14.8-.226-11.441-8.952-22.324-22.5-22.5-8.629.062-17.76 5.44-21.2 15h-26.6c-3.002-7.969-10.413-14.831-21.2-15-11.066-.19-22.663 9.684-22.5 22.5 0 5.5 1.98 10.69 5.58 14.8l-13 22.58c-12.253-2.741-26.887 7.913-26.58 22.12-.167 12.765 12.326 24.92 26.58 22.12l13 22.58c-3.6 4.11-5.58 9.3-5.58 14.8 0 6.01 2.34 11.66 6.59 15.91s9.9 6.59 15.91 6.59c8.629-.062 17.76-5.44 21.2-15h26.6c2.478 7.657 11.374 15.16 21.2 15 11.066.19 22.663-9.685 22.5-22.5 0-5.5-1.98-10.69-5.58-14.8l13-22.58c5.729 1.342 14.932-.935 19.99-6.21 4.25-4.25 6.59-9.9 6.59-15.91s-2.34-11.66-6.59-15.91zm-118.91-51.09c4.14 0 7.5 3.36 7.5 7.5s-3.36 7.5-7.5 7.5-7.5-3.36-7.5-7.5 3.36-7.5 7.5-7.5zm-34 74.51c-4.14 0-7.5-3.36-7.5-7.51 0-4.14 3.36-7.5 7.5-7.5s7.5 3.36 7.5 7.5c0 4.15-3.36 7.51-7.5 7.51zm34 59.49c-4.14 0-7.5-3.36-7.5-7.5s3.36-7.5 7.5-7.5 7.5 3.36 7.5 7.5-3.36 7.5-7.5 7.5zm4.69-29.5c-1.54-.168-3.362-.9-8.54-.15l-13.08-22.72c1.83-2.13 3.21-4.54 4.13-7.13h18.25c.973 3.89 3.803 10.012 8.28 14.35zm8.74-59.07c-4.02 4.03-6.68 8.91-7.98 14.07h-18.25c-.92-2.59-2.3-5-4.13-7.13l13.08-22.72c1.916.193 3.448.738 8.54-.15l9.04 15.65c-.1.1-.2.19-.3.28zm7.77-30.43h26.6c.9 2.55 2.26 4.93 4.04 7.04l-8.67 15.59c-5.37-1.49-11.08-1.48-16.45.03l-9.24-16c1.63-2.01 2.87-4.26 3.72-6.66zm24.76 62.96c-6.04 6.04-15.88 6.04-21.92 0s-6.04-15.88 0-21.92c3.02-3.02 6.99-4.53 10.96-4.53s7.94 1.51 10.96 4.53c6.04 6.04 6.04 15.88 0 21.92zm1.84 41.04h-26.6c-.85-2.4-2.09-4.65-3.72-6.66l9.24-16c2.7.76 5.49 1.15 8.28 1.15s5.58-.39 8.28-1.15l8.85 15.31c-1.92 2.18-3.38 4.66-4.33 7.35zm21.2-119c4.14 0 7.5 3.36 7.5 7.5s-3.36 7.5-7.5 7.5-7.5-3.36-7.5-7.5 3.36-7.5 7.5-7.5zm0 134c-4.14 0-7.5-3.36-7.5-7.5s3.36-7.5 7.5-7.5 7.5 3.36 7.5 7.5-3.36 7.5-7.5 7.5zm3.85-29.65c-1.556-.161-3.215-.667-7.62-.01l-8.95-15.5c3.219-3.091 6.752-8.515 8.27-14.34h17.25c.92 2.59 2.3 5 4.13 7.13zm8.95-44.85h-17.25c-.979-3.907-3.842-10.105-8.36-14.42l8.61-15.48c1.589.181 3.439.743 8.05.05l13.08 22.72c-1.83 2.13-3.21 4.54-4.13 7.13zm21.2 15.01c-4.14 0-7.5-3.36-7.5-7.51 0-4.14 3.36-7.5 7.5-7.5s7.5 3.36 7.5 7.5c0 4.15-3.36 7.51-7.5 7.51z"/></g></g></svg>