<svg id="Capa_1" enable-background="new 0 0 512 512" height="512" viewBox="0 0 512 512" width="512" xmlns="http://www.w3.org/2000/svg"><g><g><g><path d="m313.015 424.068v-47.108h-114.03v47.108c0 10.87-2.953 21.536-8.543 30.858l-22.957 38.281h177.03l-22.957-38.281c-5.59-9.322-8.543-19.988-8.543-30.858z" fill="#b5adb7"/></g><g><path d="m313.015 376.96h-114.03v47.108c0 10.87-2.953 21.536-8.543 30.858l-22.957 38.281h23.76l22.957-38.281c5.59-9.322 8.543-19.988 8.543-30.858v-.428h90.27z" fill="#a59da7"/></g><g><path d="m20.28 296.56h471.44v86.1c0 11.046-8.954 20-20 20h-431.44c-11.046 0-20-8.954-20-20z" fill="#d3ced5"/></g><g><path d="m41.52 382.66v-86.1h-21.24v86.1c0 11.046 8.954 20 20 20h21.24c-11.046 0-20-8.954-20-20z" fill="#c3bec6"/></g><g><path d="m491.72 314.62h-471.44v-287.12c0-11.046 8.954-20 20-20h431.44c11.046 0 20 8.954 20 20z" fill="#365f7e"/></g><g><path d="m61.52 7.5h-21.24c-11.046 0-20 8.954-20 20v287.12h21.24v-287.12c0-11.046 8.954-20 20-20z" fill="#2c4d66"/></g><g><path d="m55.28 274.44v-226.94c0-2.761 2.239-5 5-5h391.44c2.761 0 5 2.239 5 5v226.94c0 2.761-2.239 5-5 5h-391.44c-2.762 0-5-2.239-5-5z" fill="#b3dafe"/></g><g><path d="m76.88 274.44v-226.94c0-2.761 2.239-5 5-5h-21.6c-2.761 0-5 2.239-5 5v226.94c0 2.761 2.239 5 5 5h21.6c-2.762 0-5-2.239-5-5z" fill="#8ac9fe"/></g><g><path d="m256 374c-8.5 0-15.39-6.89-15.39-15.39 0-8.5 6.89-15.39 15.39-15.39 8.5 0 15.39 6.89 15.39 15.39 0 8.5-6.89 15.39-15.39 15.39z" fill="#f6f1f1"/></g><g><path d="m417.68 504.5h-323.36c-2.761 0-5-2.239-5-5v-23.666c0-2.761 2.239-5 5-5h323.36c2.761 0 5 2.239 5 5v23.666c0 2.761-2.239 5-5 5z" fill="#d3ced5"/></g><g><path d="m113.08 499.5v-23.666c0-2.761 2.239-5 5-5h-23.76c-2.761 0-5 2.239-5 5v23.666c0 2.761 2.239 5 5 5h23.76c-2.762 0-5-2.239-5-5z" fill="#c3bec6"/></g><g><path d="m386.884 129.88h-261.768v-27.8c0-5.523 4.477-10 10-10h241.768c5.523 0 10 4.477 10 10z" fill="#e58e82"/></g><g><path d="m157.676 92.08h-22.56c-5.523 0-10 4.477-10 10v27.8h22.56v-27.8c0-5.523 4.477-10 10-10z" fill="#e06c57"/></g><g><path d="m386.884 129.88h-261.768v95.84c0 5.523 4.477 10 10 10h241.768c5.523 0 10-4.477 10-10z" fill="#f6f1f1"/></g><g><path d="m147.676 225.72v-95.84h-22.56v95.84c0 5.523 4.477 10 10 10h22.56c-5.523 0-10-4.477-10-10z" fill="#e2dfe2"/></g></g><g><path d="m471.72 0h-431.44c-15.164 0-27.5 12.336-27.5 27.5v355.16c0 15.164 12.336 27.5 27.5 27.5h41.6c4.142 0 7.5-3.358 7.5-7.5s-3.358-7.5-7.5-7.5h-41.6c-6.893 0-12.5-5.607-12.5-12.5v-60.54h310.66c4.142 0 7.5-3.358 7.5-7.5s-3.358-7.5-7.5-7.5h-310.66v-279.62c0-6.893 5.607-12.5 12.5-12.5h431.44c6.893 0 12.5 5.607 12.5 12.5v72.86c0 4.142 3.358 7.5 7.5 7.5s7.5-3.358 7.5-7.5v-72.86c0-15.164-12.336-27.5-27.5-27.5z"/><path d="m491.72 129.083c-4.142 0-7.5 3.358-7.5 7.5v170.537h-107.62c-4.142 0-7.5 3.358-7.5 7.5s3.358 7.5 7.5 7.5h107.62v60.54c0 6.893-5.607 12.5-12.5 12.5h-354.64c-4.142 0-7.5 3.358-7.5 7.5s3.358 7.5 7.5 7.5h74.405v13.908c0 9.509-2.585 18.845-7.476 27l-7.355 12.265h-82.334c-6.893 0-12.5 5.607-12.5 12.5v23.667c0 6.893 5.607 12.5 12.5 12.5h323.36c6.893 0 12.5-5.607 12.5-12.5v-23.666c0-6.893-5.607-12.5-12.5-12.5h-82.334l-7.355-12.265c-4.891-8.155-7.476-17.492-7.476-27v-13.909h151.205c15.164 0 27.5-12.336 27.5-27.5v-246.077c0-4.142-3.358-7.5-7.5-7.5zm-76.54 367.917h-318.36v-18.666h318.36zm-100.054-38.216 2.729 4.55h-123.71l2.729-4.551c6.288-10.485 9.611-22.489 9.611-34.715v-13.908h99.03v13.908c0 12.226 3.324 24.23 9.611 34.716z"/><path d="m464.22 274.44v-226.94c0-6.893-5.607-12.5-12.5-12.5h-391.44c-6.893 0-12.5 5.607-12.5 12.5v226.94c0 6.893 5.607 12.5 12.5 12.5h391.44c6.893 0 12.5-5.607 12.5-12.5zm-15-2.5h-386.44v-221.94h386.44z"/><path d="m278.89 358.61c0-12.622-10.269-22.89-22.89-22.89s-22.89 10.268-22.89 22.89 10.268 22.89 22.89 22.89 22.89-10.269 22.89-22.89zm-30.78 0c0-4.351 3.539-7.89 7.89-7.89s7.89 3.539 7.89 7.89-3.54 7.89-7.89 7.89-7.89-3.54-7.89-7.89z"/><path d="m135.116 243.22h241.768c9.649 0 17.5-7.851 17.5-17.5v-123.64c0-9.649-7.851-17.5-17.5-17.5h-241.768c-9.649 0-17.5 7.851-17.5 17.5v123.64c0 9.65 7.851 17.5 17.5 17.5zm244.268-17.5c0 1.378-1.122 2.5-2.5 2.5h-241.768c-1.378 0-2.5-1.122-2.5-2.5v-88.34h246.768zm-246.768-123.64c0-1.378 1.122-2.5 2.5-2.5h241.768c1.378 0 2.5 1.122 2.5 2.5v20.3h-246.768z"/><path d="m191.162 172.56h18.315c4.142 0 7.5-3.358 7.5-7.5s-3.358-7.5-7.5-7.5h-18.315c-4.142 0-7.5 3.358-7.5 7.5s3.358 7.5 7.5 7.5z"/><path d="m191.162 206.43h129.675c4.142 0 7.5-3.358 7.5-7.5s-3.358-7.5-7.5-7.5h-129.675c-4.142 0-7.5 3.358-7.5 7.5s3.358 7.5 7.5 7.5z"/><path d="m246.843 172.56h18.315c4.142 0 7.5-3.358 7.5-7.5s-3.358-7.5-7.5-7.5h-18.315c-4.142 0-7.5 3.358-7.5 7.5s3.357 7.5 7.5 7.5z"/><path d="m302.522 172.56h18.315c4.142 0 7.5-3.358 7.5-7.5s-3.358-7.5-7.5-7.5h-18.315c-4.142 0-7.5 3.358-7.5 7.5s3.358 7.5 7.5 7.5z"/></g></g></svg>