<svg id="Capa_1" enable-background="new 0 0 512 512" height="512" viewBox="0 0 512 512" width="512" xmlns="http://www.w3.org/2000/svg"><g><g><path d="m368.653 438.233-15.138-53.7h-33.247l-27.347 39.418-24.229-39.418h-24.482l-26.141 36.091-25.367-36.091h-25.722l-23.633 53.7-3.314 33.134v11.871h231.934v-11.871z" fill="#924af5"/><path d="m368.653 438.233-15.138-53.7h-12.832v4l8.284 82.834v11.871h23v-11.871z" fill="#7536f9"/><path d="m363.683 388.533v-10.801h-215.366v10.801l-4.97 49.7 37.55-49.7 34.36 45.476c1.6 2.118 4.782 2.118 6.383 0l34.36-45.476 34.36 45.476c1.6 2.118 4.782 2.118 6.383 0l34.36-45.476 37.55 49.7z" fill="#f3ffff"/><path d="m342.145 403.147 26.508 35.086-4.97-49.7v-10.8h-23v10.8z" fill="#dff9f9"/><path d="m239.433 282.089h33.133v47.222h-33.133z" fill="#dff9f9"/><path d="m256 7.5c-77.771 0-140.817 63.046-140.817 140.817s63.046 140.816 140.817 140.816 140.817-63.046 140.817-140.817-63.046-140.816-140.817-140.816zm0 248.5c-59.472 0-107.683-48.211-107.683-107.683s48.211-107.683 107.683-107.683 107.683 48.211 107.683 107.683-48.211 107.683-107.683 107.683z" fill="#f3ffff"/><path d="m289.133 370.723h-66.267v-40.456c0-4.418 3.582-8 8-8h50.267c4.418 0 8 3.582 8 8z" fill="#413e82"/><path d="m380.533 504.5h-249.066c-4.418 0-8-3.582-8-8v-17.133c0-4.418 3.582-8 8-8h249.067c4.418 0 8 3.582 8 8v17.133c-.001 4.418-3.582 8-8.001 8z" fill="#f6df59"/><path d="m256 7.5c-3.872 0-7.706.163-11.5.47 72.391 5.852 129.317 66.449 129.317 140.347s-56.926 134.495-129.317 140.347c3.793.307 7.627.47 11.5.47 77.771 0 140.817-63.046 140.817-140.817s-63.046-140.817-140.817-140.817z" fill="#dff9f9"/><path d="m281.133 322.267h-23c4.418 0 8 3.582 8 8v40.456h23v-40.456c0-4.419-3.581-8-8-8z" fill="#2f2c59"/><path d="m363.683 388.533c9.15 0 16.567-7.417 16.567-16.567s-7.417-16.567-16.567-16.567h-215.366c-9.15 0-16.567 7.417-16.567 16.567s7.417 16.567 16.567 16.567z" fill="#f6df59"/><g fill="#edbf50"><path d="m363.683 355.4h-23c9.15 0 16.567 7.417 16.567 16.567s-7.417 16.567-16.567 16.567h23c9.15 0 16.567-7.417 16.567-16.567s-7.417-16.567-16.567-16.567z"/><path d="m380.533 471.367h-23c4.418 0 8 3.582 8 8v17.133c0 4.418-3.582 8-8 8h23c4.418 0 8-3.582 8-8v-17.133c0-4.419-3.581-8-8-8z"/></g></g><g><path d="m64.7 148.317c0-4.142-3.358-7.5-7.5-7.5h-33.133c-4.142 0-7.5 3.358-7.5 7.5s3.358 7.5 7.5 7.5h33.133c4.142 0 7.5-3.358 7.5-7.5z"/><path d="m80.084 241.222-28.694 16.566c-3.587 2.071-4.816 6.658-2.745 10.245 1.389 2.406 3.91 3.751 6.502 3.751 1.272 0 2.562-.324 3.743-1.006l28.694-16.566c3.587-2.071 4.816-6.658 2.745-10.245-2.071-3.588-6.659-4.816-10.245-2.745z"/><path d="m460.61 257.788-28.694-16.566c-3.587-2.072-8.174-.843-10.245 2.745-2.071 3.587-.842 8.174 2.745 10.245l28.694 16.566c1.181.682 2.471 1.006 3.743 1.006 2.592 0 5.113-1.346 6.502-3.751 2.072-3.587.842-8.174-2.745-10.245z"/><path d="m487.933 140.817h-33.133c-4.142 0-7.5 3.358-7.5 7.5s3.358 7.5 7.5 7.5h33.133c4.142 0 7.5-3.358 7.5-7.5s-3.358-7.5-7.5-7.5z"/><path d="m428.173 56.418c1.272 0 2.562-.324 3.743-1.006l28.694-16.566c3.587-2.071 4.816-6.658 2.745-10.245s-6.658-4.817-10.245-2.745l-28.694 16.566c-3.587 2.071-4.816 6.658-2.745 10.245 1.389 2.406 3.91 3.751 6.502 3.751z"/><path d="m87.584 42.421-28.694-16.566c-3.588-2.073-8.175-.842-10.245 2.745-2.071 3.587-.842 8.174 2.745 10.245l28.694 16.566c1.181.682 2.471 1.006 3.743 1.006 2.592 0 5.113-1.346 6.502-3.751 2.071-3.587.842-8.174-2.745-10.245z"/><path d="m404.317 148.317c0-81.782-66.535-148.317-148.317-148.317-36.102 0-70.893 13.124-97.963 36.954-3.109 2.737-3.411 7.476-.674 10.585 2.736 3.109 7.477 3.411 10.585.674 24.33-21.418 55.6-33.213 88.052-33.213 73.511 0 133.317 59.806 133.317 133.317s-59.806 133.316-133.317 133.316-133.317-59.806-133.317-133.316c0-28.685 8.968-56.011 25.935-79.025 2.458-3.334 1.748-8.03-1.586-10.487-3.334-2.458-8.03-1.748-10.487 1.586-18.881 25.611-28.861 56.016-28.861 87.926 0 73.588 53.874 134.82 124.25 146.353v20.096h-1.066c-8.547 0-15.5 6.953-15.5 15.5v17.634h-67.05c-13.271 0-24.067 10.796-24.067 24.067 0 10.412 6.648 19.299 15.922 22.645l-6.926 69.255h-1.779c-8.547 0-15.5 6.953-15.5 15.5v17.133c0 8.547 6.953 15.5 15.5 15.5h35.245c4.142 0 7.5-3.358 7.5-7.5s-3.358-7.5-7.5-7.5h-35.245c-.276 0-.5-.224-.5-.5v-17.133c0-.276.224-.5.5-.5h249.066c.276 0 .5.224.5.5v17.133c0 .276-.224.5-.5.5h-183.822c-4.142 0-7.5 3.358-7.5 7.5s3.358 7.5 7.5 7.5h183.821c8.547 0 15.5-6.953 15.5-15.5v-17.133c0-8.547-6.953-15.5-15.5-15.5h-1.779l-6.926-69.255c9.274-3.346 15.922-12.233 15.922-22.645 0-13.271-10.796-24.067-24.067-24.067h-67.05v-17.633c0-8.547-6.953-15.5-15.5-15.5h-1.066v-20.097c70.376-11.533 124.25-72.765 124.25-146.353zm-238.487 247.716-12.362 16.363 1.636-16.363zm191.066 0 1.636 16.363-12.362-16.363zm-208.575 67.834 2.279-22.793 30.296-40.099 31.568 41.78c1.417 1.876 3.633 2.978 5.984 2.978s4.566-1.103 5.984-2.978l31.568-41.781 31.568 41.781c1.418 1.876 3.633 2.978 5.984 2.978s4.566-1.103 5.984-2.978l31.568-41.78 30.296 40.099 2.279 22.793zm47.642-67.834h44.97l-22.485 29.759zm75.104 0h44.97l-22.485 29.759zm101.683-24.066c0 4.991-4.055 9.052-9.043 9.065-.01 0-.021.001-.032.001h-215.351c-.01 0-.021-.001-.031-.001-4.988-.013-9.043-4.074-9.043-9.065 0-4.999 4.067-9.067 9.067-9.067h215.366c5 0 9.067 4.067 9.067 9.067zm-91.117-41.7v17.633h-51.267v-17.633c0-.276.224-.5.5-.5h50.267c.276 0 .5.224.5.5zm-16.566-15.5h-18.134v-18.419c3 .182 6.022.285 9.067.285s6.066-.103 9.067-.285z"/><path d="m256 263.5c63.512 0 115.183-51.671 115.183-115.183s-51.671-115.184-115.183-115.184-115.183 51.672-115.183 115.184 51.671 115.183 115.183 115.183zm0-215.367c55.241 0 100.183 44.942 100.183 100.184s-44.942 100.183-100.183 100.183-100.183-44.942-100.183-100.183 44.942-100.184 100.183-100.184z"/></g></g></svg>