<svg id="Capa_1" enable-background="new 0 0 512 512" height="512" viewBox="0 0 512 512" width="512" xmlns="http://www.w3.org/2000/svg"><g><g><g><path d="m436.52 504.5h-361.04c-11.046 0-20-8.954-20-20v-457c0-11.046 8.954-20 20-20h361.04c11.046 0 20 8.954 20 20v457c0 11.046-8.954 20-20 20z" fill="#365f7e"/></g><g><path d="m76.12 484.5v-457c0-11.046 8.954-20 20-20h-20.64c-11.046 0-20 8.954-20 20v457c0 11.046 8.954 20 20 20h20.64c-11.046 0-20-8.954-20-20z" fill="#2c4d66"/></g><g><path d="m90.48 418.5v-371c0-2.761 2.239-5 5-5h321.04c2.761 0 5 2.239 5 5v371c0 2.761-2.239 5-5 5h-321.04c-2.761 0-5-2.239-5-5z" fill="#b3dafe"/></g><g><path d="m111.12 418.5v-371c0-2.761 2.239-5 5-5h-20.64c-2.761 0-5 2.239-5 5v371c0 2.761 2.239 5 5 5h20.64c-2.761 0-5-2.239-5-5z" fill="#8ac9fe"/></g><g><path d="m256 479.87c-8.5 0-15.39-6.89-15.39-15.39 0-8.5 6.89-15.39 15.39-15.39 8.5 0 15.39 6.89 15.39 15.39 0 8.5-6.89 15.39-15.39 15.39z" fill="#f6f1f1"/></g><g><path d="m369.26 212.88h-226.52c-2.761 0-5-2.239-5-5v-112.1c0-2.761 2.239-5 5-5h226.52c2.761 0 5 2.239 5 5v112.1c0 2.761-2.239 5-5 5z" fill="#e58e82"/></g><g><path d="m160.06 207.88v-112.1c0-2.761 2.239-5 5-5h-22.32c-2.761 0-5 2.239-5 5v112.1c0 2.761 2.239 5 5 5h22.32c-2.761 0-5-2.239-5-5z" fill="#e06c57"/></g><g><path d="m277.043 147.487-37.131-21.185c-3.333-1.902-7.478.505-7.478 4.343v42.37c0 3.838 4.145 6.245 7.478 4.343l37.131-21.185c3.363-1.919 3.363-6.767 0-8.686z" fill="#f6f1f1"/></g></g><g><path d="m456.52 125.18c4.142 0 7.5-3.358 7.5-7.5v-90.18c0-15.164-12.336-27.5-27.5-27.5h-361.04c-15.164 0-27.5 12.336-27.5 27.5v457c0 15.164 12.336 27.5 27.5 27.5h361.04c15.164 0 27.5-12.336 27.5-27.5v-330.67c0-4.142-3.358-7.5-7.5-7.5s-7.5 3.358-7.5 7.5v330.67c0 6.893-5.607 12.5-12.5 12.5h-361.04c-6.893 0-12.5-5.607-12.5-12.5v-457c0-6.893 5.607-12.5 12.5-12.5h361.04c6.893 0 12.5 5.607 12.5 12.5v90.18c0 4.142 3.358 7.5 7.5 7.5z"/><path d="m429.02 418.5v-371c0-6.893-5.607-12.5-12.5-12.5h-321.04c-6.893 0-12.5 5.607-12.5 12.5v229.14c0 4.142 3.358 7.5 7.5 7.5s7.5-3.358 7.5-7.5v-226.64h316.04v366h-316.04v-103.8c0-4.142-3.358-7.5-7.5-7.5s-7.5 3.358-7.5 7.5v106.3c0 6.893 5.607 12.5 12.5 12.5h321.04c6.893 0 12.5-5.607 12.5-12.5z"/><path d="m233.11 464.48c0 12.622 10.269 22.89 22.89 22.89s22.89-10.269 22.89-22.89-10.269-22.89-22.89-22.89-22.89 10.268-22.89 22.89zm30.78 0c0 4.351-3.54 7.89-7.89 7.89s-7.89-3.54-7.89-7.89 3.54-7.89 7.89-7.89 7.89 3.539 7.89 7.89z"/><path d="m303.46 90.78c0-4.142-3.358-7.5-7.5-7.5h-153.22c-6.893 0-12.5 5.607-12.5 12.5v112.1c0 6.893 5.607 12.5 12.5 12.5h226.52c6.893 0 12.5-5.607 12.5-12.5v-112.1c0-6.893-5.607-12.5-12.5-12.5h-37.3c-4.142 0-7.5 3.358-7.5 7.5s3.358 7.5 7.5 7.5h34.8v107.1h-221.52v-107.1h150.72c4.142 0 7.5-3.358 7.5-7.5z"/><path d="m137.74 261.08h236.52c4.142 0 7.5-3.358 7.5-7.5s-3.358-7.5-7.5-7.5h-236.52c-4.142 0-7.5 3.358-7.5 7.5s3.358 7.5 7.5 7.5z"/><path d="m137.74 301.78h236.52c4.142 0 7.5-3.358 7.5-7.5s-3.358-7.5-7.5-7.5h-236.52c-4.142 0-7.5 3.358-7.5 7.5s3.358 7.5 7.5 7.5z"/><path d="m137.74 342.48h236.52c4.142 0 7.5-3.358 7.5-7.5s-3.358-7.5-7.5-7.5h-236.52c-4.142 0-7.5 3.358-7.5 7.5s3.358 7.5 7.5 7.5z"/><path d="m137.74 383.18h236.52c4.142 0 7.5-3.358 7.5-7.5s-3.358-7.5-7.5-7.5h-236.52c-4.142 0-7.5 3.358-7.5 7.5s3.358 7.5 7.5 7.5z"/><path d="m231.157 119.836c-3.896 2.263-6.222 6.304-6.222 10.809v42.37c0 4.505 2.326 8.546 6.222 10.809 1.962 1.14 4.119 1.71 6.277 1.71 2.126 0 4.253-.554 6.196-1.662l37.131-21.185c3.889-2.22 6.305-6.38 6.305-10.858s-2.417-8.637-6.306-10.856l-37.13-21.185c-3.915-2.233-8.577-2.215-12.473.048zm8.778 48.874v-33.76l29.586 16.88z"/></g></g></svg>