<svg id="Capa_1" enable-background="new 0 0 511.997 511.997" height="512" viewBox="0 0 511.997 511.997" width="512" xmlns="http://www.w3.org/2000/svg"><g><g><g><path d="m246.287 8.554-197.71 67.139c-8.26 2.805-9.219 14.103-1.55 18.26l60.251 32.661h290.88l60.251-32.661c7.669-4.157 6.71-15.455-1.55-18.26l-197.71-67.139c-4.171-1.416-8.692-1.416-12.862 0z" fill="#4980ac"/></g><g><path d="m87.457 75.693 184.701-62.721-13.009-4.418c-4.17-1.416-8.692-1.416-12.862 0l-197.71 67.139c-8.26 2.805-9.219 14.103-1.55 18.26l60.251 32.661h38.88l-60.251-32.66c-7.669-4.158-6.71-15.456 1.55-18.261z" fill="#407194"/></g><g><path d="m107.278 126.614h290.88v129.378h-290.88z" fill="#365f7e"/></g><path d="m398.158 126.614h-290.88v129.378h21.96v-102.6h268.92z" fill="#2c4d66"/><g><path d="m449.798 146.342-13.408 12.715c-4.745 4.5-7.433 10.752-7.433 17.292v19.265c0 4.738 3.841 8.578 8.578 8.578h24.526c4.738 0 8.578-3.84 8.578-8.578v-19.265c0-6.54-2.688-12.792-7.433-17.292z" fill="#e58e82"/></g><g><path d="m51.358 322.403h29.536v-63.36h-29.536c-5.523 0-10 4.477-10 10v43.36c0 5.523 4.477 10 10 10z" fill="#e1761c"/></g><g><path d="m55.998 312.403v-43.36c0-5.523 4.477-10 10-10h-14.64c-5.523 0-10 4.477-10 10v43.36c0 5.523 4.477 10 10 10h14.64c-5.523 0-10-4.477-10-10z" fill="#d76718"/></g><g><path d="m454.078 259.043h-29.536v63.36h29.536c5.523 0 10-4.477 10-10v-43.36c0-5.523-4.477-10-10-10z" fill="#e1761c"/></g><g><path d="m424.542 259.043h13.616v63.36h-13.616z" fill="#d76718"/></g><g><path d="m414.542 345.923h-323.648c-5.523 0-10-4.477-10-10v-90.4c0-5.523 4.477-10 10-10h323.648c5.523 0 10 4.477 10 10v90.4c0 5.523-4.477 10-10 10z" fill="#f6f1f1"/></g><g><path d="m213.638 235.523h78.16v110.4h-78.16z" fill="#e58e82"/></g><g><path d="m102.014 335.923v-90.4c0-5.523 4.477-10 10-10h-21.12c-5.523 0-10 4.477-10 10v90.4c0 5.523 4.477 10 10 10h21.12c-5.523 0-10-4.477-10-10z" fill="#e2dfe2"/></g><g><path d="m291.798 405.013v94.47c0 4.155-4.774 6.497-8.06 3.954l-27.96-21.636c-1.802-1.394-4.318-1.394-6.12 0l-27.96 21.636c-3.286 2.543-8.06.201-8.06-3.954v-94.47z" fill="#e58e82"/></g><g><path d="m233.618 405.013h-19.98v94.47c0 4.155 4.774 6.497 8.06 3.954l11.92-9.224z" fill="#e06c57"/></g><path d="m213.638 235.523h19.98v110.4h-19.98z" fill="#e06c57"/><g><path d="m261.371 268.606c5.655-7.176 17.085-4.747 19.332 4.109 1.753 6.908 9.504 10.359 15.81 7.039 8.085-4.256 17.538 2.612 15.989 11.617-1.209 7.024 4.469 13.329 11.58 12.861 9.117-.6 14.96 9.52 9.882 17.116-3.961 5.925-1.339 13.994 5.348 16.459 8.573 3.16 9.794 14.782 2.066 19.655-6.028 3.802-6.915 12.24-1.809 17.212 6.546 6.374 2.935 17.487-6.107 18.796-7.053 1.021-11.296 8.369-8.653 14.988 3.388 8.485-4.431 17.169-13.224 14.687-6.859-1.936-13.723 3.051-14.001 10.173-.357 9.13-11.032 13.883-18.055 8.039-5.478-4.558-13.778-2.794-16.928 3.598-4.039 8.195-15.724 8.195-19.764 0-3.151-6.393-11.45-8.157-16.928-3.598-7.023 5.844-17.698 1.091-18.055-8.039-.278-7.121-7.142-12.109-14.001-10.173-8.793 2.482-16.612-6.202-13.224-14.687 2.642-6.619-1.6-13.967-8.653-14.988-9.042-1.309-12.653-12.422-6.107-18.796 5.106-4.972 4.219-13.41-1.809-17.212-7.728-4.874-6.507-16.495 2.066-19.655 6.687-2.465 9.309-10.535 5.348-16.459-5.078-7.596.765-17.715 9.882-17.116 7.111.468 12.789-5.838 11.58-12.861-1.549-9.004 7.904-15.873 15.989-11.617 6.306 3.32 14.058-.131 15.81-7.039 2.247-8.856 13.677-11.286 19.332-4.109 4.408 5.597 12.893 5.597 17.304 0z" fill="#fdcd08"/></g><g><path d="m228.493 433.318c-.278-7.121-7.143-12.109-14.001-10.173-8.793 2.482-16.612-6.202-13.224-14.687 2.642-6.619-1.6-13.967-8.653-14.988-9.042-1.309-12.653-12.422-6.107-18.796 5.106-4.972 4.219-13.41-1.809-17.212-7.728-4.874-6.507-16.495 2.066-19.655 6.687-2.465 9.309-10.535 5.348-16.459-5.078-7.596.765-17.715 9.882-17.116 7.111.468 12.789-5.838 11.58-12.861-1.549-9.004 7.904-15.873 15.989-11.617 6.306 3.32 14.058-.131 15.81-7.039.19-.75.467-1.435.78-2.091-.759-.566-1.467-1.231-2.088-2.019-5.655-7.176-17.085-4.747-19.332 4.109-1.753 6.908-9.504 10.359-15.81 7.039-8.085-4.256-17.538 2.612-15.989 11.617 1.209 7.024-4.469 13.329-11.58 12.861-9.117-.6-14.96 9.52-9.882 17.116 3.961 5.925 1.339 13.994-5.348 16.459-8.573 3.16-9.794 14.782-2.066 19.655 6.028 3.802 6.915 12.24 1.809 17.212-6.546 6.374-2.935 17.487 6.107 18.796 7.053 1.021 11.296 8.369 8.653 14.988-3.388 8.485 4.431 17.169 13.224 14.687 6.859-1.936 13.723 3.051 14.001 10.172.357 9.13 11.032 13.883 18.055 8.039 1.359-1.131 2.892-1.871 4.477-2.249-1.106-1.611-1.806-3.569-1.892-5.788z" fill="#faab18"/></g><g><circle cx="252.718" cy="357.751" fill="#faab18" r="55.121"/></g></g><g><path d="m468.367 153.615-11.069-10.496v-40.031l4.685-2.54c6.209-3.366 9.695-9.828 9.098-16.866-.598-7.037-5.123-12.819-11.81-15.09l-197.711-67.14c-5.702-1.937-11.983-1.937-17.685 0l-197.71 67.14c-6.688 2.271-11.212 8.053-11.81 15.09-.598 7.038 2.889 13.5 9.098 16.866l56.325 30.532v78.152c0 4.142 3.358 7.5 7.5 7.5s7.5-3.358 7.5-7.5v-75.118h205.101c4.142 0 7.5-3.358 7.5-7.5s-3.358-7.5-7.5-7.5h-210.699l-58.579-31.753c-1.251-.679-1.352-1.801-1.3-2.41.052-.608.339-1.698 1.687-2.156l197.709-67.139c2.593-.88 5.448-.88 8.04 0l197.71 67.139c1.348.458 1.635 1.547 1.687 2.156s-.048 1.731-1.3 2.41l-8.584 4.653c-.018.01-.035.019-.053.029l-49.942 27.072h-42.735c-4.142 0-7.5 3.358-7.5 7.5s3.358 7.5 7.5 7.5h37.138v72.838c0 4.142 3.358 7.5 7.5 7.5s7.5-3.358 7.5-7.5v-75.873l36.64-19.862v31.9l-11.069 10.496c-6.21 5.889-9.772 14.176-9.772 22.734v19.265c0 8.866 7.212 16.078 16.078 16.078h24.526c8.866 0 16.078-7.212 16.078-16.078v-19.265c0-8.558-3.562-16.844-9.772-22.733zm-5.228 41.999c0 .594-.484 1.078-1.078 1.078h-24.526c-.594 0-1.078-.484-1.078-1.078v-19.265c0-4.461 1.856-8.78 5.094-11.85l8.248-7.821 8.248 7.821c3.237 3.069 5.094 7.389 5.094 11.85v19.265z"/><path d="m454.078 251.543h-22.036v-6.02c0-9.649-7.851-17.5-17.5-17.5h-323.648c-9.649 0-17.5 7.851-17.5 17.5v6.02h-22.036c-9.649 0-17.5 7.85-17.5 17.5v43.36c0 9.649 7.851 17.5 17.5 17.5h22.036v6.021c0 9.649 7.851 17.5 17.5 17.5h38.344c4.142 0 7.5-3.357 7.5-7.5s-3.358-7.5-7.5-7.5h-38.344c-1.378 0-2.5-1.121-2.5-2.5v-90.4c0-1.378 1.122-2.5 2.5-2.5h115.244v28.1c-4.598-.598-9.316.555-13.231 3.399-5.747 4.176-8.569 11.119-7.364 18.12.252 1.463-.426 2.477-.853 2.95-.426.474-1.365 1.241-2.844 1.156-7.096-.48-13.7 3.065-17.251 9.218s-3.306 13.643.643 19.549c.825 1.234.618 2.436.421 3.041-.197.606-.735 1.7-2.128 2.214-6.666 2.457-11.268 8.373-12.01 15.438-.743 7.065 2.529 13.809 8.538 17.599 1.256.792 1.555 1.974 1.622 2.607.067.634.02 1.852-1.044 2.888-5.09 4.956-6.888 12.232-4.692 18.988 2.196 6.757 7.927 11.586 14.957 12.604 1.47.213 2.224 1.17 2.542 1.723.319.552.771 1.684.221 3.062-2.634 6.599-1.317 13.977 3.436 19.256s11.954 7.359 18.791 5.43c1.429-.402 2.507.166 3.023.54.515.375 1.389 1.225 1.447 2.708.193 4.961 2.31 9.481 5.779 12.742v53.13c0 4.806 2.68 9.105 6.995 11.222 1.764.866 3.65 1.292 5.523 1.292 2.707 0 5.386-.89 7.632-2.628l26.43-20.452 26.43 20.452c3.8 2.94 8.841 3.454 13.155 1.336 4.314-2.116 6.995-6.416 6.995-11.222v-53.13c3.469-3.262 5.586-7.782 5.779-12.743.058-1.482.932-2.332 1.447-2.707.516-.374 1.595-.943 3.022-.54 6.835 1.931 14.037-.149 18.792-5.43 4.753-5.279 6.07-12.657 3.436-19.256-.55-1.378-.098-2.51.221-3.062.318-.553 1.072-1.51 2.542-1.723 7.031-1.018 12.762-5.847 14.958-12.604 2.195-6.756.397-14.032-4.692-18.988-1.064-1.036-1.111-2.254-1.044-2.888.066-.634.366-1.815 1.622-2.607 6.009-3.79 9.28-10.533 8.538-17.599-.743-7.064-5.345-12.98-12.01-15.438-1.394-.514-1.932-1.607-2.129-2.214-.197-.605-.404-1.807.421-3.041 3.948-5.906 4.194-13.396.642-19.549-3.552-6.151-10.171-9.697-17.251-9.218-1.487.082-2.418-.683-2.844-1.156-.427-.474-1.104-1.487-.853-2.949 1.205-7.002-1.617-13.945-7.364-18.121-3.916-2.845-8.634-3.998-13.231-3.4v-28.099h115.244c1.378 0 2.5 1.122 2.5 2.5v90.4c0 1.379-1.122 2.5-2.5 2.5h-38.904c-4.142 0-7.5 3.357-7.5 7.5s3.358 7.5 7.5 7.5h38.904c9.649 0 17.5-7.851 17.5-17.5v-6.021h22.036c9.649 0 17.5-7.851 17.5-17.5v-43.36c-.005-9.65-7.856-17.5-17.505-17.5zm-402.72 63.36c-1.378 0-2.5-1.121-2.5-2.5v-43.36c0-1.378 1.122-2.5 2.5-2.5h22.036v48.36zm209.01 160.968c-2.252-1.744-4.951-2.615-7.65-2.615s-5.398.872-7.65 2.614l-23.93 18.518v-43.109c3.445-.426 6.765-1.825 9.567-4.157 1.141-.949 2.358-.869 2.98-.736.624.133 1.767.554 2.423 1.885 3.141 6.372 9.505 10.331 16.609 10.331s13.469-3.959 16.609-10.331c.656-1.331 1.799-1.752 2.423-1.885.623-.131 1.839-.213 2.981.737 2.802 2.332 6.122 3.73 9.567 4.155v43.109zm43.344-189.214c.532.387 1.733 1.496 1.398 3.442-.968 5.626.668 11.287 4.488 15.53 3.821 4.243 9.282 6.462 14.976 6.086 1.974-.124 2.948 1.182 3.277 1.751s.975 2.071-.122 3.713c-3.173 4.746-3.981 10.582-2.217 16.012 1.764 5.431 5.848 9.678 11.206 11.653 1.852.683 2.212 2.277 2.281 2.932s.048 2.289-1.621 3.343c-4.83 3.046-7.941 8.049-8.539 13.727-.597 5.678 1.407 11.219 5.498 15.202 1.415 1.378 1.095 2.981.892 3.606-.204.626-.887 2.111-2.842 2.394-5.65.818-10.528 4.124-13.383 9.068s-3.278 10.821-1.161 16.124c.732 1.833-.212 3.168-.652 3.656-.439.489-1.668 1.567-3.57 1.031-5.495-1.553-11.296-.516-15.915 2.841s-7.396 8.553-7.618 14.257c-.077 1.974-1.483 2.809-2.084 3.076s-2.162.753-3.68-.509c-4.389-3.652-10.107-5.066-15.694-3.879-5.585 1.187-10.235 4.805-12.759 9.926-.873 1.771-2.497 1.962-3.154 1.962s-2.282-.191-3.154-1.962c-2.524-5.121-7.174-8.739-12.759-9.926-1.295-.275-2.598-.411-3.89-.411-4.277 0-8.434 1.484-11.804 4.289-1.517 1.265-3.08.778-3.68.51-.601-.268-2.007-1.103-2.084-3.075-.222-5.705-2.999-10.901-7.618-14.258-4.619-3.356-10.419-4.394-15.915-2.841-1.9.536-3.129-.542-3.569-1.031-.44-.488-1.384-1.823-.652-3.656 2.117-5.303 1.694-11.18-1.161-16.124s-7.732-8.25-13.384-9.068c-1.954-.282-2.637-1.768-2.841-2.394-.203-.625-.523-2.229.892-3.606 4.091-3.983 6.094-9.524 5.498-15.202-.597-5.678-3.709-10.681-8.538-13.727-1.67-1.054-1.69-2.688-1.622-3.343s.429-2.249 2.281-2.932c5.357-1.976 9.441-6.223 11.206-11.653 1.764-5.43.956-11.266-2.217-16.012-1.098-1.642-.451-3.144-.123-3.713.329-.569 1.311-1.873 3.277-1.751 5.695.375 11.156-1.844 14.976-6.086 3.82-4.243 5.456-9.904 4.488-15.531-.334-1.945.867-3.055 1.398-3.441.532-.387 1.96-1.188 3.705-.267 5.053 2.66 10.941 2.854 16.157.531s9.013-6.828 10.417-12.363c.486-1.913 2.034-2.438 2.678-2.574.644-.137 2.271-.287 3.493 1.263 3.534 4.485 8.835 7.058 14.544 7.058s11.011-2.572 14.544-7.058c1.221-1.55 2.849-1.399 3.493-1.263.644.137 2.192.661 2.678 2.575 1.404 5.534 5.201 10.04 10.417 12.362 5.216 2.323 11.105 2.129 16.157-.531 1.748-.921 3.175-.12 3.707.267zm-19.414-23.043c-2.604-3.156-6.228-5.41-10.423-6.302-6.947-1.477-13.997 1.071-18.395 6.651-.919 1.167-2.125 1.341-2.762 1.341s-1.843-.174-2.762-1.341c-4.397-5.58-11.445-8.127-18.395-6.651-4.196.892-7.82 3.146-10.423 6.302v-20.59h63.16zm172.28 48.789c0 1.379-1.122 2.5-2.5 2.5h-22.036v-48.36h22.036c1.378 0 2.5 1.122 2.5 2.5z"/><path d="m190.097 357.752c0 34.529 28.091 62.62 62.621 62.62s62.621-28.091 62.621-62.62-28.091-62.621-62.621-62.621-62.621 28.091-62.621 62.621zm110.241 0c0 26.258-21.362 47.62-47.621 47.62s-47.621-21.362-47.621-47.62c0-26.259 21.362-47.621 47.621-47.621s47.621 21.362 47.621 47.621z"/></g></g></svg>