<svg id="Capa_1" enable-background="new 0 0 512.011 512.011" height="512" viewBox="0 0 512.011 512.011" width="512" xmlns="http://www.w3.org/2000/svg"><g><g><g><g><path d="m429.048 98.408-48.793-12.736-124.25 124.198 61.198 109.157 100.974 52.947s.063.461.16 1.241l6.83-1.241 23.1-235.052z" fill="#92b0ea"/><path d="m429.048 98.408-26.189 265.534 15.318 8.032s.063.461.16 1.241l6.83-1.241 23.1-235.052z" fill="#7691ea"/><g><path d="m491.311 24.152-13.231-9.97c-14.614-11.013-35.389-8.093-46.402 6.521l-9.97 13.231 23.107 38.156 43.047 11.694 9.97-13.231c11.013-14.613 8.093-35.388-6.521-46.401z" fill="#413e82"/><path d="m491.311 24.152-13.231-9.97c-9.346-7.043-21.209-8.378-31.43-4.61 2.948 1.093 5.79 2.621 8.43 4.61l13.231 9.97c14.614 11.013 17.534 31.787 6.521 46.402l-6.062 8.044 19.092 5.187 9.97-13.231c11.013-14.614 8.093-35.389-6.521-46.402z" fill="#2f2c59"/><path d="m487.862 83.784-66.154-49.85-19.94 26.462 23.107 38.156 43.047 11.694z" fill="#92b0ea"/><path d="m473.192 72.73-24.362 32.329 19.092 5.187 19.94-26.462z" fill="#7691ea"/><path d="m374.986 81.702 79.837 60.161c3.529 2.659 8.545 1.954 11.204-1.574l10.311-13.683c2.659-3.529 1.954-8.545-1.574-11.204l-79.838-60.162c-3.529-2.659-8.545-1.954-11.204 1.575l-10.311 13.683c-2.658 3.529-1.953 8.545 1.575 11.204z" fill="#413e82"/><path d="m474.763 115.401-79.837-60.161c-3.529-2.659-8.545-1.954-11.203 1.575l-3.575 4.744 71.451 53.842c3.529 2.659 4.233 7.675 1.575 11.204l-6.736 8.939 8.385 6.319c3.529 2.659 8.545 1.954 11.204-1.575l10.311-13.683c2.659-3.529 1.954-8.545-1.575-11.204z" fill="#2f2c59"/></g></g><g><path d="m93.834 371.975 106.459-73.363 55.713-88.741-124.25-124.199-48.793 12.736-19.219 38.515 23.1 235.052 6.99 1.27z" fill="#dc3d36"/><path d="m256.006 209.871-124.25-124.199-18.028 4.706 133.511 133.456z" fill="#b13d49"/><path d="m20.701 24.152 13.231-9.97c14.614-11.013 35.388-8.093 46.401 6.521l9.97 13.231-23.107 38.156-43.047 11.694-9.97-13.231c-11.012-14.613-8.093-35.388 6.522-46.401z" fill="#413e82"/><path d="m64.764 30.722 15.243 20.214 10.296-17.002-9.97-13.231c-11.013-14.614-31.787-17.534-46.402-6.521l-7.218 5.439c13.39-5.005 29.01-.897 38.051 11.101z" fill="#2f2c59"/><path d="m24.149 83.784 66.154-49.85 19.94 26.462-23.106 38.156-43.047 11.694z" fill="#dc3d36"/><path d="m99.948 77.397 10.295-17.001-19.94-26.462-14.738 11.106z" fill="#b13d49"/><path d="m137.025 81.702-79.837 60.161c-3.529 2.659-8.545 1.954-11.204-1.574l-10.311-13.683c-2.659-3.529-1.954-8.545 1.575-11.204l79.837-60.161c3.529-2.659 8.545-1.954 11.204 1.575l10.311 13.682c2.659 3.529 1.954 8.545-1.575 11.204z" fill="#413e82"/><path d="m138.6 70.498-10.311-13.683c-2.659-3.529-7.675-4.233-11.203-1.575l-8.369 6.307 6.745 8.951c2.659 3.529 1.954 8.545-1.575 11.204l-71.468 53.855 3.566 4.732c2.659 3.529 7.675 4.234 11.204 1.575l79.837-60.161c3.528-2.66 4.233-7.677 1.574-11.205z" fill="#2f2c59"/></g><path d="m93.834 371.975 162.16 30.737.012.002.011-.002 162.16-30.737-162.171-162.104z" fill="#924af5"/><path d="m244.638 221.234 150.804 150.741-150.804 28.584 11.356 2.153.006.001.006.001.011-.002 162.16-30.737-162.171-162.104z" fill="#7536f9"/></g><path d="m438.239 393.226h-364.467l-38.655 11.882-11.045 66.267v11.673h463.867v-11.673l-11.044-66.267z" fill="#924af5"/><path d="m452.653 397.657 12.286 73.718v11.673h23v-11.673l-11.044-66.267z" fill="#7536f9"/><path d="m473.679 385.818c-1.331-7.988-8.243-13.843-16.341-13.843h-143.349l-16.567 7.231-16.567-7.231h-49.7l-16.567 7.231-16.567-7.231h-143.348c-8.098 0-15.01 5.855-16.341 13.843l-3.215 19.29 30.295 24.632c6.09 4.952 14.819 4.95 20.908-.004l25.038-20.374c3.045-2.478 7.411-2.478 10.456 0l25.034 20.371c6.09 4.956 14.822 4.956 20.913 0l30.262-24.625h115.967l30.262 24.625c6.09 4.956 14.822 4.956 20.913 0l25.034-20.371c3.045-2.478 7.411-2.478 10.456 0l25.038 20.374c6.088 4.954 14.817 4.956 20.908.004l30.295-24.632z" fill="#f6df59"/><path d="m450.679 385.818 5.96 35.759 20.255-16.469-3.215-19.29c-1.331-7.988-8.243-13.843-16.341-13.843h-23c8.099 0 15.01 5.855 16.341 13.843z" fill="#edbf50"/><path d="m496.222 471.375c4.575 0 8.283 3.708 8.283 8.283v16.567c0 4.575-3.709 8.283-8.283 8.283h-480.433c-4.575 0-8.283-3.709-8.283-8.283v-16.567c0-4.575 3.709-8.283 8.283-8.283z" fill="#f6df59"/><path d="m496.222 471.375h-23c4.575 0 8.283 3.708 8.283 8.283v16.567c0 4.575-3.708 8.283-8.283 8.283h23c4.575 0 8.283-3.708 8.283-8.283v-16.567c.001-4.574-3.708-8.283-8.283-8.283z" fill="#edbf50"/><path d="m313.989 371.975v124.533c0 4.418-3.582 8-8 8h-17.133c-4.418 0-8-3.582-8-8v-124.533z" fill="#f3ffff"/><path d="m290.989 371.975v124.533c0 3.382-2.101 6.267-5.067 7.438.909.359 1.897.562 2.933.562h17.133c4.418 0 8-3.582 8-8v-124.533z" fill="#dff9f9"/><path d="m231.156 371.975v124.533c0 4.418-3.582 8-8 8h-17.133c-4.418 0-8-3.582-8-8v-124.533z" fill="#f3ffff"/><path d="m208.156 371.975v124.533c0 3.382-2.101 6.267-5.067 7.438.909.359 1.897.562 2.933.562h17.133c4.418 0 8-3.582 8-8v-124.533z" fill="#dff9f9"/></g><path d="m496.222 463.876h-1.93l-13.214-79.29c-1.942-11.653-11.926-20.11-23.739-20.11h-23.899l21.069-214.382c1.66.581 3.387.875 5.11.875 4.704 0 9.355-2.129 12.398-6.166l10.31-13.684c2.492-3.306 3.547-7.385 2.971-11.485-.576-4.101-2.715-7.73-6.021-10.221l-.852-.642 25.396-33.703c6.532-8.667 9.298-19.36 7.787-30.108s-7.116-20.265-15.784-26.797l-13.23-9.97c-17.894-13.483-43.421-9.897-56.906 7.997l-25.396 33.702-.852-.642c-3.305-2.491-7.385-3.547-11.485-2.971-4.101.576-7.73 2.715-10.223 6.021l-10.311 13.683c-4.732 6.281-3.939 15.017 1.533 20.381l-65.048 65.022c-2.93 2.929-2.931 7.678-.003 10.607 1.465 1.466 3.385 2.198 5.305 2.198 1.919 0 3.838-.732 5.302-2.195l66.438-66.41 59.444 44.794-21.763 221.443-152.014-151.952 26.677-26.666c2.93-2.929 2.931-7.678.003-10.607-2.93-2.931-7.679-2.93-10.607-.003l-26.682 26.671-112.949-112.901c5.47-5.363 6.264-14.1 1.532-20.381l-10.311-13.682c-2.491-3.308-6.122-5.446-10.222-6.022-4.097-.574-8.179.479-11.486 2.971l-.852.642-25.395-33.703c-6.532-8.668-16.048-14.273-26.796-15.784-10.746-1.51-21.441 1.255-30.109 7.786l-13.23 9.97c-8.669 6.532-14.275 16.048-15.785 26.797-1.511 10.748 1.255 21.44 7.787 30.108l25.397 33.703-.852.642c-3.307 2.491-5.445 6.121-6.022 10.222-.576 4.101.479 8.18 2.971 11.485l10.311 13.684c2.491 3.307 6.121 5.444 10.222 6.021.732.104 1.463.154 2.189.154 1.748 0 3.465-.302 5.096-.876l21.069 214.374h-23.898c-11.813 0-21.797 8.457-23.739 20.109l-13.215 79.291h-1.93c-8.703 0-15.783 7.08-15.783 15.783v16.566c0 8.703 7.08 15.783 15.783 15.783h44.505c4.142 0 7.5-3.357 7.5-7.5s-3.358-7.5-7.5-7.5h-44.505c-.432 0-.783-.352-.783-.783v-16.566c0-.432.352-.783.783-.783h174.733v17.633c0 .169.02.332.025.5h-100.253c-4.142 0-7.5 3.357-7.5 7.5s3.358 7.5 7.5 7.5h405.929c8.703 0 15.783-7.08 15.783-15.783v-16.566c0-8.704-7.08-15.784-15.784-15.784zm-174.733-42.996 18.027 14.67c8.803 7.162 21.58 7.164 30.381 0l25.034-20.371c.287-.232.702-.233.989.001l25.037 20.374c4.4 3.581 9.794 5.37 15.189 5.37 5.392 0 10.784-1.788 15.184-5.364l20.286-16.495 7.468 44.81h-157.595zm144.792-33.829 2.498 14.989-26.91 21.882c-3.316 2.695-8.128 2.695-11.444-.002l-25.037-20.374c-5.773-4.697-14.152-4.697-19.924 0l-25.033 20.37c-3.316 2.698-8.13 2.699-11.446 0l-27.495-22.374v-22.067h103.667c.007 0 .013.001.02.001s.014-.001.021-.001h32.142c4.449 0 8.21 3.186 8.941 7.576zm7.285-366.879 13.23 9.97c5.469 4.12 9.005 10.124 9.957 16.904.953 6.78-.791 13.525-4.912 18.993l-5.456 7.241-54.173-40.822 5.456-7.24c8.508-11.29 24.611-13.553 35.898-5.046zm-50.382 24.266 54.173 40.822-10.913 14.482-54.172-40.822zm-43.782 30.573 10.31-13.683c.03-.041.125-.166.33-.195.198-.027.328.065.37.096l6.825 5.143c.006.004.011.01.017.014.006.005.013.008.019.013l66.132 49.835c.001.001.002.002.003.002 0 0 .001.001.002.001l6.841 5.155c.04.03.164.124.193.329.028.205-.065.329-.097.37l-10.31 13.684c-.167.221-.482.264-.701.098l-79.836-60.162v.001c-.22-.166-.264-.48-.098-.701zm20.664 289.464h-288.12l144.06-144zm-161.41 81.267h34.7v18.134h-34.7zm34.699-15h-34.7v-18.134h34.7zm-34.699 65.766v-17.633h34.7v17.633c0 .169.02.332.025.5h-34.75c.005-.167.025-.331.025-.5zm34.699-98.9h-34.7v-18.133h34.7zm-179.973-35.786-21.763-221.442 59.445-44.795 114.333 114.285zm-78.125-314.776c.953-6.78 4.489-12.784 9.958-16.904l13.23-9.97c5.468-4.121 12.215-5.869 18.994-4.912 6.78.952 12.783 4.488 16.904 9.957l5.456 7.24-54.173 40.824-5.456-7.241c-4.121-5.468-5.866-12.213-4.913-18.994zm19.396 38.215 54.174-40.823 10.913 14.482-54.174 40.822zm17.651 50.708c-.205-.029-.299-.153-.329-.194l-10.312-13.684c-.031-.041-.124-.165-.095-.37.028-.205.152-.299.194-.33l6.839-5.153c.001-.001.002-.001.003-.002.002-.001.003-.003.005-.004l66.136-49.838c.004-.003.008-.006.013-.009.004-.003.008-.007.012-.01l6.83-5.146c.036-.026.134-.101.294-.101.024 0 .049.001.076.005.205.029.299.153.33.195l10.31 13.682c.166.221.122.536-.099.702l.001-.001-79.837 60.162c-.041.031-.175.123-.371.096zm2.369 243.506h32.141c.007 0 .014.001.021.001s.013-.001.02-.001h103.667v22.066l-27.496 22.374c-3.315 2.698-8.129 2.699-11.445 0l-25.033-20.369c-5.773-4.698-14.152-4.699-19.925-.001l-25.038 20.374c-3.315 2.696-8.128 2.698-11.443.002l-26.91-21.881 2.498-14.988c.732-4.39 4.493-7.577 8.943-7.577zm-21.747 84.401 7.468-44.81 20.287 16.495c4.399 3.577 9.791 5.365 15.183 5.365 5.395 0 10.79-1.791 15.19-5.371l25.039-20.375c.287-.232.702-.232.988.001l25.034 20.37c8.802 7.164 21.58 7.164 30.38 0l18.028-14.67v42.995zm173.096 33.132c-.276 0-.5-.225-.5-.5v-117.033h18.133v117.033c0 .275-.224.5-.5.5zm82.833 0c-.275 0-.5-.225-.5-.5v-117.033h18.134v117.033c0 .275-.225.5-.5.5zm208.151-.783c0 .432-.352.783-.783.783h-174.759c.005-.168.025-.331.025-.5v-17.633h174.733c.432 0 .783.352.783.783v16.567z"/></g></svg>