<svg id="Capa_1" enable-background="new 0 0 512 512" height="512" viewBox="0 0 512 512" width="512" xmlns="http://www.w3.org/2000/svg"><g><g><g><path d="m359.707 257.953 16.898-16.899c3.891-3.891 3.891-10.2 0-14.091l-5.424-5.424c-8.645-8.645-13.502-20.37-13.502-32.596v-70.851h-101.679-101.68v70.851c0 12.226-4.857 23.951-13.502 32.596l-5.424 5.424c-3.891 3.891-3.891 10.2 0 14.091l16.899 16.899c20.549 20.549 48.42 32.094 77.481 32.094h52.452c29.061 0 56.932-11.544 77.481-32.094z" fill="#365f7e"/></g><g><path d="m150.754 241.055c-3.891-3.891-3.891-10.2 0-14.091l5.424-5.424c8.645-8.645 13.502-20.37 13.502-32.596v-70.851h-15.36v70.851c0 12.226-4.857 23.951-13.501 32.596l-5.424 5.424c-3.891 3.891-3.891 10.2 0 14.091l16.899 16.899c20.549 20.549 48.42 32.094 77.481 32.094h15.36c-29.061 0-56.932-11.545-77.481-32.094z" fill="#2c4d66"/></g><g><path d="m226.623 212.277h58.754v76.917h-58.754z" fill="#faa68e"/></g><g><path d="m226.623 212.277v76.917h15.34v-37.896h28.804c5.006 0 9.892-.515 14.61-1.49v-37.531z" fill="#e09380"/></g><g><path d="m266.392 236.18h-20.784c-35.48 0-64.242-28.762-64.242-64.242v-60.292c0-35.48 28.762-64.242 64.242-64.242h20.784c35.48 0 64.242 28.762 64.242 64.242v60.292c0 35.48-28.762 64.242-64.242 64.242z" fill="#ffcdbe"/></g><g><path d="m197.977 171.938v-60.292c0-35.48 28.762-64.242 64.242-64.242h-16.612c-35.48 0-64.242 28.762-64.242 64.242v60.292c0 35.48 28.762 64.242 64.242 64.242h16.612c-35.479 0-64.242-28.762-64.242-64.242z" fill="#ebae9d"/></g><g><path d="m374.344 303.745-88.967-39.967-29.377 25.416-29.377-25.416-88.967 39.967c-14.717 6.611-24.184 21.244-24.184 37.377v154.149c0 5.097 4.132 9.229 9.229 9.229h266.599c5.097 0 9.229-4.132 9.229-9.229v-154.149c-.001-16.133-9.469-30.766-24.185-37.377z" fill="#f6f1f1"/></g><g><path d="m226.623 263.778-88.967 39.967 20.16 11.028 84.088-37.775z" fill="#e2dfe2"/></g><g><path d="m389.299 504.5c5.097 0 9.229-4.132 9.229-9.229v-154.149c0-16.134-9.468-30.766-24.184-37.377l-12.337-5.542-102.751 88.109c-1.873 1.606-4.637 1.606-6.51 0l-102.751-88.109-12.337 5.542c-14.717 6.611-24.184 21.244-24.184 37.377v154.149c0 5.097 4.132 9.229 9.229 9.229z" fill="#e58e82"/></g><g><path d="m133.632 495.272v-143.121c0-16.134 9.467-30.766 24.184-37.377l7.548-3.391-15.37-13.18-12.337 5.542c-14.717 6.611-24.184 21.244-24.184 37.377v154.149c0 5.097 4.132 9.229 9.229 9.229h20.16c-5.098 0-9.23-4.131-9.23-9.228z" fill="#e06c57"/></g><g><path d="m260.717 425.892 128.763-110.413c-3.977-4.954-9.106-9.025-15.136-11.734l-12.337-5.542-102.751 88.109c-1.873 1.606-4.637 1.606-6.51 0l-102.751-88.109-12.337 5.542c-6.03 2.709-11.159 6.78-15.136 11.733l128.763 110.414c2.712 2.328 6.718 2.328 9.432 0z" fill="#fdcd08"/></g><g><path d="m157.816 314.773 7.548-3.391-15.37-13.18-12.337 5.542c-6.03 2.709-11.159 6.78-15.136 11.733l17.388 14.91c4.216-6.722 10.365-12.225 17.907-15.614z" fill="#faab18"/></g><g><path d="m267.059 329.238 10.324-9.858c3.026-2.889 2.983-7.734-.094-10.569l-21.289-19.617-21.289 19.617c-3.077 2.835-3.127 7.673-.101 10.563 2.946 2.813 6.695 6.393 10.33 9.864z" fill="#5d91b9"/></g><g><path d="m259.255 386.312 20.371-17.468v-.001l-12.569-39.604h-22.116l-12.569 39.604 20.373 17.47c1.873 1.605 4.637 1.605 6.51-.001z" fill="#365f7e"/></g><g><path d="m357.68 118.093h-50.371c-6.7 0-13.137-2.613-17.941-7.283l-12.959-12.595c-.811-.788-2.171-.214-2.171.917v12.379c0 3.635-2.947 6.582-6.582 6.582h-23.948c-3.635 0-6.582-2.947-6.582-6.582v-12.318c0-1.14-1.378-1.71-2.184-.904l-12.265 12.265c-4.827 4.827-11.375 7.539-18.202 7.539h-50.155v-42.904c0-37.383 30.305-67.689 67.689-67.689h67.983c37.383 0 67.689 30.305 67.689 67.689v42.904z" fill="#4980ac"/></g><g><path d="m239.529 7.5h-17.52c-37.383 0-67.689 30.305-67.689 67.689v42.904h17.52v-42.904c0-37.383 30.305-67.689 67.689-67.689z" fill="#407194"/></g></g><g><path d="m232.322 144.173c0-4.143-3.358-7.5-7.5-7.5h-3.577c-4.142 0-7.5 3.357-7.5 7.5s3.358 7.5 7.5 7.5h3.577c4.142 0 7.5-3.358 7.5-7.5z"/><path d="m287.178 151.673h3.577c4.142 0 7.5-3.357 7.5-7.5s-3.358-7.5-7.5-7.5h-3.577c-4.142 0-7.5 3.357-7.5 7.5s3.358 7.5 7.5 7.5z"/><path d="m276.533 199.18c3.531-2.166 4.638-6.783 2.473-10.314-2.166-3.53-6.784-4.64-10.314-2.473-7.979 4.894-18.054 5.178-26.295.74l-1.768-.951c-3.647-1.963-8.196-.599-10.159 3.051-1.963 3.647-.597 8.195 3.05 10.158l1.767.95c6.109 3.289 12.86 4.924 19.604 4.924 7.525 0 15.042-2.037 21.642-6.085z"/><path d="m398.528 379.059c4.142 0 7.5-3.357 7.5-7.5v-30.437c0-19.054-11.23-36.41-28.611-44.219l-84.54-37.978v-20.333c26.484-10.562 45.257-36.448 45.257-66.654v-46.346h12.046v63.352c0 14.316 5.575 27.775 15.698 37.897l5.425 5.426c.627.628.721 1.36.721 1.741s-.094 1.114-.722 1.742l-16.898 16.898c-2.379 2.379-4.898 4.66-7.487 6.781-3.204 2.625-3.674 7.351-1.049 10.555 2.625 3.205 7.351 3.673 10.555 1.049 2.971-2.434 5.859-5.051 8.587-7.777l16.899-16.899c3.298-3.299 5.115-7.684 5.115-12.349s-1.817-9.05-5.115-12.348l-5.424-5.426c-7.29-7.289-11.305-16.981-11.305-27.291v-70.852-42.902c0-41.46-33.729-75.189-75.189-75.189h-67.982c-41.459 0-75.189 33.729-75.189 75.189v42.903 70.852c0 10.31-4.015 20.002-11.305 27.292l-5.423 5.424c-3.298 3.299-5.115 7.684-5.115 12.349s1.816 9.05 5.115 12.35l16.898 16.897c3.386 3.387 7.02 6.599 10.8 9.546 1.37 1.068 2.994 1.586 4.606 1.586 2.232 0 4.441-.992 5.92-2.888 2.547-3.267 1.964-7.979-1.303-10.526-3.297-2.571-6.465-5.371-9.417-8.324l-16.898-16.897c-.628-.629-.722-1.362-.722-1.743s.094-1.113.722-1.742l5.423-5.424c10.123-10.123 15.698-23.582 15.698-37.898v-63.352h12.046v46.346c0 30.206 18.774 56.092 45.257 66.654v20.333l-84.54 37.978c-17.38 7.809-28.611 25.165-28.611 44.219v154.149c0 9.225 7.504 16.729 16.729 16.729h266.599c9.224 0 16.729-7.504 16.729-16.729v-89.653c0-4.143-3.358-7.5-7.5-7.5s-7.5 3.357-7.5 7.5v89.651c0 .953-.775 1.729-1.729 1.729h-50.739v-69.439c0-4.143-3.358-7.5-7.5-7.5s-7.5 3.357-7.5 7.5v69.439h-135.12v-69.439c0-4.143-3.358-7.5-7.5-7.5s-7.5 3.357-7.5 7.5v69.439h-50.739c-.953 0-1.729-.775-1.729-1.729v-154.149c0-5.049 1.151-9.92 3.236-14.317l27.228 23.348c1.415 1.213 3.151 1.807 4.879 1.807 2.113 0 4.213-.888 5.697-2.618 2.696-3.145 2.333-7.879-.811-10.575l-27.683-23.738c2.181-1.753 4.588-3.263 7.212-4.441l7.996-3.592 99.139 85.012c2.357 2.021 5.246 3.03 8.135 3.03 2.89 0 5.78-1.011 8.138-3.031l99.138-85.011 7.995 3.592c2.624 1.179 5.031 2.689 7.212 4.441l-122.483 105.029-70.178-60.178c-3.146-2.696-7.879-2.335-10.576.812-2.696 3.145-2.333 7.879.811 10.575l70.343 60.319c2.782 2.385 6.19 3.577 9.599 3.577s6.818-1.192 9.599-3.577l122.193-104.781c2.085 4.397 3.236 9.268 3.236 14.317v30.437c.001 4.142 3.359 7.5 7.501 7.5zm-236.708-303.87c0-33.188 27-60.189 60.189-60.189h67.982c33.188 0 60.189 27.001 60.189 60.189v35.403h-42.872c-4.775 0-9.29-1.833-12.713-5.16l-12.958-12.595c-1.674-1.628-3.875-2.487-6.114-2.487-1.152 0-2.315.228-3.421.694-3.258 1.377-5.363 4.551-5.363 8.088v11.46h-22.111v-11.399c0-3.562-2.127-6.746-5.418-8.11-3.293-1.363-7.047-.618-9.569 1.903l-12.264 12.264c-3.445 3.445-8.026 5.343-12.899 5.343h-42.658zm27.046 96.749v-46.346h15.612c8.879 0 17.227-3.457 23.505-9.736l1.864-1.863c1.175 6.586 6.944 11.6 13.862 11.6h23.948c7.024 0 12.863-5.169 13.913-11.902l2.57 2.498c6.239 6.064 14.467 9.404 23.168 9.404h15.826v46.346c0 31.288-25.455 56.742-56.742 56.742h-20.784c-31.288 0-56.742-25.454-56.742-56.743zm56.742 71.743h20.784c3.91 0 7.743-.326 11.485-.931v17.6l-21.877 18.926-21.877-18.927v-17.6c3.742.605 7.575.932 11.485.932zm10.392 135.543-14.978-12.844 9.407-29.642h11.14l9.407 29.644zm8.053-57.486h-16.106l-7.954-7.596 16.007-14.749 16.007 14.75zm-38.72-49.158 19.407 16.79-15.112 13.926c-2.986 2.753-4.72 6.659-4.755 10.717-.036 4.054 1.625 7.984 4.558 10.785l6.946 6.633-7.725 24.341-64.804-55.57zm58.014 83.194-7.725-24.342 6.94-6.628c2.935-2.803 4.598-6.737 4.562-10.795s-1.768-7.962-4.752-10.714l-15.112-13.925 19.407-16.79 61.487 27.622z"/></g></g></svg>