<svg id="Capa_1" enable-background="new 0 0 512 512" height="512" viewBox="0 0 512 512" width="512" xmlns="http://www.w3.org/2000/svg"><g><g><g><path d="m396.817 213.065h33.133v164.902h-33.133z" fill="#413e82"/><path d="m396.817 33.633h33.133v98.199h-33.133z" fill="#413e82"/><path d="m406.95 213.065h23v164.902h-23z" fill="#2f2c59"/><path d="m406.95 33.633h23v98.199h-23z" fill="#2f2c59"/><path d="m388.533 214.867c0 4.418 3.582 8 8 8h33.7c4.418 0 8-3.582 8-8v-83.4c0-4.418-3.582-8-8-8h-33.7c-4.418 0-8 3.582-8 8z" fill="#f6df59"/><path d="m430.233 123.467h-23c4.418 0 8 3.582 8 8v83.4c0 4.418-3.582 8-8 8h23c4.418 0 8-3.582 8-8v-83.4c0-4.419-3.581-8-8-8z" fill="#edbf50"/><path d="m446.8 189.733h-66.833c-4.418 0-8-3.582-8-8v-17.133c0-4.418 3.582-8 8-8h66.833c4.418 0 8 3.582 8 8v17.133c0 4.419-3.582 8-8 8z" fill="#f3ffff"/><path d="m446.8 156.6h-23c4.418 0 8 3.582 8 8v17.133c0 4.418-3.582 8-8 8h23c4.418 0 8-3.582 8-8v-17.133c0-4.418-3.582-8-8-8z" fill="#dff9f9"/></g><g><path d="m82.05 213.065h33.133v164.902h-33.133z" fill="#413e82"/><path d="m82.05 33.633h33.133v98.199h-33.133z" fill="#413e82"/><path d="m92.183 213.065h23v164.902h-23z" fill="#2f2c59"/><path d="m92.183 33.633h23v98.199h-23z" fill="#2f2c59"/><path d="m73.767 214.867c0 4.418 3.582 8 8 8h33.7c4.418 0 8-3.582 8-8v-83.4c0-4.418-3.582-8-8-8h-33.7c-4.418 0-8 3.582-8 8z" fill="#f6df59"/><path d="m115.467 123.467h-23c4.418 0 8 3.582 8 8v83.4c0 4.418-3.582 8-8 8h23c4.418 0 8-3.582 8-8v-83.4c0-4.419-3.582-8-8-8z" fill="#edbf50"/><path d="m132.033 189.733h-66.833c-4.418 0-8-3.582-8-8v-17.133c0-4.418 3.582-8 8-8h66.833c4.418 0 8 3.582 8 8v17.133c0 4.419-3.581 8-8 8z" fill="#f3ffff"/><path d="m132.033 156.6h-23c4.418 0 8 3.582 8 8v17.133c0 4.418-3.582 8-8 8h23c4.418 0 8-3.582 8-8v-17.133c0-4.418-3.581-8-8-8z" fill="#dff9f9"/></g><path d="m438.233 393.218h-364.466l-38.656 11.882-11.044 66.267v11.673h463.866v-11.673l-11.044-66.267z" fill="#924af5"/><path d="m452.647 397.648 12.286 73.719v11.673h23v-11.673l-11.044-66.267z" fill="#7536f9"/><path d="m473.674 385.81c-1.331-7.988-8.243-13.843-16.341-13.843h-143.35l-16.567 7.231-16.567-7.231h-49.7l-16.567 7.231-16.567-7.231h-143.348c-8.098 0-15.01 5.855-16.341 13.843l-3.215 19.29 30.295 24.632c6.09 4.952 14.819 4.95 20.908-.004l25.038-20.374c3.045-2.478 7.411-2.478 10.456 0l25.034 20.371c6.09 4.955 14.823 4.955 20.913 0l30.262-24.625h115.967l30.262 24.625c6.09 4.955 14.823 4.955 20.913 0l25.034-20.371c3.045-2.478 7.411-2.478 10.456 0l25.038 20.374c6.088 4.954 14.817 4.956 20.908.004l30.295-24.632z" fill="#f6df59"/><path d="m450.674 385.81 5.96 35.759 20.255-16.469-3.215-19.29c-1.331-7.988-8.243-13.843-16.341-13.843h-23c8.098 0 15.009 5.855 16.341 13.843z" fill="#edbf50"/><path d="m496.217 471.367c4.575 0 8.283 3.708 8.283 8.283v16.567c0 4.575-3.709 8.283-8.283 8.283h-480.434c-4.575 0-8.283-3.709-8.283-8.283v-16.567c0-4.575 3.709-8.283 8.283-8.283z" fill="#f6df59"/><path d="m463.367 40.633h-414.734c-4.418 0-8-3.582-8-8v-17.133c0-4.418 3.582-8 8-8h414.733c4.418 0 8 3.582 8 8v17.133c.001 4.419-3.581 8-7.999 8z" fill="#e59f4f"/><path d="m496.217 471.367h-23c4.575 0 8.283 3.708 8.283 8.283v16.567c0 4.575-3.708 8.283-8.283 8.283h23c4.575 0 8.283-3.708 8.283-8.283v-16.567c0-4.575-3.708-8.283-8.283-8.283z" fill="#edbf50"/><path d="m313.983 371.967v124.533c0 4.418-3.582 8-8 8h-17.133c-4.418 0-8-3.582-8-8v-124.533z" fill="#f3ffff"/><path d="m290.983 371.967v124.533c0 3.382-2.101 6.267-5.067 7.438.909.359 1.897.562 2.933.562h17.133c4.418 0 8-3.582 8-8v-124.533z" fill="#dff9f9"/><path d="m231.15 371.967v124.533c0 4.418-3.582 8-8 8h-17.133c-4.418 0-8-3.582-8-8v-124.533z" fill="#f3ffff"/><path d="m208.15 371.967v124.533c0 3.382-2.101 6.267-5.067 7.438.909.359 1.897.562 2.933.562h17.133c4.418 0 8-3.582 8-8v-124.533z" fill="#dff9f9"/><path d="m463.367 7.5h-23c4.418 0 8 3.582 8 8v17.133c0 4.418-3.582 8-8 8h23c4.418 0 8-3.582 8-8v-17.133c0-4.418-3.582-8-8-8z" fill="#e27f4d"/><path d="m297.7 189.733h-83.4c-4.418 0-8-3.582-8-8v-17.133c0-4.418 3.582-8 8-8h83.4c4.418 0 8 3.582 8 8v17.133c0 4.419-3.582 8-8 8z" fill="#f3ffff"/><path d="m297.7 156.6h-23c4.418 0 8 3.582 8 8v17.133c0 4.418-3.582 8-8 8h23c4.418 0 8-3.582 8-8v-17.133c0-4.418-3.582-8-8-8z" fill="#dff9f9"/></g><path d="m496.217 463.867h-1.93l-13.214-79.29c-1.942-11.652-11.926-20.11-23.739-20.11h-19.884v-135.894c4.919-2.601 8.283-7.765 8.283-13.706v-17.633h1.066c8.547 0 15.5-6.953 15.5-15.5v-17.134c0-8.547-6.953-15.5-15.5-15.5h-1.066v-17.633c0-5.941-3.364-11.105-8.283-13.706v-69.628h25.917c8.547 0 15.5-6.953 15.5-15.5v-17.133c0-8.547-6.953-15.5-15.5-15.5h-318.184c-4.142 0-7.5 3.358-7.5 7.5s3.358 7.5 7.5 7.5h61.9v18.133h-158.45c-.276 0-.5-.224-.5-.5v-17.133c0-.276.224-.5.5-.5h66.55c4.142 0 7.5-3.358 7.5-7.5s-3.358-7.5-7.5-7.5h-66.55c-8.547 0-15.5 6.953-15.5 15.5v17.133c0 8.547 6.953 15.5 15.5 15.5h25.917v69.627c-4.919 2.601-8.283 7.765-8.283 13.706v17.634h-1.067c-8.547 0-15.5 6.953-15.5 15.5v17.133c0 8.547 6.953 15.5 15.5 15.5h1.066v17.633c0 5.941 3.364 11.105 8.283 13.706v135.894h-19.882c-11.813 0-21.797 8.457-23.739 20.11l-13.215 79.29h-1.93c-8.703.001-15.783 7.081-15.783 15.784v16.567c0 8.702 7.08 15.783 15.783 15.783h68.251c4.142 0 7.5-3.358 7.5-7.5s-3.358-7.5-7.5-7.5h-68.251c-.432 0-.783-.352-.783-.783v-16.567c0-.432.352-.783.783-.783h174.733v17.633c0 .169.02.332.025.5h-76.508c-4.142 0-7.5 3.358-7.5 7.5s3.358 7.5 7.5 7.5h382.183c8.703 0 15.783-7.081 15.783-15.783v-16.567c.001-8.703-7.079-15.783-15.782-15.783zm-174.734-42.995 18.027 14.669c8.803 7.164 21.58 7.164 30.381 0l25.033-20.371c.287-.233.703-.233.99 0l25.037 20.375c4.4 3.581 9.795 5.371 15.191 5.371 5.392 0 10.783-1.789 15.183-5.365l20.286-16.494 7.468 44.809h-157.596zm144.792-33.829 2.498 14.989-26.911 21.881c-3.316 2.695-8.129 2.694-11.443-.002l-25.038-20.375c-5.772-4.696-14.152-4.695-19.923.001l-25.033 20.371c-3.316 2.697-8.13 2.699-11.446 0l-27.495-22.373v-22.067h135.85c4.449-.001 8.21 3.185 8.941 7.575zm-43.825-138.543h-18.134v-18.133h18.134zm-18.134 115.967v-100.967h18.134v100.967zm26.417-149.6c0 .276-.225.5-.5.5h-.283-33.134-.283c-.275 0-.5-.224-.5-.5v-17.633h34.7zm16.567-50.267v17.133c0 .276-.225.5-.5.5h-66.833c-.275 0-.5-.224-.5-.5v-17.133c0-.276.225-.5.5-.5h66.833c.275 0 .5.224.5.5zm-24.85-48.633h-18.134v-18.133h18.134zm-26.417 33.133v-17.633c0-.276.225-.5.5-.5h33.7c.275 0 .5.224.5.5v17.633zm26.417-66.266h-18.134v-34.7h18.134zm41.417-67.334v17.133c0 .276-.225.5-.5.5h-158.45v-18.133h158.45c.276 0 .5.224.5.5zm-241.784-.5h67.834v18.133h-67.834zm75.617 149.1c.275 0 .5.224.5.5v17.133c0 .276-.225.5-.5.5h-83.4c-.276 0-.5-.224-.5-.5v-17.133c0-.276.224-.5.5-.5zm-7.783-15h-67.834v-100.967h67.834zm-82.834 1.794c-4.92 2.601-8.284 7.765-8.284 13.706v17.133c0 8.547 6.953 15.5 15.5 15.5h83.4c8.547 0 15.5-6.953 15.5-15.5v-17.133c0-5.941-3.364-11.105-8.283-13.706v-102.761h84.399v69.627c-4.919 2.601-8.283 7.765-8.283 13.706v17.634h-1.066c-8.547 0-15.5 6.953-15.5 15.5v17.133c0 8.547 6.953 15.5 15.5 15.5h1.066v17.633c0 5.941 3.364 11.105 8.283 13.706v135.894h-266.632v-135.893c4.92-2.601 8.284-7.765 8.284-13.706v-17.633h1.066c8.547 0 15.5-6.953 15.5-15.5v-17.134c0-8.547-6.953-15.5-15.5-15.5h-1.066v-17.633c0-5.941-3.364-11.106-8.284-13.706v-69.628h84.4zm31.567 294.839h34.7v18.133h-34.7zm34.7-15h-34.7v-18.133h34.7zm-34.7 65.767v-17.633h34.7v17.633c0 .169.02.332.025.5h-34.75c.005-.168.025-.331.025-.5zm34.7-98.9h-34.7v-18.133h34.7zm-183.8-167.233h18.133v18.133h-18.133zm0-114.4v-18.133h18.133v18.133zm18.133-67.834v34.7h-18.133v-34.7zm-26.416 83.334c0-.276.224-.5.5-.5h33.7c.276 0 .5.224.5.5v17.633h-34.7zm-16.567 50.266v-17.133c0-.276.224-.5.5-.5h66.833c.276 0 .5.224.5.5v17.133c0 .276-.224.5-.5.5h-66.833c-.276 0-.5-.224-.5-.5zm51.267 15.5v17.633c0 .276-.224.5-.5.5h-.284-33.133-.283c-.276 0-.5-.224-.5-.5v-17.633zm-26.417 66.267h18.133v100.967h-18.133zm-34.883 115.967h135.849v22.067l-27.496 22.374c-3.315 2.698-8.129 2.698-11.445 0l-25.035-20.371c-5.771-4.697-14.151-4.696-19.923 0l-25.038 20.374c-3.316 2.697-8.128 2.698-11.443.002l-26.912-21.881 2.498-14.99c.734-4.389 4.495-7.575 8.945-7.575zm-21.747 84.4 7.468-44.809 20.286 16.494c4.399 3.577 9.79 5.365 15.183 5.365 5.395 0 10.79-1.79 15.19-5.371l25.037-20.374c.287-.232.703-.233.989 0l25.034 20.37c8.802 7.164 21.58 7.164 30.38 0l18.028-14.67v42.994h-157.595zm173.097 33.133c-.276 0-.5-.224-.5-.5v-117.033h18.133v117.033c0 .276-.224.5-.5.5zm82.833 0c-.275 0-.5-.224-.5-.5v-117.033h18.134v117.033c0 .276-.225.5-.5.5zm208.15-.783c0 .432-.352.783-.783.783h-174.759c.005-.168.025-.331.025-.5v-17.633h174.733c.432 0 .783.352.783.783v16.567z"/></g></svg>