<svg id="Capa_1" enable-background="new 0 0 512 512" height="512" viewBox="0 0 512 512" width="512" xmlns="http://www.w3.org/2000/svg"><g><g><path d="m166.356 222.867h179.287v143.117h-179.287z" fill="#dff9f9"/><path d="m140.033 245.416h33.133v120.568h-33.133z" fill="#dc3d36"/><path d="m150.167 245.416h23v120.568h-23z" fill="#b13d49"/><path d="m338.833 245.416h33.133v120.568h-33.133z" fill="#dc3d36"/><path d="m348.967 245.416h23v120.568h-23z" fill="#b13d49"/><g><path d="m331.267 239.433h-9.001c0 9.15-7.417 16.567-16.567 16.567h-33.133c-9.15 0-16.567-7.417-16.567-16.567h-66.267c0 9.15-7.417 16.567-16.567 16.567h-33.133c-9.149 0-16.567-7.417-16.567-16.567v-41.417l12.266-8.283h195.535v49.7z" fill="#f3ffff"/><path d="m322.267 192.426v47.008c0 9.15 7.417 16.567 16.567 16.567h33.133c9.15 0 16.567-7.417 16.567-16.567v-41.417z" fill="#de5e4c"/><path d="m365.533 196.076v43.357c0 9.149-7.417 16.567-16.566 16.567h23c9.149 0 16.566-7.417 16.566-16.567v-41.417z" fill="#dc3d36"/><path d="m189.733 192.426v47.008c0 9.15 7.417 16.567 16.567 16.567h33.133c9.15 0 16.567-7.417 16.567-16.567v-47.008z" fill="#de5e4c"/><path d="m388.533 198.017v-6.486c0-11.424-5.885-22.042-15.573-28.097l-116.96-73.101-116.961 73.1c-9.688 6.055-15.573 16.673-15.573 28.097v6.486h265.067z" fill="#dc3d36"/><path d="m372.961 163.434-116.961-73.101-11.5 7.188 105.461 65.913c9.688 6.055 15.572 16.673 15.572 28.097v6.486h23v-6.486c0-11.424-5.885-22.043-15.572-28.097z" fill="#b13d49"/></g><path d="m347.661 73.767h-25.395c-9.15 0-16.567-7.417-16.567-16.567l-13.593-33.133h55.554c3.308 0 5.281 3.687 3.446 6.439l-10.742 16.114c-.927 1.391-.927 3.204 0 4.595l10.742 16.114c1.836 2.751-.137 6.438-3.445 6.438z" fill="#dc3d36"/><path d="m340.365 51.214c-.927-1.391-.927-3.204 0-4.595l10.742-16.114c1.835-2.752-.138-6.439-3.446-6.439h-23.055c3.308 0 5.281 3.687 3.446 6.439l-10.742 16.114c-.927 1.391-.927 3.203 0 4.595l10.742 16.114c1.835 2.752-.138 6.439-3.446 6.439h23.055c3.308 0 5.281-3.687 3.446-6.439z" fill="#b13d49"/><path d="m305.7 57.2h-49.7v-49.7h33.7c8.836 0 16 7.163 16 16z" fill="#de5e4c"/><g><path d="m314.619 156.6h-117.238c-3.427 0-6.39 2.194-7.623 5.392-1.87 4.849-6.145 9.261-11.212 11.188-3.228 1.228-5.379 4.296-5.379 7.75v17.608c0 3.454 2.151 6.523 5.379 7.75 5.067 1.927 9.342 6.339 11.212 11.188 1.233 3.197 4.196 5.392 7.623 5.392h117.238c3.427 0 6.39-2.194 7.623-5.392 1.87-4.849 6.145-9.261 11.212-11.188 3.228-1.227 5.379-4.296 5.379-7.75v-17.608c0-3.454-2.151-6.523-5.379-7.75-5.067-1.927-9.341-6.339-11.212-11.188-1.233-3.198-4.196-5.392-7.623-5.392z" fill="#f6df59"/><path d="m333.454 173.179c-5.067-1.927-9.342-6.339-11.212-11.188-1.233-3.197-4.196-5.392-7.623-5.392h-23c3.427 0 6.39 2.194 7.623 5.392 1.87 4.849 6.145 9.261 11.212 11.188 3.228 1.228 5.379 4.296 5.379 7.75v17.608c0 3.454-2.151 6.523-5.379 7.75-5.067 1.927-9.342 6.339-11.212 11.188-1.233 3.197-4.196 5.391-7.623 5.392h23c3.427 0 6.39-2.194 7.623-5.392 1.87-4.849 6.145-9.261 11.212-11.188 3.228-1.227 5.379-4.296 5.379-7.75v-17.608c0-3.453-2.151-6.522-5.379-7.75z" fill="#edbf50"/></g><path d="m231.15 365.984v-35.434c0-13.724 11.126-24.85 24.85-24.85s24.85 11.126 24.85 24.85v35.434z" fill="#413e82"/><path d="m140.033 378.96h231.933v101.979h-231.933z" fill="#dc3d36"/><path d="m348.967 378.96h23v101.979h-23z" fill="#b13d49"/><path d="m289.133 480.94h-66.267v-42.99c0-4.418 3.582-8 8-8h50.267c4.418 0 8 3.582 8 8z" fill="#de5e4c"/><path d="m256 305.7c-4.151 0-8.061 1.023-11.5 2.823 7.933 4.15 13.35 12.454 13.35 22.027v35.434h23v-35.434c0-13.724-11.126-24.85-24.85-24.85z" fill="#2f2c59"/><path d="m380.533 388.533h-249.066c-4.418 0-8-3.582-8-8v-17.133c0-4.418 3.582-8 8-8h249.067c4.418 0 8 3.582 8 8v17.133c-.001 4.419-3.582 8-8.001 8z" fill="#e59f4f"/><path d="m380.533 355.4h-23c4.418 0 8 3.582 8 8v17.133c0 4.418-3.582 8-8 8h23c4.418 0 8-3.582 8-8v-17.133c0-4.418-3.581-8-8-8z" fill="#e27f4d"/><path d="m397.1 504.5h-282.2c-4.418 0-8-3.582-8-8v-17.133c0-4.418 3.582-8 8-8h282.2c4.418 0 8 3.582 8 8v17.133c0 4.418-3.582 8-8 8z" fill="#f3ffff"/><path d="m397.1 471.367h-23c4.418 0 8 3.582 8 8v17.133c0 4.418-3.582 8-8 8h23c4.418 0 8-3.582 8-8v-17.133c0-4.419-3.582-8-8-8z" fill="#dff9f9"/></g><g><path d="m206.3 197.233h33.134c4.143 0 7.5-3.358 7.5-7.5s-3.357-7.5-7.5-7.5h-33.134c-4.143 0-7.5 3.358-7.5 7.5s3.357 7.5 7.5 7.5z"/><path d="m272.566 197.233h33.134c4.143 0 7.5-3.358 7.5-7.5s-3.357-7.5-7.5-7.5h-33.134c-4.143 0-7.5 3.358-7.5 7.5s3.358 7.5 7.5 7.5z"/><path d="m397.1 463.867h-17.633v-67.833h1.066c8.547 0 15.5-6.953 15.5-15.5v-17.134c0-8.547-6.953-15.5-15.5-15.5h-1.066v-85.603c9.608-3.16 16.566-12.212 16.566-22.864v-47.902c0-14.102-7.139-26.983-19.098-34.457l-113.435-70.897v-21.477h35.903c3.16 9.608 12.212 16.566 22.863 16.566h25.395c4.302 0 8.234-2.356 10.265-6.148 2.029-3.793 1.808-8.372-.578-11.951l-9.5-14.251 9.5-14.25c2.386-3.579 2.607-8.158.578-11.951-2.03-3.792-5.963-6.148-10.265-6.148h-35.506c-2.965-9.584-11.909-16.567-22.455-16.567h-33.7c-4.143 0-7.5 3.358-7.5 7.5v78.677l-113.436 70.897c-11.959 7.474-19.098 20.355-19.098 34.457v47.902c0 10.652 6.958 19.704 16.566 22.864v44.235c0 4.142 3.357 7.5 7.5 7.5s7.5-3.358 7.5-7.5v-43.032h18.134v84.4h-18.134v-11.368c0-4.142-3.357-7.5-7.5-7.5s-7.5 3.358-7.5 7.5v11.368h-1.066c-8.547 0-15.5 6.953-15.5 15.5v17.133c0 8.547 6.953 15.5 15.5 15.5h1.066v67.833h-17.632c-8.547 0-15.5 6.953-15.5 15.5v17.134c0 8.547 6.953 15.5 15.5 15.5h31.767c4.143 0 7.5-3.358 7.5-7.5s-3.357-7.5-7.5-7.5h-31.767c-.275 0-.5-.224-.5-.5v-17.133c0-.276.225-.5.5-.5h282.2c.275 0 .5.224.5.5v17.133c0 .276-.225.5-.5.5h-220.433c-4.143 0-7.5 3.358-7.5 7.5s3.357 7.5 7.5 7.5h220.433c8.547 0 15.5-6.953 15.5-15.5v-17.133c0-8.547-6.953-15.5-15.5-15.5zm-50.767-115.967v-84.4h18.134v84.4zm25.634-99.4h-33.134c-4.999 0-9.066-4.067-9.066-9.067v-20.402c1.345-2.529 3.772-4.752 6.353-5.734 3.796-1.443 6.815-4.28 8.559-7.781h36.355v33.917c-.001 5-4.068 9.067-9.067 9.067zm-57.2-9.067c0 4.999-4.067 9.067-9.066 9.067h-33.134c-4.999 0-9.066-4.067-9.066-9.067v-9.066h51.119c.05 0 .098-.005.147-.006zm-66.267 0c0 4.999-4.067 9.067-9.066 9.067h-33.134c-4.999 0-9.066-4.067-9.066-9.067v-9.072c.049.001.098.006.148.006h51.118zm-67.833-58.503c0-.324.214-.614.544-.74 6.915-2.629 12.871-8.568 15.544-15.499.11-.285.353-.591.626-.591h117.238c.273 0 .516.306.625.59 2.674 6.932 8.63 12.871 15.545 15.499.33.126.544.417.544.74v17.607c0 .324-.214.614-.544.74-6.915 2.629-12.871 8.568-15.544 15.499-.11.285-.352.591-.626.591h-117.238c-.273 0-.516-.306-.625-.59-2.674-6.931-8.63-12.871-15.545-15.499-.33-.126-.544-.416-.544-.74zm153.458-125.556 7.262 10.893h-19.12c-4.999 0-9.066-4.067-9.066-9.066v-25.634h28.186l-7.261 10.892c-2.617 3.923-2.616 8.993-.001 12.915zm-35.925-31.874v.567 25.633h-34.7v-34.7h26.2c4.687 0 8.5 3.813 8.5 8.5zm-155.186 146.294 112.986-70.616 112.986 70.616c7.255 4.535 11.686 12.227 12.015 20.723h-34.668v-9.587c0-6.506-4.105-12.438-10.214-14.761-2.963-1.126-5.728-3.889-6.88-6.876-2.388-6.192-8.127-10.192-14.62-10.192h-117.238c-6.493 0-12.232 4.001-14.621 10.193-1.151 2.986-3.916 5.749-6.879 6.876-6.109 2.323-10.214 8.254-10.214 14.761v9.587h-34.668c.329-8.498 4.76-16.19 12.015-20.724zm-12.047 35.723h36.355c1.744 3.501 4.764 6.338 8.559 7.781 2.579.981 5.007 3.203 6.352 5.733v20.403c0 4.999-4.067 9.067-9.066 9.067h-33.134c-4.999 0-9.066-4.067-9.066-9.067zm49.7 56.78c3.425-1.126 6.51-3.001 9.066-5.431 4.319 4.106 10.151 6.634 16.566 6.634h33.134c6.416 0 12.248-2.528 16.566-6.634 4.319 4.106 10.151 6.634 16.566 6.634h33.135c6.415 0 12.248-2.528 16.566-6.634 2.556 2.43 5.642 4.305 9.066 5.431v85.603h-42.982v-17.35c0-17.837-14.512-32.35-32.35-32.35s-32.35 14.512-32.35 32.35v17.35h-42.983zm57.983 85.603v-17.35c0-9.566 7.783-17.35 17.35-17.35s17.35 7.783 17.35 17.35v17.35zm-107.683 32.633v-17.133c0-.276.225-.5.5-.5h249.066c.275 0 .5.224.5.5v17.133c0 .276-.225.5-.5.5h-249.066c-.276 0-.5-.224-.5-.5zm16.566 15.5h216.934v67.833h-67.834v-25.916c0-8.547-6.953-15.5-15.5-15.5h-50.266c-8.547 0-15.5 6.953-15.5 15.5v25.917h-67.834zm134.1 67.834h-51.266v-25.917c0-.276.225-.5.5-.5h50.266c.275 0 .5.224.5.5z"/></g></g></svg>