<svg id="Capa_1" enable-background="new 0 0 512 512" height="512" viewBox="0 0 512 512" width="512" xmlns="http://www.w3.org/2000/svg"><g><g><g><path d="m40.39 499.5v-290.14h55.56l-24.454 290.559c-.218 2.59-2.384 4.581-4.982 4.581h-21.123c-2.762 0-5.001-2.239-5.001-5z" fill="#e9a761"/></g><g><path d="m471.61 499.5v-290.14h-55.56l24.454 290.559c.218 2.59 2.384 4.581 4.982 4.581h21.123c2.762 0 5.001-2.239 5.001-5z" fill="#e9a761"/></g><g><path d="m40.39 209.36v290.14c0 2.761 2.239 5 5 5h20.52c-2.761 0-5-2.239-5-5v-257.74h32.313l2.727-32.4z" fill="#e69642"/></g><g><path d="m471.61 209.36h-55.56l24.454 290.559c.218 2.59 2.384 4.581 4.982 4.581h20.52c-2.599 0-4.764-1.991-4.982-4.581l-21.727-258.159h32.313z" fill="#e69642"/></g><g><path d="m174.74 171.443h33.48v305.02h-33.48z" fill="#d3ced5"/></g><g><path d="m174.74 171.443h13.5v305.02h-13.5z" fill="#c3bec6"/></g><g><path d="m303.78 171.443h33.48v305.02h-33.48z" fill="#d3ced5"/></g><g><path d="m303.78 171.443h13.5v305.02h-13.5z" fill="#c3bec6"/></g><g><path d="m346.5 252.549h-181c-11.046 0-20-8.954-20-20v-205.049c0-11.046 8.954-20 20-20h181c11.046 0 20 8.954 20 20v205.049c0 11.046-8.954 20-20 20z" fill="#b3dafe"/></g><g><path d="m145.5 312.974v34.957c0 5.523 4.477 10 10 10h201c5.523 0 10-4.477 10-10v-34.957c0-5.523-4.477-10-10-10h-201c-5.523 0-10 4.477-10 10z" fill="#b3dafe"/></g><g><path d="m166.38 232.549v-205.049c0-11.046 8.954-20 20-20h-20.88c-11.046 0-20 8.954-20 20v205.049c0 11.046 8.954 20 20 20h20.88c-11.046 0-20-8.954-20-20z" fill="#8ac9fe"/></g><g><path d="m166.38 347.932v-34.958c0-5.523 4.477-10 10-10h-20.88c-5.523 0-10 4.477-10 10v34.958c0 5.523 4.477 10 10 10h20.88c-5.523 0-10-4.478-10-10z" fill="#8ac9fe"/></g><g><path d="m494.5 215.962h-477c-5.523 0-10-4.477-10-10v-28.684c0-5.523 4.477-10 10-10h477c5.523 0 10 4.477 10 10v28.684c0 5.523-4.477 10-10 10z" fill="#e1761c"/></g><g><path d="m28.78 205.962v-28.684c0-5.523 4.477-10 10-10h-21.28c-5.523 0-10 4.477-10 10v28.684c0 5.523 4.477 10 10 10h21.28c-5.523 0-10-4.477-10-10z" fill="#d76718"/></g><g><path d="m287.36 475.76v23.74c0 2.761 2.239 5 5 5h56.32c2.761 0 5-2.239 5-5v-23.74c0-2.761-2.239-5-5-5h-56.32c-2.761 0-5 2.239-5 5z" fill="#365f7e"/></g><g><path d="m305.04 499.5v-23.74c0-2.761 2.239-5 5-5h-17.68c-2.761 0-5 2.239-5 5v23.74c0 2.761 2.239 5 5 5h17.68c-2.761 0-5-2.238-5-5z" fill="#2c4d66"/></g><g><path d="m158.32 475.76v23.74c0 2.761 2.239 5 5 5h56.32c2.761 0 5-2.239 5-5v-23.74c0-2.761-2.239-5-5-5h-56.32c-2.761 0-5 2.239-5 5z" fill="#365f7e"/></g><g><path d="m176 499.5v-23.74c0-2.761 2.239-5 5-5h-17.68c-2.761 0-5 2.239-5 5v23.74c0 2.761 2.239 5 5 5h17.68c-2.761 0-5-2.238-5-5z" fill="#2c4d66"/></g></g><path d="m494.5 159.778h-120.5v-63.978c0-4.142-3.358-7.5-7.5-7.5s-7.5 3.358-7.5 7.5v63.978h-206v-132.278c0-6.893 5.607-12.5 12.5-12.5h181c6.893 0 12.5 5.607 12.5 12.5v33.859c0 4.142 3.358 7.5 7.5 7.5s7.5-3.358 7.5-7.5v-33.859c0-15.164-12.336-27.5-27.5-27.5h-181c-15.164 0-27.5 12.336-27.5 27.5v132.278h-29.56c-4.142 0-7.5 3.358-7.5 7.5s3.358 7.5 7.5 7.5h386.06c1.378 0 2.5 1.122 2.5 2.5v28.684c0 1.378-1.122 2.5-2.5 2.5h-477c-1.378 0-2.5-1.122-2.5-2.5v-28.684c0-1.378 1.122-2.5 2.5-2.5h60.14c4.142 0 7.5-3.358 7.5-7.5s-3.358-7.5-7.5-7.5h-60.14c-9.649 0-17.5 7.851-17.5 17.5v28.684c0 9.649 7.851 17.5 17.5 17.5h15.39v276.038c0 6.893 5.607 12.5 12.5 12.5h21.123c6.443 0 11.915-5.03 12.456-11.452l23.321-277.086h35.71v9.087c0 15.164 12.336 27.5 27.5 27.5h1.74v35.425h-11.74c-9.649 0-17.5 7.851-17.5 17.5v34.958c0 9.649 7.851 17.5 17.5 17.5h11.74v97.829h-3.92c-6.893 0-12.5 5.607-12.5 12.5v23.74c0 6.893 5.607 12.5 12.5 12.5h56.32c6.893 0 12.5-5.607 12.5-12.5v-23.74c0-6.893-5.607-12.5-12.5-12.5h-3.92v-97.829h80.56v97.829h-3.92c-6.893 0-12.5 5.607-12.5 12.5v23.74c0 6.893 5.607 12.5 12.5 12.5h56.32c6.893 0 12.5-5.607 12.5-12.5v-23.74c0-6.893-5.607-12.5-12.5-12.5h-3.92v-97.829h11.74c9.649 0 17.5-7.851 17.5-17.5v-34.958c0-9.649-7.851-17.5-17.5-17.5h-11.74v-35.425h1.74c15.164 0 27.5-12.336 27.5-27.5v-9.087h35.71l23.321 277.087c.542 6.421 6.013 11.451 12.456 11.451h21.123c6.893 0 12.5-5.607 12.5-12.5v-175.547c0-4.142-3.358-7.5-7.5-7.5s-7.5 3.358-7.5 7.5v173.047h-16.325l-23.022-273.538h39.347v68.998c0 4.142 3.358 7.5 7.5 7.5s7.5-3.358 7.5-7.5v-68.998h15.39c9.649 0 17.5-7.851 17.5-17.5v-28.684c0-9.65-7.851-17.5-17.5-17.5zm-430.285 337.222h-16.325v-273.538h39.347zm118.025-236.951h18.48v35.425h-18.48zm33.48 35.425v-35.425h80.56v35.425zm1.42 201.526h-51.32v-18.74h51.32zm-16.42-33.74h-18.48v-97.829h18.48zm145.46 33.74h-51.32v-18.74h51.32zm-16.42-33.74h-18.48v-97.829h18.48zm29.24-150.286v34.958c0 1.378-1.122 2.5-2.5 2.5h-201c-1.378 0-2.5-1.122-2.5-2.5v-34.958c0-1.378 1.122-2.5 2.5-2.5h201c1.378 0 2.5 1.122 2.5 2.5zm-29.24-17.5h-18.48v-35.425h18.48zm29.24-62.925c0 6.893-5.607 12.5-12.5 12.5h-181c-6.893 0-12.5-5.607-12.5-12.5v-9.087h206z"/></g></svg>