<svg id="Capa_1" enable-background="new 0 0 512 512" height="512" viewBox="0 0 512 512" width="512" xmlns="http://www.w3.org/2000/svg"><g><g><path d="m308.131 265.29 81.513 81.513 5.861-40.996-94.651-94.651-89.706.004-94.648 94.648 5.852 41.005 81.512-81.513 52.136-40.644z" fill="#c3f2f7"/><path d="m109.991 67.149 101.155 101.155 89.711.003 101.154-101.154-13.478-33.378-111.102 111.102-42.858-.002-111.106-111.106z" fill="#c3f2f7"/><g><g><g><path d="m471.367 40.63v-24.843c0-4.575-3.708-8.283-8.283-8.283h-66.267c-4.575 0-8.283 3.709-8.283 8.283v24.843l41.417 9.757z" fill="#f3ffff"/><path d="m463.083 7.503h-23c4.575 0 8.283 3.709 8.283 8.283v24.844l-29.917 6.858 11.5 2.899 41.417-9.757v-24.843c.001-4.575-3.708-8.284-8.283-8.284z" fill="#dff9f9"/></g><path d="m471.35 40.637h-82.8c.356 17.751 14.369 32.632 32.185 33.121h18.429c17.817-.489 31.83-15.371 32.186-33.121z" fill="#924af5"/><path d="m448.367 40.637c-.341 16.986-13.19 31.335-29.908 32.969.752.074 1.51.131 2.277.152h18.429c17.816-.488 31.83-15.37 32.186-33.121z" fill="#7536f9"/></g></g><g><g><g><path d="m471.367 338.837v-24.844c0-4.575-3.708-8.283-8.283-8.283h-66.267c-4.575 0-8.283 3.709-8.283 8.283v24.844l41.417 9.757z" fill="#f3ffff"/><path d="m463.083 305.71h-23c4.575 0 8.283 3.709 8.283 8.283v24.843l-29.917 6.858 11.5 2.899 41.417-9.757v-24.843c.001-4.575-3.708-8.283-8.283-8.283z" fill="#dff9f9"/></g><path d="m471.35 338.843h-82.8c.356 17.751 14.369 32.632 32.185 33.121h18.429c17.817-.489 31.83-15.37 32.186-33.121z" fill="#924af5"/><path d="m448.367 338.843c-.341 16.986-13.19 31.335-29.908 32.969.752.074 1.51.131 2.277.152h18.429c17.816-.489 31.83-15.37 32.186-33.121z" fill="#7536f9"/></g></g><g><g><path d="m256 40.63c-82.349 0-149.106 66.757-149.106 149.106s66.757 149.106 149.106 149.106 149.106-66.757 149.106-149.106-66.757-149.106-149.106-149.106zm0 265.08c-64.05 0-115.973-51.923-115.973-115.973s51.923-115.973 115.973-115.973 115.973 51.923 115.973 115.973-51.923 115.973-115.973 115.973z" fill="#f6df59"/><g><path d="m256 40.63c-3.871 0-7.707.148-11.503.438 76.974 5.873 137.603 70.19 137.603 148.669s-60.629 142.796-137.603 148.669c3.796.29 7.633.438 11.503.438 82.349 0 149.106-66.757 149.106-149.106 0-82.351-66.757-149.108-149.106-149.108z" fill="#edbf50"/></g></g></g><path d="m352.185 380.7v-8.736l-60.835-147.308h-70.7l-60.835 147.308v8.736h33.907v-8.736l57.671-132.754h9.214l57.671 132.754v8.736z" fill="#f3ffff"/><g><g><g><path d="m231.807 231.351-61.085 140.613v8.736h23v-8.736l57.671-132.754z" fill="#dff9f9"/></g><g><path d="m291.35 224.656h-23l60.835 147.308v8.736h23v-8.736z" fill="#dff9f9"/></g></g></g><path d="m140.033 408.097h66.267v-28.134c0-4.418-3.582-8-8-8h-50.267c-4.418 0-8 3.582-8 8z" fill="#f6df59"/><path d="m198.3 371.964h-23c4.418 0 8 3.582 8 8v28.133h23v-28.133c0-4.419-3.582-8-8-8z" fill="#edbf50"/><path d="m371.967 408.097h-66.267v-28.134c0-4.418 3.582-8 8-8h50.267c4.418 0 8 3.582 8 8z" fill="#f6df59"/><path d="m363.967 371.964h-23c4.418 0 8 3.582 8 8v28.133h23v-28.133c0-4.419-3.582-8-8-8z" fill="#edbf50"/><g><g><g><path d="m123.467 40.63v-24.843c0-4.575-3.708-8.283-8.283-8.283h-66.267c-4.575 0-8.283 3.709-8.283 8.283v24.843l41.417 9.757z" fill="#f3ffff"/><path d="m115.183 7.503h-23c4.575 0 8.283 3.709 8.283 8.283v24.844l-29.916 6.859 11.5 2.899 41.417-9.757v-24.844c0-4.575-3.709-8.284-8.284-8.284z" fill="#dff9f9"/></g><path d="m123.45 40.637h-82.8c.356 17.751 14.369 32.632 32.185 33.121h18.429c17.817-.489 31.83-15.371 32.186-33.121z" fill="#924af5"/><path d="m100.467 40.637c-.341 16.986-13.19 31.335-29.908 32.969.752.074 1.51.131 2.277.152h18.429c17.816-.488 31.83-15.37 32.186-33.121z" fill="#7536f9"/></g></g><g><g><g><path d="m123.467 338.837v-24.844c0-4.575-3.708-8.283-8.283-8.283h-66.267c-4.575 0-8.283 3.709-8.283 8.283v24.844l41.417 9.757z" fill="#f3ffff"/><path d="m115.183 305.71h-23c4.575 0 8.283 3.709 8.283 8.283v24.843l-29.917 6.858 11.5 2.899 41.417-9.757v-24.843c.001-4.575-3.708-8.283-8.283-8.283z" fill="#dff9f9"/></g><path d="m123.45 338.843h-82.8c.356 17.751 14.369 32.632 32.185 33.121h18.429c17.817-.489 31.83-15.37 32.186-33.121z" fill="#924af5"/><path d="m100.467 338.843c-.341 16.986-13.19 31.335-29.908 32.969.752.074 1.51.131 2.277.152h18.429c17.816-.489 31.83-15.37 32.186-33.121z" fill="#7536f9"/></g></g><path d="m454.8 450.086h-397.6v-28.989c0-8.837 7.163-16 16-16h365.6c8.837 0 16 7.163 16 16z" fill="#f3ffff"/><path d="m438.8 405.097h-23c8.837 0 16 7.163 16 16v28.989h23v-28.989c0-8.837-7.163-16-16-16z" fill="#dff9f9"/><path d="m32.35 483.353v-11.989l24.85-33.134h397.6l24.85 33.134v11.989z" fill="#924af5"/><path d="m454.8 438.23h-23l24.85 33.134v11.989h23v-11.989z" fill="#7536f9"/><path d="m496.5 504.497h-481c-4.418 0-8-3.582-8-8v-17.133c0-4.418 3.582-8 8-8h481c4.418 0 8 3.582 8 8v17.133c0 4.418-3.582 8-8 8z" fill="#f6df59"/><path d="m496.5 471.364h-23c4.418 0 8 3.582 8 8v17.133c0 4.418-3.582 8-8 8h23c4.418 0 8-3.582 8-8v-17.133c0-4.419-3.582-8-8-8z" fill="#edbf50"/><circle cx="256" cy="189.73" fill="#f6df59" r="49.7"/><path d="m256 140.03c-3.96 0-7.807.477-11.5 1.352 21.901 5.191 38.2 24.86 38.2 48.348s-16.299 43.157-38.2 48.348c3.693.875 7.54 1.352 11.5 1.352 27.448 0 49.7-22.251 49.7-49.7s-22.252-49.7-49.7-49.7z" fill="#edbf50"/><ellipse cx="256" cy="189.73" fill="#f3ffff" rx="16.567" ry="16.567" transform="matrix(.924 -.383 .383 .924 -53.12 112.409)"/><path d="m256 173.164c-4.471 0-8.52 1.779-11.5 4.658 3.119 3.012 5.067 7.23 5.067 11.909s-1.947 8.897-5.067 11.909c2.98 2.878 7.029 4.657 11.5 4.657 9.15 0 16.567-7.417 16.567-16.567 0-9.149-7.417-16.566-16.567-16.566z" fill="#dff9f9"/></g><g><path d="m496.5 463.863h-13.1l-21.1-28.133v-14.634c0-12.958-10.542-23.5-23.5-23.5h-59.333v-17.633c0-8.547-6.953-15.5-15.5-15.5h-6.763l-17.501-42.377c2.973-1.885 5.87-3.863 8.689-5.929l34.634 34.635c5.202 16.172 20.043 28.182 37.504 28.662.069.002.138.003.206.003h18.429c.068 0 .137-.001.206-.003 21.33-.585 38.755-18.376 39.463-39.945.02-.222.034-.445.034-.672 0-.077-.009-.152-.011-.228.002-.154.011-.307.011-.461v-24.161c0-8.703-7.081-15.783-15.784-15.783h-64.574l-16.13-16.13c19.282-26.437 30.221-58.692 30.221-92.342 0-34.508-11.228-66.439-30.211-92.349l20.734-20.733c5.255 2.783 11.163 4.434 17.407 4.605.068.002.137.003.205.003h18.429c.068 0 .137-.001.205-.003 21.331-.584 38.756-18.374 39.464-39.945.02-.222.034-.445.034-.672 0-.077-.009-.152-.011-.228.002-.154.011-.307.011-.461v-24.16c0-8.703-7.081-15.784-15.784-15.784h-66.267c-8.703 0-15.783 7.081-15.783 15.784v14.88l-32.679 32.679c-25.911-18.988-57.844-30.218-92.355-30.218-33.456 0-65.694 10.618-92.4 30.164l-32.633-32.633v-14.874c0-8.703-7.08-15.784-15.783-15.784h-66.267c-8.703 0-15.784 7.081-15.784 15.784v24.16c0 .155.01.307.011.461-.002.076-.011.151-.011.228 0 .227.014.45.034.672.708 21.572 18.133 39.362 39.464 39.946.068.002.137.003.205.003h18.429c.068 0 .137-.001.205-.003 6.247-.171 12.155-1.823 17.412-4.608l20.677 20.678c-16.371 22.361-26.589 48.75-29.377 76.667-.411 4.121 2.596 7.797 6.718 8.208 4.136.407 7.796-2.597 8.208-6.718 7.249-72.602 67.82-127.351 140.892-127.351 78.078 0 141.6 63.522 141.6 141.601 0 47.627-24.214 92.176-63.718 118.262l-7.071-17.122c33.084-23.144 52.656-60.487 52.656-101.14 0-68.08-55.387-123.467-123.467-123.467s-123.467 55.386-123.467 123.466c0 40.653 19.572 77.997 52.656 101.14l-7.076 17.133c-35.428-23.382-58.772-61.668-63.005-104.013-.412-4.121-4.068-7.121-8.209-6.717-4.121.412-7.129 4.087-6.717 8.209 2.799 28.006 13.157 54.403 29.403 76.632l-16.089 16.089h-64.58c-8.703 0-15.784 7.08-15.784 15.783v24.161c0 .155.01.307.011.461-.002.076-.011.151-.011.228 0 .227.014.45.034.672.708 21.569 18.133 39.36 39.463 39.945.069.002.138.003.206.003h18.429c.068 0 .137-.001.206-.003 16.654-.457 30.923-11.406 36.721-26.448l36.243-36.243c2.559 1.849 5.181 3.624 7.863 5.324l-17.501 42.377h-6.763c-8.547 0-15.5 6.953-15.5 15.5v17.633h-59.333c-12.958 0-23.5 10.542-23.5 23.5v14.634l-21.1 28.133h-13.1c-8.547 0-15.5 6.953-15.5 15.5v17.134c0 8.547 6.953 15.5 15.5 15.5h91.852c4.143 0 7.5-3.357 7.5-7.5s-3.357-7.5-7.5-7.5h-91.852c-.275 0-.5-.225-.5-.5v-17.134c0-.275.225-.5.5-.5h481c.275 0 .5.225.5.5v17.134c0 .275-.225.5-.5.5h-359.148c-4.143 0-7.5 3.357-7.5 7.5s3.357 7.5 7.5 7.5h359.148c8.547 0 15.5-6.953 15.5-15.5v-17.134c0-8.547-6.953-15.5-15.5-15.5zm-447.583-448.86h66.267c.432 0 .783.352.783.784v17.35h-26.417v-.783c0-4.142-3.357-7.5-7.5-7.5s-7.5 3.358-7.5 7.5v.783h-26.417v-17.35c0-.433.351-.784.784-.784zm42.238 51.254h-18.21c-10.924-.341-20.204-7.913-23.513-18.12h65.234c-3.308 10.207-12.588 17.779-23.511 18.12zm47.89 19.341-18.344-18.345c4.144-4.759 7.23-10.48 8.888-16.755l22.28 22.28c-.419.373-.842.741-1.258 1.119-4.079 3.714-7.932 7.624-11.566 11.701zm300.01-19.341h-18.21c-10.923-.341-20.203-7.913-23.512-18.12h65.234c-3.308 10.207-12.589 17.779-23.512 18.12zm-42.239-51.254h66.267c.433 0 .784.352.784.784v17.35h-26.417v-.783c0-4.142-3.357-7.5-7.5-7.5s-7.5 3.358-7.5 7.5v.783h-26.417v-17.35c0-.433.352-.784.783-.784zm-14.404 35.5c1.659 6.274 4.745 11.995 8.89 16.753l-18.399 18.398c-4.025-4.516-8.306-8.797-12.821-12.822zm56.643 313.954h-18.21c-10.923-.342-20.203-7.914-23.512-18.12h65.234c-3.309 10.207-12.59 17.778-23.512 18.12zm24.812-50.471v17.35h-26.417v-.783c0-4.142-3.357-7.5-7.5-7.5s-7.5 3.358-7.5 7.5v.783h-26.417v-17.35c0-.432.352-.783.783-.783h66.267c.433 0 .784.352.784.783zm-79.91-9.119c-1.834 2.579-2.924 5.721-2.924 9.12v13.598l-20.919-20.919c4.525-4.043 8.796-8.332 12.8-12.842zm-335.04 8.336h66.267c.432 0 .783.352.783.783v17.35h-26.417v-.783c0-4.142-3.357-7.5-7.5-7.5s-7.5 3.358-7.5 7.5v.783h-26.417v-17.35c0-.431.351-.783.784-.783zm42.238 51.254h-18.21c-10.923-.342-20.204-7.914-23.513-18.12h64.326c-1.176 1.555-1.672 3.459-1.476 5.308-4.371 7.426-12.202 12.533-21.127 12.812zm39.812-35.441v-15.029c0-3.397-1.089-6.538-2.922-9.116l11.021-11.021c4.232 4.758 8.764 9.264 13.571 13.497zm233.5 50.948v17.633h-51.267v-17.633c0-.275.225-.5.5-.5h4.578 33.907 11.781c.276 0 .501.224.501.5zm-150.667 17.633v-17.633c0-6.312-3.798-11.746-9.225-14.161l10.777-24.808c13.2 3.539 26.841 5.335 40.648 5.335s27.448-1.796 40.648-5.335l10.777 24.808c-5.427 2.414-9.225 7.848-9.225 14.161v17.633zm-3.004-129.433c.01-.025.021-.05.031-.076l12.877-31.18c5.145 3.533 10.896 6.24 17.06 7.946l-36.541 84.114c-.002.006-.005.011-.007.017l-1.019 2.345h-18.487zm-37.667-8.378 36.552-36.552c.719.992 1.459 1.967 2.239 2.909l-14.417 34.911-11.526 11.527c-4.667-3.932-8.959-8.212-12.848-12.795zm82.871-112.256c23.27 0 42.2 18.931 42.2 42.2s-18.931 42.2-42.2 42.2-42.2-18.931-42.2-42.2 18.93-42.2 42.2-42.2zm45.163 120.534c.014.036.03.072.045.108l26.083 63.158h-18.487l-1.019-2.346c-.002-.005-.005-.011-.007-.016l-36.541-84.114c6.164-1.706 11.915-4.412 17.06-7.946zm-72.415 42.095c8.905 2.006 18.041 3.038 27.252 3.038s18.347-1.032 27.252-3.038l7.338 16.892c-11.258 2.826-22.853 4.28-34.59 4.28s-23.333-1.454-34.59-4.28zm6.098-14.037 21.154-48.695 21.154 48.695c-6.935 1.37-14.018 2.076-21.154 2.076s-14.219-.706-21.154-2.076zm88.351 68.342-7.878-18.134h18.165l7.489 18.134zm2.829-91.886-11.532-11.533-14.414-34.902c.781-.943 1.522-1.92 2.241-2.912l36.553 36.552c-3.889 4.583-8.181 8.863-12.848 12.795zm21.828-25.03-38.142-38.141c2.256-6.138 3.488-12.766 3.488-19.677 0-6.909-1.232-13.535-3.486-19.672l38.067-38.067c10.563 16.731 16.686 36.532 16.686 57.739 0 20.908-5.898 40.819-16.613 57.818zm-9.051-127.794-36.48 36.48c-3.569-4.922-7.899-9.252-12.82-12.822l36.479-36.48c4.621 3.912 8.91 8.201 12.821 12.822zm-25.057-21.8-38.065 38.066c-6.139-2.257-12.769-3.49-19.681-3.49-6.91 0-13.538 1.232-19.676 3.488l-38.066-38.066c16.731-10.564 36.534-16.688 57.742-16.688 21.21 0 41.013 6.124 57.746 16.69zm-127.726 8.976 36.48 36.479c-4.921 3.569-9.252 7.9-12.821 12.821l-36.479-36.479c3.911-4.621 8.2-8.91 12.82-12.821zm-21.798 25.058 38.066 38.066c-2.256 6.138-3.488 12.766-3.488 19.676 0 6.912 1.233 13.541 3.49 19.68l-38.141 38.141c-10.717-17-16.615-36.912-16.615-57.821-.001-21.208 6.123-41.01 16.688-57.742zm14.293 214.342h18.165l-7.878 18.134h-17.776zm-30.982 33.634c0-.275.225-.5.5-.5h11.781 33.907 4.578c.275 0 .5.225.5.5v17.633h-51.267v-17.633zm-82.833 41.133c0-4.686 3.813-8.5 8.5-8.5h365.6c4.686 0 8.5 3.814 8.5 8.5v9.634h-18.134v-2.475c0-4.143-3.357-7.5-7.5-7.5s-7.5 3.357-7.5 7.5v2.475h-51.267v-2.475c0-4.143-3.357-7.5-7.5-7.5s-7.5 3.357-7.5 7.5v2.475h-51.267v-2.475c0-4.143-3.357-7.5-7.5-7.5s-7.5 3.357-7.5 7.5v2.475h-51.267v-2.475c0-4.143-3.357-7.5-7.5-7.5s-7.5 3.357-7.5 7.5v2.475h-51.265v-2.475c0-4.143-3.357-7.5-7.5-7.5s-7.5 3.357-7.5 7.5v2.475h-51.266v-2.475c0-4.143-3.357-7.5-7.5-7.5s-7.5 3.357-7.5 7.5v2.475h-18.134zm-3.75 24.633h390.1l13.6 18.133h-417.3z"/><path d="m256 213.797c13.271 0 24.066-10.796 24.066-24.066 0-13.271-10.796-24.066-24.066-24.066s-24.066 10.796-24.066 24.066 10.796 24.066 24.066 24.066zm0-33.133c4.999 0 9.066 4.067 9.066 9.066s-4.067 9.066-9.066 9.066-9.066-4.067-9.066-9.066 4.067-9.066 9.066-9.066z"/></g></g></svg>