<svg id="Capa_1" enable-background="new 0 0 512.003 512.003" height="512" viewBox="0 0 512.003 512.003" width="512" xmlns="http://www.w3.org/2000/svg"><g><g><g><g><path d="m338.424 351.969 29.217 59.478c4.034 8.212.647 18.14-7.565 22.174l-118.956 58.434c-8.212 4.034-18.14.647-22.174-7.565l-29.217-59.478 6.237-21.137 23.502 6.529 18.26 37.174c2.017 4.106 6.981 5.8 11.087 3.783l74.348-36.521c4.106-2.017 5.8-6.981 3.783-11.087l-18.26-37.174 8.112-16.881z" fill="#f6df59"/></g></g><path d="m367.64 411.447-29.217-59.478-21.627-2.273-1.231 2.562 29.075 59.189c4.034 8.212.647 18.14-7.565 22.174l-114.136 56.066c4.879 4.241 12.013 5.397 18.179 2.368l118.956-58.434c8.213-4.034 11.601-13.962 7.566-22.174z" fill="#edbf50"/><g><g><g><g><path d="m292.203 206.071 146.025 96.872 37.986-18.659-110.002-135.964-138.498-112.536-18.659 37.986z" fill="#f3ffff"/></g></g></g><path d="m98.302 402.449-43.867-13.913-18.659 37.986 13.135 36.564 36.565 13.136 37.985-18.659z" fill="#f3ffff"/><path d="m119.249 448.334-47.058 23.115 13.285 4.773 37.985-18.659z" fill="#dff9f9"/></g><path d="m428.443 296.452 9.785 6.491 37.986-18.659-6.541-8.085z" fill="#dff9f9"/><path d="m476.214 284.284c6.47 6.47 16.959 6.47 23.429 0s6.47-16.959 0-23.429l-248.5-248.5c-6.47-6.47-16.959-6.47-23.429 0s-6.47 16.959 0 23.429z" fill="#f6df59"/><path d="m499.643 260.855-248.5-248.5c-6.401-6.401-16.73-6.458-23.214-.194.07.068.146.125.214.194l248.5 248.5c6.47 6.47 6.47 16.959 0 23.429-.069.069-.145.126-.214.194 6.485 6.264 16.814 6.207 23.214-.194 6.469-6.47 6.469-16.959 0-23.429z" fill="#edbf50"/><path d="m357.15 221.865-148.095-148.095-57.231 116.507-15.621 82.667-60.04 71.359-21.728 44.233 69.026 69.027 164.298-80.707z" fill="#924af5"/><path d="m294.243 362.373-178.358 87.613 7.576 7.577 164.298-80.707z" fill="#7536f9"/><path d="m62.047 499.65c6.47 6.47 16.959 6.47 23.429 0s6.47-16.959 0-23.429l-49.7-49.7c-6.47-6.47-16.959-6.47-23.429 0s-6.47 16.959 0 23.429z" fill="#f6df59"/><path d="m85.476 476.222-49.7-49.7c-6.401-6.401-16.73-6.458-23.214-.194.07.068.146.125.214.194l49.7 49.7c6.47 6.47 6.47 16.959 0 23.429-.069.069-.145.126-.214.194 6.485 6.264 16.814 6.207 23.214-.194 6.47-6.47 6.47-16.96 0-23.429z" fill="#edbf50"/><path d="m357.15 221.865-205.326-31.588-75.661 154.026 211.596 32.553 150.469-73.913z" fill="#f6df59"/><path d="m287.759 376.856 32.531-15.979 117.938-57.934-7.576-7.576-160.408 78.795z" fill="#edbf50"/></g><g><path d="m472.485 187.582c.643 0 1.296-.083 1.946-.258l32.005-8.575c4.001-1.071 6.375-5.185 5.303-9.186-1.071-4.001-5.184-6.379-9.186-5.303l-32.005 8.575c-4.001 1.071-6.375 5.185-5.303 9.186.898 3.351 3.929 5.561 7.24 5.561z"/><path d="m421.037 98.461c1.919 0 3.839-.732 5.304-2.196l23.43-23.43c2.929-2.93 2.929-7.678 0-10.607-2.93-2.928-7.678-2.928-10.607 0l-23.43 23.43c-2.929 2.93-2.929 7.678 0 10.607 1.464 1.464 3.384 2.196 5.303 2.196z"/><path d="m329.976 46.752c.65.175 1.304.258 1.946.258 3.312 0 6.342-2.21 7.239-5.561l8.575-32.005c1.072-4.001-1.302-8.114-5.303-9.186-4.003-1.076-8.114 1.302-9.186 5.303l-8.575 32.005c-1.071 4.001 1.303 8.115 5.304 9.186z"/><path d="m504.946 255.552-248.5-248.5c-4.546-4.545-10.59-7.049-17.018-7.049-6.429 0-12.473 2.504-17.019 7.049-4.545 4.546-7.049 10.59-7.049 17.018 0 4.522 1.243 8.851 3.56 12.604l-31.486 64.097c-1.826 3.718-.293 8.212 3.425 10.038 1.064.522 2.191.771 3.301.771 2.771 0 5.434-1.541 6.737-4.195l10.265-20.898 124.482 124.482-172.587-26.552 23.864-48.581c1.826-3.718.293-8.212-3.425-10.038-3.716-1.825-8.211-.293-10.038 3.425l-140.766 286.567c-8.603-3.292-18.724-1.493-25.648 5.428-9.383 9.384-9.383 24.652 0 34.035l9.587 9.588c2.93 2.929 7.679 2.93 10.606.001 2.93-2.929 2.93-7.678.001-10.607l-9.587-9.589c-3.535-3.534-3.535-9.287 0-12.821 3.535-3.537 9.288-3.535 12.821 0l49.699 49.7c3.535 3.534 3.535 9.287 0 12.821-3.535 3.536-9.286 3.535-12.821 0l-18.899-18.9c-2.93-2.928-7.678-2.928-10.607 0-2.929 2.93-2.929 7.678 0 10.608l18.899 18.899c4.546 4.545 10.59 7.049 17.018 7.049 6.429 0 12.473-2.504 17.019-7.049 4.545-4.546 7.049-10.59 7.049-17.019 0-3.003-.553-5.919-1.599-8.641l90.074-44.246 25.91 52.747c4.18 8.509 12.745 13.454 21.64 13.454 3.558 0 7.17-.792 10.572-2.464l118.956-58.434c5.77-2.834 10.091-7.746 12.167-13.83s1.658-12.612-1.177-18.382l-25.91-52.747 126.863-62.317c3.754 2.316 8.083 3.56 12.604 3.56 6.428 0 12.472-2.504 17.018-7.049 4.545-4.546 7.049-10.59 7.049-17.019-.001-6.424-2.505-12.468-7.05-17.014zm-275.123-207.051 233.674 233.674-23.759 11.671-221.586-221.586zm123.759 180.404 71.929 71.929-138.941 68.251-199.173-30.641 68.73-139.917zm-228.611 219.56-61.439-61.439 16.933-34.472 182.576 28.088zm-80.097-23.454 11.671-23.759 54.2 54.2-23.76 11.671zm246.099-41.378c.009-.004.018-.009.026-.013l14.26-7.005 14.954 30.443c.095.192.107.393.038.598-.069.204-.202.355-.396.45l-74.349 36.522c-.385.188-.857.03-1.049-.358l-14.953-30.442zm69.936 31.121c1.067 2.174 1.225 4.633.443 6.925-.782 2.293-2.41 4.143-4.584 5.211l-118.956 58.434c-4.487 2.205-9.932.347-12.136-4.141l-25.91-52.747 16.276-7.995 14.953 30.443c2.741 5.579 8.359 8.822 14.192 8.822 2.333 0 4.701-.519 6.933-1.615l74.349-36.522c3.784-1.858 6.617-5.079 7.978-9.069 1.362-3.99 1.088-8.272-.771-12.056l-14.954-30.442 16.276-7.995zm133.43-135.774c-3.534 3.535-9.285 3.535-12.821 0l-248.5-248.5c-3.535-3.534-3.535-9.286 0-12.821 1.768-1.768 4.089-2.651 6.41-2.651 2.322 0 4.644.884 6.411 2.651l248.5 248.5c3.535 3.535 3.535 9.287 0 12.821z"/></g></g></svg>