<svg id="Capa_1" enable-background="new 0 0 512 512" height="512" viewBox="0 0 512 512" width="512" xmlns="http://www.w3.org/2000/svg"><g><g><path d="m81.505 73.767h25.395c9.149 0 16.567-7.417 16.567-16.567l22.815-33.133h-64.777c-3.308 0-5.281 3.687-3.446 6.439l10.742 16.114c.927 1.391.927 3.204 0 4.595l-10.742 16.113c-1.835 2.752.138 6.439 3.446 6.439z" fill="#dc3d36"/><path d="m430.495 73.767h-25.395c-9.15 0-16.567-7.417-16.567-16.567l-13.593-33.133h55.554c3.308 0 5.281 3.687 3.446 6.439l-10.742 16.114c-.927 1.391-.927 3.204 0 4.595l10.742 16.114c1.836 2.751-.138 6.438-3.445 6.438z" fill="#dc3d36"/><path d="m423.198 51.214c-.927-1.391-.927-3.204 0-4.595l10.742-16.114c1.835-2.752-.138-6.439-3.446-6.439h-23.054c3.308 0 5.281 3.687 3.446 6.439l-10.742 16.114c-.928 1.391-.928 3.204 0 4.595l10.742 16.114c1.835 2.752-.138 6.439-3.446 6.439h23.055c3.308 0 5.281-3.687 3.446-6.439z" fill="#b13d49"/><path d="m388.533 57.2h-49.7v-49.7h33.7c8.837 0 16 7.164 16 16z" fill="#de5e4c"/><path d="m123.467 57.2h49.7v-49.7h-33.7c-8.837 0-16 7.164-16 16z" fill="#de5e4c"/><path d="m461.079 405.1c7.38 0 11.075 8.922 5.857 14.141l-23.845 23.845c-6.47 6.47-6.47 16.959 0 23.429l23.845 23.845c5.218 5.218 1.522 14.141-5.857 14.141h-105.679c-9.149 0-16.567-7.417-16.567-16.567v-27.864h-165.666v27.864c0 9.15-7.417 16.567-16.567 16.567h-105.679c-7.38 0-11.075-8.922-5.857-14.141l23.845-23.845c6.47-6.47 6.47-16.959 0-23.429l-23.845-23.845c-5.218-5.218-1.522-14.141 5.857-14.141z" fill="#f6df59"/><g><g><g><path d="m443.092 466.514c-6.47-6.47-6.47-16.959 0-23.429l23.845-23.845c5.218-5.218 1.522-14.141-5.857-14.141h-410.159 387.159c7.38 0 11.075 8.922 5.857 14.141l-23.845 23.845c-6.47 6.47-6.47 16.959 0 23.429l23.845 23.845c5.218 5.218 1.522 14.141-5.857 14.141h23c7.38 0 11.075-8.922 5.857-14.141z" fill="#edbf50"/></g><g><path d="m150.167 487.933c0 9.15-7.417 16.567-16.567 16.567h23c9.149 0 16.567-7.417 16.567-16.567v-27.864h-23z" fill="#edbf50"/></g></g></g><path d="m471.367 371.967c9.15 0 16.567-7.417 16.567-16.567v-84.989c0-1.383.696-2.668 1.845-3.437 8.875-5.944 14.722-16.056 14.722-27.54s-5.847-21.596-14.722-27.54c-1.149-.77-1.845-2.054-1.845-3.437v-84.99c0-9.15-7.417-16.567-16.567-16.567h-430.734c-9.149 0-16.567 7.417-16.567 16.567v84.99c0 1.383-.696 2.668-1.845 3.437-8.874 5.945-14.721 16.057-14.721 27.54 0 11.484 5.847 21.596 14.722 27.54 1.149.77 1.845 2.054 1.845 3.437v84.989c0 9.15 7.417 16.567 16.567 16.567z" fill="#f6df59"/><path d="m438.233 313.984c0 4.575-3.709 8.283-8.283 8.283h-347.9c-4.575 0-8.283-3.709-8.283-8.283v-149.099c0-4.575 3.709-8.283 8.283-8.283h347.9c4.575 0 8.283 3.709 8.283 8.283z" fill="#dc3d36"/><path d="m489.778 211.895c-1.149-.77-1.845-2.054-1.845-3.437v-84.99c0-9.15-7.417-16.567-16.567-16.567h-23c9.149 0 16.567 7.417 16.567 16.567v84.99c0 1.383.696 2.668 1.845 3.437 8.875 5.944 14.722 16.056 14.722 27.54s-5.847 21.596-14.722 27.54c-1.149.77-1.845 2.054-1.845 3.437v84.988c0 9.15-7.417 16.567-16.567 16.567h23c9.149 0 16.567-7.417 16.567-16.567v-84.989c0-1.383.696-2.668 1.845-3.437 8.875-5.944 14.722-16.056 14.722-27.54 0-11.483-5.847-21.596-14.722-27.539z" fill="#edbf50"/><path d="m429.95 156.602h-23c4.575 0 8.283 3.709 8.283 8.283v149.099c0 4.575-3.709 8.283-8.283 8.283h23c4.575 0 8.283-3.709 8.283-8.283v-149.099c0-4.574-3.708-8.283-8.283-8.283z" fill="#b13d49"/><path d="m372.533 471.367h-233.066c-8.837 0-16-7.164-16-16v-83.967c0-8.837 7.163-16 16-16h233.067c8.837 0 16 7.163 16 16v83.967c-.001 8.836-7.164 16-16.001 16z" fill="#e59f4f"/><path d="m259.714 389.745 5.095 10.323c.603 1.222 1.769 2.07 3.118 2.266l11.392 1.655c3.397.494 4.754 4.668 2.295 7.064l-8.244 8.036c-.976.952-1.422 2.322-1.191 3.666l1.946 11.347c.58 3.383-2.971 5.963-6.009 4.366l-10.19-5.357c-1.207-.634-2.648-.634-3.855 0l-10.19 5.357c-3.038 1.597-6.59-.983-6.009-4.366l1.946-11.347c.23-1.343-.215-2.714-1.191-3.666l-8.244-8.036c-2.458-2.396-1.102-6.571 2.295-7.064l11.393-1.655c1.349-.196 2.515-1.043 3.118-2.266l5.095-10.323c1.521-3.078 5.911-3.078 7.43 0z" fill="#f3ffff"/><path d="m372.533 355.4h-23c8.837 0 16 7.163 16 16v83.967c0 8.837-7.163 16-16 16h23c8.837 0 16-7.163 16-16v-83.967c0-8.837-7.163-16-16-16z" fill="#e27f4d"/><path d="m281.615 411.054c2.458-2.396 1.102-6.571-2.295-7.064l-11.392-1.655c-1.349-.196-2.515-1.043-3.118-2.266l-5.095-10.323c-1.519-3.078-5.909-3.078-7.428 0l-5.095 10.323c-.538 1.091-1.526 1.879-2.691 2.177.14.036.282.068.427.089l11.392 1.655c3.397.494 4.754 4.668 2.295 7.064l-8.244 8.036c-.976.952-1.422 2.322-1.191 3.666l1.946 11.347c.031.18.044.356.052.53l2.894-1.521c1.207-.634 2.648-.634 3.855 0l10.19 5.357c3.038 1.597 6.59-.983 6.009-4.366l-1.946-11.347c-.23-1.343.215-2.714 1.191-3.666z" fill="#dff9f9"/></g><g><path d="m255.999 379.936c-4.463 0-8.463 2.487-10.439 6.489l-4.314 8.741-9.645 1.401c-4.417.642-8.018 3.678-9.398 7.923-1.379 4.245-.251 8.818 2.945 11.934l6.98 6.804-1.648 9.606c-.754 4.399 1.021 8.762 4.631 11.386 3.61 2.623 8.309 2.962 12.26.886l8.627-4.536 8.627 4.536c1.719.903 3.578 1.35 5.429 1.35 2.403 0 4.792-.754 6.833-2.237 3.61-2.625 5.385-6.988 4.63-11.385l-1.648-9.607 6.98-6.803c3.196-3.116 4.325-7.688 2.945-11.934-1.379-4.246-4.98-7.282-9.398-7.923l-9.645-1.402-4.313-8.74c0-.001 0-.001 0-.001-1.975-4.002-5.975-6.488-10.439-6.488zm10.851 29.82 4.657.677-3.373 3.288c-2.742 2.675-3.993 6.526-3.346 10.302l.796 4.64-4.165-2.19c-3.395-1.784-7.446-1.784-10.836 0l-4.167 2.19.796-4.639c.648-3.777-.604-7.629-3.349-10.305l-3.371-3.286 4.66-.677c3.792-.552 7.068-2.933 8.764-6.368l2.084-4.221 2.084 4.223c1.696 3.434 4.973 5.815 8.766 6.366z"/><path d="m171.008 271.785c4.142 0 7.5-3.358 7.5-7.5v-49.7c0-4.142-3.358-7.5-7.5-7.5s-7.5 3.358-7.5 7.5v49.7c0 4.142 3.358 7.5 7.5 7.5z"/><path d="m130.626 271.785c7.165 0 13.606-2.363 18.627-6.835.983-.876 1.917-1.838 2.774-2.861 2.662-3.174 2.247-7.905-.927-10.566-3.174-2.662-7.904-2.246-10.566.927-.393.468-.816.905-1.258 1.299-2.262 2.014-5.172 3.036-8.651 3.036-9.566 0-17.35-7.783-17.35-17.35s7.783-17.35 17.35-17.35c3.477 0 6.83 1.023 9.695 2.959 3.433 2.318 8.095 1.416 10.413-2.016 2.319-3.432 1.417-8.094-2.016-10.413-5.355-3.618-11.611-5.53-18.093-5.53-17.837 0-32.35 14.512-32.35 32.35.002 17.838 14.515 32.35 32.352 32.35z"/><path d="m273.514 271.785c7.166 0 13.607-2.363 18.627-6.835.983-.876 1.917-1.838 2.775-2.861 2.661-3.174 2.246-7.905-.928-10.566s-7.905-2.246-10.566.927c-.393.468-.815.905-1.258 1.299-2.261 2.014-5.172 3.035-8.65 3.035-9.566 0-17.35-7.783-17.35-17.35s7.783-17.35 17.35-17.35c3.478 0 6.831 1.023 9.696 2.959 3.432 2.319 8.095 1.416 10.413-2.017 2.318-3.432 1.416-8.094-2.017-10.413-5.354-3.617-11.611-5.529-18.093-5.529-17.837 0-32.35 14.512-32.35 32.35.001 17.839 14.513 32.351 32.351 32.351z"/><path d="m391.269 271.785c11.099 0 20.428-7.13 22.182-16.953 1.329-7.443-1.984-17.142-15.27-22.042-5.879-2.168-11.369-4.525-13.283-5.361-.696-.645-.705-1.477-.638-1.95.091-.633.57-2.185 3.05-2.932 6.306-1.896 12.281 2.76 12.493 2.928 3.169 2.621 7.867 2.199 10.52-.955 2.665-3.171 2.256-7.902-.915-10.567-.491-.413-12.183-10.057-26.424-5.769-7.347 2.213-12.547 8.023-13.571 15.164-.966 6.73 1.953 13.205 7.618 16.898.331.216.679.406 1.04.567.289.129 7.172 3.192 14.919 6.05 3.015 1.112 6.094 3.097 5.694 5.332-.331 1.851-2.916 4.59-7.415 4.59-4.582 0-8.979-1.833-11.762-4.904-2.782-3.07-7.526-3.301-10.594-.521-3.069 2.782-3.303 7.525-.521 10.594 5.662 6.248 14 9.831 22.877 9.831z"/><path d="m315.583 267.985c3.936 2.515 8.373 3.793 13.189 3.8h.038c4.137 0 8.025-.902 11.555-2.68 8.702-4.382 13.494-11.612 13.494-20.357v-34.163c0-4.142-3.357-7.5-7.5-7.5s-7.5 3.358-7.5 7.5v34.163c0 2.137-.623 4.634-5.241 6.96-1.439.725-3.012 1.077-4.807 1.077-.006 0-.013 0-.018 0-1.942-.003-3.621-.474-5.134-1.44-3.609-2.307-4.335-4.221-4.335-6.561v-34.199c0-4.142-3.357-7.5-7.5-7.5s-7.5 3.358-7.5 7.5v34.199c0 7.967 3.788 14.427 11.259 19.201z"/><path d="m198.964 271.785c4.142 0 7.5-3.358 7.5-7.5v-10.657l13.741 15.612c1.482 1.685 3.552 2.545 5.633 2.545 1.76 0 3.527-.616 4.952-1.87 3.109-2.736 3.412-7.475.675-10.585l-11.362-12.91c7.748-3.033 13.232-10.364 13.232-18.919 0-11.258-9.487-20.417-21.147-20.417h-13.208c-.003 0-.005 0-.008 0s-.005 0-.008 0c-4.142 0-7.5 3.358-7.5 7.5v49.7c0 4.143 3.358 7.501 7.5 7.501zm13.223-49.7c3.332 0 6.147 2.48 6.147 5.417 0 2.936-2.815 5.416-6.147 5.416-1.354 0-3.493.008-5.656.018-.01-2.088-.018-4.138-.018-5.434 0-1.113-.005-3.221-.011-5.417z"/><path d="m66.267 164.885v149.099c0 8.703 7.08 15.783 15.783 15.783h347.9c8.703 0 15.783-7.08 15.783-15.783v-149.099c0-8.703-7.08-15.783-15.783-15.783h-347.9c-8.703 0-15.783 7.08-15.783 15.783zm15 0c0-.432.351-.783.783-.783h347.9c.432 0 .783.352.783.783v149.099c0 .432-.352.783-.783.783h-347.9c-.432 0-.783-.351-.783-.783z"/><path d="m495.434 206.704v-83.236c0-13.271-10.796-24.067-24.066-24.067h-125.035v-34.701h35.903c3.16 9.608 12.211 16.566 22.863 16.566h25.395c4.302 0 8.235-2.356 10.265-6.148 2.029-3.792 1.809-8.372-.578-11.951l-9.5-14.251 9.5-14.251c2.387-3.579 2.607-8.158.578-11.951-2.029-3.792-5.963-6.148-10.265-6.148h-35.506c-2.965-9.583-11.909-16.566-22.455-16.566h-33.7c-4.143 0-7.5 3.358-7.5 7.5v49.7 42.201h-150.667v-42.201-49.7c0-4.142-3.358-7.5-7.5-7.5h-33.7c-10.546 0-19.49 6.983-22.455 16.567h-35.506c-4.301 0-8.234 2.356-10.264 6.148-2.029 3.792-1.808 8.372.578 11.951l9.5 14.251-9.5 14.251c-2.386 3.579-2.607 8.158-.578 11.951 2.03 3.792 5.963 6.148 10.264 6.148h25.395c10.652 0 19.704-6.958 22.864-16.566h35.903v34.701h-64.867c-4.142 0-7.5 3.358-7.5 7.5s3.358 7.5 7.5 7.5h369.026l-20.33 20.33c-2.929 2.929-2.929 7.678 0 10.606 1.465 1.464 3.385 2.197 5.304 2.197s3.839-.732 5.304-2.197l20.33-20.33v83.45c0 3.886 1.934 7.501 5.171 9.669 7.135 4.778 11.395 12.744 11.395 21.307 0 8.564-4.26 16.53-11.395 21.308-3.238 2.169-5.172 5.783-5.172 9.669v83.449l-20.33-20.33c-2.93-2.929-7.678-2.929-10.607 0s-2.929 7.678 0 10.606l20.33 20.33h-74.838c-2.965-9.584-11.91-16.567-22.455-16.567h-176.083c-4.142 0-7.5 3.358-7.5 7.5s3.358 7.5 7.5 7.5h176.083c4.686 0 8.5 3.813 8.5 8.5v83.967c0 4.687-3.814 8.5-8.5 8.5h-233.066c-4.687 0-8.5-3.813-8.5-8.5v-83.966c0-4.687 3.813-8.5 8.5-8.5h26.983c4.142 0 7.5-3.358 7.5-7.5s-3.358-7.5-7.5-7.5h-26.983c-10.546 0-19.49 6.983-22.455 16.567h-74.839l20.33-20.33c2.929-2.929 2.929-7.678 0-10.606-2.929-2.929-7.678-2.929-10.606 0l-20.33 20.33v-83.449c0-3.886-1.934-7.5-5.172-9.668-7.135-4.78-11.395-12.746-11.395-21.31s4.26-16.529 11.396-21.308c3.238-2.169 5.171-5.784 5.171-9.669v-83.45l20.33 20.33c1.464 1.464 3.384 2.197 5.303 2.197s3.839-.732 5.303-2.197c2.929-2.929 2.929-7.678 0-10.606l-20.33-20.33h28.627c4.142 0 7.5-3.358 7.5-7.5s-3.358-7.5-7.5-7.5h-30.167c-13.271 0-24.066 10.796-24.066 24.067v83.236c-10.407 7.653-16.567 19.756-16.567 32.73s6.159 25.077 16.567 32.731v83.235c0 13.271 10.796 24.067 24.066 24.067h75.333v18.133h-65.046c-6.406 0-12.13 3.824-14.581 9.743-2.452 5.919-1.109 12.67 3.421 17.201l23.845 23.845c1.712 1.712 2.656 3.989 2.656 6.411s-.943 4.699-2.656 6.411l-23.845 23.845c-4.53 4.53-5.873 11.282-3.421 17.201 2.451 5.919 8.175 9.743 14.581 9.743h105.68c13.27 0 24.066-10.796 24.066-24.067v-9.066h150.667v9.067c0 13.27 10.797 24.066 24.067 24.066h105.679c6.407 0 12.131-3.825 14.583-9.744 2.451-5.918 1.107-12.67-3.422-17.2l-23.846-23.846c-1.712-1.712-2.655-3.989-2.655-6.411s.943-4.699 2.656-6.411l23.844-23.844c4.53-4.53 5.874-11.282 3.423-17.201-2.452-5.919-8.176-9.744-14.583-9.744h-65.046v-18.133h75.334c13.271 0 24.066-10.796 24.066-24.067v-83.234c10.408-7.654 16.567-19.757 16.567-32.731 0-12.973-6.16-25.076-16.566-32.73zm-78.476-151.329 7.261 10.892h-19.119c-4.999 0-9.066-4.067-9.066-9.066v-25.634h28.186l-7.261 10.892c-2.616 3.923-2.616 8.993-.001 12.916zm-35.925-31.875v.567 25.633h-34.7v-34.7h26.2c4.687 0 8.5 3.813 8.5 8.5zm-274.133 42.767h-19.119l7.262-10.894c2.613-3.922 2.613-8.991-.001-12.914l-7.261-10.892h28.186v25.633c0 4.999-4.068 9.067-9.067 9.067zm24.067-16.567v-25.633-.567c0-4.687 3.813-8.5 8.5-8.5h26.2v34.7zm34.699 438.233c0 4.999-4.067 9.067-9.066 9.067h-105.68c-.196 0-.523 0-.724-.483-.2-.484.032-.715.17-.854l23.845-23.845c4.545-4.545 7.049-10.589 7.049-17.018 0-6.428-2.503-12.472-7.049-17.018l-23.845-23.845c-.138-.139-.37-.37-.17-.854.2-.483.528-.483.724-.483h65.046v42.767c0 12.958 10.542 23.5 23.5 23.5h26.2zm295.413-75.333c.196 0 .523 0 .725.484.2.483-.032.715-.171.853l-23.845 23.845c-4.545 4.545-7.049 10.589-7.049 17.018s2.504 12.473 7.049 17.018l23.846 23.846c.138.138.37.37.17.853-.201.483-.529.483-.725.483h-105.679c-5 0-9.067-4.067-9.067-9.066v-9.067h26.2c12.958 0 23.5-10.542 23.5-23.5v-42.767z"/><path d="m38.562 231.936c-4.142 0-7.5 3.358-7.5 7.5s3.358 7.5 7.5 7.5h4.142c4.142 0 7.5-3.358 7.5-7.5s-3.358-7.5-7.5-7.5z"/><path d="m473.438 246.936c4.143 0 7.5-3.358 7.5-7.5s-3.357-7.5-7.5-7.5h-4.142c-4.143 0-7.5 3.358-7.5 7.5s3.357 7.5 7.5 7.5z"/><path d="m165.666 413.383c0 4.142 3.358 7.5 7.5 7.5h16.567c4.142 0 7.5-3.358 7.5-7.5s-3.358-7.5-7.5-7.5h-16.567c-4.142 0-7.5 3.358-7.5 7.5z"/><path d="m338.833 420.883c4.143 0 7.5-3.358 7.5-7.5s-3.357-7.5-7.5-7.5h-16.566c-4.143 0-7.5 3.358-7.5 7.5s3.357 7.5 7.5 7.5z"/></g></g></svg>