<svg id="Capa_1" enable-background="new 0 0 512 512" height="512" viewBox="0 0 512 512" width="512" xmlns="http://www.w3.org/2000/svg"><g><g><g><path d="m275.538 393.149h32.746v59.306h-32.746z" fill="#fdcd08"/></g><g><path d="m152.52 28.486-18.362-18.362c-3.606-3.606-9.487-3.477-12.948.269-84.166 91.102-82.006 233.222 6.478 321.706s230.604 90.644 321.706 6.478c3.746-3.461 3.875-9.341.269-12.948l-18.362-18.362c-76.983 76.983-201.798 76.983-278.781 0s-76.983-201.797 0-278.781z" fill="#e1761c"/></g><g><path d="m439.217 315.184-7.916-7.916c-36.416 36.416-83.535 55.594-131.231 57.558 49.545 2.04 99.706-14.508 139.147-49.642z" fill="#d76718"/></g><g><path d="m144.008 332.099c-87.96-87.96-90.6-228.914-7.949-320.074l-1.901-1.901c-3.606-3.606-9.487-3.477-12.948.269-84.166 91.102-82.006 233.222 6.478 321.706 47.424 47.424 110.256 70.038 172.382 67.867-56.688-1.98-112.789-24.594-156.062-67.867z" fill="#d76718"/></g><g><circle cx="291.91" cy="167.877" fill="#b3dafe" r="158.839"/></g><g><path d="m155.391 167.877c0-83.972 65.163-152.715 147.68-158.444-3.688-.256-7.408-.396-11.16-.396-87.725 0-158.839 71.115-158.839 158.839s71.115 158.839 158.839 158.839c3.753 0 7.472-.14 11.16-.396-82.517-5.727-147.68-74.47-147.68-158.442z" fill="#8ac9fe"/></g><g><path d="m195.024 217.32 13.745-13.44c5.965-5.832 9.327-13.823 9.327-22.165v-17.167c0-6.569-2.086-12.967-5.958-18.274l-4.195-5.748c-5.836-7.998-15.141-12.726-25.042-12.726h-44.727c-3.328 12.803-5.104 26.232-5.104 40.077 0 46.885 20.319 89.021 52.625 118.096v-46.488c.001-8.343 3.364-16.333 9.329-22.165z" fill="#77d192"/></g><g><path d="m160.495 127.8h-22.32c-3.328 12.803-5.104 26.232-5.104 40.077 0 46.885 20.319 89.021 52.625 118.096v-24.774c-19.056-26.201-30.305-58.445-30.305-93.321 0-13.846 1.775-27.275 5.104-40.078z" fill="#5bc175"/></g><g><path d="m352.016 20.817v32.676c0 4.243-1.686 8.313-4.686 11.314l-24.595 24.595c-6.376 6.376-9.958 15.024-9.958 24.042v22.117c0 8.837 7.163 16 16 16h3.653c4.243 0 8.313-1.686 11.314-4.686l15.263-15.263c3.001-3.001 7.07-4.686 11.314-4.686h11.777c8.837 0 16 7.163 16 16v46.804c0 9.017 3.582 17.665 9.958 24.042l25.684 25.684c10.877-21.51 17.011-45.825 17.011-71.576-.001-66.455-40.813-123.365-98.735-147.063z" fill="#77d192"/></g><g><path d="m424.975 213.77c-6.376-6.376-9.958-15.024-9.958-24.042v-46.804c0-8.837-7.163-16-16-16h-11.777c-.867 0-1.724.088-2.569.226 7.61 1.234 13.426 7.816 13.426 15.774v46.804c0 9.017 3.582 17.665 9.958 24.042l25.684 25.684c1.917-3.79 3.677-7.672 5.292-11.628z" fill="#5bc175"/></g><g><path d="m329.696 135.56v-22.117c0-9.017 3.582-17.665 9.958-24.042l24.595-24.595c3.001-3.001 4.686-7.07 4.686-11.314v-24.541c-5.452-3.029-11.098-5.752-16.92-8.134v32.676c0 4.243-1.686 8.313-4.686 11.314l-24.595 24.595c-6.376 6.376-9.958 15.024-9.958 24.042v22.117c0 8.837 7.163 16 16 16h3.653c2.311 0 4.563-.516 6.627-1.456-5.518-2.525-9.36-8.081-9.36-14.545z" fill="#5bc175"/></g><g><path d="m384.948 504.5h-186.075c-2.761 0-5-2.239-5-5v-27.044c0-11.046 8.954-20 20-20h156.074c11.046 0 20 8.954 20 20v27.044c.001 2.761-2.238 5-4.999 5z" fill="#e9a761"/></g><g><path d="m216.913 499.5v-27.044c0-11.046 8.954-20 20-20h-23.04c-11.046 0-20 8.954-20 20v27.044c0 2.761 2.239 5 5 5h23.04c-2.761 0-5-2.239-5-5z" fill="#e69642"/></g><g><path d="m265.616 205.541v9.459c0 5.523 4.477 10 10 10h12.152c2.652 0 5.196 1.054 7.071 2.929l34.635 34.635c1.875 1.875 4.419 2.929 7.071 2.929h9.071c5.523 0 10-4.477 10-10v-32.289c0-5.304-2.107-10.391-5.858-14.142l-14.111-14.111c-3.806-3.806-8.985-5.917-14.367-5.857l-39.844.448c-8.765.099-15.82 7.233-15.82 15.999z" fill="#77d192"/></g><g><path d="m346.394 262.564-34.635-34.635c-1.875-1.875-4.419-2.929-7.071-2.929h-12.152c-5.523 0-10-4.477-10-10v-9.459c0-8.766 7.054-15.901 15.82-15.999h-16.92c-8.766.099-15.82 7.233-15.82 15.999v9.459c0 5.523 4.477 10 10 10h12.152c2.652 0 5.196 1.054 7.071 2.929l34.635 34.635c1.875 1.875 4.419 2.929 7.071 2.929h9.071c1.396 0 2.724-.288 3.931-.804-1.165-.497-2.239-1.212-3.153-2.125z" fill="#5bc175"/></g></g><g><path d="m454.483 344.086c3.281-3.03 5.213-7.329 5.301-11.792.089-4.521-1.622-8.771-4.818-11.967l-40.31-40.31c27.061-29.595 43.594-68.972 43.594-112.139 0-35.515-11.037-69.401-31.919-97.997-2.442-3.345-7.134-4.077-10.48-1.634-3.345 2.443-4.077 7.135-1.634 10.48 18.993 26.01 29.033 56.838 29.033 89.151 0 20.786-4.214 40.605-11.83 58.651l-18.062-18.062c-5.005-5.005-7.762-11.66-7.762-18.738v-46.804c0-12.958-10.542-23.5-23.5-23.5h-11.777c-6.277 0-12.179 2.444-16.617 6.883l-15.263 15.263c-1.605 1.605-3.74 2.49-6.01 2.49h-3.653c-4.687 0-8.5-3.813-8.5-8.5v-22.117c0-7.078 2.757-13.733 7.761-18.738l24.595-24.595c4.439-4.438 6.883-10.34 6.883-16.617v-21.016c10.783 5.38 20.952 12.059 30.251 19.949 3.158 2.678 7.891 2.292 10.571-.866 2.68-3.159 2.292-7.892-.866-10.571-29.982-25.441-68.182-39.452-107.561-39.452-43.167 0-82.544 16.533-112.139 43.594l-40.31-40.312c-3.197-3.196-7.443-4.901-11.968-4.817-4.463.088-8.761 2.021-11.792 5.301-39.758 43.034-62.304 99.043-63.488 157.71-.083 4.142 3.206 7.566 7.347 7.65 4.156.106 7.566-3.206 7.65-7.347 1.109-54.996 22.243-107.498 59.508-147.834.359-.389.781-.477 1.071-.483.286-.005.7.064 1.064.427l13.147 13.146.009.009c-74.531 80.138-72.799 205.982 5.208 283.989 38.649 38.649 90.036 59.935 144.694 59.935 52.149 0 101.324-19.379 139.296-54.726l13.154 13.154c.363.363.433.779.427 1.064-.006.291-.094.712-.483 1.071-88.91 82.141-225.655 79.386-311.313-6.272-35.857-35.857-58.045-81.353-64.166-131.567-.501-4.113-4.241-7.041-8.352-6.538-4.112.501-7.039 4.241-6.537 8.352 6.53 53.574 30.199 102.109 68.449 140.359 39.491 39.491 90.63 63.59 145.653 69.027v38.525h-54.164c-15.164 0-27.5 12.336-27.5 27.5v27.045c0 6.893 5.607 12.5 12.5 12.5h186.074c6.893 0 12.5-5.607 12.5-12.5v-27.044c0-15.164-12.336-27.5-27.5-27.5h-54.164v-38.512c51.671-5.095 100.117-26.714 138.698-62.358zm-162.573-327.548c18.084 0 35.893 3.252 52.606 9.444v27.51c0 2.271-.884 4.405-2.49 6.011l-24.596 24.595c-7.838 7.838-12.155 18.26-12.155 29.345v22.117c0 12.958 10.542 23.5 23.5 23.5h3.653c6.277 0 12.178-2.444 16.617-6.883l15.263-15.263c1.605-1.605 3.74-2.489 6.01-2.489h11.777c4.687 0 8.5 3.813 8.5 8.5v46.804c0 11.085 4.317 21.507 12.155 29.345l21.731 21.731c-25.795 46.706-75.547 78.413-132.572 78.413-37.685 0-72.195-13.848-98.714-36.72v-43.012c0-6.285 2.577-12.409 7.071-16.802l13.745-13.44c7.362-7.198 11.584-17.231 11.584-27.527v-17.167c0-8.212-2.559-16.06-7.4-22.695l-4.195-5.748c-7.222-9.897-18.848-15.806-31.1-15.806h-34.66c19.99-60.212 76.836-103.763 143.67-103.763zm-147.797 118.762h38.789c7.478 0 14.575 3.606 18.983 9.648l4.195 5.748c2.955 4.049 4.517 8.84 4.517 13.853v17.167c0 6.285-2.577 12.409-7.071 16.803l-13.745 13.439c-7.362 7.198-11.584 17.231-11.584 27.528v28.139c-23.409-26.654-37.625-61.569-37.625-99.747-.001-11.183 1.229-22.081 3.541-32.578zm13.71 166.664c-72.159-72.159-73.88-188.475-5.189-262.757l16.531 16.531c-27.061 29.595-43.594 68.972-43.594 112.139 0 91.72 74.62 166.339 166.339 166.339 43.168 0 82.544-16.533 112.139-43.594l16.533 16.533c-35.133 32.519-80.529 50.35-128.672 50.35-50.651 0-98.271-19.725-134.087-55.541zm224.624 170.492v24.544h-181.074v-24.544c0-6.893 5.607-12.5 12.5-12.5h156.074c6.893 0 12.5 5.607 12.5 12.5zm-81.664-27.5h-17.746v-37.509c1.459.053 2.919.107 4.382.134 1.521.028 3.039.042 4.557.042 2.944 0 5.878-.069 8.807-.175z"/><path d="m275.616 232.5h12.152c.668 0 1.296.26 1.768.732l34.635 34.636c3.306 3.305 7.7 5.125 12.374 5.125h9.071c9.649 0 17.5-7.851 17.5-17.5v-32.289c0-7.346-2.861-14.252-8.054-19.445l-14.111-14.111c-5.2-5.201-12.397-8.141-19.755-8.053l-39.844.448c-12.812.144-23.236 10.686-23.236 23.499v9.458c0 9.649 7.851 17.5 17.5 17.5zm-2.5-26.959c0-4.634 3.77-8.447 8.405-8.5l39.844-.448c.046 0 .092-.001.138-.001 3.294 0 6.51 1.33 8.842 3.662l14.111 14.111c2.361 2.361 3.661 5.5 3.661 8.839v32.289c0 1.378-1.122 2.5-2.5 2.5h-9.071c-.668 0-1.296-.26-1.768-.732l-34.635-34.635c-3.305-3.306-7.7-5.126-12.375-5.126h-12.152c-1.378 0-2.5-1.122-2.5-2.5z"/></g></g></svg>