<svg id="Capa_1" enable-background="new 0 0 511.936 511.936" height="512" viewBox="0 0 511.936 511.936" width="512" xmlns="http://www.w3.org/2000/svg"><g><g><path d="m504.409 253.644s-.002.003-.002.003l-2.469-32.77c-3.509-24.763-10.739-49.1-21.724-72.095l-.004.022-117.144-117.144.01-.01c-22.992-10.982-47.326-18.21-72.084-21.718l-32.769-2.469-.001-.002c-28.328-.259-56.692 4.29-83.761 13.659l-153.343 153.343c-9.37 27.069-13.918 55.433-13.659 83.762h.002l2.469 32.77c3.508 24.755 10.734 49.085 21.714 72.074l.015-.001 117.144 117.144-.014.009c22.989 10.981 47.319 18.209 72.075 21.718l32.794 2.383-.126.087c28.367.272 56.771-4.275 83.876-13.657l153.342-153.343c9.37-27.069 13.918-55.435 13.659-83.765z" fill="#924af5"/><g fill="#7536f9"><path d="m504.407 253.647-2.469-32.77c-3.509-24.763-10.739-49.1-21.724-72.095l-.004.022-117.144-117.144.002-.002c-22.945-10.959-47.224-18.196-71.929-21.716l-32.916-2.48-.002-.005c-4.596-.042-9.194.036-13.786.247 59.711 2.749 118.619 26.918 164.216 72.515 81.16 81.16 94.427 204.486 39.837 299.452l42.263-42.263c9.37-27.069 13.918-55.435 13.659-83.765-.001.001-.003.004-.003.004z"/><path d="m356.645 471.513c-34.759 19.973-73.313 30.862-112.211 32.653 31.376 1.445 62.971-3.032 92.975-13.417z"/></g><path d="m31.659 363.067c11.845 24.798 28.02 48.045 48.559 68.584 20.54 20.54 43.786 36.714 68.585 48.559l331.407-331.406c-11.845-24.798-28.02-48.045-48.559-68.585-20.54-20.539-43.786-36.714-68.585-48.559z" fill="#f6df59"/><g fill="#f3ffff"><path d="m230.828 220.326 20.296 6.883c2.582.876 5.429.425 7.614-1.206l17.176-12.817c5.502-4.106 13.324-.12 13.237 6.744l-.274 21.429c-.035 2.726 1.274 5.295 3.5 6.869l17.498 12.374c5.605 3.964 4.232 12.635-2.324 14.673l-20.465 6.362c-2.603.809-4.642 2.848-5.451 5.451l-6.362 20.465c-2.038 6.556-10.709 7.929-14.673 2.324l-12.374-17.498c-1.574-2.226-4.143-3.535-6.869-3.5l-21.429.274c-6.865.088-10.851-7.734-6.744-13.237l12.816-17.176c1.631-2.185 2.082-5.032 1.206-7.614l-6.882-20.296c-2.205-6.501 4.003-12.709 10.504-10.504z"/><path d="m125.399 325.755 20.296 6.883c2.582.876 5.429.425 7.614-1.206l17.176-12.818c5.502-4.106 13.324-.12 13.237 6.745l-.274 21.429c-.035 2.726 1.274 5.295 3.5 6.869l17.498 12.374c5.605 3.964 4.232 12.635-2.324 14.673l-20.465 6.362c-2.603.809-4.642 2.848-5.451 5.451l-6.361 20.465c-2.038 6.556-10.709 7.929-14.673 2.324l-12.374-17.498c-1.574-2.226-4.143-3.535-6.869-3.5l-21.429.274c-6.865.088-10.85-7.734-6.744-13.237l12.817-17.176c1.631-2.185 2.081-5.032 1.206-7.614l-6.882-20.296c-2.208-6.501 4-12.709 10.502-10.504z"/><path d="m336.258 114.896 20.296 6.882c2.582.876 5.429.425 7.614-1.206l17.176-12.817c5.502-4.106 13.324-.12 13.237 6.744l-.274 21.429c-.035 2.726 1.274 5.295 3.5 6.869l17.498 12.374c5.605 3.964 4.232 12.635-2.324 14.673l-20.465 6.362c-2.603.809-4.642 2.848-5.451 5.451l-6.362 20.465c-2.038 6.556-10.709 7.929-14.673 2.324l-12.374-17.498c-1.574-2.226-4.143-3.535-6.869-3.5l-21.429.274c-6.865.088-10.851-7.734-6.745-13.237l12.818-17.176c1.63-2.185 2.081-5.032 1.206-7.614l-6.883-20.296c-2.205-6.5 4.002-12.708 10.504-10.503z"/></g><path d="m415.304 155.172-17.498-12.374c-2.226-1.574-3.535-4.143-3.5-6.869l.274-21.429c.088-6.865-7.734-10.851-13.237-6.744l-9.77 7.291-.267 20.883c-.035 2.726 1.274 5.295 3.5 6.869l17.498 12.374c5.605 3.964 4.232 12.635-2.324 14.673l-20.465 6.362c-2.603.809-4.642 2.848-5.451 5.451l-4.321 13.9 6.286 8.889c3.964 5.605 12.635 4.232 14.673-2.324l6.362-20.465c.809-2.603 2.848-4.642 5.451-5.451l20.465-6.362c6.556-2.039 7.93-10.71 2.324-14.674z" fill="#dff9f9"/><path d="m309.875 260.602-17.498-12.374c-2.226-1.574-3.535-4.143-3.5-6.869l.274-21.429c.088-6.865-7.734-10.851-13.237-6.744l-9.77 7.291-.267 20.883c-.035 2.726 1.274 5.295 3.5 6.869l17.498 12.374c5.605 3.964 4.232 12.635-2.324 14.673l-20.465 6.362c-2.604.809-4.642 2.848-5.451 5.451l-4.321 13.9 6.286 8.889c3.964 5.605 12.635 4.232 14.673-2.324l6.362-20.465c.809-2.603 2.848-4.642 5.451-5.451l20.465-6.362c6.556-2.039 7.929-10.71 2.324-14.674z" fill="#dff9f9"/><path d="m204.445 366.031-17.498-12.374c-2.226-1.574-3.535-4.143-3.5-6.869l.274-21.429c.088-6.865-7.735-10.851-13.237-6.745l-9.77 7.291-.267 20.883c-.035 2.726 1.274 5.295 3.5 6.869l17.498 12.374c5.605 3.964 4.232 12.635-2.324 14.673l-20.465 6.362c-2.603.809-4.642 2.848-5.451 5.451l-4.321 13.9 6.286 8.889c3.964 5.605 12.635 4.232 14.673-2.324l6.361-20.465c.809-2.603 2.848-4.642 5.451-5.451l20.465-6.362c6.557-2.038 7.931-10.709 2.325-14.673z" fill="#dff9f9"/><path d="m431.65 80.22c-20.54-20.539-43.786-36.714-68.585-48.559l-7.877 7.877c19.139 10.826 37.155 24.376 53.461 40.683 24.91 24.91 43.409 53.798 55.53 84.614l16.029-16.029c-11.844-24.8-28.018-48.047-48.558-68.586z" fill="#edbf50"/><path d="m21.118 174.463c34.424-11.916 66.754-31.611 94.243-59.1s47.184-59.819 59.1-94.243c-34.424 11.916-66.754 31.611-94.243 59.1s-47.184 59.818-59.1 94.243z" fill="#f6df59"/><path d="m490.75 337.409c-34.424 11.916-66.754 31.611-94.243 59.1s-47.184 59.819-59.1 94.243c34.424-11.916 66.754-31.611 94.243-59.1s47.184-59.819 59.1-94.243z" fill="#f6df59"/><path d="m463.525 348.714c-12.13 30.188-30.416 58.48-54.875 82.938-20.104 20.104-42.799 36.037-67.006 47.81-1.501 3.737-2.925 7.498-4.237 11.29 34.424-11.916 66.754-31.611 94.243-59.1s47.184-59.818 59.1-94.243c-9.246 3.201-18.334 6.981-27.225 11.305z" fill="#edbf50"/><path d="m501.914 220.555c-8.461 1.113-16.95 2.355-25.51 3.759l-3.258.535c-2.092.343-3.973 1.475-5.255 3.163l-1.998 2.63c-16.814 22.137-31.901 44.369-45.94 67.705-1.051 1.747-2.709 3.044-4.658 3.643-25.942 7.969-51.067 17.185-76.522 28.06l-3.057 1.306c-1.962.838-3.525 2.401-4.363 4.363l-1.306 3.057c-10.875 25.454-20.091 50.58-28.06 76.522-.599 1.949-1.896 3.607-3.643 4.658-23.331 14.036-45.561 29.123-67.703 45.94l-2.63 1.997c-1.688 1.282-2.82 3.162-3.163 5.253l-.535 3.259c-1.405 8.56-2.647 17.049-3.76 25.511 10.973 1.57 22.03 2.392 33.093 2.493.567-4.228 1.157-8.462 1.799-12.713.328-2.169 1.51-4.132 3.275-5.436 21.061-15.564 42.319-29.575 64.72-42.664l2.842-1.661c1.825-1.067 3.174-2.791 3.769-4.82l.927-3.158c7.284-24.812 15.698-48.736 25.625-72.838.841-2.042 2.472-3.673 4.513-4.513 24.102-9.927 48.027-18.342 72.838-25.625l3.158-.927c2.029-.595 3.753-1.944 4.819-3.769l1.66-2.841c13.094-22.407 27.103-43.665 42.665-64.722 1.304-1.764 3.267-2.947 5.436-3.274 4.251-.642 8.486-1.232 12.714-1.799-.1-11.065-.923-22.122-2.492-33.094z" fill="#f3ffff"/><g><g><g><path d="m253.764 503.548c-3.059.256-6.12.467-9.185.61 1.106.05 2.213.089 3.32.125 1.824.041 3.747.053 5.758.039.035-.258.072-.516.107-.774z" fill="#dff9f9"/></g><g><path d="m501.914 220.555c-7.489.985-15.003 2.079-22.566 3.289 1.794 13.856 2.422 27.831 1.882 41.773 1.66-2.301 3.33-4.6 5.026-6.896 1.304-1.764 3.267-2.947 5.436-3.274 4.251-.642 8.486-1.232 12.714-1.799-.1-11.064-.923-22.121-2.492-33.093z" fill="#dff9f9"/></g></g></g><path d="m258.222 7.463c-.567 4.229-1.157 8.462-1.799 12.714-.328 2.17-1.51 4.132-3.274 5.436-21.061 15.564-42.319 29.575-64.721 42.665l-2.842 1.661c-1.825 1.067-3.174 2.791-3.769 4.82l-.926 3.158c-7.284 24.812-15.698 48.736-25.625 72.838-.841 2.042-2.472 3.673-4.513 4.513-24.102 9.927-48.027 18.342-72.838 25.625l-3.158.927c-2.029.595-3.753 1.944-4.819 3.769l-1.66 2.841c-13.094 22.407-27.103 43.665-42.664 64.722-1.304 1.764-3.267 2.947-5.436 3.274-4.251.642-8.486 1.232-12.714 1.799.101 11.063.923 22.12 2.493 33.092 8.461-1.113 16.95-2.355 25.51-3.759l3.258-.535c2.092-.343 3.972-1.475 5.255-3.164l1.998-2.63c16.814-22.137 31.901-44.369 45.94-67.705 1.051-1.747 2.71-3.044 4.659-3.643 25.942-7.969 51.067-17.185 76.522-28.06l3.057-1.306c1.962-.838 3.525-2.401 4.363-4.363l1.306-3.057c10.874-25.454 20.091-50.58 28.06-76.522.599-1.949 1.895-3.607 3.643-4.658 23.331-14.036 45.561-29.123 67.703-45.94l2.63-1.998c1.688-1.282 2.82-3.162 3.163-5.253l.535-3.259c1.405-8.56 2.647-17.049 3.76-25.511-10.977-1.568-22.034-2.39-33.097-2.491z" fill="#f3ffff"/><path d="m290.736 14.234c.195-1.427.392-2.854.579-4.278-10.973-1.57-22.03-2.392-33.093-2.493-.056.419-.116.839-.173 1.258 10.983 1.109 21.903 2.946 32.687 5.513z" fill="#dff9f9"/></g><g><path d="m436.953 74.916c-95.614-95.614-249.672-100.294-350.728-10.653-3.099 2.748-3.382 7.488-.634 10.587 2.749 3.1 7.489 3.383 10.588.634 19.868-17.624 41.918-31.36 65.184-41.266-12.025 28.296-29.221 53.758-51.305 75.841-22.085 22.086-47.548 39.282-75.845 51.307 9.917-23.289 23.672-45.361 41.322-65.246 2.75-3.098 2.467-7.838-.631-10.588-3.098-2.749-7.839-2.469-10.587.631-69.686 78.51-82.413 189.014-39.788 279.266.183.557.433 1.096.751 1.606 12.176 25.322 28.732 49.017 49.636 69.92 48.351 48.352 112.639 74.981 181.019 74.981s132.667-26.629 181.019-74.981 74.981-112.64 74.981-181.019-26.63-132.667-74.982-181.02zm47.936 256.639c-35.354 12.791-66.866 32.832-93.686 59.651-26.818 26.818-46.859 58.33-59.651 93.686-22.127 7.284-45.415 11.349-69.288 11.96.201-1.391.398-2.73.596-4.036.031-.206.149-.401.316-.525 20.867-15.421 41.817-29.232 64.046-42.221l2.844-1.661c3.492-2.042 6.042-5.304 7.181-9.184l.926-3.156c7.231-24.632 15.528-48.214 25.364-72.095.08-.192.242-.354.436-.435 23.881-9.836 47.463-18.133 72.093-25.363l3.16-.927c3.88-1.14 7.14-3.689 9.181-7.182l1.661-2.841c12.995-22.238 26.805-43.189 42.219-64.048.124-.167.32-.285.527-.316 1.302-.197 2.642-.394 4.035-.595-.611 23.873-4.676 47.161-11.96 69.288zm-255.882 163.885c.852-6.056 1.756-12.028 2.707-17.819l.535-3.258c.033-.199.139-.375.301-.498l2.628-1.997c21.984-16.697 43.911-31.576 67.035-45.486 3.336-2.008 5.801-5.163 6.944-8.883 7.898-25.711 16.988-50.498 27.788-75.776l1.307-3.059c.079-.185.225-.332.412-.411l3.057-1.307c25.277-10.799 50.064-19.889 75.777-27.787 3.722-1.143 6.877-3.609 8.883-6.945 13.915-23.129 28.793-45.056 45.485-67.034l1.997-2.63c.122-.16.298-.267.498-.3l3.257-.534c5.799-.952 11.77-1.856 17.82-2.707.662 5.994 1.104 12.037 1.321 18.12-2.186.309-4.222.606-6.184.903-4.106.619-7.878 2.89-10.35 6.232-15.738 21.297-29.839 42.689-43.108 65.396l-1.66 2.84c-.102.175-.264.302-.456.358l-3.159.927c-25.141 7.38-49.21 15.848-73.582 25.887-3.867 1.593-6.999 4.724-8.592 8.591-10.039 24.372-18.506 48.441-25.888 73.584l-.926 3.157c-.057.193-.184.355-.355.456l-2.842 1.66c-22.7 13.264-44.09 27.365-65.394 43.108-3.341 2.469-5.613 6.24-6.233 10.348-.298 1.969-.595 4.006-.903 6.186-6.084-.218-12.126-.66-18.12-1.322zm-67.274-17.553 316.152-316.151c7.114 16.756 12.314 34.317 15.46 52.419-6.162.866-12.246 1.788-18.158 2.758l-3.256.534c-4.002.656-7.559 2.796-10.014 6.027l-1.999 2.631c-17.023 22.413-32.198 44.779-46.395 68.376-.098.162-.251.282-.433.339-26.224 8.055-51.498 17.322-77.266 28.331l-3.055 1.306c-3.758 1.604-6.711 4.558-8.315 8.314l-1.306 3.058c-11.009 25.77-20.277 51.043-28.332 77.266-.056.183-.177.337-.339.435-23.589 14.19-45.955 29.366-68.375 46.395l-2.626 1.996c-3.23 2.451-5.372 6.007-6.03 10.011l-.535 3.26c-.969 5.904-1.891 11.989-2.759 18.158-18.101-3.149-35.662-8.349-52.419-15.463zm-146.569-213.15c2.145-.303 4.164-.598 6.133-.895 4.107-.621 7.878-2.893 10.347-6.233 15.738-21.297 29.839-42.688 43.108-65.396l1.66-2.84c.102-.175.264-.302.456-.358l3.159-.927c25.141-7.38 49.21-15.848 73.582-25.887 3.869-1.593 7-4.725 8.592-8.591 10.039-24.371 18.506-48.439 25.888-73.584l.926-3.157c.057-.193.184-.355.354-.455l2.843-1.661c22.7-13.264 44.09-27.365 65.394-43.108 3.341-2.469 5.613-6.24 6.234-10.348.296-1.963.591-3.98.894-6.127 6.051.223 12.093.675 18.115 1.35-.849 6.034-1.75 11.976-2.694 17.731l-.535 3.259c-.033.198-.138.374-.3.497l-2.628 1.997c-21.987 16.699-43.914 31.578-67.037 45.487-3.335 2.008-5.801 5.162-6.943 8.882-7.897 25.71-16.987 50.497-27.787 75.776l-1.306 3.057c-.08.188-.227.334-.413.413l-3.057 1.307c-25.284 10.802-50.071 19.891-75.777 27.787-3.721 1.143-6.875 3.609-8.883 6.945-13.913 23.128-28.791 45.055-45.485 67.034l-1.997 2.63c-.122.16-.298.267-.499.3l-3.256.534c-5.773.947-11.717 1.848-17.738 2.695-.676-6.021-1.128-12.063-1.35-18.114zm105.501-144.071c26.794-26.793 46.822-58.272 59.615-93.588 22.513-7.411 45.885-11.391 69.313-11.99-.197 1.362-.391 2.679-.586 3.969-.031.205-.148.4-.316.524-20.867 15.421-41.817 29.231-64.046 42.22l-2.846 1.662c-3.492 2.042-6.041 5.304-7.179 9.184l-.926 3.156c-7.232 24.633-15.529 48.215-25.365 72.096-.079.192-.241.354-.435.434-23.881 9.836-47.463 18.133-72.093 25.363l-3.16.927c-3.88 1.14-7.14 3.689-9.182 7.182l-1.66 2.841c-12.995 22.238-26.805 43.189-42.22 64.049-.124.167-.32.285-.524.316-1.293.195-2.613.39-3.975.586.599-23.428 4.58-46.8 11.991-69.313 35.319-12.793 66.798-32.823 93.594-59.618zm-79.88 243.882 44.651-44.651c2.929-2.93 2.929-7.678 0-10.607-2.929-2.928-7.678-2.928-10.607 0l-40.765 40.765c-7.154-16.908-12.292-34.484-15.424-52.355 6.122-.862 12.166-1.777 18.041-2.741l3.254-.534c4.003-.656 7.559-2.796 10.015-6.027l1.999-2.631c17.023-22.414 32.199-44.78 46.393-68.374.098-.164.253-.284.435-.34 26.217-8.053 51.491-17.32 77.266-28.332l3.056-1.306c3.756-1.604 6.709-4.557 8.314-8.314l1.307-3.058c11.01-25.771 20.277-51.045 28.332-77.266.056-.183.177-.337.339-.435 23.586-14.188 45.952-29.364 68.375-46.395l2.627-1.996c3.23-2.453 5.372-6.008 6.029-10.011l.535-3.26c.961-5.857 1.877-11.901 2.741-18.036 17.871 3.131 35.446 8.269 52.353 15.422l-253.992 253.994c-2.929 2.93-2.929 7.678 0 10.607 1.464 1.464 3.384 2.196 5.303 2.196 1.92 0 3.839-.732 5.303-2.196l257.879-257.878c22.327 11.254 43.237 26.169 61.803 44.735 18.373 18.373 33.41 39.193 44.815 61.721l-323.919 323.919c-22.528-11.406-43.348-26.442-61.721-44.816-18.567-18.566-33.482-39.476-44.737-61.8zm385.562 61.8c-22.164 22.164-47.891 39.463-75.88 51.397 12.027-28.333 29.236-53.825 51.344-75.932 22.108-22.108 47.601-39.319 75.932-51.344-11.934 27.989-29.233 53.716-51.396 75.879z"/><path d="m220.023 296.652 21.43-.273c.269.004.5.121.649.332l12.374 17.496c3.002 4.246 7.768 6.676 12.841 6.675.831 0 1.672-.065 2.514-.198 5.978-.946 10.807-5.124 12.604-10.903l6.361-20.466c.077-.246.27-.439.516-.516l20.466-6.361c5.779-1.797 9.957-6.626 10.904-12.603.946-5.977-1.535-11.86-6.476-15.355l-17.5-12.377c-.21-.147-.332-.39-.329-.647l.274-21.43c.077-6.052-3.224-11.518-8.617-14.265-5.392-2.747-11.756-2.205-16.604 1.414l-17.176 12.817c-.206.154-.477.196-.72.114l-20.296-6.883c-5.73-1.942-11.95-.491-16.23 3.786-4.279 4.28-5.73 10.499-3.787 16.23l6.882 20.297c.083.244.04.514-.114.72l-12.817 17.175c-3.62 4.851-4.162 11.213-1.415 16.605 2.749 5.391 8.244 8.691 14.266 8.616zm-.829-16.25 12.818-17.177c3.107-4.165 3.965-9.589 2.296-14.507l-6.882-20.297c-.051-.149-.156-.461.188-.805.344-.345.656-.239.806-.188l20.297 6.884c4.923 1.668 10.345.809 14.507-2.299l17.176-12.817c.127-.096.39-.293.824-.07.434.221.429.55.427.708l-.274 21.43c-.066 5.197 2.428 10.09 6.669 13.087l17.498 12.375c.129.092.397.281.321.763-.076.48-.39.578-.541.625l-20.466 6.361c-4.961 1.543-8.843 5.426-10.386 10.387l-6.361 20.466c-.047.15-.144.465-.625.541-.481.075-.671-.192-.762-.322l-12.374-17.496c-2.961-4.188-7.765-6.671-12.885-6.671-.068 0-.136.001-.204.002l-21.43.273c-.153-.004-.487.006-.708-.428-.22-.435-.024-.698.071-.825z"/><path d="m149.047 419.636c3.002 4.245 7.768 6.675 12.841 6.675.832 0 1.672-.065 2.514-.198 5.978-.947 10.807-5.125 12.604-10.904l6.361-20.465c.077-.246.27-.439.516-.516l20.466-6.361c5.779-1.797 9.958-6.626 10.904-12.604.947-5.978-1.535-11.861-6.476-15.354l-17.5-12.376c-.209-.148-.332-.391-.329-.648l.274-21.43c.077-6.052-3.225-11.518-8.618-14.265-5.392-2.746-11.755-2.204-16.604 1.414l-17.175 12.816c-.208.154-.479.195-.721.115l-20.296-6.883c-5.73-1.943-11.949-.493-16.229 3.786-4.279 4.279-5.731 10.498-3.787 16.229l6.882 20.296c.083.244.04.514-.114.721l-12.817 17.175c-3.62 4.851-4.162 11.213-1.415 16.605 2.748 5.392 8.227 8.707 14.265 8.616l21.431-.273c.249.023.5.12.648.332zm-13.215-32.826-21.43.273c-.154-.003-.487.006-.707-.428-.221-.434-.024-.697.07-.824l12.818-17.177c3.107-4.164 3.965-9.588 2.297-14.507l-6.882-20.296c-.051-.15-.157-.462.188-.807.344-.345.656-.238.805-.188l20.297 6.884c4.92 1.668 10.343.809 14.507-2.299l17.176-12.817c.126-.096.391-.293.824-.07.434.221.43.55.428.708l-.274 21.429c-.067 5.196 2.426 10.09 6.668 13.088l17.499 12.376c.129.091.397.28.321.761s-.39.579-.541.626l-20.467 6.361c-4.96 1.543-8.843 5.426-10.386 10.387l-6.361 20.465c-.047.151-.145.466-.625.542-.482.071-.671-.192-.762-.322l-12.374-17.496c-2.961-4.188-7.765-6.671-12.884-6.671-.069 0-.138.001-.205.002z"/><path d="m325.453 191.222 21.43-.273c.252-.017.5.12.649.331l12.374 17.498c3.002 4.244 7.768 6.674 12.842 6.674.832 0 1.672-.065 2.514-.198 5.977-.947 10.806-5.125 12.603-10.903l6.361-20.467c.077-.246.269-.438.515-.515l20.466-6.361c5.779-1.797 9.957-6.626 10.904-12.604.946-5.978-1.535-11.861-6.476-15.355l-17.498-12.374c-.211-.15-.334-.393-.331-.65l.274-21.43c.077-6.051-3.224-11.518-8.617-14.265s-11.756-2.205-16.605 1.414l-17.175 12.817c-.207.154-.476.195-.72.114l-20.296-6.883c-5.731-1.942-11.95-.491-16.229 3.786-4.279 4.28-5.73 10.499-3.787 16.229l6.882 20.296c.083.245.041.514-.113.721l-12.818 17.176c-3.62 4.85-4.161 11.212-1.414 16.605 2.748 5.393 8.229 8.679 14.265 8.617zm-.83-16.25 12.818-17.176c3.107-4.163 3.966-9.587 2.297-14.508l-6.882-20.297c-.051-.149-.156-.461.188-.805.344-.346.656-.239.806-.188l20.297 6.884c4.922 1.668 10.344.81 14.508-2.299l17.175-12.817c.127-.096.389-.294.824-.07.434.221.429.55.427.708l-.274 21.43c-.066 5.196 2.427 10.089 6.669 13.088l17.498 12.375c.129.091.397.28.321.762-.076.48-.391.578-.541.625l-20.466 6.361c-4.962 1.543-8.845 5.427-10.386 10.387l-6.361 20.466c-.047.15-.144.465-.625.541-.479.074-.671-.192-.763-.321l-12.374-17.497c-2.961-4.188-7.765-6.671-12.885-6.671-.068 0-.136.001-.204.002l-21.43.273c-.159-.005-.487.006-.708-.428-.22-.434-.023-.698.071-.825z"/></g></g></svg>