<svg id="Capa_1" enable-background="new 0 0 512 512" height="512" viewBox="0 0 512 512" width="512" xmlns="http://www.w3.org/2000/svg"><g><g><path d="m450.632 272.343h45.658c4.418 0 8-3.582 8-8v-17.105c0-4.418-3.582-8-8-8h-45.658z" fill="#413e82"/><path d="m438.632 297.172h-21.106v-82.763h21.106c8.836 0 16 7.163 16 16v50.763c0 8.837-7.163 16-16 16z" fill="#e59f4f"/><path d="m61.368 115.092h-45.658c-4.418 0-8 3.582-8 8v17.105c0 4.418 3.582 8 8 8h45.658z" fill="#413e82"/><path d="m73.368 90.263h21.106v82.763h-21.106c-8.837 0-16-7.163-16-16v-50.763c0-8.836 7.163-16 16-16z" fill="#e59f4f"/><path d="m61.368 363.383h-45.658c-4.418 0-8 3.582-8 8v17.105c0 4.418 3.582 8 8 8h45.658z" fill="#413e82"/><path d="m73.368 338.554h21.106v82.763h-21.106c-8.837 0-16-7.163-16-16v-50.763c0-8.837 7.163-16 16-16z" fill="#e59f4f"/><g fill="#f3ffff"><path d="m94.473 239.238h-54.865c-2.57 0-5.104.598-7.403 1.747l-22.208 11.104c-3.05 1.525-3.05 5.878 0 7.403l22.208 11.104c2.298 1.149 4.833 1.747 7.403 1.747h54.866v-33.105z"/><path d="m416.526 148.198h55.866c2.57 0 5.104-.598 7.403-1.747l22.208-11.104c3.05-1.525 3.05-5.878 0-7.403l-22.208-11.104c-2.298-1.149-4.833-1.747-7.403-1.747h-55.866z"/><path d="m416.526 396.488h55.866c2.57 0 5.104-.598 7.403-1.747l22.208-11.104c3.05-1.525 3.05-5.878 0-7.403l-22.208-11.104c-2.298-1.149-4.833-1.747-7.403-1.747h-55.866z"/></g><path d="m502.003 127.944-22.208-11.104c-2.298-1.149-4.833-1.747-7.403-1.747h-23c2.57 0 5.104.598 7.403 1.747l22.208 11.104c3.05 1.525 3.05 5.878 0 7.403l-22.208 11.104c-2.298 1.149-4.833 1.748-7.403 1.748h23c2.57 0 5.104-.598 7.403-1.748l22.208-11.104c3.05-1.526 3.05-5.878 0-7.403z" fill="#dff9f9"/><path d="m502.003 376.234-22.208-11.104c-2.298-1.149-4.833-1.747-7.403-1.747h-23c2.57 0 5.104.598 7.403 1.747l22.208 11.104c3.05 1.525 3.05 5.878 0 7.403l-22.208 11.104c-2.298 1.149-4.833 1.747-7.403 1.747h23c2.57 0 5.104-.598 7.403-1.747l22.208-11.104c3.05-1.525 3.05-5.878 0-7.403z" fill="#dff9f9"/><g><path d="m404.974 7.5h-123.869l-25.105 11.777-25.105-11.777h-123.869c-9.142 0-16.553 7.411-16.553 16.553v463.895c0 9.142 7.411 16.553 16.553 16.553h123.869l25.105-8.907 25.105 8.906h123.869c9.142 0 16.553-7.411 16.553-16.553v-463.894c0-9.142-7.411-16.553-16.553-16.553z" fill="#f6df59"/><g fill="#924af5"><path d="m198.486 57.158c-4.07 0-7.579 2.953-8.17 6.98-3.209 21.85-21.224 39.984-43.212 43.205-4.024.589-6.972 4.103-6.972 8.17v280.976c0 4.067 2.948 7.58 6.972 8.17 21.989 3.221 40.003 21.355 43.212 43.205.591 4.027 4.1 6.98 8.17 6.98h115.028c4.07 0 7.579-2.953 8.171-6.98 3.209-21.85 21.224-39.984 43.212-43.205 4.024-.589 6.972-4.102 6.972-8.17v-280.977c0-4.067-2.948-7.58-6.972-8.17-21.989-3.221-40.003-21.355-43.212-43.205-.591-4.027-4.1-6.98-8.171-6.98h-115.028z"/><ellipse cx="140.131" cy="57.158" rx="16.553" ry="16.553" transform="matrix(.228 -.974 .974 .228 52.512 180.554)"/><ellipse cx="371.869" cy="57.158" rx="16.553" ry="16.553" transform="matrix(.707 -.707 .707 .707 68.501 279.692)"/><ellipse cx="140.131" cy="454.842" rx="16.553" ry="16.553" transform="matrix(.707 -.707 .707 .707 -280.578 232.308)"/><ellipse cx="371.869" cy="454.842" rx="16.553" ry="16.553" transform="matrix(.23 -.973 .973 .23 -156.244 712.261)"/></g><path d="m404.974 7.5h-23c9.142 0 16.553 7.411 16.553 16.553v463.895c0 9.142-7.411 16.553-16.553 16.553h23c9.142 0 16.553-7.411 16.553-16.553v-463.895c0-9.142-7.411-16.553-16.553-16.553z" fill="#edbf50"/><path d="m371.869 40.605c-4.472 0-8.521 1.781-11.5 4.662 3.111 3.009 5.053 7.22 5.053 11.89s-1.942 8.881-5.053 11.89c2.979 2.881 7.028 4.662 11.5 4.662 9.142 0 16.553-7.411 16.553-16.553-.001-9.14-7.412-16.551-16.553-16.551z" fill="#7536f9"/><path d="m371.869 438.289c-4.472 0-8.521 1.781-11.5 4.662 3.111 3.009 5.053 7.22 5.053 11.89s-1.942 8.881-5.053 11.89c2.979 2.881 7.028 4.662 11.5 4.662 9.142 0 16.553-7.411 16.553-16.553-.001-9.14-7.412-16.551-16.553-16.551z" fill="#7536f9"/><path d="m140.131 40.605c-4.472 0-8.521 1.781-11.5 4.662 3.111 3.009 5.053 7.22 5.053 11.89s-1.942 8.881-5.053 11.89c2.979 2.881 7.028 4.662 11.5 4.662 9.142 0 16.553-7.411 16.553-16.553 0-9.14-7.411-16.551-16.553-16.551z" fill="#7536f9"/><path d="m140.131 438.289c-4.472 0-8.521 1.781-11.5 4.662 3.111 3.009 5.053 7.22 5.053 11.89s-1.942 8.881-5.053 11.89c2.979 2.881 7.028 4.662 11.5 4.662 9.142 0 16.553-7.411 16.553-16.553 0-9.14-7.411-16.551-16.553-16.551z" fill="#7536f9"/><path d="m364.897 107.342c-21.989-3.221-40.003-21.354-43.212-43.205-.591-4.027-4.1-6.98-8.17-6.98h-23.037c4.07 0 7.579 2.953 8.17 6.98 3.209 21.85 21.224 39.984 43.212 43.205 4.024.589 6.972 4.103 6.972 8.17v280.976c0 4.067-2.948 7.58-6.972 8.17-21.989 3.221-40.003 21.354-43.212 43.205-.591 4.027-4.1 6.979-8.17 6.979h23.037c4.07 0 7.579-2.953 8.17-6.979 3.209-21.85 21.224-39.984 43.212-43.205 4.024-.589 6.972-4.103 6.972-8.17v-280.976c0-4.067-2.948-7.58-6.972-8.17z" fill="#7536f9"/></g><g><path d="m222.895 15.5v481c0 4.418 3.582 8 8 8h50.211c4.418 0 8-3.582 8-8v-481c0-4.418-3.582-8-8-8h-50.211c-4.419 0-8 3.582-8 8z" fill="#e59f4f"/><path d="m281.105 7.5h-23c4.418 0 8 3.582 8 8v481c0 4.418-3.582 8-8 8h23c4.418 0 8-3.582 8-8v-481c0-4.418-3.581-8-8-8z" fill="#e27f4d"/></g><path d="m496.29 239.238h-22.829c4.418 0 8 3.582 8 8v17.105c0 4.418-3.582 8-8 8h22.829c4.418 0 8-3.582 8-8v-17.105c0-4.419-3.582-8-8-8z" fill="#2f2c59"/></g><g><path d="m140.131 81.211c13.263 0 24.053-10.79 24.053-24.053s-10.79-24.053-24.053-24.053-24.053 10.79-24.053 24.053 10.791 24.053 24.053 24.053zm0-33.106c4.992 0 9.053 4.061 9.053 9.053s-4.061 9.053-9.053 9.053-9.053-4.061-9.053-9.053 4.062-9.053 9.053-9.053z"/><path d="m371.869 33.105c-13.263 0-24.053 10.79-24.053 24.053s10.79 24.053 24.053 24.053 24.053-10.79 24.053-24.053-10.79-24.053-24.053-24.053zm0 33.106c-4.992 0-9.053-4.061-9.053-9.053s4.061-9.053 9.053-9.053 9.053 4.061 9.053 9.053-4.061 9.053-9.053 9.053z"/><path d="m140.131 478.895c13.263 0 24.053-10.79 24.053-24.053s-10.79-24.053-24.053-24.053-24.053 10.79-24.053 24.053 10.791 24.053 24.053 24.053zm0-33.106c4.992 0 9.053 4.061 9.053 9.053s-4.061 9.053-9.053 9.053-9.053-4.06-9.053-9.053c.001-4.992 4.062-9.053 9.053-9.053z"/><path d="m371.869 430.789c-13.263 0-24.053 10.79-24.053 24.053s10.79 24.053 24.053 24.053 24.053-10.79 24.053-24.053-10.79-24.053-24.053-24.053zm0 33.106c-4.992 0-9.053-4.06-9.053-9.053 0-4.992 4.061-9.053 9.053-9.053s9.053 4.061 9.053 9.053-4.061 9.053-9.053 9.053z"/><path d="m496.29 231.737h-34.158v-1.329c0-12.958-10.542-23.5-23.5-23.5h-9.605v-51.21h43.366c3.714 0 7.434-.878 10.756-2.54l22.209-11.104c3.968-1.984 6.433-5.974 6.433-10.41s-2.465-8.425-6.434-10.409l-22.207-11.104c-3.322-1.661-7.042-2.539-10.757-2.539h-43.366v-83.54c-.001-13.262-10.791-24.052-24.053-24.052h-297.948c-13.263 0-24.053 10.79-24.053 24.053v58.711h-9.605c-12.958 0-23.5 10.542-23.5 23.5v1.329h-34.158c-8.547 0-15.5 6.953-15.5 15.5v17.105c0 8.547 6.953 15.5 15.5 15.5h34.158v1.328c0 12.958 10.542 23.5 23.5 23.5h9.605v8.533c0 4.143 3.358 7.5 7.5 7.5s7.5-3.357 7.5-7.5v-165.006c0-4.991 4.061-9.053 9.053-9.053h108.369v34.658h-16.909c-7.767 0-14.47 5.757-15.591 13.39-2.737 18.638-18.247 34.145-36.877 36.874-7.631 1.116-13.386 7.818-13.386 15.59v233.172c0 4.143 3.358 7.5 7.5 7.5s7.5-3.357 7.5-7.5v-233.172c0-.367.251-.703.559-.748 25.032-3.667 45.869-24.499 49.545-49.536.047-.319.376-.569.75-.569h16.909v382.684h-16.909c-.374 0-.703-.25-.75-.569-3.677-25.036-24.514-45.869-49.546-49.536-.308-.045-.558-.381-.558-.748v-17.805c0-4.143-3.358-7.5-7.5-7.5s-7.5 3.357-7.5 7.5v17.805c0 7.771 5.755 14.474 13.385 15.59 18.632 2.729 34.142 18.236 36.878 36.874 1.121 7.634 7.824 13.39 15.591 13.39h16.909v34.656h-108.369c-4.992 0-9.053-4.061-9.053-9.053v-268.81c0-4.143-3.358-7.5-7.5-7.5s-7.5 3.357-7.5 7.5v12.6h-43.365c-3.715 0-7.435.878-10.757 2.54l-22.209 11.104c-3.968 1.985-6.433 5.975-6.432 10.411 0 4.436 2.466 8.425 6.433 10.407l22.209 11.105c3.323 1.66 7.042 2.538 10.755 2.538h43.365v51.211h-9.605c-12.958 0-23.5 10.542-23.5 23.5v1.329h-34.157c-8.547 0-15.5 6.953-15.5 15.5v17.105c0 8.547 6.953 15.5 15.5 15.5h34.158v1.329c0 12.958 10.542 23.5 23.5 23.5h9.605v59.13c0 13.263 10.79 24.053 24.053 24.053h297.948c13.263 0 24.053-10.79 24.053-24.053v-83.959h43.366c3.714 0 7.434-.878 10.756-2.54l22.209-11.104c3.969-1.985 6.434-5.975 6.433-10.411 0-4.436-2.466-8.425-6.433-10.407l-22.208-11.104c-3.322-1.661-7.042-2.539-10.757-2.539h-43.366v-51.211h9.605c12.958 0 23.5-10.542 23.5-23.5v-1.329h34.158c8.547 0 15.5-6.953 15.5-15.5v-17.105c0-8.547-6.953-15.5-15.5-15.5zm-480.58-91.039c-.276 0-.5-.225-.5-.5v-17.105c0-.275.224-.5.5-.5h34.158v18.105zm57.658 24.828c-4.687 0-8.5-3.813-8.5-8.5v-8.828-33.105-8.829c0-4.687 3.813-8.5 8.5-8.5h9.605v67.763h-9.605zm-33.76 99.317c-1.398 0-2.799-.331-4.049-.955l-16.194-8.098 16.194-8.097c1.25-.626 2.65-.956 4.048-.956h43.365v18.105h-43.364zm-23.898 124.145c-.276 0-.5-.225-.5-.5v-17.105c0-.275.224-.5.5-.5h34.158v18.105zm57.658 24.829c-4.687 0-8.5-3.814-8.5-8.5v-8.829-33.105-8.829c0-4.687 3.813-8.5 8.5-8.5h9.605v67.764h-9.605zm399.025-291.224c1.398 0 2.798.33 4.049.955l16.194 8.097-16.195 8.098c-1.251.625-2.65.956-4.048.956h-43.366v-18.105h43.366zm-175.788-57.935h16.908c.374 0 .703.25.751.569 3.677 25.036 24.514 45.869 49.546 49.536.308.045.559.381.559.748v280.977c0 .367-.251.703-.56.748-25.031 3.667-45.868 24.5-49.546 49.537-.047.318-.376.568-.75.568h-16.908zm-66.211-49.658h18.106v482h-18.106zm33.106 0h18.105v482h-18.105zm150.526 472.947c0 4.992-4.062 9.053-9.053 9.053h-108.368v-34.658h16.908c7.768 0 14.472-5.757 15.591-13.39 2.737-18.638 18.247-34.145 36.878-36.874 7.632-1.116 13.387-7.819 13.387-15.59v-280.976c0-7.771-5.755-14.474-13.386-15.59-18.632-2.729-34.142-18.236-36.878-36.873-1.12-7.634-7.823-13.391-15.592-13.391h-16.908v-34.658h108.368c4.991 0 9.053 4.06 9.053 9.053zm58.367-117.064c1.398 0 2.798.33 4.048.955l16.194 8.098-16.194 8.097c-1.251.625-2.65.956-4.048.956h-43.366v-18.105h43.366zm-25.261-89.711c0 4.686-3.813 8.5-8.5 8.5h-9.605v-67.764h9.605c4.687 0 8.5 3.813 8.5 8.5v8.829 33.105zm49.658-16.829c0 .275-.225.5-.5.5h-34.158v-18.105h34.158c.275 0 .5.225.5.5z"/></g></g></svg>