<svg id="Capa_1" enable-background="new 0 0 512 512" height="512" viewBox="0 0 512 512" width="512" xmlns="http://www.w3.org/2000/svg"><g><g><path d="m193.255 411.5h125.872l1.782-14v-339.59c0-6.525 3.183-12.639 8.527-16.382l14.095-9.872c3.508-2.457 3.386-7.693-.233-9.984l-10.142-6.42c-8-5.064-17.274-7.752-26.742-7.752h-101.504l-3 1c-5.523 0-10 4.477-10 10z" fill="#f9f8f9"/><path d="m320.91 397.5v14l-63.655 5.117-66.345-5.022v-394.095c0-5.523 4.477-10 10-10h4v386c0 2.209 1.791 4 4 4z" fill="#e8e8e8"/><path d="m329.5 474.5h-147v-53c0-4.971 4.029-9 9-9l4-1h126c4.971 0 9 4.029 9 9v40z" fill="#ffe07d"/><path d="m330.5 460.5v14l-82.777 7.479-66.223-7.479v-54c0-4.971 4.029-9 9-9h5v45c0 2.209 1.791 4 4 4z" fill="#ffd064"/><path d="m345 503.5h-178c-5.523 0-10-4.477-10-10v-8c0-5.523 4.477-10 10-10l3-1h176c5.523 0 10 4.477 10 10v6l-1 3c0 5.523-4.477 10-10 10z" fill="#ffe07d"/><path d="m356 490.5v4c0 5.523-4.477 10-10 10h-180c-5.523 0-10-4.477-10-10v-10c0-5.523 4.477-10 10-10h4v13c0 1.657 1.343 3 3 3z" fill="#ffd064"/><path d="m255.91 380.979c-19.33 0-33.038-18.436-33.038-37.766l-.872-79.713c0-2.761 2.239-5 5-5l10-1h50.809l3.191 75.287v13.713c0 16.577-11.525 30.463-27 34.081-.239.056-.479.109-.72.16 0 .001-4.874.238-7.37.238z" fill="#c8effe"/><path d="m264 380.58c-2.57.6-5.25.92-8 .92-19.33 0-35-15.67-35-35v-84c0-2.76 2.24-5 5-5h11v89c0 16.58 11.52 30.46 27 34.08z" fill="#a9e5f7"/></g><g><path d="m190.91 144.867c4.142 0 7.5-3.357 7.5-7.5v-119.867c0-1.379 1.122-2.5 2.5-2.5h34.787c4.142 0 7.5-3.357 7.5-7.5s-3.358-7.5-7.5-7.5h-34.787c-9.649 0-17.5 7.851-17.5 17.5v119.867c0 4.143 3.358 7.5 7.5 7.5z"/><path d="m226 250c-6.893 0-12.5 5.607-12.5 12.5v84c0 23.435 19.065 42.5 42.5 42.5s42.5-19.065 42.5-42.5v-237c0-4.143-3.358-7.5-7.5-7.5h-25c-4.142 0-7.5 3.357-7.5 7.5s3.358 7.5 7.5 7.5h17.5v22.5h-27.5c-4.142 0-7.5 3.357-7.5 7.5s3.358 7.5 7.5 7.5h27.5v22.5h-17.5c-4.142 0-7.5 3.357-7.5 7.5s3.358 7.5 7.5 7.5h17.5v22.5h-27.5c-4.142 0-7.5 3.357-7.5 7.5s3.358 7.5 7.5 7.5h27.5v20.5zm30 124c-15.164 0-27.5-12.337-27.5-27.5v-81.5h55v24.5h-27.5c-4.142 0-7.5 3.357-7.5 7.5s3.358 7.5 7.5 7.5h27.5v22.5h-17.5c-4.142 0-7.5 3.357-7.5 7.5s3.358 7.5 7.5 7.5h17.5v4.5c0 15.163-12.336 27.5-27.5 27.5z"/><path d="m346 467h-8v-46.5c0-6.629-3.938-12.342-9.59-14.963v-347.627c0-4.074 1.992-7.901 5.329-10.238l14.096-9.872c3.707-2.597 5.857-6.848 5.752-11.373-.105-4.524-2.452-8.671-6.276-11.092l-10.143-6.421c-9.214-5.831-19.849-8.914-30.753-8.914h-35.718c-4.142 0-7.5 3.357-7.5 7.5s3.358 7.5 7.5 7.5h35.718c8.06 0 15.92 2.278 22.731 6.589l8.24 5.216-12.252 8.581c-7.341 5.142-11.724 13.562-11.724 22.524v346.09h-115v-231.633c0-4.143-3.358-7.5-7.5-7.5s-7.5 3.357-7.5 7.5v233.257c-5.555 2.659-9.41 8.319-9.41 14.876v46.5h-8c-9.649 0-17.5 7.851-17.5 17.5v10c0 9.649 7.851 17.5 17.5 17.5h180c9.649 0 17.5-7.851 17.5-17.5v-10c0-9.649-7.851-17.5-17.5-17.5zm2.5 27.5c0 1.379-1.122 2.5-2.5 2.5h-180c-1.378 0-2.5-1.121-2.5-2.5v-10c0-1.379 1.122-2.5 2.5-2.5h61.388c4.142 0 7.5-3.357 7.5-7.5s-3.358-7.5-7.5-7.5h-38.388v-46.5c0-.827.673-1.5 1.5-1.5h131c.827 0 1.5.673 1.5 1.5v46.5h-60.612c-4.142 0-7.5 3.357-7.5 7.5s3.358 7.5 7.5 7.5h83.612c1.378 0 2.5 1.121 2.5 2.5z"/><path d="m290 72h-68c-4.142 0-7.5 3.357-7.5 7.5s3.358 7.5 7.5 7.5h68c4.142 0 7.5-3.357 7.5-7.5s-3.358-7.5-7.5-7.5z"/></g></g></svg>