<svg id="Capa_1" enable-background="new 0 0 512.013 512.013" height="512" viewBox="0 0 512.013 512.013" width="512" xmlns="http://www.w3.org/2000/svg"><g><g><g><path d="m271.011 282.913c0-5.955-3.471-11.1-8.501-13.522 0 0-2.142-.225-3.042-.467-1.247-.336-2.106-.447-3.459-.447-8.286 0-14.136 5.928-14.136 14.213s5.847 14.973 14.133 14.973c1.456 0 2.817-.299 4.149-.686.799-.232 2.359-.543 2.359-.543 5.027-2.423 8.497-7.567 8.497-13.521z" fill="#ffe07d"/><path d="m262.512 296.434c-1.97.95-4.178 1.482-6.498 1.482-8.29 0-15-6.72-15-15s6.71-15 15-15c2.32 0 4.525.525 6.495 1.475-5.03 2.42-8.495 7.565-8.495 13.525s3.468 11.098 8.498 13.518z" fill="#ffd064"/></g><g><path d="m479.116 94.34c0-6.948-4.05-12.95-9.918-15.776 0 0-2.5-.262-3.549-.545-1.455-.392-2.457-.521-4.036-.521-9.667 0-16.493 6.917-16.493 16.582s6.822 17.469 16.488 17.469c1.699 0 3.287-.349 4.84-.801.932-.271 2.752-.633 2.752-.633 5.867-2.827 9.916-8.829 9.916-15.775z" fill="#ffe07d"/><path d="m469.201 110.114c-2.298 1.108-4.874 1.729-7.581 1.729-9.672 0-17.5-7.84-17.5-17.5s7.828-17.5 17.5-17.5c2.707 0 5.279.612 7.578 1.721-5.868 2.823-9.911 8.826-9.911 15.779 0 6.954 4.046 12.948 9.914 15.771z" fill="#ffd064"/></g><g><g fill="#7dc3ee"><ellipse cx="488.742" cy="234.366" rx="15.801" ry="15.833"/><ellipse cx="307.49" cy="234.366" rx="15.008" ry="15.005"/><ellipse cx="398.245" cy="143.858" rx="15.008" ry="15.005"/><ellipse cx="398.245" cy="324.229" rx="15.592" ry="15.624"/><ellipse cx="328.952" cy="164.932" rx="21.103" ry="21.146"/><ellipse cx="467.102" cy="303.344" rx="20.432" ry="20.428"/><ellipse cx="462.236" cy="170.245" rx="15.801" ry="15.833"/><ellipse cx="334.254" cy="298.488" rx="15.801" ry="15.833"/></g><g><path d="m434.665 270.495c20.116-20.112 20.116-52.721 0-72.833-8.06-8.058-18.126-12.888-28.591-14.489 0 0-1.138-.047-1.7-.115-15.148-1.81-27.515 4.188-39.14 15.81-20.116 20.112-21.547 49.122-1.431 69.234 11.8 11.798 25.911 18.914 41.267 16.871.344-.046 1.036.005 1.036.005 10.453-1.605 20.507-6.433 28.559-14.483z" fill="#7dc3ee"/><path d="m377.591 270.497c8.051 8.051 18.102 12.879 28.549 14.477-15.671 2.417-32.249-2.411-44.315-14.477-20.117-20.117-20.117-52.72 0-72.836 12.066-12.066 28.648-16.894 44.319-14.477-10.447 1.598-20.502 6.426-28.553 14.477-20.117 20.116-20.117 52.719 0 72.836z" fill="#64acdc"/></g></g><g><path d="m396.454 503.394h-50.932c-2.761 0-5-2.239-5-5v-88.021c0-2.761 2.239-5 5-5l10-1h41.932c2.761 0 5 2.239 5 5v79.021l-1 10c0 2.761-2.238 5-5 5z" fill="#b2e5fb"/><path d="m402.452 488.394v11c0 2.761-2.239 5-5 5h-52.93c-2.761 0-5-2.239-5-5v-90.023c0-2.761 2.239-5 5-5l11 .002v80.021c0 2.209 1.791 4 4 4z" fill="#98e0f9"/></g><g><path d="m293.743 503.477h-50.932c-2.761 0-5-2.239-5-5v-135.153c0-2.761 2.239-5 5-5l10-1h41.932c2.761 0 5 2.239 5 5v126.153l-1 10c0 2.761-2.238 5-5 5z" fill="#e27f86"/><path d="m299.741 488.477v11c0 2.761-2.239 5-5 5h-52.93c-2.761 0-5-2.239-5-5v-137.155c0-2.761 2.239-5 5-5l11 .002v127.153c0 2.209 1.791 4 4 4z" fill="#df646e"/></g><g><path d="m191.032 503.398h-50.932c-2.761 0-5-2.239-5-5v-249.912c0-2.761 2.239-5 5-5l10-1h41.932c2.761 0 5 2.239 5 5v240.912l-1 10c0 2.762-2.238 5-5 5z" fill="#ffe07d"/><path d="m197.03 488.398v11c0 2.761-2.239 5-5 5h-52.93c-2.761 0-5-2.239-5-5v-251.913c0-2.761 2.239-5 5-5l11 .002v241.912c0 2.209 1.791 4 4 4h42.93z" fill="#ffd064"/></g><g><g><path d="m77.852 389.405h-50.932c-2.761 0-5-2.239-5-5v-19.47c0-2.761 2.239-5 5-5l10-1h41.932c2.761 0 5 2.239 5 5v10.471l-1 10c0 2.761-2.238 4.999-5 4.999z" fill="#afefa5"/><path d="m83.85 374.405v11c0 2.761-2.239 5-5 5h-52.93c-2.761 0-5-2.239-5-5v-21.472c0-2.761 2.239-5 5-5l11 .002v11.471c0 2.209 1.791 4 4 4h42.93z" fill="#8ce1a4"/></g><path d="m77.852 263.517h-50.932c-2.761 0-5-2.239-5-5v-187.322c0-2.761 2.239-5 5-5l10-1h41.932c2.761 0 5 2.239 5 5v178.322l-1 10c0 2.761-2.238 5-5 5z" fill="#afefa5"/><path d="m83.85 248.517v11c0 2.761-2.239 5-5 5h-52.93c-2.761 0-5-2.239-5-5v-189.324c0-2.761 2.239-5 5-5l11 .002v179.322c0 2.209 1.791 4 4 4z" fill="#8ce1a4"/><g><path d="m77.852 326.461h-50.932c-2.761 0-5-2.239-5-5v-19.47c0-2.761 2.239-5 5-5l10-1h41.932c2.761 0 5 2.239 5 5v10.471l-1 10c0 2.76-2.238 4.999-5 4.999z" fill="#afefa5"/><path d="m83.85 311.461v11c0 2.761-2.239 5-5 5h-52.93c-2.761 0-5-2.239-5-5v-21.472c0-2.761 2.239-5 5-5l11 .002v11.471c0 2.209 1.791 4 4 4h42.93z" fill="#8ce1a4"/></g><path d="m43.779 497.921-33.894-60.127c-3.848-6.667-1.759-14.892 5.939-14.892l.738-1.024h71.795c7.698 0 12.509 8.333 8.661 14.999l-35.971 62.315s-1.83 1.95-2.97 2.75c-4.558 3.198-11.22 1.312-14.298-4.021z" fill="#afefa5"/><path d="m61.047 499.192-44.485-77.315-.15-.005c-7.69 0-12.51 8.34-8.66 15l35.97 62.32c3.85 6.671 13.485 6.67 17.325 0z" fill="#8ce1a4"/></g><g><path d="m499.165 503.448h-50.932c-2.761 0-5-2.239-5-5v-56.258c0-2.761 2.239-5 5-5l10-1h41.932c2.761 0 5 2.239 5 5v47.258l-1 10c0 2.761-2.238 5-5 5z" fill="#7dc3ee"/><path d="m505.163 488.448v11c0 2.761-2.239 5-5 5h-52.93c-2.761 0-5-2.239-5-5v-58.26c0-2.761 2.239-5 5-5l11 .002v48.258c0 2.209 1.791 4 4 4z" fill="#64acdc"/></g><path d="m193.832 176.07c-9.007-3.451-14.648-11.822-14.947-22-1.048-35.645 11.657-66.777 36.255-92.596 6.069-6.371 13.876-10.817 21.947-9.117 1.258.265 3.907.594 3.907.594 2.937 1.121 5.708 2.824 8.136 5.113 9.866 9.303 10.32 24.762 1.014 34.529-15.597 16.371-23.82 37.834-23.156 60.435.397 13.485-10.271 24.682-23.828 25.011-2.154.052-4.252-.173-6.258-.644.001.002-2.04-.93-3.07-1.325z" fill="#afefa5"/><path d="m240.994 52.952c-1.84 1.28-3.572 2.835-5.162 4.644-26.16 29.89-40.84 68.22-41.35 107.93-.06 4.33.82 8.36 2.42 11.87-1.09-.26-2.15-.59-3.18-.98-9.01-3.45-15.53-12.02-15.83-22.2-1.04-35.64 11.93-69.49 36.52-95.31 7.021-7.37 17.582-9.394 26.582-5.954z" fill="#8ce1a4"/><g><path d="m396.228 67.22c11.718-11.716 11.718-30.711 0-42.427-4.695-4.694-10.559-7.508-16.655-8.44 0 0-.663-.028-.99-.067-8.824-1.054-16.028 2.44-22.8 9.21-11.718 11.716-12.552 28.615-.834 40.33 6.874 6.872 15.094 11.018 24.039 9.828.2-.027.603.003.603.003 6.09-.935 11.947-3.748 16.637-8.437z" fill="#e27f86"/><path d="m362.981 67.221c4.69 4.69 10.545 7.503 16.631 8.433-9.129 1.408-18.786-1.405-25.814-8.433-11.719-11.718-11.719-30.71 0-42.429 7.029-7.029 16.688-9.841 25.817-8.433-6.086.931-11.943 3.743-16.633 8.433-11.719 11.718-11.719 30.71-.001 42.429z" fill="#df646e"/></g></g><g><path d="m499.513 428.735h-51.627c-6.893 0-12.5 5.607-12.5 12.5v58.166c0 6.893 5.607 12.5 12.5 12.5h51.627c6.893 0 12.5-5.607 12.5-12.5v-58.166c0-6.893-5.608-12.5-12.5-12.5zm-2.5 68.166h-46.627v-53.166h46.627z"/><path d="m396.802 396.758h-51.627c-6.893 0-12.5 5.607-12.5 12.5v90.248c0 6.893 5.607 12.5 12.5 12.5h51.627c6.893 0 12.5-5.607 12.5-12.5v-90.248c0-6.892-5.608-12.5-12.5-12.5zm-2.5 100.248h-46.627v-85.248h46.627z"/><path d="m294.091 349.792h-51.627c-6.893 0-12.5 5.607-12.5 12.5v137.214c0 6.893 5.607 12.5 12.5 12.5h51.627c6.893 0 12.5-5.607 12.5-12.5v-76.309c0-4.143-3.357-7.5-7.5-7.5s-7.5 3.357-7.5 7.5v73.809h-46.627v-132.214h46.627v23.405c0 4.143 3.357 7.5 7.5 7.5s7.5-3.357 7.5-7.5v-25.905c0-6.892-5.608-12.5-12.5-12.5z"/><path d="m191.379 234.876h-51.626c-6.893 0-12.5 5.607-12.5 12.5v252.13c0 6.893 5.607 12.5 12.5 12.5h51.626c6.893 0 12.5-5.607 12.5-12.5v-33.577c0-4.143-3.357-7.5-7.5-7.5s-7.5 3.357-7.5 7.5v31.077h-46.626v-247.13h46.626v181.053c0 4.143 3.357 7.5 7.5 7.5s7.5-3.357 7.5-7.5v-183.553c0-6.892-5.608-12.5-12.5-12.5z"/><path d="m27.01 277.437h51.627c6.893 0 12.5-5.607 12.5-12.5v-101.084c0-4.143-3.357-7.5-7.5-7.5s-7.5 3.357-7.5 7.5v98.584h-46.627v-189.431h46.627v55.847c0 4.143 3.357 7.5 7.5 7.5s7.5-3.357 7.5-7.5v-58.347c0-6.893-5.607-12.5-12.5-12.5h-51.627c-6.893 0-12.5 5.607-12.5 12.5v194.431c0 6.893 5.607 12.5 12.5 12.5z"/><path d="m26.571 400.262h51.627c6.893 0 12.5-5.607 12.5-12.5v-20.79c0-6.893-5.607-12.5-12.5-12.5h-51.627c-6.893 0-12.5 5.607-12.5 12.5v20.79c0 6.893 5.608 12.5 12.5 12.5zm2.5-30.79h46.627v15.79h-46.627z"/><path d="m26.571 338.681h51.627c6.893 0 12.5-5.607 12.5-12.5v-20.79c0-6.893-5.607-12.5-12.5-12.5h-51.627c-6.893 0-12.5 5.607-12.5 12.5v20.79c0 6.893 5.608 12.5 12.5 12.5zm2.5-30.79h46.627v15.79h-46.627z"/><path d="m87.242 416.052h-69.715c-6.327 0-11.993 3.271-15.156 8.752s-3.161 12.023.004 17.503l34.857 60.33c3.164 5.476 8.829 8.745 15.152 8.745 6.324 0 11.989-3.27 15.153-8.745l34.857-60.33c3.165-5.479 3.167-12.022.004-17.503s-8.829-8.752-15.156-8.752zm2.165 18.751-34.857 60.33c-.628 1.086-1.626 1.249-2.165 1.249-.538 0-1.536-.163-2.164-1.249l-34.857-60.33c-.629-1.088-.271-2.034-.001-2.501s.909-1.25 2.165-1.25h69.715c1.256 0 1.896.783 2.165 1.251.269.467.627 1.412-.001 2.5z"/><path d="m461.618 119.343c13.787 0 25.003-11.215 25.003-25s-11.216-25-25.003-25-25.003 11.215-25.003 25 11.216 25 25.003 25zm0-35c5.516 0 10.003 4.486 10.003 10s-4.487 10-10.003 10-10.003-4.486-10.003-10 4.488-10 10.003-10z"/><path d="m256.013 260.416c-12.408 0-22.503 10.094-22.503 22.5s10.095 22.5 22.503 22.5 22.503-10.094 22.503-22.5-10.095-22.5-22.503-22.5zm0 30c-4.137 0-7.503-3.364-7.503-7.5s3.366-7.5 7.503-7.5 7.503 3.364 7.503 7.5-3.367 7.5-7.503 7.5z"/><path d="m405.745 302.364v-9.46c10.717-1.365 20.544-5.606 28.69-11.933l8.438 8.458c-6.128 10.671-4.645 24.554 4.462 33.662 9.672 10.056 28.561 11.279 39.494 0 10.888-10.889 10.888-28.606 0-39.495-8.061-8.15-21.949-10.891-33.271-4.694l-8.527-8.547c6.323-8.169 10.56-18.027 11.92-28.777h9.611c3.041 9.346 11.819 16.121 22.152 16.121 12.846 0 23.297-10.467 23.297-23.333s-10.451-23.334-23.297-23.334c-10.12 0-18.748 6.498-21.957 15.546h-9.806c-1.361-10.75-5.598-20.608-11.921-28.777l6.7-6.716c7.428 4.007 19.794 3.124 26.965-4.348 9.073-9.094 9.073-23.892 0-32.987-7.966-8.259-23.692-9.524-32.959.001-7.169 7.186-8.649 17.924-4.489 26.604l-6.814 6.83c-8.146-6.327-17.973-10.568-28.69-11.932v-10.18c8.731-3.096 15.003-11.435 15.003-21.215 0-12.409-10.095-22.505-22.503-22.505-12.409 0-22.504 10.096-22.504 22.505 0 9.78 6.272 18.119 15.004 21.215v10.18c-10.717 1.365-20.544 5.605-28.69 11.933l-8.174-8.194c6.132-10.914 4.577-25.029-4.681-34.31-10.007-10.455-29.379-11.493-40.455 0-11.14 11.166-11.14 29.334 0 40.499 8.419 8.658 23.225 11.166 34.623 4.51l8.091 8.11c-6.323 8.169-10.56 18.027-11.921 28.777h-10.907c-3.176-8.583-11.44-14.718-21.113-14.718-12.409 0-22.504 10.096-22.504 22.506 0 12.409 10.095 22.505 22.504 22.505 9.886 0 18.297-6.412 21.311-15.293h10.709c1.361 10.75 5.598 20.608 11.921 28.777l-7.082 7.098c-7.426-3.816-19.497-2.802-26.584 4.541-9.073 9.094-9.073 23.892 0 32.986 7.963 8.261 23.694 9.526 32.959 0 7.277-7.294 8.703-18.251 4.307-26.997l6.996-7.013c8.146 6.327 17.974 10.568 28.691 11.933v9.46c-9.059 3.126-15.588 11.743-15.588 21.865 0 12.751 10.357 23.124 23.088 23.124s23.087-10.373 23.087-23.124c.001-10.121-6.527-18.738-15.586-21.864zm-51.698-68.285c0-24.438 19.827-44.318 44.198-44.318 24.37 0 44.197 19.881 44.197 44.318s-19.827 44.318-44.197 44.318c-24.371 0-44.198-19.881-44.198-44.318zm122.176 60.123c5.04 5.041 5.04 13.243 0 18.284-4.084 4.017-12.5 5.656-18.279 0-5.04-5.041-5.04-13.243 0-18.284 4.084-4.017 12.5-5.656 18.279 0zm12.493-68.169c4.575 0 8.297 3.738 8.297 8.334 0 4.595-3.722 8.333-8.297 8.333-4.574 0-8.296-3.738-8.296-8.333 0-4.596 3.722-8.334 8.296-8.334zm-32.359-61.687c2.469-2.363 7.545-3.768 11.721-.001 3.245 3.253 3.245 8.545 0 11.798-2.469 2.363-7.545 3.768-11.721 0 0 0 0 0 0-.001-3.245-3.252-3.245-8.544 0-11.796zm-58.112-27.993c4.137 0 7.503 3.366 7.503 7.505s-3.366 7.505-7.503 7.505c-4.138 0-7.504-3.366-7.504-7.505s3.366-7.505 7.504-7.505zm-78.882 38.234c-5.312-5.324-5.312-13.987 0-19.312 4.295-4.234 13.14-5.961 19.217 0 5.312 5.324 5.312 13.987 0 19.312-4.295 4.234-13.14 5.961-19.217 0zm-11.846 67.285c-4.138 0-7.504-3.366-7.504-7.505s3.366-7.506 7.504-7.506c4.137 0 7.503 3.367 7.503 7.506s-3.367 7.505-7.503 7.505zm32.615 62.515c-2.469 2.363-7.545 3.768-11.721 0-3.245-3.253-3.245-8.545 0-11.798 2.469-2.363 7.545-3.769 11.721.001 3.245 3.252 3.245 8.544 0 11.797zm58.113 27.966c-4.46 0-8.088-3.645-8.088-8.124s3.628-8.124 8.088-8.124c4.459 0 8.087 3.645 8.087 8.124s-3.628 8.124-8.087 8.124z"/><path d="m336.513 53.506h6.655c.803 3.441 2.159 6.714 4.024 9.714l-4.706 4.706c-2.929 2.93-2.929 7.678 0 10.607 1.465 1.464 3.385 2.196 5.304 2.196s3.839-.732 5.304-2.196l4.706-4.706c3.001 1.865 6.274 3.22 9.714 4.024v6.655c0 4.143 3.357 7.5 7.5 7.5s7.5-3.357 7.5-7.5v-6.655c3.441-.803 6.714-2.159 9.714-4.024l4.706 4.706c1.465 1.464 3.385 2.196 5.304 2.196s3.839-.732 5.304-2.196c2.929-2.93 2.929-7.678 0-10.607l-4.706-4.706c1.865-3.001 3.22-6.274 4.024-9.714h6.655c4.143 0 7.5-3.357 7.5-7.5s-3.357-7.5-7.5-7.5h-6.655c-.803-3.441-2.159-6.714-4.024-9.714l4.706-4.706c2.929-2.93 2.929-7.678 0-10.607-2.93-2.928-7.678-2.928-10.607 0l-4.706 4.706c-3.001-1.865-6.274-3.22-9.714-4.024v-6.655c0-4.143-3.357-7.5-7.5-7.5s-7.5 3.357-7.5 7.5v6.655c-3.441.803-6.714 2.159-9.714 4.024l-4.706-4.706c-2.93-2.928-7.678-2.928-10.607 0-2.929 2.93-2.929 7.678 0 10.607l4.706 4.706c-1.865 3.001-3.22 6.274-4.024 9.714h-6.655c-4.143 0-7.5 3.357-7.5 7.5s3.355 7.5 7.498 7.5zm38.5 10.213c-4.731 0-9.18-1.842-12.525-5.188-3.346-3.345-5.188-7.793-5.188-12.524s1.842-9.18 5.188-12.524c.001 0 .001 0 .001-.001 3.345-3.346 7.793-5.188 12.524-5.188s9.18 1.842 12.525 5.188c3.346 3.345 5.188 7.793 5.188 12.524s-1.842 9.18-5.188 12.525c-3.346 3.346-7.794 5.188-12.525 5.188z"/><path d="m243.389 207.329c3.518-2.187 4.598-6.811 2.411-10.329-2.166-3.486-6.724-4.572-10.229-2.467l-12.189-16.658c3.807-3.146 8.004-9.014 9.808-15.083l13.792 9.619c-1.744 3.337-.744 7.524 2.451 9.681 1.287.869 2.746 1.285 4.19 1.285 2.408 0 4.773-1.158 6.223-3.304l7.309-10.823c2.317-3.433 1.414-8.095-2.019-10.413-3.125-2.111-7.262-1.544-9.729 1.163l-20.787-14.498c.34-5.292 1.219-10.485 2.615-15.514l20.856 7.991c-.819 3.583 1.091 7.314 4.622 8.667.883.338 1.79.498 2.682.498 3.017 0 5.861-1.834 7.006-4.818l4.608-12.027c1.481-3.868-.452-8.205-4.32-9.688-3.533-1.352-7.446.148-9.23 3.36l-20.795-7.968c2.633-5.187 5.885-10.088 9.704-14.627l24.242 3.855c-.106 3.664 2.482 6.947 6.2 7.597.437.076.87.112 1.298.112 3.576 0 6.743-2.567 7.38-6.212l2.245-12.865c.712-4.08-2.019-7.965-6.1-8.678-3.798-.663-7.415 1.654-8.478 5.262l-17.104-2.72c1.513-3.995 2.889-10.133 2-16.118l20.655-4.722c1.021 3.171 3.957 5.205 7.131 5.205.734 0 1.482-.109 2.222-.338 3.956-1.226 6.17-5.427 4.944-9.384l-4.048-13.065c-1.226-3.956-5.423-6.169-9.384-4.944-3.541 1.097-5.677 4.578-5.21 8.133l-21.846 4.994c-6.105-9.437-20.584-15.529-31.961-13.148l-10.385-19.341c2.886-2.009 4.044-5.841 2.569-9.179-1.673-3.789-6.1-5.506-9.891-3.83l-12.162 5.371c-3.789 1.673-5.504 6.102-3.83 9.891 1.238 2.804 3.984 4.472 6.864 4.472.917 0 1.847-.179 2.747-.535l10.294 19.172c-3.747 2.845-9.105 9.15-13.207 14.341l-16.705-13.001c1.943-3.146 1.315-7.318-1.624-9.728-3.201-2.627-7.929-2.161-10.555 1.043l-8.332 10.159c-2.627 3.202-2.16 7.928 1.043 10.555 1.395 1.145 3.078 1.701 4.752 1.701 1.899 0 3.785-.719 5.221-2.112l17.641 13.73c-3.207 5.199-6.06 10.582-8.541 16.123l-21.196-8.121c.497-3.397-1.395-6.804-4.734-8.084-3.87-1.481-8.205.454-9.688 4.32l-4.608 12.027c-1.481 3.868.452 8.205 4.32 9.688.883.338 1.79.498 2.682.498 2.864 0 5.555-1.667 6.801-4.388l21.044 8.063c-2.083 6.451-3.696 13.064-4.819 19.799l-21.966-2.323c-.079-3.803-3.028-7.002-6.9-7.313-4.156-.317-7.744 2.751-8.075 6.878l-1.048 13.097c-.33 4.13 2.749 7.744 6.878 8.075 2.848.23 6.566-1.65 7.898-5.786l21.547 2.278c-.095 5.283-.771 10.238.377 17.655l-20.818 7.51c-1.845-3.445-6.064-4.923-9.682-3.296-3.776 1.701-5.459 6.142-3.759 9.919l5.46 12.123c1.251 2.777 3.982 4.422 6.843 4.422 1.03 0 2.076-.213 3.076-.663 3.396-1.53 5.09-5.274 4.162-8.76l20.963-7.562c7.559 8.997 18.881 14.448 32.597 11.502l13.048 17.831c-2.701 2.377-3.377 6.421-1.415 9.579 1.421 2.286 3.87 3.542 6.377 3.542 1.352 0 2.72-.365 3.952-1.131zm-40.41-36.787c-8.015.669-17.57-7.272-17.586-16.544-.99-33.627 11.246-65.562 34.454-89.92 5.691-5.797 16.529-7.578 24.138-.557 5.778 5.373 7.722 16.583.729 23.899-16.988 17.832-25.945 41.21-25.223 65.829-.311 8.246-5.224 16.587-16.512 17.293z"/></g></g></svg>