<svg id="Capa_1" enable-background="new 0 0 512 512" height="512" viewBox="0 0 512 512" width="512" xmlns="http://www.w3.org/2000/svg"><g><g><g><path d="m405.1 82.05v8.284l16.566 7.082 16.567-7.082v-8.284c0-41.173-33.377-74.55-74.55-74.55h-49.7c-32.023 0-57.983 25.96-57.983 57.983v33.133l46.188 15.783 36.647-11.281 8.281-21.069c0-13.724 11.126-24.85 24.85-24.85h8.283c13.725.001 24.851 11.127 24.851 24.851z" fill="#924af5"/><g><g><g><path d="m357.25 57.2h-8.283c-13.724 0-24.85 11.126-24.85 24.85l-8.281 21.069-24.547 7.556 10.9 3.725 36.647-11.281 8.281-21.069c0-11.162 7.36-20.605 17.492-23.742-2.326-.72-4.797-1.108-7.359-1.108z" fill="#7536f9"/></g><g><path d="m415.233 82.05v12.616l6.433 2.75 16.567-7.082v-8.284c0-41.173-33.377-74.55-74.55-74.55h-49.7-.001 26.701c41.173 0 74.55 33.377 74.55 74.55z" fill="#7536f9"/></g></g></g><path d="m405.1 90.334h33.133v39.465h-33.133z" fill="#f6df59"/><path d="m415.233 90.334h23v39.465h-23z" fill="#edbf50"/><circle cx="421.666" cy="148.317" fill="#e59f4f" r="24.85"/><path d="m421.666 123.467c-4.151 0-8.061 1.023-11.5 2.823 7.933 4.15 13.35 12.454 13.35 22.027s-5.417 17.877-13.35 22.027c3.439 1.799 7.349 2.823 11.5 2.823 13.724 0 24.85-11.126 24.85-24.85s-11.126-24.85-24.85-24.85z" fill="#e27f4d"/></g><g><path d="m106.9 82.05v8.284l-16.566 7.082-16.567-7.082v-8.284c0-41.173 33.377-74.55 74.55-74.55h49.7c32.023 0 57.983 25.96 57.983 57.983v33.133l-46.188 15.784-36.647-11.281-8.281-21.069c0-13.724-11.126-24.85-24.85-24.85h-8.283c-13.725 0-24.851 11.126-24.851 24.85z" fill="#f6df59"/><path d="m73.767 90.334h33.133v39.465h-33.133z" fill="#924af5"/><circle cx="90.334" cy="148.317" fill="#e59f4f" r="24.85"/><path d="m90.334 123.467c-4.151 0-8.061 1.023-11.5 2.823 7.933 4.15 13.35 12.454 13.35 22.027s-5.417 17.877-13.35 22.027c3.439 1.799 7.349 2.823 11.5 2.823 13.724 0 24.85-11.126 24.85-24.85s-11.126-24.85-24.85-24.85z" fill="#e27f4d"/></g><path d="m156.6 222.865c-9.15 0-16.567-7.417-16.567-16.567v-33.134c0-9.149 7.417-16.567 16.567-16.567h198.8c9.15 0 16.567 7.417 16.567 16.567v33.134c0 9.149-7.417 16.567-16.567 16.567z" fill="#f2d2a1"/><path d="m355.4 156.598h-16.567-6.433c9.15 0 16.567 7.417 16.567 16.567v33.134c0 9.149-7.417 16.567-16.567 16.567h6.433 16.567c9.15 0 16.567-7.417 16.567-16.567v-33.134c0-9.15-7.417-16.567-16.567-16.567z" fill="#eaaa85"/><path d="m387.988 330.82c20.107 11.377 33.678 32.959 33.678 57.711l.001 99.402c0 9.15-7.417 16.567-16.567 16.567h-298.2c-9.15 0-16.567-7.417-16.567-16.567l.001-99.402c0-24.752 13.571-46.334 33.679-57.711z" fill="#924af5"/><path d="m421.666 388.531c0-24.752-13.571-46.333-33.678-57.711h-263.975 240.975c20.107 11.377 33.678 32.959 33.678 57.711l.001 99.402c0 9.15-7.417 16.567-16.567 16.567h23c9.15 0 16.567-7.417 16.567-16.567z" fill="#7536f9"/><path d="m127.746 322.268c-2.37 0-4.293 1.987-4.139 4.352 1.023 15.785 7.574 30.062 17.735 40.919.95 1.015 1.313 2.459.953 3.801-1.471 5.483-2.26 11.245-2.26 17.193 0 36.599 29.669 66.267 66.268 66.267 1.306 0 2.6-.047 3.886-.127 1.098-.068 2.17.291 3.009 1.001 11.548 9.784 26.483 15.692 42.804 15.692s31.256-5.908 42.804-15.692c.839-.711 1.911-1.07 3.009-1.001 1.285.08 2.58.127 3.885.127 36.598 0 66.267-29.669 66.267-66.267 0-5.948-.789-11.71-2.26-17.193-.36-1.342.003-2.787.953-3.801 10.161-10.857 16.712-25.134 17.735-40.919.153-2.365-1.77-4.352-4.139-4.352z" fill="#f6df59"/><g><g><g><path d="m370.659 367.539c10.161-10.857 16.712-25.134 17.735-40.919.153-2.365-1.77-4.352-4.139-4.352h-22.999c2.369.001 4.291 1.988 4.138 4.352-1.023 15.784-7.574 30.062-17.735 40.919-.95 1.015-1.313 2.459-.953 3.801 1.471 5.483 2.26 11.246 2.26 17.193 0 36.598-29.669 66.267-66.267 66.267-1.306 0-2.6-.047-3.885-.127-1.097-.068-2.17.291-3.009 1.001-8.772 7.432-19.5 12.619-31.304 14.688 3.736.655 7.576 1.004 11.5 1.004 16.321 0 31.256-5.908 42.804-15.692.839-.711 1.911-1.07 3.009-1.001 1.285.08 2.58.127 3.885.127 36.598 0 66.267-29.669 66.267-66.267 0-5.948-.789-11.71-2.26-17.193-.36-1.342.003-2.786.953-3.801z" fill="#edbf50"/></g><g><path d="m293.616 322.268h-87.317-23 99.403z" fill="#edbf50"/></g></g></g><path d="m206.301 261.733.001 60.533c0 27.448 22.251 49.699 49.7 49.699s49.7-22.251 49.7-49.7v-60.526z" fill="#f2d2a1"/><path d="m282.701 261.739v60.526c0 23.488-16.299 43.157-38.2 48.348 3.693.875 7.54 1.352 11.5 1.352 27.448 0 49.7-22.251 49.7-49.7v-60.526z" fill="#eaaa85"/><path d="m173.169 140.033.001 82.834c0 45.747 37.085 82.832 82.832 82.832s82.832-37.085 82.832-82.832v-82.834z" fill="#f3ffff"/><path d="m315.834 140.033v82.834c0 41.842-31.031 76.419-71.332 82.02 3.761.523 7.596.813 11.501.813 45.747 0 82.832-37.085 82.832-82.832l.001-82.834h-23.002z" fill="#dff9f9"/><g><path d="m347.117 123.467 5.619-28.095c1.216-6.081-4.435-11.293-10.398-9.589l-40.81 11.66c-2.579.737-5.355.179-7.45-1.496l-32.903-26.323c-3.025-2.42-7.324-2.42-10.349 0l-32.905 26.323c-2.095 1.676-4.871 2.233-7.45 1.496l-40.81-11.66c-5.963-1.704-11.614 3.508-10.398 9.589l5.619 28.095 91.118 16.566z" fill="#e59f4f"/><g fill="#e27f4d"><path d="m271.078 102.48c2.095 1.676 4.871 2.233 7.45 1.497l22.427-6.408c-2.412.507-4.936-.071-6.877-1.623l-32.903-26.323c-3.025-2.42-7.324-2.42-10.349 0l-10.41 8.328z"/><path d="m342.338 85.782-22.476 6.422c5.764-1.264 11.055 3.8 9.874 9.702l-5.131 25.654 22.512-4.093 5.619-28.095c1.217-6.082-4.435-11.294-10.398-9.59z"/></g><path d="m339.4 156.6h-166.8c-8.837 0-16-7.163-16-16v-9.133c0-4.418 3.582-8 8-8h182.8c4.418 0 8 3.582 8 8v9.133c0 8.837-7.163 16-16 16z" fill="#f6df59"/><path d="m347.4 123.467h-23c4.418 0 8 3.582 8 8v9.133c0 8.837-7.164 16-16 16h23c8.836 0 16-7.163 16-16v-9.133c0-4.419-3.582-8-8-8z" fill="#edbf50"/></g></g><g><path d="m222.868 182.231c-4.142 0-7.5 3.358-7.5 7.5v8.283c0 4.142 3.358 7.5 7.5 7.5s7.5-3.358 7.5-7.5v-8.283c0-4.142-3.358-7.5-7.5-7.5z"/><path d="m289.135 182.231c-4.142 0-7.5 3.358-7.5 7.5v8.283c0 4.142 3.358 7.5 7.5 7.5s7.5-3.358 7.5-7.5v-8.283c0-4.142-3.358-7.5-7.5-7.5z"/><path d="m274.107 224.662c-3.584-2.078-8.174-.857-10.25 2.727-1.625 2.804-4.635 4.545-7.855 4.545-3.219 0-6.229-1.742-7.855-4.545-2.077-3.583-6.666-4.803-10.25-2.727-3.583 2.077-4.804 6.667-2.727 10.25 4.299 7.415 12.281 12.022 20.831 12.022s16.533-4.607 20.831-12.022c2.079-3.584.858-8.173-2.725-10.25z"/><path d="m253.929 106.117h4.142c4.142 0 7.5-3.358 7.5-7.5s-3.358-7.5-7.5-7.5h-4.142c-4.142 0-7.5 3.358-7.5 7.5s3.358 7.5 7.5 7.5z"/><path d="m397.6 126.727c-5.146 5.731-8.284 13.299-8.284 21.589 0 17.838 14.512 32.35 32.35 32.35s32.35-14.512 32.35-32.35c0-8.29-3.137-15.858-8.283-21.589v-44.677c0-45.243-36.808-82.05-82.05-82.05h-49.7c-25.147 0-47.016 14.257-57.983 35.104-10.967-20.847-32.836-35.104-57.983-35.104h-8.919c-4.142 0-7.5 3.358-7.5 7.5s3.358 7.5 7.5 7.5h8.919c26.753 0 48.701 20.922 50.37 47.261-.778.431-1.529.932-2.246 1.505l-32.904 26.322c-.198.158-.463.211-.705.142l-40.32-11.52c-1.677-16.274-15.468-29.01-32.178-29.01h-8.283c-17.838 0-32.35 14.512-32.35 32.35v.783h-18.134v-.783c0-36.971 30.079-67.05 67.05-67.05h10.781c4.142 0 7.5-3.358 7.5-7.5s-3.358-7.5-7.5-7.5h-10.781c-45.242 0-82.05 36.808-82.05 82.05v44.678c-5.146 5.731-8.283 13.299-8.283 21.589 0 17.838 14.512 32.35 32.35 32.35s32.35-14.512 32.35-32.35c0-8.29-3.138-15.859-8.284-21.589v-44.678c0-9.567 7.783-17.35 17.35-17.35h8.283c9.402 0 17.064 7.522 17.325 16.862-.228.188-.453.379-.672.581-4.08 3.762-5.866 9.257-4.778 14.699l4.32 21.6c-4.281 2.761-7.129 7.562-7.129 13.025v9.133c0 3.252.665 6.351 1.864 9.171-10.559 2.544-18.43 12.064-18.43 23.393v33.134c0 13.27 10.796 24.067 24.066 24.067h9.383c2.07 25.072 14.42 47.273 32.818 62.364v22.039h-71.055c-3.214 0-6.318 1.345-8.516 3.691-2.123 2.265-3.243 5.314-3.111 8.4-20.648 13.579-33.285 36.778-33.285 61.673l-.001 99.402c0 6.429 2.503 12.472 7.049 17.018 4.547 4.545 10.591 7.048 17.019 7.048h16.2c4.142 0 7.5-3.358 7.5-7.5s-3.358-7.5-7.5-7.5h-16.2c-2.422 0-4.699-.943-6.411-2.656-1.712-1.712-2.655-3.989-2.655-6.411l.001-99.402c0-17.601 7.936-34.134 21.22-45.197 3.067 10.266 8.343 19.832 15.525 27.918-1.357 5.645-2.044 11.449-2.044 17.281 0 40.676 33.092 73.768 73.768 73.768.994 0 2-.023 3.047-.071 13.14 10.738 29.653 16.637 46.652 16.637 16.998 0 33.511-5.898 46.652-16.637 1.046.047 2.052.071 3.046.071 40.676 0 73.768-33.092 73.768-73.768 0-5.832-.687-11.636-2.044-17.281 7.182-8.087 12.458-17.652 15.525-27.918 13.284 11.063 21.219 27.596 21.219 45.196l.001 99.402c0 5-4.067 9.067-9.067 9.067h-252c-4.142 0-7.5 3.358-7.5 7.5s3.358 7.5 7.5 7.5h252c13.271 0 24.067-10.796 24.067-24.067l-.001-99.402c0-24.895-12.637-48.094-33.285-61.672.133-3.085-.987-6.135-3.111-8.4-2.198-2.346-5.302-3.691-8.516-3.691h-71.054v-22.037c18.399-15.091 30.75-37.293 32.82-62.366h9.379c13.271 0 24.067-10.796 24.067-24.067v-33.134c0-11.329-7.871-20.849-18.431-23.393 1.199-2.819 1.864-5.919 1.864-9.171v-9.133c0-5.463-2.848-10.264-7.129-13.025l4.32-21.599c1.088-5.442-.698-10.937-4.777-14.699-.219-.202-.445-.394-.673-.582.262-9.34 7.923-16.862 17.325-16.862h8.283c9.567 0 17.35 7.783 17.35 17.35v44.678zm-298.2-28.894v19.436c-2.879-.842-5.919-1.302-9.066-1.302-3.148 0-6.188.46-9.067 1.302v-19.436zm-9.066 67.834c-9.567 0-17.35-7.783-17.35-17.35 0-9.566 7.783-17.35 17.35-17.35s17.35 7.783 17.35 17.35c0 9.566-7.783 17.35-17.35 17.35zm322.266-67.834h18.133v19.436c-2.879-.842-5.919-1.302-9.067-1.302-3.147 0-6.188.46-9.066 1.302zm9.066 67.834c-9.567 0-17.35-7.783-17.35-17.35 0-9.566 7.783-17.35 17.35-17.35s17.35 7.783 17.35 17.35c0 9.566-7.783 17.35-17.35 17.35zm-199.059-63.865 32.904-26.323c.289-.231.691-.231.98 0l32.903 26.322c3.983 3.187 9.291 4.253 14.196 2.851l40.811-11.66c.126-.037.422-.121.746.177.323.298.263.6.237.729l-4.413 22.066h-169.94l-4.413-22.066c-.026-.129-.087-.432.237-.73.322-.298.619-.213.746-.177l40.81 11.66c4.905 1.404 10.213.338 14.196-2.849zm124.518 29.166c.011 0 .022-.001.033-.001h.241c.276 0 .5.224.5.5v9.133c0 4.671-3.787 8.471-8.452 8.498h-166.895c-4.665-.026-8.452-3.827-8.452-8.498v-9.133c0-.276.224-.5.5-.5h.216.056 182.224c.01 0 .02.001.029.001zm-199.591 75.33v-33.134c0-4.999 4.067-9.066 9.066-9.066h9.069l.001 51.267h-9.07c-4.999 0-9.066-4.068-9.066-9.067zm165.159 123.47h18.265c-3.778 38.029-35.951 67.831-74.958 67.831s-71.18-29.802-74.958-67.831h18.267c3.687 28.005 27.696 49.697 56.692 49.697s53.005-21.692 56.692-49.697zm52.49 32.646c-2.702 2.887-3.745 7.051-2.721 10.869 1.33 4.959 2.004 10.089 2.004 15.25 0 32.405-26.363 58.768-58.768 58.768-1.086 0-2.205-.037-3.419-.112-3.044-.194-5.997.793-8.323 2.765-10.591 8.973-24.07 13.914-37.956 13.914s-27.365-4.941-37.957-13.915c-2.327-1.971-5.282-2.958-8.322-2.764-1.215.076-2.333.112-3.42.112-32.405 0-58.768-26.363-58.768-58.768 0-5.161.674-10.291 2.004-15.25 1.023-3.817-.019-7.982-2.721-10.869-8.432-9.009-13.816-20.487-15.376-32.647h34.539c3.826 46.313 42.736 82.831 90.019 82.831s86.193-36.518 90.019-82.831h34.54c-1.559 12.16-6.943 23.638-15.374 32.647zm-66.982-40.149c0 23.269-18.931 42.199-42.199 42.199-23.269 0-42.2-18.931-42.2-42.199 0-.007-.001-.013-.001-.019v-19.531c12.603 6.688 26.966 10.485 42.201 10.485 15.234 0 29.596-3.796 42.199-10.484zm-42.199-24.065c-41.538 0-75.332-33.794-75.332-75.333l-.001-58.768h150.666v58.745c0 .007-.001.013-.001.019 0 .005.001.009.001.014-.007 41.535-33.798 75.323-75.333 75.323zm108.465-125.036v33.134c0 4.999-4.067 9.067-9.067 9.067h-9.066v-51.267h9.065c5.001 0 9.068 4.067 9.068 9.066zm15.783-123.464h-8.283c-16.711 0-30.502 12.736-32.178 29.011l-40.319 11.52c-.244.069-.507.017-.705-.142l-32.903-26.322c-.717-.574-1.469-1.075-2.247-1.507 1.668-26.339 23.615-47.26 50.368-47.26h49.7c36.971 0 67.05 30.079 67.05 67.05v.783h-18.133v-.783c0-17.838-14.513-32.35-32.35-32.35z"/></g></g></svg>