<svg id="Capa_1" enable-background="new 0 0 511.809 511.809" height="512" viewBox="0 0 511.809 511.809" width="512" xmlns="http://www.w3.org/2000/svg"><g><g><path d="m454.779 84.161 12.527-10.527 31.135-31.135c8.034-8.034 8.034-21.059 0-29.092-.695-.695-1.435-1.321-2.199-1.896-8.059-6.068-19.555-3.443-26.893 3.896l-41.599 41.599z" fill="#f9f8f9"/><path d="m454.279 53.478 41.964-41.967c-8.059-6.065-19.556-5.442-26.893 1.896l-43.599 43.599 13.066 17.132 15.962 12.024 12.527-12.527-13.036-13.093c-1.944-1.955-1.941-5.115.009-7.064z" fill="#e8e8e8"/><path d="m146.755 446.371 6.49.237 163.047-163.048c25.913-25.913 46.581-56.583 60.872-90.328 14.291-33.745 34.959-64.415 60.872-90.328l16.744-16.744-16.057-16.128-12.971-11.029-16.808 16.808c-46.529 47.664-89.328 60.872-89.328 60.872-33.745 14.291-65.415 36.959-91.328 62.872l-163.548 164.092z" fill="#7dc3ee"/><path d="m81.769 375.129c-1.948-1.948-1.953-5.106-.011-7.06l160.53-161.513c25.913-25.913 56.583-46.581 90.328-60.872 0 0 43.415-14.378 102.328-71.872l3.779-3.779-12.971-13.029-16.807 16.807c-25.913 25.913-56.583 46.581-90.328 60.872-33.745 14.291-64.415 34.959-90.328 60.872l-176.047 176.049 39.831 45.831 48.171 42.173 13-13z" fill="#64acdc"/><path d="m42.051 385.794-9.023 9.023-4.333 3.333c-38.96 43.399-1 86.004-1 86.004 5.585 5.585 9.966 11.886 16.779 14.904 22.834 10.115 50.508 5.813 69.225-12.904l5.333-5.333 6.385-9.385z" fill="#f9f8f9"/><path d="m33.027 392.818 10.5 12.5 75.504 75.504 21.213-21.214-75.504-75.504-12.5-10.5z" fill="#e8e8e8"/><path d="m41.694 495.155c-24.302-24.302-24.302-63.702 0-88.004l1.833-1.833 7.933-9.933-10.409-10.591-10.023 8.023-5.333 5.333c-24.302 24.302-24.302 63.702 0 88.004 6.418 6.418 13.892 11.142 21.859 14.17-2.032-1.579-3.994-3.303-5.86-5.169z" fill="#e8e8e8"/><path d="m47.027 401.818 10.024-10.024 7.689-7.69-12.498-12.5-21.215 21.214 12.5 12.5z" fill="#dcdbdd"/><path d="m156.967 312.328 94.213-93.191c8.378-8.378 26.111-19.655 36.74-16.575 4.914 1.424 9.549 4.071 13.422 7.945 12.251 12.251 12.251 32.114 0 44.366l-21.941 21.941-34.592 30.592-30.866 34.866-10.561 10.56-5.054 2.816c-4.017 4.017-8.239 4.187-12.255.17l-29.362-29.702c-4.016-4.017-3.76-9.771.256-13.788z" fill="#f9f8f9"/><path d="m174.053 316.43 7.025-7.025-.232-2.688 61.91-61.989 3.78-.78 41.385-41.386c-10.629-3.08-22.566-.433-30.943 7.944l-21.941 21.942.227 3.773-62.023 61.917-3.661-.232-14.787 14.787c-4.017 4.017-4.017 10.529 0 14.546l29.82 29.82c4.017 4.017 10.529 4.017 14.546 0l4.227-4.227-29.33-29.33c-1.956-1.953-1.956-5.119-.003-7.072z" fill="#e8e8e8"/><path d="m147.031 364.09c-1.799-1.799-3.848-3.195-6.036-4.189-7.581-3.442-14.822-2.046-21.056 4.189-8.034 8.034-8.92 19.736-.887 27.77 6.24 6.24 14.379 8.955 21.963 5.501 2.18-.993 4.222-2.386 6.016-4.179 8.034-8.033 8.034-21.058 0-29.092z" fill="#f9f8f9"/><path d="m134.939 393.182c-8.034-8.034-8.034-21.059 0-29.092 1.8-1.8 3.868-3.195 6.056-4.189-7.629-3.611-16.822-2.045-23.056 4.189-8.034 8.034-8.034 21.059 0 29.092 6.234 6.234 15.496 7.62 23.077 4.179-2.189-.993-4.277-2.379-6.077-4.179z" fill="#e8e8e8"/><path d="m279.401 276.813-32.866-32.865-11.5-9.5-63.457 63.457 9.5 11.5 32.865 32.866z" fill="#b9c3cd"/><path d="m161.771 262.795h92.571v16.263h-92.571z" fill="#a2abb8" transform="matrix(.707 -.707 .707 .707 -130.636 226.471)"/></g><g><path d="m503.745 8.103c-9.821-10.237-28.828-11.254-39.698 0l-60.407 60.407c-25.349 25.349-54.939 45.289-87.949 59.269-34.795 14.735-65.986 35.755-92.706 62.475l-8.063 8.063c-2.929 2.929-2.929 7.678 0 10.606 2.929 2.929 7.678 2.929 10.606 0l8.063-8.063c25.349-25.349 54.939-45.29 87.949-59.269 34.796-14.735 65.986-35.755 92.706-62.475l11.465-11.465 18.486 18.486-11.465 11.465c-26.72 26.72-47.739 57.91-62.475 92.706-13.979 33.011-33.92 62.601-59.269 87.949l-99.776 99.776c-2.929 2.929-2.929 7.678 0 10.606 1.464 1.464 3.384 2.197 5.303 2.197s3.839-.732 5.303-2.197l99.776-99.776c26.72-26.719 47.74-57.91 62.475-92.706 13.979-33.01 33.92-62.601 59.269-87.949l60.406-60.407c10.239-9.82 11.256-28.828.001-39.698zm-10.606 29.092-38.335 38.335-18.486-18.486 38.335-38.335c4.13-4.062 12.642-5.719 18.485 0 4.063 4.131 5.72 12.643.001 18.486z"/><path d="m186.464 402.783-46.22 46.219-24.921-24.921c-2.929-2.929-7.678-2.929-10.606 0-2.929 2.929-2.929 7.678 0 10.606l24.92 24.92-10.607 10.607-77.398-77.398 10.607-10.607 27.729 27.729c1.464 1.464 3.384 2.197 5.303 2.197s3.839-.732 5.303-2.197c2.929-2.929 2.929-7.678 0-10.606l-27.729-27.729 137.933-137.933c2.929-2.929 2.929-7.678 0-10.606-2.929-2.929-7.678-2.929-10.606 0l-169.782 169.784c-27.187 27.187-27.187 71.423 0 98.61 26.697 26.749 71.225 27.412 98.61 0l78.07-78.069c2.929-2.929 2.929-7.678 0-10.606-2.928-2.93-7.677-2.93-10.606 0zm-155.467 78.069c-21.338-21.339-21.338-56.059 0-77.397l.03-.03 77.397 77.397-.03.03c-21.339 21.338-56.058 21.338-77.397 0z"/><path d="m238.891 317.324c-2.929-2.929-7.678-2.929-10.606 0l-14.341 14.341-33.759-33.759 54.851-54.851 33.759 33.759-15.762 15.762c-2.929 2.929-2.929 7.678 0 10.606 2.929 2.929 7.678 2.929 10.606 0l43.006-43.006c15.156-15.156 15.156-39.816 0-54.972-15.155-15.156-39.816-15.156-54.972 0l-102.186 102.186c-6.935 6.935-6.935 18.218 0 25.152l29.82 29.82c3.467 3.467 8.021 5.201 12.576 5.201s9.109-1.734 12.576-5.201l34.432-34.432c2.929-2.929 2.929-7.678 0-10.606zm23.389-101.514c9.308-9.308 24.452-9.308 33.759 0s9.307 24.452 0 33.759l-16.638 16.638-33.759-33.759zm-72.367 135.945-29.82-29.82c-1.086-1.086-1.086-2.854 0-3.939l9.484-9.484 33.759 33.759-9.484 9.484c-1.085 1.086-2.853 1.086-3.939 0z"/><path d="m112.636 398.485c10.225 10.173 28.205 11.382 39.699 0 10.237-9.821 11.254-28.828 0-39.698-10.945-10.945-28.754-10.946-39.699 0-10.238 9.821-11.255 28.828 0 39.698zm10.606-29.092c4.347-4.101 12.423-5.728 18.486 0 4.062 4.129 5.719 12.641 0 18.485-5.097 5.097-13.389 5.097-18.486 0-4.062-4.129-5.719-12.641 0-18.485z"/><path d="m229.732 270.783-21.819 21.819c-2.929 2.929-2.929 7.678 0 10.606 1.464 1.464 3.384 2.197 5.303 2.197s3.839-.732 5.303-2.197l21.819-21.819c2.929-2.929 2.929-7.678 0-10.606-2.928-2.929-7.677-2.929-10.606 0z"/></g></g></svg>