<svg id="Capa_1" enable-background="new 0 0 511.979 511.979" height="512" viewBox="0 0 511.979 511.979" width="512" xmlns="http://www.w3.org/2000/svg"><g><g><g fill="#ffe07d"><path d="m460.393 142.059-10.544-12.544-14.859-14.859c-4.163-4.162-10.911-4.162-15.074 0l-7.537 7.537c-4.163 4.162-4.163 10.911 0 15.074l5.916 5.916 13.066 10.066z"/><path d="m370.669 52.335 11.803 9.803 14.833 14.833c4.162 4.162 4.162 10.911 0 15.074l-7.537 7.537c-4.163 4.162-10.911 4.162-15.074 0l-5.828-5.828-9.387-11.387z"/><g><path d="m317.226 285.061-12.332-10.332-15.215-15.215c-4.207-4.207-4.155-11.043.114-15.186l7.65-7.424c4.18-4.056 10.841-4.006 14.96.112l6.412 6.412 10.731 12.731z"/><path d="m226.9 194.735 10.31 12.31 14.784 14.784c4.118 4.118 10.78 4.168 14.96.112l7.65-7.424c4.27-4.143 4.321-10.979.114-15.186l-6.26-6.26-12.657-10.657z"/><path d="m257.801 329.152-14.28-10.28-6.374-6.374c-4.162-4.163-4.162-10.911 0-15.074l7.537-7.537c4.162-4.163 10.911-4.163 15.074 0l15.011 15.011 9.933 11.933z"/><path d="m182.809 256.16 10.372 12.372 6.281 6.281c4.162 4.163 10.911 4.163 15.074 0l7.537-7.537c4.162-4.163 4.162-10.911 0-15.074l-14.984-14.984-11.96-9.96z"/></g><path d="m142.182 458.974-12.103-10.103-14.652-14.652c-4.162-4.162-4.162-10.911 0-15.074l7.537-7.537c4.162-4.162 10.911-4.162 15.074 0l5.297 5.297 11.414 13.414z"/><path d="m52.413 370.204 10.624 11.624 14.706 14.706c4.162 4.162 10.911 4.162 15.074 0l7.537-7.537c4.162-4.162 4.162-10.911 0-15.074l-5.445-5.445-11.841-10.841z"/></g><g fill="#ffd064"><path d="m142.182 460.974 13.566-31.655-12.414-12.414c-2.465 11.023-6.647 21.681-13.255 31.966z"/><path d="m430.361 155.248 32.032-13.189-12.544-12.544c-10.188 6.765-20.693 11.084-31.553 13.668z"/><path d="m255.801 180.415-30.901 14.32 12.31 12.31c10.092-6.858 20.496-11.28 31.248-13.974z"/><path d="m195.129 225.259-14.32 30.901 12.372 12.372c2.69-10.788 7.092-21.226 13.908-31.313z"/></g><path d="m184.352 363.238c.525 4.999 2.986 9.05 3.333 14.14 2.791 40.943-1.791 84.353-39.849 122.411-2.065 2.065-4.553 3.446-7.186 4.146-5.329 1.415-9.949-1.124-14.129-5.303-6.244-6.244-4.882-16.139 1.362-22.383 34.955-34.955 32.916-71.795 27.745-115.915z" fill="#e27f86"/><path d="m142.225 483.178c34.211-30.893 32.036-88.845 30.832-103.881-.151-1.884 1.454-3.431 3.332-3.216l11.296 1.296s-.904-11.105-1.333-15.14l-16.521-5.09-16.215 1.124c5.161 44.034 6.558 83.798-28.188 118.704-6.204 6.232-6.372 16.759-.098 22.919 4.173 4.097 10.041 5.442 15.324 4.039-4.59-6.255-4.366-15.394 1.571-20.755z" fill="#df646e"/><path d="m150.713 324.823c-4.759-45.243-3.384-91.854 39.445-134.683 27.468-27.468 72.886-43.831 111.066-42.311 8.246.328 16.43 1.028 24.5 1.886 6.839.728 11.434-2.916 18.074-2.088 4.184.522 10.482 5.523 14.572 6.007 17.587 2.082 34.311 3.581 50.281 2.467 24.496-1.708 45.562-6.438 66.892-27.768 5.826-5.826 16.684-9.342 22.962-4.295.45.362.884.751 1.302 1.168 6.244 6.244 6.244 16.367 0 22.611-43.049 43.049-92.144 43.259-137.582 38.422-6.834-.727-9.664 2.75-16.299 1.923-4.173-.52-12.218-5.353-16.297-5.836-44.577-5.278-83.615-6.821-118.86 28.424-30.986 30.986-33.473 65.497-30.037 103.673.45 4.998-1.003 9.067-.401 14.191z" fill="#e27f86"/><path d="m370.669 50.335-13.19 32.032 11.387 11.387c2.575-10.893 6.877-21.427 13.606-31.615z" fill="#ffd064"/><path d="m83.068 356.638-31.655 13.566 11.624 11.624c10.287-6.672 20.899-10.875 31.872-13.349z" fill="#ffd064"/><path d="m317.226 287.061 14.32-30.901-12.731-12.731c-2.688 10.78-7.094 21.21-13.92 31.301z" fill="#ffd064"/><path d="m255.801 331.152 30.901-14.32-11.933-11.933c-10.092 6.858-20.496 11.28-31.248 13.974z" fill="#ffd064"/><path d="m357.369 152.635c-.604-5.129-.158-9.193-.611-14.192-3.462-38.207-1.031-72.652 29.995-103.678 6.244-6.244 6.244-16.367 0-22.611-.154-.154-.311-.305-.47-.452-6.272-5.788-16.051-3.638-22.141 2.452-42.912 42.912-40.472 89.413-37.42 134.562z" fill="#64acdc"/><path d="m331.202 184.589c5.224 44.344 6.672 84.222-28.426 119.319-21.806 21.806-46.629 26.814-71.753 28.285-15.49.906-31.689-.565-48.694-2.578l-15.958-4.43-16.647.516c-7.925-.843-15.962-1.533-24.058-1.868-38.313-1.586-90.466 15.012-113.496 43.293-1.887 2.317-5.171 11.56 1.073 17.804 4.596 4.723 13.958 8.023 20.236 2.975.45-.362.885-.751 1.302-1.169 38.47-38.47 81.459-33.111 131.237-26.906 50.753 6.326 108.279 13.497 157.802-36.026 38.098-38.098 42.571-81.462 39.744-122.422-.351-5.089-2.476-8.643-3.002-13.644z" fill="#64acdc"/><g fill="#df646e"><path d="m497.196 125.207c.418-.418.859-.807 1.309-1.169-6.278-5.047-15.483-4.658-21.309 1.169-21.851 21.851-45.161 29.558-70.344 31.005 32.982 1.606 62.82-3.481 90.344-31.005z"/><path d="m182.33 329.614c-.408-3.44-1.599-15.191-1.599-15.191l-11.387-1.406c-1.404-.173-2.493-1.302-2.621-2.711-1.272-14.004-5.409-85.328 37.776-121.229 31.948-26.56 65.229-39.742 97.154-41.23-38.314-1.586-77.965 4.76-113.496 40.292-42.829 42.829-43.191 92.317-38.432 137.56z"/></g><g fill="#5d9fd1"><path d="m381.143 15.155c1.611-1.415 3.278-2.672 5.141-3.452-6.272-5.785-16.052-5.637-22.141.452-42.912 42.912-43.208 92.246-38.42 137.562l32.646 3.918c-.257-2.475-1.611-15.192-1.611-15.192l-13.264-1.637c-1.348-.166-2.413-1.211-2.603-2.555-1.807-12.801-8.017-76.697 40.252-119.096z"/><g><path d="m230.866 332.198c32.982 1.605 58.723-4.625 87.344-31.005 33.775-31.131 31.799-83.656 30.563-97.901-.164-1.887 1.451-3.445 3.332-3.229l11.459 1.318s-1.001-12.182-1.341-15.141l-32.597-3.907c5.224 44.344 6.68 83.762-28.417 118.859-21.85 21.852-45.16 29.559-70.343 31.006z"/><path d="m32.172 386.736c-6.244-6.244-6.244-16.367 0-22.611 29.377-29.377 61.571-38.804 93.496-40.292-38.313-1.586-77.964 4.761-113.496 40.292-6.244 6.244-6.244 16.367 0 22.611 5.826 5.826 15.031 6.215 21.309 1.169-.45-.362-.891-.751-1.309-1.169z"/></g></g></g><g><path d="m440.452 175.146c-32.249 9.392-65.431 5.256-97.521 1.256-49.577-6.178-96.404-12.016-137.466 29.046-35.074 35.075-36.07 73.238-31.631 115.574-.974-.121-1.95-.243-2.932-.365-4.743-.591-9.516-1.185-14.316-1.741-3.833-40.078-3.168-85.429 36.876-125.473 10.34-10.339 21.671-18.634 33.68-24.654 3.703-1.856 5.2-6.363 3.344-10.065-1.856-3.703-6.362-5.202-10.065-3.344-13.448 6.741-26.086 15.979-37.564 27.457-41.695 41.694-45.395 88.988-41.465 134.509-16.942-1.49-34.213-1.964-51.775.39-32.371 4.338-59.437 17.777-82.747 41.087-9.158 9.158-9.158 24.059 0 33.217 8.446 8.365 23.46 9.617 33.217 0 3.979-3.979 8-7.453 12.073-10.483l20.281 20.281c3.54 3.54 8.19 5.309 12.84 5.309 3.966 0 7.927-1.3 11.205-3.875l12.205 12.205c-5.595 7.12-5.125 17.485 1.434 24.045l20.276 20.276c-3.029 4.074-6.498 8.098-10.478 12.078-9.158 9.158-9.158 24.059 0 33.217 8.446 8.365 23.46 9.617 33.217 0 41.716-41.716 45.397-89.007 41.464-134.512 15.86 1.393 32.023 1.899 48.462.024 4.116-.469 7.071-4.186 6.602-8.301-.47-4.116-4.186-7.073-8.301-6.602-24.982 2.848-50.113-.284-74.419-3.314-49.576-6.179-96.405-12.017-137.467 29.046-3.309 3.31-8.694 3.311-12.004 0-3.31-3.31-3.31-8.695 0-12.004 46.933-46.931 102.525-40 151.572-33.887 49.578 6.18 96.405 12.016 137.466-29.045 35.037-35.037 36.067-73.217 31.631-115.574 4.56.566 10.515 1.319 17.248 2.103 3.834 40.08 3.169 85.432-36.875 125.476-13.619 13.619-28.31 23.294-44.91 29.578-3.874 1.466-5.826 5.795-4.359 9.669 1.135 3 3.987 4.847 7.016 4.847.882 0 1.78-.157 2.653-.488 18.631-7.052 35.054-17.846 50.207-33 41.7-41.699 45.397-89 41.463-134.527 23.981 2.082 49.288 2.182 74.059-5.032 3.977-1.158 6.262-5.321 5.104-9.298-1.161-3.98-5.325-6.265-9.3-5.106zm-357.406 216.085-17.821-17.821c5.655-2.893 11.422-5.079 17.326-6.682l12.499 12.499c1.231 1.231 1.231 3.236 0 4.467l-7.537 7.537c-1.231 1.231-3.236 1.232-4.467 0zm37.684 37.684c-1.232-1.231-1.232-3.236 0-4.467l7.537-7.537c1.231-1.231 3.236-1.232 4.467 0l12.491 12.491c-1.603 5.901-3.776 11.674-6.673 17.335zm58.678-59.901c3.831 40.057 3.191 85.405-36.876 125.472-3.31 3.311-8.695 3.31-12.004 0s-3.31-8.695 0-12.004c35.135-35.135 36.074-73.271 31.632-115.574.974.121 1.95.243 2.931.365 4.742.59 9.515 1.185 14.317 1.741zm-32.534-3.933c1.828 16.443 2.914 31.789 1.546 46.304l-5.08-5.08c-6.56-6.56-16.925-7.03-24.045-1.434l-12.206-12.206c5.596-7.12 5.126-17.485-1.434-24.045l-5.086-5.086c14.467-1.362 29.802-.29 46.305 1.547zm122.54-160.447c.814.813.929 1.764.925 2.257-.004.494-.133 1.442-.959 2.243l-7.649 7.424c-1.232 1.195-3.22 1.18-4.434-.033l-18.06-18.06c5.537-3.011 11.181-5.323 16.954-7.054zm-52.644 57.34-7.536 7.537c-1.231 1.232-3.235 1.232-4.467 0l-13.313-13.313c1.729-5.772 4.038-11.42 7.047-16.962l18.271 18.271c.805.805.925 1.745.925 2.233-.002.489-.122 1.429-.927 2.234zm-27.651 60.874c-1.94-17.471-3.037-33.707-1.247-49.018l6.287 6.287c3.54 3.54 8.19 5.309 12.84 5.309 3.794 0 7.579-1.199 10.77-3.556l12.321 12.321c-5.246 7.102-4.675 17.181 1.753 23.61l6.307 6.307c-15.263 1.783-31.486.693-49.031-1.26zm66.669-2.316-13.337-13.337c-1.232-1.231-1.232-3.236 0-4.467l7.537-7.537c.805-.805 1.745-.925 2.234-.925.488 0 1.428.12 2.233.925l18.287 18.287c-5.538 3.011-11.181 5.323-16.954 7.054zm29.758-15.462-20.485-20.485c-6.69-6.689-17.337-7.05-24.464-1.1l-12.121-12.121c5.951-7.127 5.59-17.774-1.099-24.464l-20.472-20.472c2.714-3.494 5.744-6.952 9.167-10.374 3.42-3.42 6.872-6.467 10.361-9.18l20.258 20.258c3.522 3.522 8.181 5.288 12.842 5.288 3.795 0 7.583-1.189 10.768-3.534l12.318 12.318c-2.272 3.064-3.531 6.744-3.561 10.637-.037 4.902 1.852 9.511 5.318 12.978l20.697 20.697c-4.702 6.077-12.047 13.776-19.527 19.554zm27.93-32.366-18.493-18.493c-.814-.813-.929-1.764-.925-2.258s.133-1.442.958-2.243l7.651-7.423c1.23-1.194 3.219-1.181 4.433.033l13.419 13.419c-1.729 5.774-4.036 11.423-7.043 16.965zm10.622-34.599-6.391-6.391c-6.649-6.649-17.341-7.022-24.457-1.093l-12.124-12.124c2.696-3.219 4.181-7.232 4.214-11.491.037-4.902-1.852-9.51-5.318-12.977l-6.192-6.192c15.263-1.783 31.486-.693 49.031 1.26 1.937 17.466 3.028 33.701 1.237 49.008z"/><path d="m505.11 119.904c-9.158-9.158-24.059-9.157-33.217 0-3.699 3.699-7.435 6.958-11.215 9.833l-20.384-20.385c-3.43-3.43-7.99-5.319-12.84-5.319-4.118 0-8.02 1.374-11.205 3.884l-12.205-12.205c2.51-3.185 3.884-7.087 3.884-11.205 0-4.851-1.889-9.411-5.319-12.84l-20.372-20.372c2.875-3.785 6.12-7.527 9.82-11.228 9.158-9.158 9.158-24.059 0-33.217-8.028-8.308-23.878-9.58-33.217 0-41.659 41.659-45.394 88.967-41.462 134.528-20.134-1.747-41.27-2.105-62.096 2.095-4.061.819-6.688 4.774-5.869 8.835.819 4.06 4.772 6.685 8.835 5.869 28.927-5.835 58.339-2.168 86.785 1.377 49.579 6.18 96.406 12.016 137.467-29.046 3.31-3.309 8.695-3.31 12.004 0 3.31 3.31 3.31 8.695 0 12.004-7.554 7.553-15.65 14.036-24.064 19.267-3.518 2.187-4.597 6.812-2.41 10.329 1.421 2.286 3.87 3.542 6.377 3.542 1.352 0 2.72-.365 3.952-1.131 9.388-5.836 18.389-13.036 26.752-21.399 9.157-9.157 9.157-24.058-.001-33.216zm-77.657-.87c.489 0 1.429.12 2.234.925l18.063 18.063c-5.597 2.954-11.305 5.196-17.145 6.863l-12.923-12.923c-.805-.805-.925-1.745-.925-2.233 0-.489.12-1.429.925-2.233l7.538-7.537c.804-.805 1.744-.925 2.233-.925zm-35.451-36.759c.805.805.925 1.745.925 2.234s-.12 1.428-.926 2.233l-7.536 7.537c-.805.805-1.745.925-2.234.925-.488 0-1.428-.12-2.233-.925l-12.902-12.902c1.666-5.837 3.918-11.544 6.866-17.142zm-59.431 60.659c-3.836-40.122-3.121-85.48 36.876-125.477 3.31-3.31 8.695-3.309 12.004 0 3.31 3.31 3.31 8.695 0 12.004-35.045 35.045-36.068 73.221-31.631 115.574-4.561-.565-10.501-1.316-17.249-2.101zm32.534 3.929c-1.882-16.956-2.976-32.753-1.401-47.665l5.687 5.687c3.54 3.54 8.19 5.31 12.84 5.31 3.967 0 7.927-1.3 11.205-3.876l12.205 12.205c-5.596 7.12-5.126 17.485 1.434 24.045l5.706 5.706c-14.867 1.567-30.65.483-47.676-1.412z"/></g></g></svg>