<svg id="Capa_1" enable-background="new 0 0 512 512" height="512" viewBox="0 0 512 512" width="512" xmlns="http://www.w3.org/2000/svg"><g><g><g><path d="m494.5 415.174h-477c-5.523 0-10-4.477-10-10v-334.478c0-5.523 4.477-10 10-10h477c5.523 0 10 4.477 10 10v334.478c0 5.523-4.477 10-10 10z" fill="#b3dafe"/></g><g><path d="m351.223 337.334h87.678v77.84h-87.678z" fill="#8ac9fe"/></g><g><path d="m256 351.374h23.48v63.8h-23.48z" fill="#8ac9fe"/></g><g><path d="m31.98 405.174v-334.478c0-5.523 4.477-10 10-10h-24.48c-5.523 0-10 4.477-10 10v334.478c0 5.523 4.477 10 10 10h24.48c-5.523 0-10-4.477-10-10z" fill="#8ac9fe"/></g><g><path d="m281.462 40.35-22.087 12.156c-2.102 1.157-4.649 1.157-6.75 0l-22.087-12.156c-7.385-4.065-15.679-6.196-24.109-6.196h-148.693c-5.523 0-10 4.477-10 10v306.205c0 5.523 4.477 10 10 10h148.694c8.43 0 16.723 2.131 24.109 6.196l22.087 12.156c2.102 1.157 4.649 1.157 6.75 0l22.087-12.156c7.385-4.065 15.679-6.196 24.109-6.196h148.694c5.523 0 10-4.477 10-10v-306.205c0-5.523-4.477-10-10-10h-148.696c-8.43 0-16.723 2.131-24.108 6.196z" fill="#f6f1f1"/></g><g><path d="m351.223 34.154h87.678v326.205h-87.678z" fill="#e2dfe2"/></g><g><path d="m259.375 378.711 20.105-11.065v-326.205l-20.105 11.065c-1.051.578-2.213.867-3.375.867v326.205c1.162 0 2.324-.289 3.375-.867z" fill="#e2dfe2"/></g><g><path d="m72.936 350.359v-306.205c0-5.523 4.477-10 10-10h-25.2c-5.523 0-10 4.477-10 10v306.205c0 5.523 4.477 10 10 10h25.2c-5.523 0-10-4.478-10-10z" fill="#e2dfe2"/></g><g><path d="m129.852 131.386h-28.752c-1.657 0-3-1.343-3-3v-28.752c0-1.657 1.343-3 3-3h28.752c1.657 0 3 1.343 3 3v28.752c0 1.657-1.343 3-3 3z" fill="#77d192"/></g><g><path d="m413.9 34.154v440.692c0 2.851-3.603 4.095-5.361 1.85l-11.116-14.188c-1.201-1.533-3.522-1.533-4.723 0l-11.116 14.188c-1.758 2.244-5.361 1.001-5.361-1.85v-440.692z" fill="#e58e82"/></g></g><g><path d="m494.5 53.196h-22.736v-9.042c0-9.649-7.851-17.5-17.5-17.5h-148.694c-9.668 0-19.255 2.464-27.725 7.125l-21.845 12.023-21.845-12.022c-8.47-4.662-18.057-7.126-27.725-7.126h-148.694c-9.649 0-17.5 7.851-17.5 17.5v9.042h-22.736c-9.649 0-17.5 7.851-17.5 17.5v110.98c0 4.142 3.358 7.5 7.5 7.5s7.5-3.358 7.5-7.5v-110.98c0-1.378 1.122-2.5 2.5-2.5h22.736v282.162c0 9.649 7.851 17.5 17.5 17.5h148.694c7.146 0 14.232 1.821 20.492 5.267l21.578 11.876v22.673h-231c-1.378 0-2.5-1.122-2.5-2.5v-190.308c0-4.142-3.358-7.5-7.5-7.5s-7.5 3.358-7.5 7.5v190.308c0 9.649 7.851 17.5 17.5 17.5h351.222v52.172c0 4.477 2.843 8.465 7.075 9.925 4.23 1.461 8.93.074 11.691-3.45l7.573-9.667 7.574 9.667c2.029 2.589 5.103 4.024 8.27 4.024 1.143 0 2.298-.187 3.421-.575 4.231-1.46 7.075-5.449 7.075-9.925v-52.172h73.1c9.649 0 17.5-7.851 17.5-17.5v-334.477c-.001-9.649-7.852-17.5-17.501-17.5zm-209.422-6.276c6.26-3.445 13.346-5.267 20.492-5.267h63.152v311.205h-63.152c-9.668 0-19.255 2.464-27.725 7.125l-14.346 7.895v-309.081zm-50.923 313.064c-8.47-4.662-18.057-7.126-27.725-7.126h-148.694c-1.378 0-2.5-1.122-2.5-2.5v-306.204c0-1.378 1.122-2.5 2.5-2.5h148.694c7.146 0 14.232 1.821 20.492 5.267l21.578 11.876v309.083zm29.345 47.69v-22.673l21.578-11.876c6.26-3.445 13.346-5.267 20.492-5.267h63.152v39.815h-105.222zm233.5-2.5c0 1.378-1.122 2.5-2.5 2.5h-73.1v-39.815h32.864c9.649 0 17.5-7.851 17.5-17.5v-208.13c0-4.142-3.358-7.5-7.5-7.5s-7.5 3.358-7.5 7.5v208.129c0 1.378-1.122 2.5-2.5 2.5h-32.864v-82.464c0-4.142-3.358-7.5-7.5-7.5s-7.5 3.358-7.5 7.5v191.412l-3.074-3.923c-2.004-2.557-5.016-4.023-8.265-4.023s-6.261 1.466-8.265 4.024l-3.074 3.923v-420.153h22.678v193.988c0 4.142 3.358 7.5 7.5 7.5s7.5-3.358 7.5-7.5v-193.988h32.864c1.378 0 2.5 1.122 2.5 2.5v66.856c0 4.142 3.358 7.5 7.5 7.5s7.5-3.358 7.5-7.5v-42.814h22.736c1.378 0 2.5 1.122 2.5 2.5z"/><path d="m203.92 89.134h-43.94c-4.142 0-7.5 3.358-7.5 7.5s3.358 7.5 7.5 7.5h43.94c4.142 0 7.5-3.358 7.5-7.5s-3.358-7.5-7.5-7.5z"/><path d="m203.92 123.886h-43.94c-4.142 0-7.5 3.358-7.5 7.5s3.358 7.5 7.5 7.5h43.94c4.142 0 7.5-3.358 7.5-7.5s-3.358-7.5-7.5-7.5z"/><path d="m203.92 158.638h-105.82c-4.142 0-7.5 3.358-7.5 7.5s3.358 7.5 7.5 7.5h105.82c4.142 0 7.5-3.358 7.5-7.5s-3.358-7.5-7.5-7.5z"/><path d="m203.92 193.39h-105.82c-4.142 0-7.5 3.358-7.5 7.5s3.358 7.5 7.5 7.5h105.82c4.142 0 7.5-3.358 7.5-7.5s-3.358-7.5-7.5-7.5z"/><path d="m203.92 228.142h-105.82c-4.142 0-7.5 3.358-7.5 7.5s3.358 7.5 7.5 7.5h105.82c4.142 0 7.5-3.358 7.5-7.5s-3.358-7.5-7.5-7.5z"/><path d="m203.92 262.894h-105.82c-4.142 0-7.5 3.358-7.5 7.5s3.358 7.5 7.5 7.5h105.82c4.142 0 7.5-3.358 7.5-7.5s-3.358-7.5-7.5-7.5z"/><path d="m203.92 297.646h-105.82c-4.142 0-7.5 3.358-7.5 7.5s3.358 7.5 7.5 7.5h105.82c4.142 0 7.5-3.358 7.5-7.5s-3.358-7.5-7.5-7.5z"/><path d="m308.08 104.134h34.76c4.142 0 7.5-3.358 7.5-7.5s-3.358-7.5-7.5-7.5h-34.76c-4.142 0-7.5 3.358-7.5 7.5s3.358 7.5 7.5 7.5z"/><path d="m308.08 138.886h34.76c4.142 0 7.5-3.358 7.5-7.5s-3.358-7.5-7.5-7.5h-34.76c-4.142 0-7.5 3.358-7.5 7.5s3.358 7.5 7.5 7.5z"/><path d="m308.08 173.638h34.76c4.142 0 7.5-3.358 7.5-7.5s-3.358-7.5-7.5-7.5h-34.76c-4.142 0-7.5 3.358-7.5 7.5s3.358 7.5 7.5 7.5z"/><path d="m308.08 208.39h34.76c4.142 0 7.5-3.358 7.5-7.5s-3.358-7.5-7.5-7.5h-34.76c-4.142 0-7.5 3.358-7.5 7.5s3.358 7.5 7.5 7.5z"/><path d="m308.08 243.142h34.76c4.142 0 7.5-3.358 7.5-7.5s-3.358-7.5-7.5-7.5h-34.76c-4.142 0-7.5 3.358-7.5 7.5s3.358 7.5 7.5 7.5z"/><path d="m308.08 277.894h34.76c4.142 0 7.5-3.358 7.5-7.5s-3.358-7.5-7.5-7.5h-34.76c-4.142 0-7.5 3.358-7.5 7.5s3.358 7.5 7.5 7.5z"/><path d="m308.08 312.646h34.76c4.142 0 7.5-3.358 7.5-7.5s-3.358-7.5-7.5-7.5h-34.76c-4.142 0-7.5 3.358-7.5 7.5s3.358 7.5 7.5 7.5z"/><path d="m101.1 138.886h28.752c5.79 0 10.5-4.71 10.5-10.5v-28.752c0-5.79-4.71-10.5-10.5-10.5h-28.752c-5.79 0-10.5 4.71-10.5 10.5v28.752c0 5.789 4.711 10.5 10.5 10.5zm4.5-34.752h19.752v19.752h-19.752z"/></g></g></svg>