<svg id="Capa_1" enable-background="new 0 0 512.018 512.018" height="512" viewBox="0 0 512.018 512.018" width="512" xmlns="http://www.w3.org/2000/svg"><g><g><g><g fill="#f9f8f9"><path d="m233.5 56.009c-9.374 0-17 7.626-17 17v74l-1 14h-28v-87c0-16.792 7.852-32.555 21.134-40.869 7.217-4.517 15.742-7.131 24.866-7.131l2 14.787z"/><path d="m408.5 73.009v129l-1 14h-28v-142l14-1 7.755-2z"/><path d="m361.5 26.009c-2.431 0-4.81.185-7.127.543-22.38 3.455-37.873 24.972-37.873 48.457v44c0 13.064-9.626 17-19 17s-17-7.626-17-17l-7.16-2-7.572 2-14.269 1c0 25.916 22.223 45 45 45 7.986 0 16.514-1.002 23.107-4.531 14.802-7.922 24.893-23.539 24.893-41.469v-46c0-9.374 7.626-17 17-17l2-15.298z"/></g><path d="m408.5 73.009c0-25.916-21.084-47-47-47v30c9.374 0 18 6.626 18 16l14 1z" fill="#afefa5"/><path d="m280.5 119.009v-46c0-25.916-21.084-47-47-47v30c9.374 0 18 6.626 18 16v46l14.269 1z" fill="#afefa5"/><g><path d="m204.5 147.009c-1.657 0-3-1.343-3-3v-86c0-9.124 2.622-17.643 7.14-24.86-13.282 8.314-22.14 23.068-22.14 39.86v90h30v-16z" fill="#e8e8e8"/></g><path d="m393.5 199.009v-126l-8.309-2-6.691 2v144l15.5 2 14.5-2v-15h-12c-1.657 0-3-1.343-3-3z" fill="#e8e8e8"/><g fill="#e8e8e8"><path d="m312.5 136.012c9.374 0 17-7.629 17-17.003v-51c0-17.93 10.095-33.541 24.896-41.463-22.557 3.434-39.896 22.961-39.896 46.463v46c0 6.809-5.585 17-17 17 .897.147 14.062.003 15 .003z"/><path d="m312.5 161.009c-24.227 0-46.731-16.979-46.731-42l-7.577-2-7.691 2c0 25.916 21.084 47 47 47 7.986 0 15.511-2.008 22.104-5.537-2.319.353-4.691.537-7.105.537z"/></g><path d="m376.5 56.009h-15c9.374 0 17 7.626 17 17h15c0-9.374-7.626-17-17-17z" fill="#8ce1a4"/><path d="m248.5 56.009h-15c9.374 0 17 7.626 17 17v46h15.269l-.269-46c0-9.374-7.626-17-17-17z" fill="#8ce1a4"/></g><g><g><g><path d="m131.668 192.009h-52.836c-2.807 0-5.082-2.275-5.082-5.082v-17.835c0-2.807 2.275-5.082 5.082-5.082l8.918-1h44.918c2.807 0 5.082 2.275 5.082 5.082v9.918l-1 8.918c0 2.805-2.275 5.081-5.082 5.081z" fill="#c8effe"/></g><path d="m83.75 232.009v-38l14-1 14.612-1 15.388 1v40l-15.069 1-14.931-1z" fill="#c8effe"/><path d="m127.75 233.009v157.5c0 6.517-2.771 12.387-7.198 16.496-4.015 3.726-10.392 5.004-16.302 5.004h1c-12.426 0-21.5-10.074-21.5-22.5v-155.5l14-1z" fill="#afefa5"/><g><path d="m227.168 191.509h-52.835c-2.807 0-5.082-2.275-5.082-5.082v-17.835c0-2.807 2.275-5.082 5.082-5.082l8.918-1h44.918c2.807 0 5.082 2.275 5.082 5.082v9.918l-1 8.918c-.001 2.805-2.276 5.081-5.083 5.081z" fill="#c8effe"/></g><path d="m179.25 232.009v-38.5l14-1 15.324-1 14.676 1v40.5l-14.676 1-15.324-1z" fill="#c8effe"/><path d="m82.75 193.009v40l7.5 1 7.5-1v-40l-7.5-1z" fill="#a9e5f7"/><path d="m178.25 192.509v40.5l7.771 1 7.229-1v-40.5l-7.5-1z" fill="#a9e5f7"/><path d="m223.25 233.009v157c0 6.598-2.84 12.533-7.365 16.649-3.996 3.635-10.307 4.851-16.135 4.851h1c-12.426 0-21.5-9.074-21.5-21.5v-156l14-1z" fill="#afefa5"/><g fill="#8ce1a4"><path d="m120.25 407.009c-12.426 0-22.5-10.074-22.5-22.5v-1l-1-7.5 1-7.5v-15l-1-7.926 1-7.074v-105.5h-15v105.5l1 7.5-1 7.5v15l1 7.5-1 7.5v7c0 12.426 10.074 22.5 22.5 22.5 5.91 0 11.287-2.278 15.302-6.004-.1.001-.202.004-.302.004z"/><path d="m215.75 406.509c-12.426 0-22.5-10.074-22.5-22.5v-.5l-1-7.096 1-7.904v-15l-1-7.5 1-7.5v-105.5h-15v105.5l1 7.5-1 7.5v15l1 7.5-1 7.5v6.5c0 12.426 10.074 22.5 22.5 22.5 5.91 0 11.284-2.281 15.299-6.008-.1.002-.199.008-.299.008z"/></g></g><path d="m87.75 175.009v-12h-9.918c-2.807 0-5.082 2.275-5.082 5.082v19.835c0 2.807 2.276 5.083 5.083 5.083h54.835c2.807 0 5.082-2.275 5.082-5.082v-9.918h-47c-1.657 0-3-1.343-3-3z" fill="#a9e5f7"/><path d="m183.25 174.509v-12h-9.918c-2.807 0-5.082 2.275-5.082 5.082v19.835c0 2.807 2.276 5.083 5.083 5.083h54.835c2.807 0 5.082-2.275 5.082-5.082v-9.918h-47c-1.657 0-3-1.343-3-3z" fill="#a9e5f7"/><path d="m51.5 446.009h-28v-134l14-1h15v117z" fill="#f9f8f9"/><path d="m283.5 446.509h-28v-135l14-1h15v117.5z" fill="#f9f8f9"/><path d="m37.5 425.009v-114h-15v135h30v-18h-12c-1.657 0-3-1.343-3-3z" fill="#e8e8e8"/><path d="m269.5 425.009v-114h-15v135h30v-18h-12c-1.657 0-3-1.343-3-3z" fill="#e8e8e8"/><path d="m287.5 314.009h-269c-5.523 0-10-4.477-10-10v-21c0-5.523 4.477-10 10-10l4-1h266c5.523 0 10 4.477 10 10v18l-1 4c0 5.523-4.477 10-10 10z" fill="#f9f8f9"/><path d="m287.5 485.009h-269c-5.523 0-10-4.477-10-10v-21c0-5.523 4.477-10 10-10l4-1h266c5.523 0 10 4.477 10 10v18l-1 4c0 5.523-4.477 10-10 10z" fill="#f9f8f9"/><g fill="#e8e8e8"><path d="m22.5 297.009v-25h-5c-5.523 0-10 4.477-10 10v23c0 5.523 4.477 10 10 10h271c5.523 0 10-4.477 10-10v-5h-273c-1.657 0-3-1.343-3-3z"/><path d="m22.5 468.009v-25h-5c-5.523 0-10 4.477-10 10v23c0 5.523 4.477 10 10 10h271c5.523 0 10-4.477 10-10v-5h-273c-1.657 0-3-1.343-3-3z"/></g></g><g><path d="m439.344 293.927v-46.918l-39.132-2-40.489 2-14.068 1v45.918c0 4.657-1.081 10.251-3.157 14.416l-57.38 115.136c-5.847 11.732-5.158 24.473.152 36.46 7.023 15.853 20.692 24.069 37.983 24.069l136.492 1c12.827 0 25.761-4.622 33.935-13.996 2.845-3.263 5.234-6.98 7.047-11.073 5.31-11.987 4.999-25.728-.848-37.46l-57.38-115.136c-2.074-4.165-3.155-8.759-3.155-13.416z" fill="#c8effe"/><path d="m323.554 471.009c-21.522 0-35.595-22.558-26.131-41.888l59.742-122.024c1.639-3.348 2.493-7.025 2.498-10.753l.061-49.335-7.574-1-7.493 1v46.922c0 4.655-1.081 9.246-3.157 13.412l-57.38 115.136c-5.847 11.732-6.158 25.473-.848 37.46 7.023 15.853 22.692 26.069 39.983 26.069h137.492c12.827 0 24.757-5.626 32.931-15h-170.124z" fill="#a9e5f7"/><path d="m445.787 246.009h-107.574c-5.523 0-10-4.477-10-10v-8c0-5.523 4.477-10 10-10l4-1h104.574c5.523 0 10 4.477 10 10v5l-1 5c0 5.523-4.477 9-10 9z" fill="#c8effe"/><path d="m342.213 229.009v-12h-5c-5.523 0-10 4.477-10 10v10c0 5.523 4.477 10 10 10h109.574c5.523 0 10-4.477 10-10v-5h-111.574c-1.657 0-3-1.343-3-3z" fill="#a9e5f7"/><path d="m429.194 347.509h-58.711l-13.71 1c-1.921 0-3.671 1.108-4.498 2.847l-40.665 85.606c-2.294 4.823-2.31 9.574 1.457 13.353 0 0 6.556 4.695 9.891 4.695l138.053-1c3.353 0 8.94-2.715 8.94-2.715 2.938-2.948 6.055-6.123 5.46-10.065-.011-.073.031-.221.031-.221-.192-1.038-.516-2.064-.976-3.052l-40.758-87.563c-.817-1.761-2.578-2.885-4.514-2.885z" fill="#afefa5"/><g fill="#8ce1a4"><path d="m330.697 441.009c-2.205 0-3.657-2.3-2.708-4.29l42.503-89.21h-14.71c-1.921 0-3.671 1.107-4.498 2.847l-41.665 87.606c-2.294 4.823-1.31 10.574 2.457 14.353 2.358 2.366 5.556 3.695 8.891 3.695h142.053c3.353 0 6.569-1.336 8.94-3.715 2.992-3.002 4.231-7.244 3.483-11.286z"/><ellipse cx="411.436" cy="407.509" rx="17.443" ry="17.5"/><ellipse cx="387.515" cy="347.509" rx="13.954" ry="14"/></g></g></g><g><path d="m506.593 419.134-57.379-115.136c-1.55-3.111-2.37-6.593-2.37-10.071v-39.421c9.623-.031 17.443-7.867 17.443-17.497v-10c0-9.649-7.851-17.5-17.5-17.5h-30.787v-136.5c0-30.051-24.449-54.5-54.5-54.5s-54.5 24.449-54.5 54.5v46c0 5.238-4.262 9.5-9.5 9.5s-9.5-4.262-9.5-9.5v-46c0-30.051-24.449-54.5-54.5-54.5s-54.5 24.449-54.5 54.5v12.404c0 4.142 3.358 7.5 7.5 7.5s7.5-3.358 7.5-7.5v-12.404c0-19.216 13.795-35.262 32-38.777v15.455c-9.851 3.176-17 12.427-17 23.321v82h-15v-34.596c0-4.142-3.358-7.5-7.5-7.5s-7.5 3.358-7.5 7.5v34.596h-5.667c-6.938 0-12.583 5.645-12.583 12.583v19.835c0 6.053 4.297 11.119 10 12.313v64.769h-35.5v-64.268c5.703-1.195 10-6.261 10-12.313v-19.835c0-6.938-5.645-12.583-12.583-12.583h-54.834c-6.938 0-12.583 5.645-12.583 12.583v19.835c0 6.053 4.297 11.119 10 12.313v64.269h-57.75c-9.649 0-17.5 7.851-17.5 17.5v23c0 8.798 6.534 16.081 15 17.3v113.399c-8.466 1.22-15 8.502-15 17.3v23c0 9.649 7.851 17.5 17.5 17.5h443.246c20.238 0 38.625-11.984 46.84-30.532 6.238-14.078 5.876-30.059-.993-43.842zm-120.593-209.625v-129h15v129zm14.277-144h-15.456c-2.413-7.486-8.335-13.408-15.821-15.821v-15.456c15.775 3.046 28.231 15.502 31.277 31.277zm-102.777 78c13.509 0 24.5-10.991 24.5-24.5v-46c0-19.216 13.795-35.262 32-38.777v15.455c-9.851 3.176-17 12.427-17 23.321v46c0 21.78-17.72 39.5-39.5 39.5-19.216 0-35.262-13.795-38.777-32h15.456c3.176 9.852 12.427 17.001 23.321 17.001zm-24.5-70.5v38.5h-15v-38.5c0-10.894-7.149-20.146-17-23.321v-15.456c18.205 3.515 32 19.561 32 38.777zm-49 0c0-5.238 4.262-9.5 9.5-9.5s9.5 4.262 9.5 9.5v46c0 30.051 24.449 54.5 54.5 54.5s54.5-24.449 54.5-54.5v-46c0-5.238 4.262-9.5 9.5-9.5s9.5 4.262 9.5 9.5v136.5h-33.787c-9.649 0-17.5 7.851-17.5 17.5v10c0 9.63 7.82 17.466 17.443 17.497v39.421c0 3.478-.819 6.96-2.369 10.071l-42.787 85.853v-67.695c7.978-1.626 14-8.696 14-17.147v-23c0-9.649-7.851-17.5-17.5-17.5h-57.75v-64.769c5.703-1.195 10-6.261 10-12.313v-19.835c0-6.938-5.645-12.583-12.583-12.583h-4.167zm38 362.5v-113h15v97.5c-2.358 4.961-3.897 10.186-4.587 15.5zm-209.5-39.724c-4.142 0-7.5 3.358-7.5 7.5v32.224h-15v-113h15v45.776c0 4.142 3.358 7.5 7.5 7.5s7.5-3.358 7.5-7.5v-45.776h15.25v68c0 16.542 13.458 30 30 30s30-13.458 30-30v-68h35.5v67.5c0 16.542 13.458 30 30 30s30-13.458 30-30v-67.5h16.25v113h-187v-32.224c0-4.142-3.358-7.5-7.5-7.5zm37.75-12.276h10.25c4.142 0 7.5-3.358 7.5-7.5s-3.358-7.5-7.5-7.5h-10.25v-15h10.25c4.142 0 7.5-3.358 7.5-7.5s-3.358-7.5-7.5-7.5h-10.25v-16h30v68c0 8.271-6.729 15-15 15s-15-6.729-15-15zm95.5 0h9.75c4.142 0 7.5-3.358 7.5-7.5s-3.358-7.5-7.5-7.5h-9.75v-15h9.75c4.142 0 7.5-3.358 7.5-7.5s-3.358-7.5-7.5-7.5h-9.75v-16h30v67.5c0 8.271-6.729 15-15 15s-15-6.729-15-15zm0-183.5h30v25.5h-30zm-10-30h50v15h-50zm10 70.5h30v24h-30zm-95.5-40h30v25h-30zm-10-30h50v15h-50zm10 70h30v24h-30zm-75.25 41.5c0-1.378 1.122-2.5 2.5-2.5h271c1.378 0 2.5 1.122 2.5 2.5v23c0 1.378-1.122 2.5-2.5 2.5h-271c-1.378 0-2.5-1.122-2.5-2.5zm2.5 196.5c-1.378 0-2.5-1.122-2.5-2.5v-23c0-1.378 1.122-2.5 2.5-2.5h255.195c1.419 9.252 6.625 20.401 14.384 28zm476.372-21.607c-5.814 13.125-18.817 21.607-33.125 21.607h-137.493c-14.309 0-27.311-8.481-33.125-21.607-4.421-9.98-4.165-21.308.703-31.077l57.38-115.137c2.58-5.178 3.944-10.974 3.944-16.761v-39.418h16.344c4.142 0 7.5-3.358 7.5-7.5s-3.358-7.5-7.5-7.5h-31.287c-1.378 0-2.5-1.122-2.5-2.5v-10c0-1.378 1.122-2.5 2.5-2.5h109.574c1.378 0 2.5 1.122 2.5 2.5v10c0 1.378-1.122 2.5-2.5 2.5h-43.287c-4.142 0-7.5 3.358-7.5 7.5s3.358 7.5 7.5 7.5h28.344v39.418c0 5.788 1.364 11.583 3.944 16.762l57.379 115.136c4.87 9.769 5.126 21.096.705 31.077z"/><path d="m440.509 347.228c-2.042-4.385-6.483-7.219-11.315-7.219h-21.599c-3.047-8.162-10.886-14-20.08-14s-17.034 5.838-20.08 14h-11.661c-4.789 0-9.212 2.797-11.271 7.125l-41.665 87.605c-3.647 7.668-2.072 16.858 3.918 22.869 3.792 3.805 8.836 5.9 14.203 5.9h47.36c4.142 0 7.5-3.358 7.5-7.5s-3.358-7.5-7.5-7.5h-47.36c-1.351 0-2.622-.529-3.579-1.489-1.527-1.533-1.928-3.878-.996-5.837l40.983-86.173h10.067c3.047 8.162 10.886 14 20.08 14s17.034-5.838 20.08-14h19.991l40.083 86.112c.919 1.976.506 4.338-1.028 5.878-.971.974-2.259 1.51-3.628 1.51h-59.693c-4.142 0-7.5 3.358-7.5 7.5s3.358 7.5 7.5 7.5h59.693c5.385 0 10.447-2.103 14.252-5.921 5.958-5.979 7.567-15.14 4.003-22.797zm-52.994 6.781c-3.559 0-6.454-2.916-6.454-6.5s2.896-6.5 6.454-6.5 6.454 2.916 6.454 6.5-2.896 6.5-6.454 6.5z"/><path d="m436.379 407.509c0-13.785-11.189-25-24.943-25s-24.942 11.215-24.942 25 11.189 25 24.942 25 24.943-11.215 24.943-25zm-34.885 0c0-5.514 4.46-10 9.942-10s9.943 4.486 9.943 10-4.46 10-9.943 10-9.942-4.486-9.942-10z"/></g></g></svg>