<svg id="Capa_1" enable-background="new 0 0 511.996 511.996" height="512" viewBox="0 0 511.996 511.996" width="512" xmlns="http://www.w3.org/2000/svg"><g><g><g><path d="m470.574 103.274-45.31 170.17c-2.19 8.23-4.95 16.28-8.25 24.1-3.31 7.82-7.15 15.41-11.53 22.72-3.78 6.32-7.9 12.44-12.46 18.22-7.33 9.3-12.69 20.03-15.7 31.53l-9.521 36.88-6.501 15.854-145.128-39.903 17.26-64.2c1.85-6.67 1.4-13.76-1.27-20.15l-18.77-42.53c-5.32-12.73-6.26-26.88-2.67-40.2l21.939-83.039c2.786-10.368 10.958-18.768 21.043-19.489.45-.032 1.319-.322 1.319-.322 2.09 0 4.21.27 6.33.84 12.52 3.37 20.17 15.949 17.51 28.489l1.144-3.694 28.548-104.378c2.599-9.658 10.477-15.816 20-15.957.44-.007 1.578-.474 1.578-.474 1.555.072 3.125.312 4.69.733 9.76 2.63 16.19 11.47 16.19 21.11 0 1.89-.24 3.81-.76 5.72l6.43-21.217c2.632-9.76 10.536-15.684 20.17-15.702.389-.001 1.47-.858 1.47-.858 1.515.079 3.046.318 4.57.728 9.76 2.63 16.19 11.47 16.19 21.12 0 1.89-.25 3.8-.76 5.71l-2.83 10.5-.49 1.79c.792-2.935 2.78-4.905 4.446-7.074 3.986-5.189 9.468-8.648 16.426-8.468.23.006 1.509-.628 1.509-.628 1.473.085 2.959.322 4.44.72 9.76 2.63 16.19 11.46 16.19 21.11 0 1.89-.24 3.81-.76 5.72l-8.608 32.106c.962-2.983 2.961-5.235 4.921-7.412 4.074-4.523 9.491-7.5 15.777-7.5.389 0 1.281-.213 1.281-.213 1.499.08 3.013.315 4.52.719 11.657 3.149 18.567 15.149 15.427 26.819z" fill="#64acdc"/><path d="m367.804 406.894-4.289 16.611-79.103-15.972-71.296-24.467 17.317-64.423c1.85-6.67 1.4-13.76-1.27-20.15l-17.77-42.53c-5.32-12.73-6.26-26.88-2.67-40.2l22.87-84.88c2.91-10.83 12.72-17.97 23.43-17.97h.03l-29.92 107.27c-2.59 9.64-1.9 20.02 1.95 29.23l17.77 42.53c4.11 9.83 4.81 20.9 1.98 31.17l-11.792 43.869c-.573 2.133.69 4.326 2.822 4.901z" fill="#5d9fd1"/><path d="m200.447 416.954 157.18 42.899c7.999 2.156 16.231-2.581 18.386-10.58l1.261.03 1.683-6.246c2.156-7.999-2.581-16.231-10.58-18.386l-158.222-42.641-.957.742c-7.999-2.156-15.231.581-17.386 8.58l-1.945 7.216c-2.156 7.999 2.581 16.231 10.58 18.386z" fill="#64acdc"/><g fill="#5d9fd1"><path d="m377.274 449.304-.26.97c-2.16 8-10.39 12.74-18.39 10.58l-159.18-42.9c-8-2.16-12.73-10.39-10.58-18.39l1.95-7.21c2.15-8 10.38-12.74 18.38-10.58l.961.257-4.282 15.907c-.718 2.666.861 5.409 3.527 6.127z"/><path d="m378.324 7.526-38.38 143.298c-1.24 4.62-5.98 7.37-10.6 6.13h-.01c-4.62-1.24-7.36-5.99-6.12-10.61l29.38-109.73.22-.82 3.26-12.09c2.74-10.15 12.16-16.698 22.25-16.178z"/><path d="m330.134 17.74-51.06 190.683c-1.03 3.87-4.53 6.43-8.35 6.43-.75 0-1.5-.1-2.25-.3-4.62-1.24-7.37-5.99-6.13-10.61l22.48-83.96 23.19-86.06c2.72-10.099 12.09-16.653 22.12-16.183z"/><path d="m417.384 31.204-36.81 137.46c-1.03 3.87-4.53 6.42-8.35 6.42-.74 0-1.5-.1-2.25-.3-4.62-1.24-7.37-5.98-6.13-10.6l31.83-118.87.01-.02c3.4-8.99 12.28-14.64 21.7-14.09z"/><path d="m450.625 75.735-31.1 116.179c-1.04 3.87-4.54 6.42-8.36 6.42-.74 0-1.5-.1-2.25-.3-4.62-1.23-7.36-5.98-6.13-10.6l25.89-96.68.02-.05c3-9.09 11.5-15 20.76-15 .389 0 .78.001 1.17.031z"/></g></g><g><path d="m322.884 146.397-45.31 170.17c-2.19 8.23-4.95 16.28-8.25 24.1-3.31 7.82-7.15 15.41-11.53 22.72-3.78 6.32-7.9 12.44-12.46 18.22-7.33 9.3-12.69 20.03-15.7 31.53l-9.521 36.88-6.501 15.854-145.128-39.904 17.26-64.2c1.85-6.67 1.4-13.76-1.27-20.15l-18.77-42.53c-5.32-12.73-6.26-26.88-2.67-40.2l21.939-83.039c2.786-10.368 10.958-18.768 21.043-19.489.45-.032 1.319-.322 1.319-.322 2.09 0 4.21.27 6.33.84 12.52 3.37 20.17 15.949 17.51 28.489l1.144-3.694 28.548-104.378c2.599-9.658 10.477-15.816 20-15.957.44-.007 1.578-.474 1.578-.474 1.555.072 3.125.312 4.69.733 9.76 2.63 16.19 11.47 16.19 21.11 0 1.89-.24 3.81-.76 5.72l6.43-21.217c2.632-9.76 10.536-15.684 20.17-15.702.389-.001 1.47-.858 1.47-.858 1.515.079 3.046.318 4.57.728 9.76 2.63 16.19 11.47 16.19 21.12 0 1.89-.25 3.8-.76 5.71l-2.83 10.5-.49 1.79c.792-2.935 2.78-4.905 4.446-7.074 3.986-5.189 9.468-8.648 16.426-8.468.23.006 1.509-.628 1.509-.628 1.473.085 2.959.322 4.44.72 9.76 2.63 16.19 11.46 16.19 21.11 0 1.89-.24 3.81-.76 5.72l-8.608 32.106c.962-2.983 2.961-5.235 4.921-7.412 4.074-4.523 9.491-7.5 15.777-7.5.389 0 1.281-.213 1.281-.213 1.499.08 3.013.315 4.52.719 11.657 3.15 18.567 15.15 15.427 26.82z" fill="#7dc3ee"/><path d="m220.114 450.017-4.289 16.611-79.103-15.972-71.296-24.466 17.317-64.423c1.85-6.67 1.4-13.76-1.27-20.15l-17.77-42.53c-5.32-12.73-6.26-26.88-2.67-40.2l22.87-84.88c2.91-10.83 12.72-17.97 23.43-17.97h.03l-29.92 107.27c-2.59 9.64-1.9 20.02 1.95 29.23l17.77 42.53c4.11 9.83 4.81 20.9 1.98 31.17l-11.792 43.869c-.573 2.133.69 4.326 2.822 4.901z" fill="#64acdc"/><path d="m52.757 460.077 157.18 42.899c7.999 2.156 16.231-2.581 18.386-10.58l1.261.03 1.683-6.246c2.156-7.999-2.581-16.231-10.58-18.386l-158.222-42.641-.957.742c-7.999-2.156-15.231.581-17.386 8.58l-1.945 7.216c-2.156 7.999 2.581 16.231 10.58 18.386z" fill="#7dc3ee"/><g fill="#64acdc"><path d="m229.584 492.427-.26.97c-2.16 8-10.39 12.74-18.39 10.58l-159.18-42.9c-8-2.16-12.73-10.39-10.58-18.39l1.95-7.21c2.15-8 10.38-12.74 18.38-10.58l.961.257-4.282 15.907c-.718 2.666.861 5.409 3.527 6.127z"/><path d="m230.634 50.649-38.38 143.298c-1.24 4.62-5.98 7.37-10.6 6.13h-.01c-4.62-1.24-7.36-5.99-6.12-10.61l29.38-109.73.22-.82 3.26-12.09c2.74-10.15 12.16-16.698 22.25-16.178z"/><path d="m182.444 60.863-51.06 190.683c-1.03 3.87-4.53 6.43-8.35 6.43-.75 0-1.5-.1-2.25-.3-4.62-1.24-7.37-5.99-6.13-10.61l22.48-83.96 23.19-86.06c2.72-10.099 12.09-16.653 22.12-16.183z"/><path d="m269.694 74.327-36.81 137.46c-1.03 3.87-4.53 6.42-8.35 6.42-.74 0-1.5-.1-2.25-.3-4.62-1.24-7.37-5.98-6.13-10.6l31.83-118.87.01-.02c3.4-8.99 12.28-14.64 21.7-14.09z"/><path d="m302.934 118.858-31.1 116.179c-1.04 3.87-4.54 6.42-8.36 6.42-.74 0-1.5-.1-2.25-.3-4.62-1.23-7.36-5.98-6.13-10.6l25.89-96.68.02-.05c3-9.09 11.5-15 20.76-15 .39 0 .78.001 1.17.031z"/></g></g></g><g><path d="m474.91 82.929c-3.914-6.801-10.242-11.67-17.818-13.711-5.038-1.357-10.128-1.316-14.857-.117l2.261-8.393c4.216-15.649-5.079-31.809-20.719-36.022-5.984-1.61-12.039-1.238-17.475.704-1.571-11.341-9.731-21.218-21.459-24.377-14.611-3.932-29.662 3.925-35.02 17.73-3.58-3.563-8.037-6.155-13.045-7.504-15.641-4.212-31.794 5.091-36.003 20.716l-11.795 43.205c-3.554-3.484-7.955-6.022-12.891-7.352-5.983-1.61-12.039-1.238-17.475.705-1.571-11.342-9.731-21.218-21.459-24.378-14.615-3.933-29.676 3.932-35.027 17.748-3.505-3.491-7.93-6.147-13.039-7.523-15.638-4.207-31.794 5.093-36.009 20.741l-22.502 83.533c-3.922-4.206-9.021-7.4-14.959-9-16.922-4.558-34.399 5.501-38.958 22.423l-22.863 84.877c-4.002 14.855-2.939 30.854 2.992 45.05l17.771 42.531c2.011 4.812 2.352 10.229.945 15.31l-15.379 57.195c-10.861-1.234-21.319 5.636-24.248 16.504l-1.945 7.217c-3.228 11.979 3.892 24.351 15.87 27.578l159.181 42.9c1.953.525 3.916.777 5.848.777 9.921-.001 19.029-6.622 21.731-16.647l1.945-7.217c1.564-5.803.774-11.867-2.223-17.076-2.592-4.504-6.569-7.894-11.348-9.742l6.933-26.851c1.881.262 38.8 10.936 40.957 10.771 3.307 0 6.335-2.205 7.237-5.551 1.078-3.999-1.291-8.115-5.29-9.192l-39.154-10.551c1.557-6.654 3.886-14.086 7.572-21.234l123.232 33.212c1.934.521 3.549 1.764 4.548 3.5s1.262 3.758.741 5.691l-1.945 7.217c-.521 1.934-1.765 3.55-3.501 4.549-1.737 1-3.758 1.263-5.692.741l-52.082-14.036c-4.001-1.081-8.115 1.291-9.193 5.29s1.291 8.115 5.29 9.192l52.082 14.036c3.874 1.214 11.318 1.087 17.077-2.223 5.209-2.997 8.939-7.844 10.503-13.646l1.945-7.217c1.563-5.803.774-11.866-2.223-17.075-2.592-4.504-6.569-7.895-11.348-9.743l11.948-46.272c2.761-10.545 7.584-20.231 14.336-28.788 4.549-5.766 8.805-11.986 13.011-19.015 9.103-15.212 16.031-31.611 20.592-48.743l23.883-89.708c1.065-4.003-1.315-8.111-5.318-9.177-4.005-1.069-8.111 1.314-9.177 5.317l-23.883 89.708c-4.201 15.781-10.583 30.888-18.969 44.9-3.872 6.471-7.77 12.171-11.916 17.426-8.039 10.189-13.782 21.723-17.077 34.305l-11.881 46.011-106.365-28.665c4.327-5.553 8.398-11.531 12.421-18.253 9.103-15.212 16.031-31.611 20.592-48.743 20.039-75.816 58.366-218.452 78.49-292.841 2.064-7.664 9.97-12.223 17.625-10.158 7.654 2.062 12.201 9.974 10.137 17.636-.528 1.968-34.102 126.592-35.647 132.332-1.078 4 1.292 8.115 5.291 9.193 4.001 1.077 8.115-1.292 9.192-5.291l32.338-120.04c2.065-7.664 9.969-12.223 17.625-10.158 7.654 2.062 12.201 9.974 10.137 17.636l-35.146 130.469c-1.078 4 1.292 8.115 5.291 9.193.653.176 1.31.26 1.956.26 3.307 0 6.335-2.205 7.237-5.551.018.001 26.332-97.882 26.42-98.009 2.356-7.305 10.006-11.462 17.42-9.466 3.708.998 6.804 3.382 8.72 6.71 1.916 3.327 2.42 7.202 1.416 10.931l-12.419 46.65c-1.065 4.003 1.315 8.111 5.318 9.177.646.173 1.296.255 1.935.255 3.316 0 6.349-2.216 7.243-5.572l12.414-46.629c2.039-7.577 1.007-15.495-2.907-22.295zm-159.66-47.048c2.064-7.664 9.972-12.222 17.625-10.158 3.706.998 6.802 3.382 8.717 6.711 1.915 3.331 2.419 7.21 1.421 10.922l-20.596 76.456c-3.576-3.546-8.022-6.127-13.016-7.473-5.037-1.358-10.127-1.317-14.856-.117 1.368-5.585 18.767-69.304 20.705-76.341zm-44.92 278.756c-4.201 15.781-10.583 30.888-18.969 44.9-3.872 6.471-7.769 12.171-11.916 17.426-8.039 10.189-13.782 21.723-17.077 34.304l-11.881 46.012-67.553-18.206c-3.999-1.081-8.115 1.291-9.193 5.29s1.291 8.115 5.29 9.192l79.705 21.481c1.934.521 3.55 1.764 4.549 3.5s1.262 3.758.741 5.691l-1.945 7.217c-1.076 3.992-5.197 6.364-9.193 5.29l-159.181-42.9c-3.993-1.075-6.365-5.199-5.29-9.191l1.945-7.217c1.076-3.992 5.197-6.364 9.193-5.29l45.521 12.269c4.002 1.084 8.116-1.29 9.193-5.289 1.078-4-1.291-8.116-5.29-9.193l-34.304-9.245 15.298-56.905c2.285-8.251 1.725-17.145-1.575-25.042l-17.771-42.531c-4.656-11.144-5.49-23.703-2.349-35.364l22.863-84.877c2.408-8.938 11.641-14.248 20.574-11.841 8.611 2.319 13.906 10.969 12.053 19.69.03.165-17.907 66.475-17.978 66.833-1.078 4 1.292 8.115 5.291 9.193.653.176 1.31.26 1.956.26 3.307 0 6.335-2.205 7.237-5.551l47.287-175.541c2.064-7.664 9.971-12.223 17.625-10.159 7.653 2.061 12.2 9.971 10.138 17.634l-27.62 102.534c-1.078 4 1.292 8.115 5.291 9.193.653.176 1.31.26 1.955.26 3.308 0 6.336-2.205 7.237-5.551 4.229-15.697 29.985-111.313 33.439-124.137 2.064-7.664 9.97-12.224 17.625-10.158 7.654 2.062 12.201 9.974 10.137 17.636-2.244 8.342-9.191 34.115-11.471 42.585-1.078 4 1.292 8.115 5.291 9.193 4.002 1.076 8.115-1.292 9.192-5.291l8.16-30.292c2.064-7.664 9.969-12.223 17.625-10.158 6.742 1.875 12.068 8.957 10.137 17.636l-35.145 130.469c-1.078 4 1.292 8.115 5.291 9.193.653.176 1.309.26 1.955.26 3.308 0 6.336-2.205 7.237-5.551l26.356-97.842c.02-.056.045-.109.063-.167 2.356-7.305 10.004-11.463 17.42-9.466 3.708.998 6.805 3.382 8.72 6.709 1.915 3.328 2.42 7.203 1.416 10.932z"/><path d="m231.983 147.429c-4.001-1.075-8.115 1.292-9.192 5.291l-15.049 55.865c-1.078 4 1.292 8.115 5.291 9.193.653.176 1.31.26 1.955.26 3.308 0 6.336-2.205 7.237-5.551l15.049-55.865c1.077-4-1.292-8.115-5.291-9.193z"/></g></g></svg>