<svg id="Capa_1" enable-background="new 0 0 512.115 512.115" height="512" viewBox="0 0 512.115 512.115" width="512" xmlns="http://www.w3.org/2000/svg"><g><g><circle cx="206.356" cy="140.032" fill="#f6df59" r="16.566"/><path d="m206.356 123.466c-4.471 0-8.52 1.779-11.5 4.657 3.119 3.013 5.066 7.23 5.066 11.909s-1.947 8.896-5.066 11.909c2.98 2.878 7.029 4.658 11.5 4.658 9.149 0 16.566-7.417 16.566-16.566.001-9.15-7.416-16.567-16.566-16.567z" fill="#edbf50"/><path d="m39.535 502.272-12.153-12.153c-3.124-3.124-3.124-8.189 0-11.314l228.152-228.152 16.848 5.404 6.619 18.063-228.152 228.152c-3.125 3.124-8.19 3.124-11.314 0z" fill="#e59f4f"/><path d="m33.719 496.456 5.816 5.816c3.124 3.124 8.189 3.124 11.314 0l228.152-228.152-6.153-16.792z" fill="#e27f4d"/><path d="m419.874 145.087 26.303-14.677 17.267-17.267-36.488-53.556-45.646-28.578-44.645 44.645-4.758 19.126-32.347 17.979-33.296 33.296-4.218 19.299-32.886 17.806-9.246 9.246c-6.248 6.248-6.248 16.379 0 22.628l59.507 59.507c6.248 6.248 16.379 6.248 22.627 0l36.624-36.624 15.097-30.146 22.008-6.958 33.296-33.296z" fill="#dc3d36"/><path d="m167.487 35.935-4.711 13.893c-.511 1.507-.248 3.169.704 4.445l8.774 11.757c2.397 3.212.07 7.778-3.937 7.727l-14.669-.188c-1.591-.02-3.091.744-4.01 2.043l-8.471 11.978c-2.314 3.272-7.376 2.471-8.566-1.357l-4.355-14.009c-.472-1.52-1.662-2.71-3.182-3.182l-14.009-4.355c-3.827-1.19-4.629-6.251-1.357-8.565l11.978-8.471c1.299-.919 2.063-2.418 2.043-4.01l-.188-14.669c-.051-4.007 4.515-6.334 7.727-3.937l11.758 8.774c1.275.952 2.938 1.215 4.445.704l13.893-4.711c3.796-1.286 7.42 2.338 6.133 6.133z" fill="#f6df59"/><g><path d="m40.691 173.165c-4.24 0-8.479-1.618-11.714-4.852-6.47-6.469-6.47-16.959 0-23.428l49.699-49.699c6.469-6.469 16.959-6.469 23.428 0 6.47 6.469 6.47 16.959 0 23.428l-49.699 49.699c-3.234 3.234-7.474 4.852-11.714 4.852z" fill="#dff8fa"/></g><path d="m482.25 350.698-4.711 13.893c-.511 1.507-.248 3.169.704 4.445l8.774 11.758c2.397 3.212.07 7.778-3.937 7.727l-14.669-.188c-1.591-.02-3.091.744-4.01 2.043l-8.471 11.978c-2.314 3.272-7.376 2.47-8.565-1.357l-4.355-14.009c-.472-1.52-1.662-2.71-3.182-3.182l-14.009-4.355c-3.827-1.19-4.629-6.251-1.357-8.565l11.978-8.471c1.299-.919 2.063-2.418 2.043-4.01l-.188-14.669c-.051-4.008 4.515-6.334 7.727-3.937l11.757 8.774c1.276.952 2.938 1.215 4.445.704l13.893-4.711c3.797-1.287 7.42 2.337 6.133 6.132z" fill="#f6df59"/><g><path d="m355.454 487.928c-4.24 0-8.479-1.618-11.714-4.852-6.47-6.469-6.47-16.959 0-23.428l49.699-49.699c6.469-6.469 16.959-6.469 23.428 0 6.47 6.469 6.47 16.959 0 23.428l-49.699 49.699c-3.234 3.235-7.474 4.852-11.714 4.852z" fill="#dff8fa"/></g><path d="m482.25 218.166-4.711 13.893c-.511 1.507-.248 3.169.704 4.445l8.774 11.758c2.397 3.212.07 7.778-3.937 7.727l-14.669-.188c-1.591-.02-3.091.744-4.01 2.043l-8.471 11.978c-2.314 3.272-7.376 2.471-8.565-1.357l-4.355-14.009c-.472-1.52-1.662-2.71-3.182-3.182l-14.009-4.355c-3.827-1.19-4.629-6.251-1.357-8.565l11.978-8.471c1.299-.919 2.063-2.418 2.043-4.01l-.188-14.669c-.051-4.008 4.515-6.334 7.727-3.937l11.758 8.774c1.275.952 2.938 1.215 4.445.704l13.893-4.711c3.796-1.287 7.419 2.337 6.132 6.132z" fill="#f6df59"/><g><path d="m206.356 504.495c-4.24 0-8.479-1.618-11.714-4.853-6.47-6.469-6.47-16.959 0-23.428l198.798-198.797c6.469-6.469 16.959-6.469 23.428 0 6.47 6.469 6.47 16.959 0 23.428l-198.798 198.797c-3.234 3.235-7.474 4.853-11.714 4.853z" fill="#dff8fa"/></g><path d="m487.017 248.262-8.774-11.758c-.952-1.275-1.215-2.938-.704-4.445l4.711-13.893c1.287-3.796-2.337-7.419-6.132-6.132l-13.893 4.711c-.891.302-1.835.327-2.723.105-.024.431-.101.872-.252 1.315l-4.711 13.893c-.511 1.507-.248 3.169.704 4.445l8.774 11.758c2.397 3.212.07 7.778-3.937 7.727l-14.669-.188c-.651-.008-1.284.121-1.871.358l3.825 12.306c1.19 3.827 6.251 4.629 8.565 1.357l8.471-11.978c.919-1.299 2.418-2.063 4.01-2.043l14.669.188c4.007.052 6.334-4.514 3.937-7.726z" fill="#edbf50"/><path d="m487.017 380.794-8.774-11.758c-.952-1.275-1.215-2.938-.704-4.445l4.711-13.894c1.287-3.795-2.337-7.419-6.132-6.132l-13.893 4.711c-.891.302-1.835.327-2.723.105-.024.431-.101.872-.252 1.315l-4.711 13.894c-.511 1.507-.248 3.169.704 4.445l8.774 11.758c2.397 3.212.07 7.778-3.937 7.727l-14.669-.188c-.651-.008-1.284.121-1.871.358l3.825 12.306c1.19 3.827 6.251 4.629 8.565 1.357l8.471-11.978c.919-1.299 2.418-2.063 4.01-2.043l14.669.188c4.007.052 6.334-4.514 3.937-7.726z" fill="#edbf50"/><path d="m416.868 277.417c-6.4-6.401-16.73-6.458-23.214-.194.07.067.145.125.214.194 6.47 6.469 6.47 16.959 0 23.428l-198.798 198.797c-.069.069-.144.126-.214.194 3.207 3.099 7.35 4.659 11.5 4.659 4.24 0 8.479-1.618 11.714-4.853l198.798-198.798c6.47-6.469 6.47-16.958 0-23.427z" fill="#c3f2f7"/><path d="m416.868 409.948c-6.4-6.4-16.73-6.458-23.214-.193.07.067.145.125.214.193 6.47 6.469 6.47 16.959 0 23.428l-49.699 49.699c-.069.069-.144.126-.214.193 3.207 3.099 7.35 4.659 11.5 4.659 4.24 0 8.479-1.618 11.714-4.852l49.699-49.699c6.47-6.469 6.47-16.958 0-23.428z" fill="#c3f2f7"/><path d="m172.254 66.031-8.774-11.758c-.952-1.275-1.215-2.938-.704-4.445l4.711-13.893c1.287-3.795-2.337-7.419-6.132-6.132l-13.893 4.711c-.891.302-1.835.327-2.723.105-.024.431-.101.872-.252 1.315l-4.711 13.893c-.511 1.507-.248 3.169.704 4.445l8.774 11.758c2.397 3.212.07 7.778-3.937 7.727l-14.669-.188c-.651-.008-1.284.121-1.871.358l3.825 12.306c1.19 3.827 6.251 4.629 8.565 1.357l8.471-11.978c.919-1.299 2.418-2.063 4.01-2.043l14.669.188c4.007.052 6.334-4.514 3.937-7.726z" fill="#edbf50"/><path d="m102.105 95.185c-6.4-6.4-16.73-6.458-23.214-.193.07.067.145.125.214.193 6.47 6.469 6.47 16.959 0 23.428l-49.699 49.699c-.069.069-.144.126-.214.193 3.207 3.099 7.35 4.659 11.5 4.659 4.24 0 8.479-1.618 11.714-4.852l49.699-49.699c6.47-6.469 6.47-16.958 0-23.428z" fill="#c3f2f7"/><path d="m419.874 145.087 26.303-14.677 17.267-17.267-9.422-13.83-163.612 163.612c-6.169 6.169-16.115 6.235-22.38.224l11.391 11.391c6.248 6.248 16.379 6.248 22.627 0l36.624-36.624 15.097-30.146 22.008-6.958 33.296-33.296z" fill="#b13d49"/><path d="m299.56 112.758 109.513 54.757 37.105-37.105-109.513-54.757z" fill="#f3ffff"/><path d="m409.073 167.515 37.105-37.105-15.502-7.751-37.105 37.105z" fill="#dff9f9"/><path d="m229.159 183.159 109.513 54.757 37.105-37.105-109.513-54.757z" fill="#f3ffff"/><path d="m338.672 237.916 37.105-37.105-15.502-7.751-37.105 37.105z" fill="#dff9f9"/><path d="m470.649 120.348-96.544-96.544c-6.383-6.383-1.165-17.239 7.807-16.242l79.297 8.811c8.878.986 15.885 7.994 16.872 16.872l8.811 79.297c.996 8.97-9.861 14.188-16.243 7.806z" fill="#f6df59"/><path d="m486.891 112.541-8.811-79.297c-.986-8.878-7.994-15.886-16.872-16.872l-21.017-2.335c7.919 1.734 13.977 8.33 14.889 16.534l8.811 79.297c.138 1.243.042 2.412-.232 3.49l6.99 6.99c6.382 6.382 17.239 1.164 16.242-7.807z" fill="#edbf50"/></g><g><path d="m279.736 283.992c3.428 1.813 7.212 2.723 10.998 2.723 6.017 0 12.036-2.291 16.617-6.871l156.093-156.094 1.901 1.901v-.001c3.304 3.305 7.596 5.032 11.986 5.032 2.508 0 5.049-.564 7.455-1.721 6.618-3.181 10.37-9.95 9.56-17.248l-8.811-79.297c-1.383-12.452-11.046-22.114-23.498-23.498l-79.297-8.81c-7.297-.806-14.068 2.941-17.249 9.559s-1.881 14.249 3.311 19.441l1.901 1.901-6.525 6.526c-2.929 2.929-2.929 7.678 0 10.607 1.464 1.464 3.384 2.196 5.303 2.196s3.839-.732 5.303-2.197l6.525-6.525 71.528 71.528-8.141 8.141-95.37-47.685 4.245-4.245c2.929-2.93 2.929-7.678 0-10.608-2.929-2.928-7.678-2.928-10.606 0l-128.355 128.354c-9.163 9.163-9.163 24.071 0 33.234l2.838 2.838-15.035 15.035c-5.585 5.584-13.009 8.659-20.907 8.659-7.897 0-15.322-3.075-20.906-8.66-5.584-5.584-8.66-13.009-8.66-20.906s3.076-15.322 8.66-20.906l34.896-34.896c3.265 1.659 6.954 2.6 10.86 2.6 13.27 0 24.066-10.797 24.066-24.067s-10.796-24.066-24.066-24.066c-13.271 0-24.067 10.796-24.067 24.066 0 3.906.941 7.595 2.6 10.86l-34.896 34.896c-8.417 8.418-13.054 19.609-13.054 31.514 0 11.904 4.636 23.097 13.054 31.513 8.417 8.418 19.609 13.054 31.513 13.054s23.096-4.636 31.513-13.053l15.035-15.035 16.873 16.873-165.569 165.568c-2.929 2.93-2.929 7.678 0 10.607 2.929 2.928 7.678 2.928 10.606 0l142.103-142.103 12.861 12.86-199.383 199.382c-.195.195-.512.195-.707 0l-12.154-12.153c-.036-.036-.146-.146-.146-.353s.11-.318.146-.354l36.066-36.065c2.929-2.93 2.929-7.678 0-10.607-2.928-2.928-7.677-2.928-10.606 0l-36.066 36.066c-2.927 2.928-4.54 6.82-4.54 10.96 0 4.141 1.612 8.033 4.54 10.961l12.153 12.153c2.927 2.927 6.82 4.539 10.96 4.539s8.033-1.612 10.96-4.539zm99.275-267.827c.372-.774.967-1.166 1.771-1.166.098 0 .198.006.302.018l79.297 8.81c5.43.604 9.643 4.816 10.246 10.246l8.811 79.297c.107.958-.28 1.655-1.149 2.072-.868.417-1.655.283-2.336-.397v-.001l-96.544-96.543c-.682-.682-.816-1.467-.398-2.336zm-172.655 114.801c4.999 0 9.066 4.067 9.066 9.066 0 5-4.067 9.067-9.066 9.067s-9.067-4.067-9.067-9.067c0-4.999 4.068-9.066 9.067-9.066zm90.389 138.27c-3.314 3.314-8.707 3.315-12.021 0l-59.507-59.508c-3.314-3.313-3.314-8.706 0-12.02l5.423-5.423 95.371 47.685zm4.296-147.352 95.37 47.685-22.116 22.116-95.37-47.685zm-33.296 33.296 95.37 47.685-17.347 17.347-8.577 8.577-95.371-47.685 20.446-20.445zm165.771-22.716-25.925 25.926-95.37-47.686 25.925-25.925zm-190.842 141.656 12.86-12.86 12.86 12.861-12.86 12.86z"/><path d="m108.829 71.85 12.672 3.939 3.939 12.672c1.404 4.517 5.179 7.782 9.85 8.521.658.104 1.314.155 1.964.155 3.965 0 7.69-1.898 10.036-5.216l7.663-10.835 13.267.169c4.716.099 9.001-2.519 11.149-6.732 2.148-4.215 1.725-9.188-1.104-12.979l-7.936-10.635 4.261-12.567h.001c1.518-4.479.385-9.339-2.96-12.684-3.345-3.344-8.204-4.479-12.684-2.959l-12.567 4.261-10.636-7.936c-3.791-2.829-8.764-3.252-12.978-1.104-4.214 2.147-6.794 6.419-6.734 11.148l.17 13.269-10.835 7.663c-3.861 2.731-5.8 7.33-5.06 12.002.741 4.671 4.006 8.445 8.522 9.848zm51.555-38.323-.002.008c.001-.003.002-.006.002-.008zm-34.377 20.248c3.316-2.345 5.264-6.169 5.212-10.229l-.119-9.271 7.43 5.544c3.253 2.429 7.491 3.101 11.34 1.797l8.78-2.977-2.978 8.779c-1.305 3.846-.633 8.085 1.796 11.339l5.544 7.431-9.274-.118c-4.086-.046-7.882 1.9-10.226 5.212l-5.353 7.57-2.753-8.855c-1.206-3.879-4.242-6.913-8.117-8.116l-8.854-2.753z"/><path d="m40.691 180.666c6.428 0 12.471-2.503 17.018-7.049l49.699-49.7c4.546-4.545 7.05-10.589 7.05-17.018 0-6.428-2.504-12.472-7.049-17.018-9.384-9.383-24.651-9.382-34.035 0l-49.699 49.699c-4.546 4.546-7.049 10.59-7.049 17.018 0 6.429 2.503 12.473 7.049 17.019 4.545 4.545 10.588 7.049 17.016 7.049zm-6.41-30.478 49.699-49.699c1.768-1.768 4.089-2.651 6.411-2.651s4.644.884 6.411 2.651c1.713 1.712 2.656 3.989 2.656 6.41 0 2.422-.943 4.698-2.656 6.41l-49.699 49.7c-1.713 1.713-3.99 2.656-6.412 2.656-2.421 0-4.698-.943-6.411-2.656-1.713-1.712-2.656-3.989-2.656-6.411.001-2.421.944-4.698 2.657-6.41z"/><path d="m485.092 365.674 4.261-12.566c1.519-4.48.385-9.339-2.959-12.684-3.345-3.345-8.206-4.478-12.685-2.96l-12.566 4.262-10.634-7.936c-3.79-2.828-8.763-3.254-12.977-1.105-4.215 2.147-6.796 6.42-6.735 11.149l.17 13.268-10.835 7.662c-3.861 2.732-5.8 7.33-5.06 12.002.74 4.671 4.006 8.445 8.522 9.849l12.671 3.939 3.939 12.672c1.404 4.517 5.179 7.782 9.85 8.521.658.104 1.314.155 1.964.155 3.965 0 7.69-1.898 10.036-5.216l7.662-10.834 13.27.169c4.716.06 9.001-2.52 11.148-6.734 2.146-4.214 1.723-9.186-1.105-12.977zm-16.585 15.161c-.053-.001-.106-.001-.16-.001-4.002 0-7.757 1.941-10.07 5.212l-5.353 7.57-2.753-8.854c-1.206-3.877-4.24-6.911-8.118-8.117l-8.853-2.752 7.57-5.354c3.316-2.345 5.264-6.169 5.212-10.228l-.119-9.271 7.433 5.546c3.253 2.427 7.491 3.099 11.337 1.795l8.78-2.977-2.978 8.78c-1.304 3.846-.632 8.084 1.796 11.339l5.544 7.431z"/><path d="m405.154 397.596c-6.428 0-12.472 2.504-17.017 7.049l-49.699 49.699c-4.546 4.545-7.05 10.589-7.05 17.018s2.503 12.473 7.049 17.018 10.589 7.049 17.017 7.049 12.471-2.504 17.017-7.049l49.7-49.699c4.546-4.546 7.049-10.59 7.049-17.018 0-6.429-2.503-12.473-7.049-17.017-4.545-4.546-10.589-7.05-17.017-7.05zm6.411 30.477-49.7 49.699c-1.713 1.713-3.989 2.656-6.411 2.656s-4.698-.943-6.411-2.656c-1.712-1.712-2.655-3.988-2.655-6.41s.943-4.698 2.656-6.41l49.7-49.7c1.712-1.712 3.989-2.655 6.41-2.655 2.422 0 4.699.943 6.412 2.656 1.712 1.712 2.655 3.988 2.655 6.41-.001 2.421-.943 4.698-2.656 6.41z"/><path d="m415.071 244.233c.74 4.671 4.006 8.445 8.522 9.849l12.672 3.939 3.939 12.672c1.404 4.517 5.179 7.782 9.85 8.522.658.104 1.314.155 1.964.155 3.965 0 7.69-1.898 10.036-5.217l7.662-10.834 13.268.169c.055.001.109.001.164.001 4.664 0 8.862-2.568 10.985-6.733 2.148-4.215 1.725-9.187-1.104-12.978l-7.936-10.636 4.261-12.566h.001c1.518-4.48.385-9.34-2.96-12.685-3.344-3.343-8.206-4.478-12.684-2.959l-12.566 4.262-10.636-7.937c-3.791-2.829-8.764-3.251-12.978-1.104s-6.794 6.419-6.734 11.148l.17 13.269-10.835 7.662c-3.863 2.731-5.802 7.329-5.061 12.001zm25.699-8.226c3.316-2.345 5.264-6.169 5.212-10.229l-.119-9.27 7.43 5.544c3.253 2.429 7.493 3.101 11.34 1.797l8.78-2.977-2.977 8.78c-1.304 3.845-.633 8.084 1.796 11.339l5.545 7.431-9.27-.118c-4.052-.054-7.884 1.895-10.23 5.212l-5.353 7.569-2.753-8.854c-1.207-3.879-4.242-6.913-8.117-8.116l-8.855-2.753z"/><path d="m429.22 289.131c0-6.429-2.503-12.473-7.049-17.017-4.545-4.546-10.589-7.05-17.018-7.05s-12.473 2.504-17.017 7.049l-198.796 198.798c-4.546 4.545-7.05 10.589-7.05 17.018s2.503 12.473 7.049 17.017c4.546 4.545 10.589 7.049 17.017 7.049s12.471-2.504 17.017-7.049l198.797-198.798c4.547-4.545 7.05-10.589 7.05-17.017zm-17.655 6.41-198.798 198.798c-1.713 1.713-3.989 2.656-6.411 2.656s-4.698-.943-6.411-2.656c-1.712-1.712-2.655-3.988-2.655-6.41s.943-4.698 2.656-6.41l198.798-198.799c1.712-1.712 3.989-2.655 6.411-2.655 2.421 0 4.698.943 6.411 2.656 1.712 1.712 2.655 3.988 2.655 6.41s-.943 4.698-2.656 6.41z"/></g></g></svg>