<svg id="Capa_1" enable-background="new 0 0 512 512" height="512" viewBox="0 0 512 512" width="512" xmlns="http://www.w3.org/2000/svg"><g><g><path d="m288.478 396.815-16.567 33.133h-16.567v-93.041h33.134z" fill="#dc3d36"/><path d="m265.478 429.948h6.433l16.567-33.133v-59.908h-23z" fill="#b13d49"/><path d="m288.478 396.815-33.134 33.133v65.094h33.134z" fill="#f3ffff"/><path d="m265.478 495.042h23v-98.227l-23 23z" fill="#dff9f9"/><path d="m254.681 471.367h34.267c8.837 0 16 7.163 16 16v9.133c0 4.418-3.582 8-8 8h-50.267c-4.418 0-8-3.582-8-8v-9.133c0-8.837 7.163-16 16-16z" fill="#f6df59"/><path d="m288.947 471.367h-23c8.837 0 16 7.163 16 16v9.133c0 4.418-3.582 8-8 8h23c4.418 0 8-3.582 8-8v-9.133c0-8.837-7.163-16-16-16z" fill="#edbf50"/><path d="m417.77 217.354c33.478 1.129 83.429 22.003 85.973 135.628.127 5.671-2.657 11.022-7.377 14.168l-26.817 17.878c-5.865 3.91-13.616-.833-12.82-7.837 5.997-52.734-4.601-84.249-19.151-103.079z" fill="#413e82"/><path d="m417.77 217.354 1.636 4.687c29.111 10.716 59.394 43.124 61.361 130.941.127 5.671-2.657 11.022-7.377 14.168l-16.704 11.136c.08 6.386 7.311 10.444 12.864 6.742l26.817-17.878c4.72-3.147 7.504-8.497 7.377-14.168-2.545-113.625-52.497-134.499-85.974-135.628z" fill="#2f2c59"/><path d="m437.578 271.048c0-45.748-37.086-82.834-82.833-82.834h-8.283l-11.653 41.417h-109.38l-28.067-49.7-84.97-109.881h-72.414v10.482l-30.265 151.325c-1.639 8.193 3.08 16.323 11.006 18.966l22.179 7.393c7.828 2.609 16.383-.94 20.065-8.324l21.408-42.938 23.312 55.95c4.484 10.762 6.049 22.516 4.538 34.076l-17.099 130.81 27.779 26.689 32.353-10.233 32.805-79.606c.618-1.498 2.078-2.476 3.698-2.476h63.589l16.567-7.086 16.567 7.086h30.455c1.62 0 3.081.978 3.698 2.476l33.786 81.988 32.079 8.958 29.877-25.581-5.454-81.537c-.124-1.855.427-3.681 1.508-5.193 15.041-21.053 23.149-46.303 23.149-72.227z" fill="#f3ffff"/><path d="m414.578 271.048c0 25.924-8.108 51.173-23.15 72.228-1.081 1.513-1.632 3.339-1.508 5.193l6.7 100.163 21.754-18.626-5.454-81.537c-.124-1.855.427-3.681 1.508-5.193 15.042-21.055 23.15-46.304 23.15-72.228 0-45.748-37.086-82.833-82.833-82.833h-8.283l-.356 1.266c38.897 6.803 68.472 40.72 68.472 81.567z" fill="#dff9f9"/><path d="m73.063 80.872c-2.731-.225-5.494-.34-8.283-.34h-24.802c-14.441 0-26.724-9.238-31.262-22.127-1.892-5.375 2.133-11.006 7.831-11.006h48.28c2.766 0 5.511.085 8.235.252l31.9 5.934c53.576 17.004 92.398 67.142 92.398 126.347h-17.799c-8.262 0-15.224-6.095-16.4-14.273-4.875-33.901-26.857-62.275-56.917-76.091z" fill="#413e82"/><path d="m288.381 95.264-16.567 33.134h-16.567v-93.042h33.134z" fill="#dc3d36"/><path d="m265.381 128.398h6.433l16.567-33.134v-59.908h-23z" fill="#b13d49"/><path d="m288.381 95.264-33.134 33.134v65.094h33.134z" fill="#f3ffff"/><path d="m265.381 193.492h23v-98.228l-23 23z" fill="#dff9f9"/><path d="m288.947 40.633h-34.267c-8.837 0-16-7.163-16-16v-9.133c0-4.418 3.582-8 8-8h50.267c4.418 0 8 3.582 8 8v9.133c0 8.837-7.163 16-16 16z" fill="#f6df59"/><path d="m296.947 7.5h-23c4.418 0 8 3.582 8 8v9.133c0 8.837-7.163 16-16 16h23c8.837 0 16-7.163 16-16v-9.133c0-4.418-3.581-8-8-8z" fill="#edbf50"/><path d="m255.344 290.089h33.133v72.076h-33.133z" fill="#e59f4f"/><path d="m265.381 290.089h23.097v72.076h-23.097z" fill="#e27f4d"/><path d="m104.963 53.584-31.9-5.934c-2.724-.167-5.469-.252-8.235-.252h-23.029c2.765 0 5.511.085 8.235.252l31.9 5.934c53.314 16.921 92.012 66.654 92.389 125.481 1.652.553 3.41.867 5.239.867h17.799c0-59.206-38.822-109.344-92.398-126.348z" fill="#2f2c59"/><path d="m73.063 97.098v-57.962c0-5.698 5.631-9.724 11.006-7.831 12.889 4.538 22.127 16.821 22.127 31.261v42.816z" fill="#f3ffff"/><path d="m418.374 430.007-61.956 16.623 12.12 29.41c1.586 3.85 5.784 5.923 9.805 4.844l36.096-9.685c3.82-1.025 6.382-4.607 6.118-8.553z" fill="#413e82"/><path d="m142.151 476.04 13.102-31.793-60.131-16.457-4.503 34.452c-.538 4.118 2.056 7.998 6.067 9.074l35.661 9.568c4.021 1.079 8.218-.995 9.804-4.844z" fill="#413e82"/><path d="m420.557 462.647-2.183-32.64-22.595 6.062 1.778 26.578c.264 3.946-2.298 7.528-6.118 8.553l-22.313 5.987c1.883 3.099 5.617 4.664 9.217 3.698l36.096-9.685c3.819-1.025 6.382-4.608 6.118-8.553z" fill="#2f2c59"/><path d="m225.428 188.215h92.967v84.765h-92.967z" fill="#e59f4f"/><path d="m247.061 262.765h49.7c9.15 0 16.567-7.417 16.567-16.567v-57.983c0-4.575 3.709-8.283 8.283-8.283h16.567c4.575 0 8.283 3.709 8.283 8.283v74.55c0 18.299-14.834 33.133-33.133 33.133h-82.833c-18.299 0-33.133-14.834-33.133-33.133v-82.365c0-8.92 6.855-16.596 15.766-17.016 9.514-.448 17.368 7.133 17.368 16.548v66.267c-.002 9.149 7.416 16.566 16.565 16.566z" fill="#f6df59"/><g><g><g><path d="m207.494 179.932v66.267c0 9.15 7.417 16.567 16.567 16.567h23c-9.149 0-16.567-7.417-16.567-16.567v-66.267c0-9.415-7.854-16.996-17.367-16.548-4.151.195-7.843 1.978-10.617 4.715 3.072 3.007 4.984 7.194 4.984 11.833z" fill="#edbf50"/></g><g><path d="m338.178 179.932h-16.567c-1.141 0-2.228.231-3.217.648 2.977 1.256 5.067 4.201 5.067 7.635v74.55c0 18.299-14.834 33.133-33.133 33.133h23c18.299 0 33.133-14.834 33.133-33.133v-74.55c0-4.575-3.708-8.283-8.283-8.283z" fill="#edbf50"/></g></g></g></g><g><path d="m59.524 133.212-8.283 8.283c-2.929 2.929-2.929 7.678 0 10.606 1.465 1.464 3.385 2.197 5.304 2.197s3.839-.732 5.304-2.197l8.283-8.283c2.929-2.929 2.929-7.678 0-10.607-2.93-2.928-7.678-2.928-10.608.001z"/><path d="m421.289 210.026c-16.524-18.005-40.238-29.312-66.544-29.312h-2.683c-2.673-4.929-7.894-8.283-13.884-8.283h-16.567c-5.99 0-11.211 3.355-13.884 8.283h-11.847v-133.625c9.585-2.965 16.567-11.91 16.567-22.455v-9.134c0-8.547-6.953-15.5-15.5-15.5h-50.267c-8.547 0-15.5 6.953-15.5 15.5v9.133c0 10.546 6.983 19.49 16.567 22.455v12.478c0 4.142 3.357 7.5 7.5 7.5s7.5-3.358 7.5-7.5v-11.433h18.133v44.024l-18.133 18.133v-20.723c0-4.142-3.357-7.5-7.5-7.5s-7.5 3.358-7.5 7.5v91.148h-9.753v-.783c0-6.547-2.718-12.894-7.455-17.414-4.808-4.586-11.132-6.941-17.766-6.625-3.433.162-6.663 1.054-9.559 2.518-3.433-22.388-12.222-43.498-25.943-61.953-16.929-22.768-39.839-39.565-66.421-48.795-4.246-10.742-12.97-19.446-24.292-23.432-4.804-1.691-10.158-.94-14.322 2.008-4.179 2.959-6.674 7.781-6.674 12.898v.774c-.245-.001-49.016-.011-49.016-.011-5.117 0-9.939 2.495-12.897 6.674-2.949 4.164-3.699 9.519-2.008 14.322 4.701 13.352 15.959 23.099 29.387 26.138l-28.67 143.352c-2.375 11.876 4.498 23.721 15.989 27.552l22.179 7.393c2.481.827 5.021 1.222 7.531 1.222 8.924 0 17.469-4.994 21.617-13.314l14.085-28.251 17 40.8c3.972 9.531 5.363 19.98 4.025 30.219l-10.007 76.554c-.537 4.107 2.357 7.872 6.465 8.409.329.044.657.065.981.065 3.709 0 6.934-2.751 7.427-6.529l10.007-76.555c1.68-12.852-.067-25.969-5.053-37.933l-20.69-49.658c21.759-12.842 36.396-36.519 36.396-63.562 0-4.142-3.357-7.5-7.5-7.5s-7.5 3.358-7.5 7.5c0 32.404-26.362 58.767-58.767 58.767-4.143 0-7.5 3.358-7.5 7.5s3.357 7.5 7.5 7.5c4.53 0 8.959-.432 13.267-1.218l-13.56 27.198c-2.004 4.018-6.725 5.973-10.981 4.556l-22.179-7.392c-4.329-1.443-6.919-5.906-6.023-10.38l29.06-145.296s19.175.014 19.436.016v9.05c0 4.142 3.357 7.5 7.5 7.5s7.5-3.358 7.5-7.5v-57.963c0-.103 0-.414.343-.656.319-.227.577-.135.672-.101 10.239 3.605 17.118 13.325 17.118 24.188v42.815c0 4.142 3.357 7.5 7.5 7.5 4.142 0 7.5-3.358 7.5-7.5v-3.279c22.743 14.253 38.167 37.673 42.043 64.624 1.697 11.804 11.939 20.706 23.823 20.706h10.299v75.333c0 22.406 18.229 40.634 40.634 40.634h17.35v51.267h-58.767c-.013 0-.025-.001-.038-.001-.011 0-.022-.001-.033-.001-14.101-.038-25.562-11.521-25.562-25.632 0-4.142-3.357-7.5-7.5-7.5s-7.5 3.358-7.5 7.5c0 18.732 12.744 34.535 30.014 39.216l-27.616 67.016-47.438-12.983 2.324-17.777c.537-4.107-2.357-7.872-6.465-8.409-4.105-.537-7.872 2.357-8.408 6.464l-7.675 58.71c-1.021 7.814 3.948 15.247 11.561 17.29l35.661 9.568c1.354.363 2.72.537 4.067.537 6.259 0 12.136-3.752 14.616-9.768l45.013-109.232h53.745v95.219c-9.634 2.935-16.664 11.902-16.664 22.483v9.133c0 8.547 6.953 15.5 15.5 15.5h50.268c8.547 0 15.5-6.953 15.5-15.5v-9.133c0-10.51-6.935-19.429-16.47-22.425v-95.277h9.066c3.785 0 7.446-.531 10.925-1.504l45.633 110.736c2.479 6.016 8.354 9.768 14.614 9.768 1.349 0 2.715-.174 4.068-.537l36.097-9.685c7.256-1.947 12.159-8.801 11.658-16.297l-7.646-114.32c10.753-15.01 18.216-32.254 21.945-50.292 8.256 20.268 10.595 46.659 6.939 78.81-.702 6.177 2.156 12.026 7.462 15.264 2.558 1.561 5.394 2.339 8.226 2.338 3.038 0 6.07-.895 8.744-2.678l26.817-17.878c6.896-4.597 10.901-12.289 10.714-20.577-2.638-117.881-56.024-140.445-89.951-142.787zm-405.498-154.112c-.034-.097-.125-.354.101-.673.242-.342.554-.342.656-.342 0 0 48.771.01 49.016.011v18.138c-.261-.002-25.585-.016-25.585-.016-10.863 0-20.583-6.88-24.188-17.118zm239.457-22.781h-.567c-4.687 0-8.5-3.813-8.5-8.5v-9.133c0-.276.225-.5.5-.5h50.268c.275 0 .5.224.5.5v9.133c0 4.687-3.814 8.5-8.5 8.5h-.567zm7.5 98.371 18.133-18.133v67.343h-18.133zm43.08 64.211v50.483c0 4.999-4.067 9.066-9.066 9.066h-49.7c-4.999 0-9.066-4.067-9.066-9.066v-50.483zm-135.242-31.124c-4.95-34.42-26.083-63.882-56.891-79.722v-20.055c43.718 18.471 73.113 59.937 75.92 107.618h-10.053c-4.548 0-8.322-3.298-8.976-7.841zm34.275 98.174v-82.365c0-5.028 3.866-9.3 8.618-9.524.148-.007.297-.01.445-.01 2.349 0 4.558.88 6.261 2.505 1.812 1.729 2.81 4.059 2.81 6.561v66.267c0 13.27 10.796 24.066 24.066 24.066h49.7c13.271 0 24.066-10.796 24.066-24.066v-57.983c0-.432.352-.783.783-.783h16.567c.432 0 .783.352.783.783v74.55c0 14.135-11.499 25.634-25.634 25.634h-24.85-33.134-24.85c-14.132-.002-25.631-11.501-25.631-25.635zm57.983 170.29 18.134-18.134v48.945h-18.134zm18.134-39.347-18.134 18.134v-42.177h18.134zm-18.134-57.176h18.134v18.133h-18.134zm18.134-33.134v18.133h-18.134v-18.133zm-146.688 170.243-35.661-9.568c-.378-.102-.625-.471-.574-.858l3.388-25.918 43.642 11.944-9.866 23.942c-.151.363-.552.558-.929.458zm163.158 22.859c0 .276-.225.5-.5.5h-50.268c-.275 0-.5-.224-.5-.5v-9.133c0-4.687 3.813-8.5 8.5-8.5h.664 33.134.47c4.686 0 8.5 3.813 8.5 8.5zm115.048-32.544-36.097 9.684c-.371.102-.776-.094-.927-.458l-8.869-21.521 44.896-12.046 1.574 23.53c.026.374-.218.714-.577.811zm-5.768-122.858c-1.077 1.436-1.603 3.21-1.483 5l5.235 78.261-49.639 13.318-31.393-76.18c9.849-7.422 16.23-19.212 16.23-32.466 0-4.142-3.357-7.5-7.5-7.5s-7.5 3.358-7.5 7.5c0 14.134-11.499 25.633-25.634 25.633h-9.066v-51.267h17.35c22.405 0 40.634-18.228 40.634-40.634v-67.05h.783c41.539 0 75.333 33.794 75.333 75.334 0 25.097-8.292 49.974-23.35 70.051zm85.479 19.812-26.817 17.878c-.143.096-.413.274-.834.017-.431-.263-.393-.59-.373-.766 5.229-45.987-1.204-81.773-19.116-106.431.001-.187.011-.373.011-.559 0-15.921-4.146-30.89-11.406-43.893 12.862 3.351 23.932 10.279 33.022 20.745 18.523 21.327 28.465 56.738 29.551 105.251.07 3.125-1.44 6.025-4.038 7.758z"/></g></g></svg>