<svg id="Capa_1" enable-background="new 0 0 512 512" height="512" viewBox="0 0 512 512" width="512" xmlns="http://www.w3.org/2000/svg"><g><g><g><path d="m374.862 504.5h-294.175c-8.6 0-15.572-6.972-15.572-15.572v-402.288c0-8.6 6.972-15.572 15.572-15.572h294.176c8.6 0 15.572 6.972 15.572 15.572v402.287c0 8.601-6.972 15.573-15.573 15.573z" fill="#f6f1f1"/></g><g><path d="m374.862 71.068h-35.663v226.319 49.688 3.027c0 7.253 1.485 14.296 4.416 20.934l18.775 42.516c4.907 11.114 15.905 18.305 28.044 18.363v-345.275c.001-8.6-6.971-15.572-15.572-15.572z" fill="#e2dfe2"/></g><g><path d="m86.714 488.927v-402.287c0-8.6 6.972-15.573 15.573-15.573h-21.6c-8.6 0-15.572 6.972-15.572 15.573v402.287c0 8.6 6.972 15.573 15.572 15.573h21.6c-8.601 0-15.573-6.972-15.573-15.573z" fill="#e2dfe2"/></g><g><path d="m176.337 329.891h-61.282c-2.761 0-5-2.239-5-5v-61.282c0-2.761 2.239-5 5-5h61.282c2.761 0 5 2.239 5 5v61.282c0 2.761-2.239 5-5 5z" fill="#77d192"/></g><g><path d="m124.694 324.891v-61.282c0-2.761 2.239-5 5-5h-14.64c-2.761 0-5 2.239-5 5v61.282c0 2.761 2.239 5 5 5h14.64c-2.761 0-5-2.239-5-5z" fill="#5bc175"/></g><g><path d="m176.337 224.564h-61.282c-2.761 0-5-2.239-5-5v-61.282c0-2.761 2.239-5 5-5h61.282c2.761 0 5 2.239 5 5v61.282c0 2.762-2.239 5-5 5z" fill="#77d192"/></g><g><path d="m124.694 219.564v-61.282c0-2.761 2.239-5 5-5h-14.64c-2.761 0-5 2.239-5 5v61.282c0 2.761 2.239 5 5 5h14.64c-2.761 0-5-2.238-5-5z" fill="#5bc175"/></g><g><path d="m176.337 435.405h-61.282c-2.761 0-5-2.239-5-5v-61.282c0-2.761 2.239-5 5-5h61.282c2.761 0 5 2.239 5 5v61.282c0 2.762-2.239 5-5 5z" fill="#77d192"/></g><g><path d="m124.694 430.405v-61.282c0-2.761 2.239-5 5-5h-14.64c-2.761 0-5 2.239-5 5v61.282c0 2.761 2.239 5 5 5h14.64c-2.761 0-5-2.238-5-5z" fill="#5bc175"/></g><g><path d="m258.855 33.644v-10.664c0-8.549-6.931-15.48-15.48-15.48h-31.2c-8.549 0-15.48 6.931-15.48 15.48v10.664c0 2.112-1.712 3.824-3.824 3.824h-28.772c-6.917 0-12.524 5.607-12.524 12.524v46.959c0 6.917 5.607 12.524 12.524 12.524h127.351c6.917 0 12.524-5.607 12.524-12.524v-46.959c0-6.917-5.607-12.524-12.524-12.524h-28.772c-2.111 0-3.823-1.712-3.823-3.824z" fill="#e1761c"/></g><g><path d="m216.854 33.644v-10.664c0-8.55 6.931-15.48 15.48-15.48h-20.16c-8.549 0-15.48 6.931-15.48 15.48v10.664c0 2.112-1.712 3.824-3.824 3.824h20.16c2.112 0 3.824-1.712 3.824-3.824z" fill="#d76718"/></g><g><path d="m171.734 96.951v-46.959c0-6.917 5.607-12.524 12.524-12.524h-20.16c-6.917 0-12.524 5.607-12.524 12.524v46.959c0 6.917 5.607 12.524 12.524 12.524h20.16c-6.916 0-12.524-5.607-12.524-12.524z" fill="#d76718"/></g><g><path d="m364.199 89.799v-38.233c0-9.636 7.811-17.447 17.447-17.447h17.866c9.636 0 17.447 7.811 17.447 17.447v38.233z" fill="#b3dafe"/></g><g><path d="m364.199 322.386v27.716c0 3.731.778 7.421 2.285 10.833l18.775 42.517c2.041 4.622 8.599 4.622 10.64 0l18.775-42.517c1.507-3.413 2.285-7.103 2.285-10.833v-27.716z" fill="#b5adb7"/></g><g><path d="m364.199 89.799h52.761v232.275h-52.761z" fill="#365f7e"/></g><g><path d="m398.207 34.119h-16.56c-9.636 0-17.448 7.811-17.448 17.447v38.233h16.56v-38.233c0-9.636 7.812-17.447 17.448-17.447z" fill="#8ac9fe"/></g><g><path d="m383.045 360.935c-1.507-3.413-2.285-7.103-2.285-10.833v-27.716h-16.56v27.716c0 3.731.778 7.421 2.286 10.833l18.775 42.517c2.041 4.622 8.599 4.622 10.64 0l2.96-6.703z" fill="#a59da7"/></g><g><path d="m364.199 89.799h16.56v232.275h-16.56z" fill="#2c4d66"/></g></g><g><path d="m135.385 305.507c1.782 1.876 4.288 2.955 6.875 2.959h.014c2.583 0 5.086-1.071 6.872-2.94l12.23-12.812c2.86-2.996 2.75-7.744-.247-10.604s-7.744-2.751-10.604.246l-8.242 8.635-1.406-1.48c-2.854-3.003-7.601-3.123-10.603-.271-3.003 2.853-3.125 7.601-.272 10.604z"/><path d="m188.836 263.609c0-6.893-5.607-12.5-12.5-12.5h-61.282c-6.893 0-12.5 5.607-12.5 12.5v61.281c0 6.893 5.607 12.5 12.5 12.5h61.282c6.893 0 12.5-5.607 12.5-12.5zm-15 58.782h-56.282v-56.281h56.282z"/><path d="m218.055 337.391h106.44c4.142 0 7.5-3.357 7.5-7.5s-3.358-7.5-7.5-7.5h-106.44c-4.142 0-7.5 3.357-7.5 7.5s3.358 7.5 7.5 7.5z"/><path d="m218.055 306.761h106.44c4.142 0 7.5-3.357 7.5-7.5s-3.358-7.5-7.5-7.5h-106.44c-4.142 0-7.5 3.357-7.5 7.5s3.358 7.5 7.5 7.5z"/><path d="m135.388 200.184c1.783 1.876 4.29 2.953 6.877 2.955h.009c2.584 0 5.089-1.072 6.872-2.94l12.23-12.812c2.86-2.996 2.75-7.743-.246-10.604-2.996-2.859-7.744-2.751-10.604.246l-8.243 8.634-1.405-1.479c-2.854-3.003-7.601-3.123-10.603-.271-3.003 2.853-3.125 7.601-.272 10.604z"/><path d="m188.836 158.282c0-6.893-5.607-12.5-12.5-12.5h-61.282c-6.893 0-12.5 5.607-12.5 12.5v61.282c0 6.893 5.607 12.5 12.5 12.5h61.282c6.893 0 12.5-5.607 12.5-12.5zm-15 58.782h-56.282v-56.282h56.282z"/><path d="m218.055 232.064h106.44c4.142 0 7.5-3.357 7.5-7.5s-3.358-7.5-7.5-7.5h-106.44c-4.142 0-7.5 3.357-7.5 7.5s3.358 7.5 7.5 7.5z"/><path d="m218.055 201.435h106.44c4.142 0 7.5-3.357 7.5-7.5s-3.358-7.5-7.5-7.5h-106.44c-4.142 0-7.5 3.357-7.5 7.5s3.358 7.5 7.5 7.5z"/><path d="m135.388 411.024c1.783 1.876 4.29 2.953 6.877 2.955h.009c2.584 0 5.089-1.072 6.872-2.94l12.23-12.812c2.86-2.996 2.75-7.743-.246-10.604s-7.744-2.751-10.604.246l-8.243 8.634-1.405-1.479c-2.854-3.002-7.601-3.123-10.603-.271-3.003 2.853-3.125 7.601-.272 10.604z"/><path d="m176.336 356.623h-61.282c-6.893 0-12.5 5.607-12.5 12.5v61.282c0 6.893 5.607 12.5 12.5 12.5h61.282c6.893 0 12.5-5.607 12.5-12.5v-61.282c0-6.893-5.607-12.5-12.5-12.5zm-2.5 71.282h-56.282v-56.282h56.282z"/><path d="m345.495 427.905h-127.44c-4.142 0-7.5 3.357-7.5 7.5s3.358 7.5 7.5 7.5h127.44c4.142 0 7.5-3.357 7.5-7.5s-3.358-7.5-7.5-7.5z"/><path d="m210.555 404.775c0 4.143 3.358 7.5 7.5 7.5h127.44c4.142 0 7.5-3.357 7.5-7.5s-3.358-7.5-7.5-7.5h-127.44c-4.142 0-7.5 3.358-7.5 7.5z"/><path d="m390.435 434.1c-4.142 0-7.5 3.357-7.5 7.5v47.328c0 4.451-3.622 8.072-8.073 8.072h-294.175c-4.451 0-8.072-3.621-8.072-8.072v-402.287c0-4.451 3.621-8.072 8.072-8.072h63.388v18.383c0 11.041 8.983 20.023 20.024 20.023h127.352c11.041 0 20.024-8.982 20.024-20.023v-18.384h19.725c4.142 0 7.5-3.357 7.5-7.5s-3.358-7.5-7.5-7.5h-19.725v-13.576c0-11.041-8.983-20.024-20.024-20.024h-25.096v-6.988c0-12.672-10.309-22.98-22.98-22.98h-31.2c-12.671 0-22.98 10.309-22.98 22.98v6.987h-25.096c-11.041 0-20.024 8.983-20.024 20.024v13.576h-63.388c-12.722 0-23.072 10.351-23.072 23.072v402.287c0 12.722 10.35 23.072 23.072 23.072h294.176c12.722 0 23.073-10.351 23.073-23.072v-47.326c-.001-4.143-3.359-7.5-7.501-7.5zm-231.36-384.108c0-2.771 2.254-5.024 5.024-5.024h28.772c6.244 0 11.324-5.079 11.324-11.323v-10.665c0-4.4 3.58-7.98 7.98-7.98h31.2c4.4 0 7.98 3.58 7.98 7.98v10.664c0 6.244 5.08 11.323 11.324 11.323h28.772c2.77 0 5.024 2.254 5.024 5.024v46.959c0 2.77-2.254 5.023-5.024 5.023h-127.352c-2.77 0-5.024-2.254-5.024-5.023z"/><path d="m438.886 108.219h-14.426v-56.653c0-13.757-11.191-24.948-24.948-24.948h-17.866c-13.756 0-24.948 11.191-24.948 24.948 0 0 .007 270.612.008 270.664-.001.052-.008.104-.008.156v27.716c0 4.804.984 9.468 2.925 13.862l18.775 42.517c2.162 4.896 6.829 7.938 12.181 7.938s10.019-3.042 12.181-7.938l18.775-42.516c1.941-4.396 2.925-9.06 2.925-13.864v-27.715c0-.053-.007-.104-.008-.156.001-.052.008-48.912.008-48.912 0-4.143-3.358-7.5-7.5-7.5s-7.5 3.357-7.5 7.5v41.256h-37.761v-217.275h37.761v144.819c0 4.143 3.358 7.5 7.5 7.5s7.5-3.357 7.5-7.5v-118.899h14.425c.276 0 .5.225.5.5v84.034c0 4.143 3.358 7.5 7.5 7.5s7.5-3.357 7.5-7.5v-84.034c.001-8.547-6.952-15.5-15.499-15.5zm-29.426 241.883c0 2.705-.554 5.33-1.646 7.805l-17.234 39.027-17.234-39.028c-1.093-2.474-1.646-5.099-1.646-7.803v-20.216h37.761v20.215zm-37.761-267.803v-30.733c0-5.485 4.462-9.948 9.948-9.948h17.866c5.485 0 9.948 4.463 9.948 9.948v30.732h-37.762z"/></g></g></svg>