<svg id="Capa_1" enable-background="new 0 0 512.001 512.001" height="512" viewBox="0 0 512.001 512.001" width="512" xmlns="http://www.w3.org/2000/svg"><g><g><path d="m431.341 220.416-210.926 210.925c-10.989 10.989-23.944 18.813-37.733 23.471-5.668 1.915-11.427 2.662-17.299 3.508-29.436 4.239-59.924-5.371-82.571-28.017l-3.259-3.259c-38.152-38.152-32.025-101.89 6.128-140.043l204.086-204.425c14.446-14.446 32.444-27.003 51.113-30.51 30.637-5.754 63.496 3.222 87.202 26.929l3.259 3.259c38.152 38.152 38.152 100.01 0 138.162z" fill="#afefa5"/><path d="m403.874 200.267-203.608 203.607c-11.292 11.292-25.643 17.662-40.385 19.109 0 0-3.585-.183-5.37-.152-17.363.304-32.985-7.176-46.234-20.426-25.903-25.903-25.01-66.777.894-92.681l201.128-201.638c11.647-11.647 26.318-19.682 41.547-20.855.029-.002.057-.004.086-.007 18.613-1.41 37.708 5.003 51.942 19.237 25.903 25.904 25.903 67.902 0 93.806z" fill="#7dc3ee"/><g><path d="m117.771 392.561c7.06 7.06 26.87 22.79 42.11 30.42-19.08 1.88-38.81-4.49-53.42-19.11-12.95-12.95-19.42-29.93-19.42-46.9s6.47-33.95 19.42-46.9l203.61-203.61c11.66-11.66 26.611-18.077 41.861-19.237l-234.161 234.157c-9.5 9.51-14.74 22.15-14.74 35.59s5.24 26.08 14.74 35.59z" fill="#64acdc"/></g><path d="m164.971 456.591c6.53 0 12.936-.759 19.126-2.269-34.41 12.23-74.296 4.559-101.846-22.981l-3.26-3.26c-38.15-38.15-38.15-100.01 0-138.16l210.93-210.93c14.45-14.44 32.289-23.425 50.959-26.925l-249.869 249.875c-15.24 15.24-23.63 35.51-23.63 57.06s8.39 41.82 23.63 57.06l16.9 16.89c15.24 15.24 35.5 23.64 57.06 23.64z" fill="#8ce1a4"/><g><path d="m149.329 359.963c0-2.365-.532-4.606-1.483-6.609 0 0-.243-.274-.313-.409-2.577-4.956-8.082-7.699-14.074-7.699-8.519 0-14.266 6.198-14.266 14.717 0 6.021 2.836 10.875 7.867 13.416.646.326 1.911 1.204 1.911 1.204 1.549.522 3.208.806 4.933.806 8.518-.001 15.425-6.907 15.425-15.426z" fill="#ffe07d"/><path d="m147.845 353.354c-1.55-.53-3.214-.813-4.944-.813-8.52 0-15.42 6.9-15.42 15.42 0 2.37.529 4.612 1.489 6.622-6.1-2.05-10.489-7.822-10.489-14.622 0-8.52 6.9-15.42 15.42-15.42 6.15 0 11.464 3.603 13.944 8.813z" fill="#ffd064"/></g><g><path d="m392.023 160.456c0-2.365-.532-4.606-1.483-6.609 0 0-.243-.274-.313-.409-2.577-4.956-8.082-7.699-14.074-7.699-8.519 0-14.266 6.198-14.266 14.717 0 6.021 2.836 10.875 7.867 13.416.646.326 1.911 1.204 1.911 1.204 1.549.522 3.208.806 4.933.806 8.519 0 15.425-6.906 15.425-15.426z" fill="#ffe07d"/><path d="m390.54 153.848c-1.55-.53-3.214-.813-4.944-.813-8.52 0-15.42 6.9-15.42 15.42 0 2.37.529 4.612 1.489 6.622-6.1-2.05-10.489-7.822-10.489-14.622 0-8.52 6.9-15.42 15.42-15.42 6.149 0 11.464 3.603 13.944 8.813z" fill="#ffd064"/></g><g><g><path d="m271.398 229.25c-3.8-.047-7.59-1.49-10.536-4.341-.375-.363-.727-.74-1.057-1.13 0 0-.088-1.365-.378-1.788-4.069-5.925-2.959-13.689 2.234-19.053l16.404-17.202c5.518-5.699 14.416-6.966 20.561-2.282.198.151.678.335.678.335.248.211.49.431.727.661 6.121 5.926 6.279 15.691.353 21.813l-17.71 18.293c-3.073 3.173-7.181 4.744-11.276 4.694z" fill="#ffe07d"/></g><g><path d="m299.304 183.788-39.499 39.99c-5.06-5.98-4.864-14.927.706-20.687l17.71-18.29c5.69-5.88 14.943-6.263 21.083-1.013z" fill="#ffd064"/></g></g><g><g><path d="m243.377 318.425c-2.154 3.131-5.462 5.476-9.471 6.337-.51.109-1.02.192-1.527.249 0 0-1.183-.687-1.696-.681-7.187.083-13.02-5.161-14.586-12.46l-5.162-23.203c-1.664-7.756 2.236-15.854 9.548-18.352.236-.081.655-.377.655-.377.313-.088.631-.167.954-.236 8.33-1.787 16.531 3.516 18.319 11.847l5.342 24.895c.926 4.319-.055 8.607-2.376 11.981z" fill="#ffe07d"/></g><g><path d="m221.138 269.938 11.24 55.073c-7.784.876-15.108-4.267-16.794-12.1l-5.339-24.893c-1.717-8 3.114-15.9 10.893-18.08z" fill="#ffd064"/></g></g></g><g><path d="m388.204 226.544 20.974-20.974c28.785-28.786 28.786-75.626 0-104.413-13.945-13.944-32.485-21.624-52.206-21.624-19.721.001-38.261 7.681-52.206 21.625l-203.609 203.608c-9.793 9.794-16.611 22.07-19.718 35.503-.934 4.036 1.581 8.064 5.616 8.997.569.132 1.138.195 1.697.195 3.412 0 6.498-2.345 7.3-5.812 2.474-10.694 7.906-20.472 15.712-28.276l203.608-203.608c11.111-11.111 25.885-17.231 41.599-17.231s30.487 6.12 41.599 17.232c22.938 22.937 22.938 60.26 0 83.197l-20.974 20.974c-2.929 2.93-2.929 7.678 0 10.607 2.93 2.928 7.678 2.927 10.608 0z"/><path d="m87.775 369.418c-3.958 1.221-6.177 5.42-4.956 9.378 3.515 11.393 9.855 21.898 18.339 30.382 26.968 28.233 76.823 28.835 104.412 0l157.782-157.782c2.929-2.93 2.929-7.678 0-10.607-2.93-2.928-7.678-2.928-10.607 0l-157.782 157.782c-22.938 22.939-60.26 22.939-83.197 0-6.763-6.762-11.815-15.129-14.612-24.196-1.222-3.958-5.415-6.175-9.379-4.957z"/><path d="m110.977 359.963c0 12.641 10.284 22.925 22.926 22.925s22.926-10.284 22.926-22.925c0-12.642-10.284-22.926-22.926-22.926s-22.926 10.285-22.926 22.926zm30.852 0c0 4.37-3.556 7.925-7.926 7.925s-7.926-3.555-7.926-7.925 3.556-7.926 7.926-7.926 7.926 3.556 7.926 7.926z"/><path d="m399.525 160.458c0-12.642-10.284-22.926-22.926-22.926s-22.926 10.284-22.926 22.926 10.284 22.926 22.926 22.926 22.926-10.284 22.926-22.926zm-30.851 0c0-4.37 3.556-7.926 7.926-7.926s7.926 3.556 7.926 7.926-3.556 7.926-7.926 7.926-7.926-3.556-7.926-7.926z"/><path d="m184.087 311.552c-1.728-.163-2.232-.639-4.089-2.626-2.461-2.632-6.179-6.61-13.635-7.316-7.453-.704-11.854 2.504-14.765 4.627-2.196 1.603-2.775 1.979-4.51 1.812-4.106-.382-7.782 2.637-8.174 6.76-.391 4.124 2.636 7.783 6.76 8.174 7.446.694 11.854-2.504 14.765-4.627 2.196-1.603 2.775-1.982 4.51-1.812 1.729.163 2.232.639 4.09 2.626 1.826 2.166 6.912 6.91 14.35 7.351 3.823 0 7.09-2.911 7.458-6.794.39-4.125-2.636-7.784-6.76-8.175z"/><path d="m340.449 123.228c-3.949-1.248-8.162.945-9.409 4.896-.522 1.655-1.093 2.049-3.425 3.447-3.09 1.854-7.759 4.655-10.013 11.796-2.254 7.143-.039 12.116 1.428 15.408 1.106 2.484 1.348 3.134.825 4.789-1.246 3.95.945 8.163 4.896 9.409.751.237 1.511.35 2.259.35 3.186 0 6.141-2.046 7.15-5.245 2.254-7.142.038-12.115-1.428-15.406-1.106-2.484-1.348-3.134-.825-4.79.522-1.655 1.093-2.049 3.425-3.447 3.09-1.854 7.759-4.655 10.013-11.797 1.246-3.951-.946-8.164-4.896-9.41z"/><path d="m304.145 245.144c-7.309 1.632-10.5 6.044-12.612 8.963-1.594 2.203-2.035 2.737-3.729 3.116-1.696.378-2.321.082-4.701-1.233-3.154-1.743-7.915-4.379-15.228-2.745-4.043.902-6.588 4.912-5.685 8.954.901 4.042 4.91 6.59 8.954 5.685 1.695-.378 2.321-.082 4.701 1.233 2.458 1.359 5.894 3.259 10.749 3.259 1.375-.001 2.865-.153 4.478-.514 7.31-1.632 10.501-6.043 12.613-8.962 1.595-2.204 2.035-2.738 3.729-3.117 4.043-.902 6.588-4.912 5.685-8.954-.902-4.044-4.912-6.588-8.954-5.685z"/><path d="m203.117 288.952 4.7 25.023c2.373 11.868 14.129 20.702 26.767 18.3 11.185-1.905 20.777-13.938 18.298-26.764l-4.7-25.023c-2.334-12.423-14.337-20.624-26.767-18.3-12.422 2.338-20.631 14.344-18.298 26.764zm22.535-12.158c3.736 0 7.072 2.661 7.787 6.464l4.7 25.021c.521 3.152-1.064 7.977-6.326 9.254-4.296.812-8.446-2.031-9.254-6.327l-4.7-25.023c-.807-4.294 2.032-8.444 6.326-9.252.493-.093.983-.137 1.467-.137z"/><path d="m272.829 179.585-17.709 18.294c-7.983 7.969-8.971 23.453.526 32.419 3.319 3.285 9.785 6.486 15.939 6.452 6.182 0 12.174-2.534 16.478-6.979l17.71-18.294c8.792-9.082 8.557-23.624-.527-32.42-9.086-8.789-23.627-8.552-32.417.528zm22.167 21.459-17.709 18.294c-2.272 2.239-7.224 3.726-11.208.182-2.292-2.323-3.709-7.158-.182-11.207l17.709-18.294c2.405-2.301 7.078-3.71 11.208-.183 3.14 3.041 3.222 8.069.182 11.208z"/><path d="m511.972 188.943c-.361-4.125-3.991-7.172-8.126-6.817-11.374.996-16.876-.666-23.248-2.591-5.505-1.661-11.604-3.497-21.154-3.517 1.555-7.244 2.359-14.705 2.359-22.29 0-28.099-10.942-54.516-30.812-74.384-4.521-4.522-9.462-8.645-14.684-12.25-3.407-2.355-8.08-1.499-10.433 1.909-2.354 3.408-1.499 8.079 1.909 10.433 4.477 3.092 8.717 6.63 12.601 10.515 35.168 35.167 35.168 92.388 0 127.555l-202.879 202.88c-33.065 34.612-93.92 35.163-127.555-.001-35.167-35.166-35.167-92.388 0-127.555l202.879-202.88c22.612-22.611 54.656-31.479 85.72-23.725 4.014 1.002 8.09-1.441 9.093-5.46 1.004-4.019-1.441-8.09-5.46-9.093-15.124-3.778-30.971-4.14-46.225-1.103-.25-8.427-1.945-14.054-3.489-19.167-1.925-6.373-3.586-11.876-2.591-23.248.361-4.127-2.691-7.765-6.817-8.126-4.129-.364-7.765 2.691-8.126 6.817-1.247 14.25 1.102 22.029 3.174 28.893 1.669 5.525 3.136 10.403 2.85 19.012-11.728 4.226-22.645 10.534-32.204 18.608-2.134-5.297-2.725-9.386-3.375-13.894-1.022-7.096-2.181-15.139-9.333-27.526-2.07-3.588-6.659-4.815-10.245-2.745-3.587 2.071-4.816 6.658-2.745 10.245 5.707 9.886 6.527 15.576 7.477 22.165.883 6.128 1.876 12.969 6.734 22.696l-25.007 25.007c-3.279-5.429-4.574-9.718-6-14.47-2.1-6.997-4.479-14.929-13.265-26.174-2.551-3.266-7.267-3.843-10.527-1.293-3.265 2.55-3.843 7.264-1.293 10.527 7.05 9.023 8.749 14.689 10.718 21.25 1.762 5.873 3.737 12.413 9.517 21.01l-24.01 24.009c-4.247-5.245-6.032-9.4-8.016-14.03-2.824-6.59-6.025-14.059-16.141-24.174-2.928-2.928-7.677-2.929-10.606.001-2.929 2.929-2.929 7.678.001 10.606 8.072 8.071 10.337 13.356 12.959 19.475 2.297 5.359 4.843 11.299 11.154 18.771l-25.724 25.724c-4.247-5.244-6.031-9.399-8.016-14.03-2.824-6.589-6.025-14.058-16.14-24.173-2.93-2.928-7.678-2.928-10.607 0-2.929 2.93-2.929 7.678 0 10.607 8.072 8.071 10.337 13.355 12.959 19.475 2.297 5.358 4.844 11.299 11.154 18.771l-24.324 24.324c-5.249-5.056-7.477-9.07-9.964-13.567-3.396-6.145-7.246-13.108-18.377-22.122-3.219-2.605-7.941-2.107-10.549 1.109-2.606 3.219-2.109 7.941 1.109 10.549 8.857 7.172 11.561 12.061 14.689 17.721 2.712 4.906 5.724 10.337 12.488 16.913l-22.682 22.682c-6.988-4.005-10.269-7.625-13.957-11.709-4.758-5.271-10.151-11.243-23.015-17.518-3.725-1.813-8.213-.268-10.029 3.453-1.815 3.724-.27 8.213 3.453 10.029 10.253 5 14.055 9.211 18.458 14.087 3.486 3.862 7.327 8.103 14.186 12.562l-22.521 22.521c-.149.149-.293.302-.441.452-8.178-2.675-12.259-5.721-16.877-9.176-5.741-4.295-12.247-9.162-26.064-12.864-4.002-1.074-8.114 1.303-9.186 5.303-1.072 4.001 1.302 8.114 5.303 9.186 11.027 2.955 15.631 6.398 20.961 10.387 4.039 3.022 8.47 6.326 15.547 9.309-5.91 8.134-10.507 16.929-13.797 26.094-9.17.442-13.992-1.063-19.471-2.781-6.646-2.085-14.172-4.446-28.47-3.198-4.126.361-7.179 3.999-6.817 8.126.361 4.125 3.993 7.19 8.126 6.817 11.326-.995 16.585.657 22.671 2.566 5.149 1.616 10.841 3.393 19.787 3.532-6.614 33.32 2.959 69.246 28.73 95.018 26.095 25.931 61.793 35.562 96.673 28.39.012 9.584 1.852 15.699 3.518 21.216 1.925 6.373 3.586 11.876 2.591 23.248-.361 4.127 2.691 7.765 6.817 8.126.223.02.443.028.663.028 3.847 0 7.121-2.942 7.463-6.846 1.247-14.25-1.102-22.029-3.174-28.893-1.814-6.007-3.392-11.246-2.734-21.35 8.829-3.347 17.294-7.924 25.13-13.729 3.206 8.409 6.875 13.333 10.202 17.78 3.988 5.33 7.432 9.934 10.387 20.961.897 3.351 3.928 5.561 7.239 5.561.643 0 1.296-.083 1.946-.258 4.001-1.071 6.375-5.185 5.303-9.186-3.702-13.817-8.569-20.323-12.864-26.064-3.795-5.073-7.097-9.5-9.954-19.42l22.446-22.447c4.88 8.012 9.544 12.254 13.76 16.078 4.932 4.471 9.19 8.333 14.194 18.593 1.3 2.664 3.969 4.214 6.747 4.214 1.103 0 2.224-.245 3.282-.761 3.723-1.816 5.269-6.306 3.453-10.029-6.271-12.855-12.29-18.313-17.602-23.129-4.482-4.063-8.409-7.641-12.844-15.957l22.223-22.223c7.125 7.649 13.012 10.954 18.298 13.908 5.812 3.248 10.83 6.053 18.014 14.924 1.482 1.83 3.648 2.78 5.834 2.78 1.657 0 3.326-.547 4.715-1.671 3.219-2.607 3.716-7.33 1.109-10.549-9.002-11.117-16.096-15.081-22.354-18.578-4.965-2.775-9.355-5.239-15.006-11.425l24.214-24.214c8.321 7.461 14.775 10.229 20.552 12.706 6.119 2.622 11.403 4.887 19.475 12.959 1.465 1.464 3.385 2.196 5.304 2.196s3.839-.732 5.304-2.196c2.929-2.93 2.929-7.678 0-10.607-10.115-10.114-17.584-13.315-24.173-16.14-5.148-2.206-9.712-4.173-15.835-9.544l25.747-25.747c8.32 7.461 14.774 10.229 20.552 12.706 6.118 2.622 11.403 4.887 19.475 12.959 1.465 1.465 3.384 2.197 5.304 2.197 1.919 0 3.839-.732 5.303-2.196 2.93-2.929 2.93-7.678.001-10.606-10.115-10.115-17.584-13.316-24.174-16.141-5.147-2.206-9.711-4.173-15.835-9.544l23.832-23.832c9.876 7.177 16.995 9.258 23.33 11.099 6.393 1.856 11.914 3.461 20.91 10.489 1.371 1.071 2.997 1.59 4.612 1.59 2.229 0 4.436-.989 5.915-2.883 2.55-3.264 1.972-7.978-1.293-10.527-11.271-8.807-19.075-11.074-25.96-13.074-5.344-1.552-10.087-2.94-16.752-7.456l24.879-24.879c10.914 5.849 18.313 6.923 24.892 7.871 6.589.949 12.279 1.77 22.165 7.477 1.182.682 2.471 1.006 3.743 1.006 2.592 0 5.113-1.345 6.502-3.751 2.071-3.587.842-8.174-2.745-10.245-12.388-7.152-20.431-8.311-27.526-9.333-5.119-.738-9.706-1.408-16.13-4.343 8.035-9.324 14.28-19.841 18.569-31.127 10.063-.65 15.292.929 21.287 2.74 5.535 1.671 11.664 3.521 21.304 3.521 2.313 0 4.83-.106 7.589-.348 4.125-.361 7.178-3.998 6.816-8.125z"/><path d="m337.221 197.481c0 4.142 3.358 7.5 7.5 7.5s7.5-3.358 7.5-7.5-3.358-7.5-7.5-7.5-7.5 3.358-7.5 7.5z"/><path d="m237.041 239.641c0-4.142-3.358-7.5-7.5-7.5s-7.5 3.358-7.5 7.5 3.358 7.5 7.5 7.5 7.5-3.358 7.5-7.5z"/><circle cx="187.381" cy="359.963" r="7.5"/></g></g></svg>