<svg id="Capa_1" enable-background="new 0 0 512 512" height="512" viewBox="0 0 512 512" width="512" xmlns="http://www.w3.org/2000/svg"><g><g><g><path d="m33.835 268.777c0 34.888 22.868 64.426 54.429 74.467-10.39 10.686-16.799 25.263-16.799 41.345 0 32.765 26.561 59.327 59.327 59.327 5.687 0 11.184-.806 16.391-2.301.461 34.809 28.822 62.886 63.741 62.886 17.603 0 33.54-7.135 45.076-18.671 11.536 11.536 27.473 18.671 45.076 18.671 34.919 0 63.28-28.076 63.741-62.886 5.206 1.495 10.704 2.301 16.391 2.301 32.765 0 59.327-26.561 59.327-59.327 0-16.082-6.409-30.659-16.799-41.345 31.561-10.042 54.429-39.58 54.429-74.467 0-37.575-26.52-68.955-61.864-76.444 6.242-9.177 9.89-20.26 9.89-32.195 0-28.009-20.093-51.315-46.649-56.315 4.872-9.168 7.633-19.63 7.633-30.736 0-36.223-29.365-65.587-65.587-65.587-36.224 0-65.588 29.364-65.588 65.587 0-36.223-29.364-65.587-65.587-65.587s-65.587 29.364-65.587 65.587c0 11.106 2.761 21.568 7.633 30.736-26.556 5-46.649 28.306-46.649 56.315 0 11.935 3.648 23.018 9.89 32.195-35.344 7.489-61.865 38.869-61.865 76.444z" fill="#e58e82"/></g><g><path d="m96.666 384.589c0-16.082 6.409-30.659 16.799-41.345-31.561-10.042-54.429-39.58-54.429-74.468 0-37.575 26.52-68.955 61.864-76.444-6.242-9.177-9.89-20.26-9.89-32.195 0-28.009 20.093-51.315 46.649-56.314-4.872-9.168-7.633-19.63-7.633-30.736 0-31.912 22.795-58.488 52.987-64.365-4.079-.794-8.289-1.222-12.6-1.222-36.223 0-65.587 29.364-65.587 65.587 0 11.106 2.761 21.568 7.633 30.736-26.556 5-46.649 28.306-46.649 56.314 0 11.935 3.648 23.018 9.89 32.195-35.344 7.489-61.864 38.869-61.864 76.444 0 34.888 22.868 64.426 54.429 74.468-10.39 10.686-16.799 25.263-16.799 41.345 0 32.765 26.561 59.327 59.327 59.327 4.328 0 8.545-.47 12.609-1.352-26.716-5.776-46.736-29.532-46.736-57.975z" fill="#e06c57"/></g></g><g><path d="m349.597 282.354c9.971-6.108 20.602-7.039 20.879-7.062 4.122-.302 7.224-3.883 6.933-8.007-.292-4.132-3.889-7.245-8.009-6.954-.564.04-13.976 1.065-27.083 8.896-2.778 1.66-5.659 3.698-8.442 6.181-5.115-9.085-14.905-20.749-32.877-26.147-3.964-1.189-8.148 1.059-9.34 5.026-1.191 3.967 1.059 8.149 5.026 9.34 17.773 5.338 24.609 18.921 26.785 24.755-4.511 8.14-7.358 18.727-6.648 32.454.207 4.005 3.519 7.113 7.483 7.113.13 0 .262-.003.394-.01 4.137-.214 7.317-3.741 7.103-7.877-.893-17.24 5.095-29.927 17.796-37.708z"/><path d="m315.444 173.692c1.415 2.31 3.878 3.583 6.402 3.583 1.335 0 2.688-.357 3.911-1.106 3.532-2.164 4.641-6.782 2.477-10.313l-4.747-7.747c-2.164-3.532-6.78-4.642-10.313-2.477-3.532 2.164-4.641 6.782-2.477 10.313z"/><path d="m307.797 62.345c-4.111-.515-7.858 2.402-8.372 6.512-3.393 27.139 7.821 43.234 17.826 51.958 10.718 9.345 22.314 12.241 22.802 12.36.595.145 1.189.214 1.774.214 3.363 0 6.411-2.287 7.258-5.699.994-4.007-1.454-8.068-5.456-9.082-1.397-.354-34.168-9.116-29.321-47.891.515-4.11-2.4-7.858-6.511-8.372z"/><path d="m215.317 263.628c3.967-1.191 6.217-5.374 5.026-9.34-1.192-3.967-5.373-6.215-9.34-5.026-17.973 5.398-27.762 17.062-32.877 26.147-2.784-2.483-5.664-4.521-8.442-6.181-13.107-7.832-26.519-8.856-27.083-8.896-4.126-.293-7.688 2.808-7.993 6.928-.305 4.121 2.793 7.713 6.912 8.033.107.008 10.832.903 20.884 7.062 12.701 7.781 18.689 20.468 17.797 37.709-.214 4.136 2.966 7.663 7.103 7.877.132.007.263.01.394.01 3.964 0 7.276-3.108 7.483-7.113.71-13.727-2.137-24.314-6.648-32.454 2.175-5.835 9.012-19.418 26.784-24.756z"/><path d="m190.154 177.274c2.523 0 4.987-1.273 6.402-3.583l4.747-7.747c2.164-3.532 1.055-8.149-2.477-10.313s-8.149-1.055-10.313 2.477l-4.747 7.747c-2.164 3.532-1.055 8.149 2.477 10.313 1.222.749 2.575 1.106 3.911 1.106z"/><path d="m168.374 118.607c-4.007.991-6.462 5.037-5.487 9.052.834 3.43 3.902 5.73 7.282 5.73.586 0 1.182-.069 1.777-.214.488-.119 12.084-3.015 22.802-12.36 10.004-8.724 21.218-24.819 17.826-51.958-.514-4.11-4.263-7.03-8.372-6.512-4.11.514-7.026 4.262-6.512 8.372 4.843 38.735-27.855 47.519-29.316 47.89z"/><path d="m485.665 268.777c0-8.786-1.327-17.452-3.943-25.757-1.245-3.951-5.458-6.145-9.407-4.9-3.951 1.245-6.145 5.456-4.9 9.407 2.157 6.846 3.25 13.996 3.25 21.25 0 29.524-18.056 55.523-45.33 65.951-16.564-13.209-39.055-16.035-58.554-7.019-3.76 1.738-5.398 6.195-3.66 9.955s6.194 5.397 9.955 3.66c15.301-7.074 33.118-4.206 45.425 7.302 9.372 9.714 14.535 22.476 14.535 35.963 0 28.577-23.25 51.826-51.827 51.826-4.858 0-9.677-.676-14.32-2.01-.015-.004-.031-.006-.046-.01-.018-.005-.034-.012-.052-.017-.275-.075-27.596-7.785-30.642-31.023-.538-4.107-4.303-6.991-8.411-6.462-4.107.539-7 4.304-6.462 8.411 3.317 25.3 25.044 37.14 35.715 41.485-3.04 28.129-27.089 50.21-55.914 50.21-14.012 0-27.239-5.093-37.576-14.396v-83.491c0-.022 0-.043 0-.065v-151.631c.355-3.655 4.596-38.698 36.74-44.808 4.069-.773 6.741-4.7 5.968-8.769s-4.701-6.743-8.769-5.968c-15.378 2.923-26.334 11.014-33.939 20.656v-135.44c-.001-32.029 26.057-58.087 58.086-58.087s58.087 26.058 58.087 58.087c0 9.489-2.336 18.9-6.755 27.216-1.12 2.106-1.17 4.62-.137 6.77 1.034 2.15 3.028 3.68 5.372 4.121 23.489 4.422 40.537 25.006 40.537 48.944 0 9.972-2.934 19.583-8.482 27.811l-1.926 2.471c-7.256 9.316-18.187 14.858-29.99 15.204-11.8.356-23.041-4.544-30.832-13.418-2.732-3.113-7.472-3.421-10.584-.688-3.113 2.732-3.421 7.471-.688 10.584 10.393 11.839 25.231 18.541 40.924 18.541.539 0 1.08-.008 1.62-.024 15.797-.464 30.448-7.686 40.451-19.848 11.439 3.214 21.891 9.276 30.443 17.711 1.461 1.441 3.364 2.16 5.266 2.16 1.937 0 3.873-.746 5.34-2.233 2.909-2.949 2.876-7.698-.073-10.606-9.277-9.149-20.403-16.004-32.586-20.137 4.023-8.56 6.117-17.916 6.117-27.525 0-27.973-17.9-52.428-43.696-61.29 3.077-8.195 4.68-16.954 4.68-25.761 0-40.3-32.787-73.087-73.087-73.087-28.738-.003-53.655 16.67-65.588 40.849-11.933-24.179-36.85-40.852-65.587-40.852-19.908 0-38.518 7.862-52.4 22.137-2.888 2.97-2.822 7.718.147 10.605 2.969 2.888 7.718 2.822 10.606-.147 11.033-11.346 25.824-17.595 41.647-17.595 32.029 0 58.087 26.058 58.087 58.087v295.816c-15.327-17.7-34.088-18.417-35.165-18.442-4.147-.114-7.577 3.182-7.673 7.323-.097 4.141 3.182 7.576 7.323 7.673.251.006 24.975.996 35.515 34.712v82.433c-10.337 9.305-23.564 14.398-37.576 14.398-28.826 0-52.875-22.081-55.915-50.21 10.671-4.345 32.399-16.186 35.715-41.486.538-4.107-2.355-7.873-6.462-8.411-4.11-.541-7.873 2.354-8.411 6.462-3.018 23.022-30.314 30.931-30.662 31.029-.013.004-.025.009-.039.013-.013.004-.026.005-.038.009-4.644 1.333-9.462 2.01-14.32 2.01-28.577 0-51.827-23.249-51.827-51.826 0-13.488 5.162-26.249 14.535-35.963 12.308-11.508 30.123-14.376 45.425-7.302 3.76 1.737 8.217.1 9.955-3.66s.1-8.217-3.66-9.955c-19.499-9.016-41.991-6.19-58.554 7.019-27.274-10.428-45.33-36.427-45.33-65.951 0-31.643 21.399-59.528 51.489-67.998 10.004 12.156 24.651 19.375 40.443 19.838.542.016 1.08.024 1.62.024 15.691 0 30.532-6.702 40.924-18.541 2.733-3.113 2.424-7.852-.688-10.584s-7.852-2.425-10.584.688c-7.791 8.874-19.029 13.776-30.832 13.418-11.803-.346-22.734-5.888-29.991-15.204l-1.923-2.469c-5.55-8.228-8.484-17.839-8.484-27.813 0-23.938 17.048-44.522 40.537-48.944 2.344-.441 4.338-1.971 5.372-4.121 1.034-2.149.983-4.663-.136-6.769-4.42-8.316-6.756-17.728-6.756-27.216 0-5.777.844-11.478 2.508-16.944 1.207-3.963-1.028-8.153-4.99-9.359-3.966-1.209-8.153 1.028-9.359 4.99-2.096 6.883-3.158 14.054-3.158 21.313 0 8.807 1.603 17.565 4.68 25.761-25.795 8.861-43.696 33.316-43.696 61.29 0 9.612 2.095 18.97 6.12 27.531-34.19 11.642-58.094 44.286-58.094 81.108 0 33.812 19.526 63.823 49.564 77.698-7.754 11.121-11.934 24.323-11.934 38.114 0 36.848 29.979 66.826 66.827 66.826 3.212 0 6.412-.229 9.575-.686 2.147 15.403 9.251 29.614 20.494 40.717 13.418 13.255 31.197 20.554 50.06 20.554 16.627 0 32.386-5.658 45.076-16.062 12.69 10.404 28.448 16.062 45.076 16.062 18.863 0 36.643-7.299 50.062-20.553 11.243-11.104 18.347-25.314 20.494-40.717 3.164.457 6.363.686 9.575.686 36.848 0 66.827-29.978 66.827-66.826 0-13.791-4.18-26.994-11.934-38.114 30.039-13.877 49.565-43.888 49.565-77.699z"/></g></g></svg>