<svg id="Capa_1" enable-background="new 0 0 512 512" height="512" viewBox="0 0 512 512" width="512" xmlns="http://www.w3.org/2000/svg"><g><g><g><g><path d="m249.238 160.449c-8.08-2.75-13.488-10.369-13.488-18.904v-122.965h-86.946v122.966c0 8.556-5.445 16.163-13.544 18.922-69.025 23.515-118.843 88.536-119.692 165.317l172.835 65.455 180.594-63.46c0-77.669-50.108-143.629-119.759-167.331z" fill="#b3dafe"/></g></g><g><path d="m368.997 327.78c0-38.739-12.467-74.563-33.605-103.686v106.38c0 2.093-.427 4.126-1.271 6.042l-1.832 4.163z" fill="#8ac9fe"/></g><g><g><path d="m43.076 351.28c-1.121-8.335-1.659-16.847-1.563-25.495.849-76.781 50.667-141.803 119.692-165.318 8.099-2.759 13.544-10.365 13.544-18.922v-122.965h-25.945v122.966c0 8.556-5.445 16.163-13.544 18.922-69.025 23.515-118.843 88.536-119.692 165.317-.096 8.648.451 17.159 1.572 25.495z" fill="#8ac9fe"/></g></g><g><path d="m191.931 504.5c97.759.187 177.066-79.005 177.066-176.72 0-6.821-.395-13.549-1.147-20.168-47.389-12.354-97.777-8.185-142.708 12.159-43.553 19.72-92.441 24.339-138.916 13.125l-70.272-16.956c-.216 3.259-.349 6.54-.386 9.845-1.082 97.874 78.484 178.528 176.363 178.715z" fill="#e58e82"/></g><g><path d="m41.513 325.785c.014-1.223.04-2.442.078-3.659l-25.637-6.186c-.216 3.259-.349 6.54-.386 9.845-1.082 97.874 78.484 178.528 176.363 178.715 4.51.009 8.98-.154 13.406-.478-92.042-6.7-164.86-84.579-163.824-178.237z" fill="#e06c57"/></g><g><path d="m268.612 487.208c59.382-28.484 100.385-89.167 100.385-159.427 0-6.821-.395-13.549-1.147-20.168-10.699-2.789-21.551-4.728-32.458-5.836v28.699c0 2.093-.427 4.126-1.271 6.042l-63.319 143.888c-.974 2.212-1.695 4.492-2.19 6.802z" fill="#e06c57"/></g><g><circle cx="290.249" cy="377.08" fill="#f1cdc7" r="21.12"/></g><g><circle cx="156.717" cy="418.034" fill="#f1cdc7" r="31.68"/></g><g><circle cx="195.262" cy="252.441" fill="#d3effd" r="24.911"/></g><g><path d="m432.27 346.586c-2.234-5.077-3.388-10.564-3.388-16.111v-180.435h-68.49v180.434c0 5.547-1.154 11.034-3.388 16.111l-15.849 36.015 50.237 35.434 56.727-35.434z" fill="#f6f1f1"/></g><g><path d="m357.911 391.24 19.651-44.654c2.234-5.077 3.388-10.564 3.388-16.111v-180.435h-20.558v180.434c0 5.547-1.154 11.034-3.388 16.111l-19.651 44.654h20.558z" fill="#e2dfe2"/></g><g><path d="m448.119 382.6h-106.964l-47.47 107.872c-2.908 6.609 1.932 14.028 9.153 14.028h183.598c7.221 0 12.061-7.419 9.153-14.028z" fill="#88f2a9"/></g><g><path d="m314.243 490.472 47.47-107.872h-20.558l-47.47 107.872c-2.908 6.609 1.932 14.028 9.153 14.028h20.558c-7.221 0-12.061-7.418-9.153-14.028z" fill="#77d192"/></g><g><path d="m443.877 157.103h-98.48c-5.523 0-10-4.477-10-10v-21.04c0-5.523 4.477-10 10-10h98.48c5.523 0 10 4.477 10 10v21.04c0 5.523-4.477 10-10 10z" fill="#d3ced5"/></g><g><path d="m359.517 147.103v-21.04c0-5.523 4.477-10 10-10h-24.12c-5.523 0-10 4.477-10 10v21.04c0 5.523 4.477 10 10 10h24.12c-5.523 0-10-4.477-10-10z" fill="#c3bec6"/></g><g><circle cx="380.95" cy="449.714" fill="#d3fae3" r="21.12"/></g><g><path d="m249.517 48.54h-114.48c-5.523 0-10-4.477-10-10v-21.04c0-5.523 4.477-10 10-10h114.48c5.523 0 10 4.477 10 10v21.04c0 5.523-4.477 10-10 10z" fill="#5fa7ee"/></g><g><path d="m149.157 38.54v-21.04c0-5.523 4.477-10 10-10h-24.12c-5.523 0-10 4.477-10 10v21.04c0 5.523 4.477 10 10 10h24.12c-5.523 0-10-4.477-10-10z" fill="#518fcc"/></g></g><g><path d="m250.231 486.818c-18.539 6.757-38.032 10.182-57.952 10.182-.11 0-.223 0-.333 0-45.307-.087-87.905-18.011-119.946-50.47-32.056-32.475-49.434-75.327-48.932-120.662.002-.165.008-.328.01-.493l31.296 7.551c.591.143 1.183.211 1.765.211 3.385 0 6.456-2.308 7.285-5.743.971-4.027-1.505-8.079-5.531-9.05l-33.913-8.183c6.802-65.061 50.939-121.214 113.699-142.595 11.141-3.795 18.625-14.252 18.625-26.021v-85.505h71.946v19.51h-25.253c-4.142 0-7.5 3.358-7.5 7.5s3.358 7.5 7.5 7.5h25.253v19.79h-25.253c-4.142 0-7.5 3.358-7.5 7.5s3.358 7.5 7.5 7.5h25.253v16.205c0 11.773 7.464 22.223 18.572 26.003 26.338 8.963 50.332 24.529 69.388 45.015 2.821 3.033 7.567 3.204 10.6.383s3.205-7.567.383-10.6c-20.74-22.295-46.86-39.239-75.539-48.998-5.027-1.71-8.404-6.454-8.404-11.803v-85.505h6.267c9.65 0 17.5-7.851 17.5-17.5v-21.04c0-9.649-7.85-17.5-17.5-17.5h-114.48c-9.65 0-17.5 7.851-17.5 17.5v21.04c0 9.649 7.85 17.5 17.5 17.5h6.267v85.506c0 5.347-3.401 10.098-8.463 11.823-73.768 25.131-123.91 94.386-124.773 172.333-.546 49.368 18.367 96.021 53.256 131.365 34.874 35.329 81.253 54.838 130.592 54.933h.362c21.675 0 42.9-3.731 63.089-11.09 3.892-1.418 5.897-5.723 4.478-9.615-1.418-3.891-5.724-5.898-9.614-4.477zm-117.694-448.278v-21.04c0-1.378 1.122-2.5 2.5-2.5h114.48c1.378 0 2.5 1.122 2.5 2.5v21.04c0 1.378-1.122 2.5-2.5 2.5h-114.48c-1.378 0-2.5-1.122-2.5-2.5z"/><path d="m325.169 308.485c4.136.242 7.675-2.937 7.905-7.072s-2.937-7.675-7.073-7.904c-35.568-1.977-71.513 4.743-103.952 19.431-40.511 18.343-86.736 23.161-130.157 13.57-4.043-.892-8.048 1.661-8.941 5.706-.894 4.044 1.661 8.047 5.706 8.941 15.66 3.459 31.658 5.171 47.65 5.171 31.561 0 63.096-6.667 91.93-19.723 30.247-13.697 63.765-19.959 96.932-18.12z"/><path d="m318.869 377.08c0-15.781-12.839-28.62-28.62-28.62s-28.62 12.839-28.62 28.62 12.839 28.62 28.62 28.62 28.62-12.839 28.62-28.62zm-42.24 0c0-7.51 6.11-13.62 13.62-13.62s13.62 6.11 13.62 13.62-6.11 13.62-13.62 13.62c-7.511 0-13.62-6.11-13.62-13.62z"/><path d="m117.537 418.034c0 21.604 17.576 39.18 39.18 39.18s39.18-17.576 39.18-39.18-17.576-39.18-39.18-39.18-39.18 17.577-39.18 39.18zm63.36 0c0 13.333-10.847 24.18-24.18 24.18s-24.18-10.847-24.18-24.18 10.847-24.18 24.18-24.18 24.18 10.848 24.18 24.18z"/><path d="m227.673 252.441c0-17.871-14.539-32.411-32.411-32.411s-32.411 14.54-32.411 32.411 14.539 32.411 32.411 32.411 32.411-14.54 32.411-32.411zm-49.821 0c0-9.6 7.81-17.411 17.411-17.411s17.411 7.811 17.411 17.411-7.81 17.411-17.411 17.411-17.411-7.81-17.411-17.411z"/><path d="m502.454 487.451-63.319-143.886c-1.827-4.151-2.753-8.556-2.753-13.091v-165.871h7.495c9.65 0 17.5-7.851 17.5-17.5v-21.04c0-9.649-7.85-17.5-17.5-17.5h-98.48c-9.65 0-17.5 7.851-17.5 17.5v21.04c0 9.649 7.85 17.5 17.5 17.5h7.495v165.871c0 4.535-.926 8.94-2.753 13.091l-63.319 143.887c-2.39 5.432-1.881 11.642 1.362 16.612s8.722 7.937 14.656 7.937h183.598c5.934 0 11.413-2.967 14.656-7.937 3.243-4.971 3.752-11.181 1.362-16.613zm-159.557-340.348v-21.04c0-1.378 1.122-2.5 2.5-2.5h98.48c1.378 0 2.5 1.122 2.5 2.5v21.04c0 1.378-1.122 2.5-2.5 2.5h-98.48c-1.379 0-2.5-1.122-2.5-2.5zm145.633 348.764c-.276.423-.916 1.134-2.094 1.134h-183.598c-1.178 0-1.817-.71-2.094-1.134s-.669-1.295-.195-2.374l63.319-143.886c2.67-6.067 4.023-12.504 4.023-19.133v-165.871h53.49v22.827h-24.591c-4.142 0-7.5 3.358-7.5 7.5s3.358 7.5 7.5 7.5h24.591v19.79h-24.591c-4.142 0-7.5 3.358-7.5 7.5s3.358 7.5 7.5 7.5h24.591v19.79h-24.591c-4.142 0-7.5 3.358-7.5 7.5s3.358 7.5 7.5 7.5h24.591v58.464c0 6.628 1.354 13.065 4.023 19.133l11.219 25.493h-53.872c-4.142 0-7.5 3.358-7.5 7.5s3.358 7.5 7.5 7.5h60.473l45.499 103.393c.476 1.078.083 1.95-.193 2.374z"/><path d="m380.95 421.094c-15.781 0-28.62 12.839-28.62 28.62s12.839 28.62 28.62 28.62 28.62-12.839 28.62-28.62-12.839-28.62-28.62-28.62zm0 42.24c-7.51 0-13.62-6.11-13.62-13.62s6.11-13.62 13.62-13.62 13.62 6.11 13.62 13.62-6.11 13.62-13.62 13.62z"/></g></g></svg>