<svg id="Capa_1" enable-background="new 0 0 512.004 512.004" height="512" viewBox="0 0 512.004 512.004" width="512" xmlns="http://www.w3.org/2000/svg"><g><g><g><path d="m484.502 380.7h-457c-11.046 0-20-8.954-20-20v-333.2c0-11.046 8.954-20 20-20h457c11.046 0 20 8.954 20 20v333.2c0 11.046-8.954 20-20 20z" fill="#365f7e"/></g><g><path d="m374.606 322.329c-.926-8.809-4.936-16.699-11.111-22.489 1.496-7.922.308-16.257-3.634-23.633-4.338-8.119-11.48-14.113-19.863-17.043-1.274-5.418-3.808-10.521-7.482-14.882-6.893-8.181-16.946-12.873-27.584-12.873-.992 0-1.984.042-2.974.126-6.662-8.737-17.156-14.186-28.701-14.186-6.141 0-12.042 1.54-17.254 4.402-5.212-2.861-11.114-4.402-17.254-4.402-11.544 0-22.039 5.449-28.701 14.186-.989-.084-1.982-.126-2.974-.126-10.637 0-20.69 4.692-27.583 12.873-3.675 4.362-6.208 9.464-7.482 14.882-8.382 2.931-15.525 8.925-19.863 17.043-3.941 7.375-5.131 15.709-3.635 23.633-6.174 5.789-10.185 13.68-11.111 22.488-.924 8.799 1.351 17.34 6.176 24.282-3.276 7.793-3.726 16.622-.992 25.036 1.063 3.27 2.556 6.304 4.403 9.054h218.034c1.847-2.75 3.34-5.784 4.403-9.054 2.733-8.414 2.284-17.242-.993-25.036 4.823-6.942 7.099-15.482 6.175-24.281z" fill="#2c4d66"/></g><g><path d="m31.502 360.7v-333.2c0-11.046 8.954-20 20-20h-24c-11.046 0-20 8.954-20 20v333.2c0 11.046 8.954 20 20 20h24c-11.046 0-20-8.954-20-20z" fill="#2c4d66"/></g><g><path d="m92.998 335.7c-2.951 0-5.497-2.142-5.921-5.063-2.213-15.245-14.268-27.301-29.513-29.513-2.921-.424-5.063-2.969-5.063-5.921v-202.207c0-2.951 2.142-5.497 5.063-5.921 15.245-2.213 27.301-14.269 29.513-29.513.424-2.921 2.969-5.063 5.921-5.063h326.007c2.951 0 5.497 2.142 5.921 5.063 2.213 15.245 14.268 27.301 29.513 29.513 2.921.424 5.063 2.969 5.063 5.921v202.207c0 2.951-2.142 5.497-5.063 5.921-15.245 2.213-27.301 14.268-29.513 29.513-.424 2.921-2.969 5.063-5.921 5.063z" fill="#f6f1f1"/></g><g><path d="m110.598 330.637c-2.213-15.245-14.268-27.301-29.513-29.513-2.921-.424-5.063-2.969-5.063-5.92v-202.208c0-2.951 2.142-5.497 5.063-5.92 15.245-2.213 27.301-14.268 29.513-29.513.424-2.921 2.969-5.063 5.921-5.063h-23.52c-2.951 0-5.497 2.142-5.92 5.063-2.214 15.244-14.269 27.3-29.514 29.513-2.921.424-5.063 2.969-5.063 5.92v202.207c0 2.951 2.142 5.497 5.063 5.92 15.245 2.213 27.301 14.268 29.513 29.513.424 2.921 2.969 5.063 5.92 5.063h23.52c-2.951.001-5.496-2.141-5.92-5.062z" fill="#e2dfe2"/></g><g><path d="m295.082 382.962v116.529c0 4.155-4.774 6.497-8.06 3.954l-27.96-21.636c-1.802-1.394-4.318-1.394-6.12 0l-27.96 21.636c-3.286 2.543-8.06.201-8.06-3.954v-116.529z" fill="#e58e82"/></g><g><path d="m236.902 382.962h-19.98v116.529c0 4.155 4.774 6.497 8.06 3.954l11.92-9.224z" fill="#e06c57"/></g><g><path d="m363.494 299.84c1.496-7.922.308-16.257-3.634-23.633-4.338-8.119-11.48-14.113-19.863-17.043-1.274-5.418-3.808-10.521-7.482-14.882-6.893-8.181-16.946-12.873-27.584-12.873-.992 0-1.984.042-2.974.126-6.662-8.737-17.156-14.186-28.701-14.186-6.141 0-12.042 1.54-17.254 4.402-5.212-2.861-11.114-4.402-17.254-4.402-11.544 0-22.039 5.449-28.701 14.186-.989-.084-1.982-.126-2.974-.126-10.637 0-20.69 4.692-27.583 12.873-3.675 4.362-6.208 9.464-7.482 14.882-8.382 2.931-15.525 8.925-19.863 17.043-3.941 7.375-5.131 15.709-3.635 23.633-6.174 5.789-10.185 13.68-11.111 22.488-.482 4.592-.086 9.111 1.082 13.372h235.042c1.168-4.261 1.565-8.779 1.082-13.371-.925-8.809-4.935-16.699-11.111-22.489z" fill="#e2dfe2"/></g><g><path d="m264.655 246.554c5.655-7.176 17.085-4.747 19.332 4.109 1.753 6.908 9.504 10.359 15.81 7.039 8.085-4.256 17.538 2.612 15.989 11.617-1.209 7.024 4.469 13.329 11.58 12.861 9.117-.6 14.96 9.52 9.882 17.116-3.961 5.925-1.339 13.994 5.348 16.46 8.573 3.16 9.794 14.782 2.066 19.655-6.028 3.802-6.915 12.24-1.809 17.212 6.546 6.374 2.935 17.487-6.107 18.796-7.053 1.021-11.296 8.369-8.653 14.988 3.388 8.485-4.431 17.169-13.224 14.687-6.859-1.936-13.723 3.051-14.001 10.173-.357 9.13-11.032 13.883-18.055 8.039-5.478-4.558-13.778-2.794-16.928 3.598-4.039 8.195-15.725 8.195-19.764 0-3.151-6.393-11.45-8.157-16.928-3.598-7.023 5.844-17.698 1.091-18.055-8.039-.278-7.121-7.142-12.109-14.001-10.173-8.793 2.482-16.612-6.202-13.224-14.687 2.642-6.619-1.6-13.967-8.653-14.988-9.042-1.309-12.653-12.422-6.107-18.796 5.106-4.972 4.219-13.41-1.809-17.212-7.728-4.874-6.507-16.495 2.066-19.655 6.687-2.465 9.309-10.535 5.348-16.46-5.078-7.596.765-17.715 9.882-17.116 7.111.468 12.789-5.838 11.58-12.861-1.549-9.004 7.904-15.873 15.989-11.617 6.306 3.32 14.058-.131 15.81-7.039 2.247-8.856 13.677-11.286 19.332-4.109 4.409 5.598 12.893 5.598 17.304 0z" fill="#fdcd08"/></g><g><path d="m231.777 411.267c-.278-7.121-7.143-12.109-14.001-10.173-8.793 2.482-16.612-6.202-13.224-14.687 2.642-6.619-1.6-13.967-8.653-14.988-9.042-1.309-12.653-12.422-6.107-18.796 5.106-4.972 4.219-13.41-1.809-17.212-7.728-4.874-6.507-16.495 2.066-19.655 6.687-2.465 9.309-10.535 5.348-16.459-5.078-7.596.765-17.715 9.882-17.116 7.111.468 12.789-5.838 11.58-12.861-1.549-9.004 7.904-15.873 15.989-11.617 6.306 3.32 14.058-.131 15.81-7.039.19-.75.467-1.435.78-2.091-.759-.566-1.467-1.231-2.088-2.019-5.655-7.176-17.085-4.747-19.332 4.109-1.753 6.908-9.504 10.359-15.81 7.039-8.085-4.256-17.538 2.612-15.989 11.617 1.209 7.024-4.469 13.329-11.58 12.861-9.117-.6-14.96 9.52-9.882 17.116 3.961 5.925 1.339 13.994-5.348 16.459-8.573 3.16-9.794 14.782-2.066 19.655 6.028 3.802 6.915 12.24 1.809 17.212-6.546 6.374-2.935 17.487 6.107 18.796 7.053 1.021 11.296 8.369 8.653 14.988-3.388 8.485 4.431 17.169 13.224 14.687 6.859-1.936 13.723 3.051 14.001 10.172.357 9.13 11.032 13.883 18.055 8.039 1.359-1.131 2.892-1.871 4.477-2.249-1.105-1.611-1.805-3.569-1.892-5.788z" fill="#faab18"/></g><g><circle cx="256.002" cy="335.7" fill="#faab18" r="55.121"/></g></g><g><path d="m504.502 134.26c-4.142 0-7.5 3.358-7.5 7.5v218.94c0 6.893-5.607 12.5-12.5 12.5h-111.42c-4.142 0-7.5 3.358-7.5 7.5s3.358 7.5 7.5 7.5h111.42c15.164 0 27.5-12.336 27.5-27.5v-218.94c0-4.142-3.358-7.5-7.5-7.5z"/><path d="m484.502 0h-457c-15.164 0-27.5 12.336-27.5 27.5v333.2c0 15.164 12.336 27.5 27.5 27.5h110.86c4.142 0 7.5-3.358 7.5-7.5s-3.358-7.5-7.5-7.5h-110.86c-6.893 0-12.5-5.607-12.5-12.5v-333.2c0-6.893 5.607-12.5 12.5-12.5h457c6.893 0 12.5 5.607 12.5 12.5v77.54c0 4.142 3.358 7.5 7.5 7.5s7.5-3.358 7.5-7.5v-77.54c0-15.164-12.336-27.5-27.5-27.5z"/><path d="m417.724 328.2h-33.842c-4.142 0-7.5 3.358-7.5 7.5s3.358 7.5 7.5 7.5h35.124c6.656 0 12.393-4.938 13.343-11.485 1.729-11.912 11.256-21.439 23.168-23.168 6.548-.95 11.486-6.687 11.486-13.343v-202.208c0-6.656-4.938-12.393-11.486-13.343-11.912-1.729-21.439-11.256-23.168-23.168-.951-6.547-6.687-11.485-13.343-11.485h-326.008c-6.656 0-12.393 4.938-13.343 11.485-1.728 11.912-11.255 21.44-23.167 23.168-6.548.95-11.485 6.687-11.485 13.343v202.208c0 6.656 4.937 12.393 11.485 13.343 11.913 1.729 21.44 11.256 23.168 23.168.95 6.548 6.687 11.485 13.343 11.485h36.004c4.142 0 7.5-3.358 7.5-7.5s-3.358-7.5-7.5-7.5h-34.723c-3.105-17.347-16.93-31.171-34.277-34.278v-199.645c17.346-3.105 31.171-16.93 34.277-34.277h323.445c3.106 17.347 16.931 31.172 34.278 34.278v199.645c-17.347 3.105-31.173 16.93-34.279 34.277z"/><path d="m256.002 273.08c-34.529 0-62.621 28.091-62.621 62.621s28.091 62.621 62.621 62.621 62.621-28.091 62.621-62.621-28.092-62.621-62.621-62.621zm0 110.241c-26.258 0-47.621-21.362-47.621-47.621s21.362-47.621 47.621-47.621 47.621 21.362 47.621 47.621-21.363 47.621-47.621 47.621z"/><path d="m348.663 341.755c6.009-3.789 9.281-10.532 8.539-17.598s-5.345-12.981-12.01-15.438c-1.393-.513-1.932-1.607-2.128-2.213s-.404-1.807.421-3.042c3.948-5.906 4.194-13.397.642-19.549s-10.166-9.682-17.251-9.218c-1.476.105-2.418-.683-2.845-1.156-.426-.474-1.104-1.487-.852-2.95 1.205-7.001-1.618-13.945-7.365-18.121-5.748-4.176-13.223-4.714-19.509-1.405-1.313.691-2.487.36-3.069.101s-1.613-.909-1.979-2.348c-1.747-6.886-7.149-12.082-14.098-13.559-6.947-1.48-13.997 1.071-18.394 6.651-.919 1.166-2.125 1.34-2.763 1.34-.637 0-1.843-.174-2.762-1.341-4.397-5.58-11.446-8.13-18.395-6.651-6.949 1.477-12.351 6.672-14.098 13.559-.365 1.438-1.396 2.088-1.979 2.348s-1.754.591-3.068-.101c-6.288-3.309-13.762-2.77-19.51 1.405-5.747 4.175-8.569 11.119-7.365 18.12.252 1.463-.426 2.476-.852 2.95s-1.363 1.263-2.844 1.156c-7.091-.465-13.7 3.066-17.252 9.219-3.552 6.152-3.306 13.643.643 19.549.825 1.234.618 2.435.421 3.041s-.735 1.7-2.128 2.213c-6.666 2.457-11.268 8.373-12.01 15.438s2.529 13.809 8.538 17.598c1.255.792 1.555 1.974 1.622 2.607.066.634.02 1.852-1.044 2.887-5.09 4.957-6.888 12.232-4.692 18.989s7.927 11.586 14.958 12.604c1.469.212 2.223 1.17 2.542 1.722.318.552.771 1.684.221 3.062-2.634 6.598-1.317 13.977 3.437 19.256 4.753 5.279 11.953 7.361 18.791 5.43 1.429-.402 2.507.165 3.022.54.516.375 1.389 1.225 1.447 2.708.193 4.961 2.31 9.481 5.779 12.742v75.189c0 4.805 2.68 9.105 6.994 11.222 1.765.866 3.65 1.292 5.523 1.292 2.707 0 5.386-.89 7.632-2.628l26.43-20.452 26.43 20.452c3.801 2.941 8.841 3.452 13.156 1.336 4.314-2.117 6.994-6.417 6.994-11.222v-75.189c3.469-3.261 5.585-7.781 5.779-12.742.058-1.483.932-2.333 1.447-2.708.516-.375 1.593-.942 3.022-.54 6.837 1.931 14.038-.151 18.791-5.43 4.754-5.28 6.071-12.658 3.437-19.256-.55-1.379-.098-2.51.22-3.062.319-.552 1.073-1.509 2.542-1.722 7.031-1.018 12.762-5.848 14.958-12.604 2.195-6.757.397-14.033-4.693-18.989-1.063-1.036-1.11-2.253-1.044-2.887.066-.631.365-1.813 1.621-2.605zm-85.011 134.123c-2.252-1.743-4.951-2.614-7.65-2.614s-5.398.872-7.65 2.614l-23.93 18.517v-65.169c3.445-.426 6.765-1.824 9.567-4.156 1.141-.949 2.356-.87 2.98-.737s1.767.554 2.423 1.885c3.141 6.373 9.505 10.331 16.609 10.331s13.469-3.958 16.609-10.331c.656-1.332 1.8-1.752 2.423-1.885s1.839-.212 2.981.737c2.802 2.332 6.123 3.731 9.567 4.156v65.168zm77.009-146.811c-4.829 3.045-7.941 8.049-8.538 13.727s1.407 11.219 5.498 15.202c1.415 1.377 1.095 2.981.891 3.606-.203.625-.887 2.111-2.84 2.394-5.651.818-10.529 4.123-13.384 9.068-2.854 4.944-3.278 10.821-1.161 16.124.732 1.833-.213 3.168-.653 3.657s-1.668 1.567-3.569 1.031c-5.494-1.551-11.294-.517-15.914 2.84-4.619 3.356-7.396 8.553-7.619 14.258-.077 1.973-1.483 2.808-2.083 3.075-.601.268-2.163.754-3.68-.509-4.39-3.653-10.111-5.065-15.694-3.878-5.584 1.187-10.235 4.805-12.759 9.926-.873 1.771-2.497 1.962-3.154 1.962s-2.282-.191-3.155-1.962c-2.524-5.121-7.175-8.739-12.759-9.926-1.296-.275-2.598-.411-3.89-.411-4.277 0-8.434 1.485-11.804 4.29-1.517 1.263-3.079.777-3.679.509-.601-.268-2.007-1.103-2.084-3.076-.223-5.705-3-10.902-7.619-14.258s-10.42-4.391-15.914-2.84c-1.9.538-3.128-.542-3.568-1.031s-1.385-1.823-.653-3.657c2.117-5.303 1.693-11.18-1.161-16.124-2.855-4.944-7.733-8.249-13.383-9.067-1.954-.283-2.638-1.768-2.841-2.394-.203-.625-.523-2.229.892-3.606 4.09-3.983 6.094-9.524 5.497-15.202s-3.708-10.682-8.538-13.727c-1.67-1.053-1.69-2.688-1.622-3.343.069-.654.429-2.249 2.281-2.932 5.357-1.975 9.441-6.222 11.206-11.652 1.764-5.43.956-11.266-2.217-16.013-1.097-1.641-.451-3.143-.122-3.712.329-.57 1.304-1.873 3.277-1.751 5.696.377 11.155-1.843 14.976-6.086s5.456-9.904 4.488-15.531c-.335-1.945.866-3.055 1.398-3.441s1.959-1.188 3.706-.267c5.052 2.659 10.941 2.853 16.157.531s9.013-6.828 10.417-12.362c.486-1.914 2.035-2.438 2.678-2.575.644-.135 2.272-.287 3.494 1.263 3.533 4.485 8.834 7.057 14.544 7.057 5.709 0 11.011-2.572 14.545-7.057 1.221-1.551 2.849-1.399 3.493-1.264.644.137 2.192.662 2.678 2.576 1.404 5.534 5.201 10.04 10.417 12.362 5.215 2.322 11.104 2.129 16.157-.531 1.747-.921 3.173-.12 3.705.267s1.733 1.496 1.398 3.441c-.968 5.627.668 11.288 4.488 15.53 3.82 4.243 9.277 6.46 14.976 6.087 1.978-.126 2.947 1.181 3.276 1.751.329.569.976 2.071-.122 3.712-3.173 4.747-3.981 10.583-2.217 16.013s5.849 9.677 11.206 11.652c1.853.683 2.212 2.278 2.281 2.932.067.654.047 2.289-1.624 3.342z"/><path d="m355.932 112.54c4.142 0 7.5-3.358 7.5-7.5s-3.358-7.5-7.5-7.5h-199.86c-4.142 0-7.5 3.358-7.5 7.5s3.358 7.5 7.5 7.5z"/><path d="m96.502 147.66c0 4.142 3.358 7.5 7.5 7.5h304c4.142 0 7.5-3.358 7.5-7.5s-3.358-7.5-7.5-7.5h-304c-4.142 0-7.5 3.358-7.5 7.5z"/><path d="m415.502 184.6c0-4.142-3.358-7.5-7.5-7.5h-304c-4.142 0-7.5 3.358-7.5 7.5s3.358 7.5 7.5 7.5h304c4.142 0 7.5-3.358 7.5-7.5z"/><path d="m371.384 264.783 3.47-14.793 1.203 5.064c2.39 10.054 11.276 17.076 21.61 17.076h10.335c4.142 0 7.5-3.358 7.5-7.5s-3.358-7.5-7.5-7.5h-10.335c-3.355 0-6.24-2.28-7.016-5.544l-4.009-16.873c-1.306-5.495-6.159-9.329-11.805-9.329-.006 0-.013 0-.019 0-5.654.008-10.505 3.859-11.796 9.363l-6.242 26.609c-.946 4.033 1.556 8.069 5.589 9.015 4.032.947 8.07-1.556 9.015-5.588z"/></g></g></svg>