<svg id="Capa_1" enable-background="new 0 0 512.106 512.106" height="512" viewBox="0 0 512.106 512.106" width="512" xmlns="http://www.w3.org/2000/svg"><g><g><path d="m356.042 377.346 25.916 25.81c.685.685 1.02 1.663.837 2.614-1.75 9.125.907 18.929 7.972 25.994 11.759 11.759 31.103 11.309 42.281-1.35 9.982-11.304 9.473-28.757-1.109-39.501-7.072-7.181-16.947-9.893-26.136-8.136-.965.184-1.956-.158-2.651-.853l-25.727-25.621z" fill="#df646e"/><path d="m157.063 135.941-26.876-26.982c-.695-.695-1.037-1.686-.853-2.651 1.756-9.19-.955-19.065-8.137-26.137-10.745-10.581-28.198-11.089-39.501-1.107-12.658 11.178-13.107 30.521-1.349 42.28 7.065 7.065 16.869 9.722 25.994 7.972.951-.182 1.929.152 2.614.837l26.661 26.767z" fill="#dc4955"/><path d="m136.552 354.537-27.578 27.386c-.695.695-1.686 1.037-2.651.853-9.189-1.757-19.064.955-26.136 8.137-10.581 10.745-11.09 28.198-1.108 39.501 11.178 12.658 30.522 13.108 42.28 1.35 7.065-7.065 9.722-16.869 7.972-25.994-.182-.951.152-1.929.837-2.614l27.661-27.469z" fill="#dc4955"/><path d="m372.34 160.835 30.831-30.682c.685-.685 1.663-1.02 2.614-.837 9.125 1.75 18.929-.907 25.994-7.972 11.758-11.758 11.309-31.102-1.349-42.28-11.303-9.982-28.757-9.474-39.501 1.107-7.182 7.072-9.893 16.947-8.137 26.137.184.965-.158 1.956-.853 2.651l-30.748 30.599z" fill="#df646e"/><path d="m476.452 227.061c-10.349-.309-19.523 4.805-24.895 12.713-.548.807-1.474 1.274-2.45 1.274h-31.043c-1.538 0-2.812-1.165-2.98-2.694-8.167-74.227-67.101-133.16-141.328-141.328-1.529-.168-2.694-1.442-2.694-2.98v-31.043c0-.976.467-1.901 1.274-2.45 7.908-5.371 13.022-14.546 12.713-24.895-.443-14.818-12.311-27.118-27.107-28.051-16.867-1.063-30.879 12.302-30.879 28.941 0 9.977 5.039 18.777 12.71 23.995.812.552 1.29 1.477 1.29 2.459v31.045c0 1.538-1.165 2.812-2.694 2.98-3.355.369-6.677.849-9.962 1.434 0 0-1.776.456-2.619.622-68.135 13.36-119.832 72.427-127.535 142.434-.168 1.529-1.442 2.694-2.98 2.694l-33.288.2c-.976 0-1.901-.467-2.45-1.274-5.371-7.907-13.912-14.865-24.261-14.556-14.818.443-25.96 11.077-26.894 25.872-1.064 16.868 11.957 28.936 28.596 28.936 9.977 0 17.336-6.967 22.554-14.638.552-.812 1.477-1.29 2.459-1.29l34.391 1.12c1.538 0 2.812 1.165 2.98 2.694 7.763 70.551 59.108 129.432 128.137 141.891 1.124.203 3.342.895 3.342.895 2.491.394 5.001.731 7.528 1.01 1.529.168 2.694 1.442 2.694 2.98v31.043c0 .976-.467 1.901-1.274 2.45-7.907 5.371-13.022 14.546-12.713 24.895.443 14.818 12.311 27.118 27.107 28.051 16.868 1.064 30.88-12.302 30.88-28.941 0-9.977-5.039-18.777-12.71-23.995-.812-.552-1.29-1.477-1.29-2.459v-31.045c0-1.538 1.165-2.812 2.694-2.98 74.227-8.167 133.16-67.101 141.328-141.328.168-1.529 1.442-2.694 2.98-2.694h31.045c.982 0 1.907.478 2.459 1.29 5.218 7.671 14.018 12.71 23.995 12.71 16.639 0 30.005-14.013 28.941-30.88-.933-14.796-13.233-26.664-28.051-27.107z" fill="#e27f86"/><path d="m231.067 414.095c-70.77-11.1-126.124-68.577-134.024-140.357-.17-1.52-1.44-2.69-2.98-2.69h-31.05c-.98 0-1.9.48-2.46 1.29-5.21 7.67-14.01 12.71-23.99 12.71-16.64 0-30-14.01-28.94-30.88.93-14.8 13.23-26.66 28.05-27.11 10.35-.31 19.52 4.81 24.9 12.72.54.8 1.47 1.27 2.45 1.27h31.04c1.54 0 2.81-1.17 2.98-2.69 7.81-70.94 61.949-127.886 131.529-139.926-63.89 21.1-110.199 83.596-110.199 157.426 0 74.78 47.524 137.947 112.694 158.237z" fill="#df646e"/><g><g><path d="m195.563 316.548c0-7.836-5.008-14.503-11.998-16.975 0 0-1.776-.008-2.488-.166-1.261-.28-2.17-.298-3.515-.298-9.941 0-17.191 7.497-17.191 17.438s7.344 17.251 17.285 17.251c1.222 0 2.285.343 3.438.111.834-.168 2.471-.387 2.471-.387 6.99-2.471 11.998-9.138 11.998-16.974z" fill="#df646e"/><path d="m183.565 333.523c-1.872.672-3.898 1.025-6.002 1.025-9.944 0-18-8.056-18-18s8.056-18 18-18c2.104 0 4.13.353 6.002 1.025-6.992 2.464-12.002 9.135-12.002 16.975s5.01 14.511 12.002 16.975z" fill="#dc4955"/></g><g><path d="m248.563 154.548c0-7.836-5.008-14.503-11.998-16.975 0 0-1.776-.008-2.488-.166-1.261-.28-2.17-.298-3.515-.298-9.941 0-17.191 7.497-17.191 17.438s7.344 17.251 17.285 17.251c1.222 0 2.285.343 3.438.111.834-.168 2.471-.387 2.471-.387 6.99-2.471 11.998-9.138 11.998-16.974z" fill="#df646e"/><path d="m236.565 171.523c-1.872.672-3.898 1.025-6.002 1.025-9.944 0-18-8.056-18-18s8.056-18 18-18c2.104 0 4.13.353 6.002 1.025-6.992 2.464-12.002 9.135-12.002 16.975s5.01 14.51 12.002 16.975z" fill="#dc4955"/></g><g><path d="m297.563 345.548c0-10.884-6.955-20.143-16.663-23.576 0 0-2.466-.01-3.455-.23-1.752-.389-3.013-.414-4.882-.414-13.807 0-23.877 10.413-23.877 24.22s10.2 23.96 24.007 23.96c1.697 0 3.173.476 4.775.154 1.158-.233 3.431-.537 3.431-.537 9.709-3.434 16.664-12.693 16.664-23.577z" fill="#df646e"/><path d="m280.9 369.124c-2.6.933-5.414 1.424-8.337 1.424-13.811 0-25-11.189-25-25s11.189-25 25-25c2.922 0 5.737.49 8.337 1.424-9.711 3.422-16.67 12.687-16.67 23.576s6.958 20.154 16.67 23.576z" fill="#dc4955"/></g><g><path d="m354.677 190.662c0-10.884-6.955-20.143-16.663-23.576 0 0-2.466-.01-3.455-.23-1.752-.389-3.013-.414-4.882-.414-13.807 0-23.877 10.413-23.877 24.22s10.2 23.96 24.007 23.96c1.697 0 3.173.476 4.775.154 1.158-.233 3.431-.537 3.431-.537 9.709-3.434 16.664-12.693 16.664-23.577z" fill="#df646e"/><path d="m338.014 214.238c-2.6.933-5.415 1.424-8.337 1.424-13.811 0-25-11.189-25-25s11.189-25 25-25c2.922 0 5.737.49 8.337 1.424-9.711 3.422-16.67 12.687-16.67 23.576s6.958 20.154 16.67 23.576z" fill="#dc4955"/></g><g><path d="m373.563 283.298c0-9.796-6.26-18.129-14.997-21.219 0 0-2.22-.009-3.109-.207-1.576-.35-2.712-.372-4.394-.372-12.426 0-21.489 9.371-21.489 21.798 0 12.426 9.18 21.564 21.606 21.564 1.527 0 2.856.428 4.298.138 1.042-.21 3.088-.483 3.088-.483 8.737-3.09 14.997-11.424 14.997-21.219z" fill="#df646e"/><path d="m358.566 304.516c-2.34.84-4.873 1.281-7.503 1.281-12.43 0-22.5-10.07-22.5-22.5s10.07-22.5 22.5-22.5c2.63 0 5.163.441 7.503 1.281-8.74 3.08-15.003 11.419-15.003 21.219s6.263 18.139 15.003 21.219z" fill="#dc4955"/></g><path d="m290.563 252.548c0-16.755-11.774-30.761-27.499-34.194 0 0-1.832-.113-2.719-.237-1.593-.222-3.069-.016-4.723-.016-19.33 0-34.069 14.846-34.069 34.176s14.681 34.729 34.011 34.729c1.481 0 2.875-.055 4.309-.234 1.058-.132 3.192-.029 3.192-.029 15.724-3.435 27.498-17.44 27.498-34.195z" fill="#df646e"/><path d="m263.064 286.742c-2.41.53-4.931.806-7.501.806-19.33 0-35-15.67-35-35s15.67-35 35-35c2.57 0 5.091.276 7.501.806-15.73 3.43-27.501 17.444-27.501 34.194s11.771 30.764 27.501 34.194z" fill="#dc4955"/><path d="m183.563 333.518c-1.88.67-3.9 1.03-6 1.03-9.94 0-18-8.06-18-18s8.06-18 18-18c2.1 0 4.12.36 6 1.03-6.99 2.47-12 9.13-12 16.97s5.01 14.5 12 16.97z" fill="#dc4955"/><g><path d="m185.563 225.548c0-9.795-6.26-18.129-14.997-21.219 0 0-2.22-.009-3.109-.207-1.576-.35-2.712-.372-4.394-.372-12.426 0-21.489 9.371-21.489 21.798s9.18 21.564 21.606 21.564c1.527 0 2.856.428 4.298.138 1.042-.21 3.088-.484 3.088-.484 8.737-3.089 14.997-11.423 14.997-21.218z" fill="#df646e"/><path d="m170.566 246.766c-2.34.84-4.873 1.281-7.503 1.281-12.43 0-22.5-10.07-22.5-22.5s10.07-22.5 22.5-22.5c2.63 0 5.163.441 7.503 1.281-8.74 3.08-15.003 11.419-15.003 21.219s6.263 18.139 15.003 21.219z" fill="#dc4955"/></g></g><g><circle cx="448.23" cy="176.449" fill="#64acdc" r="17.5"/><circle cx="63.896" cy="335.646" fill="#5d9fd1" r="17.5"/><circle cx="335.661" cy="63.881" fill="#64acdc" r="17.5"/><circle cx="176.465" cy="448.215" fill="#5d9fd1" r="17.5"/><circle cx="63.896" cy="176.449" fill="#5d9fd1" r="17.5"/><circle cx="448.23" cy="335.646" fill="#64acdc" r="17.5"/><circle cx="176.465" cy="63.881" fill="#5d9fd1" r="17.5"/><circle cx="335.661" cy="448.215" fill="#64acdc" r="17.5"/></g></g><g><path d="m511.989 253.696c-1.172-18.583-16.683-33.575-35.312-34.132-11.731-.35-22.704 4.836-29.856 13.983h-24.769c-1.596-11.837-4.481-23.437-8.541-34.599l15.554-6.443c6.292 7.537 17.889 11.471 28.733 7.04 12.735-5.274 18.805-19.928 13.529-32.663-5.274-12.736-19.929-18.806-32.665-13.53-10.321 4.276-16.261 14.712-15.335 25.295l-15.561 6.445c-5.039-10.759-11.223-20.986-18.444-30.483l17.539-17.54c11.105 1.351 22.251-2.451 30.223-10.423 2.657-2.658 4.876-5.685 6.595-8.994 1.909-3.677.476-8.204-3.2-10.112s-8.204-.477-10.112 3.2c-1.011 1.946-2.318 3.729-3.89 5.3-5.046 5.047-12.251 7.253-19.276 5.909-3.38-.651-6.868.437-9.332 2.899l-18.191 18.191c-2.695-2.935-6.05-6.431-10.605-10.605l18.172-18.172c2.473-2.474 3.563-5.974 2.916-9.362-1.354-7.086.9-14.333 6.032-19.386 8.013-7.889 20.87-8.25 29.276-.827.563.498 1.108 1.03 1.618 1.582 2.812 3.041 7.556 3.229 10.599.419 3.042-2.812 3.229-7.557.419-10.599-.854-.924-1.766-1.815-2.708-2.647-14.286-12.615-36.13-12.007-49.729 1.385-8.114 7.991-11.992 19.209-10.626 30.425l-17.539 17.538c-9.497-7.221-19.725-13.405-30.484-18.444l6.447-15.564c9.415.974 21.16-4.89 25.295-15.333 5.273-12.735-.796-27.389-13.531-32.664-12.736-5.275-27.39.794-32.663 13.529-3.815 8.983-1.635 21.558 7.04 28.733l-6.443 15.554c-11.163-4.059-22.763-6.945-34.599-8.541v-24.769c9.146-7.151 14.335-18.136 13.983-29.857-.558-18.629-15.551-34.14-34.133-35.312-19.548-1.742-39.208 15.43-38.851 36.426 0 11.271 5.19 21.84 14 28.741v24.771c-11.836 1.596-23.436 4.481-34.599 8.541l-6.443-15.556c8.138-6.827 11.317-18.408 7.041-28.73-5.275-12.735-19.928-18.807-32.665-13.529-12.735 5.275-18.804 19.929-13.529 32.664 3.984 9.617 13.314 15.433 23.13 15.433.719 0 1.441-.036 2.164-.099l6.446 15.563c-10.759 5.039-20.986 11.223-30.483 18.445l-17.539-17.538c1.366-11.215-2.512-22.434-10.627-30.425-13.601-13.394-35.443-13.999-49.728-1.385-15.125 12.691-16.73 38.58-1.688 53.204 7.972 7.974 19.115 11.78 30.223 10.424l17.539 17.54c-7.221 9.497-13.406 19.725-18.445 30.484l-15.561-6.449c.927-10.583-5.014-21.019-15.336-25.295-12.735-5.276-27.39.794-32.665 13.53-6.621 14.914 4.963 34.847 23.098 34.58 6.086.034 14.18-2.893 19.164-8.957l15.555 6.443c-4.059 11.163-6.945 22.762-8.541 34.599h-24.77c-7.15-9.146-18.155-14.312-29.855-13.983-18.63.557-34.141 15.549-35.313 34.132-1.752 19.548 15.434 39.207 36.426 38.852 11.271 0 21.84-5.189 28.741-14h24.771c1.596 11.837 4.481 23.437 8.541 34.599l-15.555 6.443c-5.99-7.438-18.3-11.428-28.732-7.04-11.651 4.639-19.052 19.529-13.53 32.663 5.31 12.335 19.525 18.819 32.665 13.53 10.322-4.276 16.263-14.712 15.336-25.295l15.561-6.446c5.039 10.759 11.223 20.986 18.445 30.483l-17.538 17.539c-11.221-1.372-22.434 2.511-30.424 10.626-13.393 13.599-14.002 35.442-1.386 49.729 12.697 15.124 38.586 16.746 53.206 1.688 7.972-7.972 11.774-19.112 10.423-30.223l17.539-17.539c9.497 7.221 19.724 13.406 30.483 18.445l-6.445 15.561c-10.582-.927-21.019 5.014-25.295 15.336-5.275 12.735.794 27.389 13.53 32.665 11.231 5.015 27.504-.464 32.664-13.53 4.275-10.323 1.097-21.903-7.041-28.73l6.443-15.556c11.162 4.059 22.762 6.945 34.599 8.541v24.769c-9.146 7.15-14.334 18.135-13.983 29.857.557 18.629 15.55 34.14 34.132 35.312 19.27 1.824 39.36-15.464 38.852-36.426 0-11.27-5.189-21.839-14-28.741v-24.771c11.837-1.596 23.437-4.481 34.599-8.541l6.443 15.554c-7.438 5.989-11.427 18.302-7.04 28.733 5.306 12.335 19.526 18.818 32.663 13.529 12.735-5.275 18.805-19.929 13.53-32.665-4.276-10.323-14.712-16.262-25.295-15.335l-6.446-15.561c10.759-5.039 20.986-11.223 30.483-18.445l17.54 17.539c-1.351 11.109 2.451 22.251 10.423 30.223 13.551 14.133 39.708 14.385 53.206-1.689 12.614-14.285 12.006-36.129-1.387-49.729-7.992-8.114-19.207-11.994-30.424-10.625l-17.538-17.539c7.221-9.497 13.405-19.725 18.444-30.483l15.561 6.446c-.926 10.583 5.015 21.019 15.335 25.295.001 0 .001 0 .001.001 3.119 1.291 6.351 1.902 9.533 1.902 9.814 0 19.147-5.816 23.131-15.434 5.275-12.735-.794-27.389-13.529-32.663-8.981-3.814-21.559-1.635-28.733 7.04l-15.554-6.443c4.059-11.163 6.945-22.763 8.541-34.599h24.771c6.9 8.81 17.471 14 28.741 14 19.861.457 38.066-18.048 36.425-38.852zm-67.586-86.485c3.708-1.842 10.624-.071 13.066 5.412 1.572 3.568.394 10.783-5.412 13.065-3.568 1.571-10.785.395-13.065-5.412-2.111-5.094.317-10.956 5.411-13.065zm-117.981-107.157c2.221-4.154 6.334-7.747 13.065-5.412 5.094 2.11 7.522 7.973 5.412 13.066s-7.97 7.521-13.065 5.411c-4.262-2.024-7.503-6.601-5.412-13.065zm-159.196 7.654c-2.11-5.094.318-10.956 5.411-13.065 5.095-2.115 10.957.317 13.066 5.411 2.11 5.095-.318 10.956-5.412 13.066-5.093 2.107-10.955-.318-13.065-5.412zm-99.503 117.98c-2.468 1.021-5.186 1.021-7.653 0-2.982-1.415-5.466-4.084-5.971-7.775-.471-3.444.974-6.944 3.675-9.132 2.529-2.049 6.042-3.135 9.949-1.572 5.094 2.11 7.522 7.973 5.412 13.066-1.022 2.469-2.945 4.391-5.412 5.413zm-.001 159.198c-5.093 2.11-10.956-.319-13.065-5.413-1.573-3.569-.394-10.784 5.413-13.065 3.637-1.827 10.708-.266 13.065 5.412 2.11 5.093-.318 10.955-5.413 13.066zm117.981 107.156c-2.109 5.093-7.97 7.522-13.065 5.412-5.094-2.11-7.522-7.973-5.412-13.066 2.013-3.978 7.077-7.809 13.065-5.412 5.095 2.11 7.522 7.971 5.412 13.066zm159.197-7.654c2.11 5.094-.318 10.956-5.412 13.066-3.568 1.573-10.783.393-13.065-5.412-1.574-3.568-.394-10.784 5.412-13.066 3.707-1.841 10.623-.072 13.065 5.412zm99.503-117.981c2.469-1.021 5.188-1.021 7.654 0 4.262 2.025 7.501 6.601 5.412 13.065-2.111 5.094-7.977 7.52-13.066 5.412-5.094-2.11-7.521-7.972-5.411-13.065 1.021-2.468 2.943-4.389 5.411-5.412zm-330.142-201.556c-2.464-2.466-5.952-3.547-9.332-2.902-7.025 1.349-14.231-.862-19.278-5.909-7.959-7.671-8.734-22.985 1.01-31.354 8.406-7.423 21.264-7.059 29.274.829 5.132 5.054 7.387 12.301 6.033 19.385-.647 3.39.442 6.89 2.916 9.363l18.172 18.172c-2.935 2.695-6.431 6.05-10.606 10.606zm10.602 273.002c-2.463 2.465-3.546 5.953-2.898 9.328 1.347 7.025-.862 14.231-5.909 19.278-7.678 7.97-22.983 8.731-31.356-1.011-7.422-8.405-7.058-21.264.831-29.273 5.054-5.132 12.303-7.383 19.383-6.033 3.389.647 6.887-.44 9.364-2.915l18.172-18.173c2.695 2.935 6.05 6.431 10.606 10.606zm272.985-10.626c2.475 2.473 5.977 3.559 9.363 2.915 7.083-1.354 14.329.9 19.384 6.032 7.888 8.01 8.253 20.869.83 29.275-7.157 8.435-22.426 10.204-31.355 1.01-5.047-5.046-7.256-12.253-5.909-19.276.648-3.379-.436-6.867-2.899-9.332l-18.192-18.191c2.935-2.695 6.431-6.049 10.605-10.605zm93.394-116.467c-4.11 4.377-9.678 6.788-15.679 6.788-7.126 0-13.777-3.524-17.79-9.424-1.946-2.865-5.186-4.576-8.664-4.576h-31.044c-5.362 0-9.849 4.03-10.436 9.373-7.736 70.311-64.383 126.957-134.692 134.693-5.344.587-9.374 5.073-9.374 10.436v31.044c0 3.479 1.711 6.718 4.572 8.66 5.903 4.016 9.428 10.668 9.428 17.794.201 11.056-10.088 22.451-22.908 21.455-10.933-.688-19.754-9.821-20.083-20.79-.221-7.402 3.304-14.306 9.428-18.466 2.856-1.938 4.562-5.174 4.562-8.654v-31.043c0-5.362-4.03-9.849-9.374-10.436-70.31-7.736-126.957-64.383-134.693-134.694-.588-5.343-5.075-9.372-10.435-9.372h-31.044c-3.477 0-6.715 1.71-8.66 4.572-4.016 5.903-10.667 9.428-17.793 9.428-11.061.203-22.441-10.091-21.456-22.908.69-10.933 9.822-19.754 20.791-20.081 7.395-.231 14.306 3.303 18.465 9.428 1.939 2.856 5.175 4.562 8.655 4.562h31.043c5.36 0 9.847-4.029 10.436-9.373 7.736-70.311 64.382-126.957 134.691-134.693 5.344-.587 9.375-5.073 9.375-10.436v-31.045c0-3.478-1.71-6.716-4.572-8.66-5.904-4.016-9.428-10.668-9.428-17.794-.201-11.059 10.088-22.443 22.907-21.455 10.933.688 19.754 9.821 20.082 20.79.223 7.402-3.303 14.306-9.425 18.464-2.858 1.939-4.564 5.175-4.564 8.656v31.043c0 5.362 4.03 9.849 9.373 10.436 70.311 7.736 126.957 64.383 134.693 134.692.587 5.344 5.073 9.374 10.436 9.374h31.043c3.481 0 6.717-1.706 8.653-4.561 4.16-6.125 11.089-9.671 18.466-9.429h.001c10.969.327 20.102 9.147 20.79 20.082.38 6.023-1.671 11.748-5.776 16.12z"/><path d="m256.063 154.548c0-14.061-11.439-25.5-25.5-25.5s-25.5 11.439-25.5 25.5 11.439 25.5 25.5 25.5 25.5-11.44 25.5-25.5zm-36 0c0-5.79 4.71-10.5 10.5-10.5s10.5 4.71 10.5 10.5-4.71 10.5-10.5 10.5-10.5-4.71-10.5-10.5z"/><path d="m352.659 213.642c12.671-12.672 12.671-33.29 0-45.962-11.461-11.966-33.478-12.959-45.962 0-11.968 11.461-12.96 33.477-.001 45.963 6.336 6.335 14.658 9.503 22.98 9.503 8.323 0 16.646-3.168 22.983-9.504zm-40.482-22.98c0-4.675 1.82-9.069 5.126-12.375 5.876-6.034 17.628-7.24 24.748.001 6.823 6.822 6.823 17.925.001 24.748-6.826 6.824-17.927 6.822-24.749 0-3.306-3.305-5.126-7.7-5.126-12.374z"/><path d="m193.063 225.548c0-16.542-13.458-30-30-30s-30 13.458-30 30 13.458 30 30 30 30-13.458 30-30zm-45 0c0-8.271 6.729-15 15-15s15 6.729 15 15-6.729 15-15 15-15-6.729-15-15z"/><path d="m255.563 295.048c23.435 0 42.5-19.065 42.5-42.5s-19.065-42.5-42.5-42.5-42.5 19.065-42.5 42.5c0 2.88.291 5.759.863 8.558.831 4.058 4.793 6.671 8.852 5.844 4.058-.83 6.674-4.794 5.844-8.852-.371-1.811-.559-3.679-.559-5.55 0-15.163 12.336-27.5 27.5-27.5 15.163 0 27.5 12.337 27.5 27.5s-12.337 27.5-27.5 27.5c-3.254 0-6.435-.561-9.456-1.667-3.889-1.423-8.197.574-9.621 4.464s.574 8.197 4.464 9.622c4.678 1.713 9.594 2.581 14.613 2.581z"/><path d="m177.563 291.048c-14.061 0-25.5 11.439-25.5 25.5s11.439 25.5 25.5 25.5 25.5-11.439 25.5-25.5-11.44-25.5-25.5-25.5zm0 36c-5.79 0-10.5-4.71-10.5-10.5s4.71-10.5 10.5-10.5 10.5 4.71 10.5 10.5-4.711 10.5-10.5 10.5z"/><path d="m272.563 313.048c-17.92 0-32.5 14.579-32.5 32.5.09 18.421 16.337 34.469 35.811 32.333 4.121-.417 7.124-4.096 6.707-8.217-.416-4.12-4.08-7.125-8.217-6.707-9.13 1.152-19.462-6.965-19.301-17.409 0-9.649 7.851-17.5 17.5-17.5 9.144-.114 17.889 8.299 17.485 18.204-.169 4.139 3.05 7.631 7.188 7.8 4.175.141 7.631-3.051 7.8-7.188.884-17.841-14.165-33.892-32.473-33.816z"/><path d="m351.063 253.298c-16.542 0-30 13.458-30 30s13.458 30 30 30 30-13.458 30-30-13.458-30-30-30zm0 45c-8.271 0-15-6.729-15-15s6.729-15 15-15 15 6.729 15 15-6.729 15-15 15z"/></g></g></svg>