<svg id="Capa_1" enable-background="new 0 0 512 512" height="512" viewBox="0 0 512 512" width="512" xmlns="http://www.w3.org/2000/svg"><g><g><circle cx="256" cy="256" fill="#f9f8f9" r="211.638"/><g><path d="m414.5 276.5h-15v-41.904l14-1.096h1c8.284 0 15 6.716 15 15v15c0 .336-.011.67-.033 1 0 0-.681 2.174-.994 3.154-1.844 5.772-7.178 8.846-13.973 8.846z" fill="#b9c3cd"/><path d="m429.467 264.5c-.51 7.82-7.027 14-14.967 14h-15l-4.585-21.713 4.585-23.287h14v28c0 1.657 1.343 3 3 3z" fill="#a2abb8"/><path d="m388.5 302h-25v-90.979l16-2.021h10c5.523 0 10 4.477 10 10v68l-1 5c0 5.523-4.477 10-10 10z" fill="#b9c3cd"/><path d="m399.5 287v6c0 5.523-4.477 10-10 10h-26l-5.394-46.961 5.394-47.039h16v74c0 2.209 1.791 4 4 4z" fill="#a2abb8"/><path d="m112.5 277.5h-14c-8.284 0-15-6.716-15-15l-.16-14.266c0-6.181 3.129-9.831 8.468-12.128 1.526-.657 4.691-2.574 4.691-2.574.331-.022.664-.033 1-.033h15l2.287 19.628z" fill="#b9c3cd"/><path d="m112.5 264.5 1.436 6.5-1.436 7.5h-15c-8.28 0-15-6.72-15-15v-15c0-7.94 6.18-14.457 14-14.967v25.967c0 2.76 2.24 5 5 5z" fill="#a2abb8"/><path d="m192.532 225.5h126.936v55.287h-126.936z" fill="#a2abb8"/><path d="m192.53 270.5h126.94v16h-126.94z" fill="#909ba6"/><path d="m148.5 302.5h-25c-5.523 0-10-4.477-10-10v-72c0-5.523 4.477-10 10-10l5-1h20l3.862 42.564z" fill="#b9c3cd"/><path d="m148.5 287.5 2.202 7.972-2.202 8.028h-26c-5.523 0-10-4.477-10-10v-74c0-5.523 4.477-10 10-10h6v74c0 2.209 1.791 4 4 4z" fill="#a2abb8"/><path d="m202.5 334.5-51.798-1.755-1.202-142.245c0-6.627 5.373-12 12-12l3-1h26c6.627 0 12 5.373 12 12z" fill="#b9c3cd"/><path d="m202.5 318.5v16h-54v-145c0-6.627 5.373-12 12-12h4v137c0 2.209 1.791 4 4 4z" fill="#a2abb8"/><path d="m350.5 333.5h-28c-6.627 0-12-5.373-12-12l-1-144h54v141l-1 3c0 6.627-5.373 12-12 12z" fill="#b9c3cd"/><path d="m363.5 318.5v4c0 6.627-5.373 12-12 12h-30c-6.627 0-12-5.373-12-12v-145h16v136c0 2.761 2.239 5 5 5z" fill="#a2abb8"/></g><path d="m256 7.894c-137.243 0-244.362 110.903-244.362 248.146 0 127.079 92.337 230.779 214.894 245.599 9.802 1.185 19.305 2.862 29.468 2.862 137.243 0 248.5-111.257 248.5-248.5 0-135.058-107.744-244.952-241.968-248.416-2.17-.057-4.348.309-6.532.309zm-203.5 248.106c0-112.39 91.11-203.5 203.5-203.5 46.031 0 88.484 15.293 122.577 41.062 2.42 1.829 2.658 5.383.512 7.529l-277.998 277.999c-2.145 2.145-5.699 1.908-7.529-.512-25.769-34.094-41.062-76.547-41.062-122.578zm407 0c0 112.39-91.11 203.5-203.5 203.5-46.031 0-88.484-15.293-122.577-41.062-2.42-1.829-2.658-5.383-.512-7.529l277.998-277.999c2.145-2.145 5.699-1.908 7.529.512 25.769 34.094 41.062 76.547 41.062 122.578z" fill="#df646e"/><path d="m265.5 504.314c-3.15.12-6.32.186-9.5.186-137.24 0-248.5-111.26-248.5-248.5s111.26-248.5 248.5-248.5c3.18 0 6.35.06 9.5.18-132.84 4.99-239 114.26-239 248.32s106.16 243.324 239 248.314z" fill="#dc4955"/></g><g><path d="m437.02 74.98c-48.353-48.351-112.64-74.98-181.02-74.98-28.216 0-55.946 4.562-82.419 13.56-3.922 1.332-6.021 5.592-4.688 9.514 1.333 3.921 5.59 6.019 9.515 4.688 24.915-8.468 51.021-12.762 77.592-12.762 132.888 0 241 108.112 241 241s-108.112 241-241 241-241-108.112-241-241c0-91.314 50.626-173.722 132.123-215.064 3.694-1.874 5.169-6.388 3.295-10.082-1.874-3.693-6.388-5.169-10.082-3.295-41.545 21.075-76.605 53.11-101.389 92.643-25.479 40.641-38.947 87.6-38.947 135.798 0 68.38 26.629 132.667 74.98 181.02 48.353 48.351 112.64 74.98 181.02 74.98s132.667-26.629 181.02-74.98c48.351-48.353 74.98-112.64 74.98-181.02s-26.629-132.667-74.98-181.02z"/><path d="m383.1 87.578c-36.855-27.854-80.805-42.578-127.1-42.578-116.346 0-211 94.654-211 211 0 46.296 14.724 90.246 42.579 127.1 2.178 2.882 5.496 4.678 9.103 4.927 2.795.165 6.191-.642 9.712-3.633l201.649-201.648c2.929-2.93 2.929-7.678 0-10.607-2.93-2.927-7.678-2.929-10.607 0l-45.863 45.861h-41.573v-28.5c0-10.752-8.748-19.5-19.5-19.5h-30c-10.752 0-19.5 8.748-19.5 19.5v12.5h-18.5c-9.649 0-17.5 7.851-17.5 17.5v6.5h-7.5c-12.407 0-22.5 10.094-22.5 22.5v15c0 12.406 10.093 22.5 22.5 22.5h7.5v7.5c0 9.649 7.851 17.5 17.5 17.5h18.5v17.574l-43.173 43.173c-24.757-33.748-37.827-73.706-37.827-115.747 0-108.075 87.925-196 196-196 42.043 0 81.999 13.068 115.747 37.826l-49.609 49.609c-2.929 2.93-2.929 7.678 0 10.607 2.929 2.927 7.677 2.929 10.607 0l51.649-51.65c2.559-2.559 3.882-6.099 3.632-9.71-.249-3.606-2.045-6.924-4.926-9.104zm-146.527 145.422-26.573 26.573v-26.573zm-139.073 38c-4.136 0-7.5-3.364-7.5-7.5v-15c0-4.136 3.364-7.5 7.5-7.5h7.5v30zm51-10.718c-4.142 0-7.5 3.357-7.5 7.5v28.218h-18.5c-1.378 0-2.5-1.121-2.5-2.5v-74c0-1.379 1.122-2.5 2.5-2.5h18.5v16.782c0 4.143 3.358 7.5 7.5 7.5s7.5-3.357 7.5-7.5v-44.282c0-2.481 2.019-4.5 4.5-4.5h30c2.481 0 4.5 2.019 4.5 4.5v85.073l-39 39v-45.792c0-4.141-3.358-7.499-7.5-7.499z"/><path d="m414.174 140.253c24.756 33.748 37.826 73.707 37.826 115.747 0 53.765-21.337 103.916-60.08 141.215-2.983 2.873-3.073 7.621-.201 10.605 2.874 2.982 7.621 3.073 10.605.201 20.231-19.479 36.141-42.36 47.285-68.009 11.54-26.557 17.391-54.823 17.391-84.012 0-46.295-14.724-90.245-42.579-127.102-2.179-2.88-5.497-4.676-9.104-4.925-3.602-.253-7.15 1.073-9.712 3.633l-277.999 278c-2.559 2.56-3.883 6.099-3.634 9.711.25 3.606 2.045 6.925 4.928 9.104 36.855 27.855 80.805 42.579 127.1 42.579 42.427 0 83.339-12.541 118.314-36.268 3.428-2.326 4.321-6.99 1.996-10.418-2.326-3.428-6.989-4.32-10.418-1.996-32.48 22.036-70.48 33.682-109.892 33.682-42.043 0-81.999-13.068-115.748-37.826l120.175-120.174h41.573v28.5c0 10.752 8.748 19.5 19.5 19.5h30c10.752 0 19.5-8.748 19.5-19.5v-12h18.5c9.649 0 17.5-7.851 17.5-17.5v-7h7.5c12.406 0 22.5-10.094 22.5-22.5v-15c0-12.406-10.094-22.5-22.5-22.5h-7.5v-7c0-9.649-7.851-17.5-17.5-17.5h-18.5v-18.073zm-138.747 138.747 26.573-26.573v26.573zm139.073-38c4.136 0 7.5 3.364 7.5 7.5v15c0 4.136-3.364 7.5-7.5 7.5h-7.5v-30zm-25-24.5c1.379 0 2.5 1.121 2.5 2.5v74c0 1.379-1.121 2.5-2.5 2.5h-18.5v-79zm-33.5 106c0 2.481-2.019 4.5-4.5 4.5h-30c-2.481 0-4.5-2.019-4.5-4.5v-85.073l39-39z"/></g></g></svg>