<svg id="Capa_1" enable-background="new 0 0 512.002 512.002" height="512" viewBox="0 0 512.002 512.002" width="512" xmlns="http://www.w3.org/2000/svg"><g><g><path d="m371.533 222.867h-8.133c-4.418 0-8-3.582-8-8v-25.133l-99.4-19.842-99.4 19.842v25.133c0 4.418-3.582 8-8 8h-8.133c-9.286 0-17.172 7.599-16.998 16.883.169 9.003 7.52 16.25 16.564 16.25h49.7 132.533 49.7c9.044 0 16.395-7.247 16.564-16.25.175-9.284-7.711-16.883-16.997-16.883z" fill="#f6df59"/><path d="m371.533 222.867h-8.133c-4.418 0-8-3.582-8-8v-25.133l-23-4.591v29.725c0 4.418 3.582 8 8 8h8.133c9.286 0 17.172 7.599 16.998 16.883-.169 9.003-7.52 16.25-16.564 16.25h23c9.044 0 16.395-7.247 16.564-16.25.174-9.285-7.712-16.884-16.998-16.884z" fill="#edbf50"/><path d="m316.968 57.612c-6.469-.029-16.794-.076-23.264-.105-14.8-1.979-28.026 5.825-34.131 17.853-.686 1.351-2.056 2.215-3.571 2.215-1.522 0-2.892-.874-3.582-2.231-5.471-10.766-16.649-18.143-29.553-18.143h-33.133c-18.299 0-33.133 14.834-33.133 33.133v99.4h198.8v-99.4c-.001-20.037-17.787-35.921-38.433-32.722z" fill="#dc3d36"/><path d="m293.967 57.612c.265-.041.528-.066.792-.101-.36-.002-.716-.003-1.055-.005-3.267-.437-6.456-.396-9.509.061 3.559.017 7.017.033 9.772.045z" fill="#dc3d36"/><path d="m316.968 57.612c-3.568-.016-8.308-.038-12.928-.059 16.036 2.315 28.361 16.103 28.361 32.78v99.4h23v-99.4c-.001-20.036-17.787-35.92-38.433-32.721z" fill="#b13d49"/><g><path d="m429.95 136.387h-33.133v-120.886c0-4.418 3.582-8 8-8h17.133c4.418 0 8 3.582 8 8z" fill="#f3ffff"/><path d="m421.95 7.501h-17.133c-1.037 0-2.024.204-2.933.563 2.966 1.171 5.067 4.056 5.067 7.437v120.886h23v-120.886c-.001-4.419-3.582-8-8.001-8z" fill="#dff9f9"/><path d="m479.65 123.467h-41.417l-24.85 16.567-24.85-16.567h-273.35l-16.567 16.567-16.567-16.567h-49.7c-4.575 0-8.283 3.709-8.283 8.283v8.283c0 9.15 7.417 16.567 16.567 16.567h33.133l24.85-5.778 24.85 5.778h265.066l24.85-4.709 24.85 4.709h33.133c9.149 0 16.567-7.417 16.567-16.567v-8.283c.002-4.574-3.707-8.283-8.282-8.283z" fill="#e59f4f"/><path d="m388.534 123.467h49.7v33.133h-49.7z" fill="#dff8fa"/><path d="m415.234 123.467h23v33.133h-23z" fill="#c3f2f7"/><path d="m479.65 123.467h-23c4.575 0 8.283 3.709 8.283 8.283v8.283c0 9.15-7.417 16.567-16.567 16.567h23c9.149 0 16.567-7.417 16.567-16.567v-8.283c.001-4.574-3.708-8.283-8.283-8.283z" fill="#e27f4d"/><path d="m115.184 136.387h-33.133v-120.886c0-4.418 3.582-8 8-8h17.133c4.418 0 8 3.582 8 8z" fill="#f3ffff"/><path d="m107.184 7.501h-17.133c-1.037 0-2.024.204-2.933.563 2.965 1.171 5.067 4.056 5.067 7.437v120.886h23v-120.886c-.001-4.419-3.583-8-8.001-8z" fill="#dff9f9"/><path d="m73.767 123.467h49.7v33.133h-49.7z" fill="#dff8fa"/><path d="m100.467 123.467h23v33.133h-23z" fill="#c3f2f7"/></g><path d="m413.384 338.834h-74.55c-9.149 0-16.567-7.417-16.567-16.567v-215.367h-132.533v215.367c0 9.15-7.417 16.567-16.567 16.567h-74.55l-2 22.466 2 27.234h100.004l57.38-14.405 57.379 14.405h100.004l2-24.85z" fill="#dc3d36"/><path d="m98.618 338.834h-74.551c-9.415 0-16.996 7.854-16.548 17.368.42 8.911 8.095 15.766 17.016 15.766h11.145c6.36 0 10.347 6.871 7.192 12.393l-16.622 29.087c-4.54 7.945-1.78 18.064 6.164 22.603 7.947 4.543 18.063 1.781 22.603-6.164l18.86-33.006c2.95-5.162 8.439-8.347 14.384-8.347h10.356v-49.7z" fill="#f2d2a1"/><g><g fill="#b13d49"><path d="m315.825 338.834h23.009c-9.149 0-16.567-7.417-16.567-16.567v-203.862c0-6.354-5.151-11.505-11.505-11.505-6.354 0-11.505 5.151-11.505 11.505v203.862c.001 9.15 7.418 16.567 16.568 16.567z"/><path d="m413.384 338.834h-23.01l2.001 24.85-2 24.85h23.009l2-24.85z"/></g></g><path d="m476.321 371.967h11.145c8.92 0 16.596-6.855 17.016-15.766.448-9.514-7.133-17.368-16.548-17.368h-74.549v49.7h10.355c5.945 0 11.434 3.186 14.384 8.347l18.861 33.006c4.54 7.945 14.656 10.707 22.603 6.164 7.944-4.539 10.704-14.659 6.164-22.603l-16.621-29.087c-3.157-5.522.83-12.393 7.19-12.393z" fill="#f2d2a1"/><path d="m476.321 371.967h11.145c8.92 0 16.596-6.855 17.016-15.766.448-9.514-7.133-17.368-16.548-17.368h-23c9.415 0 16.996 7.854 16.548 17.368-.42 8.911-8.095 15.766-17.016 15.766h-11.145c-6.36 0-10.347 6.871-7.192 12.393l16.621 29.087c3.842 6.722 2.44 14.99-2.89 20.128 5.161 4.992 13.176 6.22 19.726 2.475 7.944-4.539 10.704-14.659 6.164-22.603l-16.621-29.087c-3.155-5.522.832-12.393 7.192-12.393z" fill="#eaaa85"/><path d="m251.664 318.187-6.493-13.156c-.704-1.427-2.066-2.416-3.641-2.645l-14.518-2.11c-3.966-.576-5.55-5.45-2.68-8.248l10.506-10.24c1.14-1.111 1.66-2.711 1.391-4.28l-2.48-14.46c-.677-3.95 3.469-6.962 7.016-5.097l12.986 6.827c1.409.741 3.092.741 4.5 0l12.986-6.827c3.547-1.865 7.694 1.147 7.016 5.097l-2.48 14.46c-.269 1.569.251 3.169 1.391 4.28l10.505 10.24c2.87 2.798 1.286 7.672-2.68 8.248l-14.518 2.11c-1.575.229-2.936 1.218-3.641 2.645l-6.493 13.156c-1.774 3.594-6.899 3.594-8.673 0z" fill="#f6df59"/><path d="m287.668 292.029-10.505-10.24c-1.14-1.111-1.66-2.711-1.391-4.28l2.48-14.46c.677-3.95-3.469-6.962-7.016-5.098l-12.986 6.827c-1.046.55-2.243.69-3.368.423l-2.111 12.307c-.269 1.569.251 3.169 1.391 4.28l10.505 10.24c2.87 2.798 1.286 7.672-2.68 8.248l-14.518 2.11c-1.168.17-2.217.759-2.97 1.634.262.305.489.642.671 1.011l6.493 13.156c1.774 3.594 6.899 3.594 8.672 0l6.493-13.156c.704-1.427 2.066-2.416 3.641-2.645l14.518-2.11c3.968-.575 5.551-5.449 2.681-8.247z" fill="#edbf50"/><path d="m206.301 438.234c0-27.731 22.712-50.158 50.55-49.693 27.251.455 48.85 23.257 48.85 50.511v32.315c0 18.299-14.834 33.133-33.133 33.133h-33.133c-18.299 0-33.133-14.834-33.133-33.133v-33.133z" fill="#f2d2a1"/><path d="m313.38 388.534c-11.459-19.801-32.856-33.133-57.379-33.133-24.524 0-45.92 13.332-57.379 33.133z" fill="#f2d2a1"/><g fill="#eaaa85"><path d="m256 355.401c-3.923 0-7.765.345-11.5.999 19.614 3.436 36.253 15.5 45.879 32.134h23c-11.459-19.801-32.855-33.133-57.379-33.133z"/><path d="m256.85 388.541c-4.281-.072-8.439.403-12.414 1.35 22.051 5.294 38.265 25.551 38.265 49.161v32.315c0 18.299-14.834 33.133-33.133 33.133h23c18.299 0 33.133-14.834 33.133-33.133v-32.315c0-27.254-21.6-50.056-48.851-50.511z"/></g></g><g><path d="m505.348 338.789c-4.521-4.738-10.867-7.455-17.414-7.455h-149.1c-5 0-9.067-4.067-9.067-9.066v-58.767h42.2c13.271 0 24.066-10.796 24.066-24.066 0-13.271-10.796-24.066-24.066-24.066h-9.066v-51.269h108.466c13.271 0 24.067-10.796 24.067-24.066v-8.283c0-8.703-7.08-15.783-15.783-15.783h-42.2v-100.467c0-8.547-6.953-15.5-15.5-15.5h-17.134c-8.547 0-15.5 6.953-15.5 15.5v12.381c0 4.142 3.357 7.5 7.5 7.5s7.5-3.357 7.5-7.5v-12.381c0-.275.225-.5.5-.5h17.134c.275 0 .5.225.5.5v100.467h-18.134v-58.086c0-4.143-3.357-7.5-7.5-7.5s-7.5 3.357-7.5 7.5v58.086h-26.416v-25.634c0-22.405-18.229-40.633-40.634-40.633h-33.134c-13.663 0-25.763 6.785-33.133 17.156-7.37-10.37-19.47-17.156-33.133-17.156h-33.133c-22.405 0-40.633 18.227-40.633 40.633v25.634h-26.416v-100.467c0-8.547-6.953-15.5-15.5-15.5h-17.134c-8.547 0-15.5 6.953-15.5 15.5v100.467h-42.2c-8.703 0-15.783 7.08-15.783 15.783v8.283c0 13.271 10.796 24.066 24.066 24.066h108.467v51.268h-9.067c-13.27 0-24.066 10.796-24.066 24.066s10.796 24.066 24.066 24.066h42.2v58.767c0 4.999-4.067 9.066-9.067 9.066h-149.1c-6.547 0-12.895 2.718-17.415 7.456-4.585 4.807-6.938 11.115-6.625 17.765.605 12.849 11.37 22.913 24.507 22.913h11.146c.135 0 .451 0 .678.391.226.39.069.663.003.781l-16.621 29.087c-6.584 11.521-2.567 26.252 8.953 32.836 3.687 2.108 7.77 3.185 11.905 3.185 2.125 0 4.265-.284 6.37-.859 6.201-1.691 11.372-5.697 14.562-11.279l18.86-33.006c1.61-2.817 4.627-4.568 7.872-4.568h28.489c4.142 0 7.5-3.357 7.5-7.5s-3.358-7.5-7.5-7.5h-10.633v-34.7h67.05c13.271 0 24.067-10.796 24.067-24.066v-215.368c0-4.143-3.358-7.5-7.5-7.5s-7.5 3.357-7.5 7.5v9.066h-18.133v-25.633c0-14.134 11.499-25.633 25.633-25.633h33.133c14.134 0 25.633 11.499 25.633 25.633v91.9h-9.067c-4.142 0-7.5 3.357-7.5 7.5s3.358 7.5 7.5 7.5h33.133c4.143 0 7.5-3.357 7.5-7.5s-3.357-7.5-7.5-7.5h-9.067v-91.9c0-14.134 11.499-25.633 25.633-25.633h33.134c14.135 0 25.634 11.499 25.634 25.633v25.634h-18.134v-9.066c0-4.143-3.357-7.5-7.5-7.5s-7.5 3.357-7.5 7.5v215.366c0 13.271 10.797 24.066 24.067 24.066h67.05v34.7h-88.34c-13.594-20.54-36.782-33.134-61.544-33.134-24.761 0-47.949 12.594-61.544 33.134h-47.706c-4.142 0-7.5 3.357-7.5 7.5s3.358 7.5 7.5 7.5h70.656c-.508.466-1.018.929-1.511 1.415-11.024 10.841-17.095 25.325-17.095 40.785v33.134c0 22.405 18.228 40.633 40.633 40.633h33.133c22.405 0 40.634-18.228 40.634-40.633v-32.315c0-16.978-7.349-32.361-18.979-43.019h129.519c3.245 0 6.262 1.751 7.872 4.568l18.86 33.007c3.189 5.581 8.361 9.587 14.561 11.278 2.105.575 4.245.859 6.37.859 4.135 0 8.218-1.076 11.904-3.184 11.521-6.585 15.538-21.314 8.954-32.836l-16.621-29.088c-.066-.117-.224-.392.003-.782s.542-.39.677-.39h11.146c13.137 0 23.901-10.064 24.508-22.913.313-6.649-2.041-12.958-6.626-17.764zm-414.231 42.245h-2.855c-8.615 0-16.622 4.647-20.896 12.127l-18.86 33.005c-1.202 2.104-3.151 3.613-5.486 4.251-2.338.636-4.781.326-6.884-.877-4.341-2.48-5.854-8.03-3.374-12.371l16.621-29.087c2.824-4.941 2.805-10.83-.052-15.752-2.857-4.923-7.96-7.862-13.652-7.862h-11.144c-5.028 0-9.3-3.866-9.524-8.618-.119-2.514.768-4.896 2.494-6.705 1.729-1.812 4.059-2.811 6.562-2.811h67.05zm-1.566-365.533c0-.275.224-.5.5-.5h17.133c.276 0 .5.225.5.5v100.467h-18.133zm-57.984 124.533v-8.283c0-.432.352-.783.783-.783h33.917v18.132h-25.633c-4.999 0-9.067-4.067-9.067-9.066zm49.7 9.066v-18.133h34.7v18.133zm100.967 15v18.134h-18.133v-18.134zm-42.2 84.401c-4.999 0-9.066-4.067-9.066-9.066s4.067-9.066 9.066-9.066h24.85c4.142 0 7.5-3.357 7.5-7.5s-3.358-7.5-7.5-7.5h-.783v-18.134h18.133v51.267h-42.2zm42.2-99.401h-51.267v-18.133h51.267zm164.884 66.268c-4.143 0-7.5 3.357-7.5 7.5s3.357 7.5 7.5 7.5h24.85c4.999 0 9.066 4.067 9.066 9.066s-4.067 9.066-9.066 9.066h-42.2v-51.267h18.134v18.134h-.784zm.783-33.134h-18.134v-18.134h18.134zm132.533-50.483v8.283c0 4.999-4.067 9.066-9.067 9.066h-25.633v-18.133h33.917c.431.001.783.352.783.784zm-49.7-.783v18.132h-34.7v-18.133h34.7zm-49.7 0v18.132h-51.267v-18.133h51.267zm-125.034 231.932c16.14 0 31.442 6.723 42.408 18.134h-84.816c10.966-11.411 26.268-18.134 42.408-18.134zm.725 33.14c22.869.382 41.476 19.678 41.476 43.013v32.315c0 14.134-11.499 25.633-25.634 25.633h-33.133c-14.134 0-25.633-11.499-25.633-25.633v-33.134c0-11.405 4.479-22.092 12.612-30.091 7.958-7.826 18.439-12.109 29.584-12.109.242 0 .485.002.728.006zm230.741-31.572h-11.146c-5.691 0-10.794 2.939-13.65 7.861-2.856 4.923-2.876 10.812-.053 15.752l16.621 29.089c2.48 4.34.967 9.89-3.375 12.371-2.102 1.202-4.547 1.513-6.882.876-2.336-.638-4.284-2.147-5.486-4.25l-18.86-33.007c-4.274-7.479-12.281-12.126-20.895-12.126h-2.855v-34.7h67.05c2.502 0 4.832.998 6.56 2.81 1.728 1.81 2.613 4.192 2.496 6.705-.225 4.752-4.497 8.619-9.525 8.619z"/><path d="m215.976 299.303c1.461 4.498 5.276 7.716 9.958 8.396l13.132 1.908 5.873 11.9c2.093 4.241 6.332 6.876 11.062 6.876 4.729 0 8.969-2.635 11.061-6.876l5.873-11.9 13.134-1.908c4.681-.682 8.495-3.898 9.957-8.396 1.461-4.498.265-9.343-3.122-12.645l-9.503-9.262 2.243-13.079c.8-4.662-1.08-9.285-4.906-12.064-3.827-2.782-8.806-3.14-12.992-.939l-11.746 6.174-11.746-6.175c-4.186-2.2-9.164-1.841-12.991.939-3.826 2.78-5.707 7.403-4.907 12.064l2.243 13.08-9.503 9.263c-3.386 3.302-4.581 8.147-3.12 12.644zm24.099-12.145c2.907-2.834 4.233-6.916 3.546-10.917l-1.567-9.139 8.205 4.313c3.597 1.891 7.889 1.892 11.482.001l8.207-4.314-1.569 9.141c-.685 4.001.641 8.082 3.548 10.917l6.639 6.472-9.174 1.333c-4.02.583-7.493 3.106-9.289 6.748l-4.103 8.313-4.103-8.314c-1.798-3.643-5.271-6.165-9.289-6.748l-9.175-1.333z"/></g></g></svg>