<svg id="Capa_1" enable-background="new 0 0 511.977 511.977" height="512" viewBox="0 0 511.977 511.977" width="512" xmlns="http://www.w3.org/2000/svg"><g><g><path d="m421.655 454.778-11.5-24.85 11.5-24.85v-.001c0-30.876-21.118-56.82-49.699-64.176l-16.567 7.225-16.567-9.312h-165.667l-16.567 9.49-16.567-7.403c-28.58 7.355-49.699 33.299-49.699 64.176v.003l11.26 24.064-11.26 25.633v33.133c0 9.15 7.417 16.567 16.567 16.567h33.133l16.567-6.886 16.567 6.886h165.667l16.567-10.213 16.567 10.213h33.134c9.15 0 16.567-7.417 16.567-16.567z" fill="#f3ffff"/><g><path d="m421.655 454.778-11.5-24.85 11.5-24.85v-.001c0-30.876-21.118-56.82-49.699-64.176l-10.542 4.598c22.048 10.761 37.241 33.392 37.241 59.578l.001 82.833c0 9.15-7.417 16.567-16.567 16.567h23c9.15 0 16.567-7.417 16.567-16.567z" fill="#dff9f9"/></g><path d="m156.589 222.842c-9.15 0-16.567-7.417-16.567-16.567v-33.134c0-9.149 7.417-16.567 16.567-16.567h198.8c9.15 0 16.567 7.417 16.567 16.567v33.134c0 9.15-7.417 16.567-16.567 16.567z" fill="#f2d2a1"/><path d="m355.389 156.575h-16.567-6.433c9.15 0 16.567 7.417 16.567 16.567v33.134c0 9.15-7.417 16.567-16.567 16.567h6.433 16.567c9.15 0 16.567-7.417 16.567-16.567v-33.134c0-9.15-7.417-16.567-16.567-16.567z" fill="#eaaa85"/><g><path d="m206.29 261.71.001 77.1c0 27.448 22.251 49.7 49.7 49.7s49.7-22.251 49.7-49.7v-77.093z" fill="#f2d2a1"/><path d="m282.69 261.717v77.093c0 23.488-16.299 43.157-38.2 48.348 3.693.875 7.54 1.352 11.5 1.352 27.448 0 49.7-22.251 49.7-49.7v-77.093z" fill="#eaaa85"/></g><path d="m173.157 140.011.001 82.834c0 45.747 37.085 82.832 82.832 82.832s82.833-37.085 82.833-82.832v-82.834z" fill="#f3ffff"/><path d="m315.822 140.011v82.834c0 41.842-31.031 76.419-71.332 82.02 3.761.523 7.596.813 11.501.813 45.747 0 82.832-37.085 82.832-82.832l.001-82.834h-23.002z" fill="#dff9f9"/><path d="m347.105 87.572v44.156c0 4.575-3.709 8.283-8.283 8.283h-165.667c-4.575 0-8.283-3.709-8.283-8.283v-44.156z" fill="#924af5"/><path d="m90.322 454.778v-49.7h115.968l49.7 16.566 49.705-16.566h115.96v49.7z" fill="#924af5"/><path d="m324.105 87.572v44.156c0 4.575-3.709 8.283-8.283 8.283h23c4.575 0 8.283-3.709 8.283-8.283v-44.156z" fill="#7536f9"/><path d="m358.815 102.296c10.361-1.154 16.345-11.244 11.347-19.412-14.976-24.476-60.428-42.273-114.174-42.273s-99.198 17.797-114.173 42.273c-4.998 8.169.986 18.258 11.347 19.412 68.285 7.605 137.368 7.605 205.653 0z" fill="#413e82"/><path d="m370.162 82.884c-14.975-24.476-60.428-42.273-114.174-42.273-3.882 0-7.713.103-11.5.285 48.646 2.331 88.78 19.279 102.674 41.988 4.998 8.168-.986 18.258-11.347 19.412-30.331 3.378-60.82 5.247-91.326 5.624 38.173.472 76.373-1.397 114.326-5.624 10.361-1.154 16.345-11.244 11.347-19.412z" fill="#2f2c59"/><path d="m255.989 429.144c49.809 0 90.332-40.522 90.333-90.33h-15c-.002 41.537-33.795 75.33-75.333 75.33s-75.331-33.793-75.333-75.33h-15c.001 49.808 40.524 90.33 90.333 90.33z" fill="#dff9f9"/><path d="m338.822 338.814v165.663h33.133v-163.576c-5.294-1.363-10.844-2.087-16.564-2.087z" fill="#413e82"/><path d="m140.022 340.901v163.576h33.133v-165.663h-16.569c-5.72 0-11.27.725-16.564 2.087z" fill="#413e82"/><path d="m398.655 405.078h23v49.7h-23z" fill="#7536f9"/><path d="m371.955 351.92v-11.018c-.008-.002-.015-.004-.022-.005-.938-.241-1.886-.455-2.839-.655-.206-.043-.412-.087-.619-.129-.94-.188-1.886-.359-2.84-.507-.162-.025-.325-.046-.487-.07-.877-.129-1.759-.242-2.647-.336-.163-.017-.324-.038-.487-.054-.971-.096-1.948-.169-2.931-.223-.215-.012-.43-.021-.645-.031-1.011-.046-2.025-.077-3.047-.077h-16.569v.316c12.349 1.189 23.707 5.762 33.133 12.789z" fill="#2f2c59"/></g><g><path d="m222.857 205.492c4.142 0 7.5-3.358 7.5-7.5v-8.284c0-4.142-3.358-7.5-7.5-7.5s-7.5 3.358-7.5 7.5v8.284c0 4.142 3.358 7.5 7.5 7.5z"/><path d="m289.123 205.492c4.142 0 7.5-3.358 7.5-7.5v-8.284c0-4.142-3.358-7.5-7.5-7.5s-7.5 3.358-7.5 7.5v8.284c0 4.142 3.358 7.5 7.5 7.5z"/><path d="m216.85 226.64c-2.479 3.319-1.797 8.019 1.521 10.497 8.196 6.121 22.259 9.774 37.619 9.774s29.424-3.654 37.62-9.774c3.319-2.478 4-7.178 1.521-10.497-2.478-3.319-7.178-4.001-10.497-1.521-4.196 3.134-14.215 6.793-28.644 6.793-14.428 0-24.447-3.659-28.643-6.793-3.32-2.478-8.019-1.797-10.497 1.521z"/><path d="m429.154 405.097c0-.007.001-.013.001-.019 0-.013-.002-.025-.002-.038-.02-40.656-33.101-73.726-73.762-73.726l-42.202.001v-38.607c18.399-15.091 30.749-37.293 32.819-62.365h9.379c13.271 0 24.067-10.796 24.067-24.067v-33.134c0-13.27-10.796-24.066-24.067-24.066h-9.065v-3.465c4.928-2.673 8.282-7.894 8.282-13.883v-21.451c1.68-.178 3.362-.339 5.041-.526 7.868-.877 14.522-5.397 17.801-12.092 2.98-6.085 2.657-12.896-.887-18.688-15.955-26.077-60.54-44.006-112.444-45.713 2.466-13.901 11.793-19.072 11.793-19.072l-.001-.003c2.455-1.229 4.145-3.761 4.145-6.694 0-4.136-3.353-7.489-7.489-7.489-1.205 0-2.354.263-3.363.769-.77.385-17.291 8.931-20.255 32.441-16.624.463-32.604 2.57-47.595 6.283-4.02.996-6.473 5.062-5.477 9.083.996 4.022 5.064 6.477 9.083 5.477 15.918-3.943 33.087-5.942 51.03-5.942 49.52 0 93.84 15.909 107.776 38.687.847 1.385.918 2.819.211 4.263-.78 1.593-2.764 3.422-5.991 3.782-67.68 7.537-136.314 7.537-203.992 0-3.228-.359-5.211-2.189-5.991-3.781-.707-1.444-.636-2.878.211-4.263 5.155-8.425 14.907-16.271 28.203-22.691 3.73-1.801 5.294-6.285 3.493-10.015-1.801-3.731-6.287-5.293-10.015-3.493-15.894 7.674-27.815 17.485-34.476 28.371-3.544 5.792-3.867 12.604-.887 18.688 3.279 6.695 9.934 11.215 17.802 12.092 1.678.187 3.36.348 5.04.526v21.451c0 5.991 3.356 11.212 8.285 13.885v3.463h-9.068c-13.271 0-24.067 10.796-24.067 24.066v33.134c0 13.271 10.796 24.067 24.067 24.067h9.383c2.07 25.072 14.42 47.273 32.818 62.364l.001 38.608-42.204-.001c-40.66 0-73.74 33.069-73.762 73.723 0 .014-.002.027-.002.04 0 .007.001.014.001.021l-.001 82.812c0 13.271 10.796 24.067 24.067 24.067h84.401c4.142 0 7.5-3.358 7.5-7.5s-3.358-7.5-7.5-7.5h-10.635v-34.7h150.667v34.7h-110.031c-4.142 0-7.5 3.358-7.5 7.5s3.358 7.5 7.5 7.5h183.799c13.271 0 24.067-10.796 24.067-24.067zm-82.831-241.022h9.065c5 0 9.067 4.067 9.067 9.066v33.134c0 5-4.067 9.067-9.067 9.067h-9.066zm-189.734 51.267c-4.999 0-9.067-4.067-9.067-9.067v-33.134c0-4.999 4.067-9.066 9.067-9.066h9.069l.001 51.267zm-24.067 281.635h-25.633c-4.999 0-9.067-4.067-9.067-9.067v-25.633h34.7zm0-49.7h-34.7l.001-34.7h34.699zm0-49.699h-34.204c2.635-20.582 15.951-37.86 34.204-46.089zm33.133 99.399h-18.133v-149.962c2.955-.46 5.982-.701 9.064-.701h9.069zm213.8-145.489c18.253 8.229 31.569 25.507 34.204 46.089h-34.204zm0 61.09h34.699l.001 34.7h-34.7zm-207.083-280.85v-19.987c27.788 2.488 55.701 3.755 83.617 3.755 27.915 0 55.828-1.266 83.617-3.755v19.987c0 .432-.352.783-.783.783h-165.668c-.432 0-.783-.352-.783-.783zm8.286 91.117-.001-75.335h150.666v9.046c0 .006-.001.012-.001.019 0 .006.001.012.001.019v66.238.011.008c-.003 41.536-33.796 75.327-75.332 75.327-41.539 0-75.333-33.794-75.333-75.333zm117.532 79.849v36.117c0 23.269-18.931 42.2-42.2 42.2s-42.2-18.931-42.2-42.2l-.001-36.118c12.603 6.688 26.966 10.485 42.201 10.485s29.597-3.796 42.2-10.484zm-98.892 43.621c3.688 28.005 27.696 49.696 56.692 49.696 28.995 0 53.004-21.692 56.692-49.696h18.265c-3.778 38.029-35.951 67.83-74.958 67.83-39.006 0-71.18-29.801-74.958-67.83zm-18.643 42.286c2.078 3.134 4.345 6.133 6.787 8.977h-6.787zm150.667 58.676h-150.667v-34.7h23.251c14.729 10.43 32.702 16.566 52.082 16.566 19.381 0 37.354-6.137 52.083-16.566h23.251zm0-49.699h-6.787c2.442-2.844 4.708-5.843 6.787-8.977zm33.133 99.399h-18.133v-42.179c0-.007.001-.014.001-.021s-.001-.014-.001-.021v-49.658c0-.007.001-.014.001-.021s-.001-.014-.001-.021v-58.742h9.069c3.082 0 6.109.242 9.064.701zm40.634 0h-25.633v-34.7h34.7v25.633c0 5-4.068 9.067-9.067 9.067z"/></g></g></svg>