<svg id="Capa_1" enable-background="new 0 0 512 512" height="512" viewBox="0 0 512 512" width="512" xmlns="http://www.w3.org/2000/svg"><g><g><path d="m122.5 217h-15c-5.523 0-9-3.477-9-9v-20l14-1h20v16l-1 5c0 5.523-3.477 9-9 9z" fill="#e8e8e8"/><path d="m204.5 422v-14c0-5.523 3.477-9 9-9l5-1h15l2 10.723-2 9.277-1 14h-19c-5.523 0-9-4.477-9-10z" fill="#e8e8e8"/><path d="m112.5 200v-13h-15v21c0 5.523 4.477 10 10 10h15c5.523 0 10-4.477 10-10v-5h-17c-1.657 0-3-1.343-3-3z" fill="#dcdbdd"/><path d="m218.5 415v-17h-5c-5.523 0-10 4.477-10 10v15c0 5.523 4.477 10 10 10h20l2-7.83-2-7.17h-12c-1.657 0-3-1.343-3-3z" fill="#dcdbdd"/><path d="m473.117 505.202h-209c-16.569 0-30-13.431-30-30v-249c0-11.102 5.033-21.793 13.998-26.98 4.414-2.554 9.536-4.02 15.002-4.02h211c16.569 0 30 13.431 30 30v181.798l-2 7.5 2 7.5v54.202c0 5.466-1.466 10.589-4.02 15.002-5.187 8.965-15.878 13.998-26.98 13.998z" fill="#f9f8f9"/><path d="m248.117 473.202v-51.202l-1-7.5 1-7.5-.002-207.778c-8.964 5.188-14.998 14.878-14.998 25.98v181.798l1 7.5-1 7.5v54.202c0 16.569 13.431 30 30 30h211c11.102 0 20.793-6.033 25.98-14.998l-233.98-.002c-9.941 0-18-8.059-18-18z" fill="#e8e8e8"/><path d="m393.202 383.021h-108.404c-11.21 0-20.298-7.033-20.298-16.943v-123.114c0-8.288 5.359-16.253 13.998-18.314 1.69-.403 3.466-.629 5.3-.629h110.404c11.21 0 20.298 8.033 20.298 17.943v124.114c0 1.004-.108 1.986-.287 2.946-1.591 8.507-10.937 13.997-21.011 13.997z" fill="#c8effe"/><path d="m414.213 369.024-121.415-.003c-8.904 0-14.298-3.033-14.298-12.943l-.002-131.428c-8.636 2.062-14.998 9.028-14.998 17.314v124.114c0 9.91 9.088 17.943 20.298 17.943h110.404c10.308 0 18.472-6.635 20.011-14.997z" fill="#a9e5f7"/><path d="m333 473.5h-63c-2.761 0-5-2.239-5-5v-18c0-2.761 2.239-5 5-5l9-1h55c2.761 0 5 2.239 5 5v10l-1 9c0 2.761-2.239 5-5 5z" fill="#ffe07d"/><path d="m468 473.5h-63c-2.761 0-5-2.239-5-5v-18c0-2.761 2.239-5 5-5l9-1h55c2.761 0 5 2.239 5 5v10l-1 9c0 2.761-2.239 5-5 5z" fill="#ffe07d"/><path d="m281 459.5c-1.105 0-2-.895-2-2v-13h-10c-2.761 0-5 2.239-5 5v20c0 2.761 2.239 5 5 5h65c2.761 0 5-2.239 5-5v-10z" fill="#ffd064"/><path d="m416 459.5c-1.105 0-2-.895-2-2v-13h-10c-2.761 0-5 2.239-5 5v20c0 2.761 2.239 5 5 5h65c2.761 0 5-2.239 5-5v-10z" fill="#ffd064"/><g><path d="m67.5 184.363-38 .551c-11.046 0-19.989-6.646-19.989-17.745l-1.011-138.573c0-9.362 5.371-18.228 13.994-20.461 1.6-.415 3.277-.635 5.006-.635h29.396l16.445 3c-.001 0 5.205 173.863-5.841 173.863z" fill="#ffd064"/><path d="m101.204 7.5h-44.308c-10.189 7.17-17.835 17.71-21.316 29.998-1.352 4.769-.08 9.799-.08 15.002l-.968 90.5c0 5.539-.19 10.436 1.339 15.473 1.35 4.447 3.235 8.612 5.597 12.496.409.672-.058 1.531-.845 1.531h-10.144c-4.407 0-7.979-3.572-7.979-7.979v-6.021l-2-58.857 2-62.143v-29.365c-8.621 2.234-15 10.101-15 19.461v9.904l2 62.143-2 58.857v8.904c0 11.099 8.954 20.096 20 20.096h29.396 44.308c3.949-6.286 3.949-173.714 0-180z" fill="#ffc250"/><path d="m55.5 156.5-19.629 1.973-13.371.027-13-2v-117l13-2 13.079-.002 19.921 2.002z" fill="#f9f8f9"/><path d="m33.49 52.507v90c0 5.568.841 10.901 2.381 15.965l19.619.035v-121l-19.911-.009c-1.351 4.77-2.089 9.805-2.089 15.009z" fill="#e8e8e8"/><path d="m7.5 37.5h15v121h-15z" fill="#e8e8e8"/><path d="m222.5 167.404c0 1.761-.228 3.469-.653 5.097-2.253 8.63-12.091 12.999-21.416 12.999h-99.227c-29.66 0-51.704-22.493-51.704-50.24v-75.52c0-13.518 3.707-27.789 12.99-36.82 9.771-9.505 23.504-15.42 38.714-15.42h101.227c11.084 0 20.069 8.997 20.069 20.096v9.904l-3 62.143 3 57.857z" fill="#ffe07d"/><path d="m221.847 172.501-115.643-.001c-29.66 0-43.704-18.862-43.704-40.24l.015-109.363c-9.283 9.03-15.015 21.326-15.015 34.843v79.519c0 27.747 24.044 50.24 53.704 50.24h101.227c9.514.001 17.401-6.413 19.416-14.998z" fill="#ffd064"/><path d="m220.5 155.5h-117c-13.807 0-24-9.193-24-23l-1.394-67.202c0-8.62 3.756-19.018 10.393-23.513 3.994-2.705 8.813-4.285 14-4.285h120v109z" fill="#f9f8f9"/><path d="m107.255 146.5c-10.358 0-18.755-8.397-18.755-18.755v-85.96c-6.637 4.495-11 12.095-11 20.715v70c0 13.807 11.193 25 25 25h120v-11z" fill="#e8e8e8"/></g></g><g><path d="m474.5 186h-94.5c-4.143 0-7.5 3.358-7.5 7.5s3.357 7.5 7.5 7.5h94.5c12.406 0 22.5 10.093 22.5 22.5v183.5h-256v-183.5c0-12.407 10.093-22.5 22.5-22.5h81.5c4.143 0 7.5-3.358 7.5-7.5s-3.357-7.5-7.5-7.5h-81.5c-20.678 0-37.5 16.822-37.5 37.5v167h-12.5c-9.22 0-16.78 7.172-17.436 16.228-4.047-.986-7.064-4.632-7.064-8.978v-66.5c0-13.372-10.878-24.25-24.25-24.25s-24.25 10.878-24.25 24.25v156.5c0 5.101-4.149 9.25-9.25 9.25s-9.25-4.149-9.25-9.25v-262.25h.5c9.649 0 17.5-7.851 17.5-17.5v-13h62.431c15.201 0 27.569-12.379 27.569-27.596v-139.808c0-15.217-12.368-27.596-27.569-27.596-43.251 0-132.418.001-174.931 0-15.164 0-27.5 12.379-27.5 27.596v50.382c0 4.142 3.358 7.5 7.5 7.5s7.5-3.358 7.5-7.5v-32.978h26.52c-.984 4.102-1.52 8.362-1.52 12.74v79.52c0 4.735.62 9.334 1.765 13.74h-26.765v-38.021c0-4.142-3.358-7.5-7.5-7.5s-7.5 3.358-7.5 7.5v54.425c0 15.217 12.336 27.596 27.5 27.596h62.5v13c0 9.481 7.583 17.207 17 17.475v262.275c0 13.372 10.878 24.25 24.25 24.25s24.25-10.878 24.25-24.25v-156.5c0-5.101 4.149-9.25 9.25-9.25s9.25 4.149 9.25 9.25v66.5c0 12.613 9.68 23.002 22 24.142v1.108c0 9.649 7.851 17.5 17.5 17.5h12.5v34c0 20.678 16.822 37.5 37.5 37.5h211c20.678 0 37.5-16.822 37.5-37.5v-251c0-20.678-16.822-37.5-37.5-37.5zm-259.5-158.404v2.404h-41.75c-4.142 0-7.5 3.358-7.5 7.5s3.358 7.5 7.5 7.5h41.75v105h-112.5c-9.649 0-17.5-7.851-17.5-17.5v-70c0-9.649 7.851-17.5 17.5-17.5h35.75c4.142 0 7.5-3.358 7.5-7.5s-3.358-7.5-7.5-7.5h-35.75c-17.92 0-32.5 14.58-32.5 32.5v70c0 17.92 14.58 32.5 32.5 32.5h112.5v2.404c0 6.946-5.639 12.596-12.569 12.596h-101.227c-25.477 0-46.204-19.173-46.204-42.74v-79.52c0-23.567 20.727-42.74 46.204-42.74h101.227c6.93 0 12.569 5.65 12.569 12.596zm-200 2.404v-2.404c0-6.945 5.607-12.596 12.5-12.596h32.595c-5.012 4.294-9.263 9.363-12.55 15zm0 137.404v-1.404h33.155c3.199 5.234 7.228 9.963 11.94 14h-32.595c-6.893 0-12.5-5.65-12.5-12.596zm90 40.596v-13h20v13c0 1.378-1.122 2.5-2.5 2.5h-15c-1.378 0-2.5-1.122-2.5-2.5zm108.5 217.5c-1.378 0-2.5-1.122-2.5-2.5v-15c0-1.378 1.122-2.5 2.5-2.5h12.5v20zm261 71.5h-211c-12.407 0-22.5-10.093-22.5-22.5v-52.5h256v52.5c0 12.407-10.094 22.5-22.5 22.5z"/><path d="m414.5 289.25c4.143 0 7.5-3.358 7.5-7.5v-39.786c0-14.029-12.47-25.443-27.798-25.443h-110.404c-15.328 0-27.798 11.414-27.798 25.443v124.114c0 14.029 12.47 25.443 27.798 25.443h110.404c15.328 0 27.798-11.414 27.798-25.443v-49.328c0-4.142-3.357-7.5-7.5-7.5s-7.5 3.358-7.5 7.5v49.329c0 5.758-5.741 10.443-12.798 10.443h-110.404c-7.057 0-12.798-4.685-12.798-10.443v-124.115c0-5.758 5.741-10.443 12.798-10.443h110.404c7.057 0 12.798 4.685 12.798 10.443v39.786c0 4.142 3.357 7.5 7.5 7.5z"/><path d="m467 251.521c4.143 0 7.5-3.358 7.5-7.5s-3.357-7.5-7.5-7.5h-15c-4.143 0-7.5 3.358-7.5 7.5s3.357 7.5 7.5 7.5z"/><path d="m437 274.021c0 4.142 3.357 7.5 7.5 7.5h30c4.143 0 7.5-3.358 7.5-7.5s-3.357-7.5-7.5-7.5h-30c-4.143 0-7.5 3.358-7.5 7.5z"/><path d="m452 326.521c-4.143 0-7.5 3.358-7.5 7.5s3.357 7.5 7.5 7.5h15c4.143 0 7.5-3.358 7.5-7.5s-3.357-7.5-7.5-7.5z"/><path d="m444.5 371.521h30c4.143 0 7.5-3.358 7.5-7.5s-3.357-7.5-7.5-7.5h-30c-4.143 0-7.5 3.358-7.5 7.5s3.357 7.5 7.5 7.5z"/><path d="m334.5 296.521c4.143 0 7.5-3.358 7.5-7.5v-35c0-4.142-3.357-7.5-7.5-7.5h-9c-4.143 0-7.5 3.358-7.5 7.5s3.357 7.5 7.5 7.5h1.5v27.5c0 4.143 3.357 7.5 7.5 7.5z"/><path d="m301.5 296.521c4.143 0 7.5-3.358 7.5-7.5v-35c0-4.142-3.357-7.5-7.5-7.5h-9c-4.143 0-7.5 3.358-7.5 7.5s3.357 7.5 7.5 7.5h1.5v27.5c0 4.143 3.357 7.5 7.5 7.5z"/><path d="m392 266.524c0-11.029-8.972-20.002-20-20.002s-20 8.973-20 20.002v9.995c0 11.03 8.972 20.003 20 20.003s20-8.973 20-20.003zm-15 9.995c0 2.759-2.243 5.003-5 5.003s-5-2.244-5-5.003v-9.995c0-2.758 2.243-5.002 5-5.002s5 2.244 5 5.002z"/><path d="m315.74 360.538c1.172.667 2.447.985 3.706.985 2.606 0 5.141-1.361 6.523-3.789l19.942-35c1.322-2.321 1.311-5.171-.032-7.481s-3.812-3.731-6.484-3.731h-24.957c-4.143 0-7.5 3.358-7.5 7.5s3.357 7.5 7.5 7.5h12.052l-13.554 23.787c-2.05 3.598-.794 8.178 2.804 10.229z"/><path d="m371.961 311.521c-11.017 0-19.979 8.973-19.979 20.002v9.995c0 11.03 8.962 20.003 19.979 20.003 11.016 0 19.978-8.973 19.978-20.003v-9.995c-.001-11.028-8.962-20.002-19.978-20.002zm4.977 29.998c0 2.759-2.233 5.003-4.978 5.003s-4.979-2.244-4.979-5.003v-9.995c0-2.758 2.233-5.002 4.979-5.002 2.744 0 4.978 2.244 4.978 5.002z"/><path d="m334 437h-65c-6.893 0-12.5 5.607-12.5 12.5v20c0 6.893 5.607 12.5 12.5 12.5h65c6.893 0 12.5-5.607 12.5-12.5v-20c0-6.893-5.607-12.5-12.5-12.5zm-2.5 30h-60v-15h60z"/><path d="m469 437h-65c-6.893 0-12.5 5.607-12.5 12.5v20c0 6.893 5.607 12.5 12.5 12.5h65c6.893 0 12.5-5.607 12.5-12.5v-20c0-6.893-5.607-12.5-12.5-12.5zm-2.5 30h-60v-15h60z"/><path d="m369.5 437c-4.143 0-7.5 3.358-7.5 7.5v30c0 4.142 3.357 7.5 7.5 7.5s7.5-3.358 7.5-7.5v-30c0-4.142-3.357-7.5-7.5-7.5z"/><path d="m100.5 70.5v54c0 5.79 4.71 10.5 10.5 10.5h78c5.79 0 10.5-4.71 10.5-10.5v-54c0-5.79-4.71-10.5-10.5-10.5h-78c-5.79 0-10.5 4.71-10.5 10.5zm15 4.5h69v45h-69z"/><path d="m162.25 90h-24c-4.142 0-7.5 3.358-7.5 7.5s3.358 7.5 7.5 7.5h24c4.142 0 7.5-3.358 7.5-7.5s-3.358-7.5-7.5-7.5z"/></g></g></svg>