<svg id="Capa_1" enable-background="new 0 0 512 512" height="512" viewBox="0 0 512 512" width="512" xmlns="http://www.w3.org/2000/svg"><g><g><g><path d="m441.361 261.587v221.006c0 12.099-9.808 21.908-21.908 21.908h-375.587c-12.099 0-21.908-9.808-21.908-21.908v-221.006z" fill="#d3ced5"/></g><g><path d="m21.958 261.586v221.006c0 12.099 9.808 21.908 21.908 21.908h28.08c-12.099 0-21.908-9.808-21.908-21.908v-47.854c15.214 13.556 35.18 21.256 55.632 21.256h335.691v-194.408z" fill="#c3bec6"/></g><g><path d="m441.361 124.356h-419.403v-60.029c0-11.046 8.954-20 20-20h379.403c11.046 0 20 8.954 20 20z" fill="#e58e82"/></g><g><path d="m70.038 44.327h-28.08c-11.046 0-20 8.954-20 20v60.029h28.08v-60.029c0-11.046 8.954-20 20-20z" fill="#e06c57"/></g><g><path d="m441.361 341.093v-216.737h-419.403v216.737c0 18.952 7.429 37.149 20.692 50.686l21.209 21.646c11.01 11.237 26.079 17.569 41.81 17.569h376.8c6.704 0 10.096-8.073 5.404-12.861l-25.821-26.354c-13.263-13.537-20.691-31.734-20.691-50.686z" fill="#f6f1f1"/></g><g><path d="m70.73 391.779c-13.264-13.537-20.692-31.734-20.692-50.686v-216.737h-28.08v216.737c0 18.952 7.429 37.149 20.692 50.686l21.209 21.646c11.01 11.237 26.079 17.569 41.81 17.569h28.08c-15.731 0-30.8-6.332-41.81-17.569z" fill="#e2dfe2"/></g><g><path d="m143.053 80.321h-9.457c-9.111 0-16.496-7.386-16.496-16.496v-39.829c0-9.111 7.386-16.496 16.496-16.496h9.457c9.111 0 16.496 7.386 16.496 16.496v39.829c0 9.111-7.386 16.496-16.496 16.496z" fill="#365f7e"/></g><g><path d="m131.14 63.825v-39.829c0-8.331 6.182-15.201 14.204-16.319-.751-.105-1.512-.177-2.292-.177h-9.457c-9.111 0-16.496 7.385-16.496 16.496v39.829c0 9.111 7.386 16.496 16.496 16.496h9.457c.78 0 1.541-.073 2.292-.177-8.023-1.118-14.204-7.988-14.204-16.319z" fill="#2c4d66"/></g><g><path d="m329.723 80.321h-9.457c-9.111 0-16.496-7.386-16.496-16.496v-39.829c0-9.111 7.386-16.496 16.496-16.496h9.457c9.111 0 16.496 7.386 16.496 16.496v39.829c0 9.111-7.386 16.496-16.496 16.496z" fill="#365f7e"/></g><g><path d="m317.81 63.825v-39.829c0-8.331 6.182-15.201 14.204-16.319-.751-.105-1.512-.177-2.292-.177h-9.457c-9.111 0-16.496 7.385-16.496 16.496v39.829c0 9.111 7.385 16.496 16.496 16.496h9.457c.78 0 1.541-.073 2.292-.177-8.022-1.118-14.204-7.988-14.204-16.319z" fill="#2c4d66"/></g></g><g><path d="m493.231 412.883-25.821-26.353c-11.962-12.209-18.55-28.345-18.55-45.437v-134.893c0-4.142-3.358-7.5-7.5-7.5s-7.5 3.358-7.5 7.5v134.893c0 21.041 8.11 40.905 22.835 55.935l25.855 26.347c0 .04-.047.131-.082.119h-115.064c-4.142 0-7.5 3.358-7.5 7.5s3.358 7.5 7.5 7.5h66.456v44.099c0 7.944-6.463 14.408-14.408 14.408h-375.586c-7.944 0-14.408-6.463-14.408-14.408v-94.88c2.356 3.269 4.966 6.386 7.835 9.315l21.209 21.646c12.341 12.596 29.533 19.82 47.167 19.82h228.615c4.142 0 7.5-3.358 7.5-7.5s-3.358-7.5-7.5-7.5h-228.614c-13.628 0-26.915-5.583-36.453-15.318l-21.209-21.646c-11.961-12.208-18.549-28.344-18.549-45.437v-209.237h404.401v39.384c0 4.142 3.358 7.5 7.5 7.5s7.5-3.358 7.5-7.5v-106.913c0-15.164-12.336-27.5-27.5-27.5h-67.642v-12.831c.001-13.231-10.764-23.996-23.995-23.996h-9.457c-13.231 0-23.996 10.765-23.996 23.996v12.831h-108.386c-4.142 0-7.5 3.358-7.5 7.5s3.358 7.5 7.5 7.5h108.386v11.998c0 13.231 10.765 23.996 23.996 23.996h9.457c13.231 0 23.996-10.765 23.996-23.996v-11.998h67.642c6.893 0 12.5 5.607 12.5 12.5v52.529h-404.403v-52.529c0-6.893 5.607-12.5 12.5-12.5h44.566c4.142 0 7.5-3.358 7.5-7.5s-3.358-7.5-7.5-7.5h-44.566c-15.164 0-27.5 12.336-27.5 27.5v418.265c0 16.216 13.192 29.408 29.408 29.408h375.587c16.215 0 29.408-13.192 29.408-29.408v-44.099h33.609c6.082 0 11.534-3.623 13.89-9.23s1.127-12.036-3.129-16.38zm-154.512-349.058c0 4.96-4.036 8.996-8.996 8.996h-9.457c-4.96 0-8.996-4.036-8.996-8.996v-39.829c0-4.96 4.036-8.996 8.996-8.996h9.457c4.96 0 8.996 4.036 8.996 8.996z"/><path d="m133.596 87.821h9.457c13.231 0 23.996-10.765 23.996-23.996v-39.829c-.001-13.231-10.765-23.996-23.997-23.996h-9.457c-13.231 0-23.995 10.765-23.995 23.996v39.829c0 13.232 10.764 23.996 23.996 23.996zm-8.996-63.825c0-4.96 4.036-8.996 8.996-8.996h9.457c4.96 0 8.996 4.036 8.996 8.996v39.829c0 4.96-4.036 8.996-8.996 8.996h-9.457c-4.96 0-8.996-4.036-8.996-8.996z"/><path d="m236.906 292.727c0 23.545 19.155 42.7 42.7 42.7s42.701-19.155 42.701-42.7c0-15.362-8.157-28.85-20.364-36.374 6.648-6.069 10.826-14.8 10.826-24.49 0-18.286-14.877-33.163-33.163-33.163s-33.163 14.876-33.163 33.163c0 9.69 4.178 18.421 10.826 24.49-12.206 7.523-20.363 21.012-20.363 36.374zm24.537-60.864c0-10.015 8.148-18.163 18.163-18.163s18.163 8.148 18.163 18.163-8.148 18.163-18.163 18.163-18.163-8.148-18.163-18.163zm18.164 33.163c15.274 0 27.701 12.426 27.701 27.701 0 15.274-12.426 27.7-27.701 27.7-15.274 0-27.7-12.426-27.7-27.7-.001-15.275 12.426-27.701 27.7-27.701z"/><path d="m216.536 236.752c-.321-20.979-17.069-38.05-38.05-38.05-18.142 0-33.844 12.904-37.336 30.683-.798 4.064 1.85 8.006 5.914 8.805 4.061.797 8.006-1.849 8.805-5.914 2.114-10.762 11.626-18.573 22.617-18.573 12.562 0 22.809 10.1 23.045 22.605l-.475 3.719c-1.621 6.699-5.471 14.422-11.446 22.96-18.984 27.124-30.318 41.965-36.408 49.938-7.278 9.53-9.008 11.794-7.613 16.329.775 2.521 2.707 4.462 5.298 5.326.991.33 2.589.865 25.348.865 8.957 0 21.195-.083 37.957-.293 4.142-.052 7.457-3.452 7.405-7.594s-3.453-7.465-7.594-7.405c-17.134.215-35.818.331-47.641.253 6.405-8.395 17.593-23.181 35.536-48.817 7.186-10.267 11.847-19.865 13.854-28.526 0 0 .82-3.959.784-6.311z"/></g></g></svg>