<svg id="Capa_1" enable-background="new 0 0 512 512" height="512" viewBox="0 0 512 512" width="512" xmlns="http://www.w3.org/2000/svg"><g><g><g><path d="m105.5 166h-51v-43.492c0-4.323.51-6.632 1.519-10.836l8.641-36.006c1.079-4.496 3.1-6.666 7.724-6.666l12.116-1h3.116c4.624 0 8.645 3.17 9.724 7.666l8.641 36.006c1.009 4.204 1.519 8.512 1.519 12.836v23.492z" fill="#ffe07d"/><path d="m72.5 143v-18.492c0-4.323.51-8.632 1.519-12.836l10.481-43.672h-12.116c-4.624 0-8.645 3.17-9.724 7.666l-8.641 36.006c-1.009 4.204-1.519 8.512-1.519 12.835v43.493l28.5 2 26.5-2v-20h-30c-2.761 0-5-2.239-5-5z" fill="#ffd064"/><path d="m125.5 281h-91v-91c0-11.046 6.954-22 18-22h55c11.046 0 20 8.954 20 20v47.5l-2 7.309 2 7.691v12.5z" fill="#ffe07d"/><path d="m52.5 258v-7.5l-1-7.5 1-7.5v-67.5c-11.046 0-20 8.954-20 20v47.5l1 7.5-1 7.5v32.5l48.5 3 46.5-3v-20h-70c-2.761 0-5-2.239-5-5z" fill="#ffd064"/><path d="m128.5 443h-97c-12.703 0-23-10.297-23-23v-113c0-11.685 7.714-22.336 18.999-23.806.982-.128 1.984-.194 3.001-.194h99c12.703 0 23 10.297 23 23v12.5l-2 46.457 2 43.543v12.5c0 1.017-.066 2.019-.194 3.001-1.47 11.285-12.121 18.999-23.806 18.999z" fill="#f9f8f9"/><path d="m27.5 414v-5.5l-2-45.5 2-44.5v-35.306c-11.284 1.471-20 11.121-20 22.806v12.5l2 44.5-2 45.5v12.5c0 12.703 10.297 23 23 23h99c11.685 0 21.335-8.715 22.806-19.999l-114.806-.001c-5.523 0-10-4.477-10-10z" fill="#e8e8e8"/><g><path d="m152.5 408.5h-125l-19-1v-88l19-1h125z" fill="#afefa5"/></g><path d="m7.5 318.5h20v90h-20z" fill="#8ce1a4"/></g><g><path d="m281.5 166h-51v-43.492c0-4.323.51-6.632 1.519-10.836l8.641-36.006c1.079-4.496 3.1-6.666 7.724-6.666l12.116-1h3.116c4.624 0 8.645 3.17 9.724 7.666l8.641 36.006c1.009 4.204 1.519 8.512 1.519 12.836v23.492z" fill="#ffe07d"/><path d="m248.5 143v-18.492c0-4.323.51-8.632 1.519-12.836l10.481-43.672h-12.116c-4.624 0-8.645 3.17-9.724 7.666l-8.641 36.006c-1.009 4.204-1.519 8.512-1.519 12.835v43.493l28.5 2 26.5-2v-20h-30c-2.761 0-5-2.239-5-5z" fill="#ffd064"/><path d="m301.5 281h-91v-91c0-11.046 6.954-22 18-22h55c11.046 0 20 8.954 20 20v47.5l-2 7.309 2 7.691v12.5z" fill="#ffe07d"/><path d="m228.5 258v-7.5l-1-7.5 1-7.5v-67.5c-11.046 0-20 8.954-20 20v47.5l1 7.5-1 7.5v32.5l48.5 3 46.5-3v-20h-70c-2.761 0-5-2.239-5-5z" fill="#ffd064"/><path d="m304.5 443h-97c-12.703 0-23-10.297-23-23v-113c0-11.685 7.714-22.336 18.999-23.806.982-.128 1.984-.194 3.001-.194h99c12.703 0 23 10.297 23 23v12.5l-2 46.457 2 43.543v12.5c0 1.017-.066 2.019-.194 3.001-1.47 11.285-12.121 18.999-23.806 18.999z" fill="#f9f8f9"/><path d="m203.5 414v-5.5l-2-45.5 2-44.5v-35.306c-11.284 1.471-20 11.121-20 22.806v12.5l2 44.5-2 45.5v12.5c0 12.703 10.297 23 23 23h99c11.685 0 21.335-8.716 22.806-20h-114.806c-5.523 0-10-4.477-10-10z" fill="#e8e8e8"/><g><path d="m328.5 408.5h-125l-19-1v-88l19-1h125z" fill="#afefa5"/></g><path d="m183.5 318.5h20v90h-20z" fill="#8ce1a4"/></g><g><path d="m457.5 166h-51v-43.492c0-4.323.51-6.632 1.519-10.836l8.641-36.006c1.079-4.496 3.1-6.666 7.724-6.666l12.116-1h3.116c4.624 0 8.645 3.17 9.724 7.666l8.641 36.006c1.009 4.204 1.519 8.512 1.519 12.836v23.492z" fill="#ffe07d"/><path d="m424.5 143v-18.492c0-4.323.51-8.632 1.519-12.836l10.481-43.672h-12.116c-4.624 0-8.645 3.17-9.724 7.666l-8.641 36.006c-1.009 4.204-1.519 8.512-1.519 12.835v43.493l28.5 2 26.5-2v-20h-30c-2.761 0-5-2.239-5-5z" fill="#ffd064"/><path d="m477.5 281h-91v-91c0-11.046 6.954-22 18-22h55c11.046 0 20 8.954 20 20v47.5l-2 7.309 2 7.691v12.5z" fill="#ffe07d"/><path d="m404.5 258v-7.5l-1-7.5 1-7.5v-67.5c-11.046 0-20 8.954-20 20v47.5l1 7.5-1 7.5v32.5l48.5 3 46.5-3v-20h-70c-2.761 0-5-2.239-5-5z" fill="#ffd064"/><path d="m480.5 443h-97c-12.703 0-23-10.297-23-23v-113c0-11.685 7.714-22.336 18.999-23.806.982-.128 1.984-.194 3.001-.194h99c12.703 0 23 10.297 23 23v12.5l-2 46.457 2 43.543v12.5c0 1.017-.066 2.019-.194 3.001-1.47 11.285-12.121 18.999-23.806 18.999z" fill="#f9f8f9"/><path d="m379.5 414v-5.5l-2-45.5 2-44.5v-35.306c-11.284 1.471-20 11.121-20 22.806v12.5l2 44.5-2 45.5v12.5c0 12.703 10.297 23 23 23h99c11.685 0 21.335-8.716 22.806-20h-114.806c-5.523 0-10-4.477-10-10z" fill="#e8e8e8"/><g><path d="m504.5 408.5h-125l-19-1v-88l19-1h125z" fill="#afefa5"/></g><path d="m359.5 318.5h20v90h-20z" fill="#8ce1a4"/></g></g><g><path d="m311 276.006v-88.006c0-12.563-8.472-23.178-20-26.452v-37.04c0-4.907-.581-9.814-1.726-14.586l-8.642-36.005c-1.896-7.899-8.893-13.417-17.017-13.417h-15.232c-8.124 0-15.121 5.517-17.017 13.416l-8.642 36.006c-1.145 4.772-1.726 9.679-1.726 14.586v37.04c-11.528 3.274-20 13.889-20 26.452v9.5c0 4.142 3.358 7.5 7.5 7.5s7.5-3.358 7.5-7.5v-9.5c0-6.893 5.607-12.5 12.5-12.5h55c6.893 0 12.5 5.607 12.5 12.5v48h-80v-3.5c0-4.142-3.358-7.5-7.5-7.5s-7.5 3.358-7.5 7.5v43.506c-14.2 2.598-25 15.054-25 29.994v115c0 16.818 13.682 30.5 30.5 30.5h99c16.818 0 30.5-13.682 30.5-30.5v-115c.002-14.939-10.798-27.396-24.998-29.994zm-73.688-162.584 8.642-36.006c.271-1.128 1.271-1.917 2.431-1.917h15.232c1.16 0 2.16.788 2.431 1.917l8.642 36.005c.87 3.627 1.312 7.356 1.312 11.086v35.993h-40v-35.992c-.002-3.73.439-7.459 1.31-11.086zm58.688 137.578v24.5h-80v-24.5zm-89.5 39.5h99c8.547 0 15.5 6.953 15.5 15.5v5h-130v-5c0-8.547 6.953-15.5 15.5-15.5zm99 146h-99c-8.547 0-15.5-6.953-15.5-15.5v-5h67.532c4.142 0 7.5-3.358 7.5-7.5s-3.358-7.5-7.5-7.5h-67.532v-75h130v75h-27.468c-4.142 0-7.5 3.358-7.5 7.5s3.358 7.5 7.5 7.5h27.468v5c0 8.547-6.953 15.5-15.5 15.5z"/><path d="m243.5 355.5h-7.5v-7.5c0-4.142-3.358-7.5-7.5-7.5s-7.5 3.358-7.5 7.5v7.5h-7.5c-4.142 0-7.5 3.358-7.5 7.5s3.358 7.5 7.5 7.5h7.5v7.5c0 4.142 3.358 7.5 7.5 7.5s7.5-3.358 7.5-7.5v-7.5h7.5c4.142 0 7.5-3.358 7.5-7.5s-3.358-7.5-7.5-7.5z"/><path d="m268.5 355.5h30c4.142 0 7.5-3.358 7.5-7.5s-3.358-7.5-7.5-7.5h-30c-4.142 0-7.5 3.358-7.5 7.5s3.358 7.5 7.5 7.5z"/><path d="m306 378c0-4.142-3.358-7.5-7.5-7.5h-30c-4.142 0-7.5 3.358-7.5 7.5s3.358 7.5 7.5 7.5h30c4.142 0 7.5-3.358 7.5-7.5z"/><path d="m135 276.006v-88.006c0-12.563-8.472-23.178-20-26.452v-37.04c0-4.907-.581-9.814-1.726-14.586l-8.642-36.005c-1.895-7.9-8.892-13.417-17.016-13.417h-15.232c-8.124 0-15.121 5.517-17.017 13.416l-8.642 36.006c-1.144 4.772-1.725 9.679-1.725 14.586v37.04c-11.528 3.274-20 13.889-20 26.452v88.006c-14.2 2.598-25 15.055-25 29.994v115c0 16.818 13.682 30.5 30.5 30.5h99c16.818 0 30.5-13.682 30.5-30.5v-40.17c0-4.142-3.358-7.5-7.5-7.5s-7.5 3.358-7.5 7.5v20.17h-130v-75h130v19.83c0 4.142 3.358 7.5 7.5 7.5s7.5-3.358 7.5-7.5v-39.83c0-14.939-10.8-27.396-25-29.994zm-95-25.506h80v25h-80zm21.312-137.078 8.642-36.006c.271-1.128 1.271-1.917 2.431-1.917h15.232c1.16 0 2.16.788 2.431 1.917l8.642 36.005c.87 3.627 1.312 7.356 1.312 11.086v35.993h-40.002v-35.992c0-3.73.441-7.459 1.312-11.086zm-8.812 62.078h55c6.893 0 12.5 5.607 12.5 12.5v47.5h-80v-47.5c0-6.893 5.607-12.5 12.5-12.5zm92.5 240.5v5c0 8.547-6.953 15.5-15.5 15.5h-99c-8.547 0-15.5-6.953-15.5-15.5v-5zm-130-105v-5c0-8.547 6.953-15.5 15.5-15.5h99c8.547 0 15.5 6.953 15.5 15.5v5z"/><path d="m52.5 385.5c4.142 0 7.5-3.358 7.5-7.5v-7.5h7.5c4.142 0 7.5-3.358 7.5-7.5s-3.358-7.5-7.5-7.5h-7.5v-7.5c0-4.142-3.358-7.5-7.5-7.5s-7.5 3.358-7.5 7.5v7.5h-7.5c-4.142 0-7.5 3.358-7.5 7.5s3.358 7.5 7.5 7.5h7.5v7.5c0 4.142 3.358 7.5 7.5 7.5z"/><path d="m122.5 340.5h-30c-4.142 0-7.5 3.358-7.5 7.5s3.358 7.5 7.5 7.5h30c4.142 0 7.5-3.358 7.5-7.5s-3.358-7.5-7.5-7.5z"/><path d="m122.5 370.5h-30c-4.142 0-7.5 3.358-7.5 7.5s3.358 7.5 7.5 7.5h30c4.142 0 7.5-3.358 7.5-7.5s-3.358-7.5-7.5-7.5z"/><path d="m487 276.006v-88.006c0-12.563-8.472-23.178-20-26.452v-37.04c0-4.907-.581-9.814-1.726-14.586l-8.642-36.005c-1.896-7.899-8.893-13.417-17.017-13.417h-15.232c-8.124 0-15.121 5.517-17.017 13.416l-8.642 36.006c-1.145 4.772-1.726 9.679-1.726 14.586v37.04c-11.528 3.274-20 13.889-20 26.452v88.006c-14.2 2.598-25 15.054-25 29.994v115c0 16.818 13.682 30.5 30.5 30.5h99c16.818 0 30.5-13.682 30.5-30.5v-115c.002-14.939-10.798-27.396-24.998-29.994zm-95-25.006h80v24.5h-80zm21.312-137.578 8.642-36.006c.271-1.128 1.271-1.917 2.431-1.917h15.232c1.16 0 2.16.788 2.431 1.917l8.642 36.005c.87 3.627 1.312 7.356 1.312 11.086v35.993h-40v-35.992c-.002-3.73.439-7.459 1.31-11.086zm-8.812 62.078h55c6.893 0 12.5 5.607 12.5 12.5v48h-80v-48c0-6.893 5.607-12.5 12.5-12.5zm-22 115h99c8.547 0 15.5 6.953 15.5 15.5v5h-49.17c-4.142 0-7.5 3.358-7.5 7.5s3.358 7.5 7.5 7.5h49.17v75h-130v-75h45.83c4.142 0 7.5-3.358 7.5-7.5s-3.358-7.5-7.5-7.5h-45.83v-5c0-8.547 6.953-15.5 15.5-15.5zm99 146h-99c-8.547 0-15.5-6.953-15.5-15.5v-5h130v5c0 8.547-6.953 15.5-15.5 15.5z"/><path d="m412 355.5v-7.5c0-4.142-3.358-7.5-7.5-7.5s-7.5 3.358-7.5 7.5v7.5h-7.5c-4.142 0-7.5 3.358-7.5 7.5s3.358 7.5 7.5 7.5h7.5v7.5c0 4.142 3.358 7.5 7.5 7.5s7.5-3.358 7.5-7.5v-7.5h7.5c4.142 0 7.5-3.358 7.5-7.5s-3.358-7.5-7.5-7.5z"/><path d="m444.5 355.5h30c4.142 0 7.5-3.358 7.5-7.5s-3.358-7.5-7.5-7.5h-30c-4.142 0-7.5 3.358-7.5 7.5s3.358 7.5 7.5 7.5z"/><path d="m444.5 385.5h30c4.142 0 7.5-3.358 7.5-7.5s-3.358-7.5-7.5-7.5h-30c-4.142 0-7.5 3.358-7.5 7.5s3.358 7.5 7.5 7.5z"/></g></g></svg>