<svg id="Capa_1" enable-background="new 0 0 512 512" height="512" viewBox="0 0 512 512" width="512" xmlns="http://www.w3.org/2000/svg"><g><g><g><path d="m238.5 329h90v30h-90z" fill="#909ba6"/><path d="m253.5 343v-14h-17v32h95v-32h-18v14c0 1.657-1.343 3-3 3h-54c-1.657 0-3-1.343-3-3z" fill="#7e8b96"/><path d="m227.5 372h-191c-4.971 0-7-4.029-7-9v-30l13-2 102.5-2 93.5 2v28l-2 6c0 4.971-4.029 7-9 7z" fill="#b9c3cd"/><path d="m47.5 359c-2.761 0-5-2.239-5-5v-23l-6.968-2-8.032 2v34c0 4.971 4.029 9 9 9h193c4.971 0 9-4.029 9-9v-6z" fill="#a2abb8"/><path d="m132.5 368.5c0-17.786-12.383-32.68-28.997-36.532-2.732-.633-5.579 1.032-8.503 1.032-20.711 0-35.5 14.789-35.5 35.5s14.789 35.5 35.5 35.5c2.924 0 5.771 1.665 8.503 1.032 16.614-3.852 28.997-18.746 28.997-36.532z" fill="#f9f8f9"/><path d="m74.5 368.5c0-17.786 12.386-32.668 29-36.521-2.732-.633-5.575-.979-8.5-.979-20.711 0-37.5 16.789-37.5 37.5s16.789 37.5 37.5 37.5c2.925 0 5.768-.346 8.5-.979-16.614-3.853-29-18.735-29-36.521z" fill="#e8e8e8"/></g><path d="m403.638 165.894-72.511-1.277v-45.702l12.373-1.915h9.474c20.826 0 39.527 12.754 47.131 32.143l1.513 3.857z" fill="#f9f8f9"/><path d="m326.277 168.532 53.17.936 28.053-1.468-5.882-15h-75.171z" fill="#e8e8e8"/><path d="m343.5 165v-48h-15l-4 23.5 4 27.5 15 1.157z" fill="#e8e8e8"/><path d="m343.5 153v15.547l-15.02-.03-2.03-14.607v-.91z" fill="#dcdbdd"/><g><path d="m331.5 347v18c0 4.971 4.029 7 9 7h142c9.317 0 19.076-4.453 21.375-13 .046-.172.081-.342.121-.518.33-1.441.504-2.941.504-4.482v-10l-75.415-2-85.585 2z" fill="#b9c3cd"/><path d="m501.426 341.298 3.074-12.298v-7.742c0-15.565-8.669-29.834-22.482-37.007l-25.518-13.251-23.378-42.836-11.35-30.164-14.272-30h-64l-12.372 3v170.809z" fill="#f9f8f9"/><path d="m503.875 359h-156.375c-2.209 0-4-1.791-4-4v-11h-15v21c0 4.971 4.029 9 9 9h147c9.504 0 17.213-6.691 19.375-15z" fill="#a2abb8"/><path d="m343.5 325v-157h-15l-3 86.904 3 76.096v13h176v-15h-157c-2.209 0-4-1.791-4-4z" fill="#e8e8e8"/><path d="m452.149 269.043-42.515.936c-3.544 0-6.823-1.875-8.619-4.93 0 0-7.845-12.799-20.951-12.799h-9.915c-5.523 0-10-4.477-10-10l-.649-33.25c0-5.523 4.477-10 10-10l2-1h50.272l28.544 60z" fill="#c8effe"/><path d="m408.413 256.262-.887-1.031c-7.777-9.035-19.105-14.231-31.026-14.231-2.761 0-5-2.239-5-5v-38h-3c-5.523 0-10 4.477-10 10v36c0 5.523 4.477 10 10 10h9.132c8.897 0 17.464 4.369 21.955 12.049 1.794 3.067 5.08 4.951 8.632 4.951h48.281l-6.185-13h-38.113c-1.455 0-2.839-.635-3.789-1.738z" fill="#a9e5f7"/><path d="m455.5 368.5c0-17.786-12.383-32.68-28.997-36.532-2.732-.633-5.579.032-8.503.032-20.711 0-36.5 15.789-36.5 36.5s15.789 36.5 36.5 36.5c2.924 0 5.771.665 8.503.032 16.614-3.852 28.997-18.746 28.997-36.532z" fill="#f9f8f9"/><path d="m397.5 368.5c0-17.786 12.386-32.668 29-36.521-2.732-.634-5.575-.979-8.5-.979-20.711 0-37.5 16.789-37.5 37.5s16.789 37.5 37.5 37.5c2.925 0 5.768-.346 8.5-.979-16.614-3.853-29-18.735-29-36.521z" fill="#e8e8e8"/></g><g><path d="m326.5 329h-307c-5.523 0-9-2.477-9-8l-1-203c0-5.523 4.477-10 10-10l3-2h296c5.523 0 10 4.477 10 10v30l-2 71.5 2 73.5v25z" fill="#c8effe"/><path d="m328.5 291h-306l-13-2v-141l13-2h306z" fill="#f9f8f9"/><path d="m27.5 316c-2.761 0-5-2.239-5-5v-20l-1.933-3.319.004-136.511 1.929-5.17v-40h-5c-5.523 0-10 4.477-10 10v30l1.865 5.521.135 136.16-2 3.319v30c0 5.523 4.477 10 10 10h311v-15z" fill="#a9e5f7"/><path d="m7.5 146h15v145h-15z" fill="#e8e8e8"/><g><path d="m143.925 202.938h-21.788c-1.146 0-2.075-.929-2.075-2.075v-21.788c0-1.146-.929-2.075-2.075-2.075h-19.05l-7.925 2c-1.146 0-.075.929-.075 2.075v19.788c0 1.146-2.929 2.075-4.075 2.075h-13.862l-6.925 1c-1.146 0-2.075.929-2.075 2.075v24.975c0 1.146.929 2.075 2.075 2.075h21.788c1.146 0 2.075.929 2.075 2.075v21.787c0 1.146.929 2.075 2.075 2.075h24.975c1.146 0 2.075-.929 2.075-2.075l1-6.925v-13.863c0-1.146.929-4.075 2.075-4.075l20.788 1c1.146 0 2.075-.929 2.075-2.075l1-6.925v-19.05c-.001-1.145-.93-2.074-2.076-2.074z" fill="#e27f86"/><g fill="#df646e"><path d="m128.062 224.062c-4.418 0-8 3.582-8 8v4.075c0-1.146.929-2.075 2.075-2.075h21.788c1.146 0 2.075-.929 2.075-2.075v-7.925z"/><path d="m101.012 250c-1.146 0-2.075-.929-2.075-2.075v-15.863c0-4.418-3.582-8-8-8h-15.862c-1.146 0-2.075-.929-2.075-2.075v-19.05h-7.925c-1.146 0-2.075.929-2.075 2.075v26.975c0 1.146.929 2.075 2.075 2.075h21.787c1.146 0 2.075.929 2.075 2.075v21.787c0 1.146.929 2.075 2.075 2.075h26.975c1.146 0 2.075-.929 2.075-2.075v-7.924z"/></g><g><path d="m98.938 194.938v-17.938h-7.925c-1.146 0-2.075.929-2.075 2.075v21.788c0 1.146-.929 2.075-2.075 2.075h4.075c4.418 0 8-3.582 8-8z" fill="#df646e"/></g></g></g></g><g><path d="m485.474 277.595-23.282-12.09-47.887-100.66c-.03-.084-.052-.169-.084-.252l-7.133-18.188c-8.791-22.419-30.031-36.905-54.112-36.905h-18.24c-2.587-6.437-8.883-11-16.234-11h-179c-4.143 0-7.5 3.358-7.5 7.5s3.357 7.5 7.5 7.5h179c1.379 0 2.5 1.122 2.5 2.5v22.5h-306.002v-22.5c0-1.378 1.121-2.5 2.5-2.5h87c4.143 0 7.5-3.358 7.5-7.5s-3.357-7.5-7.5-7.5h-87c-9.649 0-17.5 7.851-17.5 17.5v205c0 9.649 7.851 17.5 17.5 17.5h2.5v26.5c0 9.098 7.402 16.5 16.5 16.5h15.422c5.592 18.494 22.784 32 43.078 32s37.486-13.506 43.078-32h24.991c4.143 0 7.5-3.358 7.5-7.5s-3.357-7.5-7.5-7.5h-23.12c-.472-10.732-4.719-20.496-11.444-28h102.495v26.5c0 .827-.673 1.5-1.5 1.5h-31.431c-4.143 0-7.5 3.358-7.5 7.5s3.357 7.5 7.5 7.5h31.431c7.896 0 14.508-5.579 16.118-13h75.764c1.611 7.421 8.222 13 16.118 13h37.422c5.592 18.494 22.784 32 43.078 32s37.486-13.506 43.078-32h23.422c15.163 0 27.5-12.336 27.5-27.5v-32.742c0-18.436-10.164-35.167-26.526-43.663zm-40.847-14.095h-36.407c-.882 0-1.707-.472-2.154-1.232-5.722-9.726-16.285-15.768-27.569-15.768h-9.997c-1.379 0-2.5-1.122-2.5-2.5v-36c0-1.378 1.121-2.5 2.5-2.5h48.535zm-51.505-111.619 3.38 8.619h-60.502v-36h16.975c17.866 0 33.625 10.748 40.147 27.381zm-378.122 169.119v-22.5h188.5c4.143 0 7.5-3.358 7.5-7.5s-3.357-7.5-7.5-7.5h-188.5v-130h306v50.947c0 4.142 3.357 7.5 7.5 7.5s7.5-3.358 7.5-7.5v-28.947h66.763l7.136 15h-41.399c-9.649 0-17.5 7.851-17.5 17.5v36c0 9.649 7.851 17.5 17.5 17.5h9.996c5.992 0 11.602 3.208 14.64 8.372 3.129 5.322 8.909 8.628 15.084 8.628h46.449l23.893 12.407c11.373 5.906 18.438 17.536 18.438 30.351v15.242h-47.4c-8.132-8.031-19.295-13-31.6-13s-23.469 4.969-31.6 13h-50.4c.001-4.96 0-96.926 0-97.053 0-4.142-3.357-7.5-7.5-7.5s-7.5 3.358-7.5 7.5v44.053h-82.5c-4.143 0-7.5 3.358-7.5 7.5s3.357 7.5 7.5 7.5h82.5v25h-303.5c-1.379 0-2.5-1.122-2.5-2.5zm20 44v-26.5h26.495c-6.726 7.504-10.972 17.268-11.444 28h-13.551c-.827 0-1.5-.673-1.5-1.5zm90 3.5c0 16.542-13.458 30-30 30s-30-13.458-30-30 13.458-30 30-30 30 13.458 30 30zm196-30v15h-75v-15zm15 26.5v-13.5h40.345c-1.91 4.663-3.062 9.713-3.294 15h-35.551c-.827 0-1.5-.673-1.5-1.5zm82 33.5c-16.542 0-30-13.458-30-30s13.458-30 30-30 30 13.458 30 30-13.458 30-30 30zm66.5-32h-21.551c-.232-5.287-1.384-10.337-3.294-15h37.345v2.5c0 6.893-5.607 12.5-12.5 12.5z"/><path d="m358.5 294.5h17c4.143 0 7.5-3.358 7.5-7.5s-3.357-7.5-7.5-7.5h-17c-4.143 0-7.5 3.358-7.5 7.5s3.357 7.5 7.5 7.5z"/><path d="m143.925 195.438h-16.362v-16.362c0-5.28-4.296-9.575-9.575-9.575h-26.975c-5.279 0-9.575 4.295-9.575 9.575v16.362h-16.363c-5.279 0-9.575 4.295-9.575 9.575v26.975c0 5.28 4.296 9.575 9.575 9.575h16.362v16.362c0 5.28 4.296 9.575 9.575 9.575h26.975c5.279 0 9.575-4.295 9.575-9.575v-16.362h16.362c5.279 0 9.575-4.295 9.575-9.575v-26.975c.001-5.28-4.295-9.575-9.574-9.575zm-5.425 31.124h-16.362c-5.279 0-9.575 4.295-9.575 9.575v16.363h-16.125v-16.362c0-5.28-4.296-9.575-9.575-9.575h-16.363v-16.125h16.362c5.279 0 9.575-4.295 9.575-9.575v-16.363h16.125v16.362c0 5.28 4.296 9.575 9.575 9.575h16.363z"/><path d="m176.5 192.25h52c4.143 0 7.5-3.358 7.5-7.5s-3.357-7.5-7.5-7.5h-52c-4.143 0-7.5 3.358-7.5 7.5s3.357 7.5 7.5 7.5z"/><path d="m241.639 229.75h31.361c4.143 0 7.5-3.358 7.5-7.5s-3.357-7.5-7.5-7.5h-31.361c-4.143 0-7.5 3.358-7.5 7.5s3.357 7.5 7.5 7.5z"/><path d="m176.5 229.75h35.139c4.143 0 7.5-3.358 7.5-7.5s-3.357-7.5-7.5-7.5h-35.139c-4.143 0-7.5 3.358-7.5 7.5s3.357 7.5 7.5 7.5z"/><path d="m280.5 252.25c0-4.142-3.357-7.5-7.5-7.5h-96.5c-4.143 0-7.5 3.358-7.5 7.5s3.357 7.5 7.5 7.5h96.5c4.143 0 7.5-3.358 7.5-7.5z"/></g></g></svg>