<svg id="Capa_1" enable-background="new 0 0 512.008 512.008" height="512" viewBox="0 0 512.008 512.008" width="512" xmlns="http://www.w3.org/2000/svg"><g><g><path d="m47.755 128.544v120.788c0 92.472 49.928 174.959 131.632 218.264l53.277 29.106c12.007 6.364 25.943 9.487 38.649 5.406 2.78-.893 5.499-2.035 8.126-3.428l54.052-28.659c81.686-43.311 132.763-128.206 132.763-220.664v-121.84c0-7.644-5.761-14.017-13.355-14.89-50.101-5.761-86.072-43.745-91.745-91.735-.899-7.606-7.24-13.392-14.9-13.392h-180.399c-7.597 0-14.098 5.635-14.974 13.181-5.417 46.647-39.449 85.363-90.122 91.773-.597.076-1.197.147-1.798.213-7.543.833-11.206 8.29-11.206 15.877z" fill="#8ce1a4"/><path d="m179.141 452.845c-72.224-38.28-118.387-119.332-118.387-201.074l.003-139.318c-.6.076-1.194.146-1.798.213-7.541.834-13.205 7.29-13.205 14.877v121.788c0 92.472 51.092 177.376 132.796 220.681l54.094 28.671c12.007 6.364 25.962 7.505 38.667 3.425z" fill="#7bd6a4"/><path d="m431.294 140.864c-38.494-3.592-94.624-50.871-98.142-97.453-.195-2.586-2.378-4.569-4.972-4.569h-146.008c-2.598 0-4.781 1.989-4.972 4.579-2.995 40.593-44.936 81.712-81.047 93.987h-.001v-.005c-5.321 1.808-10.516 2.996-15.44 3.458-2.58.242-4.56 2.379-4.56 4.97v102.353c0 81.375 44.961 156.091 116.861 194.199l51.33 27.206c7.317 3.878 16.081 3.877 23.397-.002l11.451-6.072 39.837-21.124c71.881-38.115 116.826-112.82 116.826-194.181v-102.376c.002-2.591-1.979-4.729-4.56-4.97z" fill="#afefa5"/><g><path d="m295.372 229.899 1-14v-23.404h-33.326l-32.41 1-14 1v35.404z" fill="#b9c3cd"/><path d="m230.636 212.899v-19.404l-7.674-3-7.326 3v37.404l41.879 2 38.858-2v-15h-62.736c-1.658 0-3.001-1.343-3.001-3z" fill="#a2abb8"/><path d="m313.042 141.035h-114.076v-18.184c0-5.574 3.518-8.092 9.092-8.092l3.908-2h92.985c5.574 0 10.092 4.518 10.092 10.092v5.184z" fill="#b9c3cd"/><path d="m211.966 125.035v-12.276h-4.908c-5.574 0-10.092 4.518-10.092 10.092v21.184l60.038 1 58.038-1v-16h-100.076c-1.657 0-3-1.343-3-3z" fill="#a2abb8"/><path d="m317.667 192.495h-124.326c-5.523 0-9-4.477-9-10v-28.46c0-5.523 4.477-10 10-10l4-1h120.325c5.523 0 10 4.477 10 10v25.46l-1 4c.001 5.523-4.477 10-9.999 10z" fill="#909ba6"/><path d="m198.341 175.495v-32.46h-5c-5.523 0-10 4.477-10 10v30.46c0 5.523 4.477 10 10 10h125.325c5.523 0 10-4.477 10-10v-5h-127.325c-1.657 0-3-1.343-3-3z" fill="#7e8b96"/><g><path d="m208.571 230.835c-3.643 0-7.105.772-10.233 2.161-8.835 3.925-12.997 13.777-12.997 24.069l-1 122.547c0 9.475 6.681 17.156 16.156 17.156h109.013c8.744 0 17.961-4.542 19.022-12.998.089-.707.134-1.427.134-2.158v-30.44l-2-29.971 2-29.971v-35.165c0-13.934-11.296-25.23-25.23-25.23h-19.959l-.708 1.956-53.809.044-.431-2z" fill="#f9f8f9"/><path d="m198.341 380.769v-29.596l-2-29.971 2-29.972-.005-58.232c-8.835 3.925-14.995 12.776-14.995 23.067v35.165l2 29.972-2 29.971v30.44c0 9.475 7.681 17.156 17.156 17.156h111.013c8.743 0 15.959-6.545 17.022-15h-127.191c-1.657 0-3-1.343-3-3z" fill="#e8e8e8"/></g><g><g><path d="m328.667 351.173h-130.326l-14-1v-57.943l14-1h130.326z" fill="#7dc3ee"/></g><path d="m183.341 291.23h15v59.943h-15z" fill="#64acdc"/></g><path d="m283.478 230.835v14.938c0 8.276-7.709 13.986-15.986 13.986h-23.976c-8.276 0-13.986-6.709-13.986-14.986v-12.874l14-1.064z" fill="#b9c3cd"/><path d="m243.53 242.759v-11.924h-15v14.938c0 8.276 6.709 14.986 14.986 14.986h24.976c8.276 0 14.986-6.709 14.986-14.986v-.014h-36.948c-1.657 0-3-1.343-3-3z" fill="#a2abb8"/></g></g><g><path d="m453.754 105.176c-45.53-5.236-79.751-39.461-85.153-85.166-1.35-11.407-10.956-20.01-22.348-20.01h-98.249c-4.142 0-7.5 3.358-7.5 7.5s3.358 7.5 7.5 7.5h98.249c3.791 0 6.995 2.912 7.451 6.772 6.236 52.753 45.754 92.259 98.336 98.306 3.827.44 6.713 3.639 6.713 7.439v49.893c0 4.142 3.357 7.5 7.5 7.5s7.5-3.358 7.5-7.5v-49.893c0-11.425-8.598-21.03-19.999-22.341z"/><path d="m466.253 204.91c-4.143 0-7.5 3.358-7.5 7.5v36.947c0 89.907-49.344 171.922-128.776 214.038l-54.052 28.659c-12.45 6.602-27.317 6.602-39.768.003l-54.094-28.671c-79.452-42.111-128.808-124.132-128.808-214.054v-121.789c0-3.82 2.807-7.011 6.529-7.422 52.773-5.834 92.376-45.449 98.546-98.575.434-3.732 3.668-6.546 7.524-6.546h47.15c4.142 0 7.5-3.358 7.5-7.5s-3.358-7.5-7.5-7.5h-47.15c-11.472 0-21.111 8.519-22.423 19.815-5.346 46.029-39.624 80.347-85.294 85.396-11.334 1.252-19.881 10.853-19.881 22.332v121.788c0 95.49 52.413 182.589 136.784 227.308l54.094 28.671c8.424 4.465 17.664 6.697 26.905 6.697 9.243 0 18.488-2.234 26.914-6.702l54.052-28.66c84.35-44.723 136.749-131.815 136.749-227.29v-36.945c-.001-4.142-3.358-7.5-7.501-7.5z"/><path d="m88.051 291.209c-.839-4.056-4.809-6.667-8.864-5.825-4.056.839-6.664 4.808-5.825 8.864 13.765 66.53 56.095 122.94 116.139 154.765l51.33 27.206c4.762 2.524 9.986 3.786 15.209 3.786 5.226 0 10.451-1.263 15.214-3.789l51.289-27.196c74.52-39.514 120.812-116.459 120.812-200.807v-102.379c0-6.487-4.886-11.834-11.364-12.438-36.38-3.395-88.205-48.784-91.36-90.55-.487-6.451-5.956-11.504-12.45-11.504h-146.009c-6.506 0-11.976 5.064-12.452 11.528-3.084 41.802-53.976 87.172-89.709 90.525-6.476.608-11.359 5.955-11.359 12.438v102.353c0 3.456.08 6.954.237 10.399.189 4.137 3.692 7.34 7.834 7.15 4.138-.189 7.339-3.696 7.15-7.834-.147-3.218-.221-6.487-.221-9.715v-100.107c20.088-2.622 43.67-15.346 63.58-34.402 21.339-20.423 34.801-44.826 37.232-67.334h141.429c2.486 22.488 16.256 46.91 38.083 67.386 20.283 19.029 44.161 31.736 64.379 34.353v100.131c0 78.782-43.237 150.648-112.84 187.555l-51.289 27.196c-5.125 2.718-11.244 2.719-16.371.001l-51.331-27.206c-56.08-29.724-95.617-82.411-108.473-144.55z"/><path d="m175.841 256.065v125.547c0 13.596 11.061 24.657 24.656 24.657h111.013c13.596 0 24.657-11.061 24.657-24.657v-125.547c0-17.901-14.448-32.484-32.295-32.719v-22.351h14.795c9.649 0 17.5-7.851 17.5-17.5v-30.46c0-8.316-5.837-15.283-13.625-17.053v-13.131c0-9.7-7.892-17.592-17.592-17.592h-97.893c-9.7 0-17.592 7.892-17.592 17.592v13.131c-7.788 1.77-13.624 8.737-13.624 17.053v30.46c0 9.649 7.851 17.5 17.5 17.5h14.794v22.351c-17.846.236-32.294 14.818-32.294 32.719zm60.189-17.73h39.948v7.438c0 4.128-3.357 7.486-7.485 7.486h-24.977c-4.128 0-7.486-3.358-7.486-7.486zm75.48 152.935h-111.012c-5.324 0-9.656-4.332-9.656-9.657v-22.939h130.326v22.939c-.001 5.325-4.333 9.657-9.658 9.657zm9.657-135.205v27.665h-62.632c-4.142 0-7.5 3.358-7.5 7.5s3.358 7.5 7.5 7.5h62.632v44.943h-130.326v-44.943h32.693c4.142 0 7.5-3.358 7.5-7.5s-3.358-7.5-7.5-7.5h-32.693v-27.665c0-9.776 7.954-17.73 17.73-17.73h12.458v7.438c0 12.399 10.087 22.486 22.486 22.486h24.977c12.398 0 22.485-10.087 22.485-22.486v-7.438h12.459c9.777 0 17.731 7.954 17.731 17.73zm-114.109-135.806h97.893c1.429 0 2.592 1.163 2.592 2.592v12.684h-103.078v-12.684c0-1.43 1.163-2.592 2.593-2.592zm-16.217 63.236v-30.46c0-1.378 1.122-2.5 2.5-2.5h125.326c1.379 0 2.5 1.122 2.5 2.5v30.46c0 1.378-1.121 2.5-2.5 2.5h-125.326c-1.378 0-2.5-1.121-2.5-2.5zm98.031 17.5v22.34h-65.736v-22.34z"/><path d="m216.035 321.202c0 4.142 3.358 7.5 7.5 7.5h63.939c4.143 0 7.5-3.358 7.5-7.5s-3.357-7.5-7.5-7.5h-63.939c-4.142 0-7.5 3.358-7.5 7.5z"/></g></g></svg>