<svg id="Capa_1" enable-background="new 0 0 512 512" height="512" viewBox="0 0 512 512" width="512" xmlns="http://www.w3.org/2000/svg"><g><g><g><path d="m269.021 504.5h-26.042c-6.399 0-11.587-5.188-11.587-11.587v-29.523h49.216v29.523c0 6.399-5.188 11.587-11.587 11.587z" fill="#b5adb7"/></g><g><path d="m251.072 492.913v-29.523h-19.68v29.523c0 6.399 5.188 11.587 11.587 11.587h19.68c-6.399 0-11.587-5.188-11.587-11.587z" fill="#a59da7"/></g><g><path d="m389.876 202.636c0-75.199-62.001-135.918-137.673-133.824-70.039 1.938-129.24 62.139-130.07 132.2-.51 42.996 19.255 81.392 50.329 106.236 8.556 6.841 13.502 17.227 13.502 28.182v36.604c0 6.622 5.368 11.991 11.991 11.991h116.09c6.622 0 11.991-5.368 11.991-11.991v-36.696c0-11.035 5.136-21.37 13.739-28.28 30.546-24.535 50.101-62.193 50.101-104.422z" fill="#fdcd08"/></g><g><path d="m213.324 372.035v-36.604c0-10.955-4.946-21.341-13.502-28.182-31.074-24.844-50.838-63.24-50.329-106.236.792-66.779 54.611-124.6 120.302-131.549-5.764-.59-11.635-.816-17.592-.651-70.039 1.938-129.24 62.139-130.07 132.2-.51 42.996 19.255 81.392 50.329 106.236 8.556 6.841 13.502 17.227 13.502 28.182v36.604c0 6.622 5.368 11.991 11.991 11.991h27.36c-6.622-.001-11.991-5.369-11.991-11.991z" fill="#faab18"/></g><g><path d="m286.532 471.093h-61.065c-9.759 0-17.67-7.911-17.67-17.67v-69.398h96.405v69.398c.001 9.759-7.911 17.67-17.67 17.67z" fill="#d3ced5"/></g><g><path d="m227.478 453.423v-69.398h-19.68v69.398c0 9.759 7.911 17.67 17.67 17.67h19.68c-9.759 0-17.67-7.911-17.67-17.67z" fill="#c3bec6"/></g><g><circle cx="213.896" cy="257.4" fill="#faab18" r="17.112"/></g><g><circle cx="298.104" cy="257.4" fill="#faab18" r="17.112"/></g></g><g><path d="m339.285 88.385c-3.347-2.444-8.039-1.711-10.48 1.634-2.443 3.346-1.711 8.038 1.634 10.48 32.521 23.745 51.937 61.927 51.937 102.137 0 38.502-17.239 74.432-47.298 98.576-10.513 8.444-16.542 20.883-16.542 34.127v36.695c0 2.476-2.015 4.491-4.491 4.491h-25.553v-31.123c0-8.719-4.383-16.733-11.725-21.437l-6.864-4.397 6.864-4.397c7.342-4.703 11.725-12.717 11.725-21.437v-13.679c2.955 1.258 6.203 1.956 9.612 1.956 13.571 0 24.612-11.041 24.612-24.612s-11.041-24.612-24.612-24.612-24.612 11.041-24.612 24.612v36.335c0 3.582-1.801 6.874-4.817 8.806l-12.675 8.122-12.675-8.12c-3.016-1.932-4.817-5.224-4.817-8.806v-36.336c0-13.571-11.041-24.612-24.612-24.612s-24.612 11.041-24.612 24.612 11.041 24.612 24.612 24.612c3.409 0 6.658-.698 9.612-1.956v13.679c0 8.719 4.383 16.733 11.725 21.437l6.863 4.397-6.863 4.397c-7.342 4.703-11.725 12.717-11.725 21.437v31.123h-25.553c-2.476 0-4.491-2.015-4.491-4.491v-36.604c0-13.341-5.948-25.748-16.318-34.04-30.66-24.513-47.978-61.067-47.513-100.29.78-65.825 57.005-122.973 122.778-124.792 16.939-.47 33.463 2.353 49.094 8.389 3.863 1.49 8.206-.431 9.698-4.295s-.431-8.206-4.295-9.698c-17.495-6.754-35.974-9.909-54.912-9.39-35.818.991-69.957 16.188-96.127 42.792-26.166 26.599-40.81 60.982-41.234 96.817-.52 43.875 18.85 84.764 53.145 112.183 6.791 5.429 10.686 13.566 10.686 22.324v36.604c0 10.747 8.744 19.491 19.491 19.491h2.343v61.897c0 13.349 10.447 24.299 23.594 25.116v14.374c0 10.524 8.562 19.087 19.087 19.087h26.042c10.524 0 19.087-8.562 19.087-19.087v-14.374c13.147-.817 23.594-11.767 23.594-25.116v-61.897h2.343c10.747 0 19.491-8.744 19.491-19.491v-36.695c0-8.674 3.986-16.851 10.936-22.433 33.622-27.006 52.904-67.198 52.904-110.27-.002-44.983-21.718-87.693-58.093-114.252zm-41.181 159.403c5.3 0 9.612 4.312 9.612 9.612s-4.312 9.612-9.612 9.612-9.612-4.312-9.612-9.612 4.312-9.612 9.612-9.612zm-84.208 19.224c-5.3 0-9.612-4.312-9.612-9.612s4.312-9.612 9.612-9.612 9.612 4.312 9.612 9.612-4.312 9.612-9.612 9.612zm24.612 78.391c0-3.582 1.801-6.874 4.817-8.807l12.675-8.12 12.675 8.12c3.016 1.933 4.817 5.225 4.817 8.807v31.123h-34.984zm30.513 151.597h-26.042c-2.253 0-4.087-1.833-4.087-4.087v-14.32h34.216v14.32c0 2.254-1.833 4.087-4.087 4.087zm17.511-33.407h-61.065c-5.608 0-10.17-4.562-10.17-10.17v-4.939h81.405v4.939c0 5.608-4.562 10.17-10.17 10.17zm10.17-57.958h-13.942c-4.142 0-7.5 3.358-7.5 7.5s3.358 7.5 7.5 7.5h13.942v12.849h-81.405v-12.849h38.422c4.142 0 7.5-3.358 7.5-7.5s-3.358-7.5-7.5-7.5h-38.422v-14.109h81.405z"/><path d="m256 41.951c4.142 0 7.5-3.358 7.5-7.5v-26.951c0-4.142-3.358-7.5-7.5-7.5s-7.5 3.358-7.5 7.5v26.951c0 4.142 3.358 7.5 7.5 7.5z"/><path d="m124.981 91.828c1.464 1.465 3.384 2.197 5.303 2.197s3.839-.732 5.303-2.197c2.929-2.929 2.929-7.677 0-10.606l-19.057-19.058c-2.928-2.929-7.677-2.929-10.606 0s-2.929 7.677 0 10.606z"/><path d="m387.019 332.653c-2.929-2.929-7.678-2.929-10.606 0-2.929 2.929-2.929 7.678 0 10.606l19.057 19.057c1.464 1.464 3.384 2.197 5.303 2.197s3.839-.732 5.303-2.197c2.929-2.929 2.929-7.678 0-10.606z"/><path d="m78.211 204.74h-26.951c-4.142 0-7.5 3.358-7.5 7.5s3.358 7.5 7.5 7.5h26.951c4.142 0 7.5-3.358 7.5-7.5s-3.358-7.5-7.5-7.5z"/><path d="m460.74 204.74h-26.951c-4.142 0-7.5 3.358-7.5 7.5s3.358 7.5 7.5 7.5h26.951c4.142 0 7.5-3.358 7.5-7.5s-3.358-7.5-7.5-7.5z"/><path d="m124.981 332.653-19.057 19.057c-2.929 2.929-2.929 7.678 0 10.606 1.464 1.464 3.384 2.197 5.303 2.197s3.839-.732 5.303-2.197l19.057-19.057c2.929-2.929 2.929-7.678 0-10.606-2.929-2.929-7.678-2.929-10.606 0z"/><path d="m395.47 62.164-19.057 19.058c-2.929 2.929-2.929 7.678 0 10.606 1.464 1.464 3.384 2.197 5.303 2.197s3.839-.732 5.303-2.197l19.057-19.058c2.929-2.929 2.929-7.678 0-10.606-2.928-2.929-7.677-2.929-10.606 0z"/></g></g></svg>