<svg id="Capa_1" enable-background="new 0 0 512.031 512.031" height="512" viewBox="0 0 512.031 512.031" width="512" xmlns="http://www.w3.org/2000/svg"><g><g><path d="m276.496 334.401c-22.209 9.762-45.204 14.803-69.464 14.803l-18.831 1v-128.271h71.151l4.497 26.034 6.663 14.143 14.708 52.95-.29 1.556c2.001 7.201-1.592 14.778-8.434 17.785z" fill="#ffe07d"/><path d="m97.671 16.711-15.439 103.491-31.791 95.699-18.47-1.99c-9.75 0-16.92-9.12-14.62-18.59l39.18-161.97c1.45-5.95 6.36-10.42 12.41-11.32l10.34-2.668 7.49-1.102c3.63-.54 7.26-1.05 10.9-1.55z" fill="#ffe07d"/><path d="m285.931 317.621-.71-2.56c-1.09.94-2.34 1.73-3.72 2.34-13.568 5.962-27.804 10.159-42.359 12.524-2.888.469-5.261-2.243-4.476-5.062 6.676-23.961 19.16-45.403 35.845-62.752l-11.16-40.18h-71.151v110.27 18c11.382-.091 24.016.401 36.321-.883 18.244-1.831 36.127-6.512 52.979-13.917 6.841-3.01 10.431-10.58 8.431-17.78z" fill="#ffd064"/><path d="m373.591 17.431 8.131 95.271-8.131 87.349-14.62 1.64c-74.53 8.37-133.9 66.21-144.21 140.49l-18.235 131.284-3.515 17.106c-1.03 7.43-7.39 12.96-14.89 12.96h-106.18c-7.89 0-14.44-5.1-15-12.98-1.1-15.81-2.99-42.62-4.77-67.71-2.86-40.42 3.73-80.94 19.26-118.36l.6-1.43c10.19-24.57 10.25-53.18.16-77.79l-.83-2.01c-2.07-5.06-8-8.36-13.46-8.35l-7.46 1 4.742-20 42.488-179.19c90.02-12.27 181.3-12.24 271.33.09z" fill="#f9f8f9"/><path d="m41.374 195.908 13.806-.007.073 10.79-4.813 9.21-20.47.01c-9.75 0-16.92-9.12-14.62-18.59l40.18-164.97c1.45-5.95 6.36-10.42 12.41-11.32l11.34-1.668-41.794 171.598c-.614 2.52 1.295 4.948 3.888 4.947z" fill="#ffd064"/><path d="m196.525 473.465h-88.494c-5.535 0-10.021 4.487-10.021 10.021v1.045l.732 19.181 79.25-.181c7.558 0 13.941-5.612 14.908-13.108l2.002-5.854z" fill="#ffe07d"/><path d="m151.123 403.317h-49.104c-8.302 0-15.032 6.73-15.032 15.032 0 8.302 6.73 15.032 15.032 15.032h49.104c8.302 0 15.032-6.73 15.032-15.032 0-8.302-6.73-15.032-15.032-15.032z" fill="#e8e8e8"/><path d="m217.261 67.571v.07c0 8.28-6.71 15-15 15h-15.061l-3.777-15.78 3.777-14.29h15.06c8.291 0 15.001 6.72 15.001 15z" fill="#e8e8e8"/><g fill="#ffe07d"><path d="m187.2 52.571v30.07h-45.13c-8.28 0-15-6.72-15-15v-.07c0-8.28 6.72-15 15-15z"/><g><circle cx="142.104" cy="157.797" r="15.032"/><circle cx="202.231" cy="157.797" r="15.032"/><circle cx="262.358" cy="157.797" r="15.032"/></g><path d="m332.517 82.638h-80.191c-2.761 0-5-2.239-5-5v-20.063c0-2.761 2.239-5 5-5h80.191c2.761 0 5 2.239 5 5v20.064c0 2.761-2.238 4.999-5 4.999z"/></g><path d="m332.517 172.829h-20.064c-2.761 0-5-2.239-5-5v-50.127c0-2.761 2.239-5 5-5h20.064c2.761 0 5 2.239 5 5v50.127c0 2.761-2.238 5-5 5z" fill="#e8e8e8"/><path d="m98.011 504.531h-27.07c-7.89 0-14.44-6.1-15-13.98-1.1-15.81-2.99-42.62-4.77-67.71-2.86-40.42 3.73-80.94 19.26-118.36l.6-1.43c10.19-24.57 10.25-52.18.16-76.79l-.83-2.01c-2.07-5.06-7-8.36-12.46-8.35h-7.46l4.74-20h2.74c13.64 0 25.79 8.16 30.93 20.72l.85 2.05c12.17 29.7 12.1 62.39-.23 92.12l-.57 1.36c-14.26 34.36-20.41 72.15-17.78 109.27 1.499 21.113 3.076 43.435 4.191 59.391.146 2.096 1.889 3.719 3.99 3.719h18.709l4.392 10z" fill="#e8e8e8"/><path d="m194.903 484.569-1.002 6.852c-.94 7.27-6.96 12.76-14.2 13.09-.24.01-.47.02-.71.02h-80.98v-20z" fill="#ffd064"/><path d="m410.67 35.621v146.82c0 7.65-5.75 14.08-13.35 14.94l-23.73 2.67v-182.62l24.09 3.3c7.441 1.02 12.99 7.38 12.99 14.89z" fill="#ffe07d"/></g><g><path d="m398.698 13.3c-32.345-4.595-67.552-9.198-100.458-11.159-4.144-.257-7.701 2.867-7.969 7-.268 4.134 2.866 7.701 7 7.969 22.911 1.483 46.052 3.799 68.822 6.873v169.357l-7.958.894c-77.995 8.764-140.009 69.179-150.806 146.918l-7.171 51.63c-.569 4.104 2.294 7.891 6.396 8.461.351.049.698.072 1.042.072 3.684 0 6.897-2.717 7.419-6.469l5.226-37.625c20.841-1.505 41.095-6.524 60.272-14.955 10.186-4.477 15.621-15.938 12.644-26.658l-19.07-68.649c42.299-36.413 78.765-37.093 124.069-42.128 11.41-1.282 20.016-10.908 20.016-22.392v-25.452c0-4.143-3.357-7.5-7.5-7.5s-7.5 3.357-7.5 7.5v25.452c0 3.839-2.877 7.057-6.691 7.485l-15.388 1.729v-165.624l15.568 2.132c3.712.509 6.511 3.717 6.511 7.463v86.363c0 4.143 3.357 7.5 7.5 7.5s7.5-3.357 7.5-7.5v-86.363c0-11.205-8.372-20.801-19.474-22.324zm-124.22 315.235c-16.615 7.304-34.111 11.822-52.109 13.467 4.682-31.897 18.82-60.543 39.475-83.073l16.861 60.695c.995 3.583-.822 7.415-4.227 8.911z"/><path d="m203.821 420.935c-4.111-.577-7.891 2.294-8.461 6.396l-5.366 38.634h-81.962c-9.661 0-17.521 7.859-17.521 17.521v13.545h-19.57c-3.938 0-7.239-3.075-7.515-7.002-1.108-15.811-2.992-42.63-4.771-67.721-2.768-39.046 3.701-78.796 18.705-114.95 11.767-26.916 11.795-58.645-.061-85.957-2.985-7.28-9.683-12.174-17.396-12.9l9.479-39.977c.955-4.03-1.537-8.072-5.567-9.028-4.034-.954-8.071 1.538-9.028 5.567l-10.277 43.34-14.545.008c-.001 0-.002 0-.004 0-2.326 0-4.484-1.049-5.922-2.877-1.438-1.83-1.947-4.176-1.396-6.438l40.174-164.973c.729-2.994 3.17-5.22 6.22-5.669l18.799-2.772-24.999 105.425c-.955 4.03 1.537 8.072 5.567 9.028.582.138 1.164.204 1.736.204 3.396 0 6.474-2.323 7.292-5.771l26.341-111.091c52.608-6.888 106.013-9.593 159.001-8 4.155.103 7.597-3.133 7.722-7.272.124-4.141-3.132-7.598-7.272-7.722-65.091-2.122-131.915 2.838-196.376 13.131-9.12 1.345-16.424 8.002-18.605 16.96l-40.175 164.973c-1.647 6.764-.124 13.783 4.179 19.256 4.301 5.471 10.756 8.607 17.714 8.607h.012l27.935-.015h.004c2.427 0 4.589 1.45 5.511 3.698 10.216 23.058 10.407 50.972.085 74.513-15.894 38.298-22.745 80.402-19.814 121.762 1.779 25.087 3.663 51.902 4.771 67.709.823 11.749 10.696 20.953 22.478 20.953h108.181c11.185 0 20.778-8.353 22.317-19.432l8.778-63.203c.568-4.103-2.296-7.89-6.398-8.46zm-24.699 76.096h-73.612v-13.545c0-1.39 1.131-2.521 2.521-2.521h79.879l-1.329 9.569c-.514 3.704-3.721 6.497-7.459 6.497z"/><path d="m79.487 418.348c0 12.424 10.107 22.532 22.532 22.532h49.104c12.425 0 22.532-10.108 22.532-22.532s-10.107-22.531-22.532-22.531h-49.104c-12.425 0-22.532 10.107-22.532 22.531zm79.168 0c0 4.153-3.379 7.532-7.532 7.532h-49.104c-4.153 0-7.532-3.379-7.532-7.532 0-4.152 3.379-7.531 7.532-7.531h49.104c4.153 0 7.532 3.379 7.532 7.531z"/><path d="m202.263 45.075h-60.191c-12.406 0-22.5 10.094-22.5 22.563 0 12.406 10.094 22.5 22.5 22.5h60.191c12.406 0 22.5-10.094 22.5-22.563 0-12.407-10.094-22.5-22.5-22.5zm-67.691 22.5c0-4.136 3.364-7.5 7.5-7.5h37.628v15.063h-37.628c-4.136 0-7.5-3.364-7.5-7.563zm67.691 7.563h-7.563v-15.063h7.563c4.136 0 7.5 3.364 7.5 7.563 0 4.136-3.364 7.5-7.5 7.5z"/><path d="m142.104 180.329c12.424 0 22.531-10.107 22.531-22.531s-10.107-22.532-22.531-22.532-22.532 10.108-22.532 22.532 10.108 22.531 22.532 22.531zm0-30.064c4.152 0 7.531 3.379 7.531 7.532 0 4.152-3.379 7.531-7.531 7.531-4.153 0-7.532-3.379-7.532-7.531 0-4.153 3.379-7.532 7.532-7.532z"/><path d="m202.231 135.265c-12.424 0-22.531 10.108-22.531 22.532s10.107 22.531 22.531 22.531 22.532-10.107 22.532-22.531-10.108-22.532-22.532-22.532zm0 30.064c-4.152 0-7.531-3.379-7.531-7.531 0-4.153 3.379-7.532 7.531-7.532 4.153 0 7.532 3.379 7.532 7.532 0 4.152-3.379 7.531-7.532 7.531z"/><path d="m262.358 135.265c-12.424 0-22.531 10.108-22.531 22.532s10.107 22.531 22.531 22.531 22.532-10.107 22.532-22.531-10.108-22.532-22.532-22.532zm0 30.064c-4.152 0-7.531-3.379-7.531-7.531 0-4.153 3.379-7.532 7.531-7.532 4.153 0 7.532 3.379 7.532 7.532 0 4.152-3.379 7.531-7.532 7.531z"/><path d="m157.135 120.202c4.143 0 7.5-3.357 7.5-7.5s-3.357-7.5-7.5-7.5h-30.063c-4.143 0-7.5 3.357-7.5 7.5s3.357 7.5 7.5 7.5z"/><path d="m217.263 105.202h-30.063c-4.143 0-7.5 3.357-7.5 7.5s3.357 7.5 7.5 7.5h30.063c4.143 0 7.5-3.357 7.5-7.5s-3.357-7.5-7.5-7.5z"/><path d="m277.39 105.202h-30.063c-4.143 0-7.5 3.357-7.5 7.5s3.357 7.5 7.5 7.5h30.063c4.143 0 7.5-3.357 7.5-7.5s-3.357-7.5-7.5-7.5z"/><path d="m345.017 57.575c0-6.893-5.607-12.5-12.5-12.5h-80.19c-6.893 0-12.5 5.607-12.5 12.5v20.063c0 6.893 5.607 12.5 12.5 12.5h80.19c6.893 0 12.5-5.607 12.5-12.5zm-15 17.563h-75.19v-15.063h75.19z"/><path d="m332.517 105.202h-20.063c-6.893 0-12.5 5.607-12.5 12.5v50.127c0 6.893 5.607 12.5 12.5 12.5h20.063c6.893 0 12.5-5.607 12.5-12.5v-50.127c0-6.893-5.607-12.5-12.5-12.5zm-2.5 60.127h-15.063v-45.127h15.063z"/><path d="m444.848 67.127c-3.69 1.881-5.158 6.396-3.277 10.088 10.522 20.651 10.522 45.311 0 65.962-1.881 3.691-.413 8.207 3.277 10.088 1.091.556 2.254.819 3.399.819 2.73 0 5.363-1.497 6.688-4.097 12.695-24.916 12.695-54.667 0-79.583-1.88-3.689-6.394-5.155-10.087-3.277z"/><path d="m490.01 49.175c-1.881-3.689-6.396-5.157-10.088-3.277-3.69 1.881-5.158 6.396-3.277 10.088 17.296 33.945 17.296 74.477 0 108.421-1.881 3.691-.413 8.207 3.277 10.088 1.091.556 2.254.819 3.399.819 2.73 0 5.363-1.497 6.688-4.097 19.47-38.209 19.47-83.832.001-122.042z"/></g></g></svg>