<svg id="Capa_1" enable-background="new 0 0 512 512" height="512" viewBox="0 0 512 512" width="512" xmlns="http://www.w3.org/2000/svg"><g><g><g><path d="m98.805 418.326v83.168c0 2.851 3.603 4.094 5.361 1.85l11.116-14.188c1.201-1.533 3.522-1.533 4.723 0l11.116 14.188c1.758 2.244 5.361 1.001 5.361-1.85v-83.168z" fill="#e58e82"/></g><g><path d="m301.098 447.196h-239.298c-11.046 0-20-8.954-20-20v-296.918c0-11.046 8.954-20 20-20h239.299c11.046 0 20 8.954 20 20v296.918c-.001 11.046-8.955 20-20.001 20z" fill="#77d192"/></g><g><path d="m95.706 110.278c13.865 33.73 47.073 57.544 85.743 57.544s71.878-23.814 85.743-57.544z" fill="#5bc175"/></g><g><path d="m63.4 427.196v-296.918c0-11.046 8.954-20 20-20h-21.6c-11.046 0-20 8.954-20 20v296.918c0 11.046 8.954 20 20 20h21.6c-11.046 0-20-8.954-20-20z" fill="#5bc175"/></g><g><path d="m238.254 254.098h-113.61c-3.866 0-7-3.134-7-7v-59.383c0-3.866 3.134-7 7-7h113.611c3.866 0 7 3.134 7 7v59.383c-.001 3.866-3.135 7-7.001 7z" fill="#f6f1f1"/></g><g><path d="m139.244 247.098v-59.383c0-3.866 3.134-7 7-7h-21.6c-3.866 0-7 3.134-7 7v59.383c0 3.866 3.134 7 7 7h21.6c-3.866 0-7-3.134-7-7z" fill="#e2dfe2"/></g><g><circle cx="181.449" cy="75.161" fill="#b3dafe" r="67.661"/></g><g><path d="m130.828 75.161c0-34.48 25.798-62.916 59.141-67.108-2.793-.351-5.632-.553-8.52-.553-37.368 0-67.661 30.293-67.661 67.661s30.293 67.661 67.661 67.661c2.888 0 5.727-.202 8.52-.553-33.343-4.192-59.141-32.628-59.141-67.108z" fill="#8ac9fe"/></g><g><path d="m436.02 504.5h-34.8c-18.877 0-34.18-15.303-34.18-34.18v-75.268c0-18.877 15.303-34.18 34.18-34.18h34.8c18.877 0 34.18 15.303 34.18 34.18v75.268c0 18.877-15.303 34.18-34.18 34.18z" fill="#4980ac"/></g><g><path d="m381.62 470.32v-75.268c0-18.877 15.303-34.18 34.18-34.18h-14.58c-18.877 0-34.18 15.303-34.18 34.18v75.268c0 18.877 15.303 34.18 34.18 34.18h14.58c-18.877 0-34.18-15.303-34.18-34.18z" fill="#407194"/></g><g><path d="m418.62 433.125c-8.052 0-14.58-6.528-14.58-14.58v-10.44c0-8.052 6.528-14.58 14.58-14.58 8.052 0 14.58 6.528 14.58 14.58v10.44c0 8.053-6.528 14.58-14.58 14.58z" fill="#365f7e"/></g></g><g><path d="m233.36 439.696h-171.56c-6.893 0-12.5-5.607-12.5-12.5v-296.918c0-6.893 5.607-12.5 12.5-12.5h25.6c4.142 0 7.5-3.358 7.5-7.5s-3.358-7.5-7.5-7.5h-25.6c-15.164 0-27.5 12.336-27.5 27.5v296.918c0 15.164 12.336 27.5 27.5 27.5h29.505v46.798c0 4.477 2.843 8.465 7.075 9.925 4.231 1.461 8.93.074 11.69-3.45l7.574-9.667 7.573 9.667c2.029 2.589 5.103 4.024 8.27 4.024 1.143 0 2.299-.187 3.421-.575 4.231-1.46 7.075-5.449 7.075-9.925v-46.798h89.378c4.142 0 7.5-3.358 7.5-7.5s-3.359-7.499-7.501-7.499zm-104.378 48.758-3.073-3.922c-2.004-2.558-5.016-4.024-8.265-4.024-3.25 0-6.262 1.467-8.266 4.024l-3.073 3.922v-33.757h22.677z"/><path d="m238.254 173.214h-113.61c-7.995 0-14.5 6.505-14.5 14.5v59.383c0 7.995 6.505 14.5 14.5 14.5h113.61c7.995 0 14.5-6.505 14.5-14.5v-59.383c0-7.995-6.505-14.5-14.5-14.5zm-.5 73.384h-112.61v-58.383h112.61z"/><path d="m181.449 0c-41.444 0-75.161 33.717-75.161 75.161s33.717 75.161 75.161 75.161 75.161-33.717 75.161-75.161-33.717-75.161-75.161-75.161zm59.677 67.661h-27.846c-.715-18.133-4.026-35.754-9.809-48.468 20.076 7.928 34.89 26.346 37.655 48.468zm-59.677 67.661c-4.748 0-15.458-17.895-16.832-52.661h33.663c-1.374 34.766-12.083 52.661-16.831 52.661zm-16.832-67.661c1.374-34.766 12.084-52.661 16.832-52.661s15.458 17.895 16.832 52.661zm-5.19-48.468c-5.783 12.714-9.093 30.335-9.809 48.468h-27.846c2.765-22.122 17.579-40.54 37.655-48.468zm-37.655 63.468h27.846c.715 18.131 4.022 35.754 9.804 48.466-20.073-7.928-34.885-26.345-37.65-48.466zm81.704 48.467c5.782-12.713 9.089-30.335 9.804-48.466h27.846c-2.765 22.12-17.577 40.537-37.65 48.466z"/><path d="m436.02 353.371h-9.9v-50.301c0-26.737-21.752-48.49-48.49-48.49h-49.032v-124.302c0-15.164-12.336-27.5-27.5-27.5h-24.378c-4.142 0-7.5 3.358-7.5 7.5s3.358 7.5 7.5 7.5h24.378c6.893 0 12.5 5.607 12.5 12.5v296.918c0 6.893-5.607 12.5-12.5 12.5h-33.658c-4.142 0-7.5 3.358-7.5 7.5s3.358 7.5 7.5 7.5h33.658c15.164 0 27.5-12.336 27.5-27.5v-157.616h49.032c18.466 0 33.49 15.023 33.49 33.49v50.301h-9.9c-22.982 0-41.68 18.698-41.68 41.681v75.269c0 22.982 18.698 41.68 41.68 41.68h34.8c22.983 0 41.681-18.698 41.681-41.68v-75.269c-.001-22.984-18.698-41.681-41.681-41.681zm26.68 116.949c0 14.711-11.969 26.68-26.681 26.68h-34.8c-14.711 0-26.68-11.969-26.68-26.68v-75.269c0-14.712 11.969-26.681 26.68-26.681h9.9v18.968c-8.494 3.077-14.58 11.224-14.58 20.767v10.44c0 12.175 9.905 22.08 22.08 22.08s22.08-9.905 22.08-22.08v-10.44c0-9.543-6.086-17.689-14.58-20.767v-18.968h9.9c14.712 0 26.681 11.969 26.681 26.681zm-51.16-62.215c0-3.904 3.176-7.08 7.08-7.08s7.08 3.176 7.08 7.08v10.44c0 3.904-3.176 7.08-7.08 7.08s-7.08-3.176-7.08-7.08z"/><path d="m208.941 224.906h5.699c4.142 0 7.5-3.358 7.5-7.5s-3.358-7.5-7.5-7.5h-5.699c-4.142 0-7.5 3.358-7.5 7.5s3.358 7.5 7.5 7.5z"/><path d="m178.599 224.906h5.699c4.142 0 7.5-3.358 7.5-7.5s-3.358-7.5-7.5-7.5h-5.699c-4.142 0-7.5 3.358-7.5 7.5s3.358 7.5 7.5 7.5z"/><path d="m148.258 224.906h5.699c4.142 0 7.5-3.358 7.5-7.5s-3.358-7.5-7.5-7.5h-5.699c-4.142 0-7.5 3.358-7.5 7.5s3.357 7.5 7.5 7.5z"/></g></g></svg>