<svg id="Capa_1" enable-background="new 0 0 512 512" height="512" viewBox="0 0 512 512" width="512" xmlns="http://www.w3.org/2000/svg"><g><g><path d="m368.125 52.5h-101.368l-7.374 2-7.648-2c-6.05-23.508-25.989-41.44-50.548-44.528-2.477-.312-5.001.528-7.562.528-33.137 0-58 25.863-58 59s29.205 60 58 60c27.958 0 51.449-19.122 58.11-45l5.243-1.037 110.147.037 1-15 2-7.5zm-174.5 45c-16.569 0-30-13.431-30-30s13.431-30 30-30 30 13.431 30 30-13.431 30-30 30z" fill="#b9c3cd"/><g><path d="m148.625 67.5c0-30.616 22.938-55.862 52.562-59.528-2.477-.312-5-.472-7.562-.472-33.137 0-60 26.863-60 60s26.863 60 60 60c2.562 0 5.084-.164 7.562-.475-29.625-3.666-52.562-28.909-52.562-59.525z" fill="#a2abb8"/></g><path d="m411.125 503.5h-26c-6.627 0-11-4.373-11-11v-258h49v255l-1 3c0 6.627-4.373 11-11 11z" fill="#b9c3cd"/><path d="m417.125 195.5h-38v-85.351h39v71.351z" fill="#b9c3cd"/><path d="m420.125 111.5h-47c-2.761 0-4-2.239-4-5v-91c0-3.866 3.134-7 7-7l7-1h38c3.866 0 7 3.134 7 7v83l-1 8c0 3.866-3.134 6-7 6z" fill="#909ba6"/><g fill="#a2abb8"><path d="m388.125 486.5v-252h-15v258c0 6.627 5.373 12 12 12h26c6.627 0 12-5.373 12-12v-3h-32c-1.657 0-3-1.343-3-3z"/><path d="m268.518 63.697c-.237-3.841-.833-7.585-1.761-11.197h-15.022s1.691 8.036 1.691 15c0 10.394-1.691 15-1.691 15h116.39l2-8.798-2-7.202h-96.622c-1.579 0-2.888-1.227-2.985-2.803z"/><path d="m393.125 178.5v-68.351h-15v86.351l1 1h38.088l.912-1v-15h-22c-1.657 0-3-1.343-3-3z"/></g><path d="m383.125 94.5v-87h-8c-3.866 0-7 3.134-7 7v93c0 2.761 2.239 5 5 5h48c3.866 0 7-3.134 7-7v-8h-42c-1.657 0-3-1.343-3-3z" fill="#7e8b96"/><path d="m425.125 235.5h-54c-3.866 0-7-3.134-7-7v-24c0-3.866 3.134-7 7-7l7-1h48c3.866 0 7 3.134 7 7v18l-1 7c0 3.866-3.134 7-7 7z" fill="#909ba6"/><path d="m378.125 218.5v-22h-8c-3.866 0-7 3.134-7 7v26c0 3.866 3.134 7 7 7h56c3.866 0 7-3.134 7-7v-8h-52c-1.657 0-3-1.343-3-3z" fill="#7e8b96"/><g><g><path d="m208.875 474.5-7.152-1-7.848 1-14 1v23c0 2.761 1.239 5 4 5h19c2.761 0 5-1.239 5-4l1-10z" fill="#ffe07d"/><path d="m196.875 489.5c-1.657 0-3-1.343-3-3v-12l-7.981-1-7.019 1v25c0 2.761 2.239 5 5 5h20c2.761 0 5-2.239 5-5v-10z" fill="#ffd064"/></g><g><path d="m219.375 444.5-18.162-2-17.838 2-14 1v23c0 2.761 1.239 5 4 5h40c2.761 0 5-1.239 5-4l1-10z" fill="#c8effe"/><path d="m186.375 459.5c-1.657 0-3-1.343-3-3v-12l-7.694-1-7.306 1v25c0 2.761 2.239 5 5 5h41c2.761 0 5-2.239 5-5v-10z" fill="#a9e5f7"/></g><g><path d="m238.375 414.5-37.673-2-36.327 2-14 1v13c0 8.284 5.716 15 14 15h58c8.284 0 16-5.716 16-14z" fill="#f9f8f9"/><path d="m164.375 426.065v-11.565l-7.332-1-7.668 1v15c0 8.284 6.716 15 15 15h59c8.284 0 15-6.716 15-15h-70.565c-1.897 0-3.435-1.538-3.435-3.435z" fill="#e8e8e8"/></g><g><path d="m294.136 379.145-8.786 20.355-4.869 7.963c-1.582 3.664-5.19 6.037-9.181 6.037h-155.306c-4.013 0-7.637-2.399-9.205-6.093l-11.606-28.698c-9.442-22.245-14.308-46.164-14.308-70.33l-1-142.88c0-5.523 4.477-10 10-10l4-1h205c5.523 0 10 4.477 10 10v143.31c0 24.535-5.016 48.811-14.739 71.336z" fill="#f9f8f9"/><path d="m119.329 399.5c-1.188 0-2.264-.701-2.744-1.787l-8.402-19.004c-9.442-22.245-14.308-46.164-14.308-70.33v-153.879h-5c-5.523 0-10 4.477-10 10v143.879c0 24.166 4.866 48.085 14.308 70.331l12.605 29.698c1.568 3.694 5.192 6.093 9.205 6.093h157.307c3.991 0 7.6-2.373 9.181-6.037l3.869-8.963h-166.021z" fill="#e8e8e8"/></g></g><g><path d="m264.05 367.99-.638 1.51-3.466 5.837c-2.346 5.553-7.789 8.163-13.818 8.163h-106.266c-6.129 0-10.642-3.729-12.923-9.418l-3.293-7.213c-7.115-17.749-10.772-36.694-10.772-55.816v-81.553c0-8.284 5.716-16 14-16h134c8.284 0 15 6.716 15 15v18l-3.301 42.713c0 10.234 2.253 40.817.19 50.789-1.977 9.567-4.892 18.943-8.713 27.988z" fill="#c8effe"/><path d="m137.647 366.869c-3.491-8.708-6.149-17.704-7.952-26.868-1.871-9.514-4.82-19.208-4.82-28.949l2-64.552v-33c-8.284 0-15 6.716-15 15v18l2 64.552c0 9.738-1.052 19.43.818 28.942 1.802 9.166 4.461 18.165 7.953 26.876l3.292 8.213c2.281 5.689 7.793 9.418 13.923 9.418h107.266c6.029 0 11.471-3.609 13.817-9.162l2.466-5.838h-121.513c-1.801-.001-3.447-1.02-4.25-2.632z" fill="#a9e5f7"/><path d="m112.875 247.5 1 63.552c0 9.74-.046 17.434 1.825 26.948l14 2h143.065c2.063-9.972 3.11-20.151 3.11-30.385v-63.115h-149z" fill="#ffe07d"/><path d="m111.919 314.677c-.061 3.672 1.078 17.582 2.775 25.323 0 .003 15 0 15 0-1.871-9.514-2.82-19.207-2.82-28.948v-64.552h-15v64.552c.004.726.003 1.316.045 3.625z" fill="#ffd064"/></g><path d="m193.125 172s-13-2.223-13-14v-63c0-8.284 5.716-16 14-16 8.284 0 15 6.716 15 15v64c0 1.739-.296 3.409-.84 4.962-2.048 5.846-8.615 9.038-15.16 9.038z" fill="#909ba6"/><path d="m194.125 148v-69c-8.284 0-15 6.716-15 15v64c0 8.284 6.716 15 15 15 6.545 0 12.111-4.193 14.16-10.038-7.884-.446-14.16-6.967-14.16-14.962z" fill="#7e8b96"/></g><g><path d="m426.125 189h-.5v-69.724c5.797-1.899 10-7.353 10-13.776v-91c0-7.995-6.505-14.5-14.5-14.5h-46c-7.995 0-14.5 6.505-14.5 14.5v30.5h-28.77c-4.143 0-7.5 3.358-7.5 7.5s3.357 7.5 7.5 7.5h28.77v15h-108.891c-3.422 0-6.41 2.316-7.264 5.631-3.862 15.008-14.181 27.398-27.846 34.063v-17.59c9.139-7.077 14.5-17.868 14.5-29.604 0-20.678-16.822-37.5-37.5-37.5s-37.5 16.822-37.5 37.5c0 12.065 5.856 23.341 15.5 30.348v17.338c-18.339-8.435-30.5-26.886-30.5-47.686 0-28.949 23.552-52.5 52.5-52.5 23.972 0 44.88 16.189 50.846 39.369.854 3.314 3.842 5.631 7.264 5.631h45.121c4.143 0 7.5-3.358 7.5-7.5s-3.357-7.5-7.5-7.5h-39.57c-9.431-26.768-34.822-45-63.66-45-37.22 0-67.5 30.28-67.5 67.5 0 29.05 18.449 54.546 45.5 63.833v15.667h-82.75c-9.649 0-17.5 7.851-17.5 17.5v56.171c0 4.142 3.357 7.5 7.5 7.5s7.5-3.358 7.5-7.5v-56.171c0-1.378 1.121-2.5 2.5-2.5h83.113c1.894 10.504 11.096 18.5 22.137 18.5s20.243-7.996 22.137-18.5h82.613c1.379 0 2.5 1.122 2.5 2.5v143.31c0 23.65-4.752 46.65-14.125 68.363l-12.656 29.318c-.395.917-1.296 1.509-2.294 1.509h-157.306c-1.005 0-1.908-.598-2.301-1.523l-12.606-29.698c-9.099-21.436-13.712-44.112-13.712-67.399v-52.708c0-4.142-3.357-7.5-7.5-7.5s-7.5 3.358-7.5 7.5v52.708c0 25.312 5.015 49.96 14.904 73.26l12.605 29.697c2.749 6.478 9.072 10.663 16.109 10.663h26.881v7.5c0 11.216 8.25 20.54 19 22.226v17.774c0 6.21 4.557 11.363 10.5 12.325v17.675c0 6.893 5.607 12.5 12.5 12.5h20c6.893 0 12.5-5.607 12.5-12.5v-17.675c5.943-.962 10.5-6.114 10.5-12.325v-17.774c10.75-1.686 19-11.01 19-22.226v-7.5h26.426c6.991 0 13.297-4.147 16.066-10.565l12.655-29.317c10.188-23.601 15.354-48.602 15.354-74.308v-143.31c0-9.649-7.851-17.5-17.5-17.5h-82.25v-16.029c18.97-6.872 33.941-21.96 40.657-40.971h103.343v17.5c0 6.037 4.301 11.087 10 12.248v69.252h-.5c-7.995 0-14.5 6.505-14.5 14.5v26c0 6.424 4.203 11.877 10 13.776v249.224c0 10.752 8.748 19.5 19.5 19.5h26c10.752 0 19.5-8.748 19.5-19.5v-154.955c0-4.142-3.357-7.5-7.5-7.5s-7.5 3.358-7.5 7.5v154.955c0 2.481-2.019 4.5-4.5 4.5h-26c-2.481 0-4.5-2.019-4.5-4.5v-248.5h35v58.545c0 4.142 3.357 7.5 7.5 7.5s7.5-3.358 7.5-7.5v-59.269c5.797-1.899 10-7.353 10-13.776v-26c0-7.995-6.505-14.5-14.5-14.5zm-214.25 278h-36v-15h36zm-25.5 30v-15h15v15zm44.5-67.5c0 4.136-3.364 7.5-7.5 7.5h-59c-4.136 0-7.5-3.364-7.5-7.5v-7.5h74zm-37.25-384.5c12.406 0 22.5 10.093 22.5 22.5 0 4.731-1.458 9.204-4.073 12.923-4.112-5.417-10.617-8.923-17.927-8.923-7.607 0-14.339 3.798-18.414 9.594-2.921-3.856-4.586-8.614-4.586-13.594 0-12.407 10.094-22.5 22.5-22.5zm8 113c0 4.136-3.364 7.5-7.5 7.5s-7.5-3.364-7.5-7.5v-64c0-4.136 3.364-7.5 7.5-7.5s7.5 3.364 7.5 7.5zm174-143h45v90h-45zm10 105h25v69h-25zm-15 84h55v25h-55z"/><path d="m283.375 228.5c0-12.407-10.094-22.5-22.5-22.5h-134c-12.406 0-22.5 10.093-22.5 22.5v82.552c0 20.168 3.806 39.887 11.311 58.607l3.292 8.212c3.44 8.583 11.638 14.128 20.885 14.128h107.266c9.063 0 17.199-5.395 20.728-13.744l3.104-7.348-.001.001c8.239-19.5 12.417-40.123 12.417-61.294v-81.114zm-156.5-7.5h134c4.136 0 7.5 3.364 7.5 7.5v10.5h-149v-10.5c0-4.136 3.364-7.5 7.5-7.5zm130.266 144.071-3.103 7.347c-1.177 2.784-3.889 4.582-6.91 4.582h-107.266c-3.082 0-5.814-1.848-6.962-4.709-3.145-7.716-6.401-15.763-8.79-24.791h76.014c4.143 0 7.5-3.358 7.5-7.5s-3.357-7.5-7.5-7.5h-79.128c-1.073-7.065-1.622-14.224-1.622-21.448v-57.052h149v55.615c0 7.721-.625 15.36-1.846 22.885h-31.404c-4.143 0-7.5 3.358-7.5 7.5s3.357 7.5 7.5 7.5h28.126c-1.221 4.424-3.49 11.363-6.109 17.571z"/><path d="m175.125 285.5h-9v-9c0-4.142-3.357-7.5-7.5-7.5s-7.5 3.358-7.5 7.5v9h-9c-4.143 0-7.5 3.358-7.5 7.5s3.357 7.5 7.5 7.5h9v9c0 4.142 3.357 7.5 7.5 7.5s7.5-3.358 7.5-7.5v-9h9c4.143 0 7.5-3.358 7.5-7.5s-3.357-7.5-7.5-7.5z"/><path d="m202.625 284h43c4.143 0 7.5-3.358 7.5-7.5s-3.357-7.5-7.5-7.5h-43c-4.143 0-7.5 3.358-7.5 7.5s3.357 7.5 7.5 7.5z"/><path d="m253.125 309.5c0-4.142-3.357-7.5-7.5-7.5h-43c-4.143 0-7.5 3.358-7.5 7.5s3.357 7.5 7.5 7.5h43c4.143 0 7.5-3.358 7.5-7.5z"/></g></g></svg>