<svg id="Capa_1" enable-background="new 0 0 512 512" height="512" viewBox="0 0 512 512" width="512" xmlns="http://www.w3.org/2000/svg"><g><g><g><path d="m433.995 319.56h-1.449c-7.715 0-13.97-6.254-13.97-13.97v-208.821c0-7.715 6.254-13.97 13.97-13.97h1.449c7.715 0 13.97 6.254 13.97 13.97v208.821c0 7.715-6.254 13.97-13.97 13.97z" fill="#fdcd08"/></g><g><path d="m166.399 203.738h58.754v76.917h-58.754z" fill="#faa68e"/></g><g><path d="m166.399 203.738v76.917h15.34v-37.895h28.804c5.006 0 9.892-.515 14.61-1.49v-37.531h-58.754z" fill="#e09380"/></g><g><path d="m127.004 156.953h-15.647c-11.664 0-21.12-9.456-21.12-21.12v-5.159c0-11.664 9.456-21.12 21.12-21.12h15.647z" fill="#faa68e"/></g><g><path d="m264.548 109.555h15.647c11.664 0 21.12 9.456 21.12 21.12v5.159c0 11.664-9.456 21.12-21.12 21.12h-15.647z" fill="#faa68e"/></g><g><path d="m206.168 227.642h-20.784c-35.48 0-64.242-28.762-64.242-64.242v-60.292c0-35.48 28.762-64.242 64.242-64.242h20.784c35.48 0 64.242 28.762 64.242 64.242v60.292c0 35.48-28.762 64.242-64.242 64.242z" fill="#ffcdbe"/></g><path d="m137.462 163.4v-60.292c0-35.48 28.762-64.242 64.242-64.242h-16.32c-35.48 0-64.242 28.762-64.242 64.242v60.292c0 35.48 28.762 64.242 64.242 64.242h16.32c-35.48 0-64.242-28.762-64.242-64.242z" fill="#ebae9d"/><g><path d="m180.462 16.973c6.066-6.066 14.293-9.473 22.871-9.473h32.428c17.789 0 34.201 9.573 42.957 25.058l15.774 27.894c7.012 12.399 3.759 28.074-7.607 36.659l-9.635 7.278c-4.439 3.353-9.849 5.167-15.412 5.167h-24c-14.329 0-27.944-6.25-37.285-17.116l-18.568-21.6c-1.528-1.777-4.33-1.605-5.628.346l-16.987 25.517c-5.345 8.028-14.35 12.852-23.995 12.852h-14.233l-15.564-22.17c-4.723-6.728-7.257-14.748-7.257-22.968 0-12.922 6.246-25.046 16.767-32.548l17.86-12.735c10.042-7.161 23.214-8.202 34.258-2.709l4.108 2.043c3.053 1.519 6.736.917 9.148-1.495z" fill="#365f7e"/></g><g><path d="m123.218 87.385c-4.723-6.728-7.257-14.748-7.257-22.968 0-12.922 6.246-25.046 16.767-32.548l17.86-12.735c3.253-2.32 6.837-3.986 10.568-5.007-9.57-2.623-19.947-.883-28.208 5.007l-17.86 12.735c-10.521 7.502-16.767 19.626-16.767 32.548 0 8.22 2.534 16.24 7.257 22.968l15.564 22.17h14.233c1.101 0 2.191-.071 3.271-.194z" fill="#2c4d66"/></g><g><path d="m283.965 281.66-58.813-26.421-29.377 25.416-29.377-25.416-88.967 39.967c-14.717 6.611-24.184 21.243-24.184 37.377v162.687c0 5.097 4.132 9.229 9.229 9.229h221.489z" fill="#d3ced5"/></g><g><path d="m153.003 261.258-50.76 22.803v17.583l50.76-22.804z" fill="#c3bec6"/></g><g><path d="m255.07 268.679-25.119 23.512c-5.65 5.289-14.376 5.475-20.246.431l-13.929-11.967 29.377-25.416z" fill="#f6f1f1"/></g><g><path d="m136.482 268.679 25.119 23.512c5.65 5.289 14.376 5.475 20.246.431l13.929-11.967-29.377-25.416z" fill="#f6f1f1"/></g><g><path d="m77.432 295.207c-14.717 6.611-24.184 21.243-24.184 37.377v162.687c0 5.097 4.132 9.229 9.229 9.229h58.239v-228.738z" fill="#e1761c"/></g><g><path d="m71.248 495.271v-153.191c0-16.134 9.467-30.766 24.184-37.377l25.283-11.358v-17.583l-43.283 19.444c-14.717 6.612-24.184 21.244-24.184 37.377v162.687c0 5.097 4.132 9.229 9.229 9.229h18c-5.097.001-9.229-4.131-9.229-9.228z" fill="#d76718"/></g><g><path d="m442.266 345.084-47.053-28.393-26.38 42.427-37.361-46.351c-8.727-10.826-19.952-19.371-32.71-24.901l-27.925-12.104v228.738h38.121c5.097 0 9.229-4.132 9.229-9.229v-79.674l33.869 24.719c11.229 8.196 27.051 5.163 34.454-6.604z" fill="#e1761c"/></g><g><path d="m408.503 295.317-13.29 21.374 47.053 28.393 12.942-20.572c6.784-10.783 3.51-25.026-7.301-31.766l-7.705-4.803c-10.788-6.725-24.987-3.422-31.699 7.374z" fill="#ffcdbe"/></g></g><g><path d="m172.098 135.635c0-4.143-3.358-7.5-7.5-7.5h-3.578c-4.142 0-7.5 3.357-7.5 7.5s3.358 7.5 7.5 7.5h3.578c4.142 0 7.5-3.358 7.5-7.5z"/><path d="m226.954 143.135h3.577c4.142 0 7.5-3.357 7.5-7.5s-3.358-7.5-7.5-7.5h-3.577c-4.142 0-7.5 3.357-7.5 7.5s3.358 7.5 7.5 7.5z"/><path d="m216.309 190.64c3.531-2.165 4.637-6.783 2.471-10.314s-6.783-4.638-10.315-2.471c-7.977 4.893-18.052 5.178-26.291.742l-1.767-.952c-3.645-1.962-8.195-.601-10.16 3.045s-.602 8.195 3.045 10.16l1.77.953c6.109 3.289 12.86 4.924 19.603 4.924 7.527 0 15.043-2.038 21.644-6.087z"/><path d="m465.465 305.433c-1.495-6.505-4.991-12.209-10-16.437v-192.226c0-11.839-9.631-21.47-21.47-21.47h-1.449c-11.838 0-21.47 9.631-21.47 21.47v164.47c0 4.143 3.358 7.5 7.5 7.5s7.5-3.357 7.5-7.5v-164.47c0-3.567 2.902-6.47 6.47-6.47h1.449c3.567 0 6.47 2.902 6.47 6.47v182.84c-6.045-2.714-12.774-3.385-19.339-1.856-7.942 1.848-14.687 6.678-18.992 13.603l-34.091 54.83-30.731-38.126c-9.452-11.726-21.75-21.088-35.566-27.076l-27.926-12.104c-.001 0-.002 0-.002-.001l-15.664-7.037c-.021-.009-.041-.019-.062-.028l-25.438-11.428v-20.333c26.174-10.438 44.798-35.849 45.23-65.6h2.312c15.781 0 28.62-12.839 28.62-28.62v-5.158c0-12.216-7.696-22.663-18.491-26.763l1.082-.817c14.308-10.808 18.441-30.728 9.615-46.335l-15.774-27.896c-10.07-17.804-29.032-28.865-49.487-28.865h-32.427c-.002 0-.003 0-.005 0-10.64 0-20.645 4.145-28.17 11.669-.134.135-.337.17-.505.084l-4.108-2.044c-13.553-6.74-29.628-5.471-41.952 3.318l-17.86 12.734c-12.468 8.891-19.912 23.341-19.912 38.654 0 9.814 2.98 19.247 8.619 27.278l7.512 10.7c-13.697 2.125-24.215 13.997-24.215 28.28v5.158c0 15.781 12.839 28.62 28.62 28.62h2.312c.432 29.751 19.057 55.162 45.23 65.6v20.333l-25.455 11.435c-.009.004-.018.008-.026.012l-15.62 7.017c-.002.001-.004.002-.006.003l-43.433 19.512c-17.38 7.809-28.611 25.165-28.611 44.219v95.565c0 4.143 3.358 7.5 7.5 7.5s7.5-3.357 7.5-7.5v-95.565c0-13.158 7.755-25.144 19.757-30.535l32.71-14.695v209.648h-50.739c-.953 0-1.729-.775-1.729-1.729v-33.777c0-4.143-3.358-7.5-7.5-7.5s-7.5 3.357-7.5 7.5v33.777c0 9.225 7.504 16.729 16.729 16.729h246.48c9.224 0 16.729-7.505 16.729-16.729v-64.914l21.947 16.018c7.026 5.129 15.956 7.128 24.495 5.493 8.542-1.638 16.098-6.799 20.729-14.16l68.699-109.201c4.351-6.917 5.74-15.111 3.909-23.074zm-281.175-24.798-7.331 6.298c-2.973 2.555-7.373 2.461-10.233-.218l-16.893-15.812 15.276-6.863zm42.153-16.594 15.276 6.863-16.893 15.812c-2.861 2.678-7.262 2.772-10.233.218l-7.331-6.298zm67.372-128.208c0 7.51-6.11 13.62-13.62 13.62h-2.285v-32.398h2.285c7.51 0 13.62 6.11 13.62 13.62zm-174.373-97.858 17.86-12.734c7.804-5.564 17.982-6.37 26.562-2.102l4.11 2.045c5.946 2.957 13.097 1.787 17.792-2.907 4.692-4.693 10.929-7.277 17.564-7.277h.003 32.428c15.058 0 29.017 8.142 36.429 21.248l15.774 27.895c5.14 9.09 2.732 20.689-5.599 26.983l-9.637 7.277c-3.116 2.354-6.984 3.651-10.891 3.651h-24c-12.157 0-23.673-5.287-31.598-14.506l-18.569-21.6c-2.12-2.464-5.131-3.841-8.349-3.841-.232 0-.465.007-.698.021-3.478.214-6.58 2-8.51 4.9l-16.987 25.517c-3.963 5.953-10.6 9.508-17.752 9.508h-10.334l-13.324-18.979c-3.857-5.493-5.896-11.946-5.896-18.659.001-10.474 5.093-20.358 13.622-26.44zm-21.706 97.858v-5.158c0-7.51 6.11-13.62 13.62-13.62h2.285v32.398h-2.285c-7.51 0-13.62-6.11-13.62-13.62zm30.906 27.566v-46.345h6.733c12.183 0 23.487-6.055 30.238-16.195l14.091-21.168 15.161 17.636c10.777 12.537 26.44 19.728 42.973 19.728 0 0 24.715-.032 25.072-.044v46.389c0 31.288-25.455 56.742-56.742 56.742h-20.784c-31.288 0-56.742-25.454-56.742-56.743zm56.742 71.743h20.784c3.91 0 7.743-.326 11.485-.931v17.6l-21.877 18.928-21.877-18.928v-17.6c3.742.604 7.575.931 11.485.931zm194.777 194.577c-2.461 3.912-6.317 6.546-10.856 7.416-4.54.868-9.095-.151-12.828-2.877l-33.869-24.719c-2.28-1.662-5.302-1.906-7.819-.628-2.517 1.279-4.102 3.863-4.102 6.687v79.673c0 .954-.775 1.729-1.729 1.729h-30.621v-133.12c0-4.143-3.358-7.5-7.5-7.5s-7.5 3.357-7.5 7.5v133.12h-60.06v-46.675c0-4.143-3.358-7.5-7.5-7.5s-7.5 3.357-7.5 7.5v46.675h-60.06v-216.385l6.785-3.048 21.474 20.1c4.356 4.078 9.918 6.129 15.489 6.129 5.249 0 10.506-1.821 14.77-5.485l1.542-1.325v119.499c0 4.143 3.358 7.5 7.5 7.5s7.5-3.357 7.5-7.5v-119.498l1.541 1.324c4.265 3.664 9.521 5.485 14.771 5.485 5.571 0 11.133-2.052 15.489-6.129l21.474-20.1 6.786 3.049v51.904c0 4.143 3.358 7.5 7.5 7.5s7.5-3.357 7.5-7.5v-45.333l17.443 7.562c11.597 5.025 21.92 12.885 29.853 22.727l37.361 46.351c1.525 1.892 3.875 2.921 6.297 2.779 2.425-.148 4.628-1.463 5.911-3.526l22.472-36.141 34.175 20.621zm68.699-109.201-9.022 14.341-34.243-20.663 9.277-14.92c2.188-3.519 5.616-5.974 9.652-6.912s8.194-.249 11.711 1.944l7.706 4.802c3.523 2.197 5.976 5.635 6.906 9.682s.224 8.211-1.987 11.726z"/></g></g></svg>