<svg id="Capa_1" enable-background="new 0 0 512 512" height="512" viewBox="0 0 512 512" width="512" xmlns="http://www.w3.org/2000/svg"><g><g><path d="m471.367 221.447-19.54 59.456c-8.252 25.108-30.634 42.912-56.955 45.305-17.223 1.566-34.465 2.84-51.72 3.822l-33.655 1.545c-35.654 1.244-71.341 1.244-106.995 0l-33.572-1.54c-17.282-.983-34.552-2.258-51.802-3.826-26.321-2.393-48.703-20.197-56.955-45.305l-19.54-59.456v-31.319h95.893l19.286 44.911h200.792l28.99-44.911h85.773z" fill="#e59f4f"/><g><g><g><path d="m448.367 190.129c0 20.747-3.301 41.362-9.778 61.072l-11.518 35.046c-7.837 23.845-30.099 39.962-55.199 39.962-17.223 1.566-34.465 2.84-51.72 3.822l-33.655 1.545c-13.995.488-27.996.778-41.997.883 21.668.163 43.339-.127 64.997-.883l33.655-1.545c17.255-.982 34.497-2.256 51.72-3.822 25.1 0 47.362-16.117 55.199-39.962l21.296-64.799v-31.319z" fill="#e27f4d"/></g></g></g><path d="m355.4 256c7.131 0 13.461-4.563 15.716-11.328l9.015-27.044c2.255-6.765 8.586-11.328 15.717-11.328h60.372c3.412 9.65 12.611 16.567 23.43 16.567 13.564 0 24.589-10.867 24.845-24.369.264-13.929-11.473-25.331-25.405-25.331h-95.183c-14.262 0-26.923 9.126-31.433 22.656l-7.127 21.381c-1.128 3.382-4.293 5.664-7.858 5.664h-162.978c-3.565 0-6.731-2.281-7.858-5.664l-7.127-21.381c-4.51-13.53-17.172-22.656-31.433-22.656h-95.183c-13.932 0-25.669 11.401-25.405 25.331.256 13.502 11.281 24.369 24.845 24.369 10.819 0 20.018-6.916 23.43-16.567h60.372c7.131 0 13.462 4.563 15.716 11.328l9.015 27.044c2.255 6.765 8.586 11.328 15.717 11.328z" fill="#f6df59"/><g><g><g><path d="m136.526 195.822 7.127 21.38c1.128 3.383 4.293 5.664 7.858 5.664h23c-3.565 0-6.731-2.281-7.858-5.664l-7.127-21.38c-4.51-13.53-17.172-22.656-31.433-22.656h-23c14.261.001 26.923 9.126 31.433 22.656z" fill="#edbf50"/></g><g><path d="m479.09 173.167h-23c13.932 0 25.669 11.401 25.405 25.331-.178 9.368-5.542 17.464-13.34 21.546 3.438 1.799 7.345 2.824 11.494 2.824 13.564 0 24.589-10.867 24.845-24.369.266-13.931-11.472-25.332-25.404-25.332z" fill="#edbf50"/></g><g><path d="m357.131 217.628-9.015 27.044c-2.254 6.765-8.585 11.328-15.716 11.328h23c7.131 0 13.461-4.563 15.716-11.328l9.015-27.044c2.255-6.765 8.586-11.328 15.717-11.328h-23c-7.131 0-13.462 4.563-15.717 11.328z" fill="#edbf50"/></g></g></g><path d="m318.278 381.416v-9.449l-57.671-265.287v-27.997h30.743v13.443l60.835 279.841v9.449z" fill="#f3ffff"/><path d="m291.35 92.126v-13.443h-23v13.443l60.835 279.841v9.449h23v-9.449z" fill="#dff9f9"/><path d="m193.722 381.416v-9.449l57.671-265.287v-27.997h-30.743v13.443l-60.835 279.841v9.449z" fill="#f3ffff"/><path d="m230.648 78.683v17.436l-59.926 275.848v9.449h23v-9.449l57.671-265.287v-27.997z" fill="#dff9f9"/><path d="m140.033 408.1h66.267v-28.133c0-4.418-3.582-8-8-8h-50.267c-4.418 0-8 3.582-8 8z" fill="#f6df59"/><path d="m198.3 371.967h-23c4.418 0 8 3.582 8 8v28.133h23v-28.133c0-4.419-3.582-8-8-8z" fill="#edbf50"/><path d="m371.967 408.1h-66.267v-28.133c0-4.418 3.582-8 8-8h50.267c4.418 0 8 3.582 8 8z" fill="#f6df59"/><path d="m363.967 371.967h-23c4.418 0 8 3.582 8 8v28.133h23v-28.133c0-4.419-3.582-8-8-8z" fill="#edbf50"/><path d="m454.8 450.089h-397.6v-28.989c0-8.837 7.163-16 16-16h365.6c8.837 0 16 7.163 16 16z" fill="#f3ffff"/><path d="m438.8 405.1h-23c8.836 0 16 7.163 16 16v28.989h23v-28.989c0-8.837-7.164-16-16-16z" fill="#dff9f9"/><path d="m32.35 483.356v-11.989l24.85-33.134h397.6l24.85 33.134v11.989z" fill="#924af5"/><path d="m454.8 438.233h-23l24.85 33.134v11.989h23v-11.989z" fill="#7536f9"/><circle cx="256" cy="57.2" fill="#f6df59" r="49.7"/><path d="m256 7.5c-3.96 0-7.807.477-11.5 1.352 21.901 5.191 38.2 24.86 38.2 48.348s-16.299 43.157-38.2 48.348c3.693.875 7.54 1.352 11.5 1.352 27.448 0 49.7-22.252 49.7-49.7 0-27.449-22.252-49.7-49.7-49.7z" fill="#edbf50"/><path d="m496.5 504.5h-481c-4.418 0-8-3.582-8-8v-17.133c0-4.418 3.582-8 8-8h481c4.418 0 8 3.582 8 8v17.133c0 4.418-3.582 8-8 8z" fill="#f6df59"/><path d="m496.5 471.367h-23c4.418 0 8 3.582 8 8v17.133c0 4.418-3.582 8-8 8h23c4.418 0 8-3.582 8-8v-17.133c0-4.419-3.582-8-8-8z" fill="#edbf50"/><circle cx="256" cy="57.2" fill="#f3ffff" r="16.567"/><path d="m256 40.633c-4.471 0-8.52 1.779-11.5 4.657 3.119 3.012 5.067 7.23 5.067 11.909s-1.948 8.897-5.067 11.909c2.98 2.878 7.029 4.657 11.5 4.657 9.149 0 16.567-7.417 16.567-16.567 0-9.148-7.418-16.565-16.567-16.565z" fill="#dff9f9"/></g><g><path d="m496.5 463.867h-13.1l-21.1-28.134v-14.633c0-12.958-10.542-23.5-23.5-23.5h-59.333v-17.633c0-8.547-6.953-15.5-15.5-15.5h-5.737l-5.974-27.479c14.436-.904 28.957-2.006 43.296-3.31 29.322-2.666 54.208-22.462 63.4-50.433l17.438-53.061c1.077.109 2.161.183 3.26.183 17.502 0 32.012-14.233 32.344-31.728.163-8.592-3.122-16.764-9.251-23.01-6.212-6.331-14.833-9.963-23.652-9.963h-5.001l-176.027-147.179c-10.461-11.356-25.443-18.487-42.063-18.487-16.621 0-31.604 7.132-42.065 18.49l-176.024 147.177h-5.001c-8.819 0-17.44 3.632-23.652 9.963-6.129 6.246-9.415 14.418-9.251 23.01.332 17.494 14.842 31.728 32.344 31.728 1.098 0 2.183-.074 3.26-.183l17.438 53.061c9.192 27.971 34.079 47.767 63.401 50.433 14.343 1.303 28.864 2.405 43.295 3.31l-5.974 27.479h-5.737c-8.547 0-15.5 6.953-15.5 15.5v17.632h-59.334c-12.958 0-23.5 10.542-23.5 23.5v14.634l-21.1 28.134h-13.1c-8.547 0-15.5 6.953-15.5 15.5v17.132c0 8.547 6.953 15.5 15.5 15.5h74.593c4.142 0 7.5-3.357 7.5-7.5s-3.358-7.5-7.5-7.5h-74.593c-.276 0-.5-.225-.5-.5v-17.133c0-.275.224-.5.5-.5h481c.276 0 .5.225.5.5v17.133c0 .275-.224.5-.5.5h-376.407c-4.142 0-7.5 3.357-7.5 7.5s3.358 7.5 7.5 7.5h376.407c8.547 0 15.5-6.953 15.5-15.5v-17.133c0-8.547-6.953-15.5-15.5-15.5zm-132.033-83.9v17.633h-51.267v-17.633c0-.275.224-.5.5-.5h50.267c.276 0 .5.224.5.5zm-150.667 17.633v-17.633c0-6.954-4.604-12.852-10.923-14.809l5.63-25.896c15.775.486 31.632.742 47.494.742 15.861 0 31.718-.257 47.493-.742l5.63 25.896c-6.319 1.957-10.923 7.855-10.923 14.809v17.633zm11.617-292.099c5.162 3.281 10.879 5.758 16.981 7.252l-47.518 218.58h-18.557zm61.166 0 49.093 225.832h-18.556l-47.518-218.58c6.102-1.495 11.819-3.972 16.981-7.252zm-61.607 157.999h62.047l3.942 18.133h-69.931zm7.203-33.133h47.641l3.942 18.133h-55.525zm3.261-15 20.56-94.575 20.56 94.575zm-17.666 81.266h76.453l6.026 27.721c-29.409.851-59.096.851-88.505 0zm106.549 67.834-3.942-18.134h18.556l3.942 18.134zm69.87-45.727c-14.956 1.359-30.114 2.496-45.162 3.416l-5.548-25.523h91.508c-9.812 12.428-24.435 20.619-40.798 22.107zm50.509-40.179c-.342 1.04-.72 2.061-1.115 3.071h-103.365l-3.942-18.132h19.12c10.376 0 19.551-6.613 22.832-16.456l9.015-27.044c1.236-3.709 4.692-6.2 8.601-6.2h18.319v9.067c0 4.143 3.358 7.5 7.5 7.5s7.5-3.357 7.5-7.5v-9.067h22.245c2.629 4.698 6.376 8.598 10.815 11.44zm47.334-92.425c3.285 3.348 5.047 7.688 4.961 12.219-.178 9.381-7.96 17.013-17.347 17.013-7.339 0-13.913-4.648-16.359-11.567-1.06-2.996-3.893-5-7.071-5h-60.372c-10.375 0-19.55 6.613-22.832 16.456l-9.015 27.044c-1.236 3.709-4.693 6.2-8.602 6.2h-22.38l-3.942-18.133h8.412c6.804 0 12.821-4.337 14.973-10.792l7.127-21.381c3.494-10.483 13.267-17.527 24.318-17.527h95.183c4.817-.001 9.536 1.992 12.946 5.468zm-41.332-20.469h-66.797c-17.518 0-33.009 11.165-38.548 27.783l-7.127 21.381c-.107.32-.405.536-.743.536h-11.673l-26.322-121.08c8.536-9.994 13.706-22.945 13.706-37.087 0-2.322-.155-4.608-.426-6.859zm-152.504-108.467c0 23.27-18.931 42.2-42.2 42.2s-42.2-18.931-42.2-42.2 18.931-42.2 42.2-42.2 42.2 18.931 42.2 42.2zm-283.197 141.155c-.086-4.531 1.676-8.871 4.961-12.219 3.41-3.475 8.129-5.469 12.946-5.469h33.183c4.142 0 7.5-3.357 7.5-7.5s-3.358-7.5-7.5-7.5h-4.796l137.928-115.325c-.27 2.251-.426 4.536-.426 6.859 0 14.142 5.17 27.092 13.705 37.087l-26.322 121.08h-11.672c-.337 0-.636-.216-.743-.536l-7.127-21.381c-5.54-16.618-21.031-27.783-38.548-27.783h-32.013c-4.142 0-7.5 3.357-7.5 7.5s3.358 7.5 7.5 7.5h32.014c11.051 0 20.824 7.044 24.318 17.527l7.127 21.381c2.152 6.455 8.169 10.792 14.973 10.792h8.411l-3.942 18.132h-22.38c-3.909 0-7.366-2.491-8.602-6.2l-9.015-27.044c-3.281-9.843-12.457-16.456-22.832-16.456h-60.371c-3.178 0-6.012 2.004-7.071 5-2.446 6.919-9.02 11.567-16.359 11.567-9.387 0-17.169-7.632-17.347-17.012zm34.771 26.885c4.438-2.842 8.186-6.743 10.814-11.44h22.245v9.067c0 4.143 3.358 7.5 7.5 7.5s7.5-3.357 7.5-7.5v-9.067h18.318c3.909 0 7.366 2.491 8.602 6.2l9.015 27.044c3.281 9.843 12.456 16.456 22.832 16.456h19.119l-3.942 18.133h-103.364c-.395-1.011-.773-2.032-1.115-3.071zm68.033 93.5c-16.363-1.488-30.986-9.679-40.799-22.107h91.508l-5.549 25.523c-15.041-.919-30.197-2.056-45.16-3.416zm55.255 27.593h18.557l-3.942 18.134h-18.557zm-25.529 33.634c0-.275.224-.5.5-.5h50.267c.276 0 .5.225.5.5v17.633h-51.267zm-82.833 41.133c0-4.687 3.813-8.5 8.5-8.5h365.6c4.687 0 8.5 3.813 8.5 8.5v9.634h-18.134v-2.475c0-4.143-3.358-7.5-7.5-7.5s-7.5 3.357-7.5 7.5v2.475h-51.266v-2.475c0-4.143-3.358-7.5-7.5-7.5s-7.5 3.357-7.5 7.5v2.475h-51.267v-2.475c0-4.143-3.358-7.5-7.5-7.5s-7.5 3.357-7.5 7.5v2.475h-51.267v-2.475c0-4.143-3.358-7.5-7.5-7.5s-7.5 3.357-7.5 7.5v2.475h-51.266v-2.475c0-4.143-3.358-7.5-7.5-7.5s-7.5 3.357-7.5 7.5v2.475h-51.267v-2.475c0-4.143-3.358-7.5-7.5-7.5s-7.5 3.357-7.5 7.5v2.475h-18.133zm-3.75 24.633h390.1l13.6 18.134h-417.3z"/><path d="m256 81.267c13.27 0 24.067-10.796 24.067-24.066s-10.797-24.068-24.067-24.068c-13.271 0-24.067 10.797-24.067 24.067s10.796 24.067 24.067 24.067zm0-33.134c4.999 0 9.067 4.067 9.067 9.067 0 4.999-4.067 9.066-9.067 9.066s-9.067-4.067-9.067-9.066c0-5 4.067-9.067 9.067-9.067z"/></g></g></svg>