<svg id="Capa_1" enable-background="new 0 0 511.978 511.978" height="512" viewBox="0 0 511.978 511.978" width="512" xmlns="http://www.w3.org/2000/svg"><g><g><g><path d="m226.612 207.192h58.754v76.917h-58.754z" fill="#faa68e"/></g><g><path d="m226.612 207.192v76.917h15.34v-37.896h28.804c5.006 0 9.892-.515 14.61-1.49v-37.531z" fill="#e09380"/></g><g><path d="m187.217 160.407h-15.647c-11.664 0-21.12-9.456-21.12-21.12v-5.159c0-11.664 9.456-21.12 21.12-21.12h15.647z" fill="#faa68e"/></g><g><path d="m324.761 113.008h15.647c11.664 0 21.12 9.456 21.12 21.12v5.159c0 11.664-9.456 21.12-21.12 21.12h-15.647z" fill="#faa68e"/></g><g><path d="m266.381 231.095h-20.784c-35.48 0-64.242-28.762-64.242-64.242v-60.292c0-35.48 28.762-64.242 64.242-64.242h20.784c35.48 0 64.242 28.762 64.242 64.242v60.292c0 35.48-28.762 64.242-64.242 64.242z" fill="#ffcdbe"/></g><g><path d="m197.966 166.853v-60.292c0-35.48 28.762-64.242 64.242-64.242h-16.612c-35.48 0-64.242 28.762-64.242 64.242v60.292c0 35.48 28.762 64.242 64.242 64.242h16.612c-35.48 0-64.242-28.762-64.242-64.242z" fill="#ebae9d"/></g><g><path d="m374.332 298.66-88.967-39.967-29.377 25.416-29.377-25.416-88.967 39.967c-14.717 6.611-24.184 21.244-24.184 37.377v159.212c0 5.097 4.132 9.229 9.229 9.229h133.299 133.299c5.097 0 9.229-4.132 9.229-9.229v-159.212c.001-16.133-9.467-30.766-24.184-37.377z" fill="#f6f1f1"/></g><g><path d="m226.612 258.693-88.967 39.967 20.16 11.028 84.088-37.775z" fill="#e2dfe2"/></g><g><path d="m389.288 504.478c5.097 0 9.229-4.132 9.229-9.229v-159.212c0-16.134-9.468-30.766-24.184-37.377l-12.337-5.542-102.751 88.109c-1.873 1.606-4.637 1.606-6.51 0l-102.751-88.109-12.337 5.542c-14.717 6.611-24.184 21.244-24.184 37.377v159.212c0 5.097 4.132 9.229 9.229 9.229h133.299z" fill="#365f7e"/></g><g><path d="m133.621 495.249v-148.184c0-16.134 9.467-30.766 24.184-37.377l7.548-3.391-15.37-13.18-12.337 5.542c-14.717 6.611-24.184 21.244-24.184 37.377v159.212c0 5.097 4.132 9.229 9.229 9.229h20.16c-5.098.001-9.23-4.131-9.23-9.228z" fill="#2c4d66"/></g><g><path d="m260.706 420.807 128.763-110.414c-3.977-4.954-9.106-9.025-15.136-11.734l-12.337-5.542-102.751 88.109c-1.873 1.606-4.637 1.606-6.51 0l-102.751-88.109-12.337 5.542c-6.03 2.709-11.159 6.78-15.136 11.733l128.763 110.414c2.712 2.329 6.718 2.329 9.432.001z" fill="#fdcd08"/></g><g><path d="m157.805 309.688 7.548-3.391-15.37-13.18-12.337 5.542c-6.03 2.709-11.159 6.78-15.136 11.733l17.388 14.91c4.216-6.722 10.365-12.226 17.907-15.614z" fill="#faab18"/></g><g><path d="m267.048 324.153 10.324-9.858c3.026-2.889 2.983-7.734-.094-10.569l-21.289-19.617-21.289 19.617c-3.077 2.835-3.127 7.673-.101 10.563 2.946 2.813 6.695 6.393 10.33 9.864z" fill="#e58e82"/></g><g><path d="m259.244 381.227 20.371-17.468v-.001l-12.569-39.604h-22.116l-12.569 39.604 20.373 17.47c1.873 1.605 4.637 1.605 6.51-.001z" fill="#e06c57"/></g><g><path d="m181.355 113.008-7.311-12.735c-7.513-13.088-8.069-29.045-1.484-42.624 5.602-11.552 15.811-20.21 28.123-23.848l7.111-2.102c1.851-.547 3.602-1.388 5.185-2.491l14.144-9.853c21.355-14.877 49.447-15.855 71.783-2.498l36.135 21.607c7.508 4.49 15.875 7.355 24.559 8.411l12.885 1.567c3.464.421 4.67 4.833 1.903 6.958l-19.8 15.209c-2.015 1.548-1.05 4.765 1.484 4.948l16.897 1.224c3.404.247 4.869 4.439 2.359 6.752l-20.156 18.574c-7.733 7.126-17.865 11.082-28.381 11.082h-71.913c-7.739 0-15.135-3.199-20.434-8.84l-8.518-9.067c-2.134-2.272-5.819-2.001-7.599.559l-3.618 5.205c-5.282 7.599-13.973 12.102-23.227 12.034z" fill="#e9a761"/></g><g><path d="m192.5 100.273c-7.513-13.088-8.069-29.045-1.484-42.624 5.602-11.552 15.811-20.21 28.123-23.848l7.111-2.102c1.851-.547 3.602-1.388 5.185-2.491l14.144-9.853c8.695-6.057 18.507-9.809 28.593-11.228-16.235-2.283-33.083 1.499-47.049 11.228l-14.144 9.853c-1.584 1.103-3.334 1.944-5.185 2.491l-7.111 2.102c-12.312 3.639-22.522 12.296-28.123 23.848-6.585 13.579-6.029 29.536 1.484 42.624l7.31 12.735 10.127.074c2.66.02 5.269-.35 7.768-1.051z" fill="#e69642"/></g></g><g><path d="m232.311 139.088c0-4.143-3.358-7.5-7.5-7.5h-3.577c-4.142 0-7.5 3.357-7.5 7.5s3.358 7.5 7.5 7.5h3.577c4.142 0 7.5-3.357 7.5-7.5z"/><path d="m287.167 146.588h3.577c4.142 0 7.5-3.357 7.5-7.5s-3.358-7.5-7.5-7.5h-3.577c-4.142 0-7.5 3.357-7.5 7.5s3.358 7.5 7.5 7.5z"/><path d="m276.522 194.095c3.531-2.166 4.638-6.783 2.473-10.314-2.166-3.53-6.784-4.639-10.314-2.473-7.979 4.894-18.054 5.177-26.295.74l-1.768-.951c-3.647-1.962-8.195-.599-10.159 3.051-1.963 3.647-.597 8.195 3.05 10.158l1.767.95c6.109 3.289 12.86 4.924 19.604 4.924 7.524 0 15.041-2.037 21.642-6.085z"/><path d="m398.517 373.966c4.142 0 7.5-3.357 7.5-7.5v-30.429c0-19.054-11.23-36.41-28.611-44.219l-84.54-37.979v-20.333c26.174-10.438 44.799-35.848 45.23-65.6h2.312c15.781 0 28.62-12.839 28.62-28.62v-5.158c0-9.735-4.889-18.344-12.336-23.517 1.228-.935 2.416-1.931 3.562-2.987l20.156-18.574c3.345-3.082 4.537-7.848 3.036-12.141-1.5-4.294-5.4-7.279-9.935-7.607l-4.485-.325 9.932-7.629c3.687-2.832 5.276-7.56 4.05-12.044s-5-7.745-9.617-8.308l-12.884-1.566c-7.693-.936-14.966-3.427-21.616-7.402l-36.136-21.608c-24.82-14.843-56.19-13.751-79.918 2.779l-14.146 9.854c-.924.644-1.94 1.133-3.022 1.452l-7.111 2.102c-14.303 4.229-26.238 14.35-32.746 27.769-7.673 15.825-7.027 34.379 1.728 49.63l.958 1.669c-14.342 1.538-25.548 13.71-25.548 28.453v5.158c0 15.781 12.839 28.62 28.62 28.62h2.312c.432 29.752 19.056 55.162 45.23 65.6v20.333l-84.54 37.979c-17.38 7.809-28.611 25.165-28.611 44.219v159.212c0 9.225 7.504 16.729 16.729 16.729h266.599c9.224 0 16.729-7.504 16.729-16.729v-98.544c0-4.143-3.358-7.5-7.5-7.5s-7.5 3.357-7.5 7.5v98.544c0 .953-.775 1.729-1.729 1.729h-50.739v-74.502c0-4.143-3.358-7.5-7.5-7.5s-7.5 3.357-7.5 7.5v74.502h-135.12v-74.502c0-4.143-3.358-7.5-7.5-7.5s-7.5 3.357-7.5 7.5v74.502h-50.739c-.953 0-1.729-.775-1.729-1.729v-159.212c0-5.048 1.151-9.92 3.236-14.317l23.242 19.93c1.415 1.213 3.151 1.807 4.879 1.807 2.113 0 4.213-.888 5.697-2.618 2.696-3.145 2.333-7.879-.811-10.575l-23.697-20.32c2.182-1.753 4.588-3.263 7.212-4.441l7.996-3.592 99.137 85.01c2.358 2.021 5.248 3.032 8.138 3.032s5.78-1.011 8.137-3.032l99.137-85.01 7.996 3.592c2.624 1.179 5.031 2.689 7.212 4.441l-122.484 105.029-75.813-65.01c-3.146-2.696-7.879-2.335-10.576.812-2.696 3.145-2.333 7.879.811 10.575l75.979 65.151c2.782 2.385 6.19 3.577 9.599 3.577s6.818-1.192 9.599-3.577l122.193-104.781c2.085 4.397 3.236 9.268 3.236 14.317v30.429c0 4.142 3.358 7.5 7.5 7.5zm-44.489-234.68c0 7.51-6.11 13.62-13.62 13.62h-2.285v-32.398h2.285c7.51 0 13.62 6.11 13.62 13.62zm-174.719-78.365c4.67-9.631 13.236-16.895 23.5-19.929l7.111-2.102c2.628-.776 5.101-1.965 7.347-3.529l14.145-9.854c18.897-13.165 43.88-14.032 63.646-2.215l36.135 21.608c8.461 5.059 17.714 8.228 27.502 9.419l4.133.502-12.81 9.84c-3.409 2.619-4.813 6.971-3.578 11.088 1.234 4.117 4.802 6.978 9.089 7.288l8.593.623-14.034 12.932c-6.366 5.867-14.641 9.098-23.298 9.098h-71.913c-5.646 0-11.102-2.36-14.968-6.476l-8.518-9.065c-2.362-2.515-5.61-3.912-9.026-3.912-.307 0-.615.012-.923.034-3.749.275-7.129 2.204-9.274 5.29l-3.618 5.205c-3.843 5.528-10.138 8.816-16.864 8.816-.05 0-.101 0-.15-.001l-5.821-.042-5.167-9.002c-6.283-10.944-6.747-24.259-1.239-35.616zm-21.36 78.365v-5.158c0-7.51 6.11-13.62 13.62-13.62h2.285v32.398h-2.285c-7.51 0-13.62-6.11-13.62-13.62zm30.906 27.568v-46.29l2.572.019c.087 0 .173.001.26.001 11.637 0 22.531-5.689 29.18-15.254l1.788-2.572 6.322 6.729c6.69 7.12 16.13 11.204 25.9 11.204h68.245v46.163c0 31.287-25.455 56.741-56.742 56.741h-20.784c-31.287 0-56.741-25.454-56.741-56.741zm56.742 71.741h20.784c3.91 0 7.743-.326 11.485-.931v17.6l-21.877 18.928-21.877-18.928v-17.6c3.742.605 7.575.931 11.485.931zm10.392 135.543-14.978-12.844 9.407-29.642h11.14l9.407 29.644zm8.053-57.486h-16.107l-7.953-7.595 16.007-14.75 16.007 14.75zm-38.72-49.158 19.407 16.791-15.111 13.925c-2.987 2.752-4.721 6.658-4.756 10.717-.036 4.055 1.626 7.986 4.557 10.784l6.947 6.634-7.725 24.342-64.805-55.57zm58.013 83.194-7.725-24.342 6.94-6.627c2.935-2.803 4.598-6.738 4.562-10.796-.036-4.059-1.769-7.963-4.752-10.713l-15.112-13.925 19.407-16.791 61.487 27.623z"/></g></g></svg>