<svg id="Capa_1" enable-background="new 0 0 512 512" height="512" viewBox="0 0 512 512" width="512" xmlns="http://www.w3.org/2000/svg"><g><g><path d="m15.783 15.829c-4.575 0-8.283 3.709-8.283 8.283v16.567c0 4.575 3.709 8.283 8.283 8.283h480.433c4.575 0 8.283-3.709 8.283-8.283v-16.566c0-4.575-3.709-8.283-8.283-8.283h-480.433z" fill="#f3ffff"/><path d="m496.217 15.829h-23c4.575 0 8.283 3.708 8.283 8.283v16.567c0 4.575-3.709 8.283-8.283 8.283h23c4.575 0 8.283-3.708 8.283-8.283v-16.566c0-4.575-3.709-8.284-8.283-8.284z" fill="#dff9f9"/><path d="m454.8 7.546h-24.85l-24.85 10.092-24.85-10.092h-24.85c-4.575 0-8.283 3.709-8.283 8.283v132.312c0 6.36 6.871 10.347 12.393 7.192l20.74-11.852 24.85-31.21 24.85 31.21 20.74 11.852c5.522 3.155 12.393-.832 12.393-7.192v-132.312c0-4.574-3.708-8.283-8.283-8.283z" fill="#9eea4a"/><path d="m454.8 7.546h-23c4.575 0 8.283 3.709 8.283 8.283v132.312c0 .372-.028.734-.073 1.089l10.68 6.103c5.522 3.155 12.393-.832 12.393-7.192v-132.312c0-4.574-3.708-8.283-8.283-8.283z" fill="#7fdc3f"/><path d="m15.783 201.104c-4.575 0-8.283 3.709-8.283 8.283v16.567c0 4.575 3.709 8.283 8.283 8.283h480.433c4.575 0 8.283-3.708 8.283-8.283v-16.567c0-4.575-3.709-8.283-8.283-8.283z" fill="#f3ffff"/><path d="m496.217 201.104h-23c4.575 0 8.283 3.708 8.283 8.283v16.567c0 4.575-3.709 8.283-8.283 8.283h23c4.575 0 8.283-3.708 8.283-8.283v-16.567c0-4.575-3.709-8.283-8.283-8.283z" fill="#dff9f9"/><path d="m15.783 363.834c-4.575 0-8.283 3.709-8.283 8.283v16.567c0 4.575 3.709 8.283 8.283 8.283h480.433c4.575 0 8.283-3.708 8.283-8.283v-16.567c0-4.575-3.709-8.283-8.283-8.283z" fill="#f3ffff"/><path d="m496.217 363.834h-23c4.575 0 8.283 3.708 8.283 8.283v16.567c0 4.575-3.709 8.283-8.283 8.283h23c4.575 0 8.283-3.708 8.283-8.283v-16.567c0-4.575-3.709-8.283-8.283-8.283z" fill="#dff9f9"/><g><g><g><path d="m301.59 503.338-37.371-21.355c-5.093-2.91-11.346-2.91-16.439 0l-37.371 21.355c-5.522 3.155-12.393-.832-12.393-7.192v-132.312c0-4.575 3.708-8.283 8.283-8.283h99.4c4.575 0 8.283 3.708 8.283 8.283v132.312c.001 6.36-6.87 10.347-12.392 7.192z" fill="#924af5"/></g><g><path d="m152.49 503.338-37.371-21.355c-5.093-2.91-11.346-2.91-16.439 0l-37.37 21.355c-5.522 3.155-12.393-.832-12.393-7.192v-132.312c0-4.575 3.708-8.283 8.283-8.283h99.4c4.575 0 8.283 3.708 8.283 8.283v132.312c0 6.36-6.871 10.347-12.393 7.192z" fill="#f6df59"/></g><g><path d="m450.69 503.338-37.371-21.355c-5.093-2.91-11.346-2.91-16.439 0l-37.371 21.355c-5.522 3.155-12.393-.832-12.393-7.192v-132.312c0-4.575 3.708-8.283 8.283-8.283h99.4c4.575 0 8.283 3.708 8.283 8.283v132.312c.001 6.36-6.87 10.347-12.392 7.192z" fill="#f6df59"/></g><g><path d="m454.8 355.55h-23c4.575 0 8.283 3.709 8.283 8.283v132.312c0 .372-.028.734-.073 1.089l10.68 6.103c5.522 3.155 12.393-.832 12.393-7.192v-132.311c0-4.575-3.708-8.284-8.283-8.284z" fill="#edbf50"/></g><g><path d="m305.7 355.55h-23c4.575 0 8.283 3.709 8.283 8.283v132.312c0 .372-.028.734-.073 1.089l10.68 6.103c5.522 3.155 12.393-.832 12.393-7.192v-132.311c0-4.575-3.708-8.284-8.283-8.284z" fill="#7536f9"/></g><g><path d="m156.6 355.55h-23c4.575 0 8.283 3.709 8.283 8.283v132.312c0 .372-.028.734-.074 1.089l10.68 6.103c5.522 3.155 12.393-.832 12.393-7.192v-132.311c.001-4.575-3.707-8.284-8.282-8.284z" fill="#edbf50"/></g></g></g><path d="m463.083 234.237-44.291 77.897c-6.576 9.655-20.81 9.655-27.385 0l-44.291-77.897v-33.133c0-4.575 3.708-8.283 8.283-8.283h99.4c4.575 0 8.283 3.708 8.283 8.283v33.133z" fill="#dc3d36"/><path d="m454.8 192.821h-23c4.575 0 8.283 3.708 8.283 8.283v33.133l-44.291 77.897c-.654.961-1.402 1.798-2.193 2.568 7.157 6.964 19.271 6.126 25.193-2.568l44.291-77.897v-33.133c0-4.575-3.708-8.283-8.283-8.283z" fill="#b13d49"/><path d="m164.883 234.237-44.291 77.897c-6.576 9.655-20.81 9.655-27.386 0l-44.291-77.897v-33.133c0-4.575 3.709-8.283 8.283-8.283h99.4c4.575 0 8.283 3.708 8.283 8.283v33.133z" fill="#dc3d36"/><path d="m156.6 192.821h-23c4.575 0 8.283 3.708 8.283 8.283v33.133l-44.291 77.897c-.654.961-1.402 1.798-2.193 2.568 7.157 6.964 19.272 6.126 25.193-2.568l44.291-77.897v-33.133c0-4.575-3.708-8.283-8.283-8.283z" fill="#b13d49"/><path d="m313.983 234.237-44.291 77.897c-6.576 9.655-20.81 9.655-27.385 0l-44.291-77.897v-33.133c0-4.575 3.708-8.283 8.283-8.283h99.4c4.575 0 8.283 3.708 8.283 8.283v33.133z" fill="#f3ffff"/><path d="m313.983 234.237-44.29 77.897c-6.576 9.655-20.81 9.655-27.385 0l-44.291-77.897v-33.133c0-4.575 3.709-8.283 8.283-8.283h99.4c4.575 0 8.283 3.708 8.283 8.283z" fill="#f6df59"/><path d="m305.7 192.821h-23c4.575 0 8.283 3.708 8.283 8.283v33.133l-44.291 77.897c-.654.961-1.402 1.798-2.193 2.568 7.157 6.964 19.271 6.126 25.193-2.568l44.291-77.897v-33.133c0-4.575-3.708-8.283-8.283-8.283z" fill="#edbf50"/><path d="m429.95 7.546h-49.7v135.936l16.631-9.503c5.093-2.91 11.346-2.91 16.439 0l16.631 9.503v-135.936z" fill="#f3ffff"/><path d="m156.6 7.546h-24.85l-24.85 10.092-24.85-10.092h-24.85c-4.575 0-8.283 3.709-8.283 8.283v132.312c0 6.36 6.871 10.347 12.393 7.192l20.74-11.852 24.85-31.21 24.85 31.21 20.74 11.852c5.522 3.155 12.393-.832 12.393-7.192v-132.312c0-4.574-3.708-8.283-8.283-8.283z" fill="#9eea4a"/><path d="m156.6 7.546h-23c4.575 0 8.283 3.709 8.283 8.283v132.312c0 .372-.028.734-.073 1.089l10.68 6.103c5.522 3.155 12.393-.832 12.393-7.192v-132.312c0-4.574-3.708-8.283-8.283-8.283z" fill="#7fdc3f"/><path d="m131.75 7.546h-49.7v135.936l16.631-9.503c5.093-2.91 11.346-2.91 16.439 0l16.631 9.503v-135.936z" fill="#f3ffff"/><path d="m305.7 7.546h-24.85l-24.85 10.092-24.85-10.092h-24.85c-4.575 0-8.283 3.709-8.283 8.283v132.312c0 6.36 6.871 10.347 12.393 7.192l20.74-11.852 24.85-31.21 24.85 31.21 20.74 11.852c5.522 3.155 12.393-.832 12.393-7.192v-132.312c0-4.574-3.708-8.283-8.283-8.283z" fill="#92b0ea"/><path d="m305.7 7.546h-23c4.575 0 8.283 3.709 8.283 8.283v132.312c0 .372-.028.734-.073 1.089l10.68 6.103c5.522 3.155 12.393-.832 12.393-7.192v-132.312c0-4.574-3.708-8.283-8.283-8.283z" fill="#7691ea"/><path d="m280.85 7.546h-49.7v135.936l16.631-9.503c5.093-2.91 11.346-2.91 16.439 0l16.631 9.503v-135.936z" fill="#f3ffff"/></g><g><path d="m496.217 8.329h-27.533c-2.673-4.929-7.894-8.283-13.884-8.283h-99.4c-5.99 0-11.211 3.355-13.884 8.283h-21.932c-2.673-4.929-7.894-8.283-13.884-8.283h-99.4c-5.99 0-11.211 3.355-13.884 8.283h-21.932c-2.673-4.929-7.894-8.283-13.884-8.283h-99.4c-5.99 0-11.211 3.355-13.884 8.283h-27.533c-8.703 0-15.783 7.08-15.783 15.784v16.567c0 8.703 7.08 15.783 15.783 15.783h25.633v91.679c0 5.691 2.939 10.794 7.861 13.651 2.477 1.438 5.198 2.157 7.921 2.157 2.688-.001 5.377-.701 7.832-2.104l37.371-21.354c2.775-1.585 6.222-1.586 8.997-.001l37.371 21.355v.001c4.941 2.822 10.83 2.803 15.753-.053 4.922-2.857 7.861-7.96 7.861-13.651v-91.68h18.133v91.679c0 5.691 2.939 10.794 7.861 13.651 4.923 2.857 10.812 2.876 15.753.053l37.371-21.354c2.774-1.586 6.222-1.586 8.996-.001l37.371 21.355h.001c2.455 1.403 5.143 2.104 7.831 2.104 2.723 0 5.444-.719 7.921-2.157 4.922-2.857 7.861-7.96 7.861-13.651v-91.679h18.133v91.679c0 5.691 2.938 10.794 7.861 13.651 4.922 2.857 10.811 2.876 15.754.053l37.37-21.354c2.774-1.585 6.222-1.586 8.997-.001l37.371 21.355h.001c2.455 1.403 5.143 2.104 7.831 2.104 2.723 0 5.444-.719 7.921-2.157 4.922-2.857 7.861-7.96 7.861-13.651v-91.679h25.633c8.703 0 15.783-7.081 15.783-15.783v-16.567c.002-8.704-7.078-15.784-15.781-15.784zm-40.634 7.5v25.633h-18.133v-26.416h17.35c.432 0 .783.352.783.783zm-33.133 25.634h-34.7v-26.417h34.7zm-67.05-26.417h17.35v26.417h-18.133v-25.634c0-.431.351-.783.783-.783zm-33.917 8.283h18.133v18.133h-18.133zm-15-7.5v25.633h-18.133v-26.416h17.35c.432 0 .783.352.783.783zm-33.133 25.634h-34.7v-26.417h34.7zm-67.05-26.417h17.35v26.417h-18.133v-25.634c0-.431.351-.783.783-.783zm-33.917 8.283h18.133v18.133h-18.133zm-15-7.5v25.633h-18.133v-26.416h17.35c.432 0 .783.352.783.783zm-33.133 25.634h-34.7v-26.417h34.7zm-67.05-26.417h17.35v26.417h-18.134v-25.634c0-.431.352-.783.784-.783zm-42.2 25.633v-16.566c0-.432.352-.783.783-.783h25.633v18.133h-25.633c-.431 0-.783-.352-.783-.784zm42.589 108.143c-.118.066-.393.223-.782-.003-.39-.227-.39-.542-.39-.678v-91.678h18.133v82.667zm37.37-21.355-5.41 3.091v-74.095h34.7v74.095l-5.41-3.091c-7.364-4.208-16.514-4.209-23.88 0zm62.034 21.352c-.391.226-.664.07-.782.003l-16.961-9.692v-82.667h18.133v91.679c0 .135 0 .45-.39.677zm49.696.003c-.118.066-.392.223-.782-.003-.39-.227-.39-.542-.39-.678v-91.678h18.133v82.667zm37.371-21.355-5.41 3.091v-74.095h34.7v74.095l-5.41-3.091c-7.364-4.208-16.515-4.208-23.88 0zm62.033 21.352c-.392.226-.665.069-.782.003l-16.961-9.692v-82.667h18.133v91.679c0 .135 0 .45-.39.677zm49.696.002c-.118.066-.391.224-.782-.002-.39-.227-.39-.542-.39-.678v-91.678h18.133v82.667zm37.37-21.354-5.409 3.091v-74.095h34.7v74.095l-5.41-3.091c-7.365-4.208-16.516-4.209-23.881 0zm62.034 21.352c-.391.226-.665.069-.782.003h.001l-16.961-9.692v-82.667h18.133v91.679c-.001.135-.001.45-.391.677zm41.807-108.14c0 .432-.352.783-.783.783h-25.633v-18.133h25.633c.432 0 .783.351.783.783z"/><path d="m496.217 356.334h-27.533c-2.673-4.929-7.894-8.283-13.884-8.283h-52.833c-4.142 0-7.5 3.358-7.5 7.5s3.358 7.5 7.5 7.5h52.833c.432 0 .784.352.784.783v25.633h-100.967v-25.633c0-.432.352-.783.783-.783h16.567c4.142 0 7.5-3.358 7.5-7.5s-3.358-7.5-7.5-7.5h-16.567c-5.99 0-11.211 3.354-13.884 8.283h-21.932c-2.673-4.929-7.894-8.283-13.884-8.283h-99.4c-5.99 0-11.211 3.354-13.884 8.283h-21.932c-2.673-4.929-7.894-8.283-13.884-8.283h-99.4c-5.99 0-11.211 3.354-13.884 8.283h-27.533c-8.703 0-15.783 7.08-15.783 15.783v16.567c0 8.703 7.08 15.783 15.783 15.783h25.633v91.679c0 5.691 2.939 10.794 7.861 13.651s10.811 2.876 15.753.053l37.371-21.355c2.775-1.585 6.222-1.585 8.997 0l37.371 21.355c2.455 1.402 5.144 2.104 7.832 2.104 2.722 0 5.444-.719 7.921-2.157 4.922-2.857 7.861-7.96 7.861-13.651v-91.679h18.133v91.679c0 5.691 2.939 10.794 7.861 13.651 4.923 2.857 10.812 2.876 15.753.053l37.371-21.355c2.774-1.585 6.222-1.586 8.996 0l37.371 21.355h.001c2.455 1.403 5.143 2.104 7.832 2.104 2.722 0 5.444-.719 7.921-2.157 4.922-2.857 7.861-7.96 7.861-13.651v-91.679h18.133v91.679c0 5.691 2.938 10.794 7.861 13.651 4.922 2.857 10.811 2.877 15.754.053l37.37-21.355c2.774-1.585 6.222-1.585 8.997 0l37.372 21.355c2.455 1.403 5.143 2.104 7.832 2.104 2.722 0 5.444-.719 7.921-2.157 4.922-2.857 7.861-7.96 7.861-13.651v-91.679h25.633c8.703 0 15.783-7.08 15.783-15.783v-16.567c0-8.703-7.08-15.783-15.783-15.783zm-174.734 15h18.133v18.133h-18.133zm-115.183-8.284h99.4c.432 0 .783.352.783.783v25.633h-100.966v-25.633c0-.431.351-.783.783-.783zm-33.917 8.284h18.133v18.133h-18.133zm-115.183-8.284h99.4c.432 0 .783.352.783.783v25.633h-100.967v-25.633c0-.431.352-.783.784-.783zm-42.2 25.634v-16.567c0-.432.352-.783.783-.783h25.633v18.133h-25.633c-.431 0-.783-.352-.783-.783zm141.993 108.139c-.389.226-.664.071-.782.003l-37.371-21.355c-7.365-4.208-16.516-4.208-23.881 0l-37.371 21.355c-.118.066-.393.223-.782-.003-.39-.227-.39-.543-.39-.678v-91.679h100.967v91.679c0 .136 0 .452-.39.678zm149.1 0c-.392.226-.665.069-.782.003l-37.372-21.355c-7.364-4.208-16.515-4.208-23.88 0l-37.371 21.355c-.118.066-.392.223-.782-.003-.39-.227-.39-.543-.39-.678v-91.679h100.967v91.679c0 .136 0 .452-.39.678zm149.1 0c-.391.226-.666.069-.782.003l-37.372-21.355c-7.365-4.208-16.516-4.208-23.881 0l-37.37 21.354c-.119.067-.393.223-.782-.002-.39-.227-.39-.543-.39-.678v-91.679h100.967v91.679c0 .136 0 .452-.39.678zm41.807-108.139c0 .432-.352.783-.783.783h-25.633v-18.133h25.633c.432 0 .783.352.783.783z"/><path d="m496.217 193.604h-27.533c-2.673-4.929-7.894-8.283-13.884-8.283h-99.4c-5.99 0-11.21 3.354-13.884 8.283h-21.932c-2.673-4.929-7.894-8.283-13.884-8.283h-99.4c-5.99 0-11.21 3.354-13.884 8.283h-21.932c-2.673-4.929-7.894-8.283-13.884-8.283h-59.55c-4.142 0-7.5 3.358-7.5 7.5s3.358 7.5 7.5 7.5h59.55c.432 0 .783.351.783.783v25.633h-100.967v-25.633c0-.432.352-.783.784-.783h9.85c4.142 0 7.5-3.358 7.5-7.5s-3.358-7.5-7.5-7.5h-9.85c-5.99 0-11.211 3.354-13.884 8.283h-27.533c-8.703 0-15.783 7.08-15.783 15.783v16.567c0 8.703 7.08 15.783 15.783 15.783h28.77l42.134 74.105c.1.176.207.348.321.515 4.486 6.587 11.922 10.52 19.891 10.52h.001c7.969 0 15.406-3.933 19.892-10.52.114-.167.221-.339.321-.515l42.134-74.105h24.407l42.134 74.105c.1.176.207.348.321.515 4.486 6.587 11.922 10.52 19.892 10.52s15.406-3.932 19.892-10.52c.114-.167.221-.339.321-.515l42.134-74.105h24.406l42.134 74.105c.1.176.207.348.321.515 4.486 6.587 11.922 10.52 19.892 10.52 7.969 0 15.405-3.933 19.891-10.52.114-.167.221-.339.321-.515l42.134-74.105h28.77c8.703 0 15.783-7.081 15.783-15.783v-16.567c0-8.703-7.08-15.783-15.783-15.783zm-140.817 6.717h99.4c.432 0 .784.351.784.783v25.633h-100.967v-25.633c0-.432.351-.783.783-.783zm-33.917 8.283h18.133v18.133h-18.133zm-115.183-8.283h99.4c.432 0 .783.351.783.783v25.633h-100.966v-25.633c0-.432.351-.783.783-.783zm-33.917 8.283h18.133v18.133h-18.133zm-157.383 17.35v-16.567c0-.432.352-.783.783-.783h25.633v18.133h-25.633c-.431 0-.783-.352-.783-.783zm99.245 82.172c-1.722 2.387-4.385 3.75-7.345 3.75s-5.622-1.363-7.344-3.749l-37.748-66.389h90.183zm149.1 0c-1.722 2.387-4.385 3.75-7.345 3.75s-5.623-1.363-7.345-3.75l-37.747-66.389h90.183zm149.099 0c-1.722 2.386-4.384 3.749-7.344 3.749-2.96.001-5.623-1.363-7.345-3.75l-37.747-66.389h90.183zm84.556-82.172c0 .432-.352.783-.783.783h-25.633v-18.133h25.633c.432 0 .783.352.783.783z"/></g></g></svg>