<svg id="Capa_1" enable-background="new 0 0 512 512" height="512" viewBox="0 0 512 512" width="512" xmlns="http://www.w3.org/2000/svg"><g><g><circle cx="252.936" cy="253.574" fill="#f9f8f9" r="211.638"/><g><path d="m298.93 286.36v41.661l-8.84 38.339-36.835 2.257-31.305-2.257-5.422-32.466-2.128-47.534 44.728-4.296z" fill="#ffc250"/><path d="m279.615 238.572c0-18.044-15.921-33.008-36.763-35.783 0 0-1.668-.019-2.489-.09-1.499-.128-2.972.408-4.512.408-24.17 0-43.298 15.624-43.298 35.641s19.128 36.069 43.298 36.069 43.764-16.228 43.764-36.245z" fill="#e8e8e8"/><path d="m216.402 261.939c2.478-4.99 3.548-10.445 3.548-16.549 0-8.376-2.915-16.156-7.889-22.6-.532-.689-.601-1.644-.102-2.357 6.455-9.231 17.684-15.896 30.892-17.645-2.28-.31-4.622-.458-7.002-.458-24.17 0-43.76 16.22-43.76 36.24s19.59 36.25 43.76 36.25c2.38 0 4.72-.16 7-.47-10.556-1.398-19.845-5.933-26.447-12.411z" fill="#dcdbdd"/><path d="m204.951 245.391c0-11.98-9.993-21.988-23.523-24.545 0 0-4.563-.394-6.899-.394-16.802 0-29.018 11.152-29.018 25.067s12.216 25.067 29.018 25.067 30.422-11.28 30.422-25.195z" fill="#e8e8e8"/><path d="m181.53 269.91c-2.25.45-4.59.68-7 .68-16.8 0-30.42-11.28-30.42-25.2 0-13.91 13.62-25.19 30.42-25.19 2.41 0 4.647.197 6.897.646-13.43 2.61-23.317 12.624-23.317 24.544s9.99 21.91 23.42 24.52z" fill="#dcdbdd"/><path d="m363.902 249.786c0-12.85-10.346-23.836-25.055-28.356 0 0-6.08-1.09-9.283-1.441-1.874-.205-3.739-.463-5.687-.463-22.105 0-40.025 13.379-40.025 30.26s17.92 30.566 40.025 30.566 40.025-13.685 40.025-30.566z" fill="#e8e8e8"/><path d="m338.88 278.13c-4.63 1.43-9.7 2.22-15 2.22-22.11 0-40.03-13.68-40.03-30.56s17.92-30.57 40.03-30.57c5.3 0 10.337.78 14.967 2.21-14.68 4.53-24.997 15.53-24.997 28.36s10.35 23.81 25.03 28.34z" fill="#dcdbdd"/><path d="m221.95 366.36-42.227 4.3-34.083-4.3-1.53-36.551-12.75-43.449 42.268-3.275 40.772 3.275z" fill="#ffd064"/><path d="m380.89 286.36-14.53 80-35.998 4.3-40.272-4.3 8.84-80 34.496-4.296z" fill="#ffd064"/><path d="m366.36 366.36-2.681 15-3.209 4.76c-.85 4.77-5 8.24-9.84 8.24h-189.26c-4.84 0-8.99-3.47-9.84-8.24l-3.89-19.76z" fill="#ffe07d"/><path d="m384.4 268.12-3.51 18.24h-249.03l-2.26-17.24c-1.09-6.13 3.62-11.76 9.84-11.76l1.8-1h233.32c6.22 0 10.93 5.63 9.84 11.76z" fill="#ffe07d"/><path d="m160.88 366.36-9.114 2.257-6.126-2.257-14.28-80 6.619-3.275 8.611 3.275z" fill="#ffc250"/><g fill="#ffd064"><path d="m363.679 381.36-1.209 6.76c-.85 4.77-5 8.24-9.84 8.24h-193.26c-4.84 0-8.99-3.47-9.84-8.24l-3.89-21.76h15.24l1.8 10.06c.51 2.86 3 4.94 5.9 4.94z"/><path d="m146.59 286.36h-15.23l-3.26-18.24c-1.09-6.13 3.62-11.76 9.84-11.76h3.3z"/></g></g><path d="m256 7.894c-137.243 0-244.362 110.903-244.362 248.146 0 127.079 92.337 230.779 214.894 245.599 9.802 1.185 19.305 2.862 29.468 2.862 137.243 0 248.5-111.257 248.5-248.5 0-135.058-107.744-244.952-241.968-248.416-2.17-.057-4.348.309-6.532.309zm-203.5 248.106c0-112.39 91.11-203.5 203.5-203.5 46.031 0 88.484 15.293 122.577 41.062 2.42 1.829 2.658 5.383.512 7.529l-277.998 277.999c-2.145 2.145-5.699 1.908-7.529-.512-25.769-34.094-41.062-76.547-41.062-122.578zm407 0c0 112.39-91.11 203.5-203.5 203.5-46.031 0-88.484-15.293-122.577-41.062-2.42-1.829-2.658-5.383-.512-7.529l277.998-277.999c2.145-2.145 5.699-1.908 7.529.512 25.769 34.094 41.062 76.547 41.062 122.578z" fill="#df646e"/><path d="m265.5 504.314c-3.15.12-6.32.186-9.5.186-137.24 0-248.5-111.26-248.5-248.5s111.26-248.5 248.5-248.5c3.18 0 6.35.06 9.5.18-132.84 4.99-239 114.26-239 248.32s106.16 243.324 239 248.314z" fill="#dc4955"/></g><g><path d="m173.627 169.373c0 4.142 3.358 7.5 7.5 7.5s7.5-3.358 7.5-7.5c0-4.201 1.264-5.874 3.56-8.911 2.782-3.681 6.593-8.723 6.593-17.955s-3.811-14.274-6.593-17.955c-2.295-3.037-3.56-4.71-3.56-8.911 0-4.142-3.358-7.5-7.5-7.5s-7.5 3.358-7.5 7.5c0 9.231 3.811 14.273 6.593 17.955 2.295 3.037 3.56 4.71 3.56 8.911s-1.264 5.874-3.56 8.911c-2.782 3.681-6.593 8.723-6.593 17.955z"/><path d="m243.424 169.373c0 4.142 3.358 7.5 7.5 7.5s7.5-3.358 7.5-7.5c0-4.201 1.264-5.874 3.56-8.911 2.782-3.681 6.593-8.723 6.593-17.955s-3.811-14.274-6.593-17.955c-2.295-3.037-3.56-4.71-3.56-8.911 0-4.142-3.358-7.5-7.5-7.5s-7.5 3.358-7.5 7.5c0 9.231 3.811 14.273 6.593 17.955 2.295 3.037 3.56 4.71 3.56 8.911s-1.264 5.874-3.56 8.911c-2.783 3.681-6.593 8.723-6.593 17.955z"/><path d="m415.597 55.826c-3.237-2.583-7.957-2.056-10.541 1.182-2.584 3.237-2.055 7.956 1.182 10.541 57.681 46.047 90.762 114.735 90.762 188.451 0 132.888-108.112 241-241 241s-241-108.112-241-241 108.112-241 241-241c43.142 0 85.466 11.532 122.397 33.35 3.568 2.106 8.167.923 10.272-2.643 2.106-3.566.923-8.166-2.643-10.272-39.24-23.182-84.202-35.435-130.026-35.435-68.38 0-132.667 26.629-181.02 74.98-48.351 48.353-74.98 112.64-74.98 181.02s26.629 132.667 74.98 181.02c48.353 48.351 112.64 74.98 181.02 74.98s132.667-26.629 181.02-74.98c48.351-48.353 74.98-112.64 74.98-181.02 0-78.304-35.138-151.265-96.403-200.174z"/><path d="m128.9 424.421c36.854 27.855 80.804 42.579 127.1 42.579 116.346 0 211-94.654 211-211 0-46.296-14.724-90.246-42.579-127.099-2.178-2.882-5.496-4.678-9.103-4.928-3.614-.248-7.153 1.074-9.712 3.634l-277.999 277.999c-2.56 2.56-3.884 6.099-3.634 9.712.25 3.607 2.046 6.926 4.927 9.103zm247.617-157.622-2.154 12.06h-17.406c-4.142 0-7.5 3.358-7.5 7.5s3.358 7.5 7.5 7.5h14.727l-11.607 65h-61.615l7.185-65h16.31c4.142 0 7.5-3.358 7.5-7.5s-3.358-7.5-7.5-7.5h-46.39l15-15h83.489c1.016 0 1.637.561 1.917.895s.723 1.045.544 2.045zm-147.742 92.06-2.872-30.335 34.665-34.665h29.989l-7.185 65zm-16.637-16.571 1.569 16.571h-18.14zm93.429-93.429 21.983-21.983c15.655 1.288 28.16 10.775 28.818 21.983zm-155 155h45.141c4.142 0 7.5-3.358 7.5-7.5s-3.358-7.5-7.5-7.5h-30.141l15-15h176.832l-2.311 12.94c-.213 1.194-1.248 2.06-2.461 2.06h-121.919c-4.142 0-7.5 3.358-7.5 7.5s3.358 7.5 7.5 7.5h121.919c8.49 0 15.735-6.066 17.228-14.423l21.429-120c.913-5.113-.476-10.329-3.81-14.311s-8.225-6.266-13.418-6.266h-2.682c-.475-15.979-13.149-29.538-31.011-34.795l73.811-73.811c24.756 33.747 37.826 73.706 37.826 115.747 0 108.075-87.925 196-196 196-42.041 0-81.999-13.07-115.747-37.827z"/><path d="m103.367 121.195c-3.203-2.628-7.928-2.162-10.556 1.04-30.832 37.572-47.811 85.077-47.811 133.765 0 46.296 14.724 90.246 42.579 127.099 2.178 2.882 5.496 4.678 9.103 4.928.29.021.579.03.867.03 3.307 0 6.491-1.31 8.845-3.664l277.999-277.999c2.56-2.56 3.885-6.1 3.634-9.712-.25-3.607-2.046-6.925-4.927-9.103-36.854-27.855-80.804-42.579-127.1-42.579-50.615 0-99.562 18.193-137.825 51.229-3.135 2.707-3.482 7.443-.775 10.578s7.441 3.482 10.578.775c35.539-30.684 81.005-47.582 128.022-47.582 42.041 0 81.999 13.07 115.747 37.827l-35.044 35.044c-1.361-3.593-3.313-6.187-4.923-8.319-2.295-3.037-3.56-4.71-3.56-8.911 0-4.142-3.358-7.5-7.5-7.5s-7.5 3.358-7.5 7.5c0 9.231 3.811 14.273 6.593 17.955 2.654 3.444 4.74 7.526 2.835 13.33l-56.399 56.399c-8.757-5.507-19.33-8.498-30.398-8.498-18.204 0-35.002 8.381-44.115 21.443-5.169-2.279-11.014-3.574-17.207-3.574-20.911 0-37.922 14.667-37.922 32.695 0 1.189.077 2.365.22 3.529-4.771.304-9.208 2.51-12.301 6.205-3.334 3.982-4.723 9.198-3.81 14.311l12.034 67.388-34.923 34.923c-24.757-33.747-37.827-73.706-37.827-115.747 0-45.227 15.771-89.353 44.407-124.249 2.627-3.202 2.161-7.928-1.04-10.556zm132.484 88.632c6.987 0 13.654 1.569 19.407 4.489l-34.543 34.543h-8.478c1.189-7.516-2.193-17.849-8.227-24.002 6.297-9.143 18.469-15.03 31.841-15.03zm-61.322 17.869c12.64 0 22.922 7.938 22.922 17.695 0 1.175-.152 2.333-.449 3.468h-44.946c-.297-1.134-.449-2.293-.449-3.468-.001-9.757 10.282-17.695 22.922-17.695zm-38.502 37.058c.28-.334.901-.895 1.917-.895h67.771l-15 15h-53.078l-2.154-12.061c-.179-.999.264-1.71.544-2.044zm4.288 29.105h35.4l-30.036 30.036z"/></g></g></svg>