<svg id="Capa_1" enable-background="new 0 0 511.993 511.993" height="512" viewBox="0 0 511.993 511.993" width="512" xmlns="http://www.w3.org/2000/svg"><g><g><g><g><path d="m417.499 452.697 32.302-2.9 2.899-32.302-157.786-157.786-35.202 35.201z" fill="#e59f4f"/><path d="m294.914 259.709-11.35 11.35 167.266 167.266 1.87-20.83z" fill="#e27f4d"/></g><path d="m424.909 429.006h49.783v41.581h-49.783z" fill="#f6df59" transform="matrix(.707 -.707 .707 .707 -186.311 449.798)"/><path d="m453.7 417.081h16.052v41.581h-16.052z" fill="#edbf50" transform="matrix(.707 -.707 .707 .707 -174.385 454.741)"/><path d="m440.966 476.164c-6.48 6.48-6.48 16.987 0 23.468s16.987 6.481 23.468 0l35.202-35.202c6.48-6.48 6.48-16.987 0-23.468-6.48-6.48-16.987-6.48-23.468 0z" fill="#f3ffff"/><path d="m143.575 43.607-9.374-13.948-56.003-14.401-41.182 21.992-21.754 40.945 14.401 56.003 9.892 6.419v30.625c14.722 44.334 49.555 79.152 93.891 93.87l25.028-2.373 11.996 12.267 56.003 14.401 38.645-17.486 24.291-45.451-14.401-56.003-7.23-13.899-2.662-23.144c-14.722-44.333-49.554-79.151-93.888-93.869z" fill="#f3ffff"/><path d="m143.575 43.607-9.374-13.948-56.003-14.401-29.113 15.547c.317.062.633.13.949.211l102.835 26.443 8.557 2.2c52.297 13.448 93.134 54.285 106.582 106.582l17.408 67.699 3.993-7.471-14.401-56.003-7.23-13.899-2.662-23.144c-14.722-44.333-49.554-79.151-93.888-93.869z" fill="#dff9f9"/><path d="m289.409 226.469-62.936 62.936 37.335 9.601 35.202-35.202z" fill="#92b0ea"/><path d="m284.705 231.173 9.6 37.336 4.705-4.705-9.601-37.335z" fill="#7691ea"/><path d="m134.201 29.659-104.538 104.538 4.8 18.668 2.2 8.557c.854 3.321 1.821 6.594 2.892 9.819l131.69-131.69c-3.224-1.071-6.498-2.038-9.819-2.892l-8.557-2.2z" fill="#c3f2f7"/><path d="m115.906 47.954 36.963 9.505.372.096 18.004-18.004c-3.224-1.071-6.498-2.038-9.819-2.892l-8.557-2.2-18.668-4.8z" fill="#a2eef2"/><path d="m50.034 8.016c-5.684-1.462-11.717.188-15.867 4.337l-21.81 21.81c-4.15 4.15-5.799 10.183-4.337 15.867l7.242 28.164 62.937-62.937z" fill="#c3f2f7"/><path d="m59.903 33.554 18.296-18.295-28.165-7.243c-5.684-1.462-11.717.188-15.867 4.337l-21.81 21.81c-4.15 4.15-5.799 10.183-4.337 15.867l2.426 9.435c.563-.814 1.197-1.588 1.911-2.302l21.81-21.81c4.15-4.15 10.183-5.799 15.867-4.337z" fill="#a2eef2"/><path d="m143.245 268.004 27.225 7.001 104.539-104.539-7.001-27.225c-.854-3.321-1.821-6.595-2.892-9.819l-131.69 131.69c3.225 1.071 6.498 2.038 9.819 2.892z" fill="#c3f2f7"/><path d="m258.533 140.006c3.93 8.343 7.128 17.11 9.475 26.236l2.296 8.929 4.705-4.704-7.001-27.225c-.854-3.321-1.821-6.595-2.892-9.819z" fill="#7691ea"/><path d="m499.636 440.963c-6.405-6.405-16.737-6.468-23.234-.211.076.073.159.136.234.211 6.48 6.48 6.48 16.987 0 23.468l-35.202 35.202c-.075.075-.158.138-.234.212 6.497 6.257 16.829 6.194 23.234-.212l35.202-35.202c6.48-6.481 6.48-16.988 0-23.468z" fill="#dff9f9"/></g><g><g><path d="m59.292 417.495 2.9 32.302 32.302 2.9 157.786-157.787-35.201-35.201z" fill="#e59f4f"/><path d="m219.827 304.663-146.163 146.164 20.83 1.87 157.786-157.787-35.202-35.202-15.446 15.446 18.195 18.195c3.125 3.124 3.125 8.19 0 11.314z" fill="#e27f4d"/></g><path d="m41.402 424.905h41.581v49.783h-41.581z" fill="#f6df59" transform="matrix(.707 -.707 .707 .707 -299.838 175.718)"/><path d="m53.328 453.697h41.581v16.052h-41.581z" fill="#edbf50" transform="matrix(.707 -.707 .707 .707 -304.779 187.646)"/><path d="m35.825 440.963c-6.481-6.48-16.987-6.48-23.468 0s-6.481 16.987 0 23.468l35.202 35.202c6.48 6.481 16.987 6.481 23.468 0 6.48-6.48 6.48-16.987 0-23.468z" fill="#f3ffff"/><path d="m71.026 476.165-35.202-35.202c-6.405-6.405-16.737-6.468-23.234-.211.076.073.159.136.234.211l35.202 35.202c6.48 6.48 6.48 16.987 0 23.468-.075.075-.158.138-.234.212 6.496 6.257 16.829 6.194 23.234-.212 6.481-6.481 6.481-16.988 0-23.468z" fill="#dff9f9"/><path d="m468.382 143.572 13.948-9.374 14.401-56.003-21.992-41.182-40.945-21.754-56.003 14.401-6.419 9.892h-30.625c-44.334 14.722-79.152 49.555-93.87 93.891l2.373 25.028-12.267 11.996-14.401 56.003 17.486 38.645 45.451 24.291 56.003-14.401 13.899-7.23 23.144-2.662c44.333-14.722 79.151-49.554 93.869-93.888z" fill="#f3ffff"/><path d="m468.382 143.572 13.948-9.374 14.401-56.003-15.547-29.113c-.062.317-.13.633-.211.949l-26.443 102.834-2.2 8.557c-13.448 52.297-54.285 93.134-106.582 106.582l-67.699 17.408 7.471 3.993 56.003-14.401 13.899-7.23 23.144-2.662c44.333-14.722 79.151-49.554 93.869-93.888z" fill="#dff9f9"/><path d="m285.52 289.405-62.936-62.936-9.601 37.335 35.202 35.202z" fill="#c3f2f7"/><path d="m280.816 284.701-37.336 9.6 4.705 4.705 37.335-9.601z" fill="#7691ea"/><path d="m482.33 134.197-104.538-104.538-18.668 4.8-8.557 2.2c-3.321.854-6.594 1.821-9.819 2.892l131.69 131.69c1.071-3.225 2.037-6.498 2.892-9.819l2.2-8.557z" fill="#c3f2f7"/><path d="m464.035 115.902-9.505 36.963-.096.372 18.004 18.004c1.071-3.225 2.037-6.498 2.892-9.819l2.2-8.557 4.8-18.668z" fill="#a2eef2"/><path d="m503.973 50.03c1.462-5.684-.188-11.717-4.337-15.867l-21.81-21.81c-4.15-4.15-10.183-5.799-15.867-4.337l-28.164 7.242 62.937 62.937z" fill="#c3f2f7"/><path d="m478.435 59.899 18.296 18.296 7.242-28.164c1.462-5.684-.188-11.717-4.337-15.867l-21.81-21.81c-4.15-4.15-10.183-5.799-15.867-4.337l-9.435 2.426c.814.563 1.588 1.197 2.302 1.911l21.81 21.81c4.15 4.15 5.799 10.183 4.337 15.867z" fill="#a2eef2"/><path d="m243.985 143.241-7.001 27.225 104.539 104.539 27.225-7c3.321-.854 6.595-1.821 9.819-2.892l-131.69-131.69c-1.071 3.224-2.038 6.497-2.892 9.818z" fill="#c3f2f7"/><path d="m371.983 258.529c-8.343 3.93-17.11 7.128-26.236 9.475l-8.929 2.296 4.704 4.704 27.225-7c3.321-.854 6.595-1.821 9.819-2.892z" fill="#7691ea"/></g></g><path d="m477.026 431.212-145.813-145.812 39.402-10.132c54.942-14.129 97.851-57.036 111.978-111.978l28.643-111.391c2.112-8.214-.301-17.042-6.297-23.039l-21.81-21.811c-5.997-5.997-14.826-8.41-23.039-6.297l-111.391 28.644c-18.215 4.683-35.249 12.53-50.63 23.323-3.391 2.38-4.211 7.058-1.832 10.448 2.38 3.389 7.056 4.209 10.447 1.831 9.979-7.003 20.732-12.625 32.093-16.81l125.025 125.025c-14.226 38.577-44.686 69.037-83.264 83.264l-125.012-125.013c1.975-5.345 4.266-10.566 6.869-15.628.186-.301.355-.612.496-.934 5.933-11.326 13.386-21.851 22.187-31.194 2.84-3.016 2.697-7.762-.317-10.603-3.017-2.839-7.762-2.697-10.603.317-6.797 7.217-12.872 15.069-18.157 23.415-21.099-33.28-54.242-57.552-92.707-67.442l-111.392-28.643c-8.212-2.113-17.04.301-23.038 6.297l-21.81 21.811c-5.997 5.996-8.411 14.824-6.299 23.039l28.645 111.392c.873 3.396 1.862 6.753 2.958 10.069.005.018.011.036.017.053 7.844 23.714 21.29 45.234 39.279 62.719 1.457 1.417 3.343 2.122 5.227 2.122 1.955 0 3.908-.76 5.378-2.272 2.887-2.97 2.82-7.719-.15-10.605-15.107-14.685-26.668-32.518-33.915-52.166l125.015-125.018c31.492 11.628 57.986 34.246 74.355 63.792-4.577 9.389-8.232 19.234-10.843 29.388l-3.405 13.242-101.842 101.843c-9.434-3.477-18.474-7.93-26.98-13.358-3.492-2.229-8.129-1.205-10.357 2.288-2.229 3.491-1.204 8.129 2.288 10.356 13.87 8.851 28.994 15.419 44.953 19.523l39.402 10.133-145.812 145.812c-9.039-4.566-20.372-3.094-27.914 4.447-9.394 9.395-9.394 24.681 0 34.075l35.202 35.202c4.551 4.551 10.602 7.057 17.037 7.057 6.436 0 12.486-2.506 17.037-7.057 7.542-7.542 9.015-18.876 4.447-27.915l171.262-171.262 3.957-1.018 3.957 1.018 171.262 171.262c-4.567 9.039-3.094 20.373 4.447 27.915 4.697 4.696 10.867 7.045 17.038 7.045 6.17 0 12.34-2.349 17.037-7.045l35.202-35.202c9.394-9.395 9.394-24.681 0-34.075-7.54-7.541-18.874-9.013-27.913-4.447zm-101.512-393.224 98.486 98.487-5.261 20.46-113.685-113.686zm56.003-14.4 56.884 56.884-10.061 39.128-85.951-85.95zm32.31-8.308c3.1-.8 6.433.113 8.695 2.377l21.811 21.81c2.264 2.263 3.175 5.595 2.377 8.695l-3.969 15.434-44.348-44.348zm-440.236 65.193 56.885-56.885 39.128 10.062-85.951 85.95zm14.401 56.002 98.486-98.486 20.461 5.261-113.685 113.685zm-20.332-97.008 21.809-21.81c2.264-2.264 5.596-3.173 8.696-2.377l15.435 3.969-44.348 44.349-3.969-15.434c-.797-3.101.114-6.434 2.377-8.697zm423.306 426.091-12.86-12.86 24.596-24.596 12.86 12.86zm-37.01-37.01 8.198-40.993 29.939 29.939-24.596 24.596zm-42.536-42.536 8.199-40.992 29.788 29.788-8.198 40.993zm-42.535-42.535 8.199-40.992 29.788 29.787-8.199 40.992zm-43.675-43.676 39.126-10.061-8.198 40.989zm-52.958 14.531-40.992-8.199 31.723-31.723 24.595 24.596zm-42.535 42.536-40.992-8.199 29.788-29.788 40.992 8.199zm-42.536 42.535-40.993-8.198 29.788-29.788 40.992 8.199zm-42.687 42.687-24.595-24.595 13.542-13.542 40.993 8.198zm-48.063-1.128 12.861-12.861 24.595 24.595-12.861 12.861zm297.37-174.287-98.487-98.486 5.261-20.461 113.685 113.686zm-56.003 14.401-56.885-56.885 10.061-39.128 85.951 85.951zm-66.485-19.549 5.261-20.46 44.349 44.349-20.46 5.261zm-4.244-43.728-48.877 48.876-20.46-5.261 78.241-78.241zm-32.002 53.215 24.659-24.659-3.496 13.595-13.13 13.13zm-119.344 223.315c-3.547 3.546-9.315 3.547-12.861 0l-35.202-35.203c-3.546-3.546-3.546-9.314 0-12.86 1.773-1.773 4.102-2.66 6.431-2.66s4.658.887 6.431 2.66l35.202 35.202c3.545 3.546 3.545 9.315-.001 12.861zm428.609-35.203-35.202 35.202c-3.545 3.546-9.315 3.547-12.86 0-3.546-3.546-3.546-9.314 0-12.86l35.202-35.202c1.772-1.773 4.102-2.66 6.431-2.66 2.328 0 4.657.887 6.43 2.66 3.545 3.546 3.545 9.315-.001 12.86z"/></g></svg>