<svg id="Capa_1" enable-background="new 0 0 512 512" height="512" viewBox="0 0 512 512" width="512" xmlns="http://www.w3.org/2000/svg"><g><g><path d="m191.269 283.631v31.004l18.698 60.556 21.608 29.234-4.988 24.594 21.573 69.87c2.55 7.48 13.13 7.48 15.68 0l26.387-85.78-2.797-28.292 22.119-34.521 9.006-29.277v-37.388z" fill="#f3ffff"/><path d="m287.43 384.818 22.119-34.521 9.006-29.277v-37.388h-23v37.388l-51.062 165.995 3.667 11.875c2.55 7.48 13.13 7.48 15.68 0l26.387-85.78z" fill="#dff9f9"/><path d="m405.1 189.733c0-17.011-6.423-32.514-16.96-44.246-.872-.971-1.181-2.323-.862-3.589.819-3.247 1.255-6.646 1.255-10.148 0-16.506-9.66-30.748-23.631-37.403-1.664-.793-2.589-2.639-2.22-4.445.654-3.207 1.001-6.524 1.001-9.924 0-27.449-22.251-49.7-49.7-49.7-1.354 0-2.693.059-4.018.169-1.061.088-2.103-.278-2.91-.972-15.943-13.694-36.672-21.975-59.338-21.975-31.377 0-59.049 15.861-75.438 40.002-.832 1.226-2.303 1.896-3.769 1.68-1.184-.175-2.395-.266-3.627-.266-13.724 0-24.85 11.126-24.85 24.85 0 .643.026 1.279.075 1.909.113 1.442-.602 2.808-1.807 3.608-8.939 5.933-14.835 16.084-14.835 27.617 0 7.282 2.353 14.01 6.337 19.477 1.315 1.805.839 4.35-1.01 5.601-13.208 8.932-21.893 24.044-21.893 41.189 0 14.146 5.916 26.906 15.402 35.956.813.776 1.226 1.877 1.197 3.001-.021.818-.033 1.637-.033 2.46 0 17.824 4.333 34.636 11.999 49.442.655 1.264.598 2.762-.139 3.98-2.727 4.504-4.065 9.942-3.414 15.724 1.26 11.189 10.145 20.266 21.307 21.746 4.896.649 9.555-.137 13.63-1.988 1.305-.593 2.808-.484 3.995.319 17.206 11.652 37.961 18.459 60.307 18.459 14.248 0 27.849-2.769 40.297-7.795 1.115-.45 2.36-.378 3.424.183 9.21 4.853 19.695 7.612 30.83 7.612 9.807 0 19.116-2.13 27.491-5.953 2.643-1.207 5.643.787 5.643 3.692v34.961c0 9.286 7.599 17.172 16.883 16.998 9.003-.169 16.25-7.52 16.25-16.564v-99.4c0-2.059-.104-4.093-.294-6.102-.14-1.485.577-2.929 1.847-3.711 18.941-11.662 31.578-32.576 31.578-56.454z" fill="#e28bd2"/><path d="m309.549 350.296-99.583 24.896 16.621 53.828 63.64-15.91z" fill="#dc3d36"/><path d="m265.311 419.339 24.916-6.229 17.175-55.835 2.147-6.979-24.916 6.229z" fill="#b13d49"/><g fill="#de6fba"><path d="m147.844 303.807c-.688-.466-1.483-.691-2.284-.688 1.061.528 2.165.98 3.304 1.352-.339-.223-.685-.436-1.02-.664z"/><path d="m388.14 145.487c-.872-.971-1.181-2.323-.862-3.589.819-3.247 1.255-6.646 1.255-10.148 0-16.506-9.66-30.748-23.631-37.403-1.664-.793-2.589-2.639-2.22-4.445.654-3.206 1.001-6.524 1.001-9.924 0-27.449-22.251-49.7-49.7-49.7-1.354 0-2.693.059-4.018.169-1.061.088-2.103-.278-2.91-.972-15.943-13.694-36.672-21.975-59.338-21.975-3.921 0-7.784.248-11.575.728 18.177 2.276 34.693 9.891 47.913 21.247.808.694 1.849 1.06 2.91.972 1.325-.109 2.665-.169 4.018-.169 27.449 0 49.7 22.251 49.7 49.7 0 3.4-.348 6.717-1.001 9.924-.368 1.806.556 3.652 2.22 4.445 13.971 6.654 23.631 20.897 23.631 37.403 0 3.502-.436 6.901-1.255 10.148-.319 1.266-.011 2.618.862 3.589 10.538 11.732 16.96 27.235 16.96 44.246 0 23.877-12.637 44.791-31.58 56.454-1.27.782-1.987 2.226-1.847 3.711.19 2.009.294 4.043.294 6.102v99.4c0 4.626-1.904 8.802-4.962 11.808 3.043 2.991 7.172 4.841 11.712 4.756 9.003-.169 16.25-7.52 16.25-16.564v-99.4c0-2.059-.104-4.093-.294-6.102-.14-1.485.577-2.929 1.847-3.711 18.943-11.662 31.58-32.576 31.58-56.454 0-17.011-6.423-32.513-16.96-44.246z"/></g></g><g><path d="m396.033 131.75c0-17.94-10.037-34.478-25.534-42.958.455-2.915.684-5.862.684-8.813 0-31.54-25.66-57.2-57.2-57.2-1.026 0-2.07.03-3.126.09-17.704-14.771-39.997-22.869-63.14-22.869-12.58 0-24.837 2.338-36.431 6.951-3.849 1.531-5.728 5.892-4.197 9.741s5.895 5.727 9.741 4.197c9.822-3.908 20.214-5.889 30.887-5.889 20.551 0 40.31 7.53 55.636 21.203 1.592 1.42 3.714 2.095 5.836 1.856 1.64-.186 3.253-.28 4.794-.28 23.269 0 42.2 18.931 42.2 42.2 0 1.222-.073 2.442-.179 3.658-2.897-.526-5.867-.804-8.887-.804-26.973 0-48.917 21.944-48.917 48.916 0 4.142 3.358 7.5 7.5 7.5s7.5-3.358 7.5-7.5c0-18.702 15.215-33.916 33.917-33.916 4.153 0 8.169.75 11.915 2.148.071.03.139.065.212.093 13.033 4.994 21.789 17.724 21.789 31.675 0 3.401-.503 6.761-1.495 9.987-.799 2.598-.129 5.425 1.75 7.389 10.519 10.994 16.312 25.415 16.312 40.607 0 21.139-11.455 40.749-29.895 51.178-2.656 1.502-4.137 4.463-3.746 7.489.336 2.606.507 5.163.507 7.599v99.4c0 5-4.067 9.067-9.067 9.067-4.999 0-9.066-4.067-9.066-9.067v-66.267c0-4.142-3.358-7.5-7.5-7.5s-7.5 3.358-7.5 7.5v19.757c-7.946 3.852-16.724 5.876-25.633 5.876-10.087 0-20.051-2.612-28.814-7.555l.026-.009c-17.875-10.09-29.979-29.254-29.979-51.203 0-4.142-3.358-7.5-7.5-7.5s-7.5 3.358-7.5 7.5c0 22.049 9.736 41.855 25.121 55.384-8.393 2.243-17.061 3.383-25.904 3.383-20.908 0-40.938-6.375-57.924-18.434-2.379-1.689-5.522-1.844-8.056-.4-2.602 1.483-5.565 2.268-8.569 2.268-9.567 0-17.35-7.783-17.35-17.35 0-3.728 1.166-7.281 3.372-10.274 1.73-2.348 1.942-5.485.544-8.044-6.395-11.708-10.367-24.681-11.696-37.996 7.59 3.728 16.118 5.831 25.13 5.831 31.54 0 57.2-25.66 57.2-57.2 0-4.142-3.358-7.5-7.5-7.5s-7.5 3.358-7.5 7.5c0 23.269-18.931 42.2-42.2 42.2-10.759 0-20.585-4.053-28.046-10.704l-.005.019c-8.992-8.01-14.148-19.497-14.148-31.515 0-15.335 8.347-29.486 21.783-36.933h.006c6.053-3.36 13.011-5.267 20.412-5.267 4.142 0 7.5-3.358 7.5-7.5s-3.358-7.5-7.5-7.5c-7.731 0-15.104 1.55-21.837 4.342-2.468-4.004-3.797-8.62-3.797-13.408 0-9.252 5.022-17.82 13.106-22.362 2.767-1.554 4.255-4.681 3.719-7.808-.172-1-.259-1.997-.259-2.964 0-9.567 7.783-17.35 17.35-17.35 1.404 0 2.812.172 4.185.511 0 0-.001.017-.001.02 7.549 1.879 13.167 8.696 13.167 16.819 0 4.142 3.358 7.5 7.5 7.5s7.5-3.358 7.5-7.5c0-11.425-5.959-21.478-14.926-27.235 3.221-4.04 6.809-7.783 10.734-11.178 3.132-2.71 3.475-7.446.765-10.579-2.711-3.133-7.446-3.476-10.579-.765-5.996 5.188-11.334 11.059-15.915 17.499-.808-.061-1.618-.092-2.428-.092-17.838 0-32.35 14.512-32.35 32.35 0 .133.001.266.002.399-10.327 7.603-16.569 19.742-16.569 32.734 0 7.453 2.019 14.645 5.79 20.909-13.967 10.738-22.36 27.453-22.36 45.36 0 15.097 6 29.574 16.574 40.252-.005.396-.007.784-.007 1.165 0 17.778 4.135 35.392 11.991 51.216-2.437 4.615-3.708 9.739-3.708 15.051 0 17.838 14.512 32.35 32.35 32.35 3.97 0 7.904-.735 11.589-2.149 5.418 3.546 11.088 6.59 16.949 9.149l4.918 15.929c.994 3.221 3.96 5.29 7.163 5.29.733 0 1.478-.108 2.215-.336 3.958-1.222 6.176-5.421 4.954-9.378l-1.691-5.477c9.212 2.337 18.75 3.54 28.453 3.54 14.381 0 28.368-2.608 41.63-7.756 10.187 5.084 21.491 7.756 32.92 7.756.779 0 1.556-.027 2.333-.052l-4.409 14.332-88.587 22.147-1.791-5.8c-1.222-3.958-5.423-6.174-9.378-4.954-3.958 1.222-6.176 5.421-4.954 9.379l42.079 136.284c.021.07.044.139.067.208 2.214 6.494 8.078 10.69 14.938 10.69h.001c6.86 0 12.725-4.196 14.939-10.69.024-.071.048-.143.07-.215l53.451-173.764c2.324-.61 4.62-1.322 6.874-2.155v30.221c0 13.271 10.796 24.067 24.066 24.067 13.271 0 24.067-10.796 24.067-24.067v-99.4c0-1.51-.051-3.051-.153-4.612 20.648-13.582 33.286-36.774 33.286-61.655 0-17.655-6.23-34.479-17.626-47.827.705-3.329 1.06-6.729 1.06-10.156zm-97.561 229.046-14.17 46.064-52.645 13.161-12.188-39.475zm-41.759 135.754c-.078.21-.218.45-.713.45-.498 0-.636-.242-.714-.453l-19.196-62.173 43.061-10.765z"/><path d="m64.7 173.167c0-4.142-3.358-7.5-7.5-7.5h-33.133c-4.142 0-7.5 3.358-7.5 7.5s3.358 7.5 7.5 7.5h33.133c4.142 0 7.5-3.358 7.5-7.5z"/><path d="m80.084 266.072-28.694 16.566c-3.587 2.071-4.816 6.658-2.745 10.245 1.389 2.406 3.91 3.751 6.502 3.751 1.272 0 2.562-.324 3.743-1.006l28.694-16.566c3.587-2.071 4.816-6.658 2.745-10.245s-6.658-4.816-10.245-2.745z"/><path d="m460.61 282.638-28.694-16.566c-3.587-2.072-8.174-.842-10.245 2.745s-.842 8.174 2.745 10.245l28.694 16.566c1.181.682 2.471 1.006 3.743 1.006 2.592 0 5.113-1.346 6.502-3.751 2.072-3.587.842-8.174-2.745-10.245z"/><path d="m487.933 165.667h-33.133c-4.142 0-7.5 3.358-7.5 7.5s3.358 7.5 7.5 7.5h33.133c4.142 0 7.5-3.358 7.5-7.5 0-4.143-3.358-7.5-7.5-7.5z"/><path d="m428.173 81.268c1.272 0 2.562-.324 3.743-1.006l28.694-16.566c3.587-2.071 4.816-6.658 2.745-10.245s-6.658-4.816-10.245-2.745l-28.694 16.566c-3.587 2.071-4.816 6.658-2.745 10.245 1.389 2.406 3.91 3.751 6.502 3.751z"/><path d="m87.584 67.272-28.694-16.567c-3.587-2.072-8.174-.842-10.245 2.745s-.842 8.174 2.745 10.245l28.694 16.566c1.181.682 2.471 1.006 3.743 1.006 2.592 0 5.113-1.346 6.502-3.752 2.071-3.586.842-8.173-2.745-10.243z"/></g></g></svg>